<?xml version="1.0" encoding="utf-8" standalone="no"?>
<!DOCTYPE svg PUBLIC "-//W3C//DTD SVG 1.1//EN"
  "http://www.w3.org/Graphics/SVG/1.1/DTD/svg11.dtd">
<!-- Created with matplotlib (https://matplotlib.org/) -->
<svg height="864pt" version="1.1" viewBox="0 0 1080 864" width="1080pt" xmlns="http://www.w3.org/2000/svg" xmlns:xlink="http://www.w3.org/1999/xlink">
 <metadata>
  <rdf:RDF xmlns:cc="http://creativecommons.org/ns#" xmlns:dc="http://purl.org/dc/elements/1.1/" xmlns:rdf="http://www.w3.org/1999/02/22-rdf-syntax-ns#">
   <cc:Work>
    <dc:type rdf:resource="http://purl.org/dc/dcmitype/StillImage"/>
    <dc:date>2020-08-01T14:29:43.079372</dc:date>
    <dc:format>image/svg+xml</dc:format>
    <dc:creator>
     <cc:Agent>
      <dc:title>Matplotlib v3.3.0, https://matplotlib.org/</dc:title>
     </cc:Agent>
    </dc:creator>
   </cc:Work>
  </rdf:RDF>
 </metadata>
 <defs>
  <style type="text/css">*{stroke-linecap:butt;stroke-linejoin:round;}</style>
 </defs>
 <g id="figure_1">
  <g id="patch_1">
   <path d="M 0 864 
L 1080 864 
L 1080 0 
L 0 0 
z
" style="fill:none;"/>
  </g>
  <g id="axes_1">
   <g id="patch_2">
    <path d="M 135 400.189091 
L 972 400.189091 
L 972 103.68 
L 135 103.68 
z
" style="fill:#ffffff;"/>
   </g>
   <g id="matplotlib.axis_1">
    <g id="xtick_1">
     <g id="line2d_1">
      <defs>
       <path d="M 0 0 
L 0 3.5 
" id="m1ccb0d2a2a" style="stroke:#000000;stroke-width:0.8;"/>
      </defs>
      <g>
       <use style="stroke:#000000;stroke-width:0.8;" x="135" xlink:href="#m1ccb0d2a2a" y="400.189091"/>
      </g>
     </g>
     <g id="text_1">
      <!-- Sun July 12 -->
      <g transform="translate(106.955469 414.787528)scale(0.1 -0.1)">
       <defs>
        <path d="M 53.515625 70.515625 
L 53.515625 60.890625 
Q 47.90625 63.578125 42.921875 64.890625 
Q 37.9375 66.21875 33.296875 66.21875 
Q 25.25 66.21875 20.875 63.09375 
Q 16.5 59.96875 16.5 54.203125 
Q 16.5 49.359375 19.40625 46.890625 
Q 22.3125 44.4375 30.421875 42.921875 
L 36.375 41.703125 
Q 47.40625 39.59375 52.65625 34.296875 
Q 57.90625 29 57.90625 20.125 
Q 57.90625 9.515625 50.796875 4.046875 
Q 43.703125 -1.421875 29.984375 -1.421875 
Q 24.8125 -1.421875 18.96875 -0.25 
Q 13.140625 0.921875 6.890625 3.21875 
L 6.890625 13.375 
Q 12.890625 10.015625 18.65625 8.296875 
Q 24.421875 6.59375 29.984375 6.59375 
Q 38.421875 6.59375 43.015625 9.90625 
Q 47.609375 13.234375 47.609375 19.390625 
Q 47.609375 24.75 44.3125 27.78125 
Q 41.015625 30.8125 33.5 32.328125 
L 27.484375 33.5 
Q 16.453125 35.6875 11.515625 40.375 
Q 6.59375 45.0625 6.59375 53.421875 
Q 6.59375 63.09375 13.40625 68.65625 
Q 20.21875 74.21875 32.171875 74.21875 
Q 37.3125 74.21875 42.625 73.28125 
Q 47.953125 72.359375 53.515625 70.515625 
z
" id="DejaVuSans-83"/>
        <path d="M 8.5 21.578125 
L 8.5 54.6875 
L 17.484375 54.6875 
L 17.484375 21.921875 
Q 17.484375 14.15625 20.5 10.265625 
Q 23.53125 6.390625 29.59375 6.390625 
Q 36.859375 6.390625 41.078125 11.03125 
Q 45.3125 15.671875 45.3125 23.6875 
L 45.3125 54.6875 
L 54.296875 54.6875 
L 54.296875 0 
L 45.3125 0 
L 45.3125 8.40625 
Q 42.046875 3.421875 37.71875 1 
Q 33.40625 -1.421875 27.6875 -1.421875 
Q 18.265625 -1.421875 13.375 4.4375 
Q 8.5 10.296875 8.5 21.578125 
z
M 31.109375 56 
z
" id="DejaVuSans-117"/>
        <path d="M 54.890625 33.015625 
L 54.890625 0 
L 45.90625 0 
L 45.90625 32.71875 
Q 45.90625 40.484375 42.875 44.328125 
Q 39.84375 48.1875 33.796875 48.1875 
Q 26.515625 48.1875 22.3125 43.546875 
Q 18.109375 38.921875 18.109375 30.90625 
L 18.109375 0 
L 9.078125 0 
L 9.078125 54.6875 
L 18.109375 54.6875 
L 18.109375 46.1875 
Q 21.34375 51.125 25.703125 53.5625 
Q 30.078125 56 35.796875 56 
Q 45.21875 56 50.046875 50.171875 
Q 54.890625 44.34375 54.890625 33.015625 
z
" id="DejaVuSans-110"/>
        <path id="DejaVuSans-32"/>
        <path d="M 9.8125 72.90625 
L 19.671875 72.90625 
L 19.671875 5.078125 
Q 19.671875 -8.109375 14.671875 -14.0625 
Q 9.671875 -20.015625 -1.421875 -20.015625 
L -5.171875 -20.015625 
L -5.171875 -11.71875 
L -2.09375 -11.71875 
Q 4.4375 -11.71875 7.125 -8.046875 
Q 9.8125 -4.390625 9.8125 5.078125 
z
" id="DejaVuSans-74"/>
        <path d="M 9.421875 75.984375 
L 18.40625 75.984375 
L 18.40625 0 
L 9.421875 0 
z
" id="DejaVuSans-108"/>
        <path d="M 32.171875 -5.078125 
Q 28.375 -14.84375 24.75 -17.8125 
Q 21.140625 -20.796875 15.09375 -20.796875 
L 7.90625 -20.796875 
L 7.90625 -13.28125 
L 13.1875 -13.28125 
Q 16.890625 -13.28125 18.9375 -11.515625 
Q 21 -9.765625 23.484375 -3.21875 
L 25.09375 0.875 
L 2.984375 54.6875 
L 12.5 54.6875 
L 29.59375 11.921875 
L 46.6875 54.6875 
L 56.203125 54.6875 
z
" id="DejaVuSans-121"/>
        <path d="M 12.40625 8.296875 
L 28.515625 8.296875 
L 28.515625 63.921875 
L 10.984375 60.40625 
L 10.984375 69.390625 
L 28.421875 72.90625 
L 38.28125 72.90625 
L 38.28125 8.296875 
L 54.390625 8.296875 
L 54.390625 0 
L 12.40625 0 
z
" id="DejaVuSans-49"/>
        <path d="M 19.1875 8.296875 
L 53.609375 8.296875 
L 53.609375 0 
L 7.328125 0 
L 7.328125 8.296875 
Q 12.9375 14.109375 22.625 23.890625 
Q 32.328125 33.6875 34.8125 36.53125 
Q 39.546875 41.84375 41.421875 45.53125 
Q 43.3125 49.21875 43.3125 52.78125 
Q 43.3125 58.59375 39.234375 62.25 
Q 35.15625 65.921875 28.609375 65.921875 
Q 23.96875 65.921875 18.8125 64.3125 
Q 13.671875 62.703125 7.8125 59.421875 
L 7.8125 69.390625 
Q 13.765625 71.78125 18.9375 73 
Q 24.125 74.21875 28.421875 74.21875 
Q 39.75 74.21875 46.484375 68.546875 
Q 53.21875 62.890625 53.21875 53.421875 
Q 53.21875 48.921875 51.53125 44.890625 
Q 49.859375 40.875 45.40625 35.40625 
Q 44.1875 33.984375 37.640625 27.21875 
Q 31.109375 20.453125 19.1875 8.296875 
z
" id="DejaVuSans-50"/>
       </defs>
       <use xlink:href="#DejaVuSans-83"/>
       <use x="63.476562" xlink:href="#DejaVuSans-117"/>
       <use x="126.855469" xlink:href="#DejaVuSans-110"/>
       <use x="190.234375" xlink:href="#DejaVuSans-32"/>
       <use x="222.021484" xlink:href="#DejaVuSans-74"/>
       <use x="251.513672" xlink:href="#DejaVuSans-117"/>
       <use x="314.892578" xlink:href="#DejaVuSans-108"/>
       <use x="342.675781" xlink:href="#DejaVuSans-121"/>
       <use x="401.855469" xlink:href="#DejaVuSans-32"/>
       <use x="433.642578" xlink:href="#DejaVuSans-49"/>
       <use x="497.265625" xlink:href="#DejaVuSans-50"/>
      </g>
     </g>
    </g>
    <g id="xtick_2">
     <g id="line2d_2">
      <g>
       <use style="stroke:#000000;stroke-width:0.8;" x="972" xlink:href="#m1ccb0d2a2a" y="400.189091"/>
      </g>
     </g>
     <g id="text_2">
      <!-- Sun July 19 -->
      <g transform="translate(943.955469 414.787528)scale(0.1 -0.1)">
       <defs>
        <path d="M 10.984375 1.515625 
L 10.984375 10.5 
Q 14.703125 8.734375 18.5 7.8125 
Q 22.3125 6.890625 25.984375 6.890625 
Q 35.75 6.890625 40.890625 13.453125 
Q 46.046875 20.015625 46.78125 33.40625 
Q 43.953125 29.203125 39.59375 26.953125 
Q 35.25 24.703125 29.984375 24.703125 
Q 19.046875 24.703125 12.671875 31.3125 
Q 6.296875 37.9375 6.296875 49.421875 
Q 6.296875 60.640625 12.9375 67.421875 
Q 19.578125 74.21875 30.609375 74.21875 
Q 43.265625 74.21875 49.921875 64.515625 
Q 56.59375 54.828125 56.59375 36.375 
Q 56.59375 19.140625 48.40625 8.859375 
Q 40.234375 -1.421875 26.421875 -1.421875 
Q 22.703125 -1.421875 18.890625 -0.6875 
Q 15.09375 0.046875 10.984375 1.515625 
z
M 30.609375 32.421875 
Q 37.25 32.421875 41.125 36.953125 
Q 45.015625 41.5 45.015625 49.421875 
Q 45.015625 57.28125 41.125 61.84375 
Q 37.25 66.40625 30.609375 66.40625 
Q 23.96875 66.40625 20.09375 61.84375 
Q 16.21875 57.28125 16.21875 49.421875 
Q 16.21875 41.5 20.09375 36.953125 
Q 23.96875 32.421875 30.609375 32.421875 
z
" id="DejaVuSans-57"/>
       </defs>
       <use xlink:href="#DejaVuSans-83"/>
       <use x="63.476562" xlink:href="#DejaVuSans-117"/>
       <use x="126.855469" xlink:href="#DejaVuSans-110"/>
       <use x="190.234375" xlink:href="#DejaVuSans-32"/>
       <use x="222.021484" xlink:href="#DejaVuSans-74"/>
       <use x="251.513672" xlink:href="#DejaVuSans-117"/>
       <use x="314.892578" xlink:href="#DejaVuSans-108"/>
       <use x="342.675781" xlink:href="#DejaVuSans-121"/>
       <use x="401.855469" xlink:href="#DejaVuSans-32"/>
       <use x="433.642578" xlink:href="#DejaVuSans-49"/>
       <use x="497.265625" xlink:href="#DejaVuSans-57"/>
      </g>
     </g>
    </g>
    <g id="xtick_3">
     <g id="line2d_3">
      <defs>
       <path d="M 0 0 
L 0 2 
" id="m69b52d5cc0" style="stroke:#000000;stroke-width:0.6;"/>
      </defs>
      <g>
       <use style="stroke:#000000;stroke-width:0.6;" x="254.571429" xlink:href="#m69b52d5cc0" y="400.189091"/>
      </g>
     </g>
     <g id="text_3">
      <!-- Mon July 13 -->
      <g transform="translate(225.496429 413.187528)scale(0.1 -0.1)">
       <defs>
        <path d="M 9.8125 72.90625 
L 24.515625 72.90625 
L 43.109375 23.296875 
L 61.8125 72.90625 
L 76.515625 72.90625 
L 76.515625 0 
L 66.890625 0 
L 66.890625 64.015625 
L 48.09375 14.015625 
L 38.1875 14.015625 
L 19.390625 64.015625 
L 19.390625 0 
L 9.8125 0 
z
" id="DejaVuSans-77"/>
        <path d="M 30.609375 48.390625 
Q 23.390625 48.390625 19.1875 42.75 
Q 14.984375 37.109375 14.984375 27.296875 
Q 14.984375 17.484375 19.15625 11.84375 
Q 23.34375 6.203125 30.609375 6.203125 
Q 37.796875 6.203125 41.984375 11.859375 
Q 46.1875 17.53125 46.1875 27.296875 
Q 46.1875 37.015625 41.984375 42.703125 
Q 37.796875 48.390625 30.609375 48.390625 
z
M 30.609375 56 
Q 42.328125 56 49.015625 48.375 
Q 55.71875 40.765625 55.71875 27.296875 
Q 55.71875 13.875 49.015625 6.21875 
Q 42.328125 -1.421875 30.609375 -1.421875 
Q 18.84375 -1.421875 12.171875 6.21875 
Q 5.515625 13.875 5.515625 27.296875 
Q 5.515625 40.765625 12.171875 48.375 
Q 18.84375 56 30.609375 56 
z
" id="DejaVuSans-111"/>
        <path d="M 40.578125 39.3125 
Q 47.65625 37.796875 51.625 33 
Q 55.609375 28.21875 55.609375 21.1875 
Q 55.609375 10.40625 48.1875 4.484375 
Q 40.765625 -1.421875 27.09375 -1.421875 
Q 22.515625 -1.421875 17.65625 -0.515625 
Q 12.796875 0.390625 7.625 2.203125 
L 7.625 11.71875 
Q 11.71875 9.328125 16.59375 8.109375 
Q 21.484375 6.890625 26.8125 6.890625 
Q 36.078125 6.890625 40.9375 10.546875 
Q 45.796875 14.203125 45.796875 21.1875 
Q 45.796875 27.640625 41.28125 31.265625 
Q 36.765625 34.90625 28.71875 34.90625 
L 20.21875 34.90625 
L 20.21875 43.015625 
L 29.109375 43.015625 
Q 36.375 43.015625 40.234375 45.921875 
Q 44.09375 48.828125 44.09375 54.296875 
Q 44.09375 59.90625 40.109375 62.90625 
Q 36.140625 65.921875 28.71875 65.921875 
Q 24.65625 65.921875 20.015625 65.03125 
Q 15.375 64.15625 9.8125 62.3125 
L 9.8125 71.09375 
Q 15.4375 72.65625 20.34375 73.4375 
Q 25.25 74.21875 29.59375 74.21875 
Q 40.828125 74.21875 47.359375 69.109375 
Q 53.90625 64.015625 53.90625 55.328125 
Q 53.90625 49.265625 50.4375 45.09375 
Q 46.96875 40.921875 40.578125 39.3125 
z
" id="DejaVuSans-51"/>
       </defs>
       <use xlink:href="#DejaVuSans-77"/>
       <use x="86.279297" xlink:href="#DejaVuSans-111"/>
       <use x="147.460938" xlink:href="#DejaVuSans-110"/>
       <use x="210.839844" xlink:href="#DejaVuSans-32"/>
       <use x="242.626953" xlink:href="#DejaVuSans-74"/>
       <use x="272.119141" xlink:href="#DejaVuSans-117"/>
       <use x="335.498047" xlink:href="#DejaVuSans-108"/>
       <use x="363.28125" xlink:href="#DejaVuSans-121"/>
       <use x="422.460938" xlink:href="#DejaVuSans-32"/>
       <use x="454.248047" xlink:href="#DejaVuSans-49"/>
       <use x="517.871094" xlink:href="#DejaVuSans-51"/>
      </g>
     </g>
    </g>
    <g id="xtick_4">
     <g id="line2d_4">
      <g>
       <use style="stroke:#000000;stroke-width:0.6;" x="374.142857" xlink:href="#m69b52d5cc0" y="400.189091"/>
      </g>
     </g>
     <g id="text_4">
      <!-- Tue July 14 -->
      <g transform="translate(347.067076 413.187528)scale(0.1 -0.1)">
       <defs>
        <path d="M -0.296875 72.90625 
L 61.375 72.90625 
L 61.375 64.59375 
L 35.5 64.59375 
L 35.5 0 
L 25.59375 0 
L 25.59375 64.59375 
L -0.296875 64.59375 
z
" id="DejaVuSans-84"/>
        <path d="M 56.203125 29.59375 
L 56.203125 25.203125 
L 14.890625 25.203125 
Q 15.484375 15.921875 20.484375 11.0625 
Q 25.484375 6.203125 34.421875 6.203125 
Q 39.59375 6.203125 44.453125 7.46875 
Q 49.3125 8.734375 54.109375 11.28125 
L 54.109375 2.78125 
Q 49.265625 0.734375 44.1875 -0.34375 
Q 39.109375 -1.421875 33.890625 -1.421875 
Q 20.796875 -1.421875 13.15625 6.1875 
Q 5.515625 13.8125 5.515625 26.8125 
Q 5.515625 40.234375 12.765625 48.109375 
Q 20.015625 56 32.328125 56 
Q 43.359375 56 49.78125 48.890625 
Q 56.203125 41.796875 56.203125 29.59375 
z
M 47.21875 32.234375 
Q 47.125 39.59375 43.09375 43.984375 
Q 39.0625 48.390625 32.421875 48.390625 
Q 24.90625 48.390625 20.390625 44.140625 
Q 15.875 39.890625 15.1875 32.171875 
z
" id="DejaVuSans-101"/>
        <path d="M 37.796875 64.3125 
L 12.890625 25.390625 
L 37.796875 25.390625 
z
M 35.203125 72.90625 
L 47.609375 72.90625 
L 47.609375 25.390625 
L 58.015625 25.390625 
L 58.015625 17.1875 
L 47.609375 17.1875 
L 47.609375 0 
L 37.796875 0 
L 37.796875 17.1875 
L 4.890625 17.1875 
L 4.890625 26.703125 
z
" id="DejaVuSans-52"/>
       </defs>
       <use xlink:href="#DejaVuSans-84"/>
       <use x="45.958984" xlink:href="#DejaVuSans-117"/>
       <use x="109.337891" xlink:href="#DejaVuSans-101"/>
       <use x="170.861328" xlink:href="#DejaVuSans-32"/>
       <use x="202.648438" xlink:href="#DejaVuSans-74"/>
       <use x="232.140625" xlink:href="#DejaVuSans-117"/>
       <use x="295.519531" xlink:href="#DejaVuSans-108"/>
       <use x="323.302734" xlink:href="#DejaVuSans-121"/>
       <use x="382.482422" xlink:href="#DejaVuSans-32"/>
       <use x="414.269531" xlink:href="#DejaVuSans-49"/>
       <use x="477.892578" xlink:href="#DejaVuSans-52"/>
      </g>
     </g>
    </g>
    <g id="xtick_5">
     <g id="line2d_5">
      <g>
       <use style="stroke:#000000;stroke-width:0.6;" x="493.714286" xlink:href="#m69b52d5cc0" y="400.189091"/>
      </g>
     </g>
     <g id="text_5">
      <!-- Wed July 15 -->
      <g transform="translate(464.280692 413.187528)scale(0.1 -0.1)">
       <defs>
        <path d="M 3.328125 72.90625 
L 13.28125 72.90625 
L 28.609375 11.28125 
L 43.890625 72.90625 
L 54.984375 72.90625 
L 70.3125 11.28125 
L 85.59375 72.90625 
L 95.609375 72.90625 
L 77.296875 0 
L 64.890625 0 
L 49.515625 63.28125 
L 33.984375 0 
L 21.578125 0 
z
" id="DejaVuSans-87"/>
        <path d="M 45.40625 46.390625 
L 45.40625 75.984375 
L 54.390625 75.984375 
L 54.390625 0 
L 45.40625 0 
L 45.40625 8.203125 
Q 42.578125 3.328125 38.25 0.953125 
Q 33.9375 -1.421875 27.875 -1.421875 
Q 17.96875 -1.421875 11.734375 6.484375 
Q 5.515625 14.40625 5.515625 27.296875 
Q 5.515625 40.1875 11.734375 48.09375 
Q 17.96875 56 27.875 56 
Q 33.9375 56 38.25 53.625 
Q 42.578125 51.265625 45.40625 46.390625 
z
M 14.796875 27.296875 
Q 14.796875 17.390625 18.875 11.75 
Q 22.953125 6.109375 30.078125 6.109375 
Q 37.203125 6.109375 41.296875 11.75 
Q 45.40625 17.390625 45.40625 27.296875 
Q 45.40625 37.203125 41.296875 42.84375 
Q 37.203125 48.484375 30.078125 48.484375 
Q 22.953125 48.484375 18.875 42.84375 
Q 14.796875 37.203125 14.796875 27.296875 
z
" id="DejaVuSans-100"/>
        <path d="M 10.796875 72.90625 
L 49.515625 72.90625 
L 49.515625 64.59375 
L 19.828125 64.59375 
L 19.828125 46.734375 
Q 21.96875 47.46875 24.109375 47.828125 
Q 26.265625 48.1875 28.421875 48.1875 
Q 40.625 48.1875 47.75 41.5 
Q 54.890625 34.8125 54.890625 23.390625 
Q 54.890625 11.625 47.5625 5.09375 
Q 40.234375 -1.421875 26.90625 -1.421875 
Q 22.3125 -1.421875 17.546875 -0.640625 
Q 12.796875 0.140625 7.71875 1.703125 
L 7.71875 11.625 
Q 12.109375 9.234375 16.796875 8.0625 
Q 21.484375 6.890625 26.703125 6.890625 
Q 35.15625 6.890625 40.078125 11.328125 
Q 45.015625 15.765625 45.015625 23.390625 
Q 45.015625 31 40.078125 35.4375 
Q 35.15625 39.890625 26.703125 39.890625 
Q 22.75 39.890625 18.8125 39.015625 
Q 14.890625 38.140625 10.796875 36.28125 
z
" id="DejaVuSans-53"/>
       </defs>
       <use xlink:href="#DejaVuSans-87"/>
       <use x="93.001953" xlink:href="#DejaVuSans-101"/>
       <use x="154.525391" xlink:href="#DejaVuSans-100"/>
       <use x="218.001953" xlink:href="#DejaVuSans-32"/>
       <use x="249.789062" xlink:href="#DejaVuSans-74"/>
       <use x="279.28125" xlink:href="#DejaVuSans-117"/>
       <use x="342.660156" xlink:href="#DejaVuSans-108"/>
       <use x="370.443359" xlink:href="#DejaVuSans-121"/>
       <use x="429.623047" xlink:href="#DejaVuSans-32"/>
       <use x="461.410156" xlink:href="#DejaVuSans-49"/>
       <use x="525.033203" xlink:href="#DejaVuSans-53"/>
      </g>
     </g>
    </g>
    <g id="xtick_6">
     <g id="line2d_6">
      <g>
       <use style="stroke:#000000;stroke-width:0.6;" x="613.285714" xlink:href="#m69b52d5cc0" y="400.189091"/>
      </g>
     </g>
     <g id="text_6">
      <!-- Thu July 16 -->
      <g transform="translate(585.361496 413.187528)scale(0.1 -0.1)">
       <defs>
        <path d="M 54.890625 33.015625 
L 54.890625 0 
L 45.90625 0 
L 45.90625 32.71875 
Q 45.90625 40.484375 42.875 44.328125 
Q 39.84375 48.1875 33.796875 48.1875 
Q 26.515625 48.1875 22.3125 43.546875 
Q 18.109375 38.921875 18.109375 30.90625 
L 18.109375 0 
L 9.078125 0 
L 9.078125 75.984375 
L 18.109375 75.984375 
L 18.109375 46.1875 
Q 21.34375 51.125 25.703125 53.5625 
Q 30.078125 56 35.796875 56 
Q 45.21875 56 50.046875 50.171875 
Q 54.890625 44.34375 54.890625 33.015625 
z
" id="DejaVuSans-104"/>
        <path d="M 33.015625 40.375 
Q 26.375 40.375 22.484375 35.828125 
Q 18.609375 31.296875 18.609375 23.390625 
Q 18.609375 15.53125 22.484375 10.953125 
Q 26.375 6.390625 33.015625 6.390625 
Q 39.65625 6.390625 43.53125 10.953125 
Q 47.40625 15.53125 47.40625 23.390625 
Q 47.40625 31.296875 43.53125 35.828125 
Q 39.65625 40.375 33.015625 40.375 
z
M 52.59375 71.296875 
L 52.59375 62.3125 
Q 48.875 64.0625 45.09375 64.984375 
Q 41.3125 65.921875 37.59375 65.921875 
Q 27.828125 65.921875 22.671875 59.328125 
Q 17.53125 52.734375 16.796875 39.40625 
Q 19.671875 43.65625 24.015625 45.921875 
Q 28.375 48.1875 33.59375 48.1875 
Q 44.578125 48.1875 50.953125 41.515625 
Q 57.328125 34.859375 57.328125 23.390625 
Q 57.328125 12.15625 50.6875 5.359375 
Q 44.046875 -1.421875 33.015625 -1.421875 
Q 20.359375 -1.421875 13.671875 8.265625 
Q 6.984375 17.96875 6.984375 36.375 
Q 6.984375 53.65625 15.1875 63.9375 
Q 23.390625 74.21875 37.203125 74.21875 
Q 40.921875 74.21875 44.703125 73.484375 
Q 48.484375 72.75 52.59375 71.296875 
z
" id="DejaVuSans-54"/>
       </defs>
       <use xlink:href="#DejaVuSans-84"/>
       <use x="61.083984" xlink:href="#DejaVuSans-104"/>
       <use x="124.462891" xlink:href="#DejaVuSans-117"/>
       <use x="187.841797" xlink:href="#DejaVuSans-32"/>
       <use x="219.628906" xlink:href="#DejaVuSans-74"/>
       <use x="249.121094" xlink:href="#DejaVuSans-117"/>
       <use x="312.5" xlink:href="#DejaVuSans-108"/>
       <use x="340.283203" xlink:href="#DejaVuSans-121"/>
       <use x="399.462891" xlink:href="#DejaVuSans-32"/>
       <use x="431.25" xlink:href="#DejaVuSans-49"/>
       <use x="494.873047" xlink:href="#DejaVuSans-54"/>
      </g>
     </g>
    </g>
    <g id="xtick_7">
     <g id="line2d_7">
      <g>
       <use style="stroke:#000000;stroke-width:0.6;" x="732.857143" xlink:href="#m69b52d5cc0" y="400.189091"/>
      </g>
     </g>
     <g id="text_7">
      <!-- Fri July 17 -->
      <g transform="translate(708.366518 413.187528)scale(0.1 -0.1)">
       <defs>
        <path d="M 9.8125 72.90625 
L 51.703125 72.90625 
L 51.703125 64.59375 
L 19.671875 64.59375 
L 19.671875 43.109375 
L 48.578125 43.109375 
L 48.578125 34.8125 
L 19.671875 34.8125 
L 19.671875 0 
L 9.8125 0 
z
" id="DejaVuSans-70"/>
        <path d="M 41.109375 46.296875 
Q 39.59375 47.171875 37.8125 47.578125 
Q 36.03125 48 33.890625 48 
Q 26.265625 48 22.1875 43.046875 
Q 18.109375 38.09375 18.109375 28.8125 
L 18.109375 0 
L 9.078125 0 
L 9.078125 54.6875 
L 18.109375 54.6875 
L 18.109375 46.1875 
Q 20.953125 51.171875 25.484375 53.578125 
Q 30.03125 56 36.53125 56 
Q 37.453125 56 38.578125 55.875 
Q 39.703125 55.765625 41.0625 55.515625 
z
" id="DejaVuSans-114"/>
        <path d="M 9.421875 54.6875 
L 18.40625 54.6875 
L 18.40625 0 
L 9.421875 0 
z
M 9.421875 75.984375 
L 18.40625 75.984375 
L 18.40625 64.59375 
L 9.421875 64.59375 
z
" id="DejaVuSans-105"/>
        <path d="M 8.203125 72.90625 
L 55.078125 72.90625 
L 55.078125 68.703125 
L 28.609375 0 
L 18.3125 0 
L 43.21875 64.59375 
L 8.203125 64.59375 
z
" id="DejaVuSans-55"/>
       </defs>
       <use xlink:href="#DejaVuSans-70"/>
       <use x="50.269531" xlink:href="#DejaVuSans-114"/>
       <use x="91.382812" xlink:href="#DejaVuSans-105"/>
       <use x="119.166016" xlink:href="#DejaVuSans-32"/>
       <use x="150.953125" xlink:href="#DejaVuSans-74"/>
       <use x="180.445312" xlink:href="#DejaVuSans-117"/>
       <use x="243.824219" xlink:href="#DejaVuSans-108"/>
       <use x="271.607422" xlink:href="#DejaVuSans-121"/>
       <use x="330.787109" xlink:href="#DejaVuSans-32"/>
       <use x="362.574219" xlink:href="#DejaVuSans-49"/>
       <use x="426.197266" xlink:href="#DejaVuSans-55"/>
      </g>
     </g>
    </g>
    <g id="xtick_8">
     <g id="line2d_8">
      <g>
       <use style="stroke:#000000;stroke-width:0.6;" x="852.428571" xlink:href="#m69b52d5cc0" y="400.189091"/>
      </g>
     </g>
     <g id="text_8">
      <!-- Sat July 18 -->
      <g transform="translate(825.697321 413.187528)scale(0.1 -0.1)">
       <defs>
        <path d="M 34.28125 27.484375 
Q 23.390625 27.484375 19.1875 25 
Q 14.984375 22.515625 14.984375 16.5 
Q 14.984375 11.71875 18.140625 8.90625 
Q 21.296875 6.109375 26.703125 6.109375 
Q 34.1875 6.109375 38.703125 11.40625 
Q 43.21875 16.703125 43.21875 25.484375 
L 43.21875 27.484375 
z
M 52.203125 31.203125 
L 52.203125 0 
L 43.21875 0 
L 43.21875 8.296875 
Q 40.140625 3.328125 35.546875 0.953125 
Q 30.953125 -1.421875 24.3125 -1.421875 
Q 15.921875 -1.421875 10.953125 3.296875 
Q 6 8.015625 6 15.921875 
Q 6 25.140625 12.171875 29.828125 
Q 18.359375 34.515625 30.609375 34.515625 
L 43.21875 34.515625 
L 43.21875 35.40625 
Q 43.21875 41.609375 39.140625 45 
Q 35.0625 48.390625 27.6875 48.390625 
Q 23 48.390625 18.546875 47.265625 
Q 14.109375 46.140625 10.015625 43.890625 
L 10.015625 52.203125 
Q 14.9375 54.109375 19.578125 55.046875 
Q 24.21875 56 28.609375 56 
Q 40.484375 56 46.34375 49.84375 
Q 52.203125 43.703125 52.203125 31.203125 
z
" id="DejaVuSans-97"/>
        <path d="M 18.3125 70.21875 
L 18.3125 54.6875 
L 36.8125 54.6875 
L 36.8125 47.703125 
L 18.3125 47.703125 
L 18.3125 18.015625 
Q 18.3125 11.328125 20.140625 9.421875 
Q 21.96875 7.515625 27.59375 7.515625 
L 36.8125 7.515625 
L 36.8125 0 
L 27.59375 0 
Q 17.1875 0 13.234375 3.875 
Q 9.28125 7.765625 9.28125 18.015625 
L 9.28125 47.703125 
L 2.6875 47.703125 
L 2.6875 54.6875 
L 9.28125 54.6875 
L 9.28125 70.21875 
z
" id="DejaVuSans-116"/>
        <path d="M 31.78125 34.625 
Q 24.75 34.625 20.71875 30.859375 
Q 16.703125 27.09375 16.703125 20.515625 
Q 16.703125 13.921875 20.71875 10.15625 
Q 24.75 6.390625 31.78125 6.390625 
Q 38.8125 6.390625 42.859375 10.171875 
Q 46.921875 13.96875 46.921875 20.515625 
Q 46.921875 27.09375 42.890625 30.859375 
Q 38.875 34.625 31.78125 34.625 
z
M 21.921875 38.8125 
Q 15.578125 40.375 12.03125 44.71875 
Q 8.5 49.078125 8.5 55.328125 
Q 8.5 64.0625 14.71875 69.140625 
Q 20.953125 74.21875 31.78125 74.21875 
Q 42.671875 74.21875 48.875 69.140625 
Q 55.078125 64.0625 55.078125 55.328125 
Q 55.078125 49.078125 51.53125 44.71875 
Q 48 40.375 41.703125 38.8125 
Q 48.828125 37.15625 52.796875 32.3125 
Q 56.78125 27.484375 56.78125 20.515625 
Q 56.78125 9.90625 50.3125 4.234375 
Q 43.84375 -1.421875 31.78125 -1.421875 
Q 19.734375 -1.421875 13.25 4.234375 
Q 6.78125 9.90625 6.78125 20.515625 
Q 6.78125 27.484375 10.78125 32.3125 
Q 14.796875 37.15625 21.921875 38.8125 
z
M 18.3125 54.390625 
Q 18.3125 48.734375 21.84375 45.5625 
Q 25.390625 42.390625 31.78125 42.390625 
Q 38.140625 42.390625 41.71875 45.5625 
Q 45.3125 48.734375 45.3125 54.390625 
Q 45.3125 60.0625 41.71875 63.234375 
Q 38.140625 66.40625 31.78125 66.40625 
Q 25.390625 66.40625 21.84375 63.234375 
Q 18.3125 60.0625 18.3125 54.390625 
z
" id="DejaVuSans-56"/>
       </defs>
       <use xlink:href="#DejaVuSans-83"/>
       <use x="63.476562" xlink:href="#DejaVuSans-97"/>
       <use x="124.755859" xlink:href="#DejaVuSans-116"/>
       <use x="163.964844" xlink:href="#DejaVuSans-32"/>
       <use x="195.751953" xlink:href="#DejaVuSans-74"/>
       <use x="225.244141" xlink:href="#DejaVuSans-117"/>
       <use x="288.623047" xlink:href="#DejaVuSans-108"/>
       <use x="316.40625" xlink:href="#DejaVuSans-121"/>
       <use x="375.585938" xlink:href="#DejaVuSans-32"/>
       <use x="407.373047" xlink:href="#DejaVuSans-49"/>
       <use x="470.996094" xlink:href="#DejaVuSans-56"/>
      </g>
     </g>
    </g>
    <g id="text_9">
     <!-- Start of each day (UTC) -->
     <g transform="translate(495.041406 428.465653)scale(0.1 -0.1)">
      <defs>
       <path d="M 37.109375 75.984375 
L 37.109375 68.5 
L 28.515625 68.5 
Q 23.6875 68.5 21.796875 66.546875 
Q 19.921875 64.59375 19.921875 59.515625 
L 19.921875 54.6875 
L 34.71875 54.6875 
L 34.71875 47.703125 
L 19.921875 47.703125 
L 19.921875 0 
L 10.890625 0 
L 10.890625 47.703125 
L 2.296875 47.703125 
L 2.296875 54.6875 
L 10.890625 54.6875 
L 10.890625 58.5 
Q 10.890625 67.625 15.140625 71.796875 
Q 19.390625 75.984375 28.609375 75.984375 
z
" id="DejaVuSans-102"/>
       <path d="M 48.78125 52.59375 
L 48.78125 44.1875 
Q 44.96875 46.296875 41.140625 47.34375 
Q 37.3125 48.390625 33.40625 48.390625 
Q 24.65625 48.390625 19.8125 42.84375 
Q 14.984375 37.3125 14.984375 27.296875 
Q 14.984375 17.28125 19.8125 11.734375 
Q 24.65625 6.203125 33.40625 6.203125 
Q 37.3125 6.203125 41.140625 7.25 
Q 44.96875 8.296875 48.78125 10.40625 
L 48.78125 2.09375 
Q 45.015625 0.34375 40.984375 -0.53125 
Q 36.96875 -1.421875 32.421875 -1.421875 
Q 20.0625 -1.421875 12.78125 6.34375 
Q 5.515625 14.109375 5.515625 27.296875 
Q 5.515625 40.671875 12.859375 48.328125 
Q 20.21875 56 33.015625 56 
Q 37.15625 56 41.109375 55.140625 
Q 45.0625 54.296875 48.78125 52.59375 
z
" id="DejaVuSans-99"/>
       <path d="M 31 75.875 
Q 24.46875 64.65625 21.28125 53.65625 
Q 18.109375 42.671875 18.109375 31.390625 
Q 18.109375 20.125 21.3125 9.0625 
Q 24.515625 -2 31 -13.1875 
L 23.1875 -13.1875 
Q 15.875 -1.703125 12.234375 9.375 
Q 8.59375 20.453125 8.59375 31.390625 
Q 8.59375 42.28125 12.203125 53.3125 
Q 15.828125 64.359375 23.1875 75.875 
z
" id="DejaVuSans-40"/>
       <path d="M 8.6875 72.90625 
L 18.609375 72.90625 
L 18.609375 28.609375 
Q 18.609375 16.890625 22.84375 11.734375 
Q 27.09375 6.59375 36.625 6.59375 
Q 46.09375 6.59375 50.34375 11.734375 
Q 54.59375 16.890625 54.59375 28.609375 
L 54.59375 72.90625 
L 64.5 72.90625 
L 64.5 27.390625 
Q 64.5 13.140625 57.4375 5.859375 
Q 50.390625 -1.421875 36.625 -1.421875 
Q 22.796875 -1.421875 15.734375 5.859375 
Q 8.6875 13.140625 8.6875 27.390625 
z
" id="DejaVuSans-85"/>
       <path d="M 64.40625 67.28125 
L 64.40625 56.890625 
Q 59.421875 61.53125 53.78125 63.8125 
Q 48.140625 66.109375 41.796875 66.109375 
Q 29.296875 66.109375 22.65625 58.46875 
Q 16.015625 50.828125 16.015625 36.375 
Q 16.015625 21.96875 22.65625 14.328125 
Q 29.296875 6.6875 41.796875 6.6875 
Q 48.140625 6.6875 53.78125 8.984375 
Q 59.421875 11.28125 64.40625 15.921875 
L 64.40625 5.609375 
Q 59.234375 2.09375 53.4375 0.328125 
Q 47.65625 -1.421875 41.21875 -1.421875 
Q 24.65625 -1.421875 15.125 8.703125 
Q 5.609375 18.84375 5.609375 36.375 
Q 5.609375 53.953125 15.125 64.078125 
Q 24.65625 74.21875 41.21875 74.21875 
Q 47.75 74.21875 53.53125 72.484375 
Q 59.328125 70.75 64.40625 67.28125 
z
" id="DejaVuSans-67"/>
       <path d="M 8.015625 75.875 
L 15.828125 75.875 
Q 23.140625 64.359375 26.78125 53.3125 
Q 30.421875 42.28125 30.421875 31.390625 
Q 30.421875 20.453125 26.78125 9.375 
Q 23.140625 -1.703125 15.828125 -13.1875 
L 8.015625 -13.1875 
Q 14.5 -2 17.703125 9.0625 
Q 20.90625 20.125 20.90625 31.390625 
Q 20.90625 42.671875 17.703125 53.65625 
Q 14.5 64.65625 8.015625 75.875 
z
" id="DejaVuSans-41"/>
      </defs>
      <use xlink:href="#DejaVuSans-83"/>
      <use x="63.476562" xlink:href="#DejaVuSans-116"/>
      <use x="102.685547" xlink:href="#DejaVuSans-97"/>
      <use x="163.964844" xlink:href="#DejaVuSans-114"/>
      <use x="205.078125" xlink:href="#DejaVuSans-116"/>
      <use x="244.287109" xlink:href="#DejaVuSans-32"/>
      <use x="276.074219" xlink:href="#DejaVuSans-111"/>
      <use x="337.255859" xlink:href="#DejaVuSans-102"/>
      <use x="372.460938" xlink:href="#DejaVuSans-32"/>
      <use x="404.248047" xlink:href="#DejaVuSans-101"/>
      <use x="465.771484" xlink:href="#DejaVuSans-97"/>
      <use x="527.050781" xlink:href="#DejaVuSans-99"/>
      <use x="582.03125" xlink:href="#DejaVuSans-104"/>
      <use x="645.410156" xlink:href="#DejaVuSans-32"/>
      <use x="677.197266" xlink:href="#DejaVuSans-100"/>
      <use x="740.673828" xlink:href="#DejaVuSans-97"/>
      <use x="801.953125" xlink:href="#DejaVuSans-121"/>
      <use x="861.132812" xlink:href="#DejaVuSans-32"/>
      <use x="892.919922" xlink:href="#DejaVuSans-40"/>
      <use x="931.933594" xlink:href="#DejaVuSans-85"/>
      <use x="1005.126953" xlink:href="#DejaVuSans-84"/>
      <use x="1060.335938" xlink:href="#DejaVuSans-67"/>
      <use x="1130.160156" xlink:href="#DejaVuSans-41"/>
     </g>
    </g>
   </g>
   <g id="matplotlib.axis_2">
    <g id="ytick_1">
     <g id="line2d_9">
      <path clip-path="url(#p892bdc9c88)" d="M 135 400.189091 
L 972 400.189091 
" style="fill:none;stroke:#b0b0b0;stroke-linecap:square;stroke-width:0.8;"/>
     </g>
     <g id="line2d_10">
      <defs>
       <path d="M 0 0 
L -3.5 0 
" id="m6b83c9efdb" style="stroke:#000000;stroke-width:0.8;"/>
      </defs>
      <g>
       <use style="stroke:#000000;stroke-width:0.8;" x="135" xlink:href="#m6b83c9efdb" y="400.189091"/>
      </g>
     </g>
     <g id="text_10">
      <!-- 0 -->
      <g transform="translate(121.6375 403.98831)scale(0.1 -0.1)">
       <defs>
        <path d="M 31.78125 66.40625 
Q 24.171875 66.40625 20.328125 58.90625 
Q 16.5 51.421875 16.5 36.375 
Q 16.5 21.390625 20.328125 13.890625 
Q 24.171875 6.390625 31.78125 6.390625 
Q 39.453125 6.390625 43.28125 13.890625 
Q 47.125 21.390625 47.125 36.375 
Q 47.125 51.421875 43.28125 58.90625 
Q 39.453125 66.40625 31.78125 66.40625 
z
M 31.78125 74.21875 
Q 44.046875 74.21875 50.515625 64.515625 
Q 56.984375 54.828125 56.984375 36.375 
Q 56.984375 17.96875 50.515625 8.265625 
Q 44.046875 -1.421875 31.78125 -1.421875 
Q 19.53125 -1.421875 13.0625 8.265625 
Q 6.59375 17.96875 6.59375 36.375 
Q 6.59375 54.828125 13.0625 64.515625 
Q 19.53125 74.21875 31.78125 74.21875 
z
" id="DejaVuSans-48"/>
       </defs>
       <use xlink:href="#DejaVuSans-48"/>
      </g>
     </g>
    </g>
    <g id="ytick_2">
     <g id="line2d_11">
      <path clip-path="url(#p892bdc9c88)" d="M 135 367.243636 
L 972 367.243636 
" style="fill:none;stroke:#b0b0b0;stroke-linecap:square;stroke-width:0.8;"/>
     </g>
     <g id="line2d_12">
      <g>
       <use style="stroke:#000000;stroke-width:0.8;" x="135" xlink:href="#m6b83c9efdb" y="367.243636"/>
      </g>
     </g>
     <g id="text_11">
      <!-- 50 -->
      <g transform="translate(115.275 371.042855)scale(0.1 -0.1)">
       <use xlink:href="#DejaVuSans-53"/>
       <use x="63.623047" xlink:href="#DejaVuSans-48"/>
      </g>
     </g>
    </g>
    <g id="ytick_3">
     <g id="line2d_13">
      <path clip-path="url(#p892bdc9c88)" d="M 135 334.298182 
L 972 334.298182 
" style="fill:none;stroke:#b0b0b0;stroke-linecap:square;stroke-width:0.8;"/>
     </g>
     <g id="line2d_14">
      <g>
       <use style="stroke:#000000;stroke-width:0.8;" x="135" xlink:href="#m6b83c9efdb" y="334.298182"/>
      </g>
     </g>
     <g id="text_12">
      <!-- 100 -->
      <g transform="translate(108.9125 338.097401)scale(0.1 -0.1)">
       <use xlink:href="#DejaVuSans-49"/>
       <use x="63.623047" xlink:href="#DejaVuSans-48"/>
       <use x="127.246094" xlink:href="#DejaVuSans-48"/>
      </g>
     </g>
    </g>
    <g id="ytick_4">
     <g id="line2d_15">
      <path clip-path="url(#p892bdc9c88)" d="M 135 301.352727 
L 972 301.352727 
" style="fill:none;stroke:#b0b0b0;stroke-linecap:square;stroke-width:0.8;"/>
     </g>
     <g id="line2d_16">
      <g>
       <use style="stroke:#000000;stroke-width:0.8;" x="135" xlink:href="#m6b83c9efdb" y="301.352727"/>
      </g>
     </g>
     <g id="text_13">
      <!-- 150 -->
      <g transform="translate(108.9125 305.151946)scale(0.1 -0.1)">
       <use xlink:href="#DejaVuSans-49"/>
       <use x="63.623047" xlink:href="#DejaVuSans-53"/>
       <use x="127.246094" xlink:href="#DejaVuSans-48"/>
      </g>
     </g>
    </g>
    <g id="ytick_5">
     <g id="line2d_17">
      <path clip-path="url(#p892bdc9c88)" d="M 135 268.407273 
L 972 268.407273 
" style="fill:none;stroke:#b0b0b0;stroke-linecap:square;stroke-width:0.8;"/>
     </g>
     <g id="line2d_18">
      <g>
       <use style="stroke:#000000;stroke-width:0.8;" x="135" xlink:href="#m6b83c9efdb" y="268.407273"/>
      </g>
     </g>
     <g id="text_14">
      <!-- 200 -->
      <g transform="translate(108.9125 272.206491)scale(0.1 -0.1)">
       <use xlink:href="#DejaVuSans-50"/>
       <use x="63.623047" xlink:href="#DejaVuSans-48"/>
       <use x="127.246094" xlink:href="#DejaVuSans-48"/>
      </g>
     </g>
    </g>
    <g id="ytick_6">
     <g id="line2d_19">
      <path clip-path="url(#p892bdc9c88)" d="M 135 235.461818 
L 972 235.461818 
" style="fill:none;stroke:#b0b0b0;stroke-linecap:square;stroke-width:0.8;"/>
     </g>
     <g id="line2d_20">
      <g>
       <use style="stroke:#000000;stroke-width:0.8;" x="135" xlink:href="#m6b83c9efdb" y="235.461818"/>
      </g>
     </g>
     <g id="text_15">
      <!-- 250 -->
      <g transform="translate(108.9125 239.261037)scale(0.1 -0.1)">
       <use xlink:href="#DejaVuSans-50"/>
       <use x="63.623047" xlink:href="#DejaVuSans-53"/>
       <use x="127.246094" xlink:href="#DejaVuSans-48"/>
      </g>
     </g>
    </g>
    <g id="ytick_7">
     <g id="line2d_21">
      <path clip-path="url(#p892bdc9c88)" d="M 135 202.516364 
L 972 202.516364 
" style="fill:none;stroke:#b0b0b0;stroke-linecap:square;stroke-width:0.8;"/>
     </g>
     <g id="line2d_22">
      <g>
       <use style="stroke:#000000;stroke-width:0.8;" x="135" xlink:href="#m6b83c9efdb" y="202.516364"/>
      </g>
     </g>
     <g id="text_16">
      <!-- 300 -->
      <g transform="translate(108.9125 206.315582)scale(0.1 -0.1)">
       <use xlink:href="#DejaVuSans-51"/>
       <use x="63.623047" xlink:href="#DejaVuSans-48"/>
       <use x="127.246094" xlink:href="#DejaVuSans-48"/>
      </g>
     </g>
    </g>
    <g id="ytick_8">
     <g id="line2d_23">
      <path clip-path="url(#p892bdc9c88)" d="M 135 169.570909 
L 972 169.570909 
" style="fill:none;stroke:#b0b0b0;stroke-linecap:square;stroke-width:0.8;"/>
     </g>
     <g id="line2d_24">
      <g>
       <use style="stroke:#000000;stroke-width:0.8;" x="135" xlink:href="#m6b83c9efdb" y="169.570909"/>
      </g>
     </g>
     <g id="text_17">
      <!-- 350 -->
      <g transform="translate(108.9125 173.370128)scale(0.1 -0.1)">
       <use xlink:href="#DejaVuSans-51"/>
       <use x="63.623047" xlink:href="#DejaVuSans-53"/>
       <use x="127.246094" xlink:href="#DejaVuSans-48"/>
      </g>
     </g>
    </g>
    <g id="ytick_9">
     <g id="line2d_25">
      <path clip-path="url(#p892bdc9c88)" d="M 135 136.625455 
L 972 136.625455 
" style="fill:none;stroke:#b0b0b0;stroke-linecap:square;stroke-width:0.8;"/>
     </g>
     <g id="line2d_26">
      <g>
       <use style="stroke:#000000;stroke-width:0.8;" x="135" xlink:href="#m6b83c9efdb" y="136.625455"/>
      </g>
     </g>
     <g id="text_18">
      <!-- 400 -->
      <g transform="translate(108.9125 140.424673)scale(0.1 -0.1)">
       <use xlink:href="#DejaVuSans-52"/>
       <use x="63.623047" xlink:href="#DejaVuSans-48"/>
       <use x="127.246094" xlink:href="#DejaVuSans-48"/>
      </g>
     </g>
    </g>
    <g id="ytick_10">
     <g id="line2d_27">
      <path clip-path="url(#p892bdc9c88)" d="M 135 103.68 
L 972 103.68 
" style="fill:none;stroke:#b0b0b0;stroke-linecap:square;stroke-width:0.8;"/>
     </g>
     <g id="line2d_28">
      <g>
       <use style="stroke:#000000;stroke-width:0.8;" x="135" xlink:href="#m6b83c9efdb" y="103.68"/>
      </g>
     </g>
     <g id="text_19">
      <!-- 450 -->
      <g transform="translate(108.9125 107.479219)scale(0.1 -0.1)">
       <use xlink:href="#DejaVuSans-52"/>
       <use x="63.623047" xlink:href="#DejaVuSans-53"/>
       <use x="127.246094" xlink:href="#DejaVuSans-48"/>
      </g>
     </g>
    </g>
    <g id="text_20">
     <!-- Number of participants -->
     <g transform="translate(102.832812 309.771264)rotate(-90)scale(0.1 -0.1)">
      <defs>
       <path d="M 9.8125 72.90625 
L 23.09375 72.90625 
L 55.421875 11.921875 
L 55.421875 72.90625 
L 64.984375 72.90625 
L 64.984375 0 
L 51.703125 0 
L 19.390625 60.984375 
L 19.390625 0 
L 9.8125 0 
z
" id="DejaVuSans-78"/>
       <path d="M 52 44.1875 
Q 55.375 50.25 60.0625 53.125 
Q 64.75 56 71.09375 56 
Q 79.640625 56 84.28125 50.015625 
Q 88.921875 44.046875 88.921875 33.015625 
L 88.921875 0 
L 79.890625 0 
L 79.890625 32.71875 
Q 79.890625 40.578125 77.09375 44.375 
Q 74.3125 48.1875 68.609375 48.1875 
Q 61.625 48.1875 57.5625 43.546875 
Q 53.515625 38.921875 53.515625 30.90625 
L 53.515625 0 
L 44.484375 0 
L 44.484375 32.71875 
Q 44.484375 40.625 41.703125 44.40625 
Q 38.921875 48.1875 33.109375 48.1875 
Q 26.21875 48.1875 22.15625 43.53125 
Q 18.109375 38.875 18.109375 30.90625 
L 18.109375 0 
L 9.078125 0 
L 9.078125 54.6875 
L 18.109375 54.6875 
L 18.109375 46.1875 
Q 21.1875 51.21875 25.484375 53.609375 
Q 29.78125 56 35.6875 56 
Q 41.65625 56 45.828125 52.96875 
Q 50 49.953125 52 44.1875 
z
" id="DejaVuSans-109"/>
       <path d="M 48.6875 27.296875 
Q 48.6875 37.203125 44.609375 42.84375 
Q 40.53125 48.484375 33.40625 48.484375 
Q 26.265625 48.484375 22.1875 42.84375 
Q 18.109375 37.203125 18.109375 27.296875 
Q 18.109375 17.390625 22.1875 11.75 
Q 26.265625 6.109375 33.40625 6.109375 
Q 40.53125 6.109375 44.609375 11.75 
Q 48.6875 17.390625 48.6875 27.296875 
z
M 18.109375 46.390625 
Q 20.953125 51.265625 25.265625 53.625 
Q 29.59375 56 35.59375 56 
Q 45.5625 56 51.78125 48.09375 
Q 58.015625 40.1875 58.015625 27.296875 
Q 58.015625 14.40625 51.78125 6.484375 
Q 45.5625 -1.421875 35.59375 -1.421875 
Q 29.59375 -1.421875 25.265625 0.953125 
Q 20.953125 3.328125 18.109375 8.203125 
L 18.109375 0 
L 9.078125 0 
L 9.078125 75.984375 
L 18.109375 75.984375 
z
" id="DejaVuSans-98"/>
       <path d="M 18.109375 8.203125 
L 18.109375 -20.796875 
L 9.078125 -20.796875 
L 9.078125 54.6875 
L 18.109375 54.6875 
L 18.109375 46.390625 
Q 20.953125 51.265625 25.265625 53.625 
Q 29.59375 56 35.59375 56 
Q 45.5625 56 51.78125 48.09375 
Q 58.015625 40.1875 58.015625 27.296875 
Q 58.015625 14.40625 51.78125 6.484375 
Q 45.5625 -1.421875 35.59375 -1.421875 
Q 29.59375 -1.421875 25.265625 0.953125 
Q 20.953125 3.328125 18.109375 8.203125 
z
M 48.6875 27.296875 
Q 48.6875 37.203125 44.609375 42.84375 
Q 40.53125 48.484375 33.40625 48.484375 
Q 26.265625 48.484375 22.1875 42.84375 
Q 18.109375 37.203125 18.109375 27.296875 
Q 18.109375 17.390625 22.1875 11.75 
Q 26.265625 6.109375 33.40625 6.109375 
Q 40.53125 6.109375 44.609375 11.75 
Q 48.6875 17.390625 48.6875 27.296875 
z
" id="DejaVuSans-112"/>
       <path d="M 44.28125 53.078125 
L 44.28125 44.578125 
Q 40.484375 46.53125 36.375 47.5 
Q 32.28125 48.484375 27.875 48.484375 
Q 21.1875 48.484375 17.84375 46.4375 
Q 14.5 44.390625 14.5 40.28125 
Q 14.5 37.15625 16.890625 35.375 
Q 19.28125 33.59375 26.515625 31.984375 
L 29.59375 31.296875 
Q 39.15625 29.25 43.1875 25.515625 
Q 47.21875 21.78125 47.21875 15.09375 
Q 47.21875 7.46875 41.1875 3.015625 
Q 35.15625 -1.421875 24.609375 -1.421875 
Q 20.21875 -1.421875 15.453125 -0.5625 
Q 10.6875 0.296875 5.421875 2 
L 5.421875 11.28125 
Q 10.40625 8.6875 15.234375 7.390625 
Q 20.0625 6.109375 24.8125 6.109375 
Q 31.15625 6.109375 34.5625 8.28125 
Q 37.984375 10.453125 37.984375 14.40625 
Q 37.984375 18.0625 35.515625 20.015625 
Q 33.0625 21.96875 24.703125 23.78125 
L 21.578125 24.515625 
Q 13.234375 26.265625 9.515625 29.90625 
Q 5.8125 33.546875 5.8125 39.890625 
Q 5.8125 47.609375 11.28125 51.796875 
Q 16.75 56 26.8125 56 
Q 31.78125 56 36.171875 55.265625 
Q 40.578125 54.546875 44.28125 53.078125 
z
" id="DejaVuSans-115"/>
      </defs>
      <use xlink:href="#DejaVuSans-78"/>
      <use x="74.804688" xlink:href="#DejaVuSans-117"/>
      <use x="138.183594" xlink:href="#DejaVuSans-109"/>
      <use x="235.595703" xlink:href="#DejaVuSans-98"/>
      <use x="299.072266" xlink:href="#DejaVuSans-101"/>
      <use x="360.595703" xlink:href="#DejaVuSans-114"/>
      <use x="401.708984" xlink:href="#DejaVuSans-32"/>
      <use x="433.496094" xlink:href="#DejaVuSans-111"/>
      <use x="494.677734" xlink:href="#DejaVuSans-102"/>
      <use x="529.882812" xlink:href="#DejaVuSans-32"/>
      <use x="561.669922" xlink:href="#DejaVuSans-112"/>
      <use x="625.146484" xlink:href="#DejaVuSans-97"/>
      <use x="686.425781" xlink:href="#DejaVuSans-114"/>
      <use x="727.539062" xlink:href="#DejaVuSans-116"/>
      <use x="766.748047" xlink:href="#DejaVuSans-105"/>
      <use x="794.53125" xlink:href="#DejaVuSans-99"/>
      <use x="849.511719" xlink:href="#DejaVuSans-105"/>
      <use x="877.294922" xlink:href="#DejaVuSans-112"/>
      <use x="940.771484" xlink:href="#DejaVuSans-97"/>
      <use x="1002.050781" xlink:href="#DejaVuSans-110"/>
      <use x="1065.429688" xlink:href="#DejaVuSans-116"/>
      <use x="1104.638672" xlink:href="#DejaVuSans-115"/>
     </g>
    </g>
   </g>
   <g id="PolyCollection_1">
    <path clip-path="url(#p892bdc9c88)" d="M -104.142857 398.871273 
L -104.142857 400.189091 
L -99.160714 400.189091 
L -94.178571 400.189091 
L -89.196429 400.189091 
L -84.214286 400.189091 
L -79.232143 400.189091 
L -74.25 400.189091 
L -69.267857 400.189091 
L -64.285714 400.189091 
L -59.303571 400.189091 
L -54.321429 400.189091 
L -49.339286 400.189091 
L -44.357143 400.189091 
L -39.375 400.189091 
L -34.392857 400.189091 
L -29.410714 400.189091 
L -24.428571 400.189091 
L -19.446429 400.189091 
L -14.464286 400.189091 
L -9.482143 400.189091 
L -4.5 400.189091 
L 0.482143 400.189091 
L 5.464286 400.189091 
L 10.446429 400.189091 
L 15.428571 400.189091 
L 20.410714 400.189091 
L 25.392857 400.189091 
L 30.375 400.189091 
L 35.357143 400.189091 
L 40.339286 400.189091 
L 45.321429 400.189091 
L 50.303571 400.189091 
L 55.285714 400.189091 
L 60.267857 400.189091 
L 65.25 400.189091 
L 70.232143 400.189091 
L 75.214286 400.189091 
L 80.196429 400.189091 
L 85.178571 400.189091 
L 90.160714 400.189091 
L 95.142857 400.189091 
L 100.125 400.189091 
L 105.107143 400.189091 
L 110.089286 400.189091 
L 115.071429 400.189091 
L 120.053571 400.189091 
L 125.035714 400.189091 
L 130.017857 400.189091 
L 135 400.189091 
L 139.982143 400.189091 
L 144.964286 400.189091 
L 149.946429 400.189091 
L 154.928571 400.189091 
L 159.910714 400.189091 
L 164.892857 400.189091 
L 169.875 400.189091 
L 174.857143 400.189091 
L 179.839286 400.189091 
L 184.821429 400.189091 
L 189.803571 400.189091 
L 194.785714 400.189091 
L 199.767857 400.189091 
L 204.75 400.189091 
L 209.732143 400.189091 
L 214.714286 400.189091 
L 219.696429 400.189091 
L 224.678571 400.189091 
L 229.660714 400.189091 
L 234.642857 400.189091 
L 239.625 400.189091 
L 244.607143 400.189091 
L 249.589286 400.189091 
L 254.571429 400.189091 
L 259.553571 400.189091 
L 264.535714 400.189091 
L 269.517857 400.189091 
L 274.5 400.189091 
L 279.482143 400.189091 
L 284.464286 400.189091 
L 289.446429 400.189091 
L 294.428571 400.189091 
L 299.410714 400.189091 
L 304.392857 400.189091 
L 309.375 400.189091 
L 314.357143 400.189091 
L 319.339286 400.189091 
L 324.321429 400.189091 
L 329.303571 400.189091 
L 334.285714 400.189091 
L 339.267857 400.189091 
L 344.25 400.189091 
L 349.232143 400.189091 
L 354.214286 400.189091 
L 359.196429 400.189091 
L 364.178571 400.189091 
L 369.160714 400.189091 
L 374.142857 400.189091 
L 379.125 400.189091 
L 384.107143 400.189091 
L 389.089286 400.189091 
L 394.071429 400.189091 
L 399.053571 400.189091 
L 404.035714 400.189091 
L 409.017857 400.189091 
L 414 400.189091 
L 418.982143 400.189091 
L 423.964286 400.189091 
L 428.946429 400.189091 
L 433.928571 400.189091 
L 438.910714 400.189091 
L 443.892857 400.189091 
L 448.875 400.189091 
L 453.857143 400.189091 
L 458.839286 400.189091 
L 463.821429 400.189091 
L 468.803571 400.189091 
L 473.785714 400.189091 
L 478.767857 400.189091 
L 483.75 400.189091 
L 488.732143 400.189091 
L 493.714286 400.189091 
L 498.696429 400.189091 
L 503.678571 400.189091 
L 508.660714 400.189091 
L 513.642857 400.189091 
L 518.625 400.189091 
L 523.607143 400.189091 
L 528.589286 400.189091 
L 533.571429 400.189091 
L 538.553571 400.189091 
L 543.535714 400.189091 
L 548.517857 400.189091 
L 553.5 400.189091 
L 558.482143 400.189091 
L 563.464286 400.189091 
L 568.446429 400.189091 
L 573.428571 400.189091 
L 578.410714 400.189091 
L 583.392857 400.189091 
L 588.375 400.189091 
L 593.357143 400.189091 
L 598.339286 400.189091 
L 603.321429 400.189091 
L 608.303571 400.189091 
L 613.285714 400.189091 
L 618.267857 400.189091 
L 623.25 400.189091 
L 628.232143 400.189091 
L 633.214286 400.189091 
L 638.196429 400.189091 
L 643.178571 400.189091 
L 648.160714 400.189091 
L 653.142857 400.189091 
L 658.125 400.189091 
L 663.107143 400.189091 
L 668.089286 400.189091 
L 673.071429 400.189091 
L 678.053571 400.189091 
L 683.035714 400.189091 
L 688.017857 400.189091 
L 693 400.189091 
L 697.982143 400.189091 
L 702.964286 400.189091 
L 707.946429 400.189091 
L 712.928571 400.189091 
L 717.910714 400.189091 
L 722.892857 400.189091 
L 727.875 400.189091 
L 732.857143 400.189091 
L 737.839286 400.189091 
L 742.821429 400.189091 
L 747.803571 400.189091 
L 752.785714 400.189091 
L 757.767857 400.189091 
L 762.75 400.189091 
L 767.732143 400.189091 
L 772.714286 400.189091 
L 777.696429 400.189091 
L 782.678571 400.189091 
L 787.660714 400.189091 
L 792.642857 400.189091 
L 797.625 400.189091 
L 802.607143 400.189091 
L 807.589286 400.189091 
L 812.571429 400.189091 
L 817.553571 400.189091 
L 822.535714 400.189091 
L 827.517857 400.189091 
L 832.5 400.189091 
L 837.482143 400.189091 
L 842.464286 400.189091 
L 847.446429 400.189091 
L 852.428571 400.189091 
L 857.410714 400.189091 
L 862.392857 400.189091 
L 867.375 400.189091 
L 872.357143 400.189091 
L 877.339286 400.189091 
L 882.321429 400.189091 
L 887.303571 400.189091 
L 892.285714 400.189091 
L 897.267857 400.189091 
L 902.25 400.189091 
L 907.232143 400.189091 
L 912.214286 400.189091 
L 917.196429 400.189091 
L 922.178571 400.189091 
L 927.160714 400.189091 
L 932.142857 400.189091 
L 937.125 400.189091 
L 942.107143 400.189091 
L 947.089286 400.189091 
L 952.071429 400.189091 
L 957.053571 400.189091 
L 962.035714 400.189091 
L 967.017857 400.189091 
L 972 400.189091 
L 976.982143 400.189091 
L 981.964286 400.189091 
L 986.946429 400.189091 
L 991.928571 400.189091 
L 996.910714 400.189091 
L 1001.892857 400.189091 
L 1006.875 400.189091 
L 1011.857143 400.189091 
L 1016.839286 400.189091 
L 1021.821429 400.189091 
L 1026.803571 400.189091 
L 1031.785714 400.189091 
L 1036.767857 400.189091 
L 1041.75 400.189091 
L 1046.732143 400.189091 
L 1051.714286 400.189091 
L 1056.696429 400.189091 
L 1061.678571 400.189091 
L 1066.660714 400.189091 
L 1071.642857 400.189091 
L 1076.625 400.189091 
L 1081.607143 400.189091 
L 1086.589286 400.189091 
L 1091.571429 400.189091 
L 1096.553571 400.189091 
L 1101.535714 400.189091 
L 1106.517857 400.189091 
L 1111.5 400.189091 
L 1116.482143 400.189091 
L 1121.464286 400.189091 
L 1126.446429 400.189091 
L 1131.428571 400.189091 
L 1136.410714 400.189091 
L 1141.392857 400.189091 
L 1146.375 400.189091 
L 1151.357143 400.189091 
L 1156.339286 400.189091 
L 1161.321429 400.189091 
L 1166.303571 400.189091 
L 1171.285714 400.189091 
L 1176.267857 400.189091 
L 1181.25 400.189091 
L 1186.232143 400.189091 
L 1191.214286 400.189091 
L 1196.196429 400.189091 
L 1201.178571 400.189091 
L 1206.160714 400.189091 
L 1211.142857 400.189091 
L 1216.125 400.189091 
L 1221.107143 400.189091 
L 1226.089286 400.189091 
L 1231.071429 400.189091 
L 1236.053571 400.189091 
L 1241.035714 400.189091 
L 1246.017857 400.189091 
L 1251 400.189091 
L 1255.982143 400.189091 
L 1260.964286 400.189091 
L 1265.946429 400.189091 
L 1270.928571 400.189091 
L 1275.910714 400.189091 
L 1280.892857 400.189091 
L 1285.875 400.189091 
L 1290.857143 400.189091 
L 1295.839286 400.189091 
L 1300.821429 400.189091 
L 1305.803571 400.189091 
L 1310.785714 400.189091 
L 1315.767857 400.189091 
L 1320.75 400.189091 
L 1325.732143 400.189091 
L 1330.714286 400.189091 
L 1335.696429 400.189091 
L 1340.678571 400.189091 
L 1345.660714 400.189091 
L 1350.642857 400.189091 
L 1355.625 400.189091 
L 1360.607143 400.189091 
L 1365.589286 400.189091 
L 1370.571429 400.189091 
L 1375.553571 400.189091 
L 1380.535714 400.189091 
L 1385.517857 400.189091 
L 1390.5 400.189091 
L 1395.482143 400.189091 
L 1400.464286 400.189091 
L 1405.446429 400.189091 
L 1410.428571 400.189091 
L 1415.410714 400.189091 
L 1420.392857 400.189091 
L 1425.375 400.189091 
L 1430.357143 400.189091 
L 1435.339286 400.189091 
L 1440.321429 400.189091 
L 1445.303571 400.189091 
L 1450.285714 400.189091 
L 1455.267857 400.189091 
L 1460.25 400.189091 
L 1465.232143 400.189091 
L 1470.214286 400.189091 
L 1475.196429 400.189091 
L 1480.178571 400.189091 
L 1485.160714 400.189091 
L 1490.142857 400.189091 
L 1495.125 400.189091 
L 1500.107143 400.189091 
L 1505.089286 400.189091 
L 1510.071429 400.189091 
L 1515.053571 400.189091 
L 1520.035714 400.189091 
L 1525.017857 400.189091 
L 1530 400.189091 
L 1534.982143 400.189091 
L 1539.964286 400.189091 
L 1544.946429 400.189091 
L 1549.928571 400.189091 
L 1554.910714 400.189091 
L 1559.892857 400.189091 
L 1564.875 400.189091 
L 1569.857143 400.189091 
L 1574.839286 400.189091 
L 1579.821429 400.189091 
L 1584.803571 400.189091 
L 1589.785714 400.189091 
L 1594.767857 400.189091 
L 1599.75 400.189091 
L 1604.732143 400.189091 
L 1609.714286 400.189091 
L 1614.696429 400.189091 
L 1619.678571 400.189091 
L 1624.660714 400.189091 
L 1629.642857 400.189091 
L 1634.625 400.189091 
L 1639.607143 400.189091 
L 1644.589286 400.189091 
L 1649.571429 400.189091 
L 1654.553571 400.189091 
L 1659.535714 400.189091 
L 1664.517857 400.189091 
L 1669.5 400.189091 
L 1674.482143 400.189091 
L 1679.464286 400.189091 
L 1684.446429 400.189091 
L 1689.428571 400.189091 
L 1694.410714 400.189091 
L 1699.392857 400.189091 
L 1704.375 400.189091 
L 1709.357143 400.189091 
L 1714.339286 400.189091 
L 1719.321429 400.189091 
L 1724.303571 400.189091 
L 1729.285714 400.189091 
L 1734.267857 400.189091 
L 1739.25 400.189091 
L 1744.232143 400.189091 
L 1749.214286 400.189091 
L 1754.196429 400.189091 
L 1759.178571 400.189091 
L 1764.160714 400.189091 
L 1769.142857 400.189091 
L 1774.125 400.189091 
L 1779.107143 400.189091 
L 1784.089286 400.189091 
L 1789.071429 400.189091 
L 1794.053571 400.189091 
L 1799.035714 400.189091 
L 1804.017857 400.189091 
L 1809 400.189091 
L 1813.982143 400.189091 
L 1818.964286 400.189091 
L 1823.946429 400.189091 
L 1828.928571 400.189091 
L 1833.910714 400.189091 
L 1838.892857 400.189091 
L 1843.875 400.189091 
L 1848.857143 400.189091 
L 1853.839286 400.189091 
L 1858.821429 400.189091 
L 1863.803571 400.189091 
L 1868.785714 400.189091 
L 1873.767857 400.189091 
L 1878.75 400.189091 
L 1883.732143 400.189091 
L 1888.714286 400.189091 
L 1893.696429 400.189091 
L 1898.678571 400.189091 
L 1903.660714 400.189091 
L 1908.642857 400.189091 
L 1913.625 400.189091 
L 1918.607143 400.189091 
L 1923.589286 400.189091 
L 1928.571429 400.189091 
L 1933.553571 400.189091 
L 1938.535714 400.189091 
L 1943.517857 400.189091 
L 1948.5 400.189091 
L 1953.482143 400.189091 
L 1958.464286 400.189091 
L 1963.446429 400.189091 
L 1968.428571 400.189091 
L 1973.410714 400.189091 
L 1978.392857 400.189091 
L 1983.375 400.189091 
L 1988.357143 400.189091 
L 1993.339286 400.189091 
L 1998.321429 400.189091 
L 2003.303571 400.189091 
L 2008.285714 400.189091 
L 2013.267857 400.189091 
L 2018.25 400.189091 
L 2023.232143 400.189091 
L 2028.214286 400.189091 
L 2033.196429 400.189091 
L 2038.178571 400.189091 
L 2043.160714 400.189091 
L 2048.142857 400.189091 
L 2053.125 400.189091 
L 2058.107143 400.189091 
L 2063.089286 400.189091 
L 2068.071429 400.189091 
L 2073.053571 400.189091 
L 2078.035714 400.189091 
L 2083.017857 400.189091 
L 2088 400.189091 
L 2092.982143 400.189091 
L 2097.964286 400.189091 
L 2102.946429 400.189091 
L 2107.928571 400.189091 
L 2112.910714 400.189091 
L 2112.910714 399.530182 
L 2112.910714 399.530182 
L 2107.928571 398.871273 
L 2102.946429 400.189091 
L 2097.964286 400.189091 
L 2092.982143 398.871273 
L 2088 395.576727 
L 2083.017857 399.530182 
L 2078.035714 400.189091 
L 2073.053571 400.189091 
L 2068.071429 400.189091 
L 2063.089286 400.189091 
L 2058.107143 400.189091 
L 2053.125 400.189091 
L 2048.142857 400.189091 
L 2043.160714 400.189091 
L 2038.178571 400.189091 
L 2033.196429 399.530182 
L 2028.214286 399.530182 
L 2023.232143 400.189091 
L 2018.25 400.189091 
L 2013.267857 400.189091 
L 2008.285714 400.189091 
L 2003.303571 398.871273 
L 1998.321429 399.530182 
L 1993.339286 400.189091 
L 1988.357143 398.871273 
L 1983.375 399.530182 
L 1978.392857 400.189091 
L 1973.410714 399.530182 
L 1968.428571 396.235636 
L 1963.446429 399.530182 
L 1958.464286 398.871273 
L 1953.482143 400.189091 
L 1948.5 400.189091 
L 1943.517857 400.189091 
L 1938.535714 400.189091 
L 1933.553571 400.189091 
L 1928.571429 399.530182 
L 1923.589286 398.871273 
L 1918.607143 397.553455 
L 1913.625 399.530182 
L 1908.642857 400.189091 
L 1903.660714 399.530182 
L 1898.678571 400.189091 
L 1893.696429 399.530182 
L 1888.714286 400.189091 
L 1883.732143 399.530182 
L 1878.75 399.530182 
L 1873.767857 400.189091 
L 1868.785714 400.189091 
L 1863.803571 400.189091 
L 1858.821429 400.189091 
L 1853.839286 400.189091 
L 1848.857143 399.530182 
L 1843.875 400.189091 
L 1838.892857 400.189091 
L 1833.910714 400.189091 
L 1828.928571 400.189091 
L 1823.946429 400.189091 
L 1818.964286 400.189091 
L 1813.982143 399.530182 
L 1809 399.530182 
L 1804.017857 399.530182 
L 1799.035714 399.530182 
L 1794.053571 400.189091 
L 1789.071429 398.871273 
L 1784.089286 399.530182 
L 1779.107143 400.189091 
L 1774.125 400.189091 
L 1769.142857 400.189091 
L 1764.160714 400.189091 
L 1759.178571 400.189091 
L 1754.196429 400.189091 
L 1749.214286 400.189091 
L 1744.232143 400.189091 
L 1739.25 399.530182 
L 1734.267857 400.189091 
L 1729.285714 399.530182 
L 1724.303571 400.189091 
L 1719.321429 400.189091 
L 1714.339286 400.189091 
L 1709.357143 400.189091 
L 1704.375 400.189091 
L 1699.392857 400.189091 
L 1694.410714 400.189091 
L 1689.428571 400.189091 
L 1684.446429 398.871273 
L 1679.464286 399.530182 
L 1674.482143 399.530182 
L 1669.5 400.189091 
L 1664.517857 400.189091 
L 1659.535714 399.530182 
L 1654.553571 400.189091 
L 1649.571429 396.894545 
L 1644.589286 397.553455 
L 1639.607143 398.212364 
L 1634.625 394.917818 
L 1629.642857 400.189091 
L 1624.660714 399.530182 
L 1619.678571 398.212364 
L 1614.696429 396.894545 
L 1609.714286 399.530182 
L 1604.732143 400.189091 
L 1599.75 400.189091 
L 1594.767857 399.530182 
L 1589.785714 397.553455 
L 1584.803571 398.212364 
L 1579.821429 400.189091 
L 1574.839286 400.189091 
L 1569.857143 400.189091 
L 1564.875 399.530182 
L 1559.892857 400.189091 
L 1554.910714 399.530182 
L 1549.928571 399.530182 
L 1544.946429 397.553455 
L 1539.964286 398.871273 
L 1534.982143 398.871273 
L 1530 399.530182 
L 1525.017857 396.894545 
L 1520.035714 396.235636 
L 1515.053571 400.189091 
L 1510.071429 398.212364 
L 1505.089286 399.530182 
L 1500.107143 398.871273 
L 1495.125 400.189091 
L 1490.142857 400.189091 
L 1485.160714 400.189091 
L 1480.178571 400.189091 
L 1475.196429 400.189091 
L 1470.214286 400.189091 
L 1465.232143 400.189091 
L 1460.25 400.189091 
L 1455.267857 399.530182 
L 1450.285714 400.189091 
L 1445.303571 398.871273 
L 1440.321429 399.530182 
L 1435.339286 400.189091 
L 1430.357143 399.530182 
L 1425.375 399.530182 
L 1420.392857 400.189091 
L 1415.410714 400.189091 
L 1410.428571 400.189091 
L 1405.446429 399.530182 
L 1400.464286 398.871273 
L 1395.482143 397.553455 
L 1390.5 399.530182 
L 1385.517857 399.530182 
L 1380.535714 400.189091 
L 1375.553571 398.871273 
L 1370.571429 400.189091 
L 1365.589286 399.530182 
L 1360.607143 399.530182 
L 1355.625 398.212364 
L 1350.642857 400.189091 
L 1345.660714 400.189091 
L 1340.678571 400.189091 
L 1335.696429 400.189091 
L 1330.714286 398.871273 
L 1325.732143 399.530182 
L 1320.75 400.189091 
L 1315.767857 399.530182 
L 1310.785714 398.871273 
L 1305.803571 399.530182 
L 1300.821429 399.530182 
L 1295.839286 398.871273 
L 1290.857143 399.530182 
L 1285.875 399.530182 
L 1280.892857 399.530182 
L 1275.910714 399.530182 
L 1270.928571 398.212364 
L 1265.946429 398.871273 
L 1260.964286 397.553455 
L 1255.982143 398.871273 
L 1251 398.871273 
L 1246.017857 399.530182 
L 1241.035714 400.189091 
L 1236.053571 400.189091 
L 1231.071429 400.189091 
L 1226.089286 400.189091 
L 1221.107143 400.189091 
L 1216.125 400.189091 
L 1211.142857 399.530182 
L 1206.160714 399.530182 
L 1201.178571 399.530182 
L 1196.196429 398.871273 
L 1191.214286 398.871273 
L 1186.232143 396.235636 
L 1181.25 399.530182 
L 1176.267857 399.530182 
L 1171.285714 398.212364 
L 1166.303571 399.530182 
L 1161.321429 397.553455 
L 1156.339286 397.553455 
L 1151.357143 398.871273 
L 1146.375 397.553455 
L 1141.392857 398.212364 
L 1136.410714 395.576727 
L 1131.428571 391.623273 
L 1126.446429 398.212364 
L 1121.464286 398.871273 
L 1116.482143 400.189091 
L 1111.5 400.189091 
L 1106.517857 400.189091 
L 1101.535714 400.189091 
L 1096.553571 399.530182 
L 1091.571429 400.189091 
L 1086.589286 399.530182 
L 1081.607143 399.530182 
L 1076.625 399.530182 
L 1071.642857 398.871273 
L 1066.660714 397.553455 
L 1061.678571 400.189091 
L 1056.696429 398.212364 
L 1051.714286 398.871273 
L 1046.732143 398.212364 
L 1041.75 400.189091 
L 1036.767857 400.189091 
L 1031.785714 399.530182 
L 1026.803571 400.189091 
L 1021.821429 396.235636 
L 1016.839286 398.871273 
L 1011.857143 400.189091 
L 1006.875 400.189091 
L 1001.892857 399.530182 
L 996.910714 399.530182 
L 991.928571 399.530182 
L 986.946429 399.530182 
L 981.964286 400.189091 
L 976.982143 400.189091 
L 972 400.189091 
L 967.017857 399.530182 
L 962.035714 396.894545 
L 957.053571 399.530182 
L 952.071429 398.871273 
L 947.089286 400.189091 
L 942.107143 397.553455 
L 937.125 399.530182 
L 932.142857 398.871273 
L 927.160714 399.530182 
L 922.178571 398.212364 
L 917.196429 399.530182 
L 912.214286 400.189091 
L 907.232143 400.189091 
L 902.25 398.212364 
L 897.267857 400.189091 
L 892.285714 400.189091 
L 887.303571 400.189091 
L 882.321429 400.189091 
L 877.339286 398.871273 
L 872.357143 400.189091 
L 867.375 398.871273 
L 862.392857 398.871273 
L 857.410714 398.871273 
L 852.428571 394.258909 
L 847.446429 396.894545 
L 842.464286 390.305455 
L 837.482143 398.212364 
L 832.5 398.871273 
L 827.517857 394.258909 
L 822.535714 397.553455 
L 817.553571 394.917818 
L 812.571429 393.6 
L 807.589286 365.266909 
L 802.607143 382.398545 
L 797.625 377.127273 
L 792.642857 394.917818 
L 787.660714 397.553455 
L 782.678571 398.871273 
L 777.696429 396.894545 
L 772.714286 396.894545 
L 767.732143 399.530182 
L 762.75 398.212364 
L 757.767857 398.871273 
L 752.785714 400.189091 
L 747.803571 397.553455 
L 742.821429 399.530182 
L 737.839286 398.212364 
L 732.857143 392.282182 
L 727.875 398.871273 
L 722.892857 385.034182 
L 717.910714 392.941091 
L 712.928571 396.894545 
L 707.946429 393.6 
L 702.964286 396.894545 
L 697.982143 396.894545 
L 693 379.762909 
L 688.017857 377.127273 
L 683.035714 384.375273 
L 678.053571 319.143273 
L 673.071429 385.693091 
L 668.089286 395.576727 
L 663.107143 395.576727 
L 658.125 395.576727 
L 653.142857 395.576727 
L 648.160714 396.235636 
L 643.178571 394.917818 
L 638.196429 399.530182 
L 633.214286 394.917818 
L 628.232143 400.189091 
L 623.25 398.871273 
L 618.267857 394.917818 
L 613.285714 396.894545 
L 608.303571 396.894545 
L 603.321429 370.538182 
L 598.339286 396.235636 
L 593.357143 394.917818 
L 588.375 396.894545 
L 583.392857 396.894545 
L 578.410714 396.235636 
L 573.428571 379.104 
L 568.446429 330.344727 
L 563.464286 359.995636 
L 558.482143 358.018909 
L 553.5 386.352 
L 548.517857 392.941091 
L 543.535714 397.553455 
L 538.553571 395.576727 
L 533.571429 400.189091 
L 528.589286 397.553455 
L 523.607143 394.917818 
L 518.625 400.189091 
L 513.642857 398.871273 
L 508.660714 399.530182 
L 503.678571 398.871273 
L 498.696429 400.189091 
L 493.714286 400.189091 
L 488.732143 400.189091 
L 483.75 396.894545 
L 478.767857 397.553455 
L 473.785714 399.530182 
L 468.803571 397.553455 
L 463.821429 398.212364 
L 458.839286 396.894545 
L 453.857143 393.6 
L 448.875 371.856 
L 443.892857 344.181818 
L 438.910714 365.925818 
L 433.928571 388.987636 
L 428.946429 393.6 
L 423.964286 395.576727 
L 418.982143 392.282182 
L 414 390.305455 
L 409.017857 397.553455 
L 404.035714 398.212364 
L 399.053571 399.530182 
L 394.071429 396.894545 
L 389.089286 398.871273 
L 384.107143 396.235636 
L 379.125 396.235636 
L 374.142857 396.235636 
L 369.160714 388.987636 
L 364.178571 379.104 
L 359.196429 394.258909 
L 354.214286 398.212364 
L 349.232143 394.917818 
L 344.25 396.235636 
L 339.267857 387.669818 
L 334.285714 392.941091 
L 329.303571 383.057455 
L 324.321429 370.538182 
L 319.339286 238.756364 
L 314.357143 377.127273 
L 309.375 392.941091 
L 304.392857 390.305455 
L 299.410714 390.305455 
L 294.428571 385.693091 
L 289.446429 388.328727 
L 284.464286 387.010909 
L 279.482143 391.623273 
L 274.5 397.553455 
L 269.517857 395.576727 
L 264.535714 392.282182 
L 259.553571 396.235636 
L 254.571429 392.941091 
L 249.589286 391.623273 
L 244.607143 393.6 
L 239.625 398.212364 
L 234.642857 400.189091 
L 229.660714 394.917818 
L 224.678571 395.576727 
L 219.696429 399.530182 
L 214.714286 397.553455 
L 209.732143 398.212364 
L 204.75 398.212364 
L 199.767857 400.189091 
L 194.785714 400.189091 
L 189.803571 400.189091 
L 184.821429 400.189091 
L 179.839286 399.530182 
L 174.857143 398.871273 
L 169.875 400.189091 
L 164.892857 400.189091 
L 159.910714 400.189091 
L 154.928571 400.189091 
L 149.946429 400.189091 
L 144.964286 400.189091 
L 139.982143 400.189091 
L 135 400.189091 
L 130.017857 400.189091 
L 125.035714 400.189091 
L 120.053571 398.212364 
L 115.071429 400.189091 
L 110.089286 400.189091 
L 105.107143 400.189091 
L 100.125 400.189091 
L 95.142857 398.871273 
L 90.160714 399.530182 
L 85.178571 400.189091 
L 80.196429 400.189091 
L 75.214286 400.189091 
L 70.232143 400.189091 
L 65.25 399.530182 
L 60.267857 400.189091 
L 55.285714 400.189091 
L 50.303571 400.189091 
L 45.321429 399.530182 
L 40.339286 400.189091 
L 35.357143 400.189091 
L 30.375 400.189091 
L 25.392857 400.189091 
L 20.410714 400.189091 
L 15.428571 400.189091 
L 10.446429 400.189091 
L 5.464286 400.189091 
L 0.482143 400.189091 
L -4.5 400.189091 
L -9.482143 400.189091 
L -14.464286 400.189091 
L -19.446429 400.189091 
L -24.428571 400.189091 
L -29.410714 400.189091 
L -34.392857 400.189091 
L -39.375 400.189091 
L -44.357143 400.189091 
L -49.339286 399.530182 
L -54.321429 397.553455 
L -59.303571 400.189091 
L -64.285714 400.189091 
L -69.267857 399.530182 
L -74.25 400.189091 
L -79.232143 398.212364 
L -84.214286 400.189091 
L -89.196429 400.189091 
L -94.178571 400.189091 
L -99.160714 400.189091 
L -104.142857 398.871273 
z
" style="fill:#ff8c00;stroke:#ff8c00;"/>
   </g>
   <g id="line2d_29">
    <path clip-path="url(#p892bdc9c88)" d="M -1 400.189091 
L 40.339286 400.189091 
L 45.321429 399.530182 
L 50.303571 400.189091 
L 60.267857 400.189091 
L 65.25 399.530182 
L 70.232143 400.189091 
L 85.178571 400.189091 
L 95.142857 398.871273 
L 100.125 400.189091 
L 115.071429 400.189091 
L 120.053571 398.212364 
L 125.035714 400.189091 
L 169.875 400.189091 
L 174.857143 398.871273 
L 184.821429 400.189091 
L 199.767857 400.189091 
L 204.75 398.212364 
L 209.732143 398.212364 
L 214.714286 397.553455 
L 219.696429 399.530182 
L 224.678571 395.576727 
L 229.660714 394.917818 
L 234.642857 400.189091 
L 239.625 398.212364 
L 244.607143 393.6 
L 249.589286 391.623273 
L 254.571429 392.941091 
L 259.553571 396.235636 
L 264.535714 392.282182 
L 269.517857 395.576727 
L 274.5 397.553455 
L 279.482143 391.623273 
L 284.464286 387.010909 
L 289.446429 388.328727 
L 294.428571 385.693091 
L 299.410714 390.305455 
L 304.392857 390.305455 
L 309.375 392.941091 
L 314.357143 377.127273 
L 319.339286 238.756364 
L 324.321429 370.538182 
L 329.303571 383.057455 
L 334.285714 392.941091 
L 339.267857 387.669818 
L 344.25 396.235636 
L 349.232143 394.917818 
L 354.214286 398.212364 
L 359.196429 394.258909 
L 364.178571 379.104 
L 369.160714 388.987636 
L 374.142857 396.235636 
L 384.107143 396.235636 
L 389.089286 398.871273 
L 394.071429 396.894545 
L 399.053571 399.530182 
L 404.035714 398.212364 
L 409.017857 397.553455 
L 414 390.305455 
L 418.982143 392.282182 
L 423.964286 395.576727 
L 428.946429 393.6 
L 433.928571 388.987636 
L 438.910714 365.925818 
L 443.892857 344.181818 
L 448.875 371.856 
L 453.857143 393.6 
L 458.839286 396.894545 
L 463.821429 398.212364 
L 468.803571 397.553455 
L 473.785714 399.530182 
L 478.767857 397.553455 
L 483.75 396.894545 
L 488.732143 400.189091 
L 498.696429 400.189091 
L 503.678571 398.871273 
L 508.660714 399.530182 
L 513.642857 398.871273 
L 518.625 400.189091 
L 523.607143 394.917818 
L 533.571429 400.189091 
L 538.553571 395.576727 
L 543.535714 397.553455 
L 548.517857 392.941091 
L 553.5 386.352 
L 558.482143 358.018909 
L 563.464286 359.995636 
L 568.446429 330.344727 
L 573.428571 379.104 
L 578.410714 396.235636 
L 583.392857 396.894545 
L 588.375 396.894545 
L 593.357143 394.917818 
L 598.339286 396.235636 
L 603.321429 370.538182 
L 608.303571 396.894545 
L 613.285714 396.894545 
L 618.267857 394.917818 
L 623.25 398.871273 
L 628.232143 400.189091 
L 633.214286 394.917818 
L 638.196429 399.530182 
L 643.178571 394.917818 
L 648.160714 396.235636 
L 653.142857 395.576727 
L 668.089286 395.576727 
L 673.071429 385.693091 
L 678.053571 319.143273 
L 683.035714 384.375273 
L 688.017857 377.127273 
L 693 379.762909 
L 697.982143 396.894545 
L 702.964286 396.894545 
L 707.946429 393.6 
L 712.928571 396.894545 
L 717.910714 392.941091 
L 722.892857 385.034182 
L 727.875 398.871273 
L 732.857143 392.282182 
L 737.839286 398.212364 
L 742.821429 399.530182 
L 747.803571 397.553455 
L 752.785714 400.189091 
L 757.767857 398.871273 
L 762.75 398.212364 
L 767.732143 399.530182 
L 772.714286 396.894545 
L 777.696429 396.894545 
L 782.678571 398.871273 
L 787.660714 397.553455 
L 792.642857 394.917818 
L 797.625 377.127273 
L 802.607143 382.398545 
L 807.589286 365.266909 
L 812.571429 393.6 
L 817.553571 394.917818 
L 822.535714 397.553455 
L 827.517857 394.258909 
L 832.5 398.871273 
L 837.482143 398.212364 
L 842.464286 390.305455 
L 847.446429 396.894545 
L 852.428571 394.258909 
L 857.410714 398.871273 
L 867.375 398.871273 
L 872.357143 400.189091 
L 877.339286 398.871273 
L 882.321429 400.189091 
L 897.267857 400.189091 
L 902.25 398.212364 
L 907.232143 400.189091 
L 912.214286 400.189091 
L 917.196429 399.530182 
L 922.178571 398.212364 
L 927.160714 399.530182 
L 932.142857 398.871273 
L 937.125 399.530182 
L 942.107143 397.553455 
L 947.089286 400.189091 
L 952.071429 398.871273 
L 957.053571 399.530182 
L 962.035714 396.894545 
L 967.017857 399.530182 
L 972 400.189091 
L 981.964286 400.189091 
L 986.946429 399.530182 
L 1001.892857 399.530182 
L 1006.875 400.189091 
L 1011.857143 400.189091 
L 1016.839286 398.871273 
L 1021.821429 396.235636 
L 1026.803571 400.189091 
L 1031.785714 399.530182 
L 1036.767857 400.189091 
L 1041.75 400.189091 
L 1046.732143 398.212364 
L 1051.714286 398.871273 
L 1056.696429 398.212364 
L 1061.678571 400.189091 
L 1066.660714 397.553455 
L 1071.642857 398.871273 
L 1076.625 399.530182 
L 1081 399.530182 
L 1081 399.530182 
" style="fill:none;stroke:#ff8c00;stroke-linecap:square;stroke-width:1.5;"/>
   </g>
   <g id="line2d_30">
    <path clip-path="url(#p892bdc9c88)" d="M -1 400.189091 
L 319.339286 400.189091 
L 319.339286 202.516364 
L 319.339286 202.516364 
L 319.339286 116.858182 
L 324.321429 116.858182 
L 324.321429 400.189091 
L 324.321429 400.189091 
L 324.321429 176.818909 
L 329.303571 176.818909 
L 329.303571 191.973818 
L 329.303571 191.973818 
L 329.303571 242.709818 
L 334.285714 242.709818 
L 334.285714 400.189091 
L 364.178571 400.189091 
L 364.178571 367.902545 
L 364.178571 367.902545 
L 364.178571 352.747636 
L 364.178571 352.747636 
L 364.178571 358.018909 
L 369.160714 358.018909 
L 369.160714 400.189091 
L 438.910714 400.189091 
L 438.910714 189.338182 
L 438.910714 189.338182 
L 438.910714 191.314909 
L 443.892857 191.314909 
L 443.892857 209.764364 
L 443.892857 209.764364 
L 443.892857 400.189091 
L 448.875 400.189091 
L 448.875 285.538909 
L 448.875 285.538909 
L 448.875 311.236364 
L 453.857143 311.236364 
L 453.857143 400.189091 
L 483.75 400.189091 
L 483.75 363.949091 
L 483.75 363.949091 
L 483.75 363.949091 
L 488.732143 363.949091 
L 488.732143 400.189091 
L 558.482143 400.189091 
L 558.482143 272.360727 
L 558.482143 272.360727 
L 558.482143 277.632 
L 563.464286 277.632 
L 563.464286 400.189091 
L 563.464286 400.189091 
L 563.464286 303.329455 
L 568.446429 303.329455 
L 568.446429 303.329455 
L 573.428571 303.329455 
L 573.428571 400.189091 
L 603.321429 400.189091 
L 603.321429 348.135273 
L 608.303571 348.135273 
L 608.303571 400.189091 
L 678.053571 400.189091 
L 678.053571 279.608727 
L 678.053571 279.608727 
L 678.053571 305.965091 
L 683.035714 305.965091 
L 683.035714 400.189091 
L 683.035714 400.189091 
L 683.035714 303.329455 
L 688.017857 303.329455 
L 688.017857 302.670545 
L 688.017857 302.670545 
L 688.017857 310.577455 
L 693 310.577455 
L 693 400.189091 
L 722.892857 400.189091 
L 722.892857 355.383273 
L 722.892857 355.383273 
L 722.892857 361.972364 
L 727.875 361.972364 
L 727.875 400.189091 
L 797.625 400.189091 
L 797.625 292.128 
L 797.625 292.128 
L 797.625 297.399273 
L 802.607143 297.399273 
L 802.607143 297.399273 
L 802.607143 297.399273 
L 802.607143 400.189091 
L 807.589286 400.189091 
L 807.589286 325.732364 
L 807.589286 325.732364 
L 807.589286 321.778909 
L 812.571429 321.778909 
L 812.571429 400.189091 
L 842.464286 400.189091 
L 842.464286 367.902545 
L 842.464286 367.902545 
L 842.464286 371.197091 
L 847.446429 371.197091 
L 847.446429 400.189091 
L 1081 400.189091 
" style="fill:none;stroke:#00008b;stroke-dasharray:1.5,2.475;stroke-dashoffset:0;stroke-width:1.5;"/>
   </g>
   <g id="patch_3">
    <path d="M 135 400.189091 
L 135 103.68 
" style="fill:none;stroke:#000000;stroke-linecap:square;stroke-linejoin:miter;stroke-width:0.8;"/>
   </g>
   <g id="patch_4">
    <path d="M 972 400.189091 
L 972 103.68 
" style="fill:none;stroke:#000000;stroke-linecap:square;stroke-linejoin:miter;stroke-width:0.8;"/>
   </g>
   <g id="patch_5">
    <path d="M 135 400.189091 
L 972 400.189091 
" style="fill:none;stroke:#000000;stroke-linecap:square;stroke-linejoin:miter;stroke-width:0.8;"/>
   </g>
   <g id="patch_6">
    <path d="M 135 103.68 
L 972 103.68 
" style="fill:none;stroke:#000000;stroke-linecap:square;stroke-linejoin:miter;stroke-width:0.8;"/>
   </g>
   <g id="legend_1">
    <g id="patch_7">
     <path d="M 769.685938 141.03625 
L 965 141.03625 
Q 967 141.03625 967 139.03625 
L 967 110.68 
Q 967 108.68 965 108.68 
L 769.685938 108.68 
Q 767.685938 108.68 767.685938 110.68 
L 767.685938 139.03625 
Q 767.685938 141.03625 769.685938 141.03625 
z
" style="fill:#ffffff;opacity:0.8;stroke:#cccccc;stroke-linejoin:miter;"/>
    </g>
    <g id="line2d_31">
     <path d="M 771.685938 116.778437 
L 791.685938 116.778437 
" style="fill:none;stroke:#ff8c00;stroke-linecap:square;stroke-width:1.5;"/>
    </g>
    <g id="line2d_32"/>
    <g id="text_21">
     <!-- Binder requests per hour -->
     <g transform="translate(799.685938 120.278437)scale(0.1 -0.1)">
      <defs>
       <path d="M 19.671875 34.8125 
L 19.671875 8.109375 
L 35.5 8.109375 
Q 43.453125 8.109375 47.28125 11.40625 
Q 51.125 14.703125 51.125 21.484375 
Q 51.125 28.328125 47.28125 31.5625 
Q 43.453125 34.8125 35.5 34.8125 
z
M 19.671875 64.796875 
L 19.671875 42.828125 
L 34.28125 42.828125 
Q 41.5 42.828125 45.03125 45.53125 
Q 48.578125 48.25 48.578125 53.8125 
Q 48.578125 59.328125 45.03125 62.0625 
Q 41.5 64.796875 34.28125 64.796875 
z
M 9.8125 72.90625 
L 35.015625 72.90625 
Q 46.296875 72.90625 52.390625 68.21875 
Q 58.5 63.53125 58.5 54.890625 
Q 58.5 48.1875 55.375 44.234375 
Q 52.25 40.28125 46.1875 39.3125 
Q 53.46875 37.75 57.5 32.78125 
Q 61.53125 27.828125 61.53125 20.40625 
Q 61.53125 10.640625 54.890625 5.3125 
Q 48.25 0 35.984375 0 
L 9.8125 0 
z
" id="DejaVuSans-66"/>
       <path d="M 14.796875 27.296875 
Q 14.796875 17.390625 18.875 11.75 
Q 22.953125 6.109375 30.078125 6.109375 
Q 37.203125 6.109375 41.296875 11.75 
Q 45.40625 17.390625 45.40625 27.296875 
Q 45.40625 37.203125 41.296875 42.84375 
Q 37.203125 48.484375 30.078125 48.484375 
Q 22.953125 48.484375 18.875 42.84375 
Q 14.796875 37.203125 14.796875 27.296875 
z
M 45.40625 8.203125 
Q 42.578125 3.328125 38.25 0.953125 
Q 33.9375 -1.421875 27.875 -1.421875 
Q 17.96875 -1.421875 11.734375 6.484375 
Q 5.515625 14.40625 5.515625 27.296875 
Q 5.515625 40.1875 11.734375 48.09375 
Q 17.96875 56 27.875 56 
Q 33.9375 56 38.25 53.625 
Q 42.578125 51.265625 45.40625 46.390625 
L 45.40625 54.6875 
L 54.390625 54.6875 
L 54.390625 -20.796875 
L 45.40625 -20.796875 
z
" id="DejaVuSans-113"/>
      </defs>
      <use xlink:href="#DejaVuSans-66"/>
      <use x="68.603516" xlink:href="#DejaVuSans-105"/>
      <use x="96.386719" xlink:href="#DejaVuSans-110"/>
      <use x="159.765625" xlink:href="#DejaVuSans-100"/>
      <use x="223.242188" xlink:href="#DejaVuSans-101"/>
      <use x="284.765625" xlink:href="#DejaVuSans-114"/>
      <use x="325.878906" xlink:href="#DejaVuSans-32"/>
      <use x="357.666016" xlink:href="#DejaVuSans-114"/>
      <use x="396.529297" xlink:href="#DejaVuSans-101"/>
      <use x="458.052734" xlink:href="#DejaVuSans-113"/>
      <use x="521.529297" xlink:href="#DejaVuSans-117"/>
      <use x="584.908203" xlink:href="#DejaVuSans-101"/>
      <use x="646.431641" xlink:href="#DejaVuSans-115"/>
      <use x="698.53125" xlink:href="#DejaVuSans-116"/>
      <use x="737.740234" xlink:href="#DejaVuSans-115"/>
      <use x="789.839844" xlink:href="#DejaVuSans-32"/>
      <use x="821.626953" xlink:href="#DejaVuSans-112"/>
      <use x="885.103516" xlink:href="#DejaVuSans-101"/>
      <use x="946.626953" xlink:href="#DejaVuSans-114"/>
      <use x="987.740234" xlink:href="#DejaVuSans-32"/>
      <use x="1019.527344" xlink:href="#DejaVuSans-104"/>
      <use x="1082.90625" xlink:href="#DejaVuSans-111"/>
      <use x="1144.087891" xlink:href="#DejaVuSans-117"/>
      <use x="1207.466797" xlink:href="#DejaVuSans-114"/>
     </g>
    </g>
    <g id="line2d_33">
     <path d="M 771.685938 131.456562 
L 791.685938 131.456562 
" style="fill:none;stroke:#00008b;stroke-dasharray:1.5,2.475;stroke-dashoffset:0;stroke-width:1.5;"/>
    </g>
    <g id="line2d_34"/>
    <g id="text_22">
     <!-- Number of participants on Zoom -->
     <g transform="translate(799.685938 134.956562)scale(0.1 -0.1)">
      <defs>
       <path d="M 5.609375 72.90625 
L 62.890625 72.90625 
L 62.890625 65.375 
L 16.796875 8.296875 
L 64.015625 8.296875 
L 64.015625 0 
L 4.5 0 
L 4.5 7.515625 
L 50.59375 64.59375 
L 5.609375 64.59375 
z
" id="DejaVuSans-90"/>
      </defs>
      <use xlink:href="#DejaVuSans-78"/>
      <use x="74.804688" xlink:href="#DejaVuSans-117"/>
      <use x="138.183594" xlink:href="#DejaVuSans-109"/>
      <use x="235.595703" xlink:href="#DejaVuSans-98"/>
      <use x="299.072266" xlink:href="#DejaVuSans-101"/>
      <use x="360.595703" xlink:href="#DejaVuSans-114"/>
      <use x="401.708984" xlink:href="#DejaVuSans-32"/>
      <use x="433.496094" xlink:href="#DejaVuSans-111"/>
      <use x="494.677734" xlink:href="#DejaVuSans-102"/>
      <use x="529.882812" xlink:href="#DejaVuSans-32"/>
      <use x="561.669922" xlink:href="#DejaVuSans-112"/>
      <use x="625.146484" xlink:href="#DejaVuSans-97"/>
      <use x="686.425781" xlink:href="#DejaVuSans-114"/>
      <use x="727.539062" xlink:href="#DejaVuSans-116"/>
      <use x="766.748047" xlink:href="#DejaVuSans-105"/>
      <use x="794.53125" xlink:href="#DejaVuSans-99"/>
      <use x="849.511719" xlink:href="#DejaVuSans-105"/>
      <use x="877.294922" xlink:href="#DejaVuSans-112"/>
      <use x="940.771484" xlink:href="#DejaVuSans-97"/>
      <use x="1002.050781" xlink:href="#DejaVuSans-110"/>
      <use x="1065.429688" xlink:href="#DejaVuSans-116"/>
      <use x="1104.638672" xlink:href="#DejaVuSans-115"/>
      <use x="1156.738281" xlink:href="#DejaVuSans-32"/>
      <use x="1188.525391" xlink:href="#DejaVuSans-111"/>
      <use x="1249.707031" xlink:href="#DejaVuSans-110"/>
      <use x="1313.085938" xlink:href="#DejaVuSans-32"/>
      <use x="1344.873047" xlink:href="#DejaVuSans-90"/>
      <use x="1413.378906" xlink:href="#DejaVuSans-111"/>
      <use x="1474.560547" xlink:href="#DejaVuSans-111"/>
      <use x="1535.742188" xlink:href="#DejaVuSans-109"/>
     </g>
    </g>
   </g>
  </g>
  <g id="axes_2">
   <g id="patch_8">
    <path d="M 135 756 
L 972 756 
L 972 459.490909 
L 135 459.490909 
z
" style="fill:#ffffff;"/>
   </g>
   <g id="matplotlib.axis_3">
    <g id="xtick_9">
     <g id="line2d_35">
      <g>
       <use style="stroke:#000000;stroke-width:0.8;" x="341.217391" xlink:href="#m1ccb0d2a2a" y="756"/>
      </g>
     </g>
     <g id="text_23">
      <!-- Mon July 13 -->
      <g transform="translate(312.142391 770.598437)scale(0.1 -0.1)">
       <use xlink:href="#DejaVuSans-77"/>
       <use x="86.279297" xlink:href="#DejaVuSans-111"/>
       <use x="147.460938" xlink:href="#DejaVuSans-110"/>
       <use x="210.839844" xlink:href="#DejaVuSans-32"/>
       <use x="242.626953" xlink:href="#DejaVuSans-74"/>
       <use x="272.119141" xlink:href="#DejaVuSans-117"/>
       <use x="335.498047" xlink:href="#DejaVuSans-108"/>
       <use x="363.28125" xlink:href="#DejaVuSans-121"/>
       <use x="422.460938" xlink:href="#DejaVuSans-32"/>
       <use x="454.248047" xlink:href="#DejaVuSans-49"/>
       <use x="517.871094" xlink:href="#DejaVuSans-51"/>
      </g>
     </g>
    </g>
    <g id="xtick_10">
     <g id="line2d_36">
      <g>
       <use style="stroke:#000000;stroke-width:0.8;" x="462.521739" xlink:href="#m1ccb0d2a2a" y="756"/>
      </g>
     </g>
     <g id="text_24">
      <!-- Tue July 14 -->
      <g transform="translate(435.445958 770.598437)scale(0.1 -0.1)">
       <use xlink:href="#DejaVuSans-84"/>
       <use x="45.958984" xlink:href="#DejaVuSans-117"/>
       <use x="109.337891" xlink:href="#DejaVuSans-101"/>
       <use x="170.861328" xlink:href="#DejaVuSans-32"/>
       <use x="202.648438" xlink:href="#DejaVuSans-74"/>
       <use x="232.140625" xlink:href="#DejaVuSans-117"/>
       <use x="295.519531" xlink:href="#DejaVuSans-108"/>
       <use x="323.302734" xlink:href="#DejaVuSans-121"/>
       <use x="382.482422" xlink:href="#DejaVuSans-32"/>
       <use x="414.269531" xlink:href="#DejaVuSans-49"/>
       <use x="477.892578" xlink:href="#DejaVuSans-52"/>
      </g>
     </g>
    </g>
    <g id="xtick_11">
     <g id="line2d_37">
      <g>
       <use style="stroke:#000000;stroke-width:0.8;" x="583.826087" xlink:href="#m1ccb0d2a2a" y="756"/>
      </g>
     </g>
     <g id="text_25">
      <!-- Wed July 15 -->
      <g transform="translate(554.392493 770.598437)scale(0.1 -0.1)">
       <use xlink:href="#DejaVuSans-87"/>
       <use x="93.001953" xlink:href="#DejaVuSans-101"/>
       <use x="154.525391" xlink:href="#DejaVuSans-100"/>
       <use x="218.001953" xlink:href="#DejaVuSans-32"/>
       <use x="249.789062" xlink:href="#DejaVuSans-74"/>
       <use x="279.28125" xlink:href="#DejaVuSans-117"/>
       <use x="342.660156" xlink:href="#DejaVuSans-108"/>
       <use x="370.443359" xlink:href="#DejaVuSans-121"/>
       <use x="429.623047" xlink:href="#DejaVuSans-32"/>
       <use x="461.410156" xlink:href="#DejaVuSans-49"/>
       <use x="525.033203" xlink:href="#DejaVuSans-53"/>
      </g>
     </g>
    </g>
    <g id="xtick_12">
     <g id="line2d_38">
      <g>
       <use style="stroke:#000000;stroke-width:0.8;" x="705.130435" xlink:href="#m1ccb0d2a2a" y="756"/>
      </g>
     </g>
     <g id="text_26">
      <!-- Thu July 16 -->
      <g transform="translate(677.206216 770.598437)scale(0.1 -0.1)">
       <use xlink:href="#DejaVuSans-84"/>
       <use x="61.083984" xlink:href="#DejaVuSans-104"/>
       <use x="124.462891" xlink:href="#DejaVuSans-117"/>
       <use x="187.841797" xlink:href="#DejaVuSans-32"/>
       <use x="219.628906" xlink:href="#DejaVuSans-74"/>
       <use x="249.121094" xlink:href="#DejaVuSans-117"/>
       <use x="312.5" xlink:href="#DejaVuSans-108"/>
       <use x="340.283203" xlink:href="#DejaVuSans-121"/>
       <use x="399.462891" xlink:href="#DejaVuSans-32"/>
       <use x="431.25" xlink:href="#DejaVuSans-49"/>
       <use x="494.873047" xlink:href="#DejaVuSans-54"/>
      </g>
     </g>
    </g>
    <g id="xtick_13">
     <g id="line2d_39">
      <g>
       <use style="stroke:#000000;stroke-width:0.8;" x="826.434783" xlink:href="#m1ccb0d2a2a" y="756"/>
      </g>
     </g>
     <g id="text_27">
      <!-- Fri July 17 -->
      <g transform="translate(801.944158 770.598437)scale(0.1 -0.1)">
       <use xlink:href="#DejaVuSans-70"/>
       <use x="50.269531" xlink:href="#DejaVuSans-114"/>
       <use x="91.382812" xlink:href="#DejaVuSans-105"/>
       <use x="119.166016" xlink:href="#DejaVuSans-32"/>
       <use x="150.953125" xlink:href="#DejaVuSans-74"/>
       <use x="180.445312" xlink:href="#DejaVuSans-117"/>
       <use x="243.824219" xlink:href="#DejaVuSans-108"/>
       <use x="271.607422" xlink:href="#DejaVuSans-121"/>
       <use x="330.787109" xlink:href="#DejaVuSans-32"/>
       <use x="362.574219" xlink:href="#DejaVuSans-49"/>
       <use x="426.197266" xlink:href="#DejaVuSans-55"/>
      </g>
     </g>
    </g>
   </g>
   <g id="matplotlib.axis_4">
    <g id="ytick_11">
     <g id="line2d_40">
      <path clip-path="url(#p66838d23e3)" d="M 135 756 
L 972 756 
" style="fill:none;stroke:#b0b0b0;stroke-linecap:square;stroke-width:0.8;"/>
     </g>
     <g id="line2d_41">
      <g>
       <use style="stroke:#000000;stroke-width:0.8;" x="135" xlink:href="#m6b83c9efdb" y="756"/>
      </g>
     </g>
     <g id="text_28">
      <!-- 0 -->
      <g transform="translate(121.6375 759.799219)scale(0.1 -0.1)">
       <use xlink:href="#DejaVuSans-48"/>
      </g>
     </g>
    </g>
    <g id="ytick_12">
     <g id="line2d_42">
      <path clip-path="url(#p66838d23e3)" d="M 135 713.852297 
L 972 713.852297 
" style="fill:none;stroke:#b0b0b0;stroke-linecap:square;stroke-width:0.8;"/>
     </g>
     <g id="line2d_43">
      <g>
       <use style="stroke:#000000;stroke-width:0.8;" x="135" xlink:href="#m6b83c9efdb" y="713.852297"/>
      </g>
     </g>
     <g id="text_29">
      <!-- 20 -->
      <g transform="translate(115.275 717.651516)scale(0.1 -0.1)">
       <use xlink:href="#DejaVuSans-50"/>
       <use x="63.623047" xlink:href="#DejaVuSans-48"/>
      </g>
     </g>
    </g>
    <g id="ytick_13">
     <g id="line2d_44">
      <path clip-path="url(#p66838d23e3)" d="M 135 671.704594 
L 972 671.704594 
" style="fill:none;stroke:#b0b0b0;stroke-linecap:square;stroke-width:0.8;"/>
     </g>
     <g id="line2d_45">
      <g>
       <use style="stroke:#000000;stroke-width:0.8;" x="135" xlink:href="#m6b83c9efdb" y="671.704594"/>
      </g>
     </g>
     <g id="text_30">
      <!-- 40 -->
      <g transform="translate(115.275 675.503813)scale(0.1 -0.1)">
       <use xlink:href="#DejaVuSans-52"/>
       <use x="63.623047" xlink:href="#DejaVuSans-48"/>
      </g>
     </g>
    </g>
    <g id="ytick_14">
     <g id="line2d_46">
      <path clip-path="url(#p66838d23e3)" d="M 135 629.556891 
L 972 629.556891 
" style="fill:none;stroke:#b0b0b0;stroke-linecap:square;stroke-width:0.8;"/>
     </g>
     <g id="line2d_47">
      <g>
       <use style="stroke:#000000;stroke-width:0.8;" x="135" xlink:href="#m6b83c9efdb" y="629.556891"/>
      </g>
     </g>
     <g id="text_31">
      <!-- 60 -->
      <g transform="translate(115.275 633.35611)scale(0.1 -0.1)">
       <use xlink:href="#DejaVuSans-54"/>
       <use x="63.623047" xlink:href="#DejaVuSans-48"/>
      </g>
     </g>
    </g>
    <g id="ytick_15">
     <g id="line2d_48">
      <path clip-path="url(#p66838d23e3)" d="M 135 587.409188 
L 972 587.409188 
" style="fill:none;stroke:#b0b0b0;stroke-linecap:square;stroke-width:0.8;"/>
     </g>
     <g id="line2d_49">
      <g>
       <use style="stroke:#000000;stroke-width:0.8;" x="135" xlink:href="#m6b83c9efdb" y="587.409188"/>
      </g>
     </g>
     <g id="text_32">
      <!-- 80 -->
      <g transform="translate(115.275 591.208407)scale(0.1 -0.1)">
       <use xlink:href="#DejaVuSans-56"/>
       <use x="63.623047" xlink:href="#DejaVuSans-48"/>
      </g>
     </g>
    </g>
    <g id="ytick_16">
     <g id="line2d_50">
      <path clip-path="url(#p66838d23e3)" d="M 135 545.261485 
L 972 545.261485 
" style="fill:none;stroke:#b0b0b0;stroke-linecap:square;stroke-width:0.8;"/>
     </g>
     <g id="line2d_51">
      <g>
       <use style="stroke:#000000;stroke-width:0.8;" x="135" xlink:href="#m6b83c9efdb" y="545.261485"/>
      </g>
     </g>
     <g id="text_33">
      <!-- 100 -->
      <g transform="translate(108.9125 549.060704)scale(0.1 -0.1)">
       <use xlink:href="#DejaVuSans-49"/>
       <use x="63.623047" xlink:href="#DejaVuSans-48"/>
       <use x="127.246094" xlink:href="#DejaVuSans-48"/>
      </g>
     </g>
    </g>
    <g id="ytick_17">
     <g id="line2d_52">
      <path clip-path="url(#p66838d23e3)" d="M 135 503.113782 
L 972 503.113782 
" style="fill:none;stroke:#b0b0b0;stroke-linecap:square;stroke-width:0.8;"/>
     </g>
     <g id="line2d_53">
      <g>
       <use style="stroke:#000000;stroke-width:0.8;" x="135" xlink:href="#m6b83c9efdb" y="503.113782"/>
      </g>
     </g>
     <g id="text_34">
      <!-- 120 -->
      <g transform="translate(108.9125 506.913)scale(0.1 -0.1)">
       <use xlink:href="#DejaVuSans-49"/>
       <use x="63.623047" xlink:href="#DejaVuSans-50"/>
       <use x="127.246094" xlink:href="#DejaVuSans-48"/>
      </g>
     </g>
    </g>
    <g id="ytick_18">
     <g id="line2d_54">
      <path clip-path="url(#p66838d23e3)" d="M 135 460.966079 
L 972 460.966079 
" style="fill:none;stroke:#b0b0b0;stroke-linecap:square;stroke-width:0.8;"/>
     </g>
     <g id="line2d_55">
      <g>
       <use style="stroke:#000000;stroke-width:0.8;" x="135" xlink:href="#m6b83c9efdb" y="460.966079"/>
      </g>
     </g>
     <g id="text_35">
      <!-- 140 -->
      <g transform="translate(108.9125 464.765297)scale(0.1 -0.1)">
       <use xlink:href="#DejaVuSans-49"/>
       <use x="63.623047" xlink:href="#DejaVuSans-52"/>
       <use x="127.246094" xlink:href="#DejaVuSans-48"/>
      </g>
     </g>
    </g>
    <g id="text_36">
     <!-- Zoom attendence reported in survey -->
     <g transform="translate(102.832812 699.89233)rotate(-90)scale(0.1 -0.1)">
      <defs>
       <path d="M 2.984375 54.6875 
L 12.5 54.6875 
L 29.59375 8.796875 
L 46.6875 54.6875 
L 56.203125 54.6875 
L 35.6875 0 
L 23.484375 0 
z
" id="DejaVuSans-118"/>
      </defs>
      <use xlink:href="#DejaVuSans-90"/>
      <use x="68.505859" xlink:href="#DejaVuSans-111"/>
      <use x="129.6875" xlink:href="#DejaVuSans-111"/>
      <use x="190.869141" xlink:href="#DejaVuSans-109"/>
      <use x="288.28125" xlink:href="#DejaVuSans-32"/>
      <use x="320.068359" xlink:href="#DejaVuSans-97"/>
      <use x="381.347656" xlink:href="#DejaVuSans-116"/>
      <use x="420.556641" xlink:href="#DejaVuSans-116"/>
      <use x="459.765625" xlink:href="#DejaVuSans-101"/>
      <use x="521.289062" xlink:href="#DejaVuSans-110"/>
      <use x="584.667969" xlink:href="#DejaVuSans-100"/>
      <use x="648.144531" xlink:href="#DejaVuSans-101"/>
      <use x="709.667969" xlink:href="#DejaVuSans-110"/>
      <use x="773.046875" xlink:href="#DejaVuSans-99"/>
      <use x="828.027344" xlink:href="#DejaVuSans-101"/>
      <use x="889.550781" xlink:href="#DejaVuSans-32"/>
      <use x="921.337891" xlink:href="#DejaVuSans-114"/>
      <use x="960.201172" xlink:href="#DejaVuSans-101"/>
      <use x="1021.724609" xlink:href="#DejaVuSans-112"/>
      <use x="1085.201172" xlink:href="#DejaVuSans-111"/>
      <use x="1146.382812" xlink:href="#DejaVuSans-114"/>
      <use x="1187.496094" xlink:href="#DejaVuSans-116"/>
      <use x="1226.705078" xlink:href="#DejaVuSans-101"/>
      <use x="1288.228516" xlink:href="#DejaVuSans-100"/>
      <use x="1351.705078" xlink:href="#DejaVuSans-32"/>
      <use x="1383.492188" xlink:href="#DejaVuSans-105"/>
      <use x="1411.275391" xlink:href="#DejaVuSans-110"/>
      <use x="1474.654297" xlink:href="#DejaVuSans-32"/>
      <use x="1506.441406" xlink:href="#DejaVuSans-115"/>
      <use x="1558.541016" xlink:href="#DejaVuSans-117"/>
      <use x="1621.919922" xlink:href="#DejaVuSans-114"/>
      <use x="1663.033203" xlink:href="#DejaVuSans-118"/>
      <use x="1722.212891" xlink:href="#DejaVuSans-101"/>
      <use x="1783.736328" xlink:href="#DejaVuSans-121"/>
     </g>
    </g>
   </g>
   <g id="patch_9">
    <path clip-path="url(#p66838d23e3)" d="M 310.891304 756 
L 341.217391 756 
L 341.217391 473.61039 
L 310.891304 473.61039 
z
" style="fill:#008000;"/>
   </g>
   <g id="patch_10">
    <path clip-path="url(#p66838d23e3)" d="M 432.195652 756 
L 462.521739 756 
L 462.521739 488.362086 
L 432.195652 488.362086 
z
" style="fill:#008000;"/>
   </g>
   <g id="patch_11">
    <path clip-path="url(#p66838d23e3)" d="M 553.5 756 
L 583.826087 756 
L 583.826087 528.402404 
L 553.5 528.402404 
z
" style="fill:#008000;"/>
   </g>
   <g id="patch_12">
    <path clip-path="url(#p66838d23e3)" d="M 674.804348 756 
L 705.130435 756 
L 705.130435 532.617174 
L 674.804348 532.617174 
z
" style="fill:#008000;"/>
   </g>
   <g id="patch_13">
    <path clip-path="url(#p66838d23e3)" d="M 796.108696 756 
L 826.434783 756 
L 826.434783 562.120566 
L 796.108696 562.120566 
z
" style="fill:#008000;"/>
   </g>
   <g id="patch_14">
    <path clip-path="url(#p66838d23e3)" d="M 341.217391 756 
L 371.543478 756 
L 371.543478 623.234735 
L 341.217391 623.234735 
z
" style="fill:#90ee90;"/>
   </g>
   <g id="patch_15">
    <path clip-path="url(#p66838d23e3)" d="M 462.521739 756 
L 492.847826 756 
L 492.847826 654.845513 
L 462.521739 654.845513 
z
" style="fill:#90ee90;"/>
   </g>
   <g id="patch_16">
    <path clip-path="url(#p66838d23e3)" d="M 583.826087 756 
L 614.152174 756 
L 614.152174 644.308587 
L 583.826087 644.308587 
z
" style="fill:#90ee90;"/>
   </g>
   <g id="patch_17">
    <path clip-path="url(#p66838d23e3)" d="M 705.130435 756 
L 735.456522 756 
L 735.456522 652.738128 
L 705.130435 652.738128 
z
" style="fill:#90ee90;"/>
   </g>
   <g id="patch_18">
    <path clip-path="url(#p66838d23e3)" d="M 826.434783 756 
L 856.76087 756 
L 856.76087 684.348905 
L 826.434783 684.348905 
z
" style="fill:#90ee90;"/>
   </g>
   <g id="patch_19">
    <path d="M 135 756 
L 135 459.490909 
" style="fill:none;stroke:#000000;stroke-linecap:square;stroke-linejoin:miter;stroke-width:0.8;"/>
   </g>
   <g id="patch_20">
    <path d="M 972 756 
L 972 459.490909 
" style="fill:none;stroke:#000000;stroke-linecap:square;stroke-linejoin:miter;stroke-width:0.8;"/>
   </g>
   <g id="patch_21">
    <path d="M 135 756 
L 972 756 
" style="fill:none;stroke:#000000;stroke-linecap:square;stroke-linejoin:miter;stroke-width:0.8;"/>
   </g>
   <g id="patch_22">
    <path d="M 135 459.490909 
L 972 459.490909 
" style="fill:none;stroke:#000000;stroke-linecap:square;stroke-linejoin:miter;stroke-width:0.8;"/>
   </g>
   <g id="legend_2">
    <g id="patch_23">
     <path d="M 832.173437 496.847159 
L 965 496.847159 
Q 967 496.847159 967 494.847159 
L 967 466.490909 
Q 967 464.490909 965 464.490909 
L 832.173437 464.490909 
Q 830.173437 464.490909 830.173437 466.490909 
L 830.173437 494.847159 
Q 830.173437 496.847159 832.173437 496.847159 
z
" style="fill:#ffffff;opacity:0.8;stroke:#cccccc;stroke-linejoin:miter;"/>
    </g>
    <g id="patch_24">
     <path d="M 834.173437 476.089347 
L 854.173437 476.089347 
L 854.173437 469.089347 
L 834.173437 469.089347 
z
" style="fill:#008000;"/>
    </g>
    <g id="text_37">
     <!-- Atlantic (13:00 UTC) -->
     <g transform="translate(862.173437 476.089347)scale(0.1 -0.1)">
      <defs>
       <path d="M 34.1875 63.1875 
L 20.796875 26.90625 
L 47.609375 26.90625 
z
M 28.609375 72.90625 
L 39.796875 72.90625 
L 67.578125 0 
L 57.328125 0 
L 50.6875 18.703125 
L 17.828125 18.703125 
L 11.1875 0 
L 0.78125 0 
z
" id="DejaVuSans-65"/>
       <path d="M 11.71875 12.40625 
L 22.015625 12.40625 
L 22.015625 0 
L 11.71875 0 
z
M 11.71875 51.703125 
L 22.015625 51.703125 
L 22.015625 39.3125 
L 11.71875 39.3125 
z
" id="DejaVuSans-58"/>
      </defs>
      <use xlink:href="#DejaVuSans-65"/>
      <use x="66.658203" xlink:href="#DejaVuSans-116"/>
      <use x="105.867188" xlink:href="#DejaVuSans-108"/>
      <use x="133.650391" xlink:href="#DejaVuSans-97"/>
      <use x="194.929688" xlink:href="#DejaVuSans-110"/>
      <use x="258.308594" xlink:href="#DejaVuSans-116"/>
      <use x="297.517578" xlink:href="#DejaVuSans-105"/>
      <use x="325.300781" xlink:href="#DejaVuSans-99"/>
      <use x="380.28125" xlink:href="#DejaVuSans-32"/>
      <use x="412.068359" xlink:href="#DejaVuSans-40"/>
      <use x="451.082031" xlink:href="#DejaVuSans-49"/>
      <use x="514.705078" xlink:href="#DejaVuSans-51"/>
      <use x="578.328125" xlink:href="#DejaVuSans-58"/>
      <use x="612.019531" xlink:href="#DejaVuSans-48"/>
      <use x="675.642578" xlink:href="#DejaVuSans-48"/>
      <use x="739.265625" xlink:href="#DejaVuSans-32"/>
      <use x="771.052734" xlink:href="#DejaVuSans-85"/>
      <use x="844.246094" xlink:href="#DejaVuSans-84"/>
      <use x="899.455078" xlink:href="#DejaVuSans-67"/>
      <use x="969.279297" xlink:href="#DejaVuSans-41"/>
     </g>
    </g>
    <g id="patch_25">
     <path d="M 834.173437 490.767472 
L 854.173437 490.767472 
L 854.173437 483.767472 
L 834.173437 483.767472 
z
" style="fill:#90ee90;"/>
    </g>
    <g id="text_38">
     <!-- Pacific (20:00 UTC) -->
     <g transform="translate(862.173437 490.767472)scale(0.1 -0.1)">
      <defs>
       <path d="M 19.671875 64.796875 
L 19.671875 37.40625 
L 32.078125 37.40625 
Q 38.96875 37.40625 42.71875 40.96875 
Q 46.484375 44.53125 46.484375 51.125 
Q 46.484375 57.671875 42.71875 61.234375 
Q 38.96875 64.796875 32.078125 64.796875 
z
M 9.8125 72.90625 
L 32.078125 72.90625 
Q 44.34375 72.90625 50.609375 67.359375 
Q 56.890625 61.8125 56.890625 51.125 
Q 56.890625 40.328125 50.609375 34.8125 
Q 44.34375 29.296875 32.078125 29.296875 
L 19.671875 29.296875 
L 19.671875 0 
L 9.8125 0 
z
" id="DejaVuSans-80"/>
      </defs>
      <use xlink:href="#DejaVuSans-80"/>
      <use x="55.802734" xlink:href="#DejaVuSans-97"/>
      <use x="117.082031" xlink:href="#DejaVuSans-99"/>
      <use x="172.0625" xlink:href="#DejaVuSans-105"/>
      <use x="199.845703" xlink:href="#DejaVuSans-102"/>
      <use x="235.050781" xlink:href="#DejaVuSans-105"/>
      <use x="262.833984" xlink:href="#DejaVuSans-99"/>
      <use x="317.814453" xlink:href="#DejaVuSans-32"/>
      <use x="349.601562" xlink:href="#DejaVuSans-40"/>
      <use x="388.615234" xlink:href="#DejaVuSans-50"/>
      <use x="452.238281" xlink:href="#DejaVuSans-48"/>
      <use x="515.861328" xlink:href="#DejaVuSans-58"/>
      <use x="549.552734" xlink:href="#DejaVuSans-48"/>
      <use x="613.175781" xlink:href="#DejaVuSans-48"/>
      <use x="676.798828" xlink:href="#DejaVuSans-32"/>
      <use x="708.585938" xlink:href="#DejaVuSans-85"/>
      <use x="781.779297" xlink:href="#DejaVuSans-84"/>
      <use x="836.988281" xlink:href="#DejaVuSans-67"/>
      <use x="906.8125" xlink:href="#DejaVuSans-41"/>
     </g>
    </g>
   </g>
  </g>
 </g>
 <defs>
  <clipPath id="p892bdc9c88">
   <rect height="296.509091" width="837" x="135" y="103.68"/>
  </clipPath>
  <clipPath id="p66838d23e3">
   <rect height="296.509091" width="837" x="135" y="459.490909"/>
  </clipPath>
 </defs>
</svg>
