<?xml version="1.0" encoding="utf-8" standalone="no"?>
<!DOCTYPE svg PUBLIC "-//W3C//DTD SVG 1.1//EN"
  "http://www.w3.org/Graphics/SVG/1.1/DTD/svg11.dtd">
<!-- Created with matplotlib (https://matplotlib.org/) -->
<svg height="216pt" version="1.1" viewBox="0 0 720 216" width="720pt" xmlns="http://www.w3.org/2000/svg" xmlns:xlink="http://www.w3.org/1999/xlink">
 <metadata>
  <rdf:RDF xmlns:cc="http://creativecommons.org/ns#" xmlns:dc="http://purl.org/dc/elements/1.1/" xmlns:rdf="http://www.w3.org/1999/02/22-rdf-syntax-ns#">
   <cc:Work>
    <dc:type rdf:resource="http://purl.org/dc/dcmitype/StillImage"/>
    <dc:date>2020-10-13T23:17:51.678230</dc:date>
    <dc:format>image/svg+xml</dc:format>
    <dc:creator>
     <cc:Agent>
      <dc:title>Matplotlib v3.3.0, https://matplotlib.org/</dc:title>
     </cc:Agent>
    </dc:creator>
   </cc:Work>
  </rdf:RDF>
 </metadata>
 <defs>
  <style type="text/css">*{stroke-linecap:butt;stroke-linejoin:round;}</style>
 </defs>
 <g id="figure_1">
  <g id="patch_1">
   <path d="M 0 216 
L 720 216 
L 720 0 
L 0 0 
z
" style="fill:none;"/>
  </g>
  <g id="axes_1">
   <g id="patch_2">
    <path d="M 90 172.8 
L 648 172.8 
L 648 25.92 
L 90 25.92 
z
" style="fill:#ffffff;"/>
   </g>
   <g id="matplotlib.axis_1">
    <g id="xtick_1">
     <g id="line2d_1">
      <defs>
       <path d="M 0 0 
L 0 3.5 
" id="md8b9f843ae" style="stroke:#000000;stroke-width:0.8;"/>
      </defs>
      <g>
       <use style="stroke:#000000;stroke-width:0.8;" x="98.484211" xlink:href="#md8b9f843ae" y="172.8"/>
      </g>
     </g>
     <g id="text_1">
      <!-- Jul 2018 -->
      <g transform="translate(78.137336 187.398438)scale(0.1 -0.1)">
       <defs>
        <path d="M 9.8125 72.90625 
L 19.671875 72.90625 
L 19.671875 5.078125 
Q 19.671875 -8.109375 14.671875 -14.0625 
Q 9.671875 -20.015625 -1.421875 -20.015625 
L -5.171875 -20.015625 
L -5.171875 -11.71875 
L -2.09375 -11.71875 
Q 4.4375 -11.71875 7.125 -8.046875 
Q 9.8125 -4.390625 9.8125 5.078125 
z
" id="DejaVuSans-74"/>
        <path d="M 8.5 21.578125 
L 8.5 54.6875 
L 17.484375 54.6875 
L 17.484375 21.921875 
Q 17.484375 14.15625 20.5 10.265625 
Q 23.53125 6.390625 29.59375 6.390625 
Q 36.859375 6.390625 41.078125 11.03125 
Q 45.3125 15.671875 45.3125 23.6875 
L 45.3125 54.6875 
L 54.296875 54.6875 
L 54.296875 0 
L 45.3125 0 
L 45.3125 8.40625 
Q 42.046875 3.421875 37.71875 1 
Q 33.40625 -1.421875 27.6875 -1.421875 
Q 18.265625 -1.421875 13.375 4.4375 
Q 8.5 10.296875 8.5 21.578125 
z
M 31.109375 56 
z
" id="DejaVuSans-117"/>
        <path d="M 9.421875 75.984375 
L 18.40625 75.984375 
L 18.40625 0 
L 9.421875 0 
z
" id="DejaVuSans-108"/>
        <path id="DejaVuSans-32"/>
        <path d="M 19.1875 8.296875 
L 53.609375 8.296875 
L 53.609375 0 
L 7.328125 0 
L 7.328125 8.296875 
Q 12.9375 14.109375 22.625 23.890625 
Q 32.328125 33.6875 34.8125 36.53125 
Q 39.546875 41.84375 41.421875 45.53125 
Q 43.3125 49.21875 43.3125 52.78125 
Q 43.3125 58.59375 39.234375 62.25 
Q 35.15625 65.921875 28.609375 65.921875 
Q 23.96875 65.921875 18.8125 64.3125 
Q 13.671875 62.703125 7.8125 59.421875 
L 7.8125 69.390625 
Q 13.765625 71.78125 18.9375 73 
Q 24.125 74.21875 28.421875 74.21875 
Q 39.75 74.21875 46.484375 68.546875 
Q 53.21875 62.890625 53.21875 53.421875 
Q 53.21875 48.921875 51.53125 44.890625 
Q 49.859375 40.875 45.40625 35.40625 
Q 44.1875 33.984375 37.640625 27.21875 
Q 31.109375 20.453125 19.1875 8.296875 
z
" id="DejaVuSans-50"/>
        <path d="M 31.78125 66.40625 
Q 24.171875 66.40625 20.328125 58.90625 
Q 16.5 51.421875 16.5 36.375 
Q 16.5 21.390625 20.328125 13.890625 
Q 24.171875 6.390625 31.78125 6.390625 
Q 39.453125 6.390625 43.28125 13.890625 
Q 47.125 21.390625 47.125 36.375 
Q 47.125 51.421875 43.28125 58.90625 
Q 39.453125 66.40625 31.78125 66.40625 
z
M 31.78125 74.21875 
Q 44.046875 74.21875 50.515625 64.515625 
Q 56.984375 54.828125 56.984375 36.375 
Q 56.984375 17.96875 50.515625 8.265625 
Q 44.046875 -1.421875 31.78125 -1.421875 
Q 19.53125 -1.421875 13.0625 8.265625 
Q 6.59375 17.96875 6.59375 36.375 
Q 6.59375 54.828125 13.0625 64.515625 
Q 19.53125 74.21875 31.78125 74.21875 
z
" id="DejaVuSans-48"/>
        <path d="M 12.40625 8.296875 
L 28.515625 8.296875 
L 28.515625 63.921875 
L 10.984375 60.40625 
L 10.984375 69.390625 
L 28.421875 72.90625 
L 38.28125 72.90625 
L 38.28125 8.296875 
L 54.390625 8.296875 
L 54.390625 0 
L 12.40625 0 
z
" id="DejaVuSans-49"/>
        <path d="M 31.78125 34.625 
Q 24.75 34.625 20.71875 30.859375 
Q 16.703125 27.09375 16.703125 20.515625 
Q 16.703125 13.921875 20.71875 10.15625 
Q 24.75 6.390625 31.78125 6.390625 
Q 38.8125 6.390625 42.859375 10.171875 
Q 46.921875 13.96875 46.921875 20.515625 
Q 46.921875 27.09375 42.890625 30.859375 
Q 38.875 34.625 31.78125 34.625 
z
M 21.921875 38.8125 
Q 15.578125 40.375 12.03125 44.71875 
Q 8.5 49.078125 8.5 55.328125 
Q 8.5 64.0625 14.71875 69.140625 
Q 20.953125 74.21875 31.78125 74.21875 
Q 42.671875 74.21875 48.875 69.140625 
Q 55.078125 64.0625 55.078125 55.328125 
Q 55.078125 49.078125 51.53125 44.71875 
Q 48 40.375 41.703125 38.8125 
Q 48.828125 37.15625 52.796875 32.3125 
Q 56.78125 27.484375 56.78125 20.515625 
Q 56.78125 9.90625 50.3125 4.234375 
Q 43.84375 -1.421875 31.78125 -1.421875 
Q 19.734375 -1.421875 13.25 4.234375 
Q 6.78125 9.90625 6.78125 20.515625 
Q 6.78125 27.484375 10.78125 32.3125 
Q 14.796875 37.15625 21.921875 38.8125 
z
M 18.3125 54.390625 
Q 18.3125 48.734375 21.84375 45.5625 
Q 25.390625 42.390625 31.78125 42.390625 
Q 38.140625 42.390625 41.71875 45.5625 
Q 45.3125 48.734375 45.3125 54.390625 
Q 45.3125 60.0625 41.71875 63.234375 
Q 38.140625 66.40625 31.78125 66.40625 
Q 25.390625 66.40625 21.84375 63.234375 
Q 18.3125 60.0625 18.3125 54.390625 
z
" id="DejaVuSans-56"/>
       </defs>
       <use xlink:href="#DejaVuSans-74"/>
       <use x="29.492188" xlink:href="#DejaVuSans-117"/>
       <use x="92.871094" xlink:href="#DejaVuSans-108"/>
       <use x="120.654297" xlink:href="#DejaVuSans-32"/>
       <use x="152.441406" xlink:href="#DejaVuSans-50"/>
       <use x="216.064453" xlink:href="#DejaVuSans-48"/>
       <use x="279.6875" xlink:href="#DejaVuSans-49"/>
       <use x="343.310547" xlink:href="#DejaVuSans-56"/>
      </g>
     </g>
    </g>
    <g id="xtick_2">
     <g id="line2d_2">
      <g>
       <use style="stroke:#000000;stroke-width:0.8;" x="158.526316" xlink:href="#md8b9f843ae" y="172.8"/>
      </g>
     </g>
     <g id="text_2">
      <!-- Oct 2018 -->
      <g transform="translate(135.566941 187.398438)scale(0.1 -0.1)">
       <defs>
        <path d="M 39.40625 66.21875 
Q 28.65625 66.21875 22.328125 58.203125 
Q 16.015625 50.203125 16.015625 36.375 
Q 16.015625 22.609375 22.328125 14.59375 
Q 28.65625 6.59375 39.40625 6.59375 
Q 50.140625 6.59375 56.421875 14.59375 
Q 62.703125 22.609375 62.703125 36.375 
Q 62.703125 50.203125 56.421875 58.203125 
Q 50.140625 66.21875 39.40625 66.21875 
z
M 39.40625 74.21875 
Q 54.734375 74.21875 63.90625 63.9375 
Q 73.09375 53.65625 73.09375 36.375 
Q 73.09375 19.140625 63.90625 8.859375 
Q 54.734375 -1.421875 39.40625 -1.421875 
Q 24.03125 -1.421875 14.8125 8.828125 
Q 5.609375 19.09375 5.609375 36.375 
Q 5.609375 53.65625 14.8125 63.9375 
Q 24.03125 74.21875 39.40625 74.21875 
z
" id="DejaVuSans-79"/>
        <path d="M 48.78125 52.59375 
L 48.78125 44.1875 
Q 44.96875 46.296875 41.140625 47.34375 
Q 37.3125 48.390625 33.40625 48.390625 
Q 24.65625 48.390625 19.8125 42.84375 
Q 14.984375 37.3125 14.984375 27.296875 
Q 14.984375 17.28125 19.8125 11.734375 
Q 24.65625 6.203125 33.40625 6.203125 
Q 37.3125 6.203125 41.140625 7.25 
Q 44.96875 8.296875 48.78125 10.40625 
L 48.78125 2.09375 
Q 45.015625 0.34375 40.984375 -0.53125 
Q 36.96875 -1.421875 32.421875 -1.421875 
Q 20.0625 -1.421875 12.78125 6.34375 
Q 5.515625 14.109375 5.515625 27.296875 
Q 5.515625 40.671875 12.859375 48.328125 
Q 20.21875 56 33.015625 56 
Q 37.15625 56 41.109375 55.140625 
Q 45.0625 54.296875 48.78125 52.59375 
z
" id="DejaVuSans-99"/>
        <path d="M 18.3125 70.21875 
L 18.3125 54.6875 
L 36.8125 54.6875 
L 36.8125 47.703125 
L 18.3125 47.703125 
L 18.3125 18.015625 
Q 18.3125 11.328125 20.140625 9.421875 
Q 21.96875 7.515625 27.59375 7.515625 
L 36.8125 7.515625 
L 36.8125 0 
L 27.59375 0 
Q 17.1875 0 13.234375 3.875 
Q 9.28125 7.765625 9.28125 18.015625 
L 9.28125 47.703125 
L 2.6875 47.703125 
L 2.6875 54.6875 
L 9.28125 54.6875 
L 9.28125 70.21875 
z
" id="DejaVuSans-116"/>
       </defs>
       <use xlink:href="#DejaVuSans-79"/>
       <use x="78.710938" xlink:href="#DejaVuSans-99"/>
       <use x="133.691406" xlink:href="#DejaVuSans-116"/>
       <use x="172.900391" xlink:href="#DejaVuSans-32"/>
       <use x="204.6875" xlink:href="#DejaVuSans-50"/>
       <use x="268.310547" xlink:href="#DejaVuSans-48"/>
       <use x="331.933594" xlink:href="#DejaVuSans-49"/>
       <use x="395.556641" xlink:href="#DejaVuSans-56"/>
      </g>
     </g>
    </g>
    <g id="xtick_3">
     <g id="line2d_3">
      <g>
       <use style="stroke:#000000;stroke-width:0.8;" x="218.568421" xlink:href="#md8b9f843ae" y="172.8"/>
      </g>
     </g>
     <g id="text_3">
      <!-- Jan 2019 -->
      <g transform="translate(196.546546 187.398438)scale(0.1 -0.1)">
       <defs>
        <path d="M 34.28125 27.484375 
Q 23.390625 27.484375 19.1875 25 
Q 14.984375 22.515625 14.984375 16.5 
Q 14.984375 11.71875 18.140625 8.90625 
Q 21.296875 6.109375 26.703125 6.109375 
Q 34.1875 6.109375 38.703125 11.40625 
Q 43.21875 16.703125 43.21875 25.484375 
L 43.21875 27.484375 
z
M 52.203125 31.203125 
L 52.203125 0 
L 43.21875 0 
L 43.21875 8.296875 
Q 40.140625 3.328125 35.546875 0.953125 
Q 30.953125 -1.421875 24.3125 -1.421875 
Q 15.921875 -1.421875 10.953125 3.296875 
Q 6 8.015625 6 15.921875 
Q 6 25.140625 12.171875 29.828125 
Q 18.359375 34.515625 30.609375 34.515625 
L 43.21875 34.515625 
L 43.21875 35.40625 
Q 43.21875 41.609375 39.140625 45 
Q 35.0625 48.390625 27.6875 48.390625 
Q 23 48.390625 18.546875 47.265625 
Q 14.109375 46.140625 10.015625 43.890625 
L 10.015625 52.203125 
Q 14.9375 54.109375 19.578125 55.046875 
Q 24.21875 56 28.609375 56 
Q 40.484375 56 46.34375 49.84375 
Q 52.203125 43.703125 52.203125 31.203125 
z
" id="DejaVuSans-97"/>
        <path d="M 54.890625 33.015625 
L 54.890625 0 
L 45.90625 0 
L 45.90625 32.71875 
Q 45.90625 40.484375 42.875 44.328125 
Q 39.84375 48.1875 33.796875 48.1875 
Q 26.515625 48.1875 22.3125 43.546875 
Q 18.109375 38.921875 18.109375 30.90625 
L 18.109375 0 
L 9.078125 0 
L 9.078125 54.6875 
L 18.109375 54.6875 
L 18.109375 46.1875 
Q 21.34375 51.125 25.703125 53.5625 
Q 30.078125 56 35.796875 56 
Q 45.21875 56 50.046875 50.171875 
Q 54.890625 44.34375 54.890625 33.015625 
z
" id="DejaVuSans-110"/>
        <path d="M 10.984375 1.515625 
L 10.984375 10.5 
Q 14.703125 8.734375 18.5 7.8125 
Q 22.3125 6.890625 25.984375 6.890625 
Q 35.75 6.890625 40.890625 13.453125 
Q 46.046875 20.015625 46.78125 33.40625 
Q 43.953125 29.203125 39.59375 26.953125 
Q 35.25 24.703125 29.984375 24.703125 
Q 19.046875 24.703125 12.671875 31.3125 
Q 6.296875 37.9375 6.296875 49.421875 
Q 6.296875 60.640625 12.9375 67.421875 
Q 19.578125 74.21875 30.609375 74.21875 
Q 43.265625 74.21875 49.921875 64.515625 
Q 56.59375 54.828125 56.59375 36.375 
Q 56.59375 19.140625 48.40625 8.859375 
Q 40.234375 -1.421875 26.421875 -1.421875 
Q 22.703125 -1.421875 18.890625 -0.6875 
Q 15.09375 0.046875 10.984375 1.515625 
z
M 30.609375 32.421875 
Q 37.25 32.421875 41.125 36.953125 
Q 45.015625 41.5 45.015625 49.421875 
Q 45.015625 57.28125 41.125 61.84375 
Q 37.25 66.40625 30.609375 66.40625 
Q 23.96875 66.40625 20.09375 61.84375 
Q 16.21875 57.28125 16.21875 49.421875 
Q 16.21875 41.5 20.09375 36.953125 
Q 23.96875 32.421875 30.609375 32.421875 
z
" id="DejaVuSans-57"/>
       </defs>
       <use xlink:href="#DejaVuSans-74"/>
       <use x="29.492188" xlink:href="#DejaVuSans-97"/>
       <use x="90.771484" xlink:href="#DejaVuSans-110"/>
       <use x="154.150391" xlink:href="#DejaVuSans-32"/>
       <use x="185.9375" xlink:href="#DejaVuSans-50"/>
       <use x="249.560547" xlink:href="#DejaVuSans-48"/>
       <use x="313.183594" xlink:href="#DejaVuSans-49"/>
       <use x="376.806641" xlink:href="#DejaVuSans-57"/>
      </g>
     </g>
    </g>
    <g id="xtick_4">
     <g id="line2d_4">
      <g>
       <use style="stroke:#000000;stroke-width:0.8;" x="277.305263" xlink:href="#md8b9f843ae" y="172.8"/>
      </g>
     </g>
     <g id="text_4">
      <!-- Apr 2019 -->
      <g transform="translate(254.341201 187.398438)scale(0.1 -0.1)">
       <defs>
        <path d="M 34.1875 63.1875 
L 20.796875 26.90625 
L 47.609375 26.90625 
z
M 28.609375 72.90625 
L 39.796875 72.90625 
L 67.578125 0 
L 57.328125 0 
L 50.6875 18.703125 
L 17.828125 18.703125 
L 11.1875 0 
L 0.78125 0 
z
" id="DejaVuSans-65"/>
        <path d="M 18.109375 8.203125 
L 18.109375 -20.796875 
L 9.078125 -20.796875 
L 9.078125 54.6875 
L 18.109375 54.6875 
L 18.109375 46.390625 
Q 20.953125 51.265625 25.265625 53.625 
Q 29.59375 56 35.59375 56 
Q 45.5625 56 51.78125 48.09375 
Q 58.015625 40.1875 58.015625 27.296875 
Q 58.015625 14.40625 51.78125 6.484375 
Q 45.5625 -1.421875 35.59375 -1.421875 
Q 29.59375 -1.421875 25.265625 0.953125 
Q 20.953125 3.328125 18.109375 8.203125 
z
M 48.6875 27.296875 
Q 48.6875 37.203125 44.609375 42.84375 
Q 40.53125 48.484375 33.40625 48.484375 
Q 26.265625 48.484375 22.1875 42.84375 
Q 18.109375 37.203125 18.109375 27.296875 
Q 18.109375 17.390625 22.1875 11.75 
Q 26.265625 6.109375 33.40625 6.109375 
Q 40.53125 6.109375 44.609375 11.75 
Q 48.6875 17.390625 48.6875 27.296875 
z
" id="DejaVuSans-112"/>
        <path d="M 41.109375 46.296875 
Q 39.59375 47.171875 37.8125 47.578125 
Q 36.03125 48 33.890625 48 
Q 26.265625 48 22.1875 43.046875 
Q 18.109375 38.09375 18.109375 28.8125 
L 18.109375 0 
L 9.078125 0 
L 9.078125 54.6875 
L 18.109375 54.6875 
L 18.109375 46.1875 
Q 20.953125 51.171875 25.484375 53.578125 
Q 30.03125 56 36.53125 56 
Q 37.453125 56 38.578125 55.875 
Q 39.703125 55.765625 41.0625 55.515625 
z
" id="DejaVuSans-114"/>
       </defs>
       <use xlink:href="#DejaVuSans-65"/>
       <use x="68.408203" xlink:href="#DejaVuSans-112"/>
       <use x="131.884766" xlink:href="#DejaVuSans-114"/>
       <use x="172.998047" xlink:href="#DejaVuSans-32"/>
       <use x="204.785156" xlink:href="#DejaVuSans-50"/>
       <use x="268.408203" xlink:href="#DejaVuSans-48"/>
       <use x="332.03125" xlink:href="#DejaVuSans-49"/>
       <use x="395.654297" xlink:href="#DejaVuSans-57"/>
      </g>
     </g>
    </g>
    <g id="xtick_5">
     <g id="line2d_5">
      <g>
       <use style="stroke:#000000;stroke-width:0.8;" x="336.694737" xlink:href="#md8b9f843ae" y="172.8"/>
      </g>
     </g>
     <g id="text_5">
      <!-- Jul 2019 -->
      <g transform="translate(316.347862 187.398438)scale(0.1 -0.1)">
       <use xlink:href="#DejaVuSans-74"/>
       <use x="29.492188" xlink:href="#DejaVuSans-117"/>
       <use x="92.871094" xlink:href="#DejaVuSans-108"/>
       <use x="120.654297" xlink:href="#DejaVuSans-32"/>
       <use x="152.441406" xlink:href="#DejaVuSans-50"/>
       <use x="216.064453" xlink:href="#DejaVuSans-48"/>
       <use x="279.6875" xlink:href="#DejaVuSans-49"/>
       <use x="343.310547" xlink:href="#DejaVuSans-57"/>
      </g>
     </g>
    </g>
    <g id="xtick_6">
     <g id="line2d_6">
      <g>
       <use style="stroke:#000000;stroke-width:0.8;" x="396.736842" xlink:href="#md8b9f843ae" y="172.8"/>
      </g>
     </g>
     <g id="text_6">
      <!-- Oct 2019 -->
      <g transform="translate(373.777467 187.398438)scale(0.1 -0.1)">
       <use xlink:href="#DejaVuSans-79"/>
       <use x="78.710938" xlink:href="#DejaVuSans-99"/>
       <use x="133.691406" xlink:href="#DejaVuSans-116"/>
       <use x="172.900391" xlink:href="#DejaVuSans-32"/>
       <use x="204.6875" xlink:href="#DejaVuSans-50"/>
       <use x="268.310547" xlink:href="#DejaVuSans-48"/>
       <use x="331.933594" xlink:href="#DejaVuSans-49"/>
       <use x="395.556641" xlink:href="#DejaVuSans-57"/>
      </g>
     </g>
    </g>
    <g id="xtick_7">
     <g id="line2d_7">
      <g>
       <use style="stroke:#000000;stroke-width:0.8;" x="456.778947" xlink:href="#md8b9f843ae" y="172.8"/>
      </g>
     </g>
     <g id="text_7">
      <!-- Jan 2020 -->
      <g transform="translate(434.757072 187.398438)scale(0.1 -0.1)">
       <use xlink:href="#DejaVuSans-74"/>
       <use x="29.492188" xlink:href="#DejaVuSans-97"/>
       <use x="90.771484" xlink:href="#DejaVuSans-110"/>
       <use x="154.150391" xlink:href="#DejaVuSans-32"/>
       <use x="185.9375" xlink:href="#DejaVuSans-50"/>
       <use x="249.560547" xlink:href="#DejaVuSans-48"/>
       <use x="313.183594" xlink:href="#DejaVuSans-50"/>
       <use x="376.806641" xlink:href="#DejaVuSans-48"/>
      </g>
     </g>
    </g>
    <g id="xtick_8">
     <g id="line2d_8">
      <g>
       <use style="stroke:#000000;stroke-width:0.8;" x="516.168421" xlink:href="#md8b9f843ae" y="172.8"/>
      </g>
     </g>
     <g id="text_8">
      <!-- Apr 2020 -->
      <g transform="translate(493.204359 187.398438)scale(0.1 -0.1)">
       <use xlink:href="#DejaVuSans-65"/>
       <use x="68.408203" xlink:href="#DejaVuSans-112"/>
       <use x="131.884766" xlink:href="#DejaVuSans-114"/>
       <use x="172.998047" xlink:href="#DejaVuSans-32"/>
       <use x="204.785156" xlink:href="#DejaVuSans-50"/>
       <use x="268.408203" xlink:href="#DejaVuSans-48"/>
       <use x="332.03125" xlink:href="#DejaVuSans-50"/>
       <use x="395.654297" xlink:href="#DejaVuSans-48"/>
      </g>
     </g>
    </g>
    <g id="xtick_9">
     <g id="line2d_9">
      <g>
       <use style="stroke:#000000;stroke-width:0.8;" x="575.557895" xlink:href="#md8b9f843ae" y="172.8"/>
      </g>
     </g>
     <g id="text_9">
      <!-- Jul 2020 -->
      <g transform="translate(555.21102 187.398438)scale(0.1 -0.1)">
       <use xlink:href="#DejaVuSans-74"/>
       <use x="29.492188" xlink:href="#DejaVuSans-117"/>
       <use x="92.871094" xlink:href="#DejaVuSans-108"/>
       <use x="120.654297" xlink:href="#DejaVuSans-32"/>
       <use x="152.441406" xlink:href="#DejaVuSans-50"/>
       <use x="216.064453" xlink:href="#DejaVuSans-48"/>
       <use x="279.6875" xlink:href="#DejaVuSans-50"/>
       <use x="343.310547" xlink:href="#DejaVuSans-48"/>
      </g>
     </g>
    </g>
    <g id="xtick_10">
     <g id="line2d_10">
      <g>
       <use style="stroke:#000000;stroke-width:0.8;" x="635.6" xlink:href="#md8b9f843ae" y="172.8"/>
      </g>
     </g>
     <g id="text_10">
      <!-- Oct 2020 -->
      <g transform="translate(612.640625 187.398438)scale(0.1 -0.1)">
       <use xlink:href="#DejaVuSans-79"/>
       <use x="78.710938" xlink:href="#DejaVuSans-99"/>
       <use x="133.691406" xlink:href="#DejaVuSans-116"/>
       <use x="172.900391" xlink:href="#DejaVuSans-32"/>
       <use x="204.6875" xlink:href="#DejaVuSans-50"/>
       <use x="268.310547" xlink:href="#DejaVuSans-48"/>
       <use x="331.933594" xlink:href="#DejaVuSans-50"/>
       <use x="395.556641" xlink:href="#DejaVuSans-48"/>
      </g>
     </g>
    </g>
   </g>
   <g id="matplotlib.axis_2">
    <g id="ytick_1">
     <g id="line2d_11">
      <defs>
       <path d="M 0 0 
L -3.5 0 
" id="m17d77ba80c" style="stroke:#000000;stroke-width:0.8;"/>
      </defs>
      <g>
       <use style="stroke:#000000;stroke-width:0.8;" x="90" xlink:href="#m17d77ba80c" y="172.8"/>
      </g>
     </g>
     <g id="text_11">
      <!-- $\mathdefault{10^{0}}$ -->
      <g transform="translate(65.4 176.599219)scale(0.1 -0.1)">
       <use transform="translate(0 0.765625)" xlink:href="#DejaVuSans-49"/>
       <use transform="translate(63.623047 0.765625)" xlink:href="#DejaVuSans-48"/>
       <use transform="translate(128.203125 39.046875)scale(0.7)" xlink:href="#DejaVuSans-48"/>
      </g>
     </g>
    </g>
    <g id="ytick_2">
     <g id="line2d_12">
      <g>
       <use style="stroke:#000000;stroke-width:0.8;" x="90" xlink:href="#m17d77ba80c" y="123.84"/>
      </g>
     </g>
     <g id="text_12">
      <!-- $\mathdefault{10^{1}}$ -->
      <g transform="translate(65.4 127.639219)scale(0.1 -0.1)">
       <use transform="translate(0 0.684375)" xlink:href="#DejaVuSans-49"/>
       <use transform="translate(63.623047 0.684375)" xlink:href="#DejaVuSans-48"/>
       <use transform="translate(128.203125 38.965625)scale(0.7)" xlink:href="#DejaVuSans-49"/>
      </g>
     </g>
    </g>
    <g id="ytick_3">
     <g id="line2d_13">
      <g>
       <use style="stroke:#000000;stroke-width:0.8;" x="90" xlink:href="#m17d77ba80c" y="74.88"/>
      </g>
     </g>
     <g id="text_13">
      <!-- $\mathdefault{10^{2}}$ -->
      <g transform="translate(65.4 78.679219)scale(0.1 -0.1)">
       <use transform="translate(0 0.765625)" xlink:href="#DejaVuSans-49"/>
       <use transform="translate(63.623047 0.765625)" xlink:href="#DejaVuSans-48"/>
       <use transform="translate(128.203125 39.046875)scale(0.7)" xlink:href="#DejaVuSans-50"/>
      </g>
     </g>
    </g>
    <g id="ytick_4">
     <g id="line2d_14">
      <g>
       <use style="stroke:#000000;stroke-width:0.8;" x="90" xlink:href="#m17d77ba80c" y="25.92"/>
      </g>
     </g>
     <g id="text_14">
      <!-- $\mathdefault{10^{3}}$ -->
      <g transform="translate(65.4 29.719219)scale(0.1 -0.1)">
       <defs>
        <path d="M 40.578125 39.3125 
Q 47.65625 37.796875 51.625 33 
Q 55.609375 28.21875 55.609375 21.1875 
Q 55.609375 10.40625 48.1875 4.484375 
Q 40.765625 -1.421875 27.09375 -1.421875 
Q 22.515625 -1.421875 17.65625 -0.515625 
Q 12.796875 0.390625 7.625 2.203125 
L 7.625 11.71875 
Q 11.71875 9.328125 16.59375 8.109375 
Q 21.484375 6.890625 26.8125 6.890625 
Q 36.078125 6.890625 40.9375 10.546875 
Q 45.796875 14.203125 45.796875 21.1875 
Q 45.796875 27.640625 41.28125 31.265625 
Q 36.765625 34.90625 28.71875 34.90625 
L 20.21875 34.90625 
L 20.21875 43.015625 
L 29.109375 43.015625 
Q 36.375 43.015625 40.234375 45.921875 
Q 44.09375 48.828125 44.09375 54.296875 
Q 44.09375 59.90625 40.109375 62.90625 
Q 36.140625 65.921875 28.71875 65.921875 
Q 24.65625 65.921875 20.015625 65.03125 
Q 15.375 64.15625 9.8125 62.3125 
L 9.8125 71.09375 
Q 15.4375 72.65625 20.34375 73.4375 
Q 25.25 74.21875 29.59375 74.21875 
Q 40.828125 74.21875 47.359375 69.109375 
Q 53.90625 64.015625 53.90625 55.328125 
Q 53.90625 49.265625 50.4375 45.09375 
Q 46.96875 40.921875 40.578125 39.3125 
z
" id="DejaVuSans-51"/>
       </defs>
       <use transform="translate(0 0.765625)" xlink:href="#DejaVuSans-49"/>
       <use transform="translate(63.623047 0.765625)" xlink:href="#DejaVuSans-48"/>
       <use transform="translate(128.203125 39.046875)scale(0.7)" xlink:href="#DejaVuSans-51"/>
      </g>
     </g>
    </g>
    <g id="ytick_5">
     <g id="line2d_15">
      <defs>
       <path d="M 0 0 
L -2 0 
" id="m90c58a74e6" style="stroke:#000000;stroke-width:0.6;"/>
      </defs>
      <g>
       <use style="stroke:#000000;stroke-width:0.6;" x="90" xlink:href="#m90c58a74e6" y="158.061571"/>
      </g>
     </g>
    </g>
    <g id="ytick_6">
     <g id="line2d_16">
      <g>
       <use style="stroke:#000000;stroke-width:0.6;" x="90" xlink:href="#m90c58a74e6" y="149.440143"/>
      </g>
     </g>
    </g>
    <g id="ytick_7">
     <g id="line2d_17">
      <g>
       <use style="stroke:#000000;stroke-width:0.6;" x="90" xlink:href="#m90c58a74e6" y="143.323143"/>
      </g>
     </g>
    </g>
    <g id="ytick_8">
     <g id="line2d_18">
      <g>
       <use style="stroke:#000000;stroke-width:0.6;" x="90" xlink:href="#m90c58a74e6" y="138.578429"/>
      </g>
     </g>
    </g>
    <g id="ytick_9">
     <g id="line2d_19">
      <g>
       <use style="stroke:#000000;stroke-width:0.6;" x="90" xlink:href="#m90c58a74e6" y="134.701715"/>
      </g>
     </g>
    </g>
    <g id="ytick_10">
     <g id="line2d_20">
      <g>
       <use style="stroke:#000000;stroke-width:0.6;" x="90" xlink:href="#m90c58a74e6" y="131.424"/>
      </g>
     </g>
    </g>
    <g id="ytick_11">
     <g id="line2d_21">
      <g>
       <use style="stroke:#000000;stroke-width:0.6;" x="90" xlink:href="#m90c58a74e6" y="128.584714"/>
      </g>
     </g>
    </g>
    <g id="ytick_12">
     <g id="line2d_22">
      <g>
       <use style="stroke:#000000;stroke-width:0.6;" x="90" xlink:href="#m90c58a74e6" y="126.080287"/>
      </g>
     </g>
    </g>
    <g id="ytick_13">
     <g id="line2d_23">
      <g>
       <use style="stroke:#000000;stroke-width:0.6;" x="90" xlink:href="#m90c58a74e6" y="109.101571"/>
      </g>
     </g>
    </g>
    <g id="ytick_14">
     <g id="line2d_24">
      <g>
       <use style="stroke:#000000;stroke-width:0.6;" x="90" xlink:href="#m90c58a74e6" y="100.480143"/>
      </g>
     </g>
    </g>
    <g id="ytick_15">
     <g id="line2d_25">
      <g>
       <use style="stroke:#000000;stroke-width:0.6;" x="90" xlink:href="#m90c58a74e6" y="94.363143"/>
      </g>
     </g>
    </g>
    <g id="ytick_16">
     <g id="line2d_26">
      <g>
       <use style="stroke:#000000;stroke-width:0.6;" x="90" xlink:href="#m90c58a74e6" y="89.618429"/>
      </g>
     </g>
    </g>
    <g id="ytick_17">
     <g id="line2d_27">
      <g>
       <use style="stroke:#000000;stroke-width:0.6;" x="90" xlink:href="#m90c58a74e6" y="85.741715"/>
      </g>
     </g>
    </g>
    <g id="ytick_18">
     <g id="line2d_28">
      <g>
       <use style="stroke:#000000;stroke-width:0.6;" x="90" xlink:href="#m90c58a74e6" y="82.464"/>
      </g>
     </g>
    </g>
    <g id="ytick_19">
     <g id="line2d_29">
      <g>
       <use style="stroke:#000000;stroke-width:0.6;" x="90" xlink:href="#m90c58a74e6" y="79.624714"/>
      </g>
     </g>
    </g>
    <g id="ytick_20">
     <g id="line2d_30">
      <g>
       <use style="stroke:#000000;stroke-width:0.6;" x="90" xlink:href="#m90c58a74e6" y="77.120287"/>
      </g>
     </g>
    </g>
    <g id="ytick_21">
     <g id="line2d_31">
      <g>
       <use style="stroke:#000000;stroke-width:0.6;" x="90" xlink:href="#m90c58a74e6" y="60.141571"/>
      </g>
     </g>
    </g>
    <g id="ytick_22">
     <g id="line2d_32">
      <g>
       <use style="stroke:#000000;stroke-width:0.6;" x="90" xlink:href="#m90c58a74e6" y="51.520143"/>
      </g>
     </g>
    </g>
    <g id="ytick_23">
     <g id="line2d_33">
      <g>
       <use style="stroke:#000000;stroke-width:0.6;" x="90" xlink:href="#m90c58a74e6" y="45.403143"/>
      </g>
     </g>
    </g>
    <g id="ytick_24">
     <g id="line2d_34">
      <g>
       <use style="stroke:#000000;stroke-width:0.6;" x="90" xlink:href="#m90c58a74e6" y="40.658429"/>
      </g>
     </g>
    </g>
    <g id="ytick_25">
     <g id="line2d_35">
      <g>
       <use style="stroke:#000000;stroke-width:0.6;" x="90" xlink:href="#m90c58a74e6" y="36.781715"/>
      </g>
     </g>
    </g>
    <g id="ytick_26">
     <g id="line2d_36">
      <g>
       <use style="stroke:#000000;stroke-width:0.6;" x="90" xlink:href="#m90c58a74e6" y="33.504"/>
      </g>
     </g>
    </g>
    <g id="ytick_27">
     <g id="line2d_37">
      <g>
       <use style="stroke:#000000;stroke-width:0.6;" x="90" xlink:href="#m90c58a74e6" y="30.664714"/>
      </g>
     </g>
    </g>
    <g id="ytick_28">
     <g id="line2d_38">
      <g>
       <use style="stroke:#000000;stroke-width:0.6;" x="90" xlink:href="#m90c58a74e6" y="28.160287"/>
      </g>
     </g>
    </g>
    <g id="text_15">
     <!-- number of imports -->
     <g transform="translate(59.320312 145.985)rotate(-90)scale(0.1 -0.1)">
      <defs>
       <path d="M 52 44.1875 
Q 55.375 50.25 60.0625 53.125 
Q 64.75 56 71.09375 56 
Q 79.640625 56 84.28125 50.015625 
Q 88.921875 44.046875 88.921875 33.015625 
L 88.921875 0 
L 79.890625 0 
L 79.890625 32.71875 
Q 79.890625 40.578125 77.09375 44.375 
Q 74.3125 48.1875 68.609375 48.1875 
Q 61.625 48.1875 57.5625 43.546875 
Q 53.515625 38.921875 53.515625 30.90625 
L 53.515625 0 
L 44.484375 0 
L 44.484375 32.71875 
Q 44.484375 40.625 41.703125 44.40625 
Q 38.921875 48.1875 33.109375 48.1875 
Q 26.21875 48.1875 22.15625 43.53125 
Q 18.109375 38.875 18.109375 30.90625 
L 18.109375 0 
L 9.078125 0 
L 9.078125 54.6875 
L 18.109375 54.6875 
L 18.109375 46.1875 
Q 21.1875 51.21875 25.484375 53.609375 
Q 29.78125 56 35.6875 56 
Q 41.65625 56 45.828125 52.96875 
Q 50 49.953125 52 44.1875 
z
" id="DejaVuSans-109"/>
       <path d="M 48.6875 27.296875 
Q 48.6875 37.203125 44.609375 42.84375 
Q 40.53125 48.484375 33.40625 48.484375 
Q 26.265625 48.484375 22.1875 42.84375 
Q 18.109375 37.203125 18.109375 27.296875 
Q 18.109375 17.390625 22.1875 11.75 
Q 26.265625 6.109375 33.40625 6.109375 
Q 40.53125 6.109375 44.609375 11.75 
Q 48.6875 17.390625 48.6875 27.296875 
z
M 18.109375 46.390625 
Q 20.953125 51.265625 25.265625 53.625 
Q 29.59375 56 35.59375 56 
Q 45.5625 56 51.78125 48.09375 
Q 58.015625 40.1875 58.015625 27.296875 
Q 58.015625 14.40625 51.78125 6.484375 
Q 45.5625 -1.421875 35.59375 -1.421875 
Q 29.59375 -1.421875 25.265625 0.953125 
Q 20.953125 3.328125 18.109375 8.203125 
L 18.109375 0 
L 9.078125 0 
L 9.078125 75.984375 
L 18.109375 75.984375 
z
" id="DejaVuSans-98"/>
       <path d="M 56.203125 29.59375 
L 56.203125 25.203125 
L 14.890625 25.203125 
Q 15.484375 15.921875 20.484375 11.0625 
Q 25.484375 6.203125 34.421875 6.203125 
Q 39.59375 6.203125 44.453125 7.46875 
Q 49.3125 8.734375 54.109375 11.28125 
L 54.109375 2.78125 
Q 49.265625 0.734375 44.1875 -0.34375 
Q 39.109375 -1.421875 33.890625 -1.421875 
Q 20.796875 -1.421875 13.15625 6.1875 
Q 5.515625 13.8125 5.515625 26.8125 
Q 5.515625 40.234375 12.765625 48.109375 
Q 20.015625 56 32.328125 56 
Q 43.359375 56 49.78125 48.890625 
Q 56.203125 41.796875 56.203125 29.59375 
z
M 47.21875 32.234375 
Q 47.125 39.59375 43.09375 43.984375 
Q 39.0625 48.390625 32.421875 48.390625 
Q 24.90625 48.390625 20.390625 44.140625 
Q 15.875 39.890625 15.1875 32.171875 
z
" id="DejaVuSans-101"/>
       <path d="M 30.609375 48.390625 
Q 23.390625 48.390625 19.1875 42.75 
Q 14.984375 37.109375 14.984375 27.296875 
Q 14.984375 17.484375 19.15625 11.84375 
Q 23.34375 6.203125 30.609375 6.203125 
Q 37.796875 6.203125 41.984375 11.859375 
Q 46.1875 17.53125 46.1875 27.296875 
Q 46.1875 37.015625 41.984375 42.703125 
Q 37.796875 48.390625 30.609375 48.390625 
z
M 30.609375 56 
Q 42.328125 56 49.015625 48.375 
Q 55.71875 40.765625 55.71875 27.296875 
Q 55.71875 13.875 49.015625 6.21875 
Q 42.328125 -1.421875 30.609375 -1.421875 
Q 18.84375 -1.421875 12.171875 6.21875 
Q 5.515625 13.875 5.515625 27.296875 
Q 5.515625 40.765625 12.171875 48.375 
Q 18.84375 56 30.609375 56 
z
" id="DejaVuSans-111"/>
       <path d="M 37.109375 75.984375 
L 37.109375 68.5 
L 28.515625 68.5 
Q 23.6875 68.5 21.796875 66.546875 
Q 19.921875 64.59375 19.921875 59.515625 
L 19.921875 54.6875 
L 34.71875 54.6875 
L 34.71875 47.703125 
L 19.921875 47.703125 
L 19.921875 0 
L 10.890625 0 
L 10.890625 47.703125 
L 2.296875 47.703125 
L 2.296875 54.6875 
L 10.890625 54.6875 
L 10.890625 58.5 
Q 10.890625 67.625 15.140625 71.796875 
Q 19.390625 75.984375 28.609375 75.984375 
z
" id="DejaVuSans-102"/>
       <path d="M 9.421875 54.6875 
L 18.40625 54.6875 
L 18.40625 0 
L 9.421875 0 
z
M 9.421875 75.984375 
L 18.40625 75.984375 
L 18.40625 64.59375 
L 9.421875 64.59375 
z
" id="DejaVuSans-105"/>
       <path d="M 44.28125 53.078125 
L 44.28125 44.578125 
Q 40.484375 46.53125 36.375 47.5 
Q 32.28125 48.484375 27.875 48.484375 
Q 21.1875 48.484375 17.84375 46.4375 
Q 14.5 44.390625 14.5 40.28125 
Q 14.5 37.15625 16.890625 35.375 
Q 19.28125 33.59375 26.515625 31.984375 
L 29.59375 31.296875 
Q 39.15625 29.25 43.1875 25.515625 
Q 47.21875 21.78125 47.21875 15.09375 
Q 47.21875 7.46875 41.1875 3.015625 
Q 35.15625 -1.421875 24.609375 -1.421875 
Q 20.21875 -1.421875 15.453125 -0.5625 
Q 10.6875 0.296875 5.421875 2 
L 5.421875 11.28125 
Q 10.40625 8.6875 15.234375 7.390625 
Q 20.0625 6.109375 24.8125 6.109375 
Q 31.15625 6.109375 34.5625 8.28125 
Q 37.984375 10.453125 37.984375 14.40625 
Q 37.984375 18.0625 35.515625 20.015625 
Q 33.0625 21.96875 24.703125 23.78125 
L 21.578125 24.515625 
Q 13.234375 26.265625 9.515625 29.90625 
Q 5.8125 33.546875 5.8125 39.890625 
Q 5.8125 47.609375 11.28125 51.796875 
Q 16.75 56 26.8125 56 
Q 31.78125 56 36.171875 55.265625 
Q 40.578125 54.546875 44.28125 53.078125 
z
" id="DejaVuSans-115"/>
      </defs>
      <use xlink:href="#DejaVuSans-110"/>
      <use x="63.378906" xlink:href="#DejaVuSans-117"/>
      <use x="126.757812" xlink:href="#DejaVuSans-109"/>
      <use x="224.169922" xlink:href="#DejaVuSans-98"/>
      <use x="287.646484" xlink:href="#DejaVuSans-101"/>
      <use x="349.169922" xlink:href="#DejaVuSans-114"/>
      <use x="390.283203" xlink:href="#DejaVuSans-32"/>
      <use x="422.070312" xlink:href="#DejaVuSans-111"/>
      <use x="483.251953" xlink:href="#DejaVuSans-102"/>
      <use x="518.457031" xlink:href="#DejaVuSans-32"/>
      <use x="550.244141" xlink:href="#DejaVuSans-105"/>
      <use x="578.027344" xlink:href="#DejaVuSans-109"/>
      <use x="675.439453" xlink:href="#DejaVuSans-112"/>
      <use x="738.916016" xlink:href="#DejaVuSans-111"/>
      <use x="800.097656" xlink:href="#DejaVuSans-114"/>
      <use x="841.210938" xlink:href="#DejaVuSans-116"/>
      <use x="880.419922" xlink:href="#DejaVuSans-115"/>
     </g>
    </g>
   </g>
   <g id="line2d_39">
    <path clip-path="url(#p370450e46d)" d="M 156.166866 217 
L 156.514579 172.8 
L 191.788054 158.061571 
L 191.788054 149.440143 
L 197.027024 143.323143 
L 198.19099 138.578429 
L 204.669748 134.701715 
L 204.669748 115.218572 
L 212.635003 113.846286 
L 212.635003 101.947143 
L 236.614432 101.200994 
L 242.551468 99.782931 
L 242.551468 94.901477 
L 243.915672 93.838102 
L 244.314117 93.325715 
L 244.314117 92.825384 
L 246.16111 92.336557 
L 246.425486 91.858715 
L 246.425486 91.391377 
L 250.35062 90.934089 
L 255.638854 90.486429 
L 255.638854 90.048 
L 258.128236 89.618429 
L 261.384021 89.197364 
L 261.600644 88.784476 
L 263.57996 88.379453 
L 266.607589 87.982002 
L 272.905552 87.591843 
L 272.905552 87.208714 
L 275.878372 86.832367 
L 280.86138 86.462565 
L 280.980652 86.099086 
L 281.477369 85.741715 
L 283.10283 85.390251 
L 283.110413 84.369428 
L 285.699805 83.715129 
L 285.713212 83.080364 
L 286.179089 82.769949 
L 286.179089 82.162391 
L 288.097433 81.865001 
L 288.903516 81.571713 
L 288.903516 81.282415 
L 289.041067 80.997001 
L 291.009952 80.715367 
L 291.017959 79.892178 
L 294.686194 79.624714 
L 294.686194 79.360573 
L 303.99118 79.099674 
L 303.99118 78.086956 
L 306.298708 77.841137 
L 306.298708 77.598128 
L 318.964338 77.357865 
L 318.964338 77.120287 
L 319.60539 76.885333 
L 320.85311 76.652948 
L 320.85311 76.423075 
L 323.444903 76.19566 
L 323.444903 75.970652 
L 324.200022 75.748 
L 324.200022 75.527656 
L 324.853507 75.309571 
L 324.853507 75.093701 
L 326.083529 74.668426 
L 326.216525 73.641025 
L 334.372245 73.44137 
L 334.372245 72.853414 
L 339.891234 72.660987 
L 339.891234 72.470286 
L 343.771635 72.281279 
L 343.771635 72.093938 
L 344.41984 71.908234 
L 344.41984 71.360657 
L 357.342444 71.181221 
L 358.308376 71.003286 
L 363.274397 70.826828 
L 363.373304 69.138397 
L 365.66497 68.9767 
L 365.936899 68.816224 
L 372.271754 68.186161 
L 373.872552 68.03152 
L 373.872552 67.877995 
L 374.358672 67.725571 
L 374.358672 66.543986 
L 375.911973 66.258572 
L 376.997562 66.117289 
L 376.997562 65.837508 
L 377.204629 65.698986 
L 379.081534 65.56136 
L 379.081534 65.019597 
L 379.610113 64.886286 
L 379.610113 64.753805 
L 383.509382 64.622145 
L 383.577199 64.361245 
L 385.43457 64.231986 
L 385.43457 64.103508 
L 396.53084 63.975802 
L 396.53084 63.722667 
L 402.676575 63.348527 
L 402.676575 63.225263 
L 403.203341 63.102709 
L 403.203341 62.8597 
L 406.813678 62.739229 
L 406.813678 62.500316 
L 407.15436 62.264057 
L 407.15436 62.146905 
L 407.908709 62.030395 
L 411.031309 61.799272 
L 411.031309 61.684646 
L 415.537405 61.34443 
L 415.537405 60.679905 
L 416.034191 60.462934 
L 416.034191 60.141571 
L 417.639838 60.035521 
L 424.519686 59.824994 
L 424.71151 59.720507 
L 425.429253 59.513061 
L 425.429253 59.410092 
L 430.547146 58.902596 
L 430.547146 58.114986 
L 434.590622 57.922558 
L 434.653067 57.637144 
L 434.653067 57.262455 
L 436.40206 57.077557 
L 436.654705 56.985708 
L 438.48653 56.803192 
L 438.48653 56.712517 
L 439.046252 56.532321 
L 442.298714 56.264858 
L 442.298714 56.000717 
L 443.034413 55.826429 
L 443.034413 55.653557 
L 443.209385 55.48208 
L 443.209385 55.311975 
L 443.38839 55.143219 
L 451.519681 54.892571 
L 451.519681 54.157882 
L 452.186355 53.998009 
L 455.974239 53.839328 
L 456.661338 53.76043 
L 467.332808 53.525477 
L 470.398606 53.293091 
L 475.217293 52.911339 
L 476.299996 52.610796 
L 484.441847 52.388144 
L 497.660084 51.877514 
L 497.660084 51.662372 
L 517.253708 51.37886 
L 517.253708 51.308569 
L 521.962422 50.960557 
L 521.962422 50.891633 
L 529.398766 50.754451 
L 531.731252 50.482715 
L 539.845449 50.214408 
L 540.58642 50.081514 
L 540.58642 50.015377 
L 547.733529 49.883716 
L 547.852657 49.752866 
L 557.314372 49.429221 
L 557.314372 49.04724 
L 558.344933 48.796346 
L 558.344933 48.734082 
L 559.458297 48.425469 
L 561.681943 48.242429 
L 561.681943 48.181764 
L 562.971487 48.06095 
L 562.971487 48.0008 
L 563.664001 47.94082 
L 566.945348 47.761887 
L 567.052761 47.408476 
L 568.092401 47.350141 
L 571.420377 47.233949 
L 571.420377 47.176091 
L 571.868442 47.118389 
L 579.042736 46.832206 
L 579.042736 46.718803 
L 579.250226 46.606001 
L 584.698506 46.437913 
L 584.698506 46.382178 
L 585.816447 46.105671 
L 589.281453 45.724505 
L 589.281453 45.670606 
L 593.862541 45.297092 
L 593.931664 45.139002 
L 598.746038 44.671663 
L 598.746038 44.569191 
L 600.464514 44.416401 
L 600.464514 43.815993 
L 602.71255 43.668503 
L 602.752811 43.280126 
L 602.753831 43.232074 
L 604.285626 43.040944 
L 608.453412 42.851517 
L 609.270682 42.663762 
L 612.646162 42.477651 
L 612.646162 42.201503 
L 615.703 41.8838 
L 615.703 41.088 
L 619.662246 40.829217 
L 625.170789 40.658429 
L 625.170789 40.489001 
L 626.840423 40.320913 
L 629.59088 40.071246 
L 629.664278 39.988671 
L 631.091449 39.865406 
L 631.147648 39.66154 
L 631.577274 39.540152 
L 631.596506 39.419453 
L 634.819018 39.1009 
L 634.910514 39.022002 
L 637.014911 38.9042 
L 639.105734 38.748141 
L 640.464507 38.593218 
L 640.464507 38.554663 
L 640.619047 38.516178 
L 643.919376 38.210778 
L 643.919376 38.210778 
" style="fill:none;stroke:#1f77b4;stroke-linecap:square;stroke-width:1.5;"/>
   </g>
   <g id="line2d_40">
    <path clip-path="url(#p370450e46d)" d="M 467.97457 172.8 
L 467.97457 158.061571 
L 493.954141 149.440143 
L 520.428587 143.323143 
L 529.686846 138.578429 
L 531.731252 134.701715 
L 531.731252 131.424 
L 552.552216 128.584714 
L 559.619174 126.080287 
L 559.619174 121.813414 
L 560.937542 119.963286 
L 563.771112 118.261333 
L 563.771112 116.685571 
L 567.033552 115.218572 
L 598.217188 112.557221 
L 599.573762 111.341858 
L 599.57618 109.101571 
L 600.049179 108.064143 
L 600.049179 106.129805 
L 600.464514 105.224858 
L 602.80058 104.356857 
L 602.989934 103.522905 
L 602.989934 101.947143 
L 608.185908 101.200994 
L 608.185908 100.480143 
L 611.72963 99.782931 
L 613.396394 98.453558 
L 615.79739 97.818792 
L 615.832235 96.60343 
L 615.915506 96.020844 
L 623.569092 95.453795 
L 623.569092 91.858715 
L 625.170789 91.391377 
L 625.170789 90.486429 
L 625.740384 90.048 
L 626.068724 89.618429 
L 626.068724 87.982002 
L 626.489505 87.591843 
L 626.489505 83.715129 
L 626.70374 83.395378 
L 626.70374 81.282415 
L 626.830097 80.997001 
L 627.499475 80.437414 
L 629.357994 80.163048 
L 629.357994 79.892178 
L 629.664278 79.624714 
L 629.664278 79.360573 
L 630.054301 79.099674 
L 630.223683 78.841937 
L 630.767951 78.587286 
L 630.787892 77.357865 
L 631.246252 77.120287 
L 631.266458 76.885333 
L 631.70629 76.652948 
L 631.70629 76.423075 
L 634.636379 76.19566 
L 636.823367 75.527656 
L 636.823367 75.093701 
L 638.712577 74.668426 
L 639.422185 74.458936 
L 639.456864 74.251489 
L 639.919892 73.842572 
L 639.984899 72.853414 
L 640.426354 72.660987 
L 640.593221 72.281279 
L 641.228751 72.093938 
L 641.344638 71.908234 
L 642.572538 71.724137 
L 642.766144 71.54162 
L 642.766144 71.360657 
L 643.219345 71.181221 
L 643.219345 70.306074 
L 643.350944 69.965858 
L 643.442607 67.126572 
L 643.757374 66.833284 
L 643.828899 66.258572 
L 643.915969 66.117289 
L 643.915969 66.117289 
" style="fill:none;stroke:#ff7f0e;stroke-linecap:square;stroke-width:1.5;"/>
   </g>
   <g id="line2d_41">
    <path clip-path="url(#p370450e46d)" d="M 156.166866 217 
L 156.514579 172.8 
L 191.788054 158.061571 
L 191.788054 149.440143 
L 197.027024 143.323143 
L 198.19099 138.578429 
L 204.669748 134.701715 
L 204.669748 115.218572 
L 212.635003 113.846286 
L 212.635003 101.947143 
L 236.614432 101.200994 
L 242.551468 99.782931 
L 242.551468 94.901477 
L 243.915672 93.838102 
L 244.314117 93.325715 
L 244.314117 92.825384 
L 246.16111 92.336557 
L 246.425486 91.858715 
L 246.425486 91.391377 
L 250.35062 90.934089 
L 255.638854 90.486429 
L 255.638854 90.048 
L 258.128236 89.618429 
L 261.384021 89.197364 
L 261.600644 88.784476 
L 263.57996 88.379453 
L 266.607589 87.982002 
L 272.905552 87.591843 
L 272.905552 87.208714 
L 275.878372 86.832367 
L 280.86138 86.462565 
L 280.980652 86.099086 
L 281.477369 85.741715 
L 283.10283 85.390251 
L 283.110413 84.369428 
L 285.699805 83.715129 
L 285.713212 83.080364 
L 286.179089 82.769949 
L 286.179089 82.162391 
L 288.097433 81.865001 
L 288.903516 81.571713 
L 288.903516 81.282415 
L 289.041067 80.997001 
L 291.009952 80.715367 
L 291.017959 79.892178 
L 294.686194 79.624714 
L 294.686194 79.360573 
L 303.99118 79.099674 
L 303.99118 78.086956 
L 306.298708 77.841137 
L 306.298708 77.598128 
L 318.964338 77.357865 
L 318.964338 77.120287 
L 319.60539 76.885333 
L 320.85311 76.652948 
L 320.85311 76.423075 
L 323.444903 76.19566 
L 323.444903 75.970652 
L 324.200022 75.748 
L 324.200022 75.527656 
L 324.853507 75.309571 
L 324.853507 75.093701 
L 326.083529 74.668426 
L 326.216525 73.641025 
L 334.372245 73.44137 
L 334.372245 72.853414 
L 339.891234 72.660987 
L 339.891234 72.470286 
L 343.771635 72.281279 
L 343.771635 72.093938 
L 344.41984 71.908234 
L 344.41984 71.360657 
L 357.342444 71.181221 
L 358.308376 71.003286 
L 363.274397 70.826828 
L 363.373304 69.138397 
L 365.66497 68.9767 
L 365.936899 68.816224 
L 372.271754 68.186161 
L 373.872552 68.03152 
L 373.872552 67.877995 
L 374.358672 67.725571 
L 374.358672 66.543986 
L 375.911973 66.258572 
L 376.997562 66.117289 
L 376.997562 65.837508 
L 377.204629 65.698986 
L 379.081534 65.56136 
L 379.081534 65.019597 
L 379.610113 64.886286 
L 379.610113 64.753805 
L 383.509382 64.622145 
L 383.577199 64.361245 
L 385.43457 64.231986 
L 385.43457 64.103508 
L 396.53084 63.975802 
L 396.53084 63.722667 
L 402.676575 63.348527 
L 402.676575 63.225263 
L 403.203341 63.102709 
L 403.203341 62.8597 
L 406.813678 62.739229 
L 406.813678 62.500316 
L 407.15436 62.264057 
L 407.15436 62.146905 
L 407.908709 62.030395 
L 411.031309 61.799272 
L 411.031309 61.684646 
L 415.537405 61.34443 
L 415.537405 60.679905 
L 416.034191 60.462934 
L 416.034191 60.141571 
L 417.639838 60.035521 
L 424.519686 59.824994 
L 424.71151 59.720507 
L 425.429253 59.513061 
L 425.429253 59.410092 
L 430.547146 58.902596 
L 430.547146 58.114986 
L 434.590622 57.922558 
L 434.653067 57.637144 
L 434.653067 57.262455 
L 436.40206 57.077557 
L 436.654705 56.985708 
L 438.48653 56.803192 
L 438.48653 56.712517 
L 439.046252 56.532321 
L 442.298714 56.264858 
L 442.298714 56.000717 
L 443.034413 55.826429 
L 443.034413 55.653557 
L 443.209385 55.48208 
L 443.209385 55.311975 
L 443.38839 55.143219 
L 451.519681 54.892571 
L 451.519681 54.157882 
L 452.186355 53.998009 
L 455.974239 53.839328 
L 456.661338 53.76043 
L 467.332808 53.525477 
L 470.398606 53.293091 
L 475.217293 52.911339 
L 476.299996 52.610796 
L 484.441847 52.388144 
L 497.660084 51.877514 
L 497.660084 51.662372 
L 517.253708 51.37886 
L 517.253708 51.308569 
L 521.962422 50.960557 
L 521.962422 50.891633 
L 529.398766 50.754451 
L 531.731252 50.482715 
L 539.845449 50.214408 
L 540.58642 50.081514 
L 540.58642 50.015377 
L 547.733529 49.883716 
L 547.852657 49.752866 
L 557.314372 49.429221 
L 557.314372 49.04724 
L 558.344933 48.796346 
L 558.344933 48.734082 
L 559.458297 48.425469 
L 561.681943 48.242429 
L 561.681943 48.181764 
L 562.971487 48.06095 
L 562.971487 48.0008 
L 563.664001 47.94082 
L 566.945348 47.761887 
L 567.052761 47.408476 
L 568.092401 47.350141 
L 571.420377 47.233949 
L 571.420377 47.176091 
L 571.868442 47.118389 
L 579.042736 46.832206 
L 579.042736 46.718803 
L 579.250226 46.606001 
L 584.698506 46.437913 
L 584.698506 46.382178 
L 585.816447 46.105671 
L 589.281453 45.724505 
L 589.281453 45.670606 
L 593.862541 45.297092 
L 593.931664 45.139002 
L 598.746038 44.671663 
L 598.746038 44.569191 
L 600.464514 44.416401 
L 600.464514 43.815993 
L 602.71255 43.668503 
L 602.752811 43.280126 
L 602.753831 43.232074 
L 604.285626 43.040944 
L 608.453412 42.851517 
L 609.270682 42.663762 
L 612.646162 42.477651 
L 612.646162 42.201503 
L 615.703 41.8838 
L 615.703 41.088 
L 619.662246 40.829217 
L 625.170789 40.658429 
L 625.170789 40.489001 
L 626.840423 40.320913 
L 629.59088 40.071246 
L 629.664278 39.988671 
L 631.091449 39.865406 
L 631.147648 39.66154 
L 631.577274 39.540152 
L 631.596506 39.419453 
L 634.819018 39.1009 
L 634.910514 39.022002 
L 637.014911 38.9042 
L 639.105734 38.748141 
L 640.464507 38.593218 
L 640.464507 38.554663 
L 640.619047 38.516178 
L 643.919376 38.210778 
L 643.919376 38.210778 
" style="fill:none;stroke:#2ca02c;stroke-linecap:square;stroke-width:1.5;"/>
   </g>
   <g id="line2d_42">
    <path clip-path="url(#p370450e46d)" d="M 467.97457 172.8 
L 467.97457 158.061571 
L 493.954141 149.440143 
L 520.428587 143.323143 
L 529.686846 138.578429 
L 531.731252 134.701715 
L 531.731252 131.424 
L 552.552216 128.584714 
L 559.619174 126.080287 
L 559.619174 121.813414 
L 560.937542 119.963286 
L 563.771112 118.261333 
L 563.771112 116.685571 
L 567.033552 115.218572 
L 598.217188 112.557221 
L 599.573762 111.341858 
L 599.57618 109.101571 
L 600.049179 108.064143 
L 600.049179 106.129805 
L 600.464514 105.224858 
L 602.80058 104.356857 
L 602.989934 103.522905 
L 602.989934 101.947143 
L 608.185908 101.200994 
L 608.185908 100.480143 
L 611.72963 99.782931 
L 613.396394 98.453558 
L 615.79739 97.818792 
L 615.832235 96.60343 
L 615.915506 96.020844 
L 623.569092 95.453795 
L 623.569092 91.858715 
L 625.170789 91.391377 
L 625.170789 90.486429 
L 625.740384 90.048 
L 626.068724 89.618429 
L 626.068724 87.982002 
L 626.489505 87.591843 
L 626.489505 83.715129 
L 626.70374 83.395378 
L 626.70374 81.282415 
L 626.830097 80.997001 
L 627.499475 80.437414 
L 629.357994 80.163048 
L 629.357994 79.892178 
L 629.664278 79.624714 
L 629.664278 79.360573 
L 630.054301 79.099674 
L 630.223683 78.841937 
L 630.767951 78.587286 
L 630.787892 77.357865 
L 631.246252 77.120287 
L 631.266458 76.885333 
L 631.70629 76.652948 
L 631.70629 76.423075 
L 634.636379 76.19566 
L 636.823367 75.527656 
L 636.823367 75.093701 
L 638.712577 74.668426 
L 639.422185 74.458936 
L 639.456864 74.251489 
L 639.919892 73.842572 
L 639.984899 72.853414 
L 640.426354 72.660987 
L 640.593221 72.281279 
L 641.228751 72.093938 
L 641.344638 71.908234 
L 642.572538 71.724137 
L 642.766144 71.54162 
L 642.766144 71.360657 
L 643.219345 71.181221 
L 643.219345 70.306074 
L 643.350944 69.965858 
L 643.442607 67.126572 
L 643.757374 66.833284 
L 643.828899 66.258572 
L 643.915969 66.117289 
L 643.915969 66.117289 
" style="fill:none;stroke:#d62728;stroke-linecap:square;stroke-width:1.5;"/>
   </g>
   <g id="line2d_43">
    <path clip-path="url(#p370450e46d)" d="M 156.166866 217 
L 156.514579 172.8 
L 191.788054 158.061571 
L 191.788054 149.440143 
L 197.027024 143.323143 
L 198.19099 138.578429 
L 204.669748 134.701715 
L 204.669748 115.218572 
L 212.635003 113.846286 
L 212.635003 101.947143 
L 236.614432 101.200994 
L 242.551468 99.782931 
L 242.551468 94.901477 
L 243.915672 93.838102 
L 244.314117 93.325715 
L 244.314117 92.825384 
L 246.16111 92.336557 
L 246.425486 91.858715 
L 246.425486 91.391377 
L 250.35062 90.934089 
L 255.638854 90.486429 
L 255.638854 90.048 
L 258.128236 89.618429 
L 261.384021 89.197364 
L 261.600644 88.784476 
L 263.57996 88.379453 
L 266.607589 87.982002 
L 272.905552 87.591843 
L 272.905552 87.208714 
L 275.878372 86.832367 
L 280.86138 86.462565 
L 280.980652 86.099086 
L 281.477369 85.741715 
L 283.10283 85.390251 
L 283.110413 84.369428 
L 285.699805 83.715129 
L 285.713212 83.080364 
L 286.179089 82.769949 
L 286.179089 82.162391 
L 288.097433 81.865001 
L 288.903516 81.571713 
L 288.903516 81.282415 
L 289.041067 80.997001 
L 291.009952 80.715367 
L 291.017959 79.892178 
L 294.686194 79.624714 
L 294.686194 79.360573 
L 303.99118 79.099674 
L 303.99118 78.086956 
L 306.298708 77.841137 
L 306.298708 77.598128 
L 318.964338 77.357865 
L 318.964338 77.120287 
L 319.60539 76.885333 
L 320.85311 76.652948 
L 320.85311 76.423075 
L 323.444903 76.19566 
L 323.444903 75.970652 
L 324.200022 75.748 
L 324.200022 75.527656 
L 324.853507 75.309571 
L 324.853507 75.093701 
L 326.083529 74.668426 
L 326.216525 73.641025 
L 334.372245 73.44137 
L 334.372245 72.853414 
L 339.891234 72.660987 
L 339.891234 72.470286 
L 343.771635 72.281279 
L 343.771635 72.093938 
L 344.41984 71.908234 
L 344.41984 71.360657 
L 357.342444 71.181221 
L 358.308376 71.003286 
L 363.274397 70.826828 
L 363.373304 69.138397 
L 365.66497 68.9767 
L 365.936899 68.816224 
L 372.271754 68.186161 
L 373.872552 68.03152 
L 373.872552 67.877995 
L 374.358672 67.725571 
L 374.358672 66.543986 
L 375.911973 66.258572 
L 376.997562 66.117289 
L 376.997562 65.837508 
L 377.204629 65.698986 
L 379.081534 65.56136 
L 379.081534 65.019597 
L 379.610113 64.886286 
L 379.610113 64.753805 
L 383.509382 64.622145 
L 383.577199 64.361245 
L 385.43457 64.231986 
L 385.43457 64.103508 
L 396.53084 63.975802 
L 396.53084 63.722667 
L 402.676575 63.348527 
L 402.676575 63.225263 
L 403.203341 63.102709 
L 403.203341 62.8597 
L 406.813678 62.739229 
L 406.813678 62.500316 
L 407.15436 62.264057 
L 407.15436 62.146905 
L 407.908709 62.030395 
L 411.031309 61.799272 
L 411.031309 61.684646 
L 415.537405 61.34443 
L 415.537405 60.679905 
L 416.034191 60.462934 
L 416.034191 60.141571 
L 417.639838 60.035521 
L 424.519686 59.824994 
L 424.71151 59.720507 
L 425.429253 59.513061 
L 425.429253 59.410092 
L 430.547146 58.902596 
L 430.547146 58.114986 
L 434.590622 57.922558 
L 434.653067 57.637144 
L 434.653067 57.262455 
L 436.40206 57.077557 
L 436.654705 56.985708 
L 438.48653 56.803192 
L 438.48653 56.712517 
L 439.046252 56.532321 
L 442.298714 56.264858 
L 442.298714 56.000717 
L 443.034413 55.826429 
L 443.034413 55.653557 
L 443.209385 55.48208 
L 443.209385 55.311975 
L 443.38839 55.143219 
L 451.519681 54.892571 
L 451.519681 54.157882 
L 452.186355 53.998009 
L 455.974239 53.839328 
L 456.661338 53.76043 
L 467.332808 53.525477 
L 470.398606 53.293091 
L 475.217293 52.911339 
L 476.299996 52.610796 
L 484.441847 52.388144 
L 497.660084 51.877514 
L 497.660084 51.662372 
L 517.253708 51.37886 
L 517.253708 51.308569 
L 521.962422 50.960557 
L 521.962422 50.891633 
L 529.398766 50.754451 
L 531.731252 50.482715 
L 539.845449 50.214408 
L 540.58642 50.081514 
L 540.58642 50.015377 
L 547.733529 49.883716 
L 547.852657 49.752866 
L 557.314372 49.429221 
L 557.314372 49.04724 
L 558.344933 48.796346 
L 558.344933 48.734082 
L 559.458297 48.425469 
L 561.681943 48.242429 
L 561.681943 48.181764 
L 562.971487 48.06095 
L 562.971487 48.0008 
L 563.664001 47.94082 
L 566.945348 47.761887 
L 567.052761 47.408476 
L 568.092401 47.350141 
L 571.420377 47.233949 
L 571.420377 47.176091 
L 571.868442 47.118389 
L 579.042736 46.832206 
L 579.042736 46.718803 
L 579.250226 46.606001 
L 584.698506 46.437913 
L 584.698506 46.382178 
L 585.816447 46.105671 
L 589.281453 45.724505 
L 589.281453 45.670606 
L 593.862541 45.297092 
L 593.931664 45.139002 
L 598.746038 44.671663 
L 598.746038 44.569191 
L 600.464514 44.416401 
L 600.464514 43.815993 
L 602.71255 43.668503 
L 602.752811 43.280126 
L 602.753831 43.232074 
L 604.285626 43.040944 
L 608.453412 42.851517 
L 609.270682 42.663762 
L 612.646162 42.477651 
L 612.646162 42.201503 
L 615.703 41.8838 
L 615.703 41.088 
L 619.662246 40.829217 
L 625.170789 40.658429 
L 625.170789 40.489001 
L 626.840423 40.320913 
L 629.59088 40.071246 
L 629.664278 39.988671 
L 631.091449 39.865406 
L 631.147648 39.66154 
L 631.577274 39.540152 
L 631.596506 39.419453 
L 634.819018 39.1009 
L 634.910514 39.022002 
L 637.014911 38.9042 
L 639.105734 38.748141 
L 640.464507 38.593218 
L 640.464507 38.554663 
L 640.619047 38.516178 
L 643.919376 38.210778 
L 643.919376 38.210778 
" style="fill:none;stroke:#9467bd;stroke-linecap:square;stroke-width:1.5;"/>
   </g>
   <g id="line2d_44">
    <path clip-path="url(#p370450e46d)" d="M 467.97457 172.8 
L 467.97457 158.061571 
L 493.954141 149.440143 
L 520.428587 143.323143 
L 529.686846 138.578429 
L 531.731252 134.701715 
L 531.731252 131.424 
L 552.552216 128.584714 
L 559.619174 126.080287 
L 559.619174 121.813414 
L 560.937542 119.963286 
L 563.771112 118.261333 
L 563.771112 116.685571 
L 567.033552 115.218572 
L 598.217188 112.557221 
L 599.573762 111.341858 
L 599.57618 109.101571 
L 600.049179 108.064143 
L 600.049179 106.129805 
L 600.464514 105.224858 
L 602.80058 104.356857 
L 602.989934 103.522905 
L 602.989934 101.947143 
L 608.185908 101.200994 
L 608.185908 100.480143 
L 611.72963 99.782931 
L 613.396394 98.453558 
L 615.79739 97.818792 
L 615.832235 96.60343 
L 615.915506 96.020844 
L 623.569092 95.453795 
L 623.569092 91.858715 
L 625.170789 91.391377 
L 625.170789 90.486429 
L 625.740384 90.048 
L 626.068724 89.618429 
L 626.068724 87.982002 
L 626.489505 87.591843 
L 626.489505 83.715129 
L 626.70374 83.395378 
L 626.70374 81.282415 
L 626.830097 80.997001 
L 627.499475 80.437414 
L 629.357994 80.163048 
L 629.357994 79.892178 
L 629.664278 79.624714 
L 629.664278 79.360573 
L 630.054301 79.099674 
L 630.223683 78.841937 
L 630.767951 78.587286 
L 630.787892 77.357865 
L 631.246252 77.120287 
L 631.266458 76.885333 
L 631.70629 76.652948 
L 631.70629 76.423075 
L 634.636379 76.19566 
L 636.823367 75.527656 
L 636.823367 75.093701 
L 638.712577 74.668426 
L 639.422185 74.458936 
L 639.456864 74.251489 
L 639.919892 73.842572 
L 639.984899 72.853414 
L 640.426354 72.660987 
L 640.593221 72.281279 
L 641.228751 72.093938 
L 641.344638 71.908234 
L 642.572538 71.724137 
L 642.766144 71.54162 
L 642.766144 71.360657 
L 643.219345 71.181221 
L 643.219345 70.306074 
L 643.350944 69.965858 
L 643.442607 67.126572 
L 643.757374 66.833284 
L 643.828899 66.258572 
L 643.915969 66.117289 
L 643.915969 66.117289 
" style="fill:none;stroke:#8c564b;stroke-linecap:square;stroke-width:1.5;"/>
   </g>
   <g id="patch_3">
    <path d="M 90 172.8 
L 90 25.92 
" style="fill:none;stroke:#000000;stroke-linecap:square;stroke-linejoin:miter;stroke-width:0.8;"/>
   </g>
   <g id="patch_4">
    <path d="M 648 172.8 
L 648 25.92 
" style="fill:none;stroke:#000000;stroke-linecap:square;stroke-linejoin:miter;stroke-width:0.8;"/>
   </g>
   <g id="patch_5">
    <path d="M 90 172.8 
L 648 172.8 
" style="fill:none;stroke:#000000;stroke-linecap:square;stroke-linejoin:miter;stroke-width:0.8;"/>
   </g>
   <g id="patch_6">
    <path d="M 90 25.92 
L 648 25.92 
" style="fill:none;stroke:#000000;stroke-linecap:square;stroke-linejoin:miter;stroke-width:0.8;"/>
   </g>
  </g>
 </g>
 <defs>
  <clipPath id="p370450e46d">
   <rect height="146.88" width="558" x="90" y="25.92"/>
  </clipPath>
 </defs>
</svg>
