<?xml version="1.0" encoding="utf-8" standalone="no"?>
<!DOCTYPE svg PUBLIC "-//W3C//DTD SVG 1.1//EN"
  "http://www.w3.org/Graphics/SVG/1.1/DTD/svg11.dtd">
<!-- Created with matplotlib (https://matplotlib.org/) -->
<svg height="360pt" version="1.1" viewBox="0 0 720 360" width="720pt" xmlns="http://www.w3.org/2000/svg" xmlns:xlink="http://www.w3.org/1999/xlink">
 <metadata>
  <rdf:RDF xmlns:cc="http://creativecommons.org/ns#" xmlns:dc="http://purl.org/dc/elements/1.1/" xmlns:rdf="http://www.w3.org/1999/02/22-rdf-syntax-ns#">
   <cc:Work>
    <dc:type rdf:resource="http://purl.org/dc/dcmitype/StillImage"/>
    <dc:date>2020-08-01T14:31:30.033963</dc:date>
    <dc:format>image/svg+xml</dc:format>
    <dc:creator>
     <cc:Agent>
      <dc:title>Matplotlib v3.3.0, https://matplotlib.org/</dc:title>
     </cc:Agent>
    </dc:creator>
   </cc:Work>
  </rdf:RDF>
 </metadata>
 <defs>
  <style type="text/css">*{stroke-linecap:butt;stroke-linejoin:round;}</style>
 </defs>
 <g id="figure_1">
  <g id="patch_1">
   <path d="M 0 360 
L 720 360 
L 720 0 
L 0 0 
z
" style="fill:none;"/>
  </g>
  <g id="axes_1">
   <g id="patch_2">
    <path d="M 90 315 
L 648 315 
L 648 43.2 
L 90 43.2 
z
" style="fill:#ffffff;"/>
   </g>
   <g id="matplotlib.axis_1">
    <g id="xtick_1">
     <g id="line2d_1">
      <defs>
       <path d="M 0 0 
L 0 3.5 
" id="m8e70c35214" style="stroke:#000000;stroke-width:0.8;"/>
      </defs>
      <g>
       <use style="stroke:#000000;stroke-width:0.8;" x="90" xlink:href="#m8e70c35214" y="315"/>
      </g>
     </g>
     <g id="text_1">
      <!-- Jan -->
      <g transform="translate(82.292187 329.598437)scale(0.1 -0.1)">
       <defs>
        <path d="M 9.8125 72.90625 
L 19.671875 72.90625 
L 19.671875 5.078125 
Q 19.671875 -8.109375 14.671875 -14.0625 
Q 9.671875 -20.015625 -1.421875 -20.015625 
L -5.171875 -20.015625 
L -5.171875 -11.71875 
L -2.09375 -11.71875 
Q 4.4375 -11.71875 7.125 -8.046875 
Q 9.8125 -4.390625 9.8125 5.078125 
z
" id="DejaVuSans-74"/>
        <path d="M 34.28125 27.484375 
Q 23.390625 27.484375 19.1875 25 
Q 14.984375 22.515625 14.984375 16.5 
Q 14.984375 11.71875 18.140625 8.90625 
Q 21.296875 6.109375 26.703125 6.109375 
Q 34.1875 6.109375 38.703125 11.40625 
Q 43.21875 16.703125 43.21875 25.484375 
L 43.21875 27.484375 
z
M 52.203125 31.203125 
L 52.203125 0 
L 43.21875 0 
L 43.21875 8.296875 
Q 40.140625 3.328125 35.546875 0.953125 
Q 30.953125 -1.421875 24.3125 -1.421875 
Q 15.921875 -1.421875 10.953125 3.296875 
Q 6 8.015625 6 15.921875 
Q 6 25.140625 12.171875 29.828125 
Q 18.359375 34.515625 30.609375 34.515625 
L 43.21875 34.515625 
L 43.21875 35.40625 
Q 43.21875 41.609375 39.140625 45 
Q 35.0625 48.390625 27.6875 48.390625 
Q 23 48.390625 18.546875 47.265625 
Q 14.109375 46.140625 10.015625 43.890625 
L 10.015625 52.203125 
Q 14.9375 54.109375 19.578125 55.046875 
Q 24.21875 56 28.609375 56 
Q 40.484375 56 46.34375 49.84375 
Q 52.203125 43.703125 52.203125 31.203125 
z
" id="DejaVuSans-97"/>
        <path d="M 54.890625 33.015625 
L 54.890625 0 
L 45.90625 0 
L 45.90625 32.71875 
Q 45.90625 40.484375 42.875 44.328125 
Q 39.84375 48.1875 33.796875 48.1875 
Q 26.515625 48.1875 22.3125 43.546875 
Q 18.109375 38.921875 18.109375 30.90625 
L 18.109375 0 
L 9.078125 0 
L 9.078125 54.6875 
L 18.109375 54.6875 
L 18.109375 46.1875 
Q 21.34375 51.125 25.703125 53.5625 
Q 30.078125 56 35.796875 56 
Q 45.21875 56 50.046875 50.171875 
Q 54.890625 44.34375 54.890625 33.015625 
z
" id="DejaVuSans-110"/>
       </defs>
       <use xlink:href="#DejaVuSans-74"/>
       <use x="29.492188" xlink:href="#DejaVuSans-97"/>
       <use x="90.771484" xlink:href="#DejaVuSans-110"/>
      </g>
      <!-- 2017 -->
      <g transform="translate(77.275 340.79625)scale(0.1 -0.1)">
       <defs>
        <path d="M 19.1875 8.296875 
L 53.609375 8.296875 
L 53.609375 0 
L 7.328125 0 
L 7.328125 8.296875 
Q 12.9375 14.109375 22.625 23.890625 
Q 32.328125 33.6875 34.8125 36.53125 
Q 39.546875 41.84375 41.421875 45.53125 
Q 43.3125 49.21875 43.3125 52.78125 
Q 43.3125 58.59375 39.234375 62.25 
Q 35.15625 65.921875 28.609375 65.921875 
Q 23.96875 65.921875 18.8125 64.3125 
Q 13.671875 62.703125 7.8125 59.421875 
L 7.8125 69.390625 
Q 13.765625 71.78125 18.9375 73 
Q 24.125 74.21875 28.421875 74.21875 
Q 39.75 74.21875 46.484375 68.546875 
Q 53.21875 62.890625 53.21875 53.421875 
Q 53.21875 48.921875 51.53125 44.890625 
Q 49.859375 40.875 45.40625 35.40625 
Q 44.1875 33.984375 37.640625 27.21875 
Q 31.109375 20.453125 19.1875 8.296875 
z
" id="DejaVuSans-50"/>
        <path d="M 31.78125 66.40625 
Q 24.171875 66.40625 20.328125 58.90625 
Q 16.5 51.421875 16.5 36.375 
Q 16.5 21.390625 20.328125 13.890625 
Q 24.171875 6.390625 31.78125 6.390625 
Q 39.453125 6.390625 43.28125 13.890625 
Q 47.125 21.390625 47.125 36.375 
Q 47.125 51.421875 43.28125 58.90625 
Q 39.453125 66.40625 31.78125 66.40625 
z
M 31.78125 74.21875 
Q 44.046875 74.21875 50.515625 64.515625 
Q 56.984375 54.828125 56.984375 36.375 
Q 56.984375 17.96875 50.515625 8.265625 
Q 44.046875 -1.421875 31.78125 -1.421875 
Q 19.53125 -1.421875 13.0625 8.265625 
Q 6.59375 17.96875 6.59375 36.375 
Q 6.59375 54.828125 13.0625 64.515625 
Q 19.53125 74.21875 31.78125 74.21875 
z
" id="DejaVuSans-48"/>
        <path d="M 12.40625 8.296875 
L 28.515625 8.296875 
L 28.515625 63.921875 
L 10.984375 60.40625 
L 10.984375 69.390625 
L 28.421875 72.90625 
L 38.28125 72.90625 
L 38.28125 8.296875 
L 54.390625 8.296875 
L 54.390625 0 
L 12.40625 0 
z
" id="DejaVuSans-49"/>
        <path d="M 8.203125 72.90625 
L 55.078125 72.90625 
L 55.078125 68.703125 
L 28.609375 0 
L 18.3125 0 
L 43.21875 64.59375 
L 8.203125 64.59375 
z
" id="DejaVuSans-55"/>
       </defs>
       <use xlink:href="#DejaVuSans-50"/>
       <use x="63.623047" xlink:href="#DejaVuSans-48"/>
       <use x="127.246094" xlink:href="#DejaVuSans-49"/>
       <use x="190.869141" xlink:href="#DejaVuSans-55"/>
      </g>
     </g>
    </g>
    <g id="xtick_2">
     <g id="line2d_2">
      <g>
       <use style="stroke:#000000;stroke-width:0.8;" x="246.669231" xlink:href="#m8e70c35214" y="315"/>
      </g>
     </g>
     <g id="text_2">
      <!-- Jan -->
      <g transform="translate(238.961418 329.598437)scale(0.1 -0.1)">
       <use xlink:href="#DejaVuSans-74"/>
       <use x="29.492188" xlink:href="#DejaVuSans-97"/>
       <use x="90.771484" xlink:href="#DejaVuSans-110"/>
      </g>
      <!-- 2018 -->
      <g transform="translate(233.944231 340.79625)scale(0.1 -0.1)">
       <defs>
        <path d="M 31.78125 34.625 
Q 24.75 34.625 20.71875 30.859375 
Q 16.703125 27.09375 16.703125 20.515625 
Q 16.703125 13.921875 20.71875 10.15625 
Q 24.75 6.390625 31.78125 6.390625 
Q 38.8125 6.390625 42.859375 10.171875 
Q 46.921875 13.96875 46.921875 20.515625 
Q 46.921875 27.09375 42.890625 30.859375 
Q 38.875 34.625 31.78125 34.625 
z
M 21.921875 38.8125 
Q 15.578125 40.375 12.03125 44.71875 
Q 8.5 49.078125 8.5 55.328125 
Q 8.5 64.0625 14.71875 69.140625 
Q 20.953125 74.21875 31.78125 74.21875 
Q 42.671875 74.21875 48.875 69.140625 
Q 55.078125 64.0625 55.078125 55.328125 
Q 55.078125 49.078125 51.53125 44.71875 
Q 48 40.375 41.703125 38.8125 
Q 48.828125 37.15625 52.796875 32.3125 
Q 56.78125 27.484375 56.78125 20.515625 
Q 56.78125 9.90625 50.3125 4.234375 
Q 43.84375 -1.421875 31.78125 -1.421875 
Q 19.734375 -1.421875 13.25 4.234375 
Q 6.78125 9.90625 6.78125 20.515625 
Q 6.78125 27.484375 10.78125 32.3125 
Q 14.796875 37.15625 21.921875 38.8125 
z
M 18.3125 54.390625 
Q 18.3125 48.734375 21.84375 45.5625 
Q 25.390625 42.390625 31.78125 42.390625 
Q 38.140625 42.390625 41.71875 45.5625 
Q 45.3125 48.734375 45.3125 54.390625 
Q 45.3125 60.0625 41.71875 63.234375 
Q 38.140625 66.40625 31.78125 66.40625 
Q 25.390625 66.40625 21.84375 63.234375 
Q 18.3125 60.0625 18.3125 54.390625 
z
" id="DejaVuSans-56"/>
       </defs>
       <use xlink:href="#DejaVuSans-50"/>
       <use x="63.623047" xlink:href="#DejaVuSans-48"/>
       <use x="127.246094" xlink:href="#DejaVuSans-49"/>
       <use x="190.869141" xlink:href="#DejaVuSans-56"/>
      </g>
     </g>
    </g>
    <g id="xtick_3">
     <g id="line2d_3">
      <g>
       <use style="stroke:#000000;stroke-width:0.8;" x="403.338462" xlink:href="#m8e70c35214" y="315"/>
      </g>
     </g>
     <g id="text_3">
      <!-- Jan -->
      <g transform="translate(395.630649 329.598437)scale(0.1 -0.1)">
       <use xlink:href="#DejaVuSans-74"/>
       <use x="29.492188" xlink:href="#DejaVuSans-97"/>
       <use x="90.771484" xlink:href="#DejaVuSans-110"/>
      </g>
      <!-- 2019 -->
      <g transform="translate(390.613462 340.79625)scale(0.1 -0.1)">
       <defs>
        <path d="M 10.984375 1.515625 
L 10.984375 10.5 
Q 14.703125 8.734375 18.5 7.8125 
Q 22.3125 6.890625 25.984375 6.890625 
Q 35.75 6.890625 40.890625 13.453125 
Q 46.046875 20.015625 46.78125 33.40625 
Q 43.953125 29.203125 39.59375 26.953125 
Q 35.25 24.703125 29.984375 24.703125 
Q 19.046875 24.703125 12.671875 31.3125 
Q 6.296875 37.9375 6.296875 49.421875 
Q 6.296875 60.640625 12.9375 67.421875 
Q 19.578125 74.21875 30.609375 74.21875 
Q 43.265625 74.21875 49.921875 64.515625 
Q 56.59375 54.828125 56.59375 36.375 
Q 56.59375 19.140625 48.40625 8.859375 
Q 40.234375 -1.421875 26.421875 -1.421875 
Q 22.703125 -1.421875 18.890625 -0.6875 
Q 15.09375 0.046875 10.984375 1.515625 
z
M 30.609375 32.421875 
Q 37.25 32.421875 41.125 36.953125 
Q 45.015625 41.5 45.015625 49.421875 
Q 45.015625 57.28125 41.125 61.84375 
Q 37.25 66.40625 30.609375 66.40625 
Q 23.96875 66.40625 20.09375 61.84375 
Q 16.21875 57.28125 16.21875 49.421875 
Q 16.21875 41.5 20.09375 36.953125 
Q 23.96875 32.421875 30.609375 32.421875 
z
" id="DejaVuSans-57"/>
       </defs>
       <use xlink:href="#DejaVuSans-50"/>
       <use x="63.623047" xlink:href="#DejaVuSans-48"/>
       <use x="127.246094" xlink:href="#DejaVuSans-49"/>
       <use x="190.869141" xlink:href="#DejaVuSans-57"/>
      </g>
     </g>
    </g>
    <g id="xtick_4">
     <g id="line2d_4">
      <g>
       <use style="stroke:#000000;stroke-width:0.8;" x="560.007692" xlink:href="#m8e70c35214" y="315"/>
      </g>
     </g>
     <g id="text_4">
      <!-- Jan -->
      <g transform="translate(552.29988 329.598437)scale(0.1 -0.1)">
       <use xlink:href="#DejaVuSans-74"/>
       <use x="29.492188" xlink:href="#DejaVuSans-97"/>
       <use x="90.771484" xlink:href="#DejaVuSans-110"/>
      </g>
      <!-- 2020 -->
      <g transform="translate(547.282692 340.79625)scale(0.1 -0.1)">
       <use xlink:href="#DejaVuSans-50"/>
       <use x="63.623047" xlink:href="#DejaVuSans-48"/>
       <use x="127.246094" xlink:href="#DejaVuSans-50"/>
       <use x="190.869141" xlink:href="#DejaVuSans-48"/>
      </g>
     </g>
    </g>
    <g id="xtick_5">
     <g id="line2d_5">
      <g>
       <use style="stroke:#000000;stroke-width:0.8;" x="648" xlink:href="#m8e70c35214" y="315"/>
      </g>
     </g>
    </g>
    <g id="xtick_6">
     <g id="line2d_6">
      <defs>
       <path d="M 0 0 
L 0 2 
" id="m912e1db649" style="stroke:#000000;stroke-width:0.6;"/>
      </defs>
      <g>
       <use style="stroke:#000000;stroke-width:0.6;" x="103.306154" xlink:href="#m912e1db649" y="315"/>
      </g>
     </g>
    </g>
    <g id="xtick_7">
     <g id="line2d_7">
      <g>
       <use style="stroke:#000000;stroke-width:0.6;" x="115.324615" xlink:href="#m912e1db649" y="315"/>
      </g>
     </g>
    </g>
    <g id="xtick_8">
     <g id="line2d_8">
      <g>
       <use style="stroke:#000000;stroke-width:0.6;" x="128.630769" xlink:href="#m912e1db649" y="315"/>
      </g>
     </g>
    </g>
    <g id="xtick_9">
     <g id="line2d_9">
      <g>
       <use style="stroke:#000000;stroke-width:0.6;" x="141.507692" xlink:href="#m912e1db649" y="315"/>
      </g>
     </g>
    </g>
    <g id="xtick_10">
     <g id="line2d_10">
      <g>
       <use style="stroke:#000000;stroke-width:0.6;" x="154.813846" xlink:href="#m912e1db649" y="315"/>
      </g>
     </g>
    </g>
    <g id="xtick_11">
     <g id="line2d_11">
      <g>
       <use style="stroke:#000000;stroke-width:0.6;" x="167.690769" xlink:href="#m912e1db649" y="315"/>
      </g>
     </g>
     <g id="text_5">
      <!-- Jul -->
      <g transform="translate(161.657957 327.998438)scale(0.1 -0.1)">
       <defs>
        <path d="M 8.5 21.578125 
L 8.5 54.6875 
L 17.484375 54.6875 
L 17.484375 21.921875 
Q 17.484375 14.15625 20.5 10.265625 
Q 23.53125 6.390625 29.59375 6.390625 
Q 36.859375 6.390625 41.078125 11.03125 
Q 45.3125 15.671875 45.3125 23.6875 
L 45.3125 54.6875 
L 54.296875 54.6875 
L 54.296875 0 
L 45.3125 0 
L 45.3125 8.40625 
Q 42.046875 3.421875 37.71875 1 
Q 33.40625 -1.421875 27.6875 -1.421875 
Q 18.265625 -1.421875 13.375 4.4375 
Q 8.5 10.296875 8.5 21.578125 
z
M 31.109375 56 
z
" id="DejaVuSans-117"/>
        <path d="M 9.421875 75.984375 
L 18.40625 75.984375 
L 18.40625 0 
L 9.421875 0 
z
" id="DejaVuSans-108"/>
       </defs>
       <use xlink:href="#DejaVuSans-74"/>
       <use x="29.492188" xlink:href="#DejaVuSans-117"/>
       <use x="92.871094" xlink:href="#DejaVuSans-108"/>
      </g>
     </g>
    </g>
    <g id="xtick_12">
     <g id="line2d_12">
      <g>
       <use style="stroke:#000000;stroke-width:0.6;" x="180.996923" xlink:href="#m912e1db649" y="315"/>
      </g>
     </g>
    </g>
    <g id="xtick_13">
     <g id="line2d_13">
      <g>
       <use style="stroke:#000000;stroke-width:0.6;" x="194.303077" xlink:href="#m912e1db649" y="315"/>
      </g>
     </g>
    </g>
    <g id="xtick_14">
     <g id="line2d_14">
      <g>
       <use style="stroke:#000000;stroke-width:0.6;" x="207.18" xlink:href="#m912e1db649" y="315"/>
      </g>
     </g>
    </g>
    <g id="xtick_15">
     <g id="line2d_15">
      <g>
       <use style="stroke:#000000;stroke-width:0.6;" x="220.486154" xlink:href="#m912e1db649" y="315"/>
      </g>
     </g>
    </g>
    <g id="xtick_16">
     <g id="line2d_16">
      <g>
       <use style="stroke:#000000;stroke-width:0.6;" x="233.363077" xlink:href="#m912e1db649" y="315"/>
      </g>
     </g>
    </g>
    <g id="xtick_17">
     <g id="line2d_17">
      <g>
       <use style="stroke:#000000;stroke-width:0.6;" x="259.975385" xlink:href="#m912e1db649" y="315"/>
      </g>
     </g>
    </g>
    <g id="xtick_18">
     <g id="line2d_18">
      <g>
       <use style="stroke:#000000;stroke-width:0.6;" x="271.993846" xlink:href="#m912e1db649" y="315"/>
      </g>
     </g>
    </g>
    <g id="xtick_19">
     <g id="line2d_19">
      <g>
       <use style="stroke:#000000;stroke-width:0.6;" x="285.3" xlink:href="#m912e1db649" y="315"/>
      </g>
     </g>
    </g>
    <g id="xtick_20">
     <g id="line2d_20">
      <g>
       <use style="stroke:#000000;stroke-width:0.6;" x="298.176923" xlink:href="#m912e1db649" y="315"/>
      </g>
     </g>
    </g>
    <g id="xtick_21">
     <g id="line2d_21">
      <g>
       <use style="stroke:#000000;stroke-width:0.6;" x="311.483077" xlink:href="#m912e1db649" y="315"/>
      </g>
     </g>
    </g>
    <g id="xtick_22">
     <g id="line2d_22">
      <g>
       <use style="stroke:#000000;stroke-width:0.6;" x="324.36" xlink:href="#m912e1db649" y="315"/>
      </g>
     </g>
     <g id="text_6">
      <!-- Jul -->
      <g transform="translate(318.327188 327.998438)scale(0.1 -0.1)">
       <use xlink:href="#DejaVuSans-74"/>
       <use x="29.492188" xlink:href="#DejaVuSans-117"/>
       <use x="92.871094" xlink:href="#DejaVuSans-108"/>
      </g>
     </g>
    </g>
    <g id="xtick_23">
     <g id="line2d_23">
      <g>
       <use style="stroke:#000000;stroke-width:0.6;" x="337.666154" xlink:href="#m912e1db649" y="315"/>
      </g>
     </g>
    </g>
    <g id="xtick_24">
     <g id="line2d_24">
      <g>
       <use style="stroke:#000000;stroke-width:0.6;" x="350.972308" xlink:href="#m912e1db649" y="315"/>
      </g>
     </g>
    </g>
    <g id="xtick_25">
     <g id="line2d_25">
      <g>
       <use style="stroke:#000000;stroke-width:0.6;" x="363.849231" xlink:href="#m912e1db649" y="315"/>
      </g>
     </g>
    </g>
    <g id="xtick_26">
     <g id="line2d_26">
      <g>
       <use style="stroke:#000000;stroke-width:0.6;" x="377.155385" xlink:href="#m912e1db649" y="315"/>
      </g>
     </g>
    </g>
    <g id="xtick_27">
     <g id="line2d_27">
      <g>
       <use style="stroke:#000000;stroke-width:0.6;" x="390.032308" xlink:href="#m912e1db649" y="315"/>
      </g>
     </g>
    </g>
    <g id="xtick_28">
     <g id="line2d_28">
      <g>
       <use style="stroke:#000000;stroke-width:0.6;" x="416.644615" xlink:href="#m912e1db649" y="315"/>
      </g>
     </g>
    </g>
    <g id="xtick_29">
     <g id="line2d_29">
      <g>
       <use style="stroke:#000000;stroke-width:0.6;" x="428.663077" xlink:href="#m912e1db649" y="315"/>
      </g>
     </g>
    </g>
    <g id="xtick_30">
     <g id="line2d_30">
      <g>
       <use style="stroke:#000000;stroke-width:0.6;" x="441.969231" xlink:href="#m912e1db649" y="315"/>
      </g>
     </g>
    </g>
    <g id="xtick_31">
     <g id="line2d_31">
      <g>
       <use style="stroke:#000000;stroke-width:0.6;" x="454.846154" xlink:href="#m912e1db649" y="315"/>
      </g>
     </g>
    </g>
    <g id="xtick_32">
     <g id="line2d_32">
      <g>
       <use style="stroke:#000000;stroke-width:0.6;" x="468.152308" xlink:href="#m912e1db649" y="315"/>
      </g>
     </g>
    </g>
    <g id="xtick_33">
     <g id="line2d_33">
      <g>
       <use style="stroke:#000000;stroke-width:0.6;" x="481.029231" xlink:href="#m912e1db649" y="315"/>
      </g>
     </g>
     <g id="text_7">
      <!-- Jul -->
      <g transform="translate(474.996418 327.998438)scale(0.1 -0.1)">
       <use xlink:href="#DejaVuSans-74"/>
       <use x="29.492188" xlink:href="#DejaVuSans-117"/>
       <use x="92.871094" xlink:href="#DejaVuSans-108"/>
      </g>
     </g>
    </g>
    <g id="xtick_34">
     <g id="line2d_34">
      <g>
       <use style="stroke:#000000;stroke-width:0.6;" x="494.335385" xlink:href="#m912e1db649" y="315"/>
      </g>
     </g>
    </g>
    <g id="xtick_35">
     <g id="line2d_35">
      <g>
       <use style="stroke:#000000;stroke-width:0.6;" x="507.641538" xlink:href="#m912e1db649" y="315"/>
      </g>
     </g>
    </g>
    <g id="xtick_36">
     <g id="line2d_36">
      <g>
       <use style="stroke:#000000;stroke-width:0.6;" x="520.518462" xlink:href="#m912e1db649" y="315"/>
      </g>
     </g>
    </g>
    <g id="xtick_37">
     <g id="line2d_37">
      <g>
       <use style="stroke:#000000;stroke-width:0.6;" x="533.824615" xlink:href="#m912e1db649" y="315"/>
      </g>
     </g>
    </g>
    <g id="xtick_38">
     <g id="line2d_38">
      <g>
       <use style="stroke:#000000;stroke-width:0.6;" x="546.701538" xlink:href="#m912e1db649" y="315"/>
      </g>
     </g>
    </g>
    <g id="xtick_39">
     <g id="line2d_39">
      <g>
       <use style="stroke:#000000;stroke-width:0.6;" x="573.313846" xlink:href="#m912e1db649" y="315"/>
      </g>
     </g>
    </g>
    <g id="xtick_40">
     <g id="line2d_40">
      <g>
       <use style="stroke:#000000;stroke-width:0.6;" x="585.761538" xlink:href="#m912e1db649" y="315"/>
      </g>
     </g>
    </g>
    <g id="xtick_41">
     <g id="line2d_41">
      <g>
       <use style="stroke:#000000;stroke-width:0.6;" x="599.067692" xlink:href="#m912e1db649" y="315"/>
      </g>
     </g>
    </g>
    <g id="xtick_42">
     <g id="line2d_42">
      <g>
       <use style="stroke:#000000;stroke-width:0.6;" x="611.944615" xlink:href="#m912e1db649" y="315"/>
      </g>
     </g>
    </g>
    <g id="xtick_43">
     <g id="line2d_43">
      <g>
       <use style="stroke:#000000;stroke-width:0.6;" x="625.250769" xlink:href="#m912e1db649" y="315"/>
      </g>
     </g>
    </g>
    <g id="xtick_44">
     <g id="line2d_44">
      <g>
       <use style="stroke:#000000;stroke-width:0.6;" x="638.127692" xlink:href="#m912e1db649" y="315"/>
      </g>
     </g>
     <g id="text_8">
      <!-- Jul -->
      <g transform="translate(632.09488 327.998438)scale(0.1 -0.1)">
       <use xlink:href="#DejaVuSans-74"/>
       <use x="29.492188" xlink:href="#DejaVuSans-117"/>
       <use x="92.871094" xlink:href="#DejaVuSans-108"/>
      </g>
     </g>
    </g>
   </g>
   <g id="matplotlib.axis_2">
    <g id="ytick_1">
     <g id="line2d_45">
      <defs>
       <path d="M 0 0 
L -3.5 0 
" id="me667519655" style="stroke:#000000;stroke-width:0.8;"/>
      </defs>
      <g>
       <use style="stroke:#000000;stroke-width:0.8;" x="90" xlink:href="#me667519655" y="261.075752"/>
      </g>
     </g>
     <g id="text_9">
      <!-- 1000 -->
      <g transform="translate(57.55 264.87497)scale(0.1 -0.1)">
       <use xlink:href="#DejaVuSans-49"/>
       <use x="63.623047" xlink:href="#DejaVuSans-48"/>
       <use x="127.246094" xlink:href="#DejaVuSans-48"/>
       <use x="190.869141" xlink:href="#DejaVuSans-48"/>
      </g>
     </g>
    </g>
    <g id="ytick_2">
     <g id="line2d_46">
      <g>
       <use style="stroke:#000000;stroke-width:0.8;" x="90" xlink:href="#me667519655" y="206.606814"/>
      </g>
     </g>
     <g id="text_10">
      <!-- 2000 -->
      <g transform="translate(57.55 210.406032)scale(0.1 -0.1)">
       <use xlink:href="#DejaVuSans-50"/>
       <use x="63.623047" xlink:href="#DejaVuSans-48"/>
       <use x="127.246094" xlink:href="#DejaVuSans-48"/>
       <use x="190.869141" xlink:href="#DejaVuSans-48"/>
      </g>
     </g>
    </g>
    <g id="ytick_3">
     <g id="line2d_47">
      <g>
       <use style="stroke:#000000;stroke-width:0.8;" x="90" xlink:href="#me667519655" y="152.137876"/>
      </g>
     </g>
     <g id="text_11">
      <!-- 3000 -->
      <g transform="translate(57.55 155.937095)scale(0.1 -0.1)">
       <defs>
        <path d="M 40.578125 39.3125 
Q 47.65625 37.796875 51.625 33 
Q 55.609375 28.21875 55.609375 21.1875 
Q 55.609375 10.40625 48.1875 4.484375 
Q 40.765625 -1.421875 27.09375 -1.421875 
Q 22.515625 -1.421875 17.65625 -0.515625 
Q 12.796875 0.390625 7.625 2.203125 
L 7.625 11.71875 
Q 11.71875 9.328125 16.59375 8.109375 
Q 21.484375 6.890625 26.8125 6.890625 
Q 36.078125 6.890625 40.9375 10.546875 
Q 45.796875 14.203125 45.796875 21.1875 
Q 45.796875 27.640625 41.28125 31.265625 
Q 36.765625 34.90625 28.71875 34.90625 
L 20.21875 34.90625 
L 20.21875 43.015625 
L 29.109375 43.015625 
Q 36.375 43.015625 40.234375 45.921875 
Q 44.09375 48.828125 44.09375 54.296875 
Q 44.09375 59.90625 40.109375 62.90625 
Q 36.140625 65.921875 28.71875 65.921875 
Q 24.65625 65.921875 20.015625 65.03125 
Q 15.375 64.15625 9.8125 62.3125 
L 9.8125 71.09375 
Q 15.4375 72.65625 20.34375 73.4375 
Q 25.25 74.21875 29.59375 74.21875 
Q 40.828125 74.21875 47.359375 69.109375 
Q 53.90625 64.015625 53.90625 55.328125 
Q 53.90625 49.265625 50.4375 45.09375 
Q 46.96875 40.921875 40.578125 39.3125 
z
" id="DejaVuSans-51"/>
       </defs>
       <use xlink:href="#DejaVuSans-51"/>
       <use x="63.623047" xlink:href="#DejaVuSans-48"/>
       <use x="127.246094" xlink:href="#DejaVuSans-48"/>
       <use x="190.869141" xlink:href="#DejaVuSans-48"/>
      </g>
     </g>
    </g>
    <g id="ytick_4">
     <g id="line2d_48">
      <g>
       <use style="stroke:#000000;stroke-width:0.8;" x="90" xlink:href="#me667519655" y="97.668938"/>
      </g>
     </g>
     <g id="text_12">
      <!-- 4000 -->
      <g transform="translate(57.55 101.468157)scale(0.1 -0.1)">
       <defs>
        <path d="M 37.796875 64.3125 
L 12.890625 25.390625 
L 37.796875 25.390625 
z
M 35.203125 72.90625 
L 47.609375 72.90625 
L 47.609375 25.390625 
L 58.015625 25.390625 
L 58.015625 17.1875 
L 47.609375 17.1875 
L 47.609375 0 
L 37.796875 0 
L 37.796875 17.1875 
L 4.890625 17.1875 
L 4.890625 26.703125 
z
" id="DejaVuSans-52"/>
       </defs>
       <use xlink:href="#DejaVuSans-52"/>
       <use x="63.623047" xlink:href="#DejaVuSans-48"/>
       <use x="127.246094" xlink:href="#DejaVuSans-48"/>
       <use x="190.869141" xlink:href="#DejaVuSans-48"/>
      </g>
     </g>
    </g>
    <g id="ytick_5">
     <g id="line2d_49">
      <g>
       <use style="stroke:#000000;stroke-width:0.8;" x="90" xlink:href="#me667519655" y="43.2"/>
      </g>
     </g>
     <g id="text_13">
      <!-- 5000 -->
      <g transform="translate(57.55 46.999219)scale(0.1 -0.1)">
       <defs>
        <path d="M 10.796875 72.90625 
L 49.515625 72.90625 
L 49.515625 64.59375 
L 19.828125 64.59375 
L 19.828125 46.734375 
Q 21.96875 47.46875 24.109375 47.828125 
Q 26.265625 48.1875 28.421875 48.1875 
Q 40.625 48.1875 47.75 41.5 
Q 54.890625 34.8125 54.890625 23.390625 
Q 54.890625 11.625 47.5625 5.09375 
Q 40.234375 -1.421875 26.90625 -1.421875 
Q 22.3125 -1.421875 17.546875 -0.640625 
Q 12.796875 0.140625 7.71875 1.703125 
L 7.71875 11.625 
Q 12.109375 9.234375 16.796875 8.0625 
Q 21.484375 6.890625 26.703125 6.890625 
Q 35.15625 6.890625 40.078125 11.328125 
Q 45.015625 15.765625 45.015625 23.390625 
Q 45.015625 31 40.078125 35.4375 
Q 35.15625 39.890625 26.703125 39.890625 
Q 22.75 39.890625 18.8125 39.015625 
Q 14.890625 38.140625 10.796875 36.28125 
z
" id="DejaVuSans-53"/>
       </defs>
       <use xlink:href="#DejaVuSans-53"/>
       <use x="63.623047" xlink:href="#DejaVuSans-48"/>
       <use x="127.246094" xlink:href="#DejaVuSans-48"/>
       <use x="190.869141" xlink:href="#DejaVuSans-48"/>
      </g>
     </g>
    </g>
    <g id="text_14">
     <!-- Number of pip-installs on MacOS/Windows per month -->
     <g transform="translate(51.470312 312.650781)rotate(-90)scale(0.1 -0.1)">
      <defs>
       <path d="M 9.8125 72.90625 
L 23.09375 72.90625 
L 55.421875 11.921875 
L 55.421875 72.90625 
L 64.984375 72.90625 
L 64.984375 0 
L 51.703125 0 
L 19.390625 60.984375 
L 19.390625 0 
L 9.8125 0 
z
" id="DejaVuSans-78"/>
       <path d="M 52 44.1875 
Q 55.375 50.25 60.0625 53.125 
Q 64.75 56 71.09375 56 
Q 79.640625 56 84.28125 50.015625 
Q 88.921875 44.046875 88.921875 33.015625 
L 88.921875 0 
L 79.890625 0 
L 79.890625 32.71875 
Q 79.890625 40.578125 77.09375 44.375 
Q 74.3125 48.1875 68.609375 48.1875 
Q 61.625 48.1875 57.5625 43.546875 
Q 53.515625 38.921875 53.515625 30.90625 
L 53.515625 0 
L 44.484375 0 
L 44.484375 32.71875 
Q 44.484375 40.625 41.703125 44.40625 
Q 38.921875 48.1875 33.109375 48.1875 
Q 26.21875 48.1875 22.15625 43.53125 
Q 18.109375 38.875 18.109375 30.90625 
L 18.109375 0 
L 9.078125 0 
L 9.078125 54.6875 
L 18.109375 54.6875 
L 18.109375 46.1875 
Q 21.1875 51.21875 25.484375 53.609375 
Q 29.78125 56 35.6875 56 
Q 41.65625 56 45.828125 52.96875 
Q 50 49.953125 52 44.1875 
z
" id="DejaVuSans-109"/>
       <path d="M 48.6875 27.296875 
Q 48.6875 37.203125 44.609375 42.84375 
Q 40.53125 48.484375 33.40625 48.484375 
Q 26.265625 48.484375 22.1875 42.84375 
Q 18.109375 37.203125 18.109375 27.296875 
Q 18.109375 17.390625 22.1875 11.75 
Q 26.265625 6.109375 33.40625 6.109375 
Q 40.53125 6.109375 44.609375 11.75 
Q 48.6875 17.390625 48.6875 27.296875 
z
M 18.109375 46.390625 
Q 20.953125 51.265625 25.265625 53.625 
Q 29.59375 56 35.59375 56 
Q 45.5625 56 51.78125 48.09375 
Q 58.015625 40.1875 58.015625 27.296875 
Q 58.015625 14.40625 51.78125 6.484375 
Q 45.5625 -1.421875 35.59375 -1.421875 
Q 29.59375 -1.421875 25.265625 0.953125 
Q 20.953125 3.328125 18.109375 8.203125 
L 18.109375 0 
L 9.078125 0 
L 9.078125 75.984375 
L 18.109375 75.984375 
z
" id="DejaVuSans-98"/>
       <path d="M 56.203125 29.59375 
L 56.203125 25.203125 
L 14.890625 25.203125 
Q 15.484375 15.921875 20.484375 11.0625 
Q 25.484375 6.203125 34.421875 6.203125 
Q 39.59375 6.203125 44.453125 7.46875 
Q 49.3125 8.734375 54.109375 11.28125 
L 54.109375 2.78125 
Q 49.265625 0.734375 44.1875 -0.34375 
Q 39.109375 -1.421875 33.890625 -1.421875 
Q 20.796875 -1.421875 13.15625 6.1875 
Q 5.515625 13.8125 5.515625 26.8125 
Q 5.515625 40.234375 12.765625 48.109375 
Q 20.015625 56 32.328125 56 
Q 43.359375 56 49.78125 48.890625 
Q 56.203125 41.796875 56.203125 29.59375 
z
M 47.21875 32.234375 
Q 47.125 39.59375 43.09375 43.984375 
Q 39.0625 48.390625 32.421875 48.390625 
Q 24.90625 48.390625 20.390625 44.140625 
Q 15.875 39.890625 15.1875 32.171875 
z
" id="DejaVuSans-101"/>
       <path d="M 41.109375 46.296875 
Q 39.59375 47.171875 37.8125 47.578125 
Q 36.03125 48 33.890625 48 
Q 26.265625 48 22.1875 43.046875 
Q 18.109375 38.09375 18.109375 28.8125 
L 18.109375 0 
L 9.078125 0 
L 9.078125 54.6875 
L 18.109375 54.6875 
L 18.109375 46.1875 
Q 20.953125 51.171875 25.484375 53.578125 
Q 30.03125 56 36.53125 56 
Q 37.453125 56 38.578125 55.875 
Q 39.703125 55.765625 41.0625 55.515625 
z
" id="DejaVuSans-114"/>
       <path id="DejaVuSans-32"/>
       <path d="M 30.609375 48.390625 
Q 23.390625 48.390625 19.1875 42.75 
Q 14.984375 37.109375 14.984375 27.296875 
Q 14.984375 17.484375 19.15625 11.84375 
Q 23.34375 6.203125 30.609375 6.203125 
Q 37.796875 6.203125 41.984375 11.859375 
Q 46.1875 17.53125 46.1875 27.296875 
Q 46.1875 37.015625 41.984375 42.703125 
Q 37.796875 48.390625 30.609375 48.390625 
z
M 30.609375 56 
Q 42.328125 56 49.015625 48.375 
Q 55.71875 40.765625 55.71875 27.296875 
Q 55.71875 13.875 49.015625 6.21875 
Q 42.328125 -1.421875 30.609375 -1.421875 
Q 18.84375 -1.421875 12.171875 6.21875 
Q 5.515625 13.875 5.515625 27.296875 
Q 5.515625 40.765625 12.171875 48.375 
Q 18.84375 56 30.609375 56 
z
" id="DejaVuSans-111"/>
       <path d="M 37.109375 75.984375 
L 37.109375 68.5 
L 28.515625 68.5 
Q 23.6875 68.5 21.796875 66.546875 
Q 19.921875 64.59375 19.921875 59.515625 
L 19.921875 54.6875 
L 34.71875 54.6875 
L 34.71875 47.703125 
L 19.921875 47.703125 
L 19.921875 0 
L 10.890625 0 
L 10.890625 47.703125 
L 2.296875 47.703125 
L 2.296875 54.6875 
L 10.890625 54.6875 
L 10.890625 58.5 
Q 10.890625 67.625 15.140625 71.796875 
Q 19.390625 75.984375 28.609375 75.984375 
z
" id="DejaVuSans-102"/>
       <path d="M 18.109375 8.203125 
L 18.109375 -20.796875 
L 9.078125 -20.796875 
L 9.078125 54.6875 
L 18.109375 54.6875 
L 18.109375 46.390625 
Q 20.953125 51.265625 25.265625 53.625 
Q 29.59375 56 35.59375 56 
Q 45.5625 56 51.78125 48.09375 
Q 58.015625 40.1875 58.015625 27.296875 
Q 58.015625 14.40625 51.78125 6.484375 
Q 45.5625 -1.421875 35.59375 -1.421875 
Q 29.59375 -1.421875 25.265625 0.953125 
Q 20.953125 3.328125 18.109375 8.203125 
z
M 48.6875 27.296875 
Q 48.6875 37.203125 44.609375 42.84375 
Q 40.53125 48.484375 33.40625 48.484375 
Q 26.265625 48.484375 22.1875 42.84375 
Q 18.109375 37.203125 18.109375 27.296875 
Q 18.109375 17.390625 22.1875 11.75 
Q 26.265625 6.109375 33.40625 6.109375 
Q 40.53125 6.109375 44.609375 11.75 
Q 48.6875 17.390625 48.6875 27.296875 
z
" id="DejaVuSans-112"/>
       <path d="M 9.421875 54.6875 
L 18.40625 54.6875 
L 18.40625 0 
L 9.421875 0 
z
M 9.421875 75.984375 
L 18.40625 75.984375 
L 18.40625 64.59375 
L 9.421875 64.59375 
z
" id="DejaVuSans-105"/>
       <path d="M 4.890625 31.390625 
L 31.203125 31.390625 
L 31.203125 23.390625 
L 4.890625 23.390625 
z
" id="DejaVuSans-45"/>
       <path d="M 44.28125 53.078125 
L 44.28125 44.578125 
Q 40.484375 46.53125 36.375 47.5 
Q 32.28125 48.484375 27.875 48.484375 
Q 21.1875 48.484375 17.84375 46.4375 
Q 14.5 44.390625 14.5 40.28125 
Q 14.5 37.15625 16.890625 35.375 
Q 19.28125 33.59375 26.515625 31.984375 
L 29.59375 31.296875 
Q 39.15625 29.25 43.1875 25.515625 
Q 47.21875 21.78125 47.21875 15.09375 
Q 47.21875 7.46875 41.1875 3.015625 
Q 35.15625 -1.421875 24.609375 -1.421875 
Q 20.21875 -1.421875 15.453125 -0.5625 
Q 10.6875 0.296875 5.421875 2 
L 5.421875 11.28125 
Q 10.40625 8.6875 15.234375 7.390625 
Q 20.0625 6.109375 24.8125 6.109375 
Q 31.15625 6.109375 34.5625 8.28125 
Q 37.984375 10.453125 37.984375 14.40625 
Q 37.984375 18.0625 35.515625 20.015625 
Q 33.0625 21.96875 24.703125 23.78125 
L 21.578125 24.515625 
Q 13.234375 26.265625 9.515625 29.90625 
Q 5.8125 33.546875 5.8125 39.890625 
Q 5.8125 47.609375 11.28125 51.796875 
Q 16.75 56 26.8125 56 
Q 31.78125 56 36.171875 55.265625 
Q 40.578125 54.546875 44.28125 53.078125 
z
" id="DejaVuSans-115"/>
       <path d="M 18.3125 70.21875 
L 18.3125 54.6875 
L 36.8125 54.6875 
L 36.8125 47.703125 
L 18.3125 47.703125 
L 18.3125 18.015625 
Q 18.3125 11.328125 20.140625 9.421875 
Q 21.96875 7.515625 27.59375 7.515625 
L 36.8125 7.515625 
L 36.8125 0 
L 27.59375 0 
Q 17.1875 0 13.234375 3.875 
Q 9.28125 7.765625 9.28125 18.015625 
L 9.28125 47.703125 
L 2.6875 47.703125 
L 2.6875 54.6875 
L 9.28125 54.6875 
L 9.28125 70.21875 
z
" id="DejaVuSans-116"/>
       <path d="M 9.8125 72.90625 
L 24.515625 72.90625 
L 43.109375 23.296875 
L 61.8125 72.90625 
L 76.515625 72.90625 
L 76.515625 0 
L 66.890625 0 
L 66.890625 64.015625 
L 48.09375 14.015625 
L 38.1875 14.015625 
L 19.390625 64.015625 
L 19.390625 0 
L 9.8125 0 
z
" id="DejaVuSans-77"/>
       <path d="M 48.78125 52.59375 
L 48.78125 44.1875 
Q 44.96875 46.296875 41.140625 47.34375 
Q 37.3125 48.390625 33.40625 48.390625 
Q 24.65625 48.390625 19.8125 42.84375 
Q 14.984375 37.3125 14.984375 27.296875 
Q 14.984375 17.28125 19.8125 11.734375 
Q 24.65625 6.203125 33.40625 6.203125 
Q 37.3125 6.203125 41.140625 7.25 
Q 44.96875 8.296875 48.78125 10.40625 
L 48.78125 2.09375 
Q 45.015625 0.34375 40.984375 -0.53125 
Q 36.96875 -1.421875 32.421875 -1.421875 
Q 20.0625 -1.421875 12.78125 6.34375 
Q 5.515625 14.109375 5.515625 27.296875 
Q 5.515625 40.671875 12.859375 48.328125 
Q 20.21875 56 33.015625 56 
Q 37.15625 56 41.109375 55.140625 
Q 45.0625 54.296875 48.78125 52.59375 
z
" id="DejaVuSans-99"/>
       <path d="M 39.40625 66.21875 
Q 28.65625 66.21875 22.328125 58.203125 
Q 16.015625 50.203125 16.015625 36.375 
Q 16.015625 22.609375 22.328125 14.59375 
Q 28.65625 6.59375 39.40625 6.59375 
Q 50.140625 6.59375 56.421875 14.59375 
Q 62.703125 22.609375 62.703125 36.375 
Q 62.703125 50.203125 56.421875 58.203125 
Q 50.140625 66.21875 39.40625 66.21875 
z
M 39.40625 74.21875 
Q 54.734375 74.21875 63.90625 63.9375 
Q 73.09375 53.65625 73.09375 36.375 
Q 73.09375 19.140625 63.90625 8.859375 
Q 54.734375 -1.421875 39.40625 -1.421875 
Q 24.03125 -1.421875 14.8125 8.828125 
Q 5.609375 19.09375 5.609375 36.375 
Q 5.609375 53.65625 14.8125 63.9375 
Q 24.03125 74.21875 39.40625 74.21875 
z
" id="DejaVuSans-79"/>
       <path d="M 53.515625 70.515625 
L 53.515625 60.890625 
Q 47.90625 63.578125 42.921875 64.890625 
Q 37.9375 66.21875 33.296875 66.21875 
Q 25.25 66.21875 20.875 63.09375 
Q 16.5 59.96875 16.5 54.203125 
Q 16.5 49.359375 19.40625 46.890625 
Q 22.3125 44.4375 30.421875 42.921875 
L 36.375 41.703125 
Q 47.40625 39.59375 52.65625 34.296875 
Q 57.90625 29 57.90625 20.125 
Q 57.90625 9.515625 50.796875 4.046875 
Q 43.703125 -1.421875 29.984375 -1.421875 
Q 24.8125 -1.421875 18.96875 -0.25 
Q 13.140625 0.921875 6.890625 3.21875 
L 6.890625 13.375 
Q 12.890625 10.015625 18.65625 8.296875 
Q 24.421875 6.59375 29.984375 6.59375 
Q 38.421875 6.59375 43.015625 9.90625 
Q 47.609375 13.234375 47.609375 19.390625 
Q 47.609375 24.75 44.3125 27.78125 
Q 41.015625 30.8125 33.5 32.328125 
L 27.484375 33.5 
Q 16.453125 35.6875 11.515625 40.375 
Q 6.59375 45.0625 6.59375 53.421875 
Q 6.59375 63.09375 13.40625 68.65625 
Q 20.21875 74.21875 32.171875 74.21875 
Q 37.3125 74.21875 42.625 73.28125 
Q 47.953125 72.359375 53.515625 70.515625 
z
" id="DejaVuSans-83"/>
       <path d="M 25.390625 72.90625 
L 33.6875 72.90625 
L 8.296875 -9.28125 
L 0 -9.28125 
z
" id="DejaVuSans-47"/>
       <path d="M 3.328125 72.90625 
L 13.28125 72.90625 
L 28.609375 11.28125 
L 43.890625 72.90625 
L 54.984375 72.90625 
L 70.3125 11.28125 
L 85.59375 72.90625 
L 95.609375 72.90625 
L 77.296875 0 
L 64.890625 0 
L 49.515625 63.28125 
L 33.984375 0 
L 21.578125 0 
z
" id="DejaVuSans-87"/>
       <path d="M 45.40625 46.390625 
L 45.40625 75.984375 
L 54.390625 75.984375 
L 54.390625 0 
L 45.40625 0 
L 45.40625 8.203125 
Q 42.578125 3.328125 38.25 0.953125 
Q 33.9375 -1.421875 27.875 -1.421875 
Q 17.96875 -1.421875 11.734375 6.484375 
Q 5.515625 14.40625 5.515625 27.296875 
Q 5.515625 40.1875 11.734375 48.09375 
Q 17.96875 56 27.875 56 
Q 33.9375 56 38.25 53.625 
Q 42.578125 51.265625 45.40625 46.390625 
z
M 14.796875 27.296875 
Q 14.796875 17.390625 18.875 11.75 
Q 22.953125 6.109375 30.078125 6.109375 
Q 37.203125 6.109375 41.296875 11.75 
Q 45.40625 17.390625 45.40625 27.296875 
Q 45.40625 37.203125 41.296875 42.84375 
Q 37.203125 48.484375 30.078125 48.484375 
Q 22.953125 48.484375 18.875 42.84375 
Q 14.796875 37.203125 14.796875 27.296875 
z
" id="DejaVuSans-100"/>
       <path d="M 4.203125 54.6875 
L 13.1875 54.6875 
L 24.421875 12.015625 
L 35.59375 54.6875 
L 46.1875 54.6875 
L 57.421875 12.015625 
L 68.609375 54.6875 
L 77.59375 54.6875 
L 63.28125 0 
L 52.6875 0 
L 40.921875 44.828125 
L 29.109375 0 
L 18.5 0 
z
" id="DejaVuSans-119"/>
       <path d="M 54.890625 33.015625 
L 54.890625 0 
L 45.90625 0 
L 45.90625 32.71875 
Q 45.90625 40.484375 42.875 44.328125 
Q 39.84375 48.1875 33.796875 48.1875 
Q 26.515625 48.1875 22.3125 43.546875 
Q 18.109375 38.921875 18.109375 30.90625 
L 18.109375 0 
L 9.078125 0 
L 9.078125 75.984375 
L 18.109375 75.984375 
L 18.109375 46.1875 
Q 21.34375 51.125 25.703125 53.5625 
Q 30.078125 56 35.796875 56 
Q 45.21875 56 50.046875 50.171875 
Q 54.890625 44.34375 54.890625 33.015625 
z
" id="DejaVuSans-104"/>
      </defs>
      <use xlink:href="#DejaVuSans-78"/>
      <use x="74.804688" xlink:href="#DejaVuSans-117"/>
      <use x="138.183594" xlink:href="#DejaVuSans-109"/>
      <use x="235.595703" xlink:href="#DejaVuSans-98"/>
      <use x="299.072266" xlink:href="#DejaVuSans-101"/>
      <use x="360.595703" xlink:href="#DejaVuSans-114"/>
      <use x="401.708984" xlink:href="#DejaVuSans-32"/>
      <use x="433.496094" xlink:href="#DejaVuSans-111"/>
      <use x="494.677734" xlink:href="#DejaVuSans-102"/>
      <use x="529.882812" xlink:href="#DejaVuSans-32"/>
      <use x="561.669922" xlink:href="#DejaVuSans-112"/>
      <use x="625.146484" xlink:href="#DejaVuSans-105"/>
      <use x="652.929688" xlink:href="#DejaVuSans-112"/>
      <use x="716.40625" xlink:href="#DejaVuSans-45"/>
      <use x="752.490234" xlink:href="#DejaVuSans-105"/>
      <use x="780.273438" xlink:href="#DejaVuSans-110"/>
      <use x="843.652344" xlink:href="#DejaVuSans-115"/>
      <use x="895.751953" xlink:href="#DejaVuSans-116"/>
      <use x="934.960938" xlink:href="#DejaVuSans-97"/>
      <use x="996.240234" xlink:href="#DejaVuSans-108"/>
      <use x="1024.023438" xlink:href="#DejaVuSans-108"/>
      <use x="1051.806641" xlink:href="#DejaVuSans-115"/>
      <use x="1103.90625" xlink:href="#DejaVuSans-32"/>
      <use x="1135.693359" xlink:href="#DejaVuSans-111"/>
      <use x="1196.875" xlink:href="#DejaVuSans-110"/>
      <use x="1260.253906" xlink:href="#DejaVuSans-32"/>
      <use x="1292.041016" xlink:href="#DejaVuSans-77"/>
      <use x="1378.320312" xlink:href="#DejaVuSans-97"/>
      <use x="1439.599609" xlink:href="#DejaVuSans-99"/>
      <use x="1494.580078" xlink:href="#DejaVuSans-79"/>
      <use x="1573.291016" xlink:href="#DejaVuSans-83"/>
      <use x="1636.767578" xlink:href="#DejaVuSans-47"/>
      <use x="1670.458984" xlink:href="#DejaVuSans-87"/>
      <use x="1767.085938" xlink:href="#DejaVuSans-105"/>
      <use x="1794.869141" xlink:href="#DejaVuSans-110"/>
      <use x="1858.248047" xlink:href="#DejaVuSans-100"/>
      <use x="1921.724609" xlink:href="#DejaVuSans-111"/>
      <use x="1982.90625" xlink:href="#DejaVuSans-119"/>
      <use x="2064.693359" xlink:href="#DejaVuSans-115"/>
      <use x="2116.792969" xlink:href="#DejaVuSans-32"/>
      <use x="2148.580078" xlink:href="#DejaVuSans-112"/>
      <use x="2212.056641" xlink:href="#DejaVuSans-101"/>
      <use x="2273.580078" xlink:href="#DejaVuSans-114"/>
      <use x="2314.693359" xlink:href="#DejaVuSans-32"/>
      <use x="2346.480469" xlink:href="#DejaVuSans-109"/>
      <use x="2443.892578" xlink:href="#DejaVuSans-111"/>
      <use x="2505.074219" xlink:href="#DejaVuSans-110"/>
      <use x="2568.453125" xlink:href="#DejaVuSans-116"/>
      <use x="2607.662109" xlink:href="#DejaVuSans-104"/>
     </g>
    </g>
   </g>
   <g id="line2d_50">
    <path clip-path="url(#pe721c81e08)" d="M -1 313.682594 
L 4.153846 312.548898 
L 8.446154 312.276553 
L 12.738462 310.043327 
L 17.030769 308.518196 
L 21.323077 308.572665 
L 25.615385 311.513988 
L 29.907692 313.365932 
L 34.2 313.638277 
L 38.492308 312.93018 
L 47.076923 312.712305 
L 55.661538 312.875711 
L 59.953846 312.167615 
L 64.246154 309.934389 
L 68.538462 307.919038 
L 72.830769 307.864569 
L 77.123077 309.825451 
L 81.415385 310.37014 
L 85.707692 311.078236 
L 90 311.023768 
L 94.292308 312.712305 
L 98.584615 311.622926 
L 102.876923 311.568457 
L 107.169231 310.642485 
L 111.461538 310.533547 
L 115.753846 310.751423 
L 120.046154 310.696954 
L 124.338462 311.350581 
L 128.630769 311.786333 
L 137.215385 311.40505 
L 145.8 311.132705 
L 150.092308 311.622926 
L 154.384615 311.513988 
L 158.676923 312.821242 
L 167.261538 313.47487 
L 171.553846 312.276553 
L 175.846154 312.113146 
L 180.138462 312.331022 
L 184.430769 314.074028 
L 193.015385 314.291904 
L 197.307692 313.910621 
L 201.6 313.747214 
L 205.892308 313.747214 
L 210.184615 313.96509 
L 214.476923 314.346373 
L 218.769231 313.856152 
L 223.061538 312.984649 
L 227.353846 311.513988 
L 231.646154 311.731864 
L 235.938462 312.222084 
L 240.230769 313.801683 
L 244.523077 313.692745 
L 248.815385 313.202525 
L 253.107692 313.039118 
L 257.4 313.256994 
L 261.692308 314.182966 
L 270.276923 314.074028 
L 274.569231 313.692745 
L 278.861538 313.801683 
L 283.153846 313.638277 
L 287.446154 313.856152 
L 291.738462 313.47487 
L 296.030769 313.692745 
L 300.323077 312.875711 
L 304.615385 307.864569 
L 313.2 306.611784 
L 317.492308 311.078236 
L 321.784615 310.315671 
L 326.076923 311.132705 
L 330.369231 311.350581 
L 334.661538 306.884128 
L 338.953846 303.615992 
L 343.246154 298.986132 
L 347.538462 300.892545 
L 351.830769 303.942806 
L 356.123077 307.592224 
L 360.415385 309.008417 
L 364.707692 308.681603 
L 369 308.136914 
L 373.292308 309.553106 
L 377.584615 309.553106 
L 381.876923 308.736072 
L 386.169231 304.487495 
L 390.461538 303.125772 
L 394.753846 300.565731 
L 399.046154 305.958156 
L 403.338462 307.646693 
L 407.630769 305.413467 
L 411.923077 292.776673 
L 416.215385 287.220842 
L 420.507692 287.493186 
L 424.8 281.937355 
L 429.092308 279.59519 
L 433.384615 270.335471 
L 437.676923 276.54493 
L 441.969231 280.521162 
L 446.261538 293.049018 
L 450.553846 303.507054 
L 454.846154 301.927455 
L 459.138462 298.659319 
L 463.430769 284.715271 
L 467.723077 281.719479 
L 472.015385 269.572906 
L 476.307692 272.895511 
L 480.6 270.825691 
L 484.892308 272.187415 
L 489.184615 272.024008 
L 493.476923 278.015591 
L 497.769231 294.356273 
L 502.061538 297.243126 
L 506.353846 290.325571 
L 510.646154 279.486253 
L 514.938462 267.121804 
L 519.230769 238.634549 
L 523.523077 228.448858 
L 527.815385 227.631824 
L 532.107692 238.525611 
L 536.4 225.997756 
L 540.692308 202.303768 
L 544.984615 167.715992 
L 549.276923 156.223046 
L 553.569231 155.841764 
L 557.861538 192.44489 
L 562.153846 200.233948 
L 566.446154 220.11511 
L 570.738462 220.278517 
L 575.030769 240.976713 
L 579.323077 256.064609 
L 583.615385 239.288176 
L 587.907692 233.623407 
L 592.2 204.645932 
L 596.492308 209.820481 
L 600.784615 218.263166 
L 605.076923 221.64024 
L 609.369231 234.821723 
L 613.661538 214.99503 
L 617.953846 227.087134 
L 622.246154 211.890301 
L 626.538462 228.230982 
L 630.830769 211.835832 
L 635.123077 211.073267 
L 643.707692 144.403287 
L 648 144.512224 
L 648 144.512224 
" style="fill:none;stroke:#1f77b4;stroke-dasharray:1.5,2.475;stroke-dashoffset:0;stroke-width:1.5;"/>
   </g>
   <g id="line2d_51">
    <path clip-path="url(#pe721c81e08)" d="M -1 313.214239 
L -0.138462 312.984649 
L 4.153846 310.696954 
L 8.446154 310.533547 
L 12.738462 310.696954 
L 17.030769 309.117355 
L 21.323077 308.300321 
L 25.615385 307.919038 
L 29.907692 310.043327 
L 34.2 309.988858 
L 38.492308 309.33523 
L 42.784615 309.770982 
L 47.076923 309.607575 
L 51.369231 309.716513 
L 55.661538 307.701162 
L 59.953846 307.483287 
L 64.246154 305.304529 
L 68.538462 306.448377 
L 72.830769 304.21515 
L 77.123077 306.339439 
L 81.415385 307.210942 
L 85.707692 311.350581 
L 90 311.677395 
L 102.876923 309.280762 
L 107.169231 310.152265 
L 111.461538 309.988858 
L 115.753846 311.132705 
L 120.046154 311.241643 
L 124.338462 310.91483 
L 132.923077 309.988858 
L 141.507692 310.315671 
L 145.8 310.969299 
L 150.092308 310.642485 
L 154.384615 310.642485 
L 158.676923 309.87992 
L 162.969231 309.988858 
L 167.261538 309.825451 
L 171.553846 310.097796 
L 184.430769 309.934389 
L 188.723077 309.716513 
L 193.015385 309.825451 
L 197.307692 310.533547 
L 210.184615 310.805892 
L 214.476923 311.786333 
L 218.769231 310.860361 
L 223.061538 310.751423 
L 227.353846 309.444168 
L 231.646154 310.588016 
L 235.938462 310.533547 
L 240.230769 311.350581 
L 244.523077 310.533547 
L 253.107692 311.023768 
L 257.4 311.731864 
L 261.692308 311.622926 
L 265.984615 311.731864 
L 270.276923 311.677395 
L 274.569231 311.895271 
L 278.861538 312.43996 
L 283.153846 312.222084 
L 287.446154 311.786333 
L 291.738462 311.023768 
L 296.030769 311.350581 
L 300.323077 312.222084 
L 304.615385 312.548898 
L 308.907692 312.548898 
L 313.2 312.712305 
L 321.784615 313.747214 
L 326.076923 313.583808 
L 330.369231 314.019559 
L 334.661538 312.712305 
L 338.953846 311.568457 
L 343.246154 309.389699 
L 347.538462 309.607575 
L 351.830769 308.572665 
L 356.123077 308.300321 
L 360.415385 306.884128 
L 364.707692 306.448377 
L 369 306.611784 
L 373.292308 307.701162 
L 377.584615 307.31988 
L 381.876923 306.666253 
L 386.169231 306.393908 
L 390.461538 306.829659 
L 394.753846 307.537756 
L 399.046154 309.444168 
L 403.338462 310.043327 
L 407.630769 309.934389 
L 411.923077 308.300321 
L 424.8 306.230501 
L 429.092308 305.467936 
L 433.384615 305.467936 
L 437.676923 306.557315 
L 441.969231 306.829659 
L 446.261538 307.646693 
L 454.846154 308.300321 
L 459.138462 307.755631 
L 463.430769 306.448377 
L 467.723077 307.374349 
L 472.015385 306.829659 
L 480.6 309.117355 
L 484.892308 310.805892 
L 489.184615 310.588016 
L 493.476923 309.607575 
L 497.769231 308.790541 
L 502.061538 309.934389 
L 506.353846 311.296112 
L 510.646154 312.167615 
L 514.938462 310.642485 
L 519.230769 308.463727 
L 523.523077 308.300321 
L 527.815385 309.662044 
L 532.107692 310.860361 
L 536.4 311.622926 
L 540.692308 311.023768 
L 544.984615 311.568457 
L 549.276923 311.078236 
L 553.569231 312.43996 
L 562.153846 313.638277 
L 566.446154 312.222084 
L 575.030769 311.187174 
L 579.323077 311.568457 
L 583.615385 311.513988 
L 587.907692 310.805892 
L 592.2 310.805892 
L 596.492308 310.043327 
L 600.784615 310.91483 
L 605.076923 310.805892 
L 609.369231 311.786333 
L 613.661538 311.677395 
L 617.953846 311.731864 
L 622.246154 312.058677 
L 626.538462 311.895271 
L 630.830769 311.949739 
L 635.123077 311.786333 
L 639.415385 312.331022 
L 643.707692 312.276553 
L 648 312.657836 
L 648 312.657836 
" style="fill:none;stroke:#ff7f0e;stroke-dasharray:1.5,2.475;stroke-dashoffset:0;stroke-width:1.5;"/>
   </g>
   <g id="line2d_52">
    <path clip-path="url(#pe721c81e08)" d="M -1 311.570019 
L -0.138462 311.132705 
L 4.153846 309.33523 
L 12.738462 309.171824 
L 17.030769 305.685812 
L 21.323077 304.75984 
L 25.615385 305.522405 
L 29.907692 309.716513 
L 34.2 311.622926 
L 38.492308 311.895271 
L 42.784615 311.568457 
L 47.076923 311.677395 
L 51.369231 310.642485 
L 55.661538 308.790541 
L 59.953846 307.755631 
L 64.246154 307.047535 
L 68.538462 309.33523 
L 72.830769 308.027976 
L 77.123077 308.300321 
L 81.415385 308.191383 
L 85.707692 310.751423 
L 90 312.603367 
L 94.292308 312.167615 
L 98.584615 310.642485 
L 102.876923 309.87992 
L 107.169231 310.37014 
L 111.461538 311.241643 
L 115.753846 311.078236 
L 120.046154 311.622926 
L 124.338462 310.860361 
L 128.630769 310.315671 
L 137.215385 310.91483 
L 141.507692 312.113146 
L 145.8 311.187174 
L 150.092308 312.004208 
L 154.384615 311.786333 
L 158.676923 312.222084 
L 162.969231 312.222084 
L 167.261538 312.385491 
L 171.553846 312.222084 
L 175.846154 311.677395 
L 180.138462 310.969299 
L 188.723077 310.969299 
L 193.015385 311.949739 
L 201.6 311.296112 
L 205.892308 310.152265 
L 210.184615 310.206733 
L 214.476923 310.751423 
L 218.769231 310.91483 
L 223.061538 310.424609 
L 227.353846 310.424609 
L 231.646154 311.187174 
L 235.938462 312.93018 
L 240.230769 312.93018 
L 244.523077 313.801683 
L 248.815385 313.311463 
L 253.107692 313.529339 
L 265.984615 312.004208 
L 270.276923 312.385491 
L 278.861538 313.583808 
L 283.153846 312.712305 
L 291.738462 312.93018 
L 296.030769 313.583808 
L 317.492308 314.400842 
L 326.076923 314.291904 
L 330.369231 314.237435 
L 338.953846 312.494429 
L 343.246154 311.241643 
L 347.538462 312.058677 
L 351.830769 311.949739 
L 356.123077 312.167615 
L 360.415385 310.588016 
L 369 309.87992 
L 373.292308 310.315671 
L 377.584615 310.969299 
L 381.876923 310.043327 
L 386.169231 311.023768 
L 390.461538 310.37014 
L 394.753846 311.568457 
L 399.046154 311.241643 
L 403.338462 312.276553 
L 407.630769 312.712305 
L 411.923077 312.167615 
L 416.215385 310.751423 
L 429.092308 311.513988 
L 433.384615 308.463727 
L 437.676923 308.518196 
L 441.969231 309.226293 
L 446.261538 311.895271 
L 450.553846 312.385491 
L 463.430769 312.494429 
L 467.723077 312.113146 
L 472.015385 310.91483 
L 480.6 311.459519 
L 484.892308 312.821242 
L 489.184615 312.494429 
L 493.476923 312.712305 
L 497.769231 312.004208 
L 506.353846 312.657836 
L 510.646154 313.638277 
L 519.230769 312.821242 
L 523.523077 312.058677 
L 527.815385 311.459519 
L 532.107692 311.187174 
L 536.4 310.424609 
L 544.984615 310.860361 
L 553.569231 313.093587 
L 557.861538 313.692745 
L 562.153846 313.692745 
L 566.446154 313.856152 
L 570.738462 312.821242 
L 575.030769 312.657836 
L 579.323077 311.568457 
L 583.615385 311.459519 
L 587.907692 310.91483 
L 592.2 310.533547 
L 596.492308 311.296112 
L 600.784615 311.895271 
L 605.076923 312.766774 
L 609.369231 312.984649 
L 613.661538 312.548898 
L 617.953846 312.603367 
L 622.246154 311.568457 
L 626.538462 312.058677 
L 630.830769 312.222084 
L 635.123077 312.93018 
L 639.415385 313.093587 
L 643.707692 312.657836 
L 648 313.039118 
L 648 313.039118 
" style="fill:none;stroke:#2ca02c;stroke-dasharray:1.5,2.475;stroke-dashoffset:0;stroke-width:1.5;"/>
   </g>
   <g id="line2d_53">
    <path clip-path="url(#pe721c81e08)" d="M -1 315.544689 
L 197.307692 315.544689 
L 201.6 315.217876 
L 210.184615 314.945531 
L 214.476923 315.163407 
L 227.353846 315.217876 
L 235.938462 314.836593 
L 240.230769 314.455311 
L 248.815385 314.618717 
L 253.107692 314.891062 
L 261.692308 314.891062 
L 265.984615 315 
L 270.276923 314.128497 
L 274.569231 313.638277 
L 278.861538 312.93018 
L 283.153846 313.47487 
L 287.446154 313.583808 
L 300.323077 314.50978 
L 304.615385 314.673186 
L 308.907692 314.400842 
L 313.2 313.96509 
L 321.784615 313.47487 
L 330.369231 314.019559 
L 334.661538 313.583808 
L 338.953846 312.766774 
L 343.246154 311.677395 
L 356.123077 312.984649 
L 360.415385 310.097796 
L 364.707692 307.864569 
L 369 305.958156 
L 373.292308 306.77519 
L 377.584615 306.77519 
L 381.876923 306.230501 
L 386.169231 304.433026 
L 394.753846 305.358998 
L 399.046154 309.389699 
L 403.338462 308.84501 
L 407.630769 309.87992 
L 411.923077 306.884128 
L 416.215385 305.794749 
L 420.507692 304.269619 
L 424.8 303.997275 
L 429.092308 303.398116 
L 433.384615 297.896754 
L 437.676923 295.935872 
L 441.969231 294.574148 
L 446.261538 298.713788 
L 454.846154 304.106212 
L 459.138462 304.650902 
L 463.430769 303.398116 
L 467.723077 302.962365 
L 472.015385 302.363206 
L 476.307692 302.308737 
L 480.6 301.055952 
L 484.892308 301.927455 
L 489.184615 302.635551 
L 493.476923 303.507054 
L 497.769231 302.635551 
L 502.061538 302.472144 
L 506.353846 300.674669 
L 510.646154 300.075511 
L 514.938462 293.157956 
L 519.230769 260.585531 
L 523.523077 249.419399 
L 527.815385 244.408257 
L 532.107692 261.511503 
L 536.4 255.628858 
L 540.692308 240.704369 
L 544.984615 217.228257 
L 549.276923 188.087375 
L 553.569231 167.389178 
L 557.861538 164.829138 
L 562.153846 161.179719 
L 566.446154 178.664248 
L 570.738462 173.053948 
L 575.030769 199.689259 
L 579.323077 206.552345 
L 583.615385 199.852665 
L 587.907692 178.010621 
L 592.2 138.302766 
L 596.492308 132.093307 
L 600.784615 132.801403 
L 605.076923 138.956393 
L 609.369231 154.915792 
L 613.661538 157.530301 
L 617.953846 176.376553 
L 622.246154 164.992545 
L 626.538462 160.907375 
L 630.830769 110.305731 
L 635.123077 114.49984 
L 639.415385 104.804369 
L 643.707692 99.793226 
L 648 101.536232 
L 648 101.536232 
" style="fill:none;stroke:#d62728;stroke-linecap:square;stroke-width:1.5;"/>
   </g>
   <g id="line2d_54">
    <path clip-path="url(#pe721c81e08)" d="M -1 315.544689 
L 343.246154 315.435752 
L 351.830769 315.054469 
L 356.123077 314.50978 
L 360.415385 302.526613 
L 364.707692 277.57984 
L 369 263.036633 
L 373.292308 257.262926 
L 377.584615 277.525371 
L 381.876923 280.521162 
L 386.169231 289.88982 
L 390.461538 275.0198 
L 394.753846 262.437475 
L 399.046154 262.001723 
L 403.338462 254.321603 
L 407.630769 261.457034 
L 411.923077 251.053467 
L 416.215385 255.410982 
L 420.507692 264.943046 
L 424.8 257.698677 
L 429.092308 231.880401 
L 433.384615 199.63479 
L 437.676923 199.961603 
L 441.969231 234.603848 
L 446.261538 213.415431 
L 450.553846 209.493667 
L 454.846154 212.92521 
L 459.138462 223.655591 
L 463.430769 208.731102 
L 467.723077 150.776152 
L 472.015385 110.196794 
L 476.307692 78.005651 
L 480.6 92.875671 
L 484.892308 124.903407 
L 489.184615 171.41988 
L 493.476923 190.048257 
L 497.769231 215.158437 
L 502.061538 220.006172 
L 506.353846 217.936353 
L 510.646154 223.165371 
L 514.938462 204.264649 
L 519.230769 169.622405 
L 523.523077 161.016313 
L 527.815385 162.922725 
L 532.107692 203.556553 
L 536.4 201.268858 
L 540.692308 201.759078 
L 544.984615 180.243848 
L 549.276923 145.165852 
L 553.569231 96.470621 
L 557.861538 90.261162 
L 562.153846 100.446854 
L 566.446154 151.375311 
L 570.738462 146.527575 
L 575.030769 178.773186 
L 579.323077 189.067816 
L 583.615385 189.558036 
L 587.907692 171.147535 
L 592.2 130.786052 
L 596.492308 126.428537 
L 600.784615 127.30004 
L 605.076923 136.668697 
L 609.369231 142.823687 
L 613.661538 134.48994 
L 617.953846 154.153226 
L 622.246154 147.83483 
L 626.538462 154.861323 
L 630.830769 102.353267 
L 635.123077 113.138116 
L 639.415385 99.357475 
L 643.707692 92.657796 
L 648 93.910581 
L 648 93.910581 
" style="fill:none;stroke:#9467bd;stroke-linecap:square;stroke-width:1.5;"/>
   </g>
   <g id="line2d_55">
    <path clip-path="url(#pe721c81e08)" d="M -1 315.544689 
L 429.092308 315.435752 
L 437.676923 315.435752 
L 514.938462 315.381283 
L 523.523077 315.108938 
L 532.107692 315.217876 
L 536.4 315.272345 
L 540.692308 315.163407 
L 557.861538 315.544689 
L 579.323077 315.435752 
L 587.907692 315.272345 
L 600.784615 315.381283 
L 622.246154 315.544689 
L 648 315.435752 
L 648 315.435752 
" style="fill:none;stroke:#8c564b;stroke-linecap:square;stroke-width:1.5;"/>
   </g>
   <g id="line2d_56">
    <path clip-path="url(#pe721c81e08)" d="M -1 315.544689 
L 343.246154 315.544689 
L 347.538462 315.108938 
L 356.123077 314.945531 
L 360.415385 315.217876 
L 369 315.108938 
L 386.169231 315.49022 
L 399.046154 315.435752 
L 407.630769 315.217876 
L 416.215385 315.108938 
L 424.8 315.054469 
L 433.384615 315.326814 
L 441.969231 315.272345 
L 450.553846 315.272345 
L 459.138462 315.163407 
L 463.430769 314.50978 
L 472.015385 314.400842 
L 476.307692 314.836593 
L 484.892308 314.836593 
L 489.184615 314.346373 
L 497.769231 314.128497 
L 502.061538 314.618717 
L 506.353846 314.618717 
L 519.230769 315.217876 
L 523.523077 315 
L 527.815385 314.618717 
L 536.4 314.291904 
L 540.692308 312.657836 
L 544.984615 305.958156 
L 549.276923 301.818517 
L 553.569231 298.005691 
L 557.861538 301.491703 
L 562.153846 301.055952 
L 566.446154 303.670461 
L 570.738462 304.106212 
L 575.030769 307.047535 
L 579.323077 308.572665 
L 583.615385 301.981924 
L 587.907692 291.306012 
L 592.2 279.704128 
L 596.492308 276.109178 
L 600.784615 282.590982 
L 605.076923 286.948497 
L 609.369231 293.375832 
L 613.661538 289.127255 
L 617.953846 290.488978 
L 622.246154 284.824208 
L 626.538462 288.146814 
L 630.830769 286.458277 
L 635.123077 287.438717 
L 639.415385 281.283727 
L 643.707692 270.716754 
L 648 271.152505 
L 648 271.152505 
" style="fill:none;stroke:#e377c2;stroke-linecap:square;stroke-width:1.5;"/>
   </g>
   <g id="line2d_57">
    <path clip-path="url(#pe721c81e08)" d="M -1 315.544689 
L 356.123077 315.49022 
L 360.415385 315.381283 
L 373.292308 315.49022 
L 381.876923 315.435752 
L 399.046154 315.544689 
L 407.630769 315.435752 
L 437.676923 315.381283 
L 446.261538 315.108938 
L 454.846154 315.326814 
L 459.138462 314.945531 
L 467.723077 314.891062 
L 472.015385 315.326814 
L 476.307692 315.381283 
L 480.6 315.217876 
L 484.892308 315.272345 
L 489.184615 315.163407 
L 497.769231 315.163407 
L 510.646154 315 
L 514.938462 314.727655 
L 523.523077 314.727655 
L 527.815385 315.054469 
L 536.4 315.326814 
L 549.276923 314.945531 
L 553.569231 314.673186 
L 562.153846 314.891062 
L 566.446154 315.381283 
L 575.030769 315.272345 
L 587.907692 315.054469 
L 596.492308 314.618717 
L 600.784615 314.618717 
L 605.076923 314.782124 
L 617.953846 314.782124 
L 622.246154 315.054469 
L 626.538462 315 
L 630.830769 311.296112 
L 635.123077 310.043327 
L 639.415385 308.082445 
L 643.707692 310.91483 
L 648 312.222084 
L 648 312.222084 
" style="fill:none;stroke:#7f7f7f;stroke-linecap:square;stroke-width:1.5;"/>
   </g>
   <g id="line2d_58">
    <path clip-path="url(#pe721c81e08)" d="M -1 315.544689 
L 467.723077 315.49022 
L 472.015385 314.891062 
L 480.6 314.455311 
L 484.892308 315 
L 493.476923 314.782124 
L 502.061538 314.727655 
L 506.353846 314.945531 
L 519.230769 314.782124 
L 523.523077 314.50978 
L 532.107692 314.618717 
L 536.4 314.727655 
L 540.692308 314.50978 
L 544.984615 314.019559 
L 549.276923 314.074028 
L 553.569231 314.346373 
L 557.861538 314.891062 
L 566.446154 314.727655 
L 570.738462 313.856152 
L 575.030769 313.96509 
L 579.323077 314.291904 
L 583.615385 315.108938 
L 587.907692 315.108938 
L 592.2 314.455311 
L 596.492308 313.202525 
L 605.076923 312.875711 
L 609.369231 313.96509 
L 613.661538 314.237435 
L 617.953846 315.108938 
L 622.246154 315.217876 
L 626.538462 314.836593 
L 635.123077 314.673186 
L 639.415385 315 
L 643.707692 314.618717 
L 648 314.673186 
L 648 314.673186 
" style="fill:none;stroke:#bcbd22;stroke-linecap:square;stroke-width:1.5;"/>
   </g>
   <g id="line2d_59">
    <path clip-path="url(#pe721c81e08)" d="M -1 315.544689 
L 523.523077 315.49022 
L 532.107692 314.836593 
L 536.4 314.836593 
L 549.276923 313.47487 
L 553.569231 306.611784 
L 557.861538 293.430301 
L 562.153846 286.076994 
L 566.446154 286.894028 
L 570.738462 290.652385 
L 575.030769 290.870261 
L 579.323077 289.181723 
L 583.615385 289.671944 
L 587.907692 288.800441 
L 592.2 284.170581 
L 596.492308 280.684569 
L 600.784615 280.575631 
L 605.076923 287.32978 
L 609.369231 287.928938 
L 613.661538 291.523888 
L 617.953846 293.430301 
L 622.246154 297.896754 
L 630.830769 291.523888 
L 635.123077 292.44986 
L 639.415385 292.177515 
L 643.707692 292.123046 
L 648 295.881403 
L 648 295.881403 
" style="fill:none;stroke:#17becf;stroke-linecap:square;stroke-width:1.5;"/>
   </g>
   <g id="line2d_60">
    <path clip-path="url(#pe721c81e08)" d="M -1 315.544689 
L 519.230769 315.544689 
L 527.815385 314.727655 
L 532.107692 313.365932 
L 536.4 313.47487 
L 540.692308 313.910621 
L 544.984615 315.108938 
L 549.276923 315.217876 
L 553.569231 313.420401 
L 557.861538 313.583808 
L 562.153846 313.47487 
L 566.446154 315.163407 
L 570.738462 315.163407 
L 575.030769 313.420401 
L 579.323077 313.311463 
L 583.615385 313.039118 
L 587.907692 314.782124 
L 600.784615 314.673186 
L 605.076923 314.618717 
L 609.369231 314.836593 
L 613.661538 314.782124 
L 617.953846 314.945531 
L 622.246154 314.727655 
L 626.538462 315 
L 630.830769 314.727655 
L 635.123077 314.891062 
L 639.415385 313.910621 
L 643.707692 312.004208 
L 648 310.642485 
L 648 310.642485 
" style="fill:none;stroke:#1f77b4;stroke-linecap:square;stroke-width:1.5;"/>
   </g>
   <g id="patch_3">
    <path d="M 90 315 
L 90 43.2 
" style="fill:none;stroke:#000000;stroke-linecap:square;stroke-linejoin:miter;stroke-width:0.8;"/>
   </g>
   <g id="patch_4">
    <path d="M 648 315 
L 648 43.2 
" style="fill:none;stroke:#000000;stroke-linecap:square;stroke-linejoin:miter;stroke-width:0.8;"/>
   </g>
   <g id="patch_5">
    <path d="M 90 315 
L 648 315 
" style="fill:none;stroke:#000000;stroke-linecap:square;stroke-linejoin:miter;stroke-width:0.8;"/>
   </g>
   <g id="patch_6">
    <path d="M 90 43.2 
L 648 43.2 
" style="fill:none;stroke:#000000;stroke-linecap:square;stroke-linejoin:miter;stroke-width:0.8;"/>
   </g>
   <g id="legend_1">
    <g id="patch_7">
     <path d="M 97 212.659375 
L 211.015625 212.659375 
Q 213.015625 212.659375 213.015625 210.659375 
L 213.015625 50.2 
Q 213.015625 48.2 211.015625 48.2 
L 97 48.2 
Q 95 48.2 95 50.2 
L 95 210.659375 
Q 95 212.659375 97 212.659375 
z
" style="fill:#ffffff;opacity:0.8;stroke:#cccccc;stroke-linejoin:miter;"/>
    </g>
    <g id="line2d_61">
     <path d="M 99 56.298437 
L 119 56.298437 
" style="fill:none;stroke:#1f77b4;stroke-dasharray:1.5,2.475;stroke-dashoffset:0;stroke-width:1.5;"/>
    </g>
    <g id="line2d_62"/>
    <g id="text_15">
     <!-- iminuit -->
     <g transform="translate(127 59.798437)scale(0.1 -0.1)">
      <use xlink:href="#DejaVuSans-105"/>
      <use x="27.783203" xlink:href="#DejaVuSans-109"/>
      <use x="125.195312" xlink:href="#DejaVuSans-105"/>
      <use x="152.978516" xlink:href="#DejaVuSans-110"/>
      <use x="216.357422" xlink:href="#DejaVuSans-117"/>
      <use x="279.736328" xlink:href="#DejaVuSans-105"/>
      <use x="307.519531" xlink:href="#DejaVuSans-116"/>
     </g>
    </g>
    <g id="line2d_63">
     <path d="M 99 70.976562 
L 119 70.976562 
" style="fill:none;stroke:#ff7f0e;stroke-dasharray:1.5,2.475;stroke-dashoffset:0;stroke-width:1.5;"/>
    </g>
    <g id="line2d_64"/>
    <g id="text_16">
     <!-- root-numpy -->
     <g transform="translate(127 74.476562)scale(0.1 -0.1)">
      <defs>
       <path d="M 32.171875 -5.078125 
Q 28.375 -14.84375 24.75 -17.8125 
Q 21.140625 -20.796875 15.09375 -20.796875 
L 7.90625 -20.796875 
L 7.90625 -13.28125 
L 13.1875 -13.28125 
Q 16.890625 -13.28125 18.9375 -11.515625 
Q 21 -9.765625 23.484375 -3.21875 
L 25.09375 0.875 
L 2.984375 54.6875 
L 12.5 54.6875 
L 29.59375 11.921875 
L 46.6875 54.6875 
L 56.203125 54.6875 
z
" id="DejaVuSans-121"/>
      </defs>
      <use xlink:href="#DejaVuSans-114"/>
      <use x="38.863281" xlink:href="#DejaVuSans-111"/>
      <use x="100.044922" xlink:href="#DejaVuSans-111"/>
      <use x="161.226562" xlink:href="#DejaVuSans-116"/>
      <use x="200.435547" xlink:href="#DejaVuSans-45"/>
      <use x="236.519531" xlink:href="#DejaVuSans-110"/>
      <use x="299.898438" xlink:href="#DejaVuSans-117"/>
      <use x="363.277344" xlink:href="#DejaVuSans-109"/>
      <use x="460.689453" xlink:href="#DejaVuSans-112"/>
      <use x="524.166016" xlink:href="#DejaVuSans-121"/>
     </g>
    </g>
    <g id="line2d_65">
     <path d="M 99 85.654688 
L 119 85.654688 
" style="fill:none;stroke:#2ca02c;stroke-dasharray:1.5,2.475;stroke-dashoffset:0;stroke-width:1.5;"/>
    </g>
    <g id="line2d_66"/>
    <g id="text_17">
     <!-- rootpy -->
     <g transform="translate(127 89.154688)scale(0.1 -0.1)">
      <use xlink:href="#DejaVuSans-114"/>
      <use x="38.863281" xlink:href="#DejaVuSans-111"/>
      <use x="100.044922" xlink:href="#DejaVuSans-111"/>
      <use x="161.226562" xlink:href="#DejaVuSans-116"/>
      <use x="200.435547" xlink:href="#DejaVuSans-112"/>
      <use x="263.912109" xlink:href="#DejaVuSans-121"/>
     </g>
    </g>
    <g id="line2d_67">
     <path d="M 99 100.332812 
L 119 100.332812 
" style="fill:none;stroke:#d62728;stroke-linecap:square;stroke-width:1.5;"/>
    </g>
    <g id="line2d_68"/>
    <g id="text_18">
     <!-- uproot -->
     <g transform="translate(127 103.832812)scale(0.1 -0.1)">
      <use xlink:href="#DejaVuSans-117"/>
      <use x="63.378906" xlink:href="#DejaVuSans-112"/>
      <use x="126.855469" xlink:href="#DejaVuSans-114"/>
      <use x="165.71875" xlink:href="#DejaVuSans-111"/>
      <use x="226.900391" xlink:href="#DejaVuSans-111"/>
      <use x="288.082031" xlink:href="#DejaVuSans-116"/>
     </g>
    </g>
    <g id="line2d_69">
     <path d="M 99 115.010938 
L 119 115.010938 
" style="fill:none;stroke:#9467bd;stroke-linecap:square;stroke-width:1.5;"/>
    </g>
    <g id="line2d_70"/>
    <g id="text_19">
     <!-- awkward -->
     <g transform="translate(127 118.510938)scale(0.1 -0.1)">
      <defs>
       <path d="M 9.078125 75.984375 
L 18.109375 75.984375 
L 18.109375 31.109375 
L 44.921875 54.6875 
L 56.390625 54.6875 
L 27.390625 29.109375 
L 57.625 0 
L 45.90625 0 
L 18.109375 26.703125 
L 18.109375 0 
L 9.078125 0 
z
" id="DejaVuSans-107"/>
      </defs>
      <use xlink:href="#DejaVuSans-97"/>
      <use x="61.279297" xlink:href="#DejaVuSans-119"/>
      <use x="143.066406" xlink:href="#DejaVuSans-107"/>
      <use x="200.976562" xlink:href="#DejaVuSans-119"/>
      <use x="282.763672" xlink:href="#DejaVuSans-97"/>
      <use x="344.042969" xlink:href="#DejaVuSans-114"/>
      <use x="383.40625" xlink:href="#DejaVuSans-100"/>
     </g>
    </g>
    <g id="line2d_71">
     <path d="M 99 129.689062 
L 119 129.689062 
" style="fill:none;stroke:#8c564b;stroke-linecap:square;stroke-width:1.5;"/>
    </g>
    <g id="line2d_72"/>
    <g id="text_20">
     <!-- fast-carpenter -->
     <g transform="translate(127 133.189062)scale(0.1 -0.1)">
      <use xlink:href="#DejaVuSans-102"/>
      <use x="35.205078" xlink:href="#DejaVuSans-97"/>
      <use x="96.484375" xlink:href="#DejaVuSans-115"/>
      <use x="148.583984" xlink:href="#DejaVuSans-116"/>
      <use x="187.792969" xlink:href="#DejaVuSans-45"/>
      <use x="223.876953" xlink:href="#DejaVuSans-99"/>
      <use x="278.857422" xlink:href="#DejaVuSans-97"/>
      <use x="340.136719" xlink:href="#DejaVuSans-114"/>
      <use x="381.25" xlink:href="#DejaVuSans-112"/>
      <use x="444.726562" xlink:href="#DejaVuSans-101"/>
      <use x="506.25" xlink:href="#DejaVuSans-110"/>
      <use x="569.628906" xlink:href="#DejaVuSans-116"/>
      <use x="608.837891" xlink:href="#DejaVuSans-101"/>
      <use x="670.361328" xlink:href="#DejaVuSans-114"/>
     </g>
    </g>
    <g id="line2d_73">
     <path d="M 99 144.367188 
L 119 144.367188 
" style="fill:none;stroke:#e377c2;stroke-linecap:square;stroke-width:1.5;"/>
    </g>
    <g id="line2d_74"/>
    <g id="text_21">
     <!-- pyhf -->
     <g transform="translate(127 147.867188)scale(0.1 -0.1)">
      <use xlink:href="#DejaVuSans-112"/>
      <use x="63.476562" xlink:href="#DejaVuSans-121"/>
      <use x="122.65625" xlink:href="#DejaVuSans-104"/>
      <use x="186.035156" xlink:href="#DejaVuSans-102"/>
     </g>
    </g>
    <g id="line2d_75">
     <path d="M 99 159.045312 
L 119 159.045312 
" style="fill:none;stroke:#7f7f7f;stroke-linecap:square;stroke-width:1.5;"/>
    </g>
    <g id="line2d_76"/>
    <g id="text_22">
     <!-- zfit -->
     <g transform="translate(127 162.545312)scale(0.1 -0.1)">
      <defs>
       <path d="M 5.515625 54.6875 
L 48.1875 54.6875 
L 48.1875 46.484375 
L 14.40625 7.171875 
L 48.1875 7.171875 
L 48.1875 0 
L 4.296875 0 
L 4.296875 8.203125 
L 38.09375 47.515625 
L 5.515625 47.515625 
z
" id="DejaVuSans-122"/>
      </defs>
      <use xlink:href="#DejaVuSans-122"/>
      <use x="52.490234" xlink:href="#DejaVuSans-102"/>
      <use x="87.695312" xlink:href="#DejaVuSans-105"/>
      <use x="115.478516" xlink:href="#DejaVuSans-116"/>
     </g>
    </g>
    <g id="line2d_77">
     <path d="M 99 173.723437 
L 119 173.723437 
" style="fill:none;stroke:#bcbd22;stroke-linecap:square;stroke-width:1.5;"/>
    </g>
    <g id="line2d_78"/>
    <g id="text_23">
     <!-- coffea -->
     <g transform="translate(127 177.223437)scale(0.1 -0.1)">
      <use xlink:href="#DejaVuSans-99"/>
      <use x="54.980469" xlink:href="#DejaVuSans-111"/>
      <use x="116.162109" xlink:href="#DejaVuSans-102"/>
      <use x="151.367188" xlink:href="#DejaVuSans-102"/>
      <use x="186.572266" xlink:href="#DejaVuSans-101"/>
      <use x="248.095703" xlink:href="#DejaVuSans-97"/>
     </g>
    </g>
    <g id="line2d_79">
     <path d="M 99 188.401562 
L 119 188.401562 
" style="fill:none;stroke:#17becf;stroke-linecap:square;stroke-width:1.5;"/>
    </g>
    <g id="line2d_80"/>
    <g id="text_24">
     <!-- mplhep -->
     <g transform="translate(127 191.901562)scale(0.1 -0.1)">
      <use xlink:href="#DejaVuSans-109"/>
      <use x="97.412109" xlink:href="#DejaVuSans-112"/>
      <use x="160.888672" xlink:href="#DejaVuSans-108"/>
      <use x="188.671875" xlink:href="#DejaVuSans-104"/>
      <use x="252.050781" xlink:href="#DejaVuSans-101"/>
      <use x="313.574219" xlink:href="#DejaVuSans-112"/>
     </g>
    </g>
    <g id="line2d_81">
     <path d="M 99 203.079687 
L 119 203.079687 
" style="fill:none;stroke:#1f77b4;stroke-linecap:square;stroke-width:1.5;"/>
    </g>
    <g id="line2d_82"/>
    <g id="text_25">
     <!-- boost-histogram -->
     <g transform="translate(127 206.579687)scale(0.1 -0.1)">
      <defs>
       <path d="M 45.40625 27.984375 
Q 45.40625 37.75 41.375 43.109375 
Q 37.359375 48.484375 30.078125 48.484375 
Q 22.859375 48.484375 18.828125 43.109375 
Q 14.796875 37.75 14.796875 27.984375 
Q 14.796875 18.265625 18.828125 12.890625 
Q 22.859375 7.515625 30.078125 7.515625 
Q 37.359375 7.515625 41.375 12.890625 
Q 45.40625 18.265625 45.40625 27.984375 
z
M 54.390625 6.78125 
Q 54.390625 -7.171875 48.1875 -13.984375 
Q 42 -20.796875 29.203125 -20.796875 
Q 24.46875 -20.796875 20.265625 -20.09375 
Q 16.0625 -19.390625 12.109375 -17.921875 
L 12.109375 -9.1875 
Q 16.0625 -11.328125 19.921875 -12.34375 
Q 23.78125 -13.375 27.78125 -13.375 
Q 36.625 -13.375 41.015625 -8.765625 
Q 45.40625 -4.15625 45.40625 5.171875 
L 45.40625 9.625 
Q 42.625 4.78125 38.28125 2.390625 
Q 33.9375 0 27.875 0 
Q 17.828125 0 11.671875 7.65625 
Q 5.515625 15.328125 5.515625 27.984375 
Q 5.515625 40.671875 11.671875 48.328125 
Q 17.828125 56 27.875 56 
Q 33.9375 56 38.28125 53.609375 
Q 42.625 51.21875 45.40625 46.390625 
L 45.40625 54.6875 
L 54.390625 54.6875 
z
" id="DejaVuSans-103"/>
      </defs>
      <use xlink:href="#DejaVuSans-98"/>
      <use x="63.476562" xlink:href="#DejaVuSans-111"/>
      <use x="124.658203" xlink:href="#DejaVuSans-111"/>
      <use x="185.839844" xlink:href="#DejaVuSans-115"/>
      <use x="237.939453" xlink:href="#DejaVuSans-116"/>
      <use x="277.148438" xlink:href="#DejaVuSans-45"/>
      <use x="313.232422" xlink:href="#DejaVuSans-104"/>
      <use x="376.611328" xlink:href="#DejaVuSans-105"/>
      <use x="404.394531" xlink:href="#DejaVuSans-115"/>
      <use x="456.494141" xlink:href="#DejaVuSans-116"/>
      <use x="495.703125" xlink:href="#DejaVuSans-111"/>
      <use x="556.884766" xlink:href="#DejaVuSans-103"/>
      <use x="620.361328" xlink:href="#DejaVuSans-114"/>
      <use x="661.474609" xlink:href="#DejaVuSans-97"/>
      <use x="722.753906" xlink:href="#DejaVuSans-109"/>
     </g>
    </g>
   </g>
  </g>
 </g>
 <defs>
  <clipPath id="pe721c81e08">
   <rect height="271.8" width="558" x="90" y="43.2"/>
  </clipPath>
 </defs>
</svg>
