<?xml version="1.0" encoding="utf-8" standalone="no"?>
<!DOCTYPE svg PUBLIC "-//W3C//DTD SVG 1.1//EN"
  "http://www.w3.org/Graphics/SVG/1.1/DTD/svg11.dtd">
<!-- Created with matplotlib (https://matplotlib.org/) -->
<svg height="360pt" version="1.1" viewBox="0 0 936 360" width="936pt" xmlns="http://www.w3.org/2000/svg" xmlns:xlink="http://www.w3.org/1999/xlink">
 <metadata>
  <rdf:RDF xmlns:cc="http://creativecommons.org/ns#" xmlns:dc="http://purl.org/dc/elements/1.1/" xmlns:rdf="http://www.w3.org/1999/02/22-rdf-syntax-ns#">
   <cc:Work>
    <dc:type rdf:resource="http://purl.org/dc/dcmitype/StillImage"/>
    <dc:date>2020-10-24T20:02:47.174700</dc:date>
    <dc:format>image/svg+xml</dc:format>
    <dc:creator>
     <cc:Agent>
      <dc:title>Matplotlib v3.3.0, https://matplotlib.org/</dc:title>
     </cc:Agent>
    </dc:creator>
   </cc:Work>
  </rdf:RDF>
 </metadata>
 <defs>
  <style type="text/css">*{stroke-linecap:butt;stroke-linejoin:round;}</style>
 </defs>
 <g id="figure_1">
  <g id="patch_1">
   <path d="M 0 360 
L 936 360 
L 936 0 
L 0 0 
z
" style="fill:none;"/>
  </g>
  <g id="axes_1">
   <g id="patch_2">
    <path d="M 117 172.628571 
L 842.4 172.628571 
L 842.4 43.2 
L 117 43.2 
z
" style="fill:#ffffff;"/>
   </g>
   <g id="matplotlib.axis_1"/>
   <g id="matplotlib.axis_2">
    <g id="ytick_1">
     <g id="line2d_1">
      <defs>
       <path d="M 0 0 
L -3.5 0 
" id="m5f06f26e95" style="stroke:#000000;stroke-width:0.8;"/>
      </defs>
      <g>
       <use style="stroke:#000000;stroke-width:0.8;" x="117" xlink:href="#m5f06f26e95" y="172.628571"/>
      </g>
     </g>
     <g id="text_1">
      <!-- $\mathdefault{10^{1}}$ -->
      <g transform="translate(92.4 176.42779)scale(0.1 -0.1)">
       <defs>
        <path d="M 12.40625 8.296875 
L 28.515625 8.296875 
L 28.515625 63.921875 
L 10.984375 60.40625 
L 10.984375 69.390625 
L 28.421875 72.90625 
L 38.28125 72.90625 
L 38.28125 8.296875 
L 54.390625 8.296875 
L 54.390625 0 
L 12.40625 0 
z
" id="DejaVuSans-49"/>
        <path d="M 31.78125 66.40625 
Q 24.171875 66.40625 20.328125 58.90625 
Q 16.5 51.421875 16.5 36.375 
Q 16.5 21.390625 20.328125 13.890625 
Q 24.171875 6.390625 31.78125 6.390625 
Q 39.453125 6.390625 43.28125 13.890625 
Q 47.125 21.390625 47.125 36.375 
Q 47.125 51.421875 43.28125 58.90625 
Q 39.453125 66.40625 31.78125 66.40625 
z
M 31.78125 74.21875 
Q 44.046875 74.21875 50.515625 64.515625 
Q 56.984375 54.828125 56.984375 36.375 
Q 56.984375 17.96875 50.515625 8.265625 
Q 44.046875 -1.421875 31.78125 -1.421875 
Q 19.53125 -1.421875 13.0625 8.265625 
Q 6.59375 17.96875 6.59375 36.375 
Q 6.59375 54.828125 13.0625 64.515625 
Q 19.53125 74.21875 31.78125 74.21875 
z
" id="DejaVuSans-48"/>
       </defs>
       <use transform="translate(0 0.684375)" xlink:href="#DejaVuSans-49"/>
       <use transform="translate(63.623047 0.684375)" xlink:href="#DejaVuSans-48"/>
       <use transform="translate(128.203125 38.965625)scale(0.7)" xlink:href="#DejaVuSans-49"/>
      </g>
     </g>
    </g>
    <g id="ytick_2">
     <g id="line2d_2">
      <g>
       <use style="stroke:#000000;stroke-width:0.8;" x="117" xlink:href="#m5f06f26e95" y="142.536112"/>
      </g>
     </g>
     <g id="text_2">
      <!-- $\mathdefault{10^{2}}$ -->
      <g transform="translate(92.4 146.335331)scale(0.1 -0.1)">
       <defs>
        <path d="M 19.1875 8.296875 
L 53.609375 8.296875 
L 53.609375 0 
L 7.328125 0 
L 7.328125 8.296875 
Q 12.9375 14.109375 22.625 23.890625 
Q 32.328125 33.6875 34.8125 36.53125 
Q 39.546875 41.84375 41.421875 45.53125 
Q 43.3125 49.21875 43.3125 52.78125 
Q 43.3125 58.59375 39.234375 62.25 
Q 35.15625 65.921875 28.609375 65.921875 
Q 23.96875 65.921875 18.8125 64.3125 
Q 13.671875 62.703125 7.8125 59.421875 
L 7.8125 69.390625 
Q 13.765625 71.78125 18.9375 73 
Q 24.125 74.21875 28.421875 74.21875 
Q 39.75 74.21875 46.484375 68.546875 
Q 53.21875 62.890625 53.21875 53.421875 
Q 53.21875 48.921875 51.53125 44.890625 
Q 49.859375 40.875 45.40625 35.40625 
Q 44.1875 33.984375 37.640625 27.21875 
Q 31.109375 20.453125 19.1875 8.296875 
z
" id="DejaVuSans-50"/>
       </defs>
       <use transform="translate(0 0.765625)" xlink:href="#DejaVuSans-49"/>
       <use transform="translate(63.623047 0.765625)" xlink:href="#DejaVuSans-48"/>
       <use transform="translate(128.203125 39.046875)scale(0.7)" xlink:href="#DejaVuSans-50"/>
      </g>
     </g>
    </g>
    <g id="ytick_3">
     <g id="line2d_3">
      <g>
       <use style="stroke:#000000;stroke-width:0.8;" x="117" xlink:href="#m5f06f26e95" y="112.443652"/>
      </g>
     </g>
     <g id="text_3">
      <!-- $\mathdefault{10^{3}}$ -->
      <g transform="translate(92.4 116.242871)scale(0.1 -0.1)">
       <defs>
        <path d="M 40.578125 39.3125 
Q 47.65625 37.796875 51.625 33 
Q 55.609375 28.21875 55.609375 21.1875 
Q 55.609375 10.40625 48.1875 4.484375 
Q 40.765625 -1.421875 27.09375 -1.421875 
Q 22.515625 -1.421875 17.65625 -0.515625 
Q 12.796875 0.390625 7.625 2.203125 
L 7.625 11.71875 
Q 11.71875 9.328125 16.59375 8.109375 
Q 21.484375 6.890625 26.8125 6.890625 
Q 36.078125 6.890625 40.9375 10.546875 
Q 45.796875 14.203125 45.796875 21.1875 
Q 45.796875 27.640625 41.28125 31.265625 
Q 36.765625 34.90625 28.71875 34.90625 
L 20.21875 34.90625 
L 20.21875 43.015625 
L 29.109375 43.015625 
Q 36.375 43.015625 40.234375 45.921875 
Q 44.09375 48.828125 44.09375 54.296875 
Q 44.09375 59.90625 40.109375 62.90625 
Q 36.140625 65.921875 28.71875 65.921875 
Q 24.65625 65.921875 20.015625 65.03125 
Q 15.375 64.15625 9.8125 62.3125 
L 9.8125 71.09375 
Q 15.4375 72.65625 20.34375 73.4375 
Q 25.25 74.21875 29.59375 74.21875 
Q 40.828125 74.21875 47.359375 69.109375 
Q 53.90625 64.015625 53.90625 55.328125 
Q 53.90625 49.265625 50.4375 45.09375 
Q 46.96875 40.921875 40.578125 39.3125 
z
" id="DejaVuSans-51"/>
       </defs>
       <use transform="translate(0 0.765625)" xlink:href="#DejaVuSans-49"/>
       <use transform="translate(63.623047 0.765625)" xlink:href="#DejaVuSans-48"/>
       <use transform="translate(128.203125 39.046875)scale(0.7)" xlink:href="#DejaVuSans-51"/>
      </g>
     </g>
    </g>
    <g id="ytick_4">
     <g id="line2d_4">
      <g>
       <use style="stroke:#000000;stroke-width:0.8;" x="117" xlink:href="#m5f06f26e95" y="82.351193"/>
      </g>
     </g>
     <g id="text_4">
      <!-- $\mathdefault{10^{4}}$ -->
      <g transform="translate(92.4 86.150411)scale(0.1 -0.1)">
       <defs>
        <path d="M 37.796875 64.3125 
L 12.890625 25.390625 
L 37.796875 25.390625 
z
M 35.203125 72.90625 
L 47.609375 72.90625 
L 47.609375 25.390625 
L 58.015625 25.390625 
L 58.015625 17.1875 
L 47.609375 17.1875 
L 47.609375 0 
L 37.796875 0 
L 37.796875 17.1875 
L 4.890625 17.1875 
L 4.890625 26.703125 
z
" id="DejaVuSans-52"/>
       </defs>
       <use transform="translate(0 0.684375)" xlink:href="#DejaVuSans-49"/>
       <use transform="translate(63.623047 0.684375)" xlink:href="#DejaVuSans-48"/>
       <use transform="translate(128.203125 38.965625)scale(0.7)" xlink:href="#DejaVuSans-52"/>
      </g>
     </g>
    </g>
    <g id="ytick_5">
     <g id="line2d_5">
      <g>
       <use style="stroke:#000000;stroke-width:0.8;" x="117" xlink:href="#m5f06f26e95" y="52.258733"/>
      </g>
     </g>
     <g id="text_5">
      <!-- $\mathdefault{10^{5}}$ -->
      <g transform="translate(92.4 56.057952)scale(0.1 -0.1)">
       <defs>
        <path d="M 10.796875 72.90625 
L 49.515625 72.90625 
L 49.515625 64.59375 
L 19.828125 64.59375 
L 19.828125 46.734375 
Q 21.96875 47.46875 24.109375 47.828125 
Q 26.265625 48.1875 28.421875 48.1875 
Q 40.625 48.1875 47.75 41.5 
Q 54.890625 34.8125 54.890625 23.390625 
Q 54.890625 11.625 47.5625 5.09375 
Q 40.234375 -1.421875 26.90625 -1.421875 
Q 22.3125 -1.421875 17.546875 -0.640625 
Q 12.796875 0.140625 7.71875 1.703125 
L 7.71875 11.625 
Q 12.109375 9.234375 16.796875 8.0625 
Q 21.484375 6.890625 26.703125 6.890625 
Q 35.15625 6.890625 40.078125 11.328125 
Q 45.015625 15.765625 45.015625 23.390625 
Q 45.015625 31 40.078125 35.4375 
Q 35.15625 39.890625 26.703125 39.890625 
Q 22.75 39.890625 18.8125 39.015625 
Q 14.890625 38.140625 10.796875 36.28125 
z
" id="DejaVuSans-53"/>
       </defs>
       <use transform="translate(0 0.684375)" xlink:href="#DejaVuSans-49"/>
       <use transform="translate(63.623047 0.684375)" xlink:href="#DejaVuSans-48"/>
       <use transform="translate(128.203125 38.965625)scale(0.7)" xlink:href="#DejaVuSans-53"/>
      </g>
     </g>
    </g>
    <g id="ytick_6">
     <g id="line2d_6">
      <defs>
       <path d="M 0 0 
L -2 0 
" id="m9a30f81c7b" style="stroke:#000000;stroke-width:0.6;"/>
      </defs>
      <g>
       <use style="stroke:#000000;stroke-width:0.6;" x="117" xlink:href="#m9a30f81c7b" y="163.569838"/>
      </g>
     </g>
    </g>
    <g id="ytick_7">
     <g id="line2d_7">
      <g>
       <use style="stroke:#000000;stroke-width:0.6;" x="117" xlink:href="#m9a30f81c7b" y="158.270819"/>
      </g>
     </g>
    </g>
    <g id="ytick_8">
     <g id="line2d_8">
      <g>
       <use style="stroke:#000000;stroke-width:0.6;" x="117" xlink:href="#m9a30f81c7b" y="154.511105"/>
      </g>
     </g>
    </g>
    <g id="ytick_9">
     <g id="line2d_9">
      <g>
       <use style="stroke:#000000;stroke-width:0.6;" x="117" xlink:href="#m9a30f81c7b" y="151.594845"/>
      </g>
     </g>
    </g>
    <g id="ytick_10">
     <g id="line2d_10">
      <g>
       <use style="stroke:#000000;stroke-width:0.6;" x="117" xlink:href="#m9a30f81c7b" y="149.212086"/>
      </g>
     </g>
    </g>
    <g id="ytick_11">
     <g id="line2d_11">
      <g>
       <use style="stroke:#000000;stroke-width:0.6;" x="117" xlink:href="#m9a30f81c7b" y="147.197493"/>
      </g>
     </g>
    </g>
    <g id="ytick_12">
     <g id="line2d_12">
      <g>
       <use style="stroke:#000000;stroke-width:0.6;" x="117" xlink:href="#m9a30f81c7b" y="145.452372"/>
      </g>
     </g>
    </g>
    <g id="ytick_13">
     <g id="line2d_13">
      <g>
       <use style="stroke:#000000;stroke-width:0.6;" x="117" xlink:href="#m9a30f81c7b" y="143.913067"/>
      </g>
     </g>
    </g>
    <g id="ytick_14">
     <g id="line2d_14">
      <g>
       <use style="stroke:#000000;stroke-width:0.6;" x="117" xlink:href="#m9a30f81c7b" y="133.477379"/>
      </g>
     </g>
    </g>
    <g id="ytick_15">
     <g id="line2d_15">
      <g>
       <use style="stroke:#000000;stroke-width:0.6;" x="117" xlink:href="#m9a30f81c7b" y="128.17836"/>
      </g>
     </g>
    </g>
    <g id="ytick_16">
     <g id="line2d_16">
      <g>
       <use style="stroke:#000000;stroke-width:0.6;" x="117" xlink:href="#m9a30f81c7b" y="124.418646"/>
      </g>
     </g>
    </g>
    <g id="ytick_17">
     <g id="line2d_17">
      <g>
       <use style="stroke:#000000;stroke-width:0.6;" x="117" xlink:href="#m9a30f81c7b" y="121.502385"/>
      </g>
     </g>
    </g>
    <g id="ytick_18">
     <g id="line2d_18">
      <g>
       <use style="stroke:#000000;stroke-width:0.6;" x="117" xlink:href="#m9a30f81c7b" y="119.119627"/>
      </g>
     </g>
    </g>
    <g id="ytick_19">
     <g id="line2d_19">
      <g>
       <use style="stroke:#000000;stroke-width:0.6;" x="117" xlink:href="#m9a30f81c7b" y="117.105033"/>
      </g>
     </g>
    </g>
    <g id="ytick_20">
     <g id="line2d_20">
      <g>
       <use style="stroke:#000000;stroke-width:0.6;" x="117" xlink:href="#m9a30f81c7b" y="115.359913"/>
      </g>
     </g>
    </g>
    <g id="ytick_21">
     <g id="line2d_21">
      <g>
       <use style="stroke:#000000;stroke-width:0.6;" x="117" xlink:href="#m9a30f81c7b" y="113.820608"/>
      </g>
     </g>
    </g>
    <g id="ytick_22">
     <g id="line2d_22">
      <g>
       <use style="stroke:#000000;stroke-width:0.6;" x="117" xlink:href="#m9a30f81c7b" y="103.384919"/>
      </g>
     </g>
    </g>
    <g id="ytick_23">
     <g id="line2d_23">
      <g>
       <use style="stroke:#000000;stroke-width:0.6;" x="117" xlink:href="#m9a30f81c7b" y="98.0859"/>
      </g>
     </g>
    </g>
    <g id="ytick_24">
     <g id="line2d_24">
      <g>
       <use style="stroke:#000000;stroke-width:0.6;" x="117" xlink:href="#m9a30f81c7b" y="94.326186"/>
      </g>
     </g>
    </g>
    <g id="ytick_25">
     <g id="line2d_25">
      <g>
       <use style="stroke:#000000;stroke-width:0.6;" x="117" xlink:href="#m9a30f81c7b" y="91.409926"/>
      </g>
     </g>
    </g>
    <g id="ytick_26">
     <g id="line2d_26">
      <g>
       <use style="stroke:#000000;stroke-width:0.6;" x="117" xlink:href="#m9a30f81c7b" y="89.027167"/>
      </g>
     </g>
    </g>
    <g id="ytick_27">
     <g id="line2d_27">
      <g>
       <use style="stroke:#000000;stroke-width:0.6;" x="117" xlink:href="#m9a30f81c7b" y="87.012574"/>
      </g>
     </g>
    </g>
    <g id="ytick_28">
     <g id="line2d_28">
      <g>
       <use style="stroke:#000000;stroke-width:0.6;" x="117" xlink:href="#m9a30f81c7b" y="85.267453"/>
      </g>
     </g>
    </g>
    <g id="ytick_29">
     <g id="line2d_29">
      <g>
       <use style="stroke:#000000;stroke-width:0.6;" x="117" xlink:href="#m9a30f81c7b" y="83.728148"/>
      </g>
     </g>
    </g>
    <g id="ytick_30">
     <g id="line2d_30">
      <g>
       <use style="stroke:#000000;stroke-width:0.6;" x="117" xlink:href="#m9a30f81c7b" y="73.29246"/>
      </g>
     </g>
    </g>
    <g id="ytick_31">
     <g id="line2d_31">
      <g>
       <use style="stroke:#000000;stroke-width:0.6;" x="117" xlink:href="#m9a30f81c7b" y="67.993441"/>
      </g>
     </g>
    </g>
    <g id="ytick_32">
     <g id="line2d_32">
      <g>
       <use style="stroke:#000000;stroke-width:0.6;" x="117" xlink:href="#m9a30f81c7b" y="64.233727"/>
      </g>
     </g>
    </g>
    <g id="ytick_33">
     <g id="line2d_33">
      <g>
       <use style="stroke:#000000;stroke-width:0.6;" x="117" xlink:href="#m9a30f81c7b" y="61.317466"/>
      </g>
     </g>
    </g>
    <g id="ytick_34">
     <g id="line2d_34">
      <g>
       <use style="stroke:#000000;stroke-width:0.6;" x="117" xlink:href="#m9a30f81c7b" y="58.934708"/>
      </g>
     </g>
    </g>
    <g id="ytick_35">
     <g id="line2d_35">
      <g>
       <use style="stroke:#000000;stroke-width:0.6;" x="117" xlink:href="#m9a30f81c7b" y="56.920114"/>
      </g>
     </g>
    </g>
    <g id="ytick_36">
     <g id="line2d_36">
      <g>
       <use style="stroke:#000000;stroke-width:0.6;" x="117" xlink:href="#m9a30f81c7b" y="55.174994"/>
      </g>
     </g>
    </g>
    <g id="ytick_37">
     <g id="line2d_37">
      <g>
       <use style="stroke:#000000;stroke-width:0.6;" x="117" xlink:href="#m9a30f81c7b" y="53.635688"/>
      </g>
     </g>
    </g>
    <g id="ytick_38">
     <g id="line2d_38">
      <g>
       <use style="stroke:#000000;stroke-width:0.6;" x="117" xlink:href="#m9a30f81c7b" y="43.2"/>
      </g>
     </g>
    </g>
    <g id="text_6">
     <!-- pip-installs per month -->
     <g transform="translate(86.320312 162.736942)rotate(-90)scale(0.1 -0.1)">
      <defs>
       <path d="M 18.109375 8.203125 
L 18.109375 -20.796875 
L 9.078125 -20.796875 
L 9.078125 54.6875 
L 18.109375 54.6875 
L 18.109375 46.390625 
Q 20.953125 51.265625 25.265625 53.625 
Q 29.59375 56 35.59375 56 
Q 45.5625 56 51.78125 48.09375 
Q 58.015625 40.1875 58.015625 27.296875 
Q 58.015625 14.40625 51.78125 6.484375 
Q 45.5625 -1.421875 35.59375 -1.421875 
Q 29.59375 -1.421875 25.265625 0.953125 
Q 20.953125 3.328125 18.109375 8.203125 
z
M 48.6875 27.296875 
Q 48.6875 37.203125 44.609375 42.84375 
Q 40.53125 48.484375 33.40625 48.484375 
Q 26.265625 48.484375 22.1875 42.84375 
Q 18.109375 37.203125 18.109375 27.296875 
Q 18.109375 17.390625 22.1875 11.75 
Q 26.265625 6.109375 33.40625 6.109375 
Q 40.53125 6.109375 44.609375 11.75 
Q 48.6875 17.390625 48.6875 27.296875 
z
" id="DejaVuSans-112"/>
       <path d="M 9.421875 54.6875 
L 18.40625 54.6875 
L 18.40625 0 
L 9.421875 0 
z
M 9.421875 75.984375 
L 18.40625 75.984375 
L 18.40625 64.59375 
L 9.421875 64.59375 
z
" id="DejaVuSans-105"/>
       <path d="M 4.890625 31.390625 
L 31.203125 31.390625 
L 31.203125 23.390625 
L 4.890625 23.390625 
z
" id="DejaVuSans-45"/>
       <path d="M 54.890625 33.015625 
L 54.890625 0 
L 45.90625 0 
L 45.90625 32.71875 
Q 45.90625 40.484375 42.875 44.328125 
Q 39.84375 48.1875 33.796875 48.1875 
Q 26.515625 48.1875 22.3125 43.546875 
Q 18.109375 38.921875 18.109375 30.90625 
L 18.109375 0 
L 9.078125 0 
L 9.078125 54.6875 
L 18.109375 54.6875 
L 18.109375 46.1875 
Q 21.34375 51.125 25.703125 53.5625 
Q 30.078125 56 35.796875 56 
Q 45.21875 56 50.046875 50.171875 
Q 54.890625 44.34375 54.890625 33.015625 
z
" id="DejaVuSans-110"/>
       <path d="M 44.28125 53.078125 
L 44.28125 44.578125 
Q 40.484375 46.53125 36.375 47.5 
Q 32.28125 48.484375 27.875 48.484375 
Q 21.1875 48.484375 17.84375 46.4375 
Q 14.5 44.390625 14.5 40.28125 
Q 14.5 37.15625 16.890625 35.375 
Q 19.28125 33.59375 26.515625 31.984375 
L 29.59375 31.296875 
Q 39.15625 29.25 43.1875 25.515625 
Q 47.21875 21.78125 47.21875 15.09375 
Q 47.21875 7.46875 41.1875 3.015625 
Q 35.15625 -1.421875 24.609375 -1.421875 
Q 20.21875 -1.421875 15.453125 -0.5625 
Q 10.6875 0.296875 5.421875 2 
L 5.421875 11.28125 
Q 10.40625 8.6875 15.234375 7.390625 
Q 20.0625 6.109375 24.8125 6.109375 
Q 31.15625 6.109375 34.5625 8.28125 
Q 37.984375 10.453125 37.984375 14.40625 
Q 37.984375 18.0625 35.515625 20.015625 
Q 33.0625 21.96875 24.703125 23.78125 
L 21.578125 24.515625 
Q 13.234375 26.265625 9.515625 29.90625 
Q 5.8125 33.546875 5.8125 39.890625 
Q 5.8125 47.609375 11.28125 51.796875 
Q 16.75 56 26.8125 56 
Q 31.78125 56 36.171875 55.265625 
Q 40.578125 54.546875 44.28125 53.078125 
z
" id="DejaVuSans-115"/>
       <path d="M 18.3125 70.21875 
L 18.3125 54.6875 
L 36.8125 54.6875 
L 36.8125 47.703125 
L 18.3125 47.703125 
L 18.3125 18.015625 
Q 18.3125 11.328125 20.140625 9.421875 
Q 21.96875 7.515625 27.59375 7.515625 
L 36.8125 7.515625 
L 36.8125 0 
L 27.59375 0 
Q 17.1875 0 13.234375 3.875 
Q 9.28125 7.765625 9.28125 18.015625 
L 9.28125 47.703125 
L 2.6875 47.703125 
L 2.6875 54.6875 
L 9.28125 54.6875 
L 9.28125 70.21875 
z
" id="DejaVuSans-116"/>
       <path d="M 34.28125 27.484375 
Q 23.390625 27.484375 19.1875 25 
Q 14.984375 22.515625 14.984375 16.5 
Q 14.984375 11.71875 18.140625 8.90625 
Q 21.296875 6.109375 26.703125 6.109375 
Q 34.1875 6.109375 38.703125 11.40625 
Q 43.21875 16.703125 43.21875 25.484375 
L 43.21875 27.484375 
z
M 52.203125 31.203125 
L 52.203125 0 
L 43.21875 0 
L 43.21875 8.296875 
Q 40.140625 3.328125 35.546875 0.953125 
Q 30.953125 -1.421875 24.3125 -1.421875 
Q 15.921875 -1.421875 10.953125 3.296875 
Q 6 8.015625 6 15.921875 
Q 6 25.140625 12.171875 29.828125 
Q 18.359375 34.515625 30.609375 34.515625 
L 43.21875 34.515625 
L 43.21875 35.40625 
Q 43.21875 41.609375 39.140625 45 
Q 35.0625 48.390625 27.6875 48.390625 
Q 23 48.390625 18.546875 47.265625 
Q 14.109375 46.140625 10.015625 43.890625 
L 10.015625 52.203125 
Q 14.9375 54.109375 19.578125 55.046875 
Q 24.21875 56 28.609375 56 
Q 40.484375 56 46.34375 49.84375 
Q 52.203125 43.703125 52.203125 31.203125 
z
" id="DejaVuSans-97"/>
       <path d="M 9.421875 75.984375 
L 18.40625 75.984375 
L 18.40625 0 
L 9.421875 0 
z
" id="DejaVuSans-108"/>
       <path id="DejaVuSans-32"/>
       <path d="M 56.203125 29.59375 
L 56.203125 25.203125 
L 14.890625 25.203125 
Q 15.484375 15.921875 20.484375 11.0625 
Q 25.484375 6.203125 34.421875 6.203125 
Q 39.59375 6.203125 44.453125 7.46875 
Q 49.3125 8.734375 54.109375 11.28125 
L 54.109375 2.78125 
Q 49.265625 0.734375 44.1875 -0.34375 
Q 39.109375 -1.421875 33.890625 -1.421875 
Q 20.796875 -1.421875 13.15625 6.1875 
Q 5.515625 13.8125 5.515625 26.8125 
Q 5.515625 40.234375 12.765625 48.109375 
Q 20.015625 56 32.328125 56 
Q 43.359375 56 49.78125 48.890625 
Q 56.203125 41.796875 56.203125 29.59375 
z
M 47.21875 32.234375 
Q 47.125 39.59375 43.09375 43.984375 
Q 39.0625 48.390625 32.421875 48.390625 
Q 24.90625 48.390625 20.390625 44.140625 
Q 15.875 39.890625 15.1875 32.171875 
z
" id="DejaVuSans-101"/>
       <path d="M 41.109375 46.296875 
Q 39.59375 47.171875 37.8125 47.578125 
Q 36.03125 48 33.890625 48 
Q 26.265625 48 22.1875 43.046875 
Q 18.109375 38.09375 18.109375 28.8125 
L 18.109375 0 
L 9.078125 0 
L 9.078125 54.6875 
L 18.109375 54.6875 
L 18.109375 46.1875 
Q 20.953125 51.171875 25.484375 53.578125 
Q 30.03125 56 36.53125 56 
Q 37.453125 56 38.578125 55.875 
Q 39.703125 55.765625 41.0625 55.515625 
z
" id="DejaVuSans-114"/>
       <path d="M 52 44.1875 
Q 55.375 50.25 60.0625 53.125 
Q 64.75 56 71.09375 56 
Q 79.640625 56 84.28125 50.015625 
Q 88.921875 44.046875 88.921875 33.015625 
L 88.921875 0 
L 79.890625 0 
L 79.890625 32.71875 
Q 79.890625 40.578125 77.09375 44.375 
Q 74.3125 48.1875 68.609375 48.1875 
Q 61.625 48.1875 57.5625 43.546875 
Q 53.515625 38.921875 53.515625 30.90625 
L 53.515625 0 
L 44.484375 0 
L 44.484375 32.71875 
Q 44.484375 40.625 41.703125 44.40625 
Q 38.921875 48.1875 33.109375 48.1875 
Q 26.21875 48.1875 22.15625 43.53125 
Q 18.109375 38.875 18.109375 30.90625 
L 18.109375 0 
L 9.078125 0 
L 9.078125 54.6875 
L 18.109375 54.6875 
L 18.109375 46.1875 
Q 21.1875 51.21875 25.484375 53.609375 
Q 29.78125 56 35.6875 56 
Q 41.65625 56 45.828125 52.96875 
Q 50 49.953125 52 44.1875 
z
" id="DejaVuSans-109"/>
       <path d="M 30.609375 48.390625 
Q 23.390625 48.390625 19.1875 42.75 
Q 14.984375 37.109375 14.984375 27.296875 
Q 14.984375 17.484375 19.15625 11.84375 
Q 23.34375 6.203125 30.609375 6.203125 
Q 37.796875 6.203125 41.984375 11.859375 
Q 46.1875 17.53125 46.1875 27.296875 
Q 46.1875 37.015625 41.984375 42.703125 
Q 37.796875 48.390625 30.609375 48.390625 
z
M 30.609375 56 
Q 42.328125 56 49.015625 48.375 
Q 55.71875 40.765625 55.71875 27.296875 
Q 55.71875 13.875 49.015625 6.21875 
Q 42.328125 -1.421875 30.609375 -1.421875 
Q 18.84375 -1.421875 12.171875 6.21875 
Q 5.515625 13.875 5.515625 27.296875 
Q 5.515625 40.765625 12.171875 48.375 
Q 18.84375 56 30.609375 56 
z
" id="DejaVuSans-111"/>
       <path d="M 54.890625 33.015625 
L 54.890625 0 
L 45.90625 0 
L 45.90625 32.71875 
Q 45.90625 40.484375 42.875 44.328125 
Q 39.84375 48.1875 33.796875 48.1875 
Q 26.515625 48.1875 22.3125 43.546875 
Q 18.109375 38.921875 18.109375 30.90625 
L 18.109375 0 
L 9.078125 0 
L 9.078125 75.984375 
L 18.109375 75.984375 
L 18.109375 46.1875 
Q 21.34375 51.125 25.703125 53.5625 
Q 30.078125 56 35.796875 56 
Q 45.21875 56 50.046875 50.171875 
Q 54.890625 44.34375 54.890625 33.015625 
z
" id="DejaVuSans-104"/>
      </defs>
      <use xlink:href="#DejaVuSans-112"/>
      <use x="63.476562" xlink:href="#DejaVuSans-105"/>
      <use x="91.259766" xlink:href="#DejaVuSans-112"/>
      <use x="154.736328" xlink:href="#DejaVuSans-45"/>
      <use x="190.820312" xlink:href="#DejaVuSans-105"/>
      <use x="218.603516" xlink:href="#DejaVuSans-110"/>
      <use x="281.982422" xlink:href="#DejaVuSans-115"/>
      <use x="334.082031" xlink:href="#DejaVuSans-116"/>
      <use x="373.291016" xlink:href="#DejaVuSans-97"/>
      <use x="434.570312" xlink:href="#DejaVuSans-108"/>
      <use x="462.353516" xlink:href="#DejaVuSans-108"/>
      <use x="490.136719" xlink:href="#DejaVuSans-115"/>
      <use x="542.236328" xlink:href="#DejaVuSans-32"/>
      <use x="574.023438" xlink:href="#DejaVuSans-112"/>
      <use x="637.5" xlink:href="#DejaVuSans-101"/>
      <use x="699.023438" xlink:href="#DejaVuSans-114"/>
      <use x="740.136719" xlink:href="#DejaVuSans-32"/>
      <use x="771.923828" xlink:href="#DejaVuSans-109"/>
      <use x="869.335938" xlink:href="#DejaVuSans-111"/>
      <use x="930.517578" xlink:href="#DejaVuSans-110"/>
      <use x="993.896484" xlink:href="#DejaVuSans-116"/>
      <use x="1033.105469" xlink:href="#DejaVuSans-104"/>
     </g>
    </g>
   </g>
   <g id="line2d_39">
    <path clip-path="url(#pe403ee091c)" d="M 395.568004 361 
L 395.595652 202.721031 
L 400.852174 202.721031 
L 406.108696 188.363279 
L 411.365217 193.662298 
L 416.621739 193.662298 
L 421.878261 177.289952 
L 427.134783 174.005527 
L 432.391304 113.604586 
L 437.647826 110.302715 
L 442.904348 104.769137 
L 448.16087 102.741059 
L 453.417391 98.58315 
L 458.673913 97.763193 
L 463.930435 99.25636 
L 469.186957 101.089579 
L 474.443478 97.699596 
L 479.7 93.920864 
L 484.956522 89.079548 
L 490.213043 84.939965 
L 495.469565 87.291852 
L 500.726087 88.489484 
L 505.982609 92.047302 
L 511.23913 86.208854 
L 516.495652 84.223889 
L 521.752174 83.140392 
L 527.008696 82.309439 
L 532.265217 79.773855 
L 537.521739 78.246477 
L 542.778261 78.077647 
L 548.034783 79.599059 
L 553.291304 80.081094 
L 558.547826 83.075306 
L 563.804348 84.783183 
L 569.06087 86.27574 
L 584.830435 78.364428 
L 590.086957 76.687034 
L 595.343478 77.521397 
L 600.6 76.957549 
L 605.856522 78.757525 
L 611.113043 78.124851 
L 616.369565 82.905131 
L 621.626087 80.50988 
L 626.882609 78.464997 
L 632.13913 73.444285 
L 637.395652 68.991143 
L 642.652174 60.331766 
L 647.908696 59.089618 
L 653.165217 59.710725 
L 658.421739 66.642125 
L 663.678261 65.596532 
L 668.934783 65.540083 
L 674.191304 66.566136 
L 679.447826 68.806261 
L 684.704348 69.520826 
L 689.96087 71.046 
L 695.217391 72.010073 
L 700.473913 68.645005 
L 705.730435 62.932102 
L 710.986957 62.006265 
L 716.243478 64.045265 
L 721.5 67.252078 
L 726.756522 67.639744 
L 732.013043 65.878416 
L 747.782609 61.850424 
L 753.03913 61.515782 
L 758.295652 62.050976 
L 763.552174 65.533585 
L 768.808696 68.643631 
L 774.065217 70.028016 
L 779.321739 66.887184 
L 784.578261 65.032647 
L 789.834783 63.381904 
L 795.091304 63.932393 
L 800.347826 64.096248 
L 805.604348 67.631691 
L 810.86087 71.311141 
L 816.117391 74.527159 
L 821.373913 73.668991 
L 831.886957 68.878315 
L 837.143478 67.28051 
L 842.4 69.923072 
L 842.4 69.923072 
" style="fill:none;stroke:#1f77b4;stroke-linecap:square;stroke-width:1.5;"/>
   </g>
   <g id="line2d_40">
    <path clip-path="url(#pe403ee091c)" d="M 616.331436 361 
L 616.369565 142.277311 
L 621.626087 139.515715 
L 626.882609 139.515715 
L 632.13913 161.18708 
L 637.395652 145.616764 
L 642.652174 141.290504 
L 647.908696 138.421854 
L 653.165217 145.452372 
L 658.421739 145.452372 
L 663.678261 142.934183 
L 668.934783 143.625825 
L 674.191304 144.971251 
L 679.447826 149.431738 
L 684.704348 143.913067 
L 689.96087 132.172501 
L 695.217391 117.086377 
L 700.473913 113.349988 
L 705.730435 112.654447 
L 710.986957 117.012015 
L 716.243478 118.399273 
L 721.5 117.503104 
L 726.756522 116.325916 
L 732.013043 115.491261 
L 737.269565 114.847338 
L 742.526087 115.724344 
L 747.782609 116.09923 
L 753.03913 115.165334 
L 758.295652 115.961661 
L 763.552174 116.273254 
L 768.808696 118.903605 
L 774.065217 116.09923 
L 779.321739 111.818467 
L 784.578261 107.346576 
L 789.834783 103.789729 
L 795.091304 101.232893 
L 800.347826 101.316295 
L 805.604348 101.776098 
L 810.86087 103.542696 
L 816.117391 102.635739 
L 821.373913 102.439761 
L 826.630435 100.818316 
L 831.886957 98.954936 
L 837.143478 98.430189 
L 842.4 102.439761 
L 842.4 102.439761 
" style="fill:none;stroke:#ff7f0e;stroke-linecap:square;stroke-width:1.5;"/>
   </g>
   <g id="line2d_41">
    <path clip-path="url(#pe403ee091c)" d="M 248.381743 361 
L 248.413043 181.687304 
L 253.669565 164.946794 
L 258.926087 158.270819 
L 264.182609 156.256226 
L 269.43913 158.270819 
L 274.695652 155.181457 
L 279.952174 154.841984 
L 285.208696 147.012114 
L 290.465217 143.206463 
L 295.721739 141.05502 
L 300.978261 143.484537 
L 306.234783 147.197493 
L 311.491304 148.996065 
L 316.747826 147.197493 
L 322.004348 135.448482 
L 327.26087 124.256296 
L 332.517391 124.716057 
L 337.773913 126.313986 
L 343.030435 138.421854 
L 348.286957 135.372719 
L 353.543478 135.372719 
L 358.8 122.937554 
L 364.056522 120.20934 
L 369.313043 120.716234 
L 374.569565 123.749928 
L 379.826087 128.005258 
L 385.082609 127.962338 
L 390.33913 136.475577 
L 395.595652 134.78193 
L 400.852174 134.425804 
L 406.108696 137.412518 
L 411.365217 143.344761 
L 416.621739 123.749928 
L 421.878261 117.775385 
L 427.134783 111.021035 
L 432.391304 113.661844 
L 437.647826 115.674047 
L 442.904348 119.295052 
L 448.16087 115.101113 
L 458.673913 108.329394 
L 463.930435 107.971833 
L 469.186957 105.891107 
L 479.7 96.149957 
L 484.956522 92.249197 
L 490.213043 88.899283 
L 495.469565 91.989796 
L 500.726087 94.251255 
L 505.982609 97.320275 
L 511.23913 90.2645 
L 516.495652 87.493672 
L 521.752174 85.541488 
L 527.008696 84.293454 
L 532.265217 82.302927 
L 537.521739 81.280207 
L 548.034783 81.842388 
L 553.291304 84.189246 
L 558.547826 87.669175 
L 563.804348 89.854367 
L 569.06087 90.489105 
L 574.317391 89.097055 
L 579.573913 88.727856 
L 584.830435 87.712437 
L 590.086957 85.611742 
L 595.343478 87.447266 
L 600.6 84.847885 
L 605.856522 85.684063 
L 611.113043 83.463654 
L 616.369565 86.882533 
L 621.626087 83.251926 
L 626.882609 80.265845 
L 632.13913 76.074636 
L 637.395652 72.479877 
L 642.652174 62.240621 
L 647.908696 60.388122 
L 653.165217 60.370606 
L 658.421739 67.217959 
L 663.678261 66.174472 
L 668.934783 66.046983 
L 674.191304 67.114504 
L 679.447826 69.480737 
L 684.704348 70.42648 
L 689.96087 72.252818 
L 695.217391 73.447591 
L 700.473913 69.390257 
L 705.730435 63.491027 
L 710.986957 62.313758 
L 716.243478 64.399111 
L 721.5 67.406517 
L 726.756522 67.745322 
L 732.013043 65.988933 
L 747.782609 61.898429 
L 753.03913 61.590299 
L 758.295652 62.252127 
L 763.552174 65.664885 
L 768.808696 68.429291 
L 774.065217 69.514462 
L 779.321739 66.715399 
L 789.834783 63.572772 
L 795.091304 64.130563 
L 800.347826 64.334747 
L 805.604348 67.746604 
L 810.86087 71.317881 
L 816.117391 74.48915 
L 821.373913 73.751978 
L 831.886957 68.72907 
L 837.143478 67.145496 
L 842.4 69.825979 
L 842.4 69.825979 
" style="fill:none;stroke:#2ca02c;stroke-linecap:square;stroke-width:1.5;"/>
   </g>
   <g id="line2d_42">
    <path clip-path="url(#pe403ee091c)" d="M 758.261862 361 
L 758.295652 167.329552 
L 763.552174 162.324231 
L 768.808696 153.565948 
L 774.065217 146.471251 
L 779.321739 147.012114 
L 784.578261 144.206765 
L 789.834783 139.830646 
L 795.091304 125.57958 
L 800.347826 116.255747 
L 805.604348 110.834831 
L 816.117391 106.648824 
L 821.373913 106.252263 
L 826.630435 104.966768 
L 831.886957 103.870861 
L 837.143478 104.186618 
L 842.4 108.386756 
L 842.4 108.386756 
" style="fill:none;stroke:#d62728;stroke-linecap:square;stroke-width:1.5;"/>
   </g>
   <g id="line2d_43">
    <path clip-path="url(#pe403ee091c)" d="M -1 155.769911 
L 1.356522 149.431738 
L 6.613043 138.907746 
L 11.869565 131.594133 
L 17.126087 127.212955 
L 22.382609 120.939641 
L 27.63913 118.691097 
L 32.895652 119.974702 
L 38.152174 126.581099 
L 43.408696 134.496257 
L 48.665217 136.641009 
L 53.921739 136.312212 
L 59.178261 134.78193 
L 64.434783 134.286028 
L 69.691304 134.079127 
L 74.947826 130.149462 
L 80.204348 124.884257 
L 85.46087 119.01117 
L 90.717391 116.95652 
L 95.973913 118.733323 
L 101.230435 123.29239 
L 106.486957 120.642606 
L 111.743478 119.495262 
L 117 116.592458 
L 122.256522 121.141483 
L 127.513043 118.523543 
L 132.769565 119.585238 
L 138.026087 118.481989 
L 143.282609 121.294937 
L 148.53913 121.398249 
L 153.795652 118.481989 
L 159.052174 117.814749 
L 164.308696 119.562686 
L 169.565217 122.73493 
L 174.821739 123.718922 
L 180.078261 123.874693 
L 185.334783 123.352478 
L 190.591304 122.200279 
L 195.847826 121.476273 
L 201.104348 124.749524 
L 206.36087 123.937524 
L 211.617391 123.68799 
L 216.873913 122.62054 
L 222.130435 124.850443 
L 227.386957 126.697268 
L 232.643478 128.398012 
L 237.9 131.537679 
L 243.156522 133.741408 
L 248.413043 135.297393 
L 253.669565 131.938074 
L 258.926087 130.613499 
L 264.182609 128.442389 
L 269.43913 129.948397 
L 274.695652 129.89861 
L 279.952174 131.203985 
L 285.208696 123.718922 
L 290.465217 124.127853 
L 295.721739 123.113768 
L 300.978261 129.126785 
L 306.234783 127.792056 
L 311.491304 125.227295 
L 316.747826 126.163766 
L 322.004348 127.792056 
L 327.26087 135.000358 
L 337.773913 127.212955 
L 343.030435 125.05465 
L 353.543478 127.919559 
L 358.8 129.033435 
L 364.056522 129.126785 
L 369.313043 130.613499 
L 374.569565 129.363121 
L 379.826087 119.698586 
L 385.082609 117.142427 
L 390.33913 115.246057 
L 395.595652 120.545076 
L 400.852174 121.528549 
L 406.108696 125.437524 
L 411.365217 127.792056 
L 416.621739 120.618155 
L 421.878261 114.263667 
L 427.134783 110.03913 
L 432.391304 110.846391 
L 437.647826 113.018059 
L 442.904348 114.414755 
L 448.16087 113.294077 
L 453.417391 110.236319 
L 458.673913 106.954347 
L 463.930435 105.624704 
L 469.186957 103.7024 
L 474.443478 104.58161 
L 479.7 105.144984 
L 484.956522 104.631834 
L 490.213043 103.100519 
L 495.469565 105.38645 
L 500.726087 110.170258 
L 505.982609 108.511911 
L 511.23913 101.69546 
L 516.495652 98.551511 
L 521.752174 97.477337 
L 527.008696 97.222043 
L 532.265217 97.891321 
L 537.521739 96.434778 
L 542.778261 97.653155 
L 548.034783 97.805763 
L 553.291304 101.787658 
L 558.547826 103.358807 
L 563.804348 99.194568 
L 569.06087 97.096242 
L 574.317391 94.016235 
L 579.573913 96.639862 
L 584.830435 95.338002 
L 590.086957 94.59355 
L 595.343478 94.189677 
L 600.6 95.915412 
L 605.856522 87.616276 
L 611.113043 86.990189 
L 616.369565 87.890924 
L 621.626087 98.710476 
L 626.882609 93.567753 
L 632.13913 89.467973 
L 637.395652 85.999858 
L 642.652174 85.156836 
L 647.908696 85.922337 
L 653.165217 87.98109 
L 658.421739 90.613934 
L 663.678261 89.200385 
L 668.934783 87.41642 
L 674.191304 84.082877 
L 679.447826 82.903768 
L 684.704348 82.023386 
L 689.96087 84.64694 
L 695.217391 84.198274 
L 700.473913 85.814576 
L 705.730435 85.313275 
L 710.986957 89.062064 
L 716.243478 91.843074 
L 721.5 88.681105 
L 726.756522 87.025649 
L 732.013043 83.694792 
L 737.269565 84.3985 
L 742.526087 83.136228 
L 747.782609 81.029767 
L 753.03913 80.73313 
L 758.295652 80.276991 
L 763.552174 83.169577 
L 768.808696 82.984453 
L 774.065217 83.686105 
L 779.321739 83.080833 
L 789.834783 82.355114 
L 795.091304 79.266646 
L 800.347826 77.930524 
L 805.604348 76.975726 
L 810.86087 79.647852 
L 816.117391 83.694792 
L 821.373913 86.222907 
L 826.630435 85.944685 
L 831.886957 84.29497 
L 837.143478 83.143168 
L 842.4 86.284566 
L 842.4 86.284566 
" style="fill:none;stroke:#9467bd;stroke-dasharray:1.5,2.475;stroke-dashoffset:0;stroke-width:1.5;"/>
   </g>
   <g id="line2d_44">
    <path clip-path="url(#pe403ee091c)" d="M -1 137.348233 
L 1.356522 127.70774 
L 6.613043 122.5354 
L 11.869565 114.536896 
L 17.126087 114.536896 
L 22.382609 112.236204 
L 27.63913 114.675683 
L 32.895652 114.144041 
L 38.152174 115.995917 
L 43.408696 116.736868 
L 48.665217 105.348426 
L 53.921739 105.055572 
L 59.178261 105.843698 
L 64.434783 120.765551 
L 69.691304 123.14337 
L 74.947826 121.607358 
L 80.204348 120.56939 
L 85.46087 118.523543 
L 90.717391 118.053459 
L 95.973913 117.69701 
L 101.230435 120.162074 
L 106.486957 122.145252 
L 111.743478 127.499298 
L 117 126.542604 
L 122.256522 125.831955 
L 127.513043 122.996029 
L 132.769565 122.563719 
L 138.026087 123.232578 
L 143.282609 124.224067 
L 148.53913 126.504222 
L 153.795652 126.853785 
L 159.052174 126.163766 
L 164.308696 124.884257 
L 169.565217 123.412843 
L 180.078261 124.418646 
L 185.334783 125.57958 
L 190.591304 125.192583 
L 195.847826 125.472894 
L 201.104348 125.40225 
L 206.36087 124.517033 
L 211.617391 122.283257 
L 216.873913 121.873538 
L 222.130435 119.76707 
L 227.386957 121.065426 
L 232.643478 120.068052 
L 237.9 121.346491 
L 243.156522 120.815055 
L 248.413043 123.595629 
L 253.669565 125.759349 
L 258.926087 127.375811 
L 264.182609 126.775292 
L 269.43913 126.389749 
L 274.695652 124.224067 
L 279.952174 123.173038 
L 285.208696 121.686644 
L 290.465217 123.749928 
L 295.721739 125.088997 
L 300.978261 129.31551 
L 306.234783 130.508946 
L 311.491304 126.775292 
L 316.747826 122.478946 
L 322.004348 121.294937 
L 327.26087 121.476273 
L 332.517391 121.873538 
L 337.773913 120.716234 
L 343.030435 122.507143 
L 348.286957 121.846674 
L 353.543478 123.3224 
L 358.8 119.472864 
L 364.056522 121.450214 
L 369.313043 121.141483 
L 374.569565 125.831955 
L 379.826087 127.212955 
L 385.082609 127.052104 
L 390.33913 122.821385 
L 395.595652 122.649044 
L 400.852174 122.592099 
L 406.108696 128.802935 
L 411.365217 130.825147 
L 416.621739 123.173038 
L 421.878261 116.290784 
L 427.134783 110.503953 
L 432.391304 111.893432 
L 437.647826 112.694352 
L 442.904348 115.808606 
L 448.16087 113.378033 
L 453.417391 111.547214 
L 458.673913 110.526505 
L 463.930435 110.470197 
L 469.186957 111.682136 
L 474.443478 111.068004 
L 479.7 112.575 
L 484.956522 113.561807 
L 495.469565 120.424178 
L 500.726087 121.269235 
L 505.982609 115.774836 
L 511.23913 111.868396 
L 516.495652 111.731547 
L 521.752174 114.536896 
L 527.008696 115.343587 
L 532.265217 114.582995 
L 537.521739 114.338992 
L 542.778261 114.894547 
L 548.034783 111.669813 
L 553.291304 112.031996 
L 558.547826 113.18297 
L 563.804348 116.882892 
L 569.06087 115.246057 
L 574.317391 112.868697 
L 579.573913 110.846391 
L 584.830435 108.492579 
L 590.086957 109.146164 
L 595.343478 109.227655 
L 600.6 109.909305 
L 605.856522 108.463633 
L 611.113043 107.851721 
L 616.369565 110.336041 
L 621.626087 111.99406 
L 626.882609 115.910443 
L 632.13913 116.449626 
L 637.395652 116.574519 
L 642.652174 115.640622 
L 647.908696 114.010759 
L 658.421739 114.203717 
L 663.678261 111.510657 
L 668.934783 109.350851 
L 674.191304 108.785618 
L 679.447826 110.605745 
L 689.96087 117.913682 
L 695.217391 122.035887 
L 700.473913 119.163263 
L 705.730435 114.81596 
L 710.986957 112.352488 
L 716.243478 114.218679 
L 721.5 115.927493 
L 726.756522 118.01337 
L 732.013043 112.326557 
L 737.269565 112.172045 
L 742.526087 111.583873 
L 747.782609 114.025501 
L 753.03913 113.835137 
L 758.295652 113.981324 
L 763.552174 115.376259 
L 768.808696 115.825524 
L 774.065217 116.151194 
L 779.321739 115.053153 
L 784.578261 109.94164 
L 789.834783 110.997614 
L 795.091304 112.456728 
L 800.347826 121.686644 
L 805.604348 119.054445 
L 810.86087 119.250974 
L 816.117391 116.736868 
L 821.373913 118.628012 
L 826.630435 115.574028 
L 831.886957 115.262261 
L 837.143478 115.978778 
L 842.4 122.592099 
L 842.4 122.592099 
" style="fill:none;stroke:#8c564b;stroke-dasharray:1.5,2.475;stroke-dashoffset:0;stroke-width:1.5;"/>
   </g>
   <g id="line2d_45">
    <path clip-path="url(#pe403ee091c)" d="M -1 135.909891 
L 1.356522 127.74983 
L 6.613043 122.117825 
L 11.869565 115.876409 
L 17.126087 116.255747 
L 22.382609 114.188773 
L 27.63913 115.808606 
L 32.895652 115.085106 
L 38.152174 115.44185 
L 43.408696 116.664464 
L 48.665217 105.235012 
L 53.921739 105.962544 
L 59.178261 106.42428 
L 64.434783 123.202774 
L 69.691304 124.952148 
L 74.947826 125.687144 
L 80.204348 125.904966 
L 85.46087 123.68799 
L 90.717391 122.966759 
L 95.973913 121.660162 
L 101.230435 124.159846 
L 106.486957 126.313986 
L 111.743478 132.532221 
L 117 132.964804 
L 122.256522 130.666091 
L 127.513043 125.615337 
L 132.769565 124.386014 
L 138.026087 124.517033 
L 143.282609 125.687144 
L 148.53913 127.092132 
L 153.795652 128.757319 
L 159.052174 130.048543 
L 164.308696 129.555315 
L 169.565217 129.555315 
L 174.821739 130.456982 
L 180.078261 131.203985 
L 185.334783 129.507001 
L 190.591304 129.458865 
L 195.847826 130.666091 
L 201.104348 133.477379 
L 206.36087 133.412197 
L 211.617391 131.594133 
L 216.873913 127.092132 
L 222.130435 124.032342 
L 227.386957 123.173038 
L 232.643478 124.583038 
L 237.9 127.582276 
L 243.156522 130.35367 
L 248.413043 132.593149 
L 253.669565 131.880118 
L 258.926087 129.701339 
L 264.182609 129.603809 
L 269.43913 129.220807 
L 274.695652 127.834419 
L 285.208696 124.616166 
L 290.465217 126.81448 
L 295.721739 129.750378 
L 306.234783 136.641009 
L 311.491304 135.148032 
L 316.747826 137.412518 
L 322.004348 129.603809 
L 327.26087 126.23866 
L 332.517391 121.686644 
L 337.773913 120.328258 
L 343.030435 121.846674 
L 348.286957 124.682675 
L 353.543478 128.987009 
L 358.8 127.416844 
L 364.056522 129.31551 
L 369.313043 131.880118 
L 374.569565 135.148032 
L 379.826087 135.912518 
L 385.082609 134.079127 
L 390.33913 134.425804 
L 395.595652 135.912518 
L 400.852174 139.00713 
L 406.108696 144.206765 
L 411.365217 144.66007 
L 416.621739 125.759349 
L 421.878261 122.311034 
L 427.134783 115.278486 
L 432.391304 120.114979 
L 437.647826 120.914629 
L 442.904348 128.711862 
L 448.16087 122.821385 
L 453.417391 118.544371 
L 458.673913 117.293079 
L 463.930435 118.839489 
L 469.186957 121.981546 
L 484.956522 118.946525 
L 490.213043 119.997977 
L 495.469565 122.908415 
L 500.726087 126.163766 
L 505.982609 127.74983 
L 511.23913 123.173038 
L 516.495652 121.294937 
L 521.752174 119.974702 
L 532.265217 120.939641 
L 537.521739 120.815055 
L 542.778261 121.900456 
L 548.034783 118.073549 
L 553.291304 118.968038 
L 558.547826 120.185686 
L 563.804348 125.05465 
L 569.06087 123.626343 
L 574.317391 121.846674 
L 579.573913 117.161164 
L 584.830435 115.409014 
L 590.086957 114.863055 
L 595.343478 116.449626 
L 605.856522 117.716559 
L 611.113043 117.599697 
L 616.369565 121.424206 
L 621.626087 121.766414 
L 626.882609 128.221996 
L 637.395652 131.996287 
L 642.652174 130.878599 
L 647.908696 129.173712 
L 653.165217 129.89861 
L 658.421739 131.040279 
L 663.678261 125.941625 
L 668.934783 123.3224 
L 674.191304 122.22788 
L 679.447826 125.123435 
L 684.704348 129.31551 
L 689.96087 132.172501 
L 695.217391 133.87545 
L 700.473913 130.986163 
L 705.730435 129.173712 
L 710.986957 127.540722 
L 716.243478 127.623964 
L 721.5 126.932752 
L 726.756522 128.265778 
L 732.013043 128.091522 
L 737.269565 129.555315 
L 742.526087 130.456982 
L 747.782609 132.172501 
L 753.03913 132.715863 
L 758.295652 130.986163 
L 763.552174 130.048543 
L 768.808696 127.962338 
L 774.065217 123.3224 
L 779.321739 117.293079 
L 784.578261 112.019339 
L 789.834783 111.032761 
L 795.091304 111.657501 
L 800.347826 112.133701 
L 805.604348 111.021035 
L 810.86087 111.768727 
L 816.117391 112.990775 
L 821.373913 113.059092 
L 826.630435 111.559422 
L 831.886957 111.068004 
L 837.143478 112.184852 
L 842.4 117.105033 
L 842.4 117.105033 
" style="fill:none;stroke:#e377c2;stroke-dasharray:1.5,2.475;stroke-dashoffset:0;stroke-width:1.5;"/>
   </g>
   <g id="patch_3">
    <path d="M 117 172.628571 
L 117 43.2 
" style="fill:none;stroke:#000000;stroke-linecap:square;stroke-linejoin:miter;stroke-width:0.8;"/>
   </g>
   <g id="patch_4">
    <path d="M 842.4 172.628571 
L 842.4 43.2 
" style="fill:none;stroke:#000000;stroke-linecap:square;stroke-linejoin:miter;stroke-width:0.8;"/>
   </g>
   <g id="patch_5">
    <path d="M 117 172.628571 
L 842.4 172.628571 
" style="fill:none;stroke:#000000;stroke-linecap:square;stroke-linejoin:miter;stroke-width:0.8;"/>
   </g>
   <g id="patch_6">
    <path d="M 117 43.2 
L 842.4 43.2 
" style="fill:none;stroke:#000000;stroke-linecap:square;stroke-linejoin:miter;stroke-width:0.8;"/>
   </g>
   <g id="legend_1">
    <g id="patch_7">
     <path d="M 124 153.946875 
L 219.6375 153.946875 
Q 221.6375 153.946875 221.6375 151.946875 
L 221.6375 50.2 
Q 221.6375 48.2 219.6375 48.2 
L 124 48.2 
Q 122 48.2 122 50.2 
L 122 151.946875 
Q 122 153.946875 124 153.946875 
z
" style="fill:#ffffff;stroke:#cccccc;stroke-linejoin:miter;"/>
    </g>
    <g id="line2d_46">
     <path d="M 126 56.298437 
L 146 56.298437 
" style="fill:none;stroke:#1f77b4;stroke-linecap:square;stroke-width:1.5;"/>
    </g>
    <g id="line2d_47"/>
    <g id="text_7">
     <!-- Awkward 0.x -->
     <g transform="translate(154 59.798437)scale(0.1 -0.1)">
      <defs>
       <path d="M 34.1875 63.1875 
L 20.796875 26.90625 
L 47.609375 26.90625 
z
M 28.609375 72.90625 
L 39.796875 72.90625 
L 67.578125 0 
L 57.328125 0 
L 50.6875 18.703125 
L 17.828125 18.703125 
L 11.1875 0 
L 0.78125 0 
z
" id="DejaVuSans-65"/>
       <path d="M 4.203125 54.6875 
L 13.1875 54.6875 
L 24.421875 12.015625 
L 35.59375 54.6875 
L 46.1875 54.6875 
L 57.421875 12.015625 
L 68.609375 54.6875 
L 77.59375 54.6875 
L 63.28125 0 
L 52.6875 0 
L 40.921875 44.828125 
L 29.109375 0 
L 18.5 0 
z
" id="DejaVuSans-119"/>
       <path d="M 9.078125 75.984375 
L 18.109375 75.984375 
L 18.109375 31.109375 
L 44.921875 54.6875 
L 56.390625 54.6875 
L 27.390625 29.109375 
L 57.625 0 
L 45.90625 0 
L 18.109375 26.703125 
L 18.109375 0 
L 9.078125 0 
z
" id="DejaVuSans-107"/>
       <path d="M 45.40625 46.390625 
L 45.40625 75.984375 
L 54.390625 75.984375 
L 54.390625 0 
L 45.40625 0 
L 45.40625 8.203125 
Q 42.578125 3.328125 38.25 0.953125 
Q 33.9375 -1.421875 27.875 -1.421875 
Q 17.96875 -1.421875 11.734375 6.484375 
Q 5.515625 14.40625 5.515625 27.296875 
Q 5.515625 40.1875 11.734375 48.09375 
Q 17.96875 56 27.875 56 
Q 33.9375 56 38.25 53.625 
Q 42.578125 51.265625 45.40625 46.390625 
z
M 14.796875 27.296875 
Q 14.796875 17.390625 18.875 11.75 
Q 22.953125 6.109375 30.078125 6.109375 
Q 37.203125 6.109375 41.296875 11.75 
Q 45.40625 17.390625 45.40625 27.296875 
Q 45.40625 37.203125 41.296875 42.84375 
Q 37.203125 48.484375 30.078125 48.484375 
Q 22.953125 48.484375 18.875 42.84375 
Q 14.796875 37.203125 14.796875 27.296875 
z
" id="DejaVuSans-100"/>
       <path d="M 10.6875 12.40625 
L 21 12.40625 
L 21 0 
L 10.6875 0 
z
" id="DejaVuSans-46"/>
       <path d="M 54.890625 54.6875 
L 35.109375 28.078125 
L 55.90625 0 
L 45.3125 0 
L 29.390625 21.484375 
L 13.484375 0 
L 2.875 0 
L 24.125 28.609375 
L 4.6875 54.6875 
L 15.28125 54.6875 
L 29.78125 35.203125 
L 44.28125 54.6875 
z
" id="DejaVuSans-120"/>
      </defs>
      <use xlink:href="#DejaVuSans-65"/>
      <use x="64.408203" xlink:href="#DejaVuSans-119"/>
      <use x="146.195312" xlink:href="#DejaVuSans-107"/>
      <use x="204.105469" xlink:href="#DejaVuSans-119"/>
      <use x="285.892578" xlink:href="#DejaVuSans-97"/>
      <use x="347.171875" xlink:href="#DejaVuSans-114"/>
      <use x="386.535156" xlink:href="#DejaVuSans-100"/>
      <use x="450.011719" xlink:href="#DejaVuSans-32"/>
      <use x="481.798828" xlink:href="#DejaVuSans-48"/>
      <use x="545.421875" xlink:href="#DejaVuSans-46"/>
      <use x="577.208984" xlink:href="#DejaVuSans-120"/>
     </g>
    </g>
    <g id="line2d_48">
     <path d="M 126 70.976562 
L 146 70.976562 
" style="fill:none;stroke:#ff7f0e;stroke-linecap:square;stroke-width:1.5;"/>
    </g>
    <g id="line2d_49"/>
    <g id="text_8">
     <!-- Awkward 1.x -->
     <g transform="translate(154 74.476562)scale(0.1 -0.1)">
      <use xlink:href="#DejaVuSans-65"/>
      <use x="64.408203" xlink:href="#DejaVuSans-119"/>
      <use x="146.195312" xlink:href="#DejaVuSans-107"/>
      <use x="204.105469" xlink:href="#DejaVuSans-119"/>
      <use x="285.892578" xlink:href="#DejaVuSans-97"/>
      <use x="347.171875" xlink:href="#DejaVuSans-114"/>
      <use x="386.535156" xlink:href="#DejaVuSans-100"/>
      <use x="450.011719" xlink:href="#DejaVuSans-32"/>
      <use x="481.798828" xlink:href="#DejaVuSans-49"/>
      <use x="545.421875" xlink:href="#DejaVuSans-46"/>
      <use x="577.208984" xlink:href="#DejaVuSans-120"/>
     </g>
    </g>
    <g id="line2d_50">
     <path d="M 126 85.654687 
L 146 85.654687 
" style="fill:none;stroke:#2ca02c;stroke-linecap:square;stroke-width:1.5;"/>
    </g>
    <g id="line2d_51"/>
    <g id="text_9">
     <!-- Uproot 3.x -->
     <g transform="translate(154 89.154687)scale(0.1 -0.1)">
      <defs>
       <path d="M 8.6875 72.90625 
L 18.609375 72.90625 
L 18.609375 28.609375 
Q 18.609375 16.890625 22.84375 11.734375 
Q 27.09375 6.59375 36.625 6.59375 
Q 46.09375 6.59375 50.34375 11.734375 
Q 54.59375 16.890625 54.59375 28.609375 
L 54.59375 72.90625 
L 64.5 72.90625 
L 64.5 27.390625 
Q 64.5 13.140625 57.4375 5.859375 
Q 50.390625 -1.421875 36.625 -1.421875 
Q 22.796875 -1.421875 15.734375 5.859375 
Q 8.6875 13.140625 8.6875 27.390625 
z
" id="DejaVuSans-85"/>
      </defs>
      <use xlink:href="#DejaVuSans-85"/>
      <use x="73.193359" xlink:href="#DejaVuSans-112"/>
      <use x="136.669922" xlink:href="#DejaVuSans-114"/>
      <use x="175.533203" xlink:href="#DejaVuSans-111"/>
      <use x="236.714844" xlink:href="#DejaVuSans-111"/>
      <use x="297.896484" xlink:href="#DejaVuSans-116"/>
      <use x="337.105469" xlink:href="#DejaVuSans-32"/>
      <use x="368.892578" xlink:href="#DejaVuSans-51"/>
      <use x="432.515625" xlink:href="#DejaVuSans-46"/>
      <use x="464.302734" xlink:href="#DejaVuSans-120"/>
     </g>
    </g>
    <g id="line2d_52">
     <path d="M 126 100.332812 
L 146 100.332812 
" style="fill:none;stroke:#d62728;stroke-linecap:square;stroke-width:1.5;"/>
    </g>
    <g id="line2d_53"/>
    <g id="text_10">
     <!-- Uproot 4.x -->
     <g transform="translate(154 103.832812)scale(0.1 -0.1)">
      <use xlink:href="#DejaVuSans-85"/>
      <use x="73.193359" xlink:href="#DejaVuSans-112"/>
      <use x="136.669922" xlink:href="#DejaVuSans-114"/>
      <use x="175.533203" xlink:href="#DejaVuSans-111"/>
      <use x="236.714844" xlink:href="#DejaVuSans-111"/>
      <use x="297.896484" xlink:href="#DejaVuSans-116"/>
      <use x="337.105469" xlink:href="#DejaVuSans-32"/>
      <use x="368.892578" xlink:href="#DejaVuSans-52"/>
      <use x="432.515625" xlink:href="#DejaVuSans-46"/>
      <use x="464.302734" xlink:href="#DejaVuSans-120"/>
     </g>
    </g>
    <g id="line2d_54">
     <path d="M 126 115.010937 
L 146 115.010937 
" style="fill:none;stroke:#9467bd;stroke-dasharray:1.5,2.475;stroke-dashoffset:0;stroke-width:1.5;"/>
    </g>
    <g id="line2d_55"/>
    <g id="text_11">
     <!-- iminuit -->
     <g transform="translate(154 118.510937)scale(0.1 -0.1)">
      <defs>
       <path d="M 8.5 21.578125 
L 8.5 54.6875 
L 17.484375 54.6875 
L 17.484375 21.921875 
Q 17.484375 14.15625 20.5 10.265625 
Q 23.53125 6.390625 29.59375 6.390625 
Q 36.859375 6.390625 41.078125 11.03125 
Q 45.3125 15.671875 45.3125 23.6875 
L 45.3125 54.6875 
L 54.296875 54.6875 
L 54.296875 0 
L 45.3125 0 
L 45.3125 8.40625 
Q 42.046875 3.421875 37.71875 1 
Q 33.40625 -1.421875 27.6875 -1.421875 
Q 18.265625 -1.421875 13.375 4.4375 
Q 8.5 10.296875 8.5 21.578125 
z
M 31.109375 56 
z
" id="DejaVuSans-117"/>
      </defs>
      <use xlink:href="#DejaVuSans-105"/>
      <use x="27.783203" xlink:href="#DejaVuSans-109"/>
      <use x="125.195312" xlink:href="#DejaVuSans-105"/>
      <use x="152.978516" xlink:href="#DejaVuSans-110"/>
      <use x="216.357422" xlink:href="#DejaVuSans-117"/>
      <use x="279.736328" xlink:href="#DejaVuSans-105"/>
      <use x="307.519531" xlink:href="#DejaVuSans-116"/>
     </g>
    </g>
    <g id="line2d_56">
     <path d="M 126 129.689062 
L 146 129.689062 
" style="fill:none;stroke:#8c564b;stroke-dasharray:1.5,2.475;stroke-dashoffset:0;stroke-width:1.5;"/>
    </g>
    <g id="line2d_57"/>
    <g id="text_12">
     <!-- root-numpy -->
     <g transform="translate(154 133.189062)scale(0.1 -0.1)">
      <defs>
       <path d="M 32.171875 -5.078125 
Q 28.375 -14.84375 24.75 -17.8125 
Q 21.140625 -20.796875 15.09375 -20.796875 
L 7.90625 -20.796875 
L 7.90625 -13.28125 
L 13.1875 -13.28125 
Q 16.890625 -13.28125 18.9375 -11.515625 
Q 21 -9.765625 23.484375 -3.21875 
L 25.09375 0.875 
L 2.984375 54.6875 
L 12.5 54.6875 
L 29.59375 11.921875 
L 46.6875 54.6875 
L 56.203125 54.6875 
z
" id="DejaVuSans-121"/>
      </defs>
      <use xlink:href="#DejaVuSans-114"/>
      <use x="38.863281" xlink:href="#DejaVuSans-111"/>
      <use x="100.044922" xlink:href="#DejaVuSans-111"/>
      <use x="161.226562" xlink:href="#DejaVuSans-116"/>
      <use x="200.435547" xlink:href="#DejaVuSans-45"/>
      <use x="236.519531" xlink:href="#DejaVuSans-110"/>
      <use x="299.898438" xlink:href="#DejaVuSans-117"/>
      <use x="363.277344" xlink:href="#DejaVuSans-109"/>
      <use x="460.689453" xlink:href="#DejaVuSans-112"/>
      <use x="524.166016" xlink:href="#DejaVuSans-121"/>
     </g>
    </g>
    <g id="line2d_58">
     <path d="M 126 144.367187 
L 146 144.367187 
" style="fill:none;stroke:#e377c2;stroke-dasharray:1.5,2.475;stroke-dashoffset:0;stroke-width:1.5;"/>
    </g>
    <g id="line2d_59"/>
    <g id="text_13">
     <!-- rootpy -->
     <g transform="translate(154 147.867187)scale(0.1 -0.1)">
      <use xlink:href="#DejaVuSans-114"/>
      <use x="38.863281" xlink:href="#DejaVuSans-111"/>
      <use x="100.044922" xlink:href="#DejaVuSans-111"/>
      <use x="161.226562" xlink:href="#DejaVuSans-116"/>
      <use x="200.435547" xlink:href="#DejaVuSans-112"/>
      <use x="263.912109" xlink:href="#DejaVuSans-121"/>
     </g>
    </g>
   </g>
  </g>
  <g id="axes_2">
   <g id="patch_8">
    <path d="M 117 315 
L 842.4 315 
L 842.4 185.571429 
L 117 185.571429 
z
" style="fill:#ffffff;"/>
   </g>
   <g id="matplotlib.axis_3">
    <g id="xtick_1">
     <g id="line2d_60">
      <defs>
       <path d="M 0 0 
L 0 3.5 
" id="m739c74019c" style="stroke:#000000;stroke-width:0.8;"/>
      </defs>
      <g>
       <use style="stroke:#000000;stroke-width:0.8;" x="117" xlink:href="#m739c74019c" y="315"/>
      </g>
     </g>
     <g id="text_14">
      <!-- Jan -->
      <g transform="translate(109.292187 329.598437)scale(0.1 -0.1)">
       <defs>
        <path d="M 9.8125 72.90625 
L 19.671875 72.90625 
L 19.671875 5.078125 
Q 19.671875 -8.109375 14.671875 -14.0625 
Q 9.671875 -20.015625 -1.421875 -20.015625 
L -5.171875 -20.015625 
L -5.171875 -11.71875 
L -2.09375 -11.71875 
Q 4.4375 -11.71875 7.125 -8.046875 
Q 9.8125 -4.390625 9.8125 5.078125 
z
" id="DejaVuSans-74"/>
       </defs>
       <use xlink:href="#DejaVuSans-74"/>
       <use x="29.492188" xlink:href="#DejaVuSans-97"/>
       <use x="90.771484" xlink:href="#DejaVuSans-110"/>
      </g>
      <!-- 2017 -->
      <g transform="translate(104.275 340.79625)scale(0.1 -0.1)">
       <defs>
        <path d="M 8.203125 72.90625 
L 55.078125 72.90625 
L 55.078125 68.703125 
L 28.609375 0 
L 18.3125 0 
L 43.21875 64.59375 
L 8.203125 64.59375 
z
" id="DejaVuSans-55"/>
       </defs>
       <use xlink:href="#DejaVuSans-50"/>
       <use x="63.623047" xlink:href="#DejaVuSans-48"/>
       <use x="127.246094" xlink:href="#DejaVuSans-49"/>
       <use x="190.869141" xlink:href="#DejaVuSans-55"/>
      </g>
     </g>
    </g>
    <g id="xtick_2">
     <g id="line2d_61">
      <g>
       <use style="stroke:#000000;stroke-width:0.8;" x="308.863043" xlink:href="#m739c74019c" y="315"/>
      </g>
     </g>
     <g id="text_15">
      <!-- Jan -->
      <g transform="translate(301.155231 329.598437)scale(0.1 -0.1)">
       <use xlink:href="#DejaVuSans-74"/>
       <use x="29.492188" xlink:href="#DejaVuSans-97"/>
       <use x="90.771484" xlink:href="#DejaVuSans-110"/>
      </g>
      <!-- 2018 -->
      <g transform="translate(296.138043 340.79625)scale(0.1 -0.1)">
       <defs>
        <path d="M 31.78125 34.625 
Q 24.75 34.625 20.71875 30.859375 
Q 16.703125 27.09375 16.703125 20.515625 
Q 16.703125 13.921875 20.71875 10.15625 
Q 24.75 6.390625 31.78125 6.390625 
Q 38.8125 6.390625 42.859375 10.171875 
Q 46.921875 13.96875 46.921875 20.515625 
Q 46.921875 27.09375 42.890625 30.859375 
Q 38.875 34.625 31.78125 34.625 
z
M 21.921875 38.8125 
Q 15.578125 40.375 12.03125 44.71875 
Q 8.5 49.078125 8.5 55.328125 
Q 8.5 64.0625 14.71875 69.140625 
Q 20.953125 74.21875 31.78125 74.21875 
Q 42.671875 74.21875 48.875 69.140625 
Q 55.078125 64.0625 55.078125 55.328125 
Q 55.078125 49.078125 51.53125 44.71875 
Q 48 40.375 41.703125 38.8125 
Q 48.828125 37.15625 52.796875 32.3125 
Q 56.78125 27.484375 56.78125 20.515625 
Q 56.78125 9.90625 50.3125 4.234375 
Q 43.84375 -1.421875 31.78125 -1.421875 
Q 19.734375 -1.421875 13.25 4.234375 
Q 6.78125 9.90625 6.78125 20.515625 
Q 6.78125 27.484375 10.78125 32.3125 
Q 14.796875 37.15625 21.921875 38.8125 
z
M 18.3125 54.390625 
Q 18.3125 48.734375 21.84375 45.5625 
Q 25.390625 42.390625 31.78125 42.390625 
Q 38.140625 42.390625 41.71875 45.5625 
Q 45.3125 48.734375 45.3125 54.390625 
Q 45.3125 60.0625 41.71875 63.234375 
Q 38.140625 66.40625 31.78125 66.40625 
Q 25.390625 66.40625 21.84375 63.234375 
Q 18.3125 60.0625 18.3125 54.390625 
z
" id="DejaVuSans-56"/>
       </defs>
       <use xlink:href="#DejaVuSans-50"/>
       <use x="63.623047" xlink:href="#DejaVuSans-48"/>
       <use x="127.246094" xlink:href="#DejaVuSans-49"/>
       <use x="190.869141" xlink:href="#DejaVuSans-56"/>
      </g>
     </g>
    </g>
    <g id="xtick_3">
     <g id="line2d_62">
      <g>
       <use style="stroke:#000000;stroke-width:0.8;" x="500.726087" xlink:href="#m739c74019c" y="315"/>
      </g>
     </g>
     <g id="text_16">
      <!-- Jan -->
      <g transform="translate(493.018274 329.598437)scale(0.1 -0.1)">
       <use xlink:href="#DejaVuSans-74"/>
       <use x="29.492188" xlink:href="#DejaVuSans-97"/>
       <use x="90.771484" xlink:href="#DejaVuSans-110"/>
      </g>
      <!-- 2019 -->
      <g transform="translate(488.001087 340.79625)scale(0.1 -0.1)">
       <defs>
        <path d="M 10.984375 1.515625 
L 10.984375 10.5 
Q 14.703125 8.734375 18.5 7.8125 
Q 22.3125 6.890625 25.984375 6.890625 
Q 35.75 6.890625 40.890625 13.453125 
Q 46.046875 20.015625 46.78125 33.40625 
Q 43.953125 29.203125 39.59375 26.953125 
Q 35.25 24.703125 29.984375 24.703125 
Q 19.046875 24.703125 12.671875 31.3125 
Q 6.296875 37.9375 6.296875 49.421875 
Q 6.296875 60.640625 12.9375 67.421875 
Q 19.578125 74.21875 30.609375 74.21875 
Q 43.265625 74.21875 49.921875 64.515625 
Q 56.59375 54.828125 56.59375 36.375 
Q 56.59375 19.140625 48.40625 8.859375 
Q 40.234375 -1.421875 26.421875 -1.421875 
Q 22.703125 -1.421875 18.890625 -0.6875 
Q 15.09375 0.046875 10.984375 1.515625 
z
M 30.609375 32.421875 
Q 37.25 32.421875 41.125 36.953125 
Q 45.015625 41.5 45.015625 49.421875 
Q 45.015625 57.28125 41.125 61.84375 
Q 37.25 66.40625 30.609375 66.40625 
Q 23.96875 66.40625 20.09375 61.84375 
Q 16.21875 57.28125 16.21875 49.421875 
Q 16.21875 41.5 20.09375 36.953125 
Q 23.96875 32.421875 30.609375 32.421875 
z
" id="DejaVuSans-57"/>
       </defs>
       <use xlink:href="#DejaVuSans-50"/>
       <use x="63.623047" xlink:href="#DejaVuSans-48"/>
       <use x="127.246094" xlink:href="#DejaVuSans-49"/>
       <use x="190.869141" xlink:href="#DejaVuSans-57"/>
      </g>
     </g>
    </g>
    <g id="xtick_4">
     <g id="line2d_63">
      <g>
       <use style="stroke:#000000;stroke-width:0.8;" x="692.58913" xlink:href="#m739c74019c" y="315"/>
      </g>
     </g>
     <g id="text_17">
      <!-- Jan -->
      <g transform="translate(684.881318 329.598437)scale(0.1 -0.1)">
       <use xlink:href="#DejaVuSans-74"/>
       <use x="29.492188" xlink:href="#DejaVuSans-97"/>
       <use x="90.771484" xlink:href="#DejaVuSans-110"/>
      </g>
      <!-- 2020 -->
      <g transform="translate(679.86413 340.79625)scale(0.1 -0.1)">
       <use xlink:href="#DejaVuSans-50"/>
       <use x="63.623047" xlink:href="#DejaVuSans-48"/>
       <use x="127.246094" xlink:href="#DejaVuSans-50"/>
       <use x="190.869141" xlink:href="#DejaVuSans-48"/>
      </g>
     </g>
    </g>
    <g id="xtick_5">
     <g id="line2d_64">
      <g>
       <use style="stroke:#000000;stroke-width:0.8;" x="842.4" xlink:href="#m739c74019c" y="315"/>
      </g>
     </g>
    </g>
    <g id="xtick_6">
     <g id="line2d_65">
      <defs>
       <path d="M 0 0 
L 0 2 
" id="m9222653b65" style="stroke:#000000;stroke-width:0.6;"/>
      </defs>
      <g>
       <use style="stroke:#000000;stroke-width:0.6;" x="133.295217" xlink:href="#m9222653b65" y="315"/>
      </g>
     </g>
    </g>
    <g id="xtick_7">
     <g id="line2d_66">
      <g>
       <use style="stroke:#000000;stroke-width:0.6;" x="148.013478" xlink:href="#m9222653b65" y="315"/>
      </g>
     </g>
    </g>
    <g id="xtick_8">
     <g id="line2d_67">
      <g>
       <use style="stroke:#000000;stroke-width:0.6;" x="164.308696" xlink:href="#m9222653b65" y="315"/>
      </g>
     </g>
    </g>
    <g id="xtick_9">
     <g id="line2d_68">
      <g>
       <use style="stroke:#000000;stroke-width:0.6;" x="180.078261" xlink:href="#m9222653b65" y="315"/>
      </g>
     </g>
    </g>
    <g id="xtick_10">
     <g id="line2d_69">
      <g>
       <use style="stroke:#000000;stroke-width:0.6;" x="196.373478" xlink:href="#m9222653b65" y="315"/>
      </g>
     </g>
    </g>
    <g id="xtick_11">
     <g id="line2d_70">
      <g>
       <use style="stroke:#000000;stroke-width:0.6;" x="212.143043" xlink:href="#m9222653b65" y="315"/>
      </g>
     </g>
     <g id="text_18">
      <!-- Jul -->
      <g transform="translate(206.110231 327.998438)scale(0.1 -0.1)">
       <use xlink:href="#DejaVuSans-74"/>
       <use x="29.492188" xlink:href="#DejaVuSans-117"/>
       <use x="92.871094" xlink:href="#DejaVuSans-108"/>
      </g>
     </g>
    </g>
    <g id="xtick_12">
     <g id="line2d_71">
      <g>
       <use style="stroke:#000000;stroke-width:0.6;" x="228.438261" xlink:href="#m9222653b65" y="315"/>
      </g>
     </g>
    </g>
    <g id="xtick_13">
     <g id="line2d_72">
      <g>
       <use style="stroke:#000000;stroke-width:0.6;" x="244.733478" xlink:href="#m9222653b65" y="315"/>
      </g>
     </g>
    </g>
    <g id="xtick_14">
     <g id="line2d_73">
      <g>
       <use style="stroke:#000000;stroke-width:0.6;" x="260.503043" xlink:href="#m9222653b65" y="315"/>
      </g>
     </g>
    </g>
    <g id="xtick_15">
     <g id="line2d_74">
      <g>
       <use style="stroke:#000000;stroke-width:0.6;" x="276.798261" xlink:href="#m9222653b65" y="315"/>
      </g>
     </g>
    </g>
    <g id="xtick_16">
     <g id="line2d_75">
      <g>
       <use style="stroke:#000000;stroke-width:0.6;" x="292.567826" xlink:href="#m9222653b65" y="315"/>
      </g>
     </g>
    </g>
    <g id="xtick_17">
     <g id="line2d_76">
      <g>
       <use style="stroke:#000000;stroke-width:0.6;" x="325.158261" xlink:href="#m9222653b65" y="315"/>
      </g>
     </g>
    </g>
    <g id="xtick_18">
     <g id="line2d_77">
      <g>
       <use style="stroke:#000000;stroke-width:0.6;" x="339.876522" xlink:href="#m9222653b65" y="315"/>
      </g>
     </g>
    </g>
    <g id="xtick_19">
     <g id="line2d_78">
      <g>
       <use style="stroke:#000000;stroke-width:0.6;" x="356.171739" xlink:href="#m9222653b65" y="315"/>
      </g>
     </g>
    </g>
    <g id="xtick_20">
     <g id="line2d_79">
      <g>
       <use style="stroke:#000000;stroke-width:0.6;" x="371.941304" xlink:href="#m9222653b65" y="315"/>
      </g>
     </g>
    </g>
    <g id="xtick_21">
     <g id="line2d_80">
      <g>
       <use style="stroke:#000000;stroke-width:0.6;" x="388.236522" xlink:href="#m9222653b65" y="315"/>
      </g>
     </g>
    </g>
    <g id="xtick_22">
     <g id="line2d_81">
      <g>
       <use style="stroke:#000000;stroke-width:0.6;" x="404.006087" xlink:href="#m9222653b65" y="315"/>
      </g>
     </g>
     <g id="text_19">
      <!-- Jul -->
      <g transform="translate(397.973274 327.998438)scale(0.1 -0.1)">
       <use xlink:href="#DejaVuSans-74"/>
       <use x="29.492188" xlink:href="#DejaVuSans-117"/>
       <use x="92.871094" xlink:href="#DejaVuSans-108"/>
      </g>
     </g>
    </g>
    <g id="xtick_23">
     <g id="line2d_82">
      <g>
       <use style="stroke:#000000;stroke-width:0.6;" x="420.301304" xlink:href="#m9222653b65" y="315"/>
      </g>
     </g>
    </g>
    <g id="xtick_24">
     <g id="line2d_83">
      <g>
       <use style="stroke:#000000;stroke-width:0.6;" x="436.596522" xlink:href="#m9222653b65" y="315"/>
      </g>
     </g>
    </g>
    <g id="xtick_25">
     <g id="line2d_84">
      <g>
       <use style="stroke:#000000;stroke-width:0.6;" x="452.366087" xlink:href="#m9222653b65" y="315"/>
      </g>
     </g>
    </g>
    <g id="xtick_26">
     <g id="line2d_85">
      <g>
       <use style="stroke:#000000;stroke-width:0.6;" x="468.661304" xlink:href="#m9222653b65" y="315"/>
      </g>
     </g>
    </g>
    <g id="xtick_27">
     <g id="line2d_86">
      <g>
       <use style="stroke:#000000;stroke-width:0.6;" x="484.43087" xlink:href="#m9222653b65" y="315"/>
      </g>
     </g>
    </g>
    <g id="xtick_28">
     <g id="line2d_87">
      <g>
       <use style="stroke:#000000;stroke-width:0.6;" x="517.021304" xlink:href="#m9222653b65" y="315"/>
      </g>
     </g>
    </g>
    <g id="xtick_29">
     <g id="line2d_88">
      <g>
       <use style="stroke:#000000;stroke-width:0.6;" x="531.739565" xlink:href="#m9222653b65" y="315"/>
      </g>
     </g>
    </g>
    <g id="xtick_30">
     <g id="line2d_89">
      <g>
       <use style="stroke:#000000;stroke-width:0.6;" x="548.034783" xlink:href="#m9222653b65" y="315"/>
      </g>
     </g>
    </g>
    <g id="xtick_31">
     <g id="line2d_90">
      <g>
       <use style="stroke:#000000;stroke-width:0.6;" x="563.804348" xlink:href="#m9222653b65" y="315"/>
      </g>
     </g>
    </g>
    <g id="xtick_32">
     <g id="line2d_91">
      <g>
       <use style="stroke:#000000;stroke-width:0.6;" x="580.099565" xlink:href="#m9222653b65" y="315"/>
      </g>
     </g>
    </g>
    <g id="xtick_33">
     <g id="line2d_92">
      <g>
       <use style="stroke:#000000;stroke-width:0.6;" x="595.86913" xlink:href="#m9222653b65" y="315"/>
      </g>
     </g>
     <g id="text_20">
      <!-- Jul -->
      <g transform="translate(589.836318 327.998438)scale(0.1 -0.1)">
       <use xlink:href="#DejaVuSans-74"/>
       <use x="29.492188" xlink:href="#DejaVuSans-117"/>
       <use x="92.871094" xlink:href="#DejaVuSans-108"/>
      </g>
     </g>
    </g>
    <g id="xtick_34">
     <g id="line2d_93">
      <g>
       <use style="stroke:#000000;stroke-width:0.6;" x="612.164348" xlink:href="#m9222653b65" y="315"/>
      </g>
     </g>
    </g>
    <g id="xtick_35">
     <g id="line2d_94">
      <g>
       <use style="stroke:#000000;stroke-width:0.6;" x="628.459565" xlink:href="#m9222653b65" y="315"/>
      </g>
     </g>
    </g>
    <g id="xtick_36">
     <g id="line2d_95">
      <g>
       <use style="stroke:#000000;stroke-width:0.6;" x="644.22913" xlink:href="#m9222653b65" y="315"/>
      </g>
     </g>
    </g>
    <g id="xtick_37">
     <g id="line2d_96">
      <g>
       <use style="stroke:#000000;stroke-width:0.6;" x="660.524348" xlink:href="#m9222653b65" y="315"/>
      </g>
     </g>
    </g>
    <g id="xtick_38">
     <g id="line2d_97">
      <g>
       <use style="stroke:#000000;stroke-width:0.6;" x="676.293913" xlink:href="#m9222653b65" y="315"/>
      </g>
     </g>
    </g>
    <g id="xtick_39">
     <g id="line2d_98">
      <g>
       <use style="stroke:#000000;stroke-width:0.6;" x="708.884348" xlink:href="#m9222653b65" y="315"/>
      </g>
     </g>
    </g>
    <g id="xtick_40">
     <g id="line2d_99">
      <g>
       <use style="stroke:#000000;stroke-width:0.6;" x="724.128261" xlink:href="#m9222653b65" y="315"/>
      </g>
     </g>
    </g>
    <g id="xtick_41">
     <g id="line2d_100">
      <g>
       <use style="stroke:#000000;stroke-width:0.6;" x="740.423478" xlink:href="#m9222653b65" y="315"/>
      </g>
     </g>
    </g>
    <g id="xtick_42">
     <g id="line2d_101">
      <g>
       <use style="stroke:#000000;stroke-width:0.6;" x="756.193043" xlink:href="#m9222653b65" y="315"/>
      </g>
     </g>
    </g>
    <g id="xtick_43">
     <g id="line2d_102">
      <g>
       <use style="stroke:#000000;stroke-width:0.6;" x="772.488261" xlink:href="#m9222653b65" y="315"/>
      </g>
     </g>
    </g>
    <g id="xtick_44">
     <g id="line2d_103">
      <g>
       <use style="stroke:#000000;stroke-width:0.6;" x="788.257826" xlink:href="#m9222653b65" y="315"/>
      </g>
     </g>
     <g id="text_21">
      <!-- Jul -->
      <g transform="translate(782.225014 327.998438)scale(0.1 -0.1)">
       <use xlink:href="#DejaVuSans-74"/>
       <use x="29.492188" xlink:href="#DejaVuSans-117"/>
       <use x="92.871094" xlink:href="#DejaVuSans-108"/>
      </g>
     </g>
    </g>
    <g id="xtick_45">
     <g id="line2d_104">
      <g>
       <use style="stroke:#000000;stroke-width:0.6;" x="804.553043" xlink:href="#m9222653b65" y="315"/>
      </g>
     </g>
    </g>
    <g id="xtick_46">
     <g id="line2d_105">
      <g>
       <use style="stroke:#000000;stroke-width:0.6;" x="820.848261" xlink:href="#m9222653b65" y="315"/>
      </g>
     </g>
    </g>
    <g id="xtick_47">
     <g id="line2d_106">
      <g>
       <use style="stroke:#000000;stroke-width:0.6;" x="836.617826" xlink:href="#m9222653b65" y="315"/>
      </g>
     </g>
    </g>
   </g>
   <g id="matplotlib.axis_4">
    <g id="ytick_39">
     <g id="line2d_107">
      <g>
       <use style="stroke:#000000;stroke-width:0.8;" x="117" xlink:href="#m5f06f26e95" y="315"/>
      </g>
     </g>
     <g id="text_22">
      <!-- 0 -->
      <g transform="translate(103.6375 318.799219)scale(0.1 -0.1)">
       <use xlink:href="#DejaVuSans-48"/>
      </g>
     </g>
    </g>
    <g id="ytick_40">
     <g id="line2d_108">
      <g>
       <use style="stroke:#000000;stroke-width:0.8;" x="117" xlink:href="#m5f06f26e95" y="289.114286"/>
      </g>
     </g>
     <g id="text_23">
      <!-- 20 -->
      <g transform="translate(97.275 292.913504)scale(0.1 -0.1)">
       <use xlink:href="#DejaVuSans-50"/>
       <use x="63.623047" xlink:href="#DejaVuSans-48"/>
      </g>
     </g>
    </g>
    <g id="ytick_41">
     <g id="line2d_109">
      <g>
       <use style="stroke:#000000;stroke-width:0.8;" x="117" xlink:href="#m5f06f26e95" y="263.228571"/>
      </g>
     </g>
     <g id="text_24">
      <!-- 40 -->
      <g transform="translate(97.275 267.02779)scale(0.1 -0.1)">
       <use xlink:href="#DejaVuSans-52"/>
       <use x="63.623047" xlink:href="#DejaVuSans-48"/>
      </g>
     </g>
    </g>
    <g id="ytick_42">
     <g id="line2d_110">
      <g>
       <use style="stroke:#000000;stroke-width:0.8;" x="117" xlink:href="#m5f06f26e95" y="237.342857"/>
      </g>
     </g>
     <g id="text_25">
      <!-- 60 -->
      <g transform="translate(97.275 241.142076)scale(0.1 -0.1)">
       <defs>
        <path d="M 33.015625 40.375 
Q 26.375 40.375 22.484375 35.828125 
Q 18.609375 31.296875 18.609375 23.390625 
Q 18.609375 15.53125 22.484375 10.953125 
Q 26.375 6.390625 33.015625 6.390625 
Q 39.65625 6.390625 43.53125 10.953125 
Q 47.40625 15.53125 47.40625 23.390625 
Q 47.40625 31.296875 43.53125 35.828125 
Q 39.65625 40.375 33.015625 40.375 
z
M 52.59375 71.296875 
L 52.59375 62.3125 
Q 48.875 64.0625 45.09375 64.984375 
Q 41.3125 65.921875 37.59375 65.921875 
Q 27.828125 65.921875 22.671875 59.328125 
Q 17.53125 52.734375 16.796875 39.40625 
Q 19.671875 43.65625 24.015625 45.921875 
Q 28.375 48.1875 33.59375 48.1875 
Q 44.578125 48.1875 50.953125 41.515625 
Q 57.328125 34.859375 57.328125 23.390625 
Q 57.328125 12.15625 50.6875 5.359375 
Q 44.046875 -1.421875 33.015625 -1.421875 
Q 20.359375 -1.421875 13.671875 8.265625 
Q 6.984375 17.96875 6.984375 36.375 
Q 6.984375 53.65625 15.1875 63.9375 
Q 23.390625 74.21875 37.203125 74.21875 
Q 40.921875 74.21875 44.703125 73.484375 
Q 48.484375 72.75 52.59375 71.296875 
z
" id="DejaVuSans-54"/>
       </defs>
       <use xlink:href="#DejaVuSans-54"/>
       <use x="63.623047" xlink:href="#DejaVuSans-48"/>
      </g>
     </g>
    </g>
    <g id="ytick_43">
     <g id="line2d_111">
      <g>
       <use style="stroke:#000000;stroke-width:0.8;" x="117" xlink:href="#m5f06f26e95" y="211.457143"/>
      </g>
     </g>
     <g id="text_26">
      <!-- 80 -->
      <g transform="translate(97.275 215.256362)scale(0.1 -0.1)">
       <use xlink:href="#DejaVuSans-56"/>
       <use x="63.623047" xlink:href="#DejaVuSans-48"/>
      </g>
     </g>
    </g>
    <g id="ytick_44">
     <g id="line2d_112">
      <g>
       <use style="stroke:#000000;stroke-width:0.8;" x="117" xlink:href="#m5f06f26e95" y="185.571429"/>
      </g>
     </g>
     <g id="text_27">
      <!-- 100 -->
      <g transform="translate(90.9125 189.370647)scale(0.1 -0.1)">
       <use xlink:href="#DejaVuSans-49"/>
       <use x="63.623047" xlink:href="#DejaVuSans-48"/>
       <use x="127.246094" xlink:href="#DejaVuSans-48"/>
      </g>
     </g>
    </g>
    <g id="text_28">
     <!-- new files in GitHub per month -->
     <g transform="translate(84.832812 325.202902)rotate(-90)scale(0.1 -0.1)">
      <defs>
       <path d="M 37.109375 75.984375 
L 37.109375 68.5 
L 28.515625 68.5 
Q 23.6875 68.5 21.796875 66.546875 
Q 19.921875 64.59375 19.921875 59.515625 
L 19.921875 54.6875 
L 34.71875 54.6875 
L 34.71875 47.703125 
L 19.921875 47.703125 
L 19.921875 0 
L 10.890625 0 
L 10.890625 47.703125 
L 2.296875 47.703125 
L 2.296875 54.6875 
L 10.890625 54.6875 
L 10.890625 58.5 
Q 10.890625 67.625 15.140625 71.796875 
Q 19.390625 75.984375 28.609375 75.984375 
z
" id="DejaVuSans-102"/>
       <path d="M 59.515625 10.40625 
L 59.515625 29.984375 
L 43.40625 29.984375 
L 43.40625 38.09375 
L 69.28125 38.09375 
L 69.28125 6.78125 
Q 63.578125 2.734375 56.6875 0.65625 
Q 49.8125 -1.421875 42 -1.421875 
Q 24.90625 -1.421875 15.25 8.5625 
Q 5.609375 18.5625 5.609375 36.375 
Q 5.609375 54.25 15.25 64.234375 
Q 24.90625 74.21875 42 74.21875 
Q 49.125 74.21875 55.546875 72.453125 
Q 61.96875 70.703125 67.390625 67.28125 
L 67.390625 56.78125 
Q 61.921875 61.421875 55.765625 63.765625 
Q 49.609375 66.109375 42.828125 66.109375 
Q 29.4375 66.109375 22.71875 58.640625 
Q 16.015625 51.171875 16.015625 36.375 
Q 16.015625 21.625 22.71875 14.15625 
Q 29.4375 6.6875 42.828125 6.6875 
Q 48.046875 6.6875 52.140625 7.59375 
Q 56.25 8.5 59.515625 10.40625 
z
" id="DejaVuSans-71"/>
       <path d="M 9.8125 72.90625 
L 19.671875 72.90625 
L 19.671875 43.015625 
L 55.515625 43.015625 
L 55.515625 72.90625 
L 65.375 72.90625 
L 65.375 0 
L 55.515625 0 
L 55.515625 34.71875 
L 19.671875 34.71875 
L 19.671875 0 
L 9.8125 0 
z
" id="DejaVuSans-72"/>
       <path d="M 48.6875 27.296875 
Q 48.6875 37.203125 44.609375 42.84375 
Q 40.53125 48.484375 33.40625 48.484375 
Q 26.265625 48.484375 22.1875 42.84375 
Q 18.109375 37.203125 18.109375 27.296875 
Q 18.109375 17.390625 22.1875 11.75 
Q 26.265625 6.109375 33.40625 6.109375 
Q 40.53125 6.109375 44.609375 11.75 
Q 48.6875 17.390625 48.6875 27.296875 
z
M 18.109375 46.390625 
Q 20.953125 51.265625 25.265625 53.625 
Q 29.59375 56 35.59375 56 
Q 45.5625 56 51.78125 48.09375 
Q 58.015625 40.1875 58.015625 27.296875 
Q 58.015625 14.40625 51.78125 6.484375 
Q 45.5625 -1.421875 35.59375 -1.421875 
Q 29.59375 -1.421875 25.265625 0.953125 
Q 20.953125 3.328125 18.109375 8.203125 
L 18.109375 0 
L 9.078125 0 
L 9.078125 75.984375 
L 18.109375 75.984375 
z
" id="DejaVuSans-98"/>
      </defs>
      <use xlink:href="#DejaVuSans-110"/>
      <use x="63.378906" xlink:href="#DejaVuSans-101"/>
      <use x="124.902344" xlink:href="#DejaVuSans-119"/>
      <use x="206.689453" xlink:href="#DejaVuSans-32"/>
      <use x="238.476562" xlink:href="#DejaVuSans-102"/>
      <use x="273.681641" xlink:href="#DejaVuSans-105"/>
      <use x="301.464844" xlink:href="#DejaVuSans-108"/>
      <use x="329.248047" xlink:href="#DejaVuSans-101"/>
      <use x="390.771484" xlink:href="#DejaVuSans-115"/>
      <use x="442.871094" xlink:href="#DejaVuSans-32"/>
      <use x="474.658203" xlink:href="#DejaVuSans-105"/>
      <use x="502.441406" xlink:href="#DejaVuSans-110"/>
      <use x="565.820312" xlink:href="#DejaVuSans-32"/>
      <use x="597.607422" xlink:href="#DejaVuSans-71"/>
      <use x="675.097656" xlink:href="#DejaVuSans-105"/>
      <use x="702.880859" xlink:href="#DejaVuSans-116"/>
      <use x="742.089844" xlink:href="#DejaVuSans-72"/>
      <use x="817.285156" xlink:href="#DejaVuSans-117"/>
      <use x="880.664062" xlink:href="#DejaVuSans-98"/>
      <use x="944.140625" xlink:href="#DejaVuSans-32"/>
      <use x="975.927734" xlink:href="#DejaVuSans-112"/>
      <use x="1039.404297" xlink:href="#DejaVuSans-101"/>
      <use x="1100.927734" xlink:href="#DejaVuSans-114"/>
      <use x="1142.041016" xlink:href="#DejaVuSans-32"/>
      <use x="1173.828125" xlink:href="#DejaVuSans-109"/>
      <use x="1271.240234" xlink:href="#DejaVuSans-111"/>
      <use x="1332.421875" xlink:href="#DejaVuSans-110"/>
      <use x="1395.800781" xlink:href="#DejaVuSans-116"/>
      <use x="1435.009766" xlink:href="#DejaVuSans-104"/>
     </g>
    </g>
   </g>
   <g id="line2d_113">
    <path clip-path="url(#pc24868b2f8)" d="M -1 315 
L 132.769565 315 
L 138.026087 311.117143 
L 148.53913 311.117143 
L 153.795652 315 
L 442.904348 315 
L 448.16087 313.705714 
L 458.673913 313.705714 
L 463.930435 315 
L 469.186957 315 
L 479.7 309.822857 
L 484.956522 296.88 
L 490.213043 299.468571 
L 495.469565 285.231429 
L 500.726087 298.174286 
L 505.982609 298.174286 
L 511.23913 313.705714 
L 516.495652 295.585714 
L 521.752174 290.408571 
L 527.008696 289.114286 
L 532.265217 302.057143 
L 537.521739 305.94 
L 542.778261 304.645714 
L 548.034783 300.762857 
L 553.291304 287.82 
L 558.547826 283.937143 
L 563.804348 292.997143 
L 569.06087 298.174286 
L 574.317391 305.94 
L 579.573913 299.468571 
L 584.830435 291.702857 
L 590.086957 286.525714 
L 595.343478 290.408571 
L 600.6 299.468571 
L 605.856522 304.645714 
L 611.113043 304.645714 
L 616.369565 294.291429 
L 621.626087 276.171429 
L 626.882609 261.934286 
L 632.13913 273.582857 
L 637.395652 291.702857 
L 642.652174 303.351429 
L 647.908696 294.291429 
L 653.165217 287.82 
L 658.421739 274.877143 
L 663.678261 280.054286 
L 668.934783 272.288571 
L 674.191304 268.405714 
L 679.447826 256.757143 
L 684.704348 254.168571 
L 689.96087 272.288571 
L 695.217391 292.997143 
L 700.473913 300.762857 
L 705.730435 295.585714 
L 710.986957 292.997143 
L 716.243478 298.174286 
L 721.5 298.174286 
L 726.756522 299.468571 
L 732.013043 302.057143 
L 737.269565 307.234286 
L 742.526087 303.351429 
L 747.782609 296.88 
L 753.03913 298.174286 
L 758.295652 298.174286 
L 763.552174 299.468571 
L 768.808696 287.82 
L 774.065217 272.288571 
L 779.321739 265.817143 
L 784.578261 270.994286 
L 789.834783 282.642857 
L 795.091304 274.877143 
L 800.347826 268.405714 
L 805.604348 229.577143 
L 810.86087 238.637143 
L 816.117391 204.985714 
L 821.373913 248.991429 
L 826.630435 236.048571 
L 831.886957 251.58 
L 837.143478 238.637143 
L 842.4 256.757143 
L 842.4 256.757143 
" style="fill:none;stroke:#1f77b4;stroke-linecap:square;stroke-width:1.5;"/>
   </g>
   <g id="line2d_114">
    <path clip-path="url(#pc24868b2f8)" d="M 710.986957 312.411429 
L 716.243478 315 
L 721.5 313.705714 
L 732.013043 313.705714 
L 737.269565 315 
L 742.526087 313.705714 
L 747.782609 309.822857 
L 753.03913 309.822857 
L 758.295652 311.117143 
L 763.552174 315 
L 768.808696 313.705714 
L 774.065217 305.94 
L 779.321739 304.645714 
L 784.578261 305.94 
L 789.834783 312.411429 
L 795.091304 313.705714 
L 800.347826 313.705714 
L 805.604348 299.468571 
L 810.86087 296.88 
L 816.117391 287.82 
L 821.373913 303.351429 
L 826.630435 248.991429 
L 831.886957 238.637143 
L 837.143478 210.162857 
L 842.4 224.4 
L 842.4 224.4 
" style="fill:none;stroke:#ff7f0e;stroke-linecap:square;stroke-width:1.5;"/>
   </g>
   <g id="patch_9">
    <path d="M 117 315 
L 117 185.571429 
" style="fill:none;stroke:#000000;stroke-linecap:square;stroke-linejoin:miter;stroke-width:0.8;"/>
   </g>
   <g id="patch_10">
    <path d="M 842.4 315 
L 842.4 185.571429 
" style="fill:none;stroke:#000000;stroke-linecap:square;stroke-linejoin:miter;stroke-width:0.8;"/>
   </g>
   <g id="patch_11">
    <path d="M 117 315 
L 842.4 315 
" style="fill:none;stroke:#000000;stroke-linecap:square;stroke-linejoin:miter;stroke-width:0.8;"/>
   </g>
   <g id="patch_12">
    <path d="M 117 185.571429 
L 842.4 185.571429 
" style="fill:none;stroke:#000000;stroke-linecap:square;stroke-linejoin:miter;stroke-width:0.8;"/>
   </g>
   <g id="legend_2">
    <g id="patch_13">
     <path d="M 124 222.927679 
L 219.6375 222.927679 
Q 221.6375 222.927679 221.6375 220.927679 
L 221.6375 192.571429 
Q 221.6375 190.571429 219.6375 190.571429 
L 124 190.571429 
Q 122 190.571429 122 192.571429 
L 122 220.927679 
Q 122 222.927679 124 222.927679 
z
" style="fill:#ffffff;opacity:0.8;stroke:#cccccc;stroke-linejoin:miter;"/>
    </g>
    <g id="line2d_115">
     <path d="M 126 198.669866 
L 146 198.669866 
" style="fill:none;stroke:#1f77b4;stroke-linecap:square;stroke-width:1.5;"/>
    </g>
    <g id="line2d_116"/>
    <g id="text_29">
     <!-- Awkward 0.x -->
     <g transform="translate(154 202.169866)scale(0.1 -0.1)">
      <use xlink:href="#DejaVuSans-65"/>
      <use x="64.408203" xlink:href="#DejaVuSans-119"/>
      <use x="146.195312" xlink:href="#DejaVuSans-107"/>
      <use x="204.105469" xlink:href="#DejaVuSans-119"/>
      <use x="285.892578" xlink:href="#DejaVuSans-97"/>
      <use x="347.171875" xlink:href="#DejaVuSans-114"/>
      <use x="386.535156" xlink:href="#DejaVuSans-100"/>
      <use x="450.011719" xlink:href="#DejaVuSans-32"/>
      <use x="481.798828" xlink:href="#DejaVuSans-48"/>
      <use x="545.421875" xlink:href="#DejaVuSans-46"/>
      <use x="577.208984" xlink:href="#DejaVuSans-120"/>
     </g>
    </g>
    <g id="line2d_117">
     <path d="M 126 213.347991 
L 146 213.347991 
" style="fill:none;stroke:#ff7f0e;stroke-linecap:square;stroke-width:1.5;"/>
    </g>
    <g id="line2d_118"/>
    <g id="text_30">
     <!-- Awkward 1.x -->
     <g transform="translate(154 216.847991)scale(0.1 -0.1)">
      <use xlink:href="#DejaVuSans-65"/>
      <use x="64.408203" xlink:href="#DejaVuSans-119"/>
      <use x="146.195312" xlink:href="#DejaVuSans-107"/>
      <use x="204.105469" xlink:href="#DejaVuSans-119"/>
      <use x="285.892578" xlink:href="#DejaVuSans-97"/>
      <use x="347.171875" xlink:href="#DejaVuSans-114"/>
      <use x="386.535156" xlink:href="#DejaVuSans-100"/>
      <use x="450.011719" xlink:href="#DejaVuSans-32"/>
      <use x="481.798828" xlink:href="#DejaVuSans-49"/>
      <use x="545.421875" xlink:href="#DejaVuSans-46"/>
      <use x="577.208984" xlink:href="#DejaVuSans-120"/>
     </g>
    </g>
   </g>
  </g>
 </g>
 <defs>
  <clipPath id="pe403ee091c">
   <rect height="129.428571" width="725.4" x="117" y="43.2"/>
  </clipPath>
  <clipPath id="pc24868b2f8">
   <rect height="129.428571" width="725.4" x="117" y="185.571429"/>
  </clipPath>
 </defs>
</svg>
