<?xml version="1.0" encoding="utf-8" standalone="no"?>
<!DOCTYPE svg PUBLIC "-//W3C//DTD SVG 1.1//EN"
  "http://www.w3.org/Graphics/SVG/1.1/DTD/svg11.dtd">
<!-- Created with matplotlib (https://matplotlib.org/) -->
<svg height="360pt" version="1.1" viewBox="0 0 936 360" width="936pt" xmlns="http://www.w3.org/2000/svg" xmlns:xlink="http://www.w3.org/1999/xlink">
 <metadata>
  <rdf:RDF xmlns:cc="http://creativecommons.org/ns#" xmlns:dc="http://purl.org/dc/elements/1.1/" xmlns:rdf="http://www.w3.org/1999/02/22-rdf-syntax-ns#">
   <cc:Work>
    <dc:type rdf:resource="http://purl.org/dc/dcmitype/StillImage"/>
    <dc:date>2020-10-24T20:02:02.980164</dc:date>
    <dc:format>image/svg+xml</dc:format>
    <dc:creator>
     <cc:Agent>
      <dc:title>Matplotlib v3.3.0, https://matplotlib.org/</dc:title>
     </cc:Agent>
    </dc:creator>
   </cc:Work>
  </rdf:RDF>
 </metadata>
 <defs>
  <style type="text/css">*{stroke-linecap:butt;stroke-linejoin:round;}</style>
 </defs>
 <g id="figure_1">
  <g id="patch_1">
   <path d="M 0 360 
L 936 360 
L 936 0 
L 0 0 
z
" style="fill:none;"/>
  </g>
  <g id="axes_1">
   <g id="patch_2">
    <path d="M 117 172.628571 
L 842.4 172.628571 
L 842.4 43.2 
L 117 43.2 
z
" style="fill:#ffffff;"/>
   </g>
   <g id="matplotlib.axis_1"/>
   <g id="matplotlib.axis_2">
    <g id="ytick_1">
     <g id="line2d_1">
      <defs>
       <path d="M 0 0 
L -3.5 0 
" id="m05fe7a47c6" style="stroke:#000000;stroke-width:0.8;"/>
      </defs>
      <g>
       <use style="stroke:#000000;stroke-width:0.8;" x="117" xlink:href="#m05fe7a47c6" y="172.628571"/>
      </g>
     </g>
     <g id="text_1">
      <!-- 0 -->
      <g transform="translate(103.6375 176.42779)scale(0.1 -0.1)">
       <defs>
        <path d="M 31.78125 66.40625 
Q 24.171875 66.40625 20.328125 58.90625 
Q 16.5 51.421875 16.5 36.375 
Q 16.5 21.390625 20.328125 13.890625 
Q 24.171875 6.390625 31.78125 6.390625 
Q 39.453125 6.390625 43.28125 13.890625 
Q 47.125 21.390625 47.125 36.375 
Q 47.125 51.421875 43.28125 58.90625 
Q 39.453125 66.40625 31.78125 66.40625 
z
M 31.78125 74.21875 
Q 44.046875 74.21875 50.515625 64.515625 
Q 56.984375 54.828125 56.984375 36.375 
Q 56.984375 17.96875 50.515625 8.265625 
Q 44.046875 -1.421875 31.78125 -1.421875 
Q 19.53125 -1.421875 13.0625 8.265625 
Q 6.59375 17.96875 6.59375 36.375 
Q 6.59375 54.828125 13.0625 64.515625 
Q 19.53125 74.21875 31.78125 74.21875 
z
" id="DejaVuSans-48"/>
       </defs>
       <use xlink:href="#DejaVuSans-48"/>
      </g>
     </g>
    </g>
    <g id="ytick_2">
     <g id="line2d_2">
      <g>
       <use style="stroke:#000000;stroke-width:0.8;" x="117" xlink:href="#m05fe7a47c6" y="146.742857"/>
      </g>
     </g>
     <g id="text_2">
      <!-- 2000 -->
      <g transform="translate(84.55 150.542076)scale(0.1 -0.1)">
       <defs>
        <path d="M 19.1875 8.296875 
L 53.609375 8.296875 
L 53.609375 0 
L 7.328125 0 
L 7.328125 8.296875 
Q 12.9375 14.109375 22.625 23.890625 
Q 32.328125 33.6875 34.8125 36.53125 
Q 39.546875 41.84375 41.421875 45.53125 
Q 43.3125 49.21875 43.3125 52.78125 
Q 43.3125 58.59375 39.234375 62.25 
Q 35.15625 65.921875 28.609375 65.921875 
Q 23.96875 65.921875 18.8125 64.3125 
Q 13.671875 62.703125 7.8125 59.421875 
L 7.8125 69.390625 
Q 13.765625 71.78125 18.9375 73 
Q 24.125 74.21875 28.421875 74.21875 
Q 39.75 74.21875 46.484375 68.546875 
Q 53.21875 62.890625 53.21875 53.421875 
Q 53.21875 48.921875 51.53125 44.890625 
Q 49.859375 40.875 45.40625 35.40625 
Q 44.1875 33.984375 37.640625 27.21875 
Q 31.109375 20.453125 19.1875 8.296875 
z
" id="DejaVuSans-50"/>
       </defs>
       <use xlink:href="#DejaVuSans-50"/>
       <use x="63.623047" xlink:href="#DejaVuSans-48"/>
       <use x="127.246094" xlink:href="#DejaVuSans-48"/>
       <use x="190.869141" xlink:href="#DejaVuSans-48"/>
      </g>
     </g>
    </g>
    <g id="ytick_3">
     <g id="line2d_3">
      <g>
       <use style="stroke:#000000;stroke-width:0.8;" x="117" xlink:href="#m05fe7a47c6" y="120.857143"/>
      </g>
     </g>
     <g id="text_3">
      <!-- 4000 -->
      <g transform="translate(84.55 124.656362)scale(0.1 -0.1)">
       <defs>
        <path d="M 37.796875 64.3125 
L 12.890625 25.390625 
L 37.796875 25.390625 
z
M 35.203125 72.90625 
L 47.609375 72.90625 
L 47.609375 25.390625 
L 58.015625 25.390625 
L 58.015625 17.1875 
L 47.609375 17.1875 
L 47.609375 0 
L 37.796875 0 
L 37.796875 17.1875 
L 4.890625 17.1875 
L 4.890625 26.703125 
z
" id="DejaVuSans-52"/>
       </defs>
       <use xlink:href="#DejaVuSans-52"/>
       <use x="63.623047" xlink:href="#DejaVuSans-48"/>
       <use x="127.246094" xlink:href="#DejaVuSans-48"/>
       <use x="190.869141" xlink:href="#DejaVuSans-48"/>
      </g>
     </g>
    </g>
    <g id="ytick_4">
     <g id="line2d_4">
      <g>
       <use style="stroke:#000000;stroke-width:0.8;" x="117" xlink:href="#m05fe7a47c6" y="94.971429"/>
      </g>
     </g>
     <g id="text_4">
      <!-- 6000 -->
      <g transform="translate(84.55 98.770647)scale(0.1 -0.1)">
       <defs>
        <path d="M 33.015625 40.375 
Q 26.375 40.375 22.484375 35.828125 
Q 18.609375 31.296875 18.609375 23.390625 
Q 18.609375 15.53125 22.484375 10.953125 
Q 26.375 6.390625 33.015625 6.390625 
Q 39.65625 6.390625 43.53125 10.953125 
Q 47.40625 15.53125 47.40625 23.390625 
Q 47.40625 31.296875 43.53125 35.828125 
Q 39.65625 40.375 33.015625 40.375 
z
M 52.59375 71.296875 
L 52.59375 62.3125 
Q 48.875 64.0625 45.09375 64.984375 
Q 41.3125 65.921875 37.59375 65.921875 
Q 27.828125 65.921875 22.671875 59.328125 
Q 17.53125 52.734375 16.796875 39.40625 
Q 19.671875 43.65625 24.015625 45.921875 
Q 28.375 48.1875 33.59375 48.1875 
Q 44.578125 48.1875 50.953125 41.515625 
Q 57.328125 34.859375 57.328125 23.390625 
Q 57.328125 12.15625 50.6875 5.359375 
Q 44.046875 -1.421875 33.015625 -1.421875 
Q 20.359375 -1.421875 13.671875 8.265625 
Q 6.984375 17.96875 6.984375 36.375 
Q 6.984375 53.65625 15.1875 63.9375 
Q 23.390625 74.21875 37.203125 74.21875 
Q 40.921875 74.21875 44.703125 73.484375 
Q 48.484375 72.75 52.59375 71.296875 
z
" id="DejaVuSans-54"/>
       </defs>
       <use xlink:href="#DejaVuSans-54"/>
       <use x="63.623047" xlink:href="#DejaVuSans-48"/>
       <use x="127.246094" xlink:href="#DejaVuSans-48"/>
       <use x="190.869141" xlink:href="#DejaVuSans-48"/>
      </g>
     </g>
    </g>
    <g id="ytick_5">
     <g id="line2d_5">
      <g>
       <use style="stroke:#000000;stroke-width:0.8;" x="117" xlink:href="#m05fe7a47c6" y="69.085714"/>
      </g>
     </g>
     <g id="text_5">
      <!-- 8000 -->
      <g transform="translate(84.55 72.884933)scale(0.1 -0.1)">
       <defs>
        <path d="M 31.78125 34.625 
Q 24.75 34.625 20.71875 30.859375 
Q 16.703125 27.09375 16.703125 20.515625 
Q 16.703125 13.921875 20.71875 10.15625 
Q 24.75 6.390625 31.78125 6.390625 
Q 38.8125 6.390625 42.859375 10.171875 
Q 46.921875 13.96875 46.921875 20.515625 
Q 46.921875 27.09375 42.890625 30.859375 
Q 38.875 34.625 31.78125 34.625 
z
M 21.921875 38.8125 
Q 15.578125 40.375 12.03125 44.71875 
Q 8.5 49.078125 8.5 55.328125 
Q 8.5 64.0625 14.71875 69.140625 
Q 20.953125 74.21875 31.78125 74.21875 
Q 42.671875 74.21875 48.875 69.140625 
Q 55.078125 64.0625 55.078125 55.328125 
Q 55.078125 49.078125 51.53125 44.71875 
Q 48 40.375 41.703125 38.8125 
Q 48.828125 37.15625 52.796875 32.3125 
Q 56.78125 27.484375 56.78125 20.515625 
Q 56.78125 9.90625 50.3125 4.234375 
Q 43.84375 -1.421875 31.78125 -1.421875 
Q 19.734375 -1.421875 13.25 4.234375 
Q 6.78125 9.90625 6.78125 20.515625 
Q 6.78125 27.484375 10.78125 32.3125 
Q 14.796875 37.15625 21.921875 38.8125 
z
M 18.3125 54.390625 
Q 18.3125 48.734375 21.84375 45.5625 
Q 25.390625 42.390625 31.78125 42.390625 
Q 38.140625 42.390625 41.71875 45.5625 
Q 45.3125 48.734375 45.3125 54.390625 
Q 45.3125 60.0625 41.71875 63.234375 
Q 38.140625 66.40625 31.78125 66.40625 
Q 25.390625 66.40625 21.84375 63.234375 
Q 18.3125 60.0625 18.3125 54.390625 
z
" id="DejaVuSans-56"/>
       </defs>
       <use xlink:href="#DejaVuSans-56"/>
       <use x="63.623047" xlink:href="#DejaVuSans-48"/>
       <use x="127.246094" xlink:href="#DejaVuSans-48"/>
       <use x="190.869141" xlink:href="#DejaVuSans-48"/>
      </g>
     </g>
    </g>
    <g id="ytick_6">
     <g id="line2d_6">
      <g>
       <use style="stroke:#000000;stroke-width:0.8;" x="117" xlink:href="#m05fe7a47c6" y="43.2"/>
      </g>
     </g>
     <g id="text_6">
      <!-- 10000 -->
      <g transform="translate(78.1875 46.999219)scale(0.1 -0.1)">
       <defs>
        <path d="M 12.40625 8.296875 
L 28.515625 8.296875 
L 28.515625 63.921875 
L 10.984375 60.40625 
L 10.984375 69.390625 
L 28.421875 72.90625 
L 38.28125 72.90625 
L 38.28125 8.296875 
L 54.390625 8.296875 
L 54.390625 0 
L 12.40625 0 
z
" id="DejaVuSans-49"/>
       </defs>
       <use xlink:href="#DejaVuSans-49"/>
       <use x="63.623047" xlink:href="#DejaVuSans-48"/>
       <use x="127.246094" xlink:href="#DejaVuSans-48"/>
       <use x="190.869141" xlink:href="#DejaVuSans-48"/>
       <use x="254.492188" xlink:href="#DejaVuSans-48"/>
      </g>
     </g>
    </g>
    <g id="text_7">
     <!-- pip-installs per month -->
     <g transform="translate(72.107812 162.736942)rotate(-90)scale(0.1 -0.1)">
      <defs>
       <path d="M 18.109375 8.203125 
L 18.109375 -20.796875 
L 9.078125 -20.796875 
L 9.078125 54.6875 
L 18.109375 54.6875 
L 18.109375 46.390625 
Q 20.953125 51.265625 25.265625 53.625 
Q 29.59375 56 35.59375 56 
Q 45.5625 56 51.78125 48.09375 
Q 58.015625 40.1875 58.015625 27.296875 
Q 58.015625 14.40625 51.78125 6.484375 
Q 45.5625 -1.421875 35.59375 -1.421875 
Q 29.59375 -1.421875 25.265625 0.953125 
Q 20.953125 3.328125 18.109375 8.203125 
z
M 48.6875 27.296875 
Q 48.6875 37.203125 44.609375 42.84375 
Q 40.53125 48.484375 33.40625 48.484375 
Q 26.265625 48.484375 22.1875 42.84375 
Q 18.109375 37.203125 18.109375 27.296875 
Q 18.109375 17.390625 22.1875 11.75 
Q 26.265625 6.109375 33.40625 6.109375 
Q 40.53125 6.109375 44.609375 11.75 
Q 48.6875 17.390625 48.6875 27.296875 
z
" id="DejaVuSans-112"/>
       <path d="M 9.421875 54.6875 
L 18.40625 54.6875 
L 18.40625 0 
L 9.421875 0 
z
M 9.421875 75.984375 
L 18.40625 75.984375 
L 18.40625 64.59375 
L 9.421875 64.59375 
z
" id="DejaVuSans-105"/>
       <path d="M 4.890625 31.390625 
L 31.203125 31.390625 
L 31.203125 23.390625 
L 4.890625 23.390625 
z
" id="DejaVuSans-45"/>
       <path d="M 54.890625 33.015625 
L 54.890625 0 
L 45.90625 0 
L 45.90625 32.71875 
Q 45.90625 40.484375 42.875 44.328125 
Q 39.84375 48.1875 33.796875 48.1875 
Q 26.515625 48.1875 22.3125 43.546875 
Q 18.109375 38.921875 18.109375 30.90625 
L 18.109375 0 
L 9.078125 0 
L 9.078125 54.6875 
L 18.109375 54.6875 
L 18.109375 46.1875 
Q 21.34375 51.125 25.703125 53.5625 
Q 30.078125 56 35.796875 56 
Q 45.21875 56 50.046875 50.171875 
Q 54.890625 44.34375 54.890625 33.015625 
z
" id="DejaVuSans-110"/>
       <path d="M 44.28125 53.078125 
L 44.28125 44.578125 
Q 40.484375 46.53125 36.375 47.5 
Q 32.28125 48.484375 27.875 48.484375 
Q 21.1875 48.484375 17.84375 46.4375 
Q 14.5 44.390625 14.5 40.28125 
Q 14.5 37.15625 16.890625 35.375 
Q 19.28125 33.59375 26.515625 31.984375 
L 29.59375 31.296875 
Q 39.15625 29.25 43.1875 25.515625 
Q 47.21875 21.78125 47.21875 15.09375 
Q 47.21875 7.46875 41.1875 3.015625 
Q 35.15625 -1.421875 24.609375 -1.421875 
Q 20.21875 -1.421875 15.453125 -0.5625 
Q 10.6875 0.296875 5.421875 2 
L 5.421875 11.28125 
Q 10.40625 8.6875 15.234375 7.390625 
Q 20.0625 6.109375 24.8125 6.109375 
Q 31.15625 6.109375 34.5625 8.28125 
Q 37.984375 10.453125 37.984375 14.40625 
Q 37.984375 18.0625 35.515625 20.015625 
Q 33.0625 21.96875 24.703125 23.78125 
L 21.578125 24.515625 
Q 13.234375 26.265625 9.515625 29.90625 
Q 5.8125 33.546875 5.8125 39.890625 
Q 5.8125 47.609375 11.28125 51.796875 
Q 16.75 56 26.8125 56 
Q 31.78125 56 36.171875 55.265625 
Q 40.578125 54.546875 44.28125 53.078125 
z
" id="DejaVuSans-115"/>
       <path d="M 18.3125 70.21875 
L 18.3125 54.6875 
L 36.8125 54.6875 
L 36.8125 47.703125 
L 18.3125 47.703125 
L 18.3125 18.015625 
Q 18.3125 11.328125 20.140625 9.421875 
Q 21.96875 7.515625 27.59375 7.515625 
L 36.8125 7.515625 
L 36.8125 0 
L 27.59375 0 
Q 17.1875 0 13.234375 3.875 
Q 9.28125 7.765625 9.28125 18.015625 
L 9.28125 47.703125 
L 2.6875 47.703125 
L 2.6875 54.6875 
L 9.28125 54.6875 
L 9.28125 70.21875 
z
" id="DejaVuSans-116"/>
       <path d="M 34.28125 27.484375 
Q 23.390625 27.484375 19.1875 25 
Q 14.984375 22.515625 14.984375 16.5 
Q 14.984375 11.71875 18.140625 8.90625 
Q 21.296875 6.109375 26.703125 6.109375 
Q 34.1875 6.109375 38.703125 11.40625 
Q 43.21875 16.703125 43.21875 25.484375 
L 43.21875 27.484375 
z
M 52.203125 31.203125 
L 52.203125 0 
L 43.21875 0 
L 43.21875 8.296875 
Q 40.140625 3.328125 35.546875 0.953125 
Q 30.953125 -1.421875 24.3125 -1.421875 
Q 15.921875 -1.421875 10.953125 3.296875 
Q 6 8.015625 6 15.921875 
Q 6 25.140625 12.171875 29.828125 
Q 18.359375 34.515625 30.609375 34.515625 
L 43.21875 34.515625 
L 43.21875 35.40625 
Q 43.21875 41.609375 39.140625 45 
Q 35.0625 48.390625 27.6875 48.390625 
Q 23 48.390625 18.546875 47.265625 
Q 14.109375 46.140625 10.015625 43.890625 
L 10.015625 52.203125 
Q 14.9375 54.109375 19.578125 55.046875 
Q 24.21875 56 28.609375 56 
Q 40.484375 56 46.34375 49.84375 
Q 52.203125 43.703125 52.203125 31.203125 
z
" id="DejaVuSans-97"/>
       <path d="M 9.421875 75.984375 
L 18.40625 75.984375 
L 18.40625 0 
L 9.421875 0 
z
" id="DejaVuSans-108"/>
       <path id="DejaVuSans-32"/>
       <path d="M 56.203125 29.59375 
L 56.203125 25.203125 
L 14.890625 25.203125 
Q 15.484375 15.921875 20.484375 11.0625 
Q 25.484375 6.203125 34.421875 6.203125 
Q 39.59375 6.203125 44.453125 7.46875 
Q 49.3125 8.734375 54.109375 11.28125 
L 54.109375 2.78125 
Q 49.265625 0.734375 44.1875 -0.34375 
Q 39.109375 -1.421875 33.890625 -1.421875 
Q 20.796875 -1.421875 13.15625 6.1875 
Q 5.515625 13.8125 5.515625 26.8125 
Q 5.515625 40.234375 12.765625 48.109375 
Q 20.015625 56 32.328125 56 
Q 43.359375 56 49.78125 48.890625 
Q 56.203125 41.796875 56.203125 29.59375 
z
M 47.21875 32.234375 
Q 47.125 39.59375 43.09375 43.984375 
Q 39.0625 48.390625 32.421875 48.390625 
Q 24.90625 48.390625 20.390625 44.140625 
Q 15.875 39.890625 15.1875 32.171875 
z
" id="DejaVuSans-101"/>
       <path d="M 41.109375 46.296875 
Q 39.59375 47.171875 37.8125 47.578125 
Q 36.03125 48 33.890625 48 
Q 26.265625 48 22.1875 43.046875 
Q 18.109375 38.09375 18.109375 28.8125 
L 18.109375 0 
L 9.078125 0 
L 9.078125 54.6875 
L 18.109375 54.6875 
L 18.109375 46.1875 
Q 20.953125 51.171875 25.484375 53.578125 
Q 30.03125 56 36.53125 56 
Q 37.453125 56 38.578125 55.875 
Q 39.703125 55.765625 41.0625 55.515625 
z
" id="DejaVuSans-114"/>
       <path d="M 52 44.1875 
Q 55.375 50.25 60.0625 53.125 
Q 64.75 56 71.09375 56 
Q 79.640625 56 84.28125 50.015625 
Q 88.921875 44.046875 88.921875 33.015625 
L 88.921875 0 
L 79.890625 0 
L 79.890625 32.71875 
Q 79.890625 40.578125 77.09375 44.375 
Q 74.3125 48.1875 68.609375 48.1875 
Q 61.625 48.1875 57.5625 43.546875 
Q 53.515625 38.921875 53.515625 30.90625 
L 53.515625 0 
L 44.484375 0 
L 44.484375 32.71875 
Q 44.484375 40.625 41.703125 44.40625 
Q 38.921875 48.1875 33.109375 48.1875 
Q 26.21875 48.1875 22.15625 43.53125 
Q 18.109375 38.875 18.109375 30.90625 
L 18.109375 0 
L 9.078125 0 
L 9.078125 54.6875 
L 18.109375 54.6875 
L 18.109375 46.1875 
Q 21.1875 51.21875 25.484375 53.609375 
Q 29.78125 56 35.6875 56 
Q 41.65625 56 45.828125 52.96875 
Q 50 49.953125 52 44.1875 
z
" id="DejaVuSans-109"/>
       <path d="M 30.609375 48.390625 
Q 23.390625 48.390625 19.1875 42.75 
Q 14.984375 37.109375 14.984375 27.296875 
Q 14.984375 17.484375 19.15625 11.84375 
Q 23.34375 6.203125 30.609375 6.203125 
Q 37.796875 6.203125 41.984375 11.859375 
Q 46.1875 17.53125 46.1875 27.296875 
Q 46.1875 37.015625 41.984375 42.703125 
Q 37.796875 48.390625 30.609375 48.390625 
z
M 30.609375 56 
Q 42.328125 56 49.015625 48.375 
Q 55.71875 40.765625 55.71875 27.296875 
Q 55.71875 13.875 49.015625 6.21875 
Q 42.328125 -1.421875 30.609375 -1.421875 
Q 18.84375 -1.421875 12.171875 6.21875 
Q 5.515625 13.875 5.515625 27.296875 
Q 5.515625 40.765625 12.171875 48.375 
Q 18.84375 56 30.609375 56 
z
" id="DejaVuSans-111"/>
       <path d="M 54.890625 33.015625 
L 54.890625 0 
L 45.90625 0 
L 45.90625 32.71875 
Q 45.90625 40.484375 42.875 44.328125 
Q 39.84375 48.1875 33.796875 48.1875 
Q 26.515625 48.1875 22.3125 43.546875 
Q 18.109375 38.921875 18.109375 30.90625 
L 18.109375 0 
L 9.078125 0 
L 9.078125 75.984375 
L 18.109375 75.984375 
L 18.109375 46.1875 
Q 21.34375 51.125 25.703125 53.5625 
Q 30.078125 56 35.796875 56 
Q 45.21875 56 50.046875 50.171875 
Q 54.890625 44.34375 54.890625 33.015625 
z
" id="DejaVuSans-104"/>
      </defs>
      <use xlink:href="#DejaVuSans-112"/>
      <use x="63.476562" xlink:href="#DejaVuSans-105"/>
      <use x="91.259766" xlink:href="#DejaVuSans-112"/>
      <use x="154.736328" xlink:href="#DejaVuSans-45"/>
      <use x="190.820312" xlink:href="#DejaVuSans-105"/>
      <use x="218.603516" xlink:href="#DejaVuSans-110"/>
      <use x="281.982422" xlink:href="#DejaVuSans-115"/>
      <use x="334.082031" xlink:href="#DejaVuSans-116"/>
      <use x="373.291016" xlink:href="#DejaVuSans-97"/>
      <use x="434.570312" xlink:href="#DejaVuSans-108"/>
      <use x="462.353516" xlink:href="#DejaVuSans-108"/>
      <use x="490.136719" xlink:href="#DejaVuSans-115"/>
      <use x="542.236328" xlink:href="#DejaVuSans-32"/>
      <use x="574.023438" xlink:href="#DejaVuSans-112"/>
      <use x="637.5" xlink:href="#DejaVuSans-101"/>
      <use x="699.023438" xlink:href="#DejaVuSans-114"/>
      <use x="740.136719" xlink:href="#DejaVuSans-32"/>
      <use x="771.923828" xlink:href="#DejaVuSans-109"/>
      <use x="869.335938" xlink:href="#DejaVuSans-111"/>
      <use x="930.517578" xlink:href="#DejaVuSans-110"/>
      <use x="993.896484" xlink:href="#DejaVuSans-116"/>
      <use x="1033.105469" xlink:href="#DejaVuSans-104"/>
     </g>
    </g>
   </g>
   <g id="line2d_7">
    <path clip-path="url(#p28968a1af0)" d="M -1 172.628571 
L 421.878261 172.537971 
L 427.134783 172.512086 
L 432.391304 160.785857 
L 437.647826 157.381886 
L 442.904348 149.344371 
L 448.16087 145.435629 
L 453.417391 135.2496 
L 458.673913 132.829286 
L 463.930435 137.126314 
L 469.186957 141.7728 
L 474.443478 132.635143 
L 479.7 119.226343 
L 484.956522 95.282057 
L 490.213043 66.458314 
L 495.469565 83.944114 
L 500.726087 91.709829 
L 505.982609 110.994686 
L 511.23913 76.281943 
L 516.495652 60.478714 
L 521.752174 50.784514 
L 527.008696 42.785829 
L 532.265217 14.984571 
L 536.564464 -1 
M 544.340693 -1 
L 548.034783 12.861943 
L 553.291304 18.6474 
L 558.547826 50.1762 
L 563.804348 65.176971 
L 569.06087 76.773771 
L 574.317391 55.055657 
L 579.573913 29.299371 
L 584.509964 -1 
M 605.180499 -1 
L 605.856522 2.235857 
L 607.869061 -1 
M 611.613473 -1 
L 616.369565 48.571286 
L 626.753247 -1 
L 626.753247 -1 
" style="fill:none;stroke:#1f77b4;stroke-linecap:square;stroke-width:1.5;"/>
   </g>
   <g id="line2d_8">
    <path clip-path="url(#p28968a1af0)" d="M -1 172.628571 
L 611.113043 172.628571 
L 616.369565 171.3084 
L 621.626087 170.997771 
L 626.882609 170.997771 
L 632.13913 172.317943 
L 637.395652 171.606086 
L 647.908696 170.8554 
L 653.165217 171.593143 
L 658.421739 171.593143 
L 663.678261 171.373114 
L 674.191304 171.554314 
L 679.447826 171.864943 
L 684.704348 171.463714 
L 689.96087 169.7682 
L 695.217391 163.555629 
L 700.473913 160.552886 
L 705.730435 159.8928 
L 710.986957 163.503857 
L 716.243478 164.4228 
L 721.5 163.840371 
L 726.756522 163.012029 
L 732.013043 162.377829 
L 737.269565 161.860114 
L 742.526087 162.559029 
L 747.782609 162.843771 
L 753.03913 162.118971 
L 758.295652 162.740229 
L 763.552174 162.9732 
L 768.808696 164.733429 
L 774.065217 162.843771 
L 779.321739 159.051514 
L 784.578261 153.511971 
L 789.834783 147.532371 
L 795.091304 142.109314 
L 800.347826 142.303457 
L 805.604348 143.351829 
L 810.86087 147.053486 
L 816.117391 145.2156 
L 821.373913 144.801429 
L 826.630435 141.125657 
L 831.886957 136.297971 
L 837.143478 134.809543 
L 842.4 144.801429 
L 842.4 144.801429 
" style="fill:none;stroke:#ff7f0e;stroke-linecap:square;stroke-width:1.5;"/>
   </g>
   <g id="line2d_9">
    <path clip-path="url(#p28968a1af0)" d="M -1 172.628571 
L 248.413043 172.563857 
L 258.926087 172.240286 
L 264.182609 172.175571 
L 269.43913 172.240286 
L 279.952174 172.1238 
L 290.465217 171.399 
L 295.721739 171.178971 
L 311.491304 171.839057 
L 316.747826 171.722571 
L 322.004348 170.4024 
L 327.26087 167.386714 
L 332.517391 167.567914 
L 337.773913 168.150343 
L 343.030435 170.8554 
L 348.286957 170.389457 
L 353.543478 170.389457 
L 358.8 166.830171 
L 364.056522 165.484114 
L 369.313043 165.755914 
L 379.826087 168.693943 
L 385.082609 168.681 
L 390.33913 170.570657 
L 395.595652 170.285914 
L 400.852174 170.2212 
L 406.108696 170.713029 
L 411.365217 171.411943 
L 416.621739 167.179629 
L 421.878261 164.021571 
L 427.134783 158.197286 
L 432.391304 160.837629 
L 437.647826 162.5202 
L 442.904348 164.9664 
L 448.16087 162.0672 
L 453.417391 158.909143 
L 458.673913 154.896857 
L 463.930435 154.405029 
L 469.186957 151.259914 
L 474.443478 141.462171 
L 479.7 127.600371 
L 484.956522 111.939514 
L 490.213043 94.2078 
L 495.469565 110.722886 
L 500.726087 120.559457 
L 505.982609 131.457343 
L 511.23913 101.986457 
L 516.495652 85.303114 
L 521.752174 71.234229 
L 527.008696 61.074086 
L 532.265217 42.721114 
L 537.521739 32.1468 
L 542.778261 35.253086 
L 548.034783 38.061686 
L 553.291304 60.181029 
L 558.547826 86.467971 
L 563.804348 99.7344 
L 569.06087 103.190143 
L 574.317391 95.3856 
L 579.573913 93.172371 
L 584.830435 86.752714 
L 590.086957 71.777829 
L 595.343478 84.992486 
L 600.6 65.707629 
L 605.856522 72.334371 
L 611.113043 53.761371 
L 616.369565 81.122571 
L 621.626087 51.819943 
L 626.882609 20.808857 
L 628.879744 -1 
L 628.879744 -1 
" style="fill:none;stroke:#2ca02c;stroke-linecap:square;stroke-width:1.5;"/>
   </g>
   <g id="line2d_10">
    <path clip-path="url(#p28968a1af0)" d="M -1 172.628571 
L 753.03913 172.628571 
L 768.808696 172.072029 
L 774.065217 171.6708 
L 779.321739 171.709629 
L 784.578261 171.4896 
L 789.834783 171.0366 
L 795.091304 167.891486 
L 805.604348 157.9902 
L 810.86087 155.414571 
L 816.117391 152.4636 
L 821.373913 151.842343 
L 826.630435 149.693829 
L 831.886957 147.687686 
L 837.143478 148.283057 
L 842.4 154.974514 
L 842.4 154.974514 
" style="fill:none;stroke:#d62728;stroke-linecap:square;stroke-width:1.5;"/>
   </g>
   <g id="line2d_11">
    <path clip-path="url(#p28968a1af0)" d="M -1 172.091234 
L 1.356522 171.864943 
L 6.613043 170.920114 
L 17.126087 168.448029 
L 22.382609 165.8724 
L 27.63913 164.604 
L 32.895652 165.354686 
L 38.152174 168.240943 
L 43.408696 170.234143 
L 48.665217 170.596543 
L 53.921739 170.544771 
L 59.178261 170.285914 
L 69.691304 170.156486 
L 74.947826 169.289314 
L 80.204348 167.632629 
L 85.46087 164.798143 
L 90.717391 163.465029 
L 95.973913 164.629886 
L 101.230435 166.985486 
L 106.486957 165.717086 
L 111.743478 165.082886 
L 117 163.206171 
L 122.256522 165.975943 
L 127.513043 164.500457 
L 132.769565 165.134657 
L 138.026087 164.474571 
L 143.282609 166.0536 
L 148.53913 166.105371 
L 153.795652 164.474571 
L 159.052174 164.047457 
L 164.308696 165.121714 
L 169.565217 166.739571 
L 174.821739 167.166686 
L 180.078261 167.2314 
L 185.334783 167.011371 
L 190.591304 166.493657 
L 195.847826 166.1442 
L 201.104348 167.580857 
L 206.36087 167.257286 
L 211.617391 167.153743 
L 216.873913 166.6878 
L 222.130435 167.619686 
L 227.386957 168.279771 
L 232.643478 168.810429 
L 237.9 169.625829 
L 243.156522 170.091771 
L 248.413043 170.376514 
L 253.669565 169.716429 
L 258.926087 169.4058 
L 264.182609 168.823371 
L 269.43913 169.237543 
L 274.695652 169.2246 
L 279.952174 169.548171 
L 285.208696 167.166686 
L 290.465217 167.334943 
L 295.721739 166.907829 
L 300.978261 169.017514 
L 306.234783 168.629229 
L 311.491304 167.762057 
L 316.747826 168.098571 
L 322.004348 168.629229 
L 327.26087 170.324743 
L 332.517391 169.509343 
L 337.773913 168.448029 
L 343.030435 167.697343 
L 353.543478 168.668057 
L 358.8 168.991629 
L 364.056522 169.017514 
L 369.313043 169.4058 
L 374.569565 169.082229 
L 379.826087 165.199371 
L 385.082609 163.594457 
L 390.33913 162.183686 
L 395.595652 165.665314 
L 400.852174 166.170086 
L 406.108696 167.839714 
L 411.365217 168.629229 
L 416.621739 165.704143 
L 427.134783 157.071257 
L 432.391304 158.003143 
L 437.647826 160.242257 
L 442.904348 161.497714 
L 448.16087 160.501114 
L 453.417391 157.304229 
L 458.673913 152.929543 
L 463.930435 150.819857 
L 469.186957 147.364114 
L 474.443478 149.007857 
L 479.7 150.004457 
L 484.956522 149.098457 
L 490.213043 146.173371 
L 495.469565 150.418629 
L 500.726087 157.226571 
L 505.982609 155.142771 
L 511.23913 143.170629 
L 516.495652 135.159 
L 521.752174 131.949171 
L 527.008696 131.146714 
L 532.265217 133.217571 
L 537.521739 128.571086 
L 542.778261 132.492771 
L 548.034783 132.958714 
L 553.291304 143.377714 
L 558.547826 146.691086 
L 563.804348 136.958057 
L 569.06087 130.745486 
L 574.317391 119.614629 
L 579.573913 129.257057 
L 584.830435 124.714114 
L 590.086957 121.905514 
L 595.343478 120.313543 
L 600.6 126.784971 
L 605.856522 86.118514 
L 611.113043 81.873257 
L 616.369565 87.917571 
L 621.626087 135.612 
L 626.882609 117.7638 
L 632.13913 97.547057 
L 637.395652 74.7288 
L 642.652174 68.2056 
L 647.908696 74.146371 
L 653.165217 88.5 
L 658.421739 103.850229 
L 663.678261 95.993914 
L 668.934783 84.7854 
L 674.191304 59.262086 
L 679.447826 48.558343 
L 684.704348 39.912514 
L 689.96087 64.050943 
L 695.217391 60.258686 
L 700.473913 73.330971 
L 705.730435 69.448114 
L 710.986957 95.178514 
L 716.243478 110.023971 
L 721.5 92.887629 
L 726.756522 82.119171 
L 732.013043 55.845171 
L 737.269565 61.967143 
L 742.526087 50.745686 
L 747.782609 29.4288 
L 753.03913 26.141314 
L 758.295652 20.938286 
L 763.552174 51.056314 
L 768.808696 49.321971 
L 774.065217 55.767514 
L 779.321739 50.227971 
L 784.578261 47.160514 
L 789.834783 43.238829 
L 795.091304 8.746114 
L 797.995353 -1 
M 808.756356 -1 
L 810.86087 13.457314 
L 816.117391 55.845171 
L 821.373913 76.385486 
L 826.630435 74.314629 
L 831.886957 61.087029 
L 837.143478 50.8104 
L 842.4 76.838486 
L 842.4 76.838486 
" style="fill:none;stroke:#9467bd;stroke-dasharray:1.5,2.475;stroke-dashoffset:0;stroke-width:1.5;"/>
   </g>
   <g id="line2d_12">
    <path clip-path="url(#p28968a1af0)" d="M -1 170.05973 
L 1.356522 168.603343 
L 6.613043 166.648971 
L 11.869565 161.601257 
L 17.126087 161.601257 
L 22.382609 159.478629 
L 27.63913 161.717743 
L 32.895652 161.264743 
L 38.152174 162.766114 
L 43.408696 163.309714 
L 48.665217 150.353914 
L 53.921739 149.849143 
L 59.178261 151.182257 
L 64.434783 165.7818 
L 69.691304 166.920771 
L 74.947826 166.208914 
L 80.204348 165.678257 
L 85.46087 164.500457 
L 95.973913 163.9698 
L 101.230435 165.458229 
L 106.486957 166.467771 
L 111.743478 168.538629 
L 122.256522 167.982086 
L 127.513043 166.856057 
L 132.769565 166.661914 
L 138.026087 166.9596 
L 143.282609 167.373771 
L 148.53913 168.215057 
L 153.795652 168.331543 
L 159.052174 168.098571 
L 164.308696 167.632629 
L 169.565217 167.037257 
L 180.078261 167.451429 
L 185.334783 167.891486 
L 190.591304 167.749114 
L 195.847826 167.852657 
L 201.104348 167.826771 
L 206.36087 167.490257 
L 211.617391 166.532486 
L 216.873913 166.338343 
L 222.130435 165.2382 
L 227.386957 165.937114 
L 232.643478 165.406457 
L 237.9 166.079486 
L 243.156522 165.807686 
L 248.413043 167.114914 
L 253.669565 167.9562 
L 258.926087 168.4998 
L 269.43913 168.176229 
L 274.695652 167.373771 
L 279.952174 166.933714 
L 285.208696 166.247743 
L 290.465217 167.179629 
L 295.721739 167.710286 
L 300.978261 169.069286 
L 306.234783 169.379914 
L 311.491304 168.305657 
L 316.747826 166.623086 
L 322.004348 166.0536 
L 332.517391 166.338343 
L 337.773913 165.755914 
L 343.030435 166.636029 
L 348.286957 166.3254 
L 353.543478 166.998429 
L 358.8 165.069943 
L 364.056522 166.131257 
L 369.313043 165.975943 
L 374.569565 167.982086 
L 379.826087 168.448029 
L 385.082609 168.396257 
L 390.33913 166.7784 
L 400.852174 166.674857 
L 406.108696 168.926914 
L 411.365217 169.457571 
L 416.621739 166.933714 
L 421.878261 162.986143 
L 427.134783 157.614857 
L 432.391304 159.129171 
L 437.647826 159.931629 
L 442.904348 162.623743 
L 448.16087 160.578771 
L 453.417391 158.766771 
L 458.673913 157.640743 
L 463.930435 157.576029 
L 469.186957 158.909143 
L 474.443478 158.249057 
L 479.7 159.815143 
L 484.956522 160.747029 
L 490.213043 163.490914 
L 495.469565 165.6006 
L 500.726087 166.040657 
L 511.23913 159.103286 
L 516.495652 158.960914 
L 521.752174 161.601257 
L 527.008696 162.261343 
L 532.265217 161.640086 
L 537.521739 161.433 
L 542.778261 161.898943 
L 548.034783 158.8962 
L 553.291304 159.271543 
L 558.547826 160.397571 
L 563.804348 163.413257 
L 569.06087 162.183686 
L 579.573913 158.003143 
L 584.830435 155.116886 
L 590.086957 155.971114 
L 595.343478 156.074657 
L 600.6 156.915943 
L 605.856522 155.078057 
L 611.113043 154.236771 
L 616.369565 157.420714 
L 621.626087 159.232714 
L 626.882609 162.7014 
L 632.13913 163.102629 
L 637.395652 163.193229 
L 642.652174 162.494314 
L 647.908696 161.148257 
L 658.421739 161.316514 
L 668.934783 156.229971 
L 674.191304 155.505171 
L 679.447826 157.731343 
L 684.704348 161.394171 
L 689.96087 164.112171 
L 695.217391 166.416 
L 700.473913 164.888743 
L 705.730435 161.834229 
L 710.986957 159.595114 
L 716.243478 161.329457 
L 726.756522 164.176886 
L 732.013043 159.569229 
L 737.269565 159.413914 
L 742.526087 158.8056 
L 747.782609 161.1612 
L 753.03913 160.992943 
L 758.295652 161.122371 
L 763.552174 162.287229 
L 774.065217 162.8826 
L 779.321739 162.028371 
L 784.578261 156.954771 
L 789.834783 158.1714 
L 795.091304 159.698657 
L 800.347826 166.247743 
L 805.604348 164.824029 
L 810.86087 164.940514 
L 816.117391 163.309714 
L 821.373913 164.565171 
L 826.630435 162.442543 
L 831.886957 162.196629 
L 837.143478 162.753171 
L 842.4 166.674857 
L 842.4 166.674857 
" style="fill:none;stroke:#8c564b;stroke-dasharray:1.5,2.475;stroke-dashoffset:0;stroke-width:1.5;"/>
   </g>
   <g id="line2d_13">
    <path clip-path="url(#p28968a1af0)" d="M -1 169.968231 
L 1.356522 168.616286 
L 6.613043 166.454829 
L 11.869565 162.675514 
L 17.126087 162.960257 
L 22.382609 161.303571 
L 27.63913 162.623743 
L 32.895652 162.054257 
L 38.152174 162.339 
L 43.408696 163.257943 
L 48.665217 150.159771 
L 53.921739 151.3764 
L 59.178261 152.114143 
L 64.434783 166.946657 
L 69.691304 167.658514 
L 74.947826 167.930314 
L 80.204348 168.007971 
L 85.46087 167.153743 
L 90.717391 166.843114 
L 95.973913 166.2348 
L 101.230435 167.347886 
L 106.486957 168.150343 
L 111.743478 169.845857 
L 117 169.936457 
L 122.256522 169.418743 
L 127.513043 167.904429 
L 132.769565 167.438486 
L 138.026087 167.490257 
L 159.052174 169.263429 
L 164.308696 169.134 
L 169.565217 169.134 
L 180.078261 169.548171 
L 185.334783 169.121057 
L 190.591304 169.108114 
L 195.847826 169.418743 
L 201.104348 170.04 
L 206.36087 170.027057 
L 211.617391 169.638771 
L 216.873913 168.4092 
L 222.130435 167.296114 
L 227.386957 166.933714 
L 232.643478 167.516143 
L 237.9 168.564514 
L 243.156522 169.341086 
L 248.413043 169.8588 
L 253.669565 169.703486 
L 258.926087 169.172829 
L 269.43913 169.0434 
L 274.695652 168.642171 
L 285.208696 167.529086 
L 306.234783 170.596543 
L 311.491304 170.350629 
L 316.747826 170.713029 
L 322.004348 169.146943 
L 327.26087 168.124457 
L 332.517391 166.247743 
L 337.773913 165.548829 
L 343.030435 166.3254 
L 348.286957 167.554971 
L 353.543478 168.978686 
L 358.8 168.512743 
L 369.313043 169.703486 
L 374.569565 170.350629 
L 379.826087 170.480057 
L 385.082609 170.156486 
L 390.33913 170.2212 
L 395.595652 170.480057 
L 406.108696 171.4896 
L 411.365217 171.528429 
L 416.621739 167.9562 
L 421.878261 166.545429 
L 427.134783 162.209571 
L 432.391304 165.432343 
L 437.647826 165.859457 
L 442.904348 168.901029 
L 448.16087 166.7784 
L 453.417391 164.5134 
L 458.673913 163.698 
L 463.930435 164.6946 
L 469.186957 166.390114 
L 479.7 165.406457 
L 484.956522 164.759314 
L 490.213043 165.367629 
L 495.469565 166.817229 
L 500.726087 168.098571 
L 505.982609 168.616286 
L 511.23913 166.933714 
L 516.495652 166.0536 
L 521.752174 165.354686 
L 532.265217 165.8724 
L 537.521739 165.807686 
L 542.778261 166.351286 
L 548.034783 164.215714 
L 553.291304 164.772257 
L 558.547826 165.471171 
L 563.804348 167.697343 
L 569.06087 167.127857 
L 574.317391 166.3254 
L 579.573913 163.6074 
L 584.830435 162.313114 
L 590.086957 161.873057 
L 595.343478 163.102629 
L 605.856522 163.982743 
L 611.113043 163.905086 
L 616.369565 166.118314 
L 621.626087 166.286571 
L 626.882609 168.758657 
L 637.395652 169.729371 
L 642.652174 169.470514 
L 647.908696 169.030457 
L 658.421739 169.509343 
L 663.678261 168.020914 
L 668.934783 166.998429 
L 674.191304 166.5066 
L 679.447826 167.723229 
L 684.704348 169.069286 
L 689.96087 169.7682 
L 695.217391 170.117657 
L 700.473913 169.4964 
L 710.986957 168.551571 
L 716.243478 168.577457 
L 721.5 168.357429 
L 726.756522 168.7716 
L 732.013043 168.719829 
L 737.269565 169.134 
L 742.526087 169.366971 
L 747.782609 169.7682 
L 753.03913 169.884686 
L 758.295652 169.4964 
L 763.552174 169.263429 
L 768.808696 168.681 
L 774.065217 166.998429 
L 779.321739 163.698 
L 784.578261 159.2586 
L 789.834783 158.210229 
L 795.091304 158.883257 
L 800.347826 159.375086 
L 805.604348 158.197286 
L 810.86087 158.999743 
L 816.117391 160.216371 
L 821.373913 160.281086 
L 826.630435 158.779714 
L 831.886957 158.249057 
L 837.143478 159.426857 
L 842.4 163.568571 
L 842.4 163.568571 
" style="fill:none;stroke:#e377c2;stroke-dasharray:1.5,2.475;stroke-dashoffset:0;stroke-width:1.5;"/>
   </g>
   <g id="patch_3">
    <path d="M 117 172.628571 
L 117 43.2 
" style="fill:none;stroke:#000000;stroke-linecap:square;stroke-linejoin:miter;stroke-width:0.8;"/>
   </g>
   <g id="patch_4">
    <path d="M 842.4 172.628571 
L 842.4 43.2 
" style="fill:none;stroke:#000000;stroke-linecap:square;stroke-linejoin:miter;stroke-width:0.8;"/>
   </g>
   <g id="patch_5">
    <path d="M 117 172.628571 
L 842.4 172.628571 
" style="fill:none;stroke:#000000;stroke-linecap:square;stroke-linejoin:miter;stroke-width:0.8;"/>
   </g>
   <g id="patch_6">
    <path d="M 117 43.2 
L 842.4 43.2 
" style="fill:none;stroke:#000000;stroke-linecap:square;stroke-linejoin:miter;stroke-width:0.8;"/>
   </g>
   <g id="legend_1">
    <g id="patch_7">
     <path d="M 124 153.946875 
L 219.6375 153.946875 
Q 221.6375 153.946875 221.6375 151.946875 
L 221.6375 50.2 
Q 221.6375 48.2 219.6375 48.2 
L 124 48.2 
Q 122 48.2 122 50.2 
L 122 151.946875 
Q 122 153.946875 124 153.946875 
z
" style="fill:#ffffff;stroke:#cccccc;stroke-linejoin:miter;"/>
    </g>
    <g id="line2d_14">
     <path d="M 126 56.298437 
L 146 56.298437 
" style="fill:none;stroke:#1f77b4;stroke-linecap:square;stroke-width:1.5;"/>
    </g>
    <g id="line2d_15"/>
    <g id="text_8">
     <!-- Awkward 0.x -->
     <g transform="translate(154 59.798437)scale(0.1 -0.1)">
      <defs>
       <path d="M 34.1875 63.1875 
L 20.796875 26.90625 
L 47.609375 26.90625 
z
M 28.609375 72.90625 
L 39.796875 72.90625 
L 67.578125 0 
L 57.328125 0 
L 50.6875 18.703125 
L 17.828125 18.703125 
L 11.1875 0 
L 0.78125 0 
z
" id="DejaVuSans-65"/>
       <path d="M 4.203125 54.6875 
L 13.1875 54.6875 
L 24.421875 12.015625 
L 35.59375 54.6875 
L 46.1875 54.6875 
L 57.421875 12.015625 
L 68.609375 54.6875 
L 77.59375 54.6875 
L 63.28125 0 
L 52.6875 0 
L 40.921875 44.828125 
L 29.109375 0 
L 18.5 0 
z
" id="DejaVuSans-119"/>
       <path d="M 9.078125 75.984375 
L 18.109375 75.984375 
L 18.109375 31.109375 
L 44.921875 54.6875 
L 56.390625 54.6875 
L 27.390625 29.109375 
L 57.625 0 
L 45.90625 0 
L 18.109375 26.703125 
L 18.109375 0 
L 9.078125 0 
z
" id="DejaVuSans-107"/>
       <path d="M 45.40625 46.390625 
L 45.40625 75.984375 
L 54.390625 75.984375 
L 54.390625 0 
L 45.40625 0 
L 45.40625 8.203125 
Q 42.578125 3.328125 38.25 0.953125 
Q 33.9375 -1.421875 27.875 -1.421875 
Q 17.96875 -1.421875 11.734375 6.484375 
Q 5.515625 14.40625 5.515625 27.296875 
Q 5.515625 40.1875 11.734375 48.09375 
Q 17.96875 56 27.875 56 
Q 33.9375 56 38.25 53.625 
Q 42.578125 51.265625 45.40625 46.390625 
z
M 14.796875 27.296875 
Q 14.796875 17.390625 18.875 11.75 
Q 22.953125 6.109375 30.078125 6.109375 
Q 37.203125 6.109375 41.296875 11.75 
Q 45.40625 17.390625 45.40625 27.296875 
Q 45.40625 37.203125 41.296875 42.84375 
Q 37.203125 48.484375 30.078125 48.484375 
Q 22.953125 48.484375 18.875 42.84375 
Q 14.796875 37.203125 14.796875 27.296875 
z
" id="DejaVuSans-100"/>
       <path d="M 10.6875 12.40625 
L 21 12.40625 
L 21 0 
L 10.6875 0 
z
" id="DejaVuSans-46"/>
       <path d="M 54.890625 54.6875 
L 35.109375 28.078125 
L 55.90625 0 
L 45.3125 0 
L 29.390625 21.484375 
L 13.484375 0 
L 2.875 0 
L 24.125 28.609375 
L 4.6875 54.6875 
L 15.28125 54.6875 
L 29.78125 35.203125 
L 44.28125 54.6875 
z
" id="DejaVuSans-120"/>
      </defs>
      <use xlink:href="#DejaVuSans-65"/>
      <use x="64.408203" xlink:href="#DejaVuSans-119"/>
      <use x="146.195312" xlink:href="#DejaVuSans-107"/>
      <use x="204.105469" xlink:href="#DejaVuSans-119"/>
      <use x="285.892578" xlink:href="#DejaVuSans-97"/>
      <use x="347.171875" xlink:href="#DejaVuSans-114"/>
      <use x="386.535156" xlink:href="#DejaVuSans-100"/>
      <use x="450.011719" xlink:href="#DejaVuSans-32"/>
      <use x="481.798828" xlink:href="#DejaVuSans-48"/>
      <use x="545.421875" xlink:href="#DejaVuSans-46"/>
      <use x="577.208984" xlink:href="#DejaVuSans-120"/>
     </g>
    </g>
    <g id="line2d_16">
     <path d="M 126 70.976562 
L 146 70.976562 
" style="fill:none;stroke:#ff7f0e;stroke-linecap:square;stroke-width:1.5;"/>
    </g>
    <g id="line2d_17"/>
    <g id="text_9">
     <!-- Awkward 1.x -->
     <g transform="translate(154 74.476562)scale(0.1 -0.1)">
      <use xlink:href="#DejaVuSans-65"/>
      <use x="64.408203" xlink:href="#DejaVuSans-119"/>
      <use x="146.195312" xlink:href="#DejaVuSans-107"/>
      <use x="204.105469" xlink:href="#DejaVuSans-119"/>
      <use x="285.892578" xlink:href="#DejaVuSans-97"/>
      <use x="347.171875" xlink:href="#DejaVuSans-114"/>
      <use x="386.535156" xlink:href="#DejaVuSans-100"/>
      <use x="450.011719" xlink:href="#DejaVuSans-32"/>
      <use x="481.798828" xlink:href="#DejaVuSans-49"/>
      <use x="545.421875" xlink:href="#DejaVuSans-46"/>
      <use x="577.208984" xlink:href="#DejaVuSans-120"/>
     </g>
    </g>
    <g id="line2d_18">
     <path d="M 126 85.654687 
L 146 85.654687 
" style="fill:none;stroke:#2ca02c;stroke-linecap:square;stroke-width:1.5;"/>
    </g>
    <g id="line2d_19"/>
    <g id="text_10">
     <!-- Uproot 3.x -->
     <g transform="translate(154 89.154687)scale(0.1 -0.1)">
      <defs>
       <path d="M 8.6875 72.90625 
L 18.609375 72.90625 
L 18.609375 28.609375 
Q 18.609375 16.890625 22.84375 11.734375 
Q 27.09375 6.59375 36.625 6.59375 
Q 46.09375 6.59375 50.34375 11.734375 
Q 54.59375 16.890625 54.59375 28.609375 
L 54.59375 72.90625 
L 64.5 72.90625 
L 64.5 27.390625 
Q 64.5 13.140625 57.4375 5.859375 
Q 50.390625 -1.421875 36.625 -1.421875 
Q 22.796875 -1.421875 15.734375 5.859375 
Q 8.6875 13.140625 8.6875 27.390625 
z
" id="DejaVuSans-85"/>
       <path d="M 40.578125 39.3125 
Q 47.65625 37.796875 51.625 33 
Q 55.609375 28.21875 55.609375 21.1875 
Q 55.609375 10.40625 48.1875 4.484375 
Q 40.765625 -1.421875 27.09375 -1.421875 
Q 22.515625 -1.421875 17.65625 -0.515625 
Q 12.796875 0.390625 7.625 2.203125 
L 7.625 11.71875 
Q 11.71875 9.328125 16.59375 8.109375 
Q 21.484375 6.890625 26.8125 6.890625 
Q 36.078125 6.890625 40.9375 10.546875 
Q 45.796875 14.203125 45.796875 21.1875 
Q 45.796875 27.640625 41.28125 31.265625 
Q 36.765625 34.90625 28.71875 34.90625 
L 20.21875 34.90625 
L 20.21875 43.015625 
L 29.109375 43.015625 
Q 36.375 43.015625 40.234375 45.921875 
Q 44.09375 48.828125 44.09375 54.296875 
Q 44.09375 59.90625 40.109375 62.90625 
Q 36.140625 65.921875 28.71875 65.921875 
Q 24.65625 65.921875 20.015625 65.03125 
Q 15.375 64.15625 9.8125 62.3125 
L 9.8125 71.09375 
Q 15.4375 72.65625 20.34375 73.4375 
Q 25.25 74.21875 29.59375 74.21875 
Q 40.828125 74.21875 47.359375 69.109375 
Q 53.90625 64.015625 53.90625 55.328125 
Q 53.90625 49.265625 50.4375 45.09375 
Q 46.96875 40.921875 40.578125 39.3125 
z
" id="DejaVuSans-51"/>
      </defs>
      <use xlink:href="#DejaVuSans-85"/>
      <use x="73.193359" xlink:href="#DejaVuSans-112"/>
      <use x="136.669922" xlink:href="#DejaVuSans-114"/>
      <use x="175.533203" xlink:href="#DejaVuSans-111"/>
      <use x="236.714844" xlink:href="#DejaVuSans-111"/>
      <use x="297.896484" xlink:href="#DejaVuSans-116"/>
      <use x="337.105469" xlink:href="#DejaVuSans-32"/>
      <use x="368.892578" xlink:href="#DejaVuSans-51"/>
      <use x="432.515625" xlink:href="#DejaVuSans-46"/>
      <use x="464.302734" xlink:href="#DejaVuSans-120"/>
     </g>
    </g>
    <g id="line2d_20">
     <path d="M 126 100.332812 
L 146 100.332812 
" style="fill:none;stroke:#d62728;stroke-linecap:square;stroke-width:1.5;"/>
    </g>
    <g id="line2d_21"/>
    <g id="text_11">
     <!-- Uproot 4.x -->
     <g transform="translate(154 103.832812)scale(0.1 -0.1)">
      <use xlink:href="#DejaVuSans-85"/>
      <use x="73.193359" xlink:href="#DejaVuSans-112"/>
      <use x="136.669922" xlink:href="#DejaVuSans-114"/>
      <use x="175.533203" xlink:href="#DejaVuSans-111"/>
      <use x="236.714844" xlink:href="#DejaVuSans-111"/>
      <use x="297.896484" xlink:href="#DejaVuSans-116"/>
      <use x="337.105469" xlink:href="#DejaVuSans-32"/>
      <use x="368.892578" xlink:href="#DejaVuSans-52"/>
      <use x="432.515625" xlink:href="#DejaVuSans-46"/>
      <use x="464.302734" xlink:href="#DejaVuSans-120"/>
     </g>
    </g>
    <g id="line2d_22">
     <path d="M 126 115.010937 
L 146 115.010937 
" style="fill:none;stroke:#9467bd;stroke-dasharray:1.5,2.475;stroke-dashoffset:0;stroke-width:1.5;"/>
    </g>
    <g id="line2d_23"/>
    <g id="text_12">
     <!-- iminuit -->
     <g transform="translate(154 118.510937)scale(0.1 -0.1)">
      <defs>
       <path d="M 8.5 21.578125 
L 8.5 54.6875 
L 17.484375 54.6875 
L 17.484375 21.921875 
Q 17.484375 14.15625 20.5 10.265625 
Q 23.53125 6.390625 29.59375 6.390625 
Q 36.859375 6.390625 41.078125 11.03125 
Q 45.3125 15.671875 45.3125 23.6875 
L 45.3125 54.6875 
L 54.296875 54.6875 
L 54.296875 0 
L 45.3125 0 
L 45.3125 8.40625 
Q 42.046875 3.421875 37.71875 1 
Q 33.40625 -1.421875 27.6875 -1.421875 
Q 18.265625 -1.421875 13.375 4.4375 
Q 8.5 10.296875 8.5 21.578125 
z
M 31.109375 56 
z
" id="DejaVuSans-117"/>
      </defs>
      <use xlink:href="#DejaVuSans-105"/>
      <use x="27.783203" xlink:href="#DejaVuSans-109"/>
      <use x="125.195312" xlink:href="#DejaVuSans-105"/>
      <use x="152.978516" xlink:href="#DejaVuSans-110"/>
      <use x="216.357422" xlink:href="#DejaVuSans-117"/>
      <use x="279.736328" xlink:href="#DejaVuSans-105"/>
      <use x="307.519531" xlink:href="#DejaVuSans-116"/>
     </g>
    </g>
    <g id="line2d_24">
     <path d="M 126 129.689062 
L 146 129.689062 
" style="fill:none;stroke:#8c564b;stroke-dasharray:1.5,2.475;stroke-dashoffset:0;stroke-width:1.5;"/>
    </g>
    <g id="line2d_25"/>
    <g id="text_13">
     <!-- root-numpy -->
     <g transform="translate(154 133.189062)scale(0.1 -0.1)">
      <defs>
       <path d="M 32.171875 -5.078125 
Q 28.375 -14.84375 24.75 -17.8125 
Q 21.140625 -20.796875 15.09375 -20.796875 
L 7.90625 -20.796875 
L 7.90625 -13.28125 
L 13.1875 -13.28125 
Q 16.890625 -13.28125 18.9375 -11.515625 
Q 21 -9.765625 23.484375 -3.21875 
L 25.09375 0.875 
L 2.984375 54.6875 
L 12.5 54.6875 
L 29.59375 11.921875 
L 46.6875 54.6875 
L 56.203125 54.6875 
z
" id="DejaVuSans-121"/>
      </defs>
      <use xlink:href="#DejaVuSans-114"/>
      <use x="38.863281" xlink:href="#DejaVuSans-111"/>
      <use x="100.044922" xlink:href="#DejaVuSans-111"/>
      <use x="161.226562" xlink:href="#DejaVuSans-116"/>
      <use x="200.435547" xlink:href="#DejaVuSans-45"/>
      <use x="236.519531" xlink:href="#DejaVuSans-110"/>
      <use x="299.898438" xlink:href="#DejaVuSans-117"/>
      <use x="363.277344" xlink:href="#DejaVuSans-109"/>
      <use x="460.689453" xlink:href="#DejaVuSans-112"/>
      <use x="524.166016" xlink:href="#DejaVuSans-121"/>
     </g>
    </g>
    <g id="line2d_26">
     <path d="M 126 144.367187 
L 146 144.367187 
" style="fill:none;stroke:#e377c2;stroke-dasharray:1.5,2.475;stroke-dashoffset:0;stroke-width:1.5;"/>
    </g>
    <g id="line2d_27"/>
    <g id="text_14">
     <!-- rootpy -->
     <g transform="translate(154 147.867187)scale(0.1 -0.1)">
      <use xlink:href="#DejaVuSans-114"/>
      <use x="38.863281" xlink:href="#DejaVuSans-111"/>
      <use x="100.044922" xlink:href="#DejaVuSans-111"/>
      <use x="161.226562" xlink:href="#DejaVuSans-116"/>
      <use x="200.435547" xlink:href="#DejaVuSans-112"/>
      <use x="263.912109" xlink:href="#DejaVuSans-121"/>
     </g>
    </g>
   </g>
  </g>
  <g id="axes_2">
   <g id="patch_8">
    <path d="M 117 315 
L 842.4 315 
L 842.4 185.571429 
L 117 185.571429 
z
" style="fill:#ffffff;"/>
   </g>
   <g id="matplotlib.axis_3">
    <g id="xtick_1">
     <g id="line2d_28">
      <defs>
       <path d="M 0 0 
L 0 3.5 
" id="ma024c2e683" style="stroke:#000000;stroke-width:0.8;"/>
      </defs>
      <g>
       <use style="stroke:#000000;stroke-width:0.8;" x="117" xlink:href="#ma024c2e683" y="315"/>
      </g>
     </g>
     <g id="text_15">
      <!-- Jan -->
      <g transform="translate(109.292187 329.598437)scale(0.1 -0.1)">
       <defs>
        <path d="M 9.8125 72.90625 
L 19.671875 72.90625 
L 19.671875 5.078125 
Q 19.671875 -8.109375 14.671875 -14.0625 
Q 9.671875 -20.015625 -1.421875 -20.015625 
L -5.171875 -20.015625 
L -5.171875 -11.71875 
L -2.09375 -11.71875 
Q 4.4375 -11.71875 7.125 -8.046875 
Q 9.8125 -4.390625 9.8125 5.078125 
z
" id="DejaVuSans-74"/>
       </defs>
       <use xlink:href="#DejaVuSans-74"/>
       <use x="29.492188" xlink:href="#DejaVuSans-97"/>
       <use x="90.771484" xlink:href="#DejaVuSans-110"/>
      </g>
      <!-- 2017 -->
      <g transform="translate(104.275 340.79625)scale(0.1 -0.1)">
       <defs>
        <path d="M 8.203125 72.90625 
L 55.078125 72.90625 
L 55.078125 68.703125 
L 28.609375 0 
L 18.3125 0 
L 43.21875 64.59375 
L 8.203125 64.59375 
z
" id="DejaVuSans-55"/>
       </defs>
       <use xlink:href="#DejaVuSans-50"/>
       <use x="63.623047" xlink:href="#DejaVuSans-48"/>
       <use x="127.246094" xlink:href="#DejaVuSans-49"/>
       <use x="190.869141" xlink:href="#DejaVuSans-55"/>
      </g>
     </g>
    </g>
    <g id="xtick_2">
     <g id="line2d_29">
      <g>
       <use style="stroke:#000000;stroke-width:0.8;" x="308.863043" xlink:href="#ma024c2e683" y="315"/>
      </g>
     </g>
     <g id="text_16">
      <!-- Jan -->
      <g transform="translate(301.155231 329.598437)scale(0.1 -0.1)">
       <use xlink:href="#DejaVuSans-74"/>
       <use x="29.492188" xlink:href="#DejaVuSans-97"/>
       <use x="90.771484" xlink:href="#DejaVuSans-110"/>
      </g>
      <!-- 2018 -->
      <g transform="translate(296.138043 340.79625)scale(0.1 -0.1)">
       <use xlink:href="#DejaVuSans-50"/>
       <use x="63.623047" xlink:href="#DejaVuSans-48"/>
       <use x="127.246094" xlink:href="#DejaVuSans-49"/>
       <use x="190.869141" xlink:href="#DejaVuSans-56"/>
      </g>
     </g>
    </g>
    <g id="xtick_3">
     <g id="line2d_30">
      <g>
       <use style="stroke:#000000;stroke-width:0.8;" x="500.726087" xlink:href="#ma024c2e683" y="315"/>
      </g>
     </g>
     <g id="text_17">
      <!-- Jan -->
      <g transform="translate(493.018274 329.598437)scale(0.1 -0.1)">
       <use xlink:href="#DejaVuSans-74"/>
       <use x="29.492188" xlink:href="#DejaVuSans-97"/>
       <use x="90.771484" xlink:href="#DejaVuSans-110"/>
      </g>
      <!-- 2019 -->
      <g transform="translate(488.001087 340.79625)scale(0.1 -0.1)">
       <defs>
        <path d="M 10.984375 1.515625 
L 10.984375 10.5 
Q 14.703125 8.734375 18.5 7.8125 
Q 22.3125 6.890625 25.984375 6.890625 
Q 35.75 6.890625 40.890625 13.453125 
Q 46.046875 20.015625 46.78125 33.40625 
Q 43.953125 29.203125 39.59375 26.953125 
Q 35.25 24.703125 29.984375 24.703125 
Q 19.046875 24.703125 12.671875 31.3125 
Q 6.296875 37.9375 6.296875 49.421875 
Q 6.296875 60.640625 12.9375 67.421875 
Q 19.578125 74.21875 30.609375 74.21875 
Q 43.265625 74.21875 49.921875 64.515625 
Q 56.59375 54.828125 56.59375 36.375 
Q 56.59375 19.140625 48.40625 8.859375 
Q 40.234375 -1.421875 26.421875 -1.421875 
Q 22.703125 -1.421875 18.890625 -0.6875 
Q 15.09375 0.046875 10.984375 1.515625 
z
M 30.609375 32.421875 
Q 37.25 32.421875 41.125 36.953125 
Q 45.015625 41.5 45.015625 49.421875 
Q 45.015625 57.28125 41.125 61.84375 
Q 37.25 66.40625 30.609375 66.40625 
Q 23.96875 66.40625 20.09375 61.84375 
Q 16.21875 57.28125 16.21875 49.421875 
Q 16.21875 41.5 20.09375 36.953125 
Q 23.96875 32.421875 30.609375 32.421875 
z
" id="DejaVuSans-57"/>
       </defs>
       <use xlink:href="#DejaVuSans-50"/>
       <use x="63.623047" xlink:href="#DejaVuSans-48"/>
       <use x="127.246094" xlink:href="#DejaVuSans-49"/>
       <use x="190.869141" xlink:href="#DejaVuSans-57"/>
      </g>
     </g>
    </g>
    <g id="xtick_4">
     <g id="line2d_31">
      <g>
       <use style="stroke:#000000;stroke-width:0.8;" x="692.58913" xlink:href="#ma024c2e683" y="315"/>
      </g>
     </g>
     <g id="text_18">
      <!-- Jan -->
      <g transform="translate(684.881318 329.598437)scale(0.1 -0.1)">
       <use xlink:href="#DejaVuSans-74"/>
       <use x="29.492188" xlink:href="#DejaVuSans-97"/>
       <use x="90.771484" xlink:href="#DejaVuSans-110"/>
      </g>
      <!-- 2020 -->
      <g transform="translate(679.86413 340.79625)scale(0.1 -0.1)">
       <use xlink:href="#DejaVuSans-50"/>
       <use x="63.623047" xlink:href="#DejaVuSans-48"/>
       <use x="127.246094" xlink:href="#DejaVuSans-50"/>
       <use x="190.869141" xlink:href="#DejaVuSans-48"/>
      </g>
     </g>
    </g>
    <g id="xtick_5">
     <g id="line2d_32">
      <g>
       <use style="stroke:#000000;stroke-width:0.8;" x="842.4" xlink:href="#ma024c2e683" y="315"/>
      </g>
     </g>
    </g>
    <g id="xtick_6">
     <g id="line2d_33">
      <defs>
       <path d="M 0 0 
L 0 2 
" id="md03fa9ae49" style="stroke:#000000;stroke-width:0.6;"/>
      </defs>
      <g>
       <use style="stroke:#000000;stroke-width:0.6;" x="133.295217" xlink:href="#md03fa9ae49" y="315"/>
      </g>
     </g>
    </g>
    <g id="xtick_7">
     <g id="line2d_34">
      <g>
       <use style="stroke:#000000;stroke-width:0.6;" x="148.013478" xlink:href="#md03fa9ae49" y="315"/>
      </g>
     </g>
    </g>
    <g id="xtick_8">
     <g id="line2d_35">
      <g>
       <use style="stroke:#000000;stroke-width:0.6;" x="164.308696" xlink:href="#md03fa9ae49" y="315"/>
      </g>
     </g>
    </g>
    <g id="xtick_9">
     <g id="line2d_36">
      <g>
       <use style="stroke:#000000;stroke-width:0.6;" x="180.078261" xlink:href="#md03fa9ae49" y="315"/>
      </g>
     </g>
    </g>
    <g id="xtick_10">
     <g id="line2d_37">
      <g>
       <use style="stroke:#000000;stroke-width:0.6;" x="196.373478" xlink:href="#md03fa9ae49" y="315"/>
      </g>
     </g>
    </g>
    <g id="xtick_11">
     <g id="line2d_38">
      <g>
       <use style="stroke:#000000;stroke-width:0.6;" x="212.143043" xlink:href="#md03fa9ae49" y="315"/>
      </g>
     </g>
     <g id="text_19">
      <!-- Jul -->
      <g transform="translate(206.110231 327.998438)scale(0.1 -0.1)">
       <use xlink:href="#DejaVuSans-74"/>
       <use x="29.492188" xlink:href="#DejaVuSans-117"/>
       <use x="92.871094" xlink:href="#DejaVuSans-108"/>
      </g>
     </g>
    </g>
    <g id="xtick_12">
     <g id="line2d_39">
      <g>
       <use style="stroke:#000000;stroke-width:0.6;" x="228.438261" xlink:href="#md03fa9ae49" y="315"/>
      </g>
     </g>
    </g>
    <g id="xtick_13">
     <g id="line2d_40">
      <g>
       <use style="stroke:#000000;stroke-width:0.6;" x="244.733478" xlink:href="#md03fa9ae49" y="315"/>
      </g>
     </g>
    </g>
    <g id="xtick_14">
     <g id="line2d_41">
      <g>
       <use style="stroke:#000000;stroke-width:0.6;" x="260.503043" xlink:href="#md03fa9ae49" y="315"/>
      </g>
     </g>
    </g>
    <g id="xtick_15">
     <g id="line2d_42">
      <g>
       <use style="stroke:#000000;stroke-width:0.6;" x="276.798261" xlink:href="#md03fa9ae49" y="315"/>
      </g>
     </g>
    </g>
    <g id="xtick_16">
     <g id="line2d_43">
      <g>
       <use style="stroke:#000000;stroke-width:0.6;" x="292.567826" xlink:href="#md03fa9ae49" y="315"/>
      </g>
     </g>
    </g>
    <g id="xtick_17">
     <g id="line2d_44">
      <g>
       <use style="stroke:#000000;stroke-width:0.6;" x="325.158261" xlink:href="#md03fa9ae49" y="315"/>
      </g>
     </g>
    </g>
    <g id="xtick_18">
     <g id="line2d_45">
      <g>
       <use style="stroke:#000000;stroke-width:0.6;" x="339.876522" xlink:href="#md03fa9ae49" y="315"/>
      </g>
     </g>
    </g>
    <g id="xtick_19">
     <g id="line2d_46">
      <g>
       <use style="stroke:#000000;stroke-width:0.6;" x="356.171739" xlink:href="#md03fa9ae49" y="315"/>
      </g>
     </g>
    </g>
    <g id="xtick_20">
     <g id="line2d_47">
      <g>
       <use style="stroke:#000000;stroke-width:0.6;" x="371.941304" xlink:href="#md03fa9ae49" y="315"/>
      </g>
     </g>
    </g>
    <g id="xtick_21">
     <g id="line2d_48">
      <g>
       <use style="stroke:#000000;stroke-width:0.6;" x="388.236522" xlink:href="#md03fa9ae49" y="315"/>
      </g>
     </g>
    </g>
    <g id="xtick_22">
     <g id="line2d_49">
      <g>
       <use style="stroke:#000000;stroke-width:0.6;" x="404.006087" xlink:href="#md03fa9ae49" y="315"/>
      </g>
     </g>
     <g id="text_20">
      <!-- Jul -->
      <g transform="translate(397.973274 327.998438)scale(0.1 -0.1)">
       <use xlink:href="#DejaVuSans-74"/>
       <use x="29.492188" xlink:href="#DejaVuSans-117"/>
       <use x="92.871094" xlink:href="#DejaVuSans-108"/>
      </g>
     </g>
    </g>
    <g id="xtick_23">
     <g id="line2d_50">
      <g>
       <use style="stroke:#000000;stroke-width:0.6;" x="420.301304" xlink:href="#md03fa9ae49" y="315"/>
      </g>
     </g>
    </g>
    <g id="xtick_24">
     <g id="line2d_51">
      <g>
       <use style="stroke:#000000;stroke-width:0.6;" x="436.596522" xlink:href="#md03fa9ae49" y="315"/>
      </g>
     </g>
    </g>
    <g id="xtick_25">
     <g id="line2d_52">
      <g>
       <use style="stroke:#000000;stroke-width:0.6;" x="452.366087" xlink:href="#md03fa9ae49" y="315"/>
      </g>
     </g>
    </g>
    <g id="xtick_26">
     <g id="line2d_53">
      <g>
       <use style="stroke:#000000;stroke-width:0.6;" x="468.661304" xlink:href="#md03fa9ae49" y="315"/>
      </g>
     </g>
    </g>
    <g id="xtick_27">
     <g id="line2d_54">
      <g>
       <use style="stroke:#000000;stroke-width:0.6;" x="484.43087" xlink:href="#md03fa9ae49" y="315"/>
      </g>
     </g>
    </g>
    <g id="xtick_28">
     <g id="line2d_55">
      <g>
       <use style="stroke:#000000;stroke-width:0.6;" x="517.021304" xlink:href="#md03fa9ae49" y="315"/>
      </g>
     </g>
    </g>
    <g id="xtick_29">
     <g id="line2d_56">
      <g>
       <use style="stroke:#000000;stroke-width:0.6;" x="531.739565" xlink:href="#md03fa9ae49" y="315"/>
      </g>
     </g>
    </g>
    <g id="xtick_30">
     <g id="line2d_57">
      <g>
       <use style="stroke:#000000;stroke-width:0.6;" x="548.034783" xlink:href="#md03fa9ae49" y="315"/>
      </g>
     </g>
    </g>
    <g id="xtick_31">
     <g id="line2d_58">
      <g>
       <use style="stroke:#000000;stroke-width:0.6;" x="563.804348" xlink:href="#md03fa9ae49" y="315"/>
      </g>
     </g>
    </g>
    <g id="xtick_32">
     <g id="line2d_59">
      <g>
       <use style="stroke:#000000;stroke-width:0.6;" x="580.099565" xlink:href="#md03fa9ae49" y="315"/>
      </g>
     </g>
    </g>
    <g id="xtick_33">
     <g id="line2d_60">
      <g>
       <use style="stroke:#000000;stroke-width:0.6;" x="595.86913" xlink:href="#md03fa9ae49" y="315"/>
      </g>
     </g>
     <g id="text_21">
      <!-- Jul -->
      <g transform="translate(589.836318 327.998438)scale(0.1 -0.1)">
       <use xlink:href="#DejaVuSans-74"/>
       <use x="29.492188" xlink:href="#DejaVuSans-117"/>
       <use x="92.871094" xlink:href="#DejaVuSans-108"/>
      </g>
     </g>
    </g>
    <g id="xtick_34">
     <g id="line2d_61">
      <g>
       <use style="stroke:#000000;stroke-width:0.6;" x="612.164348" xlink:href="#md03fa9ae49" y="315"/>
      </g>
     </g>
    </g>
    <g id="xtick_35">
     <g id="line2d_62">
      <g>
       <use style="stroke:#000000;stroke-width:0.6;" x="628.459565" xlink:href="#md03fa9ae49" y="315"/>
      </g>
     </g>
    </g>
    <g id="xtick_36">
     <g id="line2d_63">
      <g>
       <use style="stroke:#000000;stroke-width:0.6;" x="644.22913" xlink:href="#md03fa9ae49" y="315"/>
      </g>
     </g>
    </g>
    <g id="xtick_37">
     <g id="line2d_64">
      <g>
       <use style="stroke:#000000;stroke-width:0.6;" x="660.524348" xlink:href="#md03fa9ae49" y="315"/>
      </g>
     </g>
    </g>
    <g id="xtick_38">
     <g id="line2d_65">
      <g>
       <use style="stroke:#000000;stroke-width:0.6;" x="676.293913" xlink:href="#md03fa9ae49" y="315"/>
      </g>
     </g>
    </g>
    <g id="xtick_39">
     <g id="line2d_66">
      <g>
       <use style="stroke:#000000;stroke-width:0.6;" x="708.884348" xlink:href="#md03fa9ae49" y="315"/>
      </g>
     </g>
    </g>
    <g id="xtick_40">
     <g id="line2d_67">
      <g>
       <use style="stroke:#000000;stroke-width:0.6;" x="724.128261" xlink:href="#md03fa9ae49" y="315"/>
      </g>
     </g>
    </g>
    <g id="xtick_41">
     <g id="line2d_68">
      <g>
       <use style="stroke:#000000;stroke-width:0.6;" x="740.423478" xlink:href="#md03fa9ae49" y="315"/>
      </g>
     </g>
    </g>
    <g id="xtick_42">
     <g id="line2d_69">
      <g>
       <use style="stroke:#000000;stroke-width:0.6;" x="756.193043" xlink:href="#md03fa9ae49" y="315"/>
      </g>
     </g>
    </g>
    <g id="xtick_43">
     <g id="line2d_70">
      <g>
       <use style="stroke:#000000;stroke-width:0.6;" x="772.488261" xlink:href="#md03fa9ae49" y="315"/>
      </g>
     </g>
    </g>
    <g id="xtick_44">
     <g id="line2d_71">
      <g>
       <use style="stroke:#000000;stroke-width:0.6;" x="788.257826" xlink:href="#md03fa9ae49" y="315"/>
      </g>
     </g>
     <g id="text_22">
      <!-- Jul -->
      <g transform="translate(782.225014 327.998438)scale(0.1 -0.1)">
       <use xlink:href="#DejaVuSans-74"/>
       <use x="29.492188" xlink:href="#DejaVuSans-117"/>
       <use x="92.871094" xlink:href="#DejaVuSans-108"/>
      </g>
     </g>
    </g>
    <g id="xtick_45">
     <g id="line2d_72">
      <g>
       <use style="stroke:#000000;stroke-width:0.6;" x="804.553043" xlink:href="#md03fa9ae49" y="315"/>
      </g>
     </g>
    </g>
    <g id="xtick_46">
     <g id="line2d_73">
      <g>
       <use style="stroke:#000000;stroke-width:0.6;" x="820.848261" xlink:href="#md03fa9ae49" y="315"/>
      </g>
     </g>
    </g>
    <g id="xtick_47">
     <g id="line2d_74">
      <g>
       <use style="stroke:#000000;stroke-width:0.6;" x="836.617826" xlink:href="#md03fa9ae49" y="315"/>
      </g>
     </g>
    </g>
   </g>
   <g id="matplotlib.axis_4">
    <g id="ytick_7">
     <g id="line2d_75">
      <g>
       <use style="stroke:#000000;stroke-width:0.8;" x="117" xlink:href="#m05fe7a47c6" y="315"/>
      </g>
     </g>
     <g id="text_23">
      <!-- 0 -->
      <g transform="translate(103.6375 318.799219)scale(0.1 -0.1)">
       <use xlink:href="#DejaVuSans-48"/>
      </g>
     </g>
    </g>
    <g id="ytick_8">
     <g id="line2d_76">
      <g>
       <use style="stroke:#000000;stroke-width:0.8;" x="117" xlink:href="#m05fe7a47c6" y="289.114286"/>
      </g>
     </g>
     <g id="text_24">
      <!-- 20 -->
      <g transform="translate(97.275 292.913504)scale(0.1 -0.1)">
       <use xlink:href="#DejaVuSans-50"/>
       <use x="63.623047" xlink:href="#DejaVuSans-48"/>
      </g>
     </g>
    </g>
    <g id="ytick_9">
     <g id="line2d_77">
      <g>
       <use style="stroke:#000000;stroke-width:0.8;" x="117" xlink:href="#m05fe7a47c6" y="263.228571"/>
      </g>
     </g>
     <g id="text_25">
      <!-- 40 -->
      <g transform="translate(97.275 267.02779)scale(0.1 -0.1)">
       <use xlink:href="#DejaVuSans-52"/>
       <use x="63.623047" xlink:href="#DejaVuSans-48"/>
      </g>
     </g>
    </g>
    <g id="ytick_10">
     <g id="line2d_78">
      <g>
       <use style="stroke:#000000;stroke-width:0.8;" x="117" xlink:href="#m05fe7a47c6" y="237.342857"/>
      </g>
     </g>
     <g id="text_26">
      <!-- 60 -->
      <g transform="translate(97.275 241.142076)scale(0.1 -0.1)">
       <use xlink:href="#DejaVuSans-54"/>
       <use x="63.623047" xlink:href="#DejaVuSans-48"/>
      </g>
     </g>
    </g>
    <g id="ytick_11">
     <g id="line2d_79">
      <g>
       <use style="stroke:#000000;stroke-width:0.8;" x="117" xlink:href="#m05fe7a47c6" y="211.457143"/>
      </g>
     </g>
     <g id="text_27">
      <!-- 80 -->
      <g transform="translate(97.275 215.256362)scale(0.1 -0.1)">
       <use xlink:href="#DejaVuSans-56"/>
       <use x="63.623047" xlink:href="#DejaVuSans-48"/>
      </g>
     </g>
    </g>
    <g id="ytick_12">
     <g id="line2d_80">
      <g>
       <use style="stroke:#000000;stroke-width:0.8;" x="117" xlink:href="#m05fe7a47c6" y="185.571429"/>
      </g>
     </g>
     <g id="text_28">
      <!-- 100 -->
      <g transform="translate(90.9125 189.370647)scale(0.1 -0.1)">
       <use xlink:href="#DejaVuSans-49"/>
       <use x="63.623047" xlink:href="#DejaVuSans-48"/>
       <use x="127.246094" xlink:href="#DejaVuSans-48"/>
      </g>
     </g>
    </g>
    <g id="text_29">
     <!-- new files in GitHub per month -->
     <g transform="translate(84.832812 325.202902)rotate(-90)scale(0.1 -0.1)">
      <defs>
       <path d="M 37.109375 75.984375 
L 37.109375 68.5 
L 28.515625 68.5 
Q 23.6875 68.5 21.796875 66.546875 
Q 19.921875 64.59375 19.921875 59.515625 
L 19.921875 54.6875 
L 34.71875 54.6875 
L 34.71875 47.703125 
L 19.921875 47.703125 
L 19.921875 0 
L 10.890625 0 
L 10.890625 47.703125 
L 2.296875 47.703125 
L 2.296875 54.6875 
L 10.890625 54.6875 
L 10.890625 58.5 
Q 10.890625 67.625 15.140625 71.796875 
Q 19.390625 75.984375 28.609375 75.984375 
z
" id="DejaVuSans-102"/>
       <path d="M 59.515625 10.40625 
L 59.515625 29.984375 
L 43.40625 29.984375 
L 43.40625 38.09375 
L 69.28125 38.09375 
L 69.28125 6.78125 
Q 63.578125 2.734375 56.6875 0.65625 
Q 49.8125 -1.421875 42 -1.421875 
Q 24.90625 -1.421875 15.25 8.5625 
Q 5.609375 18.5625 5.609375 36.375 
Q 5.609375 54.25 15.25 64.234375 
Q 24.90625 74.21875 42 74.21875 
Q 49.125 74.21875 55.546875 72.453125 
Q 61.96875 70.703125 67.390625 67.28125 
L 67.390625 56.78125 
Q 61.921875 61.421875 55.765625 63.765625 
Q 49.609375 66.109375 42.828125 66.109375 
Q 29.4375 66.109375 22.71875 58.640625 
Q 16.015625 51.171875 16.015625 36.375 
Q 16.015625 21.625 22.71875 14.15625 
Q 29.4375 6.6875 42.828125 6.6875 
Q 48.046875 6.6875 52.140625 7.59375 
Q 56.25 8.5 59.515625 10.40625 
z
" id="DejaVuSans-71"/>
       <path d="M 9.8125 72.90625 
L 19.671875 72.90625 
L 19.671875 43.015625 
L 55.515625 43.015625 
L 55.515625 72.90625 
L 65.375 72.90625 
L 65.375 0 
L 55.515625 0 
L 55.515625 34.71875 
L 19.671875 34.71875 
L 19.671875 0 
L 9.8125 0 
z
" id="DejaVuSans-72"/>
       <path d="M 48.6875 27.296875 
Q 48.6875 37.203125 44.609375 42.84375 
Q 40.53125 48.484375 33.40625 48.484375 
Q 26.265625 48.484375 22.1875 42.84375 
Q 18.109375 37.203125 18.109375 27.296875 
Q 18.109375 17.390625 22.1875 11.75 
Q 26.265625 6.109375 33.40625 6.109375 
Q 40.53125 6.109375 44.609375 11.75 
Q 48.6875 17.390625 48.6875 27.296875 
z
M 18.109375 46.390625 
Q 20.953125 51.265625 25.265625 53.625 
Q 29.59375 56 35.59375 56 
Q 45.5625 56 51.78125 48.09375 
Q 58.015625 40.1875 58.015625 27.296875 
Q 58.015625 14.40625 51.78125 6.484375 
Q 45.5625 -1.421875 35.59375 -1.421875 
Q 29.59375 -1.421875 25.265625 0.953125 
Q 20.953125 3.328125 18.109375 8.203125 
L 18.109375 0 
L 9.078125 0 
L 9.078125 75.984375 
L 18.109375 75.984375 
z
" id="DejaVuSans-98"/>
      </defs>
      <use xlink:href="#DejaVuSans-110"/>
      <use x="63.378906" xlink:href="#DejaVuSans-101"/>
      <use x="124.902344" xlink:href="#DejaVuSans-119"/>
      <use x="206.689453" xlink:href="#DejaVuSans-32"/>
      <use x="238.476562" xlink:href="#DejaVuSans-102"/>
      <use x="273.681641" xlink:href="#DejaVuSans-105"/>
      <use x="301.464844" xlink:href="#DejaVuSans-108"/>
      <use x="329.248047" xlink:href="#DejaVuSans-101"/>
      <use x="390.771484" xlink:href="#DejaVuSans-115"/>
      <use x="442.871094" xlink:href="#DejaVuSans-32"/>
      <use x="474.658203" xlink:href="#DejaVuSans-105"/>
      <use x="502.441406" xlink:href="#DejaVuSans-110"/>
      <use x="565.820312" xlink:href="#DejaVuSans-32"/>
      <use x="597.607422" xlink:href="#DejaVuSans-71"/>
      <use x="675.097656" xlink:href="#DejaVuSans-105"/>
      <use x="702.880859" xlink:href="#DejaVuSans-116"/>
      <use x="742.089844" xlink:href="#DejaVuSans-72"/>
      <use x="817.285156" xlink:href="#DejaVuSans-117"/>
      <use x="880.664062" xlink:href="#DejaVuSans-98"/>
      <use x="944.140625" xlink:href="#DejaVuSans-32"/>
      <use x="975.927734" xlink:href="#DejaVuSans-112"/>
      <use x="1039.404297" xlink:href="#DejaVuSans-101"/>
      <use x="1100.927734" xlink:href="#DejaVuSans-114"/>
      <use x="1142.041016" xlink:href="#DejaVuSans-32"/>
      <use x="1173.828125" xlink:href="#DejaVuSans-109"/>
      <use x="1271.240234" xlink:href="#DejaVuSans-111"/>
      <use x="1332.421875" xlink:href="#DejaVuSans-110"/>
      <use x="1395.800781" xlink:href="#DejaVuSans-116"/>
      <use x="1435.009766" xlink:href="#DejaVuSans-104"/>
     </g>
    </g>
   </g>
   <g id="line2d_81">
    <path clip-path="url(#p1fd1a09c3c)" d="M -1 315 
L 132.769565 315 
L 138.026087 311.117143 
L 148.53913 311.117143 
L 153.795652 315 
L 442.904348 315 
L 448.16087 313.705714 
L 458.673913 313.705714 
L 463.930435 315 
L 469.186957 315 
L 479.7 309.822857 
L 484.956522 296.88 
L 490.213043 299.468571 
L 495.469565 285.231429 
L 500.726087 298.174286 
L 505.982609 298.174286 
L 511.23913 313.705714 
L 516.495652 295.585714 
L 521.752174 290.408571 
L 527.008696 289.114286 
L 532.265217 302.057143 
L 537.521739 305.94 
L 542.778261 304.645714 
L 548.034783 300.762857 
L 553.291304 287.82 
L 558.547826 283.937143 
L 563.804348 292.997143 
L 569.06087 298.174286 
L 574.317391 305.94 
L 579.573913 299.468571 
L 584.830435 291.702857 
L 590.086957 286.525714 
L 595.343478 290.408571 
L 600.6 299.468571 
L 605.856522 304.645714 
L 611.113043 304.645714 
L 616.369565 294.291429 
L 621.626087 276.171429 
L 626.882609 261.934286 
L 632.13913 273.582857 
L 637.395652 291.702857 
L 642.652174 303.351429 
L 647.908696 294.291429 
L 653.165217 287.82 
L 658.421739 274.877143 
L 663.678261 280.054286 
L 668.934783 272.288571 
L 674.191304 268.405714 
L 679.447826 256.757143 
L 684.704348 254.168571 
L 689.96087 272.288571 
L 695.217391 292.997143 
L 700.473913 300.762857 
L 705.730435 295.585714 
L 710.986957 292.997143 
L 716.243478 298.174286 
L 721.5 298.174286 
L 726.756522 299.468571 
L 732.013043 302.057143 
L 737.269565 307.234286 
L 742.526087 303.351429 
L 747.782609 296.88 
L 753.03913 298.174286 
L 758.295652 298.174286 
L 763.552174 299.468571 
L 768.808696 287.82 
L 774.065217 272.288571 
L 779.321739 265.817143 
L 784.578261 270.994286 
L 789.834783 282.642857 
L 795.091304 274.877143 
L 800.347826 268.405714 
L 805.604348 229.577143 
L 810.86087 238.637143 
L 816.117391 204.985714 
L 821.373913 248.991429 
L 826.630435 236.048571 
L 831.886957 251.58 
L 837.143478 238.637143 
L 842.4 256.757143 
L 842.4 256.757143 
" style="fill:none;stroke:#1f77b4;stroke-linecap:square;stroke-width:1.5;"/>
   </g>
   <g id="line2d_82">
    <path clip-path="url(#p1fd1a09c3c)" d="M 710.986957 312.411429 
L 716.243478 315 
L 721.5 313.705714 
L 732.013043 313.705714 
L 737.269565 315 
L 742.526087 313.705714 
L 747.782609 309.822857 
L 753.03913 309.822857 
L 758.295652 311.117143 
L 763.552174 315 
L 768.808696 313.705714 
L 774.065217 305.94 
L 779.321739 304.645714 
L 784.578261 305.94 
L 789.834783 312.411429 
L 795.091304 313.705714 
L 800.347826 313.705714 
L 805.604348 299.468571 
L 810.86087 296.88 
L 816.117391 287.82 
L 821.373913 303.351429 
L 826.630435 248.991429 
L 831.886957 238.637143 
L 837.143478 210.162857 
L 842.4 224.4 
L 842.4 224.4 
" style="fill:none;stroke:#ff7f0e;stroke-linecap:square;stroke-width:1.5;"/>
   </g>
   <g id="patch_9">
    <path d="M 117 315 
L 117 185.571429 
" style="fill:none;stroke:#000000;stroke-linecap:square;stroke-linejoin:miter;stroke-width:0.8;"/>
   </g>
   <g id="patch_10">
    <path d="M 842.4 315 
L 842.4 185.571429 
" style="fill:none;stroke:#000000;stroke-linecap:square;stroke-linejoin:miter;stroke-width:0.8;"/>
   </g>
   <g id="patch_11">
    <path d="M 117 315 
L 842.4 315 
" style="fill:none;stroke:#000000;stroke-linecap:square;stroke-linejoin:miter;stroke-width:0.8;"/>
   </g>
   <g id="patch_12">
    <path d="M 117 185.571429 
L 842.4 185.571429 
" style="fill:none;stroke:#000000;stroke-linecap:square;stroke-linejoin:miter;stroke-width:0.8;"/>
   </g>
   <g id="legend_2">
    <g id="patch_13">
     <path d="M 124 222.927679 
L 219.6375 222.927679 
Q 221.6375 222.927679 221.6375 220.927679 
L 221.6375 192.571429 
Q 221.6375 190.571429 219.6375 190.571429 
L 124 190.571429 
Q 122 190.571429 122 192.571429 
L 122 220.927679 
Q 122 222.927679 124 222.927679 
z
" style="fill:#ffffff;opacity:0.8;stroke:#cccccc;stroke-linejoin:miter;"/>
    </g>
    <g id="line2d_83">
     <path d="M 126 198.669866 
L 146 198.669866 
" style="fill:none;stroke:#1f77b4;stroke-linecap:square;stroke-width:1.5;"/>
    </g>
    <g id="line2d_84"/>
    <g id="text_30">
     <!-- Awkward 0.x -->
     <g transform="translate(154 202.169866)scale(0.1 -0.1)">
      <use xlink:href="#DejaVuSans-65"/>
      <use x="64.408203" xlink:href="#DejaVuSans-119"/>
      <use x="146.195312" xlink:href="#DejaVuSans-107"/>
      <use x="204.105469" xlink:href="#DejaVuSans-119"/>
      <use x="285.892578" xlink:href="#DejaVuSans-97"/>
      <use x="347.171875" xlink:href="#DejaVuSans-114"/>
      <use x="386.535156" xlink:href="#DejaVuSans-100"/>
      <use x="450.011719" xlink:href="#DejaVuSans-32"/>
      <use x="481.798828" xlink:href="#DejaVuSans-48"/>
      <use x="545.421875" xlink:href="#DejaVuSans-46"/>
      <use x="577.208984" xlink:href="#DejaVuSans-120"/>
     </g>
    </g>
    <g id="line2d_85">
     <path d="M 126 213.347991 
L 146 213.347991 
" style="fill:none;stroke:#ff7f0e;stroke-linecap:square;stroke-width:1.5;"/>
    </g>
    <g id="line2d_86"/>
    <g id="text_31">
     <!-- Awkward 1.x -->
     <g transform="translate(154 216.847991)scale(0.1 -0.1)">
      <use xlink:href="#DejaVuSans-65"/>
      <use x="64.408203" xlink:href="#DejaVuSans-119"/>
      <use x="146.195312" xlink:href="#DejaVuSans-107"/>
      <use x="204.105469" xlink:href="#DejaVuSans-119"/>
      <use x="285.892578" xlink:href="#DejaVuSans-97"/>
      <use x="347.171875" xlink:href="#DejaVuSans-114"/>
      <use x="386.535156" xlink:href="#DejaVuSans-100"/>
      <use x="450.011719" xlink:href="#DejaVuSans-32"/>
      <use x="481.798828" xlink:href="#DejaVuSans-49"/>
      <use x="545.421875" xlink:href="#DejaVuSans-46"/>
      <use x="577.208984" xlink:href="#DejaVuSans-120"/>
     </g>
    </g>
   </g>
  </g>
 </g>
 <defs>
  <clipPath id="p28968a1af0">
   <rect height="129.428571" width="725.4" x="117" y="43.2"/>
  </clipPath>
  <clipPath id="p1fd1a09c3c">
   <rect height="129.428571" width="725.4" x="117" y="185.571429"/>
  </clipPath>
 </defs>
</svg>
