<?xml version="1.0" encoding="utf-8" standalone="no"?>
<!DOCTYPE svg PUBLIC "-//W3C//DTD SVG 1.1//EN"
  "http://www.w3.org/Graphics/SVG/1.1/DTD/svg11.dtd">
<!-- Created with matplotlib (https://matplotlib.org/) -->
<svg height="360pt" version="1.1" viewBox="0 0 720 360" width="720pt" xmlns="http://www.w3.org/2000/svg" xmlns:xlink="http://www.w3.org/1999/xlink">
 <metadata>
  <rdf:RDF xmlns:cc="http://creativecommons.org/ns#" xmlns:dc="http://purl.org/dc/elements/1.1/" xmlns:rdf="http://www.w3.org/1999/02/22-rdf-syntax-ns#">
   <cc:Work>
    <dc:type rdf:resource="http://purl.org/dc/dcmitype/StillImage"/>
    <dc:date>2020-10-13T23:38:30.811901</dc:date>
    <dc:format>image/svg+xml</dc:format>
    <dc:creator>
     <cc:Agent>
      <dc:title>Matplotlib v3.3.0, https://matplotlib.org/</dc:title>
     </cc:Agent>
    </dc:creator>
   </cc:Work>
  </rdf:RDF>
 </metadata>
 <defs>
  <style type="text/css">*{stroke-linecap:butt;stroke-linejoin:round;}</style>
 </defs>
 <g id="figure_1">
  <g id="patch_1">
   <path d="M 0 360 
L 720 360 
L 720 0 
L 0 0 
z
" style="fill:none;"/>
  </g>
  <g id="axes_1">
   <g id="patch_2">
    <path d="M 90 315 
L 648 315 
L 648 43.2 
L 90 43.2 
z
" style="fill:#ffffff;"/>
   </g>
   <g id="matplotlib.axis_1">
    <g id="xtick_1">
     <g id="line2d_1">
      <defs>
       <path d="M 0 0 
L 0 3.5 
" id="mb2a66add7e" style="stroke:#000000;stroke-width:0.8;"/>
      </defs>
      <g>
       <use style="stroke:#000000;stroke-width:0.8;" x="90" xlink:href="#mb2a66add7e" y="315"/>
      </g>
     </g>
     <g id="text_1">
      <!-- Jan -->
      <g transform="translate(82.292187 329.598437)scale(0.1 -0.1)">
       <defs>
        <path d="M 9.8125 72.90625 
L 19.671875 72.90625 
L 19.671875 5.078125 
Q 19.671875 -8.109375 14.671875 -14.0625 
Q 9.671875 -20.015625 -1.421875 -20.015625 
L -5.171875 -20.015625 
L -5.171875 -11.71875 
L -2.09375 -11.71875 
Q 4.4375 -11.71875 7.125 -8.046875 
Q 9.8125 -4.390625 9.8125 5.078125 
z
" id="DejaVuSans-74"/>
        <path d="M 34.28125 27.484375 
Q 23.390625 27.484375 19.1875 25 
Q 14.984375 22.515625 14.984375 16.5 
Q 14.984375 11.71875 18.140625 8.90625 
Q 21.296875 6.109375 26.703125 6.109375 
Q 34.1875 6.109375 38.703125 11.40625 
Q 43.21875 16.703125 43.21875 25.484375 
L 43.21875 27.484375 
z
M 52.203125 31.203125 
L 52.203125 0 
L 43.21875 0 
L 43.21875 8.296875 
Q 40.140625 3.328125 35.546875 0.953125 
Q 30.953125 -1.421875 24.3125 -1.421875 
Q 15.921875 -1.421875 10.953125 3.296875 
Q 6 8.015625 6 15.921875 
Q 6 25.140625 12.171875 29.828125 
Q 18.359375 34.515625 30.609375 34.515625 
L 43.21875 34.515625 
L 43.21875 35.40625 
Q 43.21875 41.609375 39.140625 45 
Q 35.0625 48.390625 27.6875 48.390625 
Q 23 48.390625 18.546875 47.265625 
Q 14.109375 46.140625 10.015625 43.890625 
L 10.015625 52.203125 
Q 14.9375 54.109375 19.578125 55.046875 
Q 24.21875 56 28.609375 56 
Q 40.484375 56 46.34375 49.84375 
Q 52.203125 43.703125 52.203125 31.203125 
z
" id="DejaVuSans-97"/>
        <path d="M 54.890625 33.015625 
L 54.890625 0 
L 45.90625 0 
L 45.90625 32.71875 
Q 45.90625 40.484375 42.875 44.328125 
Q 39.84375 48.1875 33.796875 48.1875 
Q 26.515625 48.1875 22.3125 43.546875 
Q 18.109375 38.921875 18.109375 30.90625 
L 18.109375 0 
L 9.078125 0 
L 9.078125 54.6875 
L 18.109375 54.6875 
L 18.109375 46.1875 
Q 21.34375 51.125 25.703125 53.5625 
Q 30.078125 56 35.796875 56 
Q 45.21875 56 50.046875 50.171875 
Q 54.890625 44.34375 54.890625 33.015625 
z
" id="DejaVuSans-110"/>
       </defs>
       <use xlink:href="#DejaVuSans-74"/>
       <use x="29.492188" xlink:href="#DejaVuSans-97"/>
       <use x="90.771484" xlink:href="#DejaVuSans-110"/>
      </g>
      <!-- 2017 -->
      <g transform="translate(77.275 340.79625)scale(0.1 -0.1)">
       <defs>
        <path d="M 19.1875 8.296875 
L 53.609375 8.296875 
L 53.609375 0 
L 7.328125 0 
L 7.328125 8.296875 
Q 12.9375 14.109375 22.625 23.890625 
Q 32.328125 33.6875 34.8125 36.53125 
Q 39.546875 41.84375 41.421875 45.53125 
Q 43.3125 49.21875 43.3125 52.78125 
Q 43.3125 58.59375 39.234375 62.25 
Q 35.15625 65.921875 28.609375 65.921875 
Q 23.96875 65.921875 18.8125 64.3125 
Q 13.671875 62.703125 7.8125 59.421875 
L 7.8125 69.390625 
Q 13.765625 71.78125 18.9375 73 
Q 24.125 74.21875 28.421875 74.21875 
Q 39.75 74.21875 46.484375 68.546875 
Q 53.21875 62.890625 53.21875 53.421875 
Q 53.21875 48.921875 51.53125 44.890625 
Q 49.859375 40.875 45.40625 35.40625 
Q 44.1875 33.984375 37.640625 27.21875 
Q 31.109375 20.453125 19.1875 8.296875 
z
" id="DejaVuSans-50"/>
        <path d="M 31.78125 66.40625 
Q 24.171875 66.40625 20.328125 58.90625 
Q 16.5 51.421875 16.5 36.375 
Q 16.5 21.390625 20.328125 13.890625 
Q 24.171875 6.390625 31.78125 6.390625 
Q 39.453125 6.390625 43.28125 13.890625 
Q 47.125 21.390625 47.125 36.375 
Q 47.125 51.421875 43.28125 58.90625 
Q 39.453125 66.40625 31.78125 66.40625 
z
M 31.78125 74.21875 
Q 44.046875 74.21875 50.515625 64.515625 
Q 56.984375 54.828125 56.984375 36.375 
Q 56.984375 17.96875 50.515625 8.265625 
Q 44.046875 -1.421875 31.78125 -1.421875 
Q 19.53125 -1.421875 13.0625 8.265625 
Q 6.59375 17.96875 6.59375 36.375 
Q 6.59375 54.828125 13.0625 64.515625 
Q 19.53125 74.21875 31.78125 74.21875 
z
" id="DejaVuSans-48"/>
        <path d="M 12.40625 8.296875 
L 28.515625 8.296875 
L 28.515625 63.921875 
L 10.984375 60.40625 
L 10.984375 69.390625 
L 28.421875 72.90625 
L 38.28125 72.90625 
L 38.28125 8.296875 
L 54.390625 8.296875 
L 54.390625 0 
L 12.40625 0 
z
" id="DejaVuSans-49"/>
        <path d="M 8.203125 72.90625 
L 55.078125 72.90625 
L 55.078125 68.703125 
L 28.609375 0 
L 18.3125 0 
L 43.21875 64.59375 
L 8.203125 64.59375 
z
" id="DejaVuSans-55"/>
       </defs>
       <use xlink:href="#DejaVuSans-50"/>
       <use x="63.623047" xlink:href="#DejaVuSans-48"/>
       <use x="127.246094" xlink:href="#DejaVuSans-49"/>
       <use x="190.869141" xlink:href="#DejaVuSans-55"/>
      </g>
     </g>
    </g>
    <g id="xtick_2">
     <g id="line2d_2">
      <g>
       <use style="stroke:#000000;stroke-width:0.8;" x="237.586957" xlink:href="#mb2a66add7e" y="315"/>
      </g>
     </g>
     <g id="text_2">
      <!-- Jan -->
      <g transform="translate(229.879144 329.598437)scale(0.1 -0.1)">
       <use xlink:href="#DejaVuSans-74"/>
       <use x="29.492188" xlink:href="#DejaVuSans-97"/>
       <use x="90.771484" xlink:href="#DejaVuSans-110"/>
      </g>
      <!-- 2018 -->
      <g transform="translate(224.861957 340.79625)scale(0.1 -0.1)">
       <defs>
        <path d="M 31.78125 34.625 
Q 24.75 34.625 20.71875 30.859375 
Q 16.703125 27.09375 16.703125 20.515625 
Q 16.703125 13.921875 20.71875 10.15625 
Q 24.75 6.390625 31.78125 6.390625 
Q 38.8125 6.390625 42.859375 10.171875 
Q 46.921875 13.96875 46.921875 20.515625 
Q 46.921875 27.09375 42.890625 30.859375 
Q 38.875 34.625 31.78125 34.625 
z
M 21.921875 38.8125 
Q 15.578125 40.375 12.03125 44.71875 
Q 8.5 49.078125 8.5 55.328125 
Q 8.5 64.0625 14.71875 69.140625 
Q 20.953125 74.21875 31.78125 74.21875 
Q 42.671875 74.21875 48.875 69.140625 
Q 55.078125 64.0625 55.078125 55.328125 
Q 55.078125 49.078125 51.53125 44.71875 
Q 48 40.375 41.703125 38.8125 
Q 48.828125 37.15625 52.796875 32.3125 
Q 56.78125 27.484375 56.78125 20.515625 
Q 56.78125 9.90625 50.3125 4.234375 
Q 43.84375 -1.421875 31.78125 -1.421875 
Q 19.734375 -1.421875 13.25 4.234375 
Q 6.78125 9.90625 6.78125 20.515625 
Q 6.78125 27.484375 10.78125 32.3125 
Q 14.796875 37.15625 21.921875 38.8125 
z
M 18.3125 54.390625 
Q 18.3125 48.734375 21.84375 45.5625 
Q 25.390625 42.390625 31.78125 42.390625 
Q 38.140625 42.390625 41.71875 45.5625 
Q 45.3125 48.734375 45.3125 54.390625 
Q 45.3125 60.0625 41.71875 63.234375 
Q 38.140625 66.40625 31.78125 66.40625 
Q 25.390625 66.40625 21.84375 63.234375 
Q 18.3125 60.0625 18.3125 54.390625 
z
" id="DejaVuSans-56"/>
       </defs>
       <use xlink:href="#DejaVuSans-50"/>
       <use x="63.623047" xlink:href="#DejaVuSans-48"/>
       <use x="127.246094" xlink:href="#DejaVuSans-49"/>
       <use x="190.869141" xlink:href="#DejaVuSans-56"/>
      </g>
     </g>
    </g>
    <g id="xtick_3">
     <g id="line2d_3">
      <g>
       <use style="stroke:#000000;stroke-width:0.8;" x="385.173913" xlink:href="#mb2a66add7e" y="315"/>
      </g>
     </g>
     <g id="text_3">
      <!-- Jan -->
      <g transform="translate(377.466101 329.598437)scale(0.1 -0.1)">
       <use xlink:href="#DejaVuSans-74"/>
       <use x="29.492188" xlink:href="#DejaVuSans-97"/>
       <use x="90.771484" xlink:href="#DejaVuSans-110"/>
      </g>
      <!-- 2019 -->
      <g transform="translate(372.448913 340.79625)scale(0.1 -0.1)">
       <defs>
        <path d="M 10.984375 1.515625 
L 10.984375 10.5 
Q 14.703125 8.734375 18.5 7.8125 
Q 22.3125 6.890625 25.984375 6.890625 
Q 35.75 6.890625 40.890625 13.453125 
Q 46.046875 20.015625 46.78125 33.40625 
Q 43.953125 29.203125 39.59375 26.953125 
Q 35.25 24.703125 29.984375 24.703125 
Q 19.046875 24.703125 12.671875 31.3125 
Q 6.296875 37.9375 6.296875 49.421875 
Q 6.296875 60.640625 12.9375 67.421875 
Q 19.578125 74.21875 30.609375 74.21875 
Q 43.265625 74.21875 49.921875 64.515625 
Q 56.59375 54.828125 56.59375 36.375 
Q 56.59375 19.140625 48.40625 8.859375 
Q 40.234375 -1.421875 26.421875 -1.421875 
Q 22.703125 -1.421875 18.890625 -0.6875 
Q 15.09375 0.046875 10.984375 1.515625 
z
M 30.609375 32.421875 
Q 37.25 32.421875 41.125 36.953125 
Q 45.015625 41.5 45.015625 49.421875 
Q 45.015625 57.28125 41.125 61.84375 
Q 37.25 66.40625 30.609375 66.40625 
Q 23.96875 66.40625 20.09375 61.84375 
Q 16.21875 57.28125 16.21875 49.421875 
Q 16.21875 41.5 20.09375 36.953125 
Q 23.96875 32.421875 30.609375 32.421875 
z
" id="DejaVuSans-57"/>
       </defs>
       <use xlink:href="#DejaVuSans-50"/>
       <use x="63.623047" xlink:href="#DejaVuSans-48"/>
       <use x="127.246094" xlink:href="#DejaVuSans-49"/>
       <use x="190.869141" xlink:href="#DejaVuSans-57"/>
      </g>
     </g>
    </g>
    <g id="xtick_4">
     <g id="line2d_4">
      <g>
       <use style="stroke:#000000;stroke-width:0.8;" x="532.76087" xlink:href="#mb2a66add7e" y="315"/>
      </g>
     </g>
     <g id="text_4">
      <!-- Jan -->
      <g transform="translate(525.053057 329.598437)scale(0.1 -0.1)">
       <use xlink:href="#DejaVuSans-74"/>
       <use x="29.492188" xlink:href="#DejaVuSans-97"/>
       <use x="90.771484" xlink:href="#DejaVuSans-110"/>
      </g>
      <!-- 2020 -->
      <g transform="translate(520.03587 340.79625)scale(0.1 -0.1)">
       <use xlink:href="#DejaVuSans-50"/>
       <use x="63.623047" xlink:href="#DejaVuSans-48"/>
       <use x="127.246094" xlink:href="#DejaVuSans-50"/>
       <use x="190.869141" xlink:href="#DejaVuSans-48"/>
      </g>
     </g>
    </g>
    <g id="xtick_5">
     <g id="line2d_5">
      <g>
       <use style="stroke:#000000;stroke-width:0.8;" x="648" xlink:href="#mb2a66add7e" y="315"/>
      </g>
     </g>
    </g>
    <g id="xtick_6">
     <g id="line2d_6">
      <defs>
       <path d="M 0 0 
L 0 2 
" id="m49a5801ebe" style="stroke:#000000;stroke-width:0.6;"/>
      </defs>
      <g>
       <use style="stroke:#000000;stroke-width:0.6;" x="102.534783" xlink:href="#m49a5801ebe" y="315"/>
      </g>
     </g>
    </g>
    <g id="xtick_7">
     <g id="line2d_7">
      <g>
       <use style="stroke:#000000;stroke-width:0.6;" x="113.856522" xlink:href="#m49a5801ebe" y="315"/>
      </g>
     </g>
    </g>
    <g id="xtick_8">
     <g id="line2d_8">
      <g>
       <use style="stroke:#000000;stroke-width:0.6;" x="126.391304" xlink:href="#m49a5801ebe" y="315"/>
      </g>
     </g>
    </g>
    <g id="xtick_9">
     <g id="line2d_9">
      <g>
       <use style="stroke:#000000;stroke-width:0.6;" x="138.521739" xlink:href="#m49a5801ebe" y="315"/>
      </g>
     </g>
    </g>
    <g id="xtick_10">
     <g id="line2d_10">
      <g>
       <use style="stroke:#000000;stroke-width:0.6;" x="151.056522" xlink:href="#m49a5801ebe" y="315"/>
      </g>
     </g>
    </g>
    <g id="xtick_11">
     <g id="line2d_11">
      <g>
       <use style="stroke:#000000;stroke-width:0.6;" x="163.186957" xlink:href="#m49a5801ebe" y="315"/>
      </g>
     </g>
     <g id="text_5">
      <!-- Jul -->
      <g transform="translate(157.154144 327.998438)scale(0.1 -0.1)">
       <defs>
        <path d="M 8.5 21.578125 
L 8.5 54.6875 
L 17.484375 54.6875 
L 17.484375 21.921875 
Q 17.484375 14.15625 20.5 10.265625 
Q 23.53125 6.390625 29.59375 6.390625 
Q 36.859375 6.390625 41.078125 11.03125 
Q 45.3125 15.671875 45.3125 23.6875 
L 45.3125 54.6875 
L 54.296875 54.6875 
L 54.296875 0 
L 45.3125 0 
L 45.3125 8.40625 
Q 42.046875 3.421875 37.71875 1 
Q 33.40625 -1.421875 27.6875 -1.421875 
Q 18.265625 -1.421875 13.375 4.4375 
Q 8.5 10.296875 8.5 21.578125 
z
M 31.109375 56 
z
" id="DejaVuSans-117"/>
        <path d="M 9.421875 75.984375 
L 18.40625 75.984375 
L 18.40625 0 
L 9.421875 0 
z
" id="DejaVuSans-108"/>
       </defs>
       <use xlink:href="#DejaVuSans-74"/>
       <use x="29.492188" xlink:href="#DejaVuSans-117"/>
       <use x="92.871094" xlink:href="#DejaVuSans-108"/>
      </g>
     </g>
    </g>
    <g id="xtick_12">
     <g id="line2d_12">
      <g>
       <use style="stroke:#000000;stroke-width:0.6;" x="175.721739" xlink:href="#m49a5801ebe" y="315"/>
      </g>
     </g>
    </g>
    <g id="xtick_13">
     <g id="line2d_13">
      <g>
       <use style="stroke:#000000;stroke-width:0.6;" x="188.256522" xlink:href="#m49a5801ebe" y="315"/>
      </g>
     </g>
    </g>
    <g id="xtick_14">
     <g id="line2d_14">
      <g>
       <use style="stroke:#000000;stroke-width:0.6;" x="200.386957" xlink:href="#m49a5801ebe" y="315"/>
      </g>
     </g>
    </g>
    <g id="xtick_15">
     <g id="line2d_15">
      <g>
       <use style="stroke:#000000;stroke-width:0.6;" x="212.921739" xlink:href="#m49a5801ebe" y="315"/>
      </g>
     </g>
    </g>
    <g id="xtick_16">
     <g id="line2d_16">
      <g>
       <use style="stroke:#000000;stroke-width:0.6;" x="225.052174" xlink:href="#m49a5801ebe" y="315"/>
      </g>
     </g>
    </g>
    <g id="xtick_17">
     <g id="line2d_17">
      <g>
       <use style="stroke:#000000;stroke-width:0.6;" x="250.121739" xlink:href="#m49a5801ebe" y="315"/>
      </g>
     </g>
    </g>
    <g id="xtick_18">
     <g id="line2d_18">
      <g>
       <use style="stroke:#000000;stroke-width:0.6;" x="261.443478" xlink:href="#m49a5801ebe" y="315"/>
      </g>
     </g>
    </g>
    <g id="xtick_19">
     <g id="line2d_19">
      <g>
       <use style="stroke:#000000;stroke-width:0.6;" x="273.978261" xlink:href="#m49a5801ebe" y="315"/>
      </g>
     </g>
    </g>
    <g id="xtick_20">
     <g id="line2d_20">
      <g>
       <use style="stroke:#000000;stroke-width:0.6;" x="286.108696" xlink:href="#m49a5801ebe" y="315"/>
      </g>
     </g>
    </g>
    <g id="xtick_21">
     <g id="line2d_21">
      <g>
       <use style="stroke:#000000;stroke-width:0.6;" x="298.643478" xlink:href="#m49a5801ebe" y="315"/>
      </g>
     </g>
    </g>
    <g id="xtick_22">
     <g id="line2d_22">
      <g>
       <use style="stroke:#000000;stroke-width:0.6;" x="310.773913" xlink:href="#m49a5801ebe" y="315"/>
      </g>
     </g>
     <g id="text_6">
      <!-- Jul -->
      <g transform="translate(304.741101 327.998438)scale(0.1 -0.1)">
       <use xlink:href="#DejaVuSans-74"/>
       <use x="29.492188" xlink:href="#DejaVuSans-117"/>
       <use x="92.871094" xlink:href="#DejaVuSans-108"/>
      </g>
     </g>
    </g>
    <g id="xtick_23">
     <g id="line2d_23">
      <g>
       <use style="stroke:#000000;stroke-width:0.6;" x="323.308696" xlink:href="#m49a5801ebe" y="315"/>
      </g>
     </g>
    </g>
    <g id="xtick_24">
     <g id="line2d_24">
      <g>
       <use style="stroke:#000000;stroke-width:0.6;" x="335.843478" xlink:href="#m49a5801ebe" y="315"/>
      </g>
     </g>
    </g>
    <g id="xtick_25">
     <g id="line2d_25">
      <g>
       <use style="stroke:#000000;stroke-width:0.6;" x="347.973913" xlink:href="#m49a5801ebe" y="315"/>
      </g>
     </g>
    </g>
    <g id="xtick_26">
     <g id="line2d_26">
      <g>
       <use style="stroke:#000000;stroke-width:0.6;" x="360.508696" xlink:href="#m49a5801ebe" y="315"/>
      </g>
     </g>
    </g>
    <g id="xtick_27">
     <g id="line2d_27">
      <g>
       <use style="stroke:#000000;stroke-width:0.6;" x="372.63913" xlink:href="#m49a5801ebe" y="315"/>
      </g>
     </g>
    </g>
    <g id="xtick_28">
     <g id="line2d_28">
      <g>
       <use style="stroke:#000000;stroke-width:0.6;" x="397.708696" xlink:href="#m49a5801ebe" y="315"/>
      </g>
     </g>
    </g>
    <g id="xtick_29">
     <g id="line2d_29">
      <g>
       <use style="stroke:#000000;stroke-width:0.6;" x="409.030435" xlink:href="#m49a5801ebe" y="315"/>
      </g>
     </g>
    </g>
    <g id="xtick_30">
     <g id="line2d_30">
      <g>
       <use style="stroke:#000000;stroke-width:0.6;" x="421.565217" xlink:href="#m49a5801ebe" y="315"/>
      </g>
     </g>
    </g>
    <g id="xtick_31">
     <g id="line2d_31">
      <g>
       <use style="stroke:#000000;stroke-width:0.6;" x="433.695652" xlink:href="#m49a5801ebe" y="315"/>
      </g>
     </g>
    </g>
    <g id="xtick_32">
     <g id="line2d_32">
      <g>
       <use style="stroke:#000000;stroke-width:0.6;" x="446.230435" xlink:href="#m49a5801ebe" y="315"/>
      </g>
     </g>
    </g>
    <g id="xtick_33">
     <g id="line2d_33">
      <g>
       <use style="stroke:#000000;stroke-width:0.6;" x="458.36087" xlink:href="#m49a5801ebe" y="315"/>
      </g>
     </g>
     <g id="text_7">
      <!-- Jul -->
      <g transform="translate(452.328057 327.998438)scale(0.1 -0.1)">
       <use xlink:href="#DejaVuSans-74"/>
       <use x="29.492188" xlink:href="#DejaVuSans-117"/>
       <use x="92.871094" xlink:href="#DejaVuSans-108"/>
      </g>
     </g>
    </g>
    <g id="xtick_34">
     <g id="line2d_34">
      <g>
       <use style="stroke:#000000;stroke-width:0.6;" x="470.895652" xlink:href="#m49a5801ebe" y="315"/>
      </g>
     </g>
    </g>
    <g id="xtick_35">
     <g id="line2d_35">
      <g>
       <use style="stroke:#000000;stroke-width:0.6;" x="483.430435" xlink:href="#m49a5801ebe" y="315"/>
      </g>
     </g>
    </g>
    <g id="xtick_36">
     <g id="line2d_36">
      <g>
       <use style="stroke:#000000;stroke-width:0.6;" x="495.56087" xlink:href="#m49a5801ebe" y="315"/>
      </g>
     </g>
    </g>
    <g id="xtick_37">
     <g id="line2d_37">
      <g>
       <use style="stroke:#000000;stroke-width:0.6;" x="508.095652" xlink:href="#m49a5801ebe" y="315"/>
      </g>
     </g>
    </g>
    <g id="xtick_38">
     <g id="line2d_38">
      <g>
       <use style="stroke:#000000;stroke-width:0.6;" x="520.226087" xlink:href="#m49a5801ebe" y="315"/>
      </g>
     </g>
    </g>
    <g id="xtick_39">
     <g id="line2d_39">
      <g>
       <use style="stroke:#000000;stroke-width:0.6;" x="545.295652" xlink:href="#m49a5801ebe" y="315"/>
      </g>
     </g>
    </g>
    <g id="xtick_40">
     <g id="line2d_40">
      <g>
       <use style="stroke:#000000;stroke-width:0.6;" x="557.021739" xlink:href="#m49a5801ebe" y="315"/>
      </g>
     </g>
    </g>
    <g id="xtick_41">
     <g id="line2d_41">
      <g>
       <use style="stroke:#000000;stroke-width:0.6;" x="569.556522" xlink:href="#m49a5801ebe" y="315"/>
      </g>
     </g>
    </g>
    <g id="xtick_42">
     <g id="line2d_42">
      <g>
       <use style="stroke:#000000;stroke-width:0.6;" x="581.686957" xlink:href="#m49a5801ebe" y="315"/>
      </g>
     </g>
    </g>
    <g id="xtick_43">
     <g id="line2d_43">
      <g>
       <use style="stroke:#000000;stroke-width:0.6;" x="594.221739" xlink:href="#m49a5801ebe" y="315"/>
      </g>
     </g>
    </g>
    <g id="xtick_44">
     <g id="line2d_44">
      <g>
       <use style="stroke:#000000;stroke-width:0.6;" x="606.352174" xlink:href="#m49a5801ebe" y="315"/>
      </g>
     </g>
     <g id="text_8">
      <!-- Jul -->
      <g transform="translate(600.319361 327.998438)scale(0.1 -0.1)">
       <use xlink:href="#DejaVuSans-74"/>
       <use x="29.492188" xlink:href="#DejaVuSans-117"/>
       <use x="92.871094" xlink:href="#DejaVuSans-108"/>
      </g>
     </g>
    </g>
    <g id="xtick_45">
     <g id="line2d_45">
      <g>
       <use style="stroke:#000000;stroke-width:0.6;" x="618.886957" xlink:href="#m49a5801ebe" y="315"/>
      </g>
     </g>
    </g>
    <g id="xtick_46">
     <g id="line2d_46">
      <g>
       <use style="stroke:#000000;stroke-width:0.6;" x="631.421739" xlink:href="#m49a5801ebe" y="315"/>
      </g>
     </g>
    </g>
    <g id="xtick_47">
     <g id="line2d_47">
      <g>
       <use style="stroke:#000000;stroke-width:0.6;" x="643.552174" xlink:href="#m49a5801ebe" y="315"/>
      </g>
     </g>
    </g>
   </g>
   <g id="matplotlib.axis_2">
    <g id="ytick_1">
     <g id="line2d_48">
      <defs>
       <path d="M 0 0 
L -3.5 0 
" id="m09ab905dc7" style="stroke:#000000;stroke-width:0.8;"/>
      </defs>
      <g>
       <use style="stroke:#000000;stroke-width:0.8;" x="90" xlink:href="#m09ab905dc7" y="315"/>
      </g>
     </g>
     <g id="text_9">
      <!-- $\mathdefault{10^{1}}$ -->
      <g transform="translate(65.4 318.799219)scale(0.1 -0.1)">
       <use transform="translate(0 0.684375)" xlink:href="#DejaVuSans-49"/>
       <use transform="translate(63.623047 0.684375)" xlink:href="#DejaVuSans-48"/>
       <use transform="translate(128.203125 38.965625)scale(0.7)" xlink:href="#DejaVuSans-49"/>
      </g>
     </g>
    </g>
    <g id="ytick_2">
     <g id="line2d_49">
      <g>
       <use style="stroke:#000000;stroke-width:0.8;" x="90" xlink:href="#m09ab905dc7" y="257.157537"/>
      </g>
     </g>
     <g id="text_10">
      <!-- $\mathdefault{10^{2}}$ -->
      <g transform="translate(65.4 260.956755)scale(0.1 -0.1)">
       <use transform="translate(0 0.765625)" xlink:href="#DejaVuSans-49"/>
       <use transform="translate(63.623047 0.765625)" xlink:href="#DejaVuSans-48"/>
       <use transform="translate(128.203125 39.046875)scale(0.7)" xlink:href="#DejaVuSans-50"/>
      </g>
     </g>
    </g>
    <g id="ytick_3">
     <g id="line2d_50">
      <g>
       <use style="stroke:#000000;stroke-width:0.8;" x="90" xlink:href="#m09ab905dc7" y="199.315073"/>
      </g>
     </g>
     <g id="text_11">
      <!-- $\mathdefault{10^{3}}$ -->
      <g transform="translate(65.4 203.114292)scale(0.1 -0.1)">
       <defs>
        <path d="M 40.578125 39.3125 
Q 47.65625 37.796875 51.625 33 
Q 55.609375 28.21875 55.609375 21.1875 
Q 55.609375 10.40625 48.1875 4.484375 
Q 40.765625 -1.421875 27.09375 -1.421875 
Q 22.515625 -1.421875 17.65625 -0.515625 
Q 12.796875 0.390625 7.625 2.203125 
L 7.625 11.71875 
Q 11.71875 9.328125 16.59375 8.109375 
Q 21.484375 6.890625 26.8125 6.890625 
Q 36.078125 6.890625 40.9375 10.546875 
Q 45.796875 14.203125 45.796875 21.1875 
Q 45.796875 27.640625 41.28125 31.265625 
Q 36.765625 34.90625 28.71875 34.90625 
L 20.21875 34.90625 
L 20.21875 43.015625 
L 29.109375 43.015625 
Q 36.375 43.015625 40.234375 45.921875 
Q 44.09375 48.828125 44.09375 54.296875 
Q 44.09375 59.90625 40.109375 62.90625 
Q 36.140625 65.921875 28.71875 65.921875 
Q 24.65625 65.921875 20.015625 65.03125 
Q 15.375 64.15625 9.8125 62.3125 
L 9.8125 71.09375 
Q 15.4375 72.65625 20.34375 73.4375 
Q 25.25 74.21875 29.59375 74.21875 
Q 40.828125 74.21875 47.359375 69.109375 
Q 53.90625 64.015625 53.90625 55.328125 
Q 53.90625 49.265625 50.4375 45.09375 
Q 46.96875 40.921875 40.578125 39.3125 
z
" id="DejaVuSans-51"/>
       </defs>
       <use transform="translate(0 0.765625)" xlink:href="#DejaVuSans-49"/>
       <use transform="translate(63.623047 0.765625)" xlink:href="#DejaVuSans-48"/>
       <use transform="translate(128.203125 39.046875)scale(0.7)" xlink:href="#DejaVuSans-51"/>
      </g>
     </g>
    </g>
    <g id="ytick_4">
     <g id="line2d_51">
      <g>
       <use style="stroke:#000000;stroke-width:0.8;" x="90" xlink:href="#m09ab905dc7" y="141.47261"/>
      </g>
     </g>
     <g id="text_12">
      <!-- $\mathdefault{10^{4}}$ -->
      <g transform="translate(65.4 145.271829)scale(0.1 -0.1)">
       <defs>
        <path d="M 37.796875 64.3125 
L 12.890625 25.390625 
L 37.796875 25.390625 
z
M 35.203125 72.90625 
L 47.609375 72.90625 
L 47.609375 25.390625 
L 58.015625 25.390625 
L 58.015625 17.1875 
L 47.609375 17.1875 
L 47.609375 0 
L 37.796875 0 
L 37.796875 17.1875 
L 4.890625 17.1875 
L 4.890625 26.703125 
z
" id="DejaVuSans-52"/>
       </defs>
       <use transform="translate(0 0.684375)" xlink:href="#DejaVuSans-49"/>
       <use transform="translate(63.623047 0.684375)" xlink:href="#DejaVuSans-48"/>
       <use transform="translate(128.203125 38.965625)scale(0.7)" xlink:href="#DejaVuSans-52"/>
      </g>
     </g>
    </g>
    <g id="ytick_5">
     <g id="line2d_52">
      <g>
       <use style="stroke:#000000;stroke-width:0.8;" x="90" xlink:href="#m09ab905dc7" y="83.630147"/>
      </g>
     </g>
     <g id="text_13">
      <!-- $\mathdefault{10^{5}}$ -->
      <g transform="translate(65.4 87.429366)scale(0.1 -0.1)">
       <defs>
        <path d="M 10.796875 72.90625 
L 49.515625 72.90625 
L 49.515625 64.59375 
L 19.828125 64.59375 
L 19.828125 46.734375 
Q 21.96875 47.46875 24.109375 47.828125 
Q 26.265625 48.1875 28.421875 48.1875 
Q 40.625 48.1875 47.75 41.5 
Q 54.890625 34.8125 54.890625 23.390625 
Q 54.890625 11.625 47.5625 5.09375 
Q 40.234375 -1.421875 26.90625 -1.421875 
Q 22.3125 -1.421875 17.546875 -0.640625 
Q 12.796875 0.140625 7.71875 1.703125 
L 7.71875 11.625 
Q 12.109375 9.234375 16.796875 8.0625 
Q 21.484375 6.890625 26.703125 6.890625 
Q 35.15625 6.890625 40.078125 11.328125 
Q 45.015625 15.765625 45.015625 23.390625 
Q 45.015625 31 40.078125 35.4375 
Q 35.15625 39.890625 26.703125 39.890625 
Q 22.75 39.890625 18.8125 39.015625 
Q 14.890625 38.140625 10.796875 36.28125 
z
" id="DejaVuSans-53"/>
       </defs>
       <use transform="translate(0 0.684375)" xlink:href="#DejaVuSans-49"/>
       <use transform="translate(63.623047 0.684375)" xlink:href="#DejaVuSans-48"/>
       <use transform="translate(128.203125 38.965625)scale(0.7)" xlink:href="#DejaVuSans-53"/>
      </g>
     </g>
    </g>
    <g id="ytick_6">
     <g id="line2d_53">
      <defs>
       <path d="M 0 0 
L -2 0 
" id="md839d82564" style="stroke:#000000;stroke-width:0.6;"/>
      </defs>
      <g>
       <use style="stroke:#000000;stroke-width:0.6;" x="90" xlink:href="#md839d82564" y="297.587684"/>
      </g>
     </g>
    </g>
    <g id="ytick_7">
     <g id="line2d_54">
      <g>
       <use style="stroke:#000000;stroke-width:0.6;" x="90" xlink:href="#md839d82564" y="287.402131"/>
      </g>
     </g>
    </g>
    <g id="ytick_8">
     <g id="line2d_55">
      <g>
       <use style="stroke:#000000;stroke-width:0.6;" x="90" xlink:href="#md839d82564" y="280.175367"/>
      </g>
     </g>
    </g>
    <g id="ytick_9">
     <g id="line2d_56">
      <g>
       <use style="stroke:#000000;stroke-width:0.6;" x="90" xlink:href="#md839d82564" y="274.569853"/>
      </g>
     </g>
    </g>
    <g id="ytick_10">
     <g id="line2d_57">
      <g>
       <use style="stroke:#000000;stroke-width:0.6;" x="90" xlink:href="#md839d82564" y="269.989815"/>
      </g>
     </g>
    </g>
    <g id="ytick_11">
     <g id="line2d_58">
      <g>
       <use style="stroke:#000000;stroke-width:0.6;" x="90" xlink:href="#md839d82564" y="266.117448"/>
      </g>
     </g>
    </g>
    <g id="ytick_12">
     <g id="line2d_59">
      <g>
       <use style="stroke:#000000;stroke-width:0.6;" x="90" xlink:href="#md839d82564" y="262.763051"/>
      </g>
     </g>
    </g>
    <g id="ytick_13">
     <g id="line2d_60">
      <g>
       <use style="stroke:#000000;stroke-width:0.6;" x="90" xlink:href="#md839d82564" y="259.804263"/>
      </g>
     </g>
    </g>
    <g id="ytick_14">
     <g id="line2d_61">
      <g>
       <use style="stroke:#000000;stroke-width:0.6;" x="90" xlink:href="#md839d82564" y="239.74522"/>
      </g>
     </g>
    </g>
    <g id="ytick_15">
     <g id="line2d_62">
      <g>
       <use style="stroke:#000000;stroke-width:0.6;" x="90" xlink:href="#md839d82564" y="229.559668"/>
      </g>
     </g>
    </g>
    <g id="ytick_16">
     <g id="line2d_63">
      <g>
       <use style="stroke:#000000;stroke-width:0.6;" x="90" xlink:href="#md839d82564" y="222.332904"/>
      </g>
     </g>
    </g>
    <g id="ytick_17">
     <g id="line2d_64">
      <g>
       <use style="stroke:#000000;stroke-width:0.6;" x="90" xlink:href="#md839d82564" y="216.72739"/>
      </g>
     </g>
    </g>
    <g id="ytick_18">
     <g id="line2d_65">
      <g>
       <use style="stroke:#000000;stroke-width:0.6;" x="90" xlink:href="#md839d82564" y="212.147352"/>
      </g>
     </g>
    </g>
    <g id="ytick_19">
     <g id="line2d_66">
      <g>
       <use style="stroke:#000000;stroke-width:0.6;" x="90" xlink:href="#md839d82564" y="208.274984"/>
      </g>
     </g>
    </g>
    <g id="ytick_20">
     <g id="line2d_67">
      <g>
       <use style="stroke:#000000;stroke-width:0.6;" x="90" xlink:href="#md839d82564" y="204.920587"/>
      </g>
     </g>
    </g>
    <g id="ytick_21">
     <g id="line2d_68">
      <g>
       <use style="stroke:#000000;stroke-width:0.6;" x="90" xlink:href="#md839d82564" y="201.961799"/>
      </g>
     </g>
    </g>
    <g id="ytick_22">
     <g id="line2d_69">
      <g>
       <use style="stroke:#000000;stroke-width:0.6;" x="90" xlink:href="#md839d82564" y="181.902757"/>
      </g>
     </g>
    </g>
    <g id="ytick_23">
     <g id="line2d_70">
      <g>
       <use style="stroke:#000000;stroke-width:0.6;" x="90" xlink:href="#md839d82564" y="171.717205"/>
      </g>
     </g>
    </g>
    <g id="ytick_24">
     <g id="line2d_71">
      <g>
       <use style="stroke:#000000;stroke-width:0.6;" x="90" xlink:href="#md839d82564" y="164.49044"/>
      </g>
     </g>
    </g>
    <g id="ytick_25">
     <g id="line2d_72">
      <g>
       <use style="stroke:#000000;stroke-width:0.6;" x="90" xlink:href="#md839d82564" y="158.884927"/>
      </g>
     </g>
    </g>
    <g id="ytick_26">
     <g id="line2d_73">
      <g>
       <use style="stroke:#000000;stroke-width:0.6;" x="90" xlink:href="#md839d82564" y="154.304888"/>
      </g>
     </g>
    </g>
    <g id="ytick_27">
     <g id="line2d_74">
      <g>
       <use style="stroke:#000000;stroke-width:0.6;" x="90" xlink:href="#md839d82564" y="150.432521"/>
      </g>
     </g>
    </g>
    <g id="ytick_28">
     <g id="line2d_75">
      <g>
       <use style="stroke:#000000;stroke-width:0.6;" x="90" xlink:href="#md839d82564" y="147.078124"/>
      </g>
     </g>
    </g>
    <g id="ytick_29">
     <g id="line2d_76">
      <g>
       <use style="stroke:#000000;stroke-width:0.6;" x="90" xlink:href="#md839d82564" y="144.119336"/>
      </g>
     </g>
    </g>
    <g id="ytick_30">
     <g id="line2d_77">
      <g>
       <use style="stroke:#000000;stroke-width:0.6;" x="90" xlink:href="#md839d82564" y="124.060294"/>
      </g>
     </g>
    </g>
    <g id="ytick_31">
     <g id="line2d_78">
      <g>
       <use style="stroke:#000000;stroke-width:0.6;" x="90" xlink:href="#md839d82564" y="113.874741"/>
      </g>
     </g>
    </g>
    <g id="ytick_32">
     <g id="line2d_79">
      <g>
       <use style="stroke:#000000;stroke-width:0.6;" x="90" xlink:href="#md839d82564" y="106.647977"/>
      </g>
     </g>
    </g>
    <g id="ytick_33">
     <g id="line2d_80">
      <g>
       <use style="stroke:#000000;stroke-width:0.6;" x="90" xlink:href="#md839d82564" y="101.042463"/>
      </g>
     </g>
    </g>
    <g id="ytick_34">
     <g id="line2d_81">
      <g>
       <use style="stroke:#000000;stroke-width:0.6;" x="90" xlink:href="#md839d82564" y="96.462425"/>
      </g>
     </g>
    </g>
    <g id="ytick_35">
     <g id="line2d_82">
      <g>
       <use style="stroke:#000000;stroke-width:0.6;" x="90" xlink:href="#md839d82564" y="92.590058"/>
      </g>
     </g>
    </g>
    <g id="ytick_36">
     <g id="line2d_83">
      <g>
       <use style="stroke:#000000;stroke-width:0.6;" x="90" xlink:href="#md839d82564" y="89.235661"/>
      </g>
     </g>
    </g>
    <g id="ytick_37">
     <g id="line2d_84">
      <g>
       <use style="stroke:#000000;stroke-width:0.6;" x="90" xlink:href="#md839d82564" y="86.276873"/>
      </g>
     </g>
    </g>
    <g id="ytick_38">
     <g id="line2d_85">
      <g>
       <use style="stroke:#000000;stroke-width:0.6;" x="90" xlink:href="#md839d82564" y="66.21783"/>
      </g>
     </g>
    </g>
    <g id="ytick_39">
     <g id="line2d_86">
      <g>
       <use style="stroke:#000000;stroke-width:0.6;" x="90" xlink:href="#md839d82564" y="56.032278"/>
      </g>
     </g>
    </g>
    <g id="ytick_40">
     <g id="line2d_87">
      <g>
       <use style="stroke:#000000;stroke-width:0.6;" x="90" xlink:href="#md839d82564" y="48.805514"/>
      </g>
     </g>
    </g>
    <g id="ytick_41">
     <g id="line2d_88">
      <g>
       <use style="stroke:#000000;stroke-width:0.6;" x="90" xlink:href="#md839d82564" y="43.2"/>
      </g>
     </g>
    </g>
    <g id="text_14">
     <!-- Number of pip-installs per month -->
     <g transform="translate(59.320312 262.00625)rotate(-90)scale(0.1 -0.1)">
      <defs>
       <path d="M 9.8125 72.90625 
L 23.09375 72.90625 
L 55.421875 11.921875 
L 55.421875 72.90625 
L 64.984375 72.90625 
L 64.984375 0 
L 51.703125 0 
L 19.390625 60.984375 
L 19.390625 0 
L 9.8125 0 
z
" id="DejaVuSans-78"/>
       <path d="M 52 44.1875 
Q 55.375 50.25 60.0625 53.125 
Q 64.75 56 71.09375 56 
Q 79.640625 56 84.28125 50.015625 
Q 88.921875 44.046875 88.921875 33.015625 
L 88.921875 0 
L 79.890625 0 
L 79.890625 32.71875 
Q 79.890625 40.578125 77.09375 44.375 
Q 74.3125 48.1875 68.609375 48.1875 
Q 61.625 48.1875 57.5625 43.546875 
Q 53.515625 38.921875 53.515625 30.90625 
L 53.515625 0 
L 44.484375 0 
L 44.484375 32.71875 
Q 44.484375 40.625 41.703125 44.40625 
Q 38.921875 48.1875 33.109375 48.1875 
Q 26.21875 48.1875 22.15625 43.53125 
Q 18.109375 38.875 18.109375 30.90625 
L 18.109375 0 
L 9.078125 0 
L 9.078125 54.6875 
L 18.109375 54.6875 
L 18.109375 46.1875 
Q 21.1875 51.21875 25.484375 53.609375 
Q 29.78125 56 35.6875 56 
Q 41.65625 56 45.828125 52.96875 
Q 50 49.953125 52 44.1875 
z
" id="DejaVuSans-109"/>
       <path d="M 48.6875 27.296875 
Q 48.6875 37.203125 44.609375 42.84375 
Q 40.53125 48.484375 33.40625 48.484375 
Q 26.265625 48.484375 22.1875 42.84375 
Q 18.109375 37.203125 18.109375 27.296875 
Q 18.109375 17.390625 22.1875 11.75 
Q 26.265625 6.109375 33.40625 6.109375 
Q 40.53125 6.109375 44.609375 11.75 
Q 48.6875 17.390625 48.6875 27.296875 
z
M 18.109375 46.390625 
Q 20.953125 51.265625 25.265625 53.625 
Q 29.59375 56 35.59375 56 
Q 45.5625 56 51.78125 48.09375 
Q 58.015625 40.1875 58.015625 27.296875 
Q 58.015625 14.40625 51.78125 6.484375 
Q 45.5625 -1.421875 35.59375 -1.421875 
Q 29.59375 -1.421875 25.265625 0.953125 
Q 20.953125 3.328125 18.109375 8.203125 
L 18.109375 0 
L 9.078125 0 
L 9.078125 75.984375 
L 18.109375 75.984375 
z
" id="DejaVuSans-98"/>
       <path d="M 56.203125 29.59375 
L 56.203125 25.203125 
L 14.890625 25.203125 
Q 15.484375 15.921875 20.484375 11.0625 
Q 25.484375 6.203125 34.421875 6.203125 
Q 39.59375 6.203125 44.453125 7.46875 
Q 49.3125 8.734375 54.109375 11.28125 
L 54.109375 2.78125 
Q 49.265625 0.734375 44.1875 -0.34375 
Q 39.109375 -1.421875 33.890625 -1.421875 
Q 20.796875 -1.421875 13.15625 6.1875 
Q 5.515625 13.8125 5.515625 26.8125 
Q 5.515625 40.234375 12.765625 48.109375 
Q 20.015625 56 32.328125 56 
Q 43.359375 56 49.78125 48.890625 
Q 56.203125 41.796875 56.203125 29.59375 
z
M 47.21875 32.234375 
Q 47.125 39.59375 43.09375 43.984375 
Q 39.0625 48.390625 32.421875 48.390625 
Q 24.90625 48.390625 20.390625 44.140625 
Q 15.875 39.890625 15.1875 32.171875 
z
" id="DejaVuSans-101"/>
       <path d="M 41.109375 46.296875 
Q 39.59375 47.171875 37.8125 47.578125 
Q 36.03125 48 33.890625 48 
Q 26.265625 48 22.1875 43.046875 
Q 18.109375 38.09375 18.109375 28.8125 
L 18.109375 0 
L 9.078125 0 
L 9.078125 54.6875 
L 18.109375 54.6875 
L 18.109375 46.1875 
Q 20.953125 51.171875 25.484375 53.578125 
Q 30.03125 56 36.53125 56 
Q 37.453125 56 38.578125 55.875 
Q 39.703125 55.765625 41.0625 55.515625 
z
" id="DejaVuSans-114"/>
       <path id="DejaVuSans-32"/>
       <path d="M 30.609375 48.390625 
Q 23.390625 48.390625 19.1875 42.75 
Q 14.984375 37.109375 14.984375 27.296875 
Q 14.984375 17.484375 19.15625 11.84375 
Q 23.34375 6.203125 30.609375 6.203125 
Q 37.796875 6.203125 41.984375 11.859375 
Q 46.1875 17.53125 46.1875 27.296875 
Q 46.1875 37.015625 41.984375 42.703125 
Q 37.796875 48.390625 30.609375 48.390625 
z
M 30.609375 56 
Q 42.328125 56 49.015625 48.375 
Q 55.71875 40.765625 55.71875 27.296875 
Q 55.71875 13.875 49.015625 6.21875 
Q 42.328125 -1.421875 30.609375 -1.421875 
Q 18.84375 -1.421875 12.171875 6.21875 
Q 5.515625 13.875 5.515625 27.296875 
Q 5.515625 40.765625 12.171875 48.375 
Q 18.84375 56 30.609375 56 
z
" id="DejaVuSans-111"/>
       <path d="M 37.109375 75.984375 
L 37.109375 68.5 
L 28.515625 68.5 
Q 23.6875 68.5 21.796875 66.546875 
Q 19.921875 64.59375 19.921875 59.515625 
L 19.921875 54.6875 
L 34.71875 54.6875 
L 34.71875 47.703125 
L 19.921875 47.703125 
L 19.921875 0 
L 10.890625 0 
L 10.890625 47.703125 
L 2.296875 47.703125 
L 2.296875 54.6875 
L 10.890625 54.6875 
L 10.890625 58.5 
Q 10.890625 67.625 15.140625 71.796875 
Q 19.390625 75.984375 28.609375 75.984375 
z
" id="DejaVuSans-102"/>
       <path d="M 18.109375 8.203125 
L 18.109375 -20.796875 
L 9.078125 -20.796875 
L 9.078125 54.6875 
L 18.109375 54.6875 
L 18.109375 46.390625 
Q 20.953125 51.265625 25.265625 53.625 
Q 29.59375 56 35.59375 56 
Q 45.5625 56 51.78125 48.09375 
Q 58.015625 40.1875 58.015625 27.296875 
Q 58.015625 14.40625 51.78125 6.484375 
Q 45.5625 -1.421875 35.59375 -1.421875 
Q 29.59375 -1.421875 25.265625 0.953125 
Q 20.953125 3.328125 18.109375 8.203125 
z
M 48.6875 27.296875 
Q 48.6875 37.203125 44.609375 42.84375 
Q 40.53125 48.484375 33.40625 48.484375 
Q 26.265625 48.484375 22.1875 42.84375 
Q 18.109375 37.203125 18.109375 27.296875 
Q 18.109375 17.390625 22.1875 11.75 
Q 26.265625 6.109375 33.40625 6.109375 
Q 40.53125 6.109375 44.609375 11.75 
Q 48.6875 17.390625 48.6875 27.296875 
z
" id="DejaVuSans-112"/>
       <path d="M 9.421875 54.6875 
L 18.40625 54.6875 
L 18.40625 0 
L 9.421875 0 
z
M 9.421875 75.984375 
L 18.40625 75.984375 
L 18.40625 64.59375 
L 9.421875 64.59375 
z
" id="DejaVuSans-105"/>
       <path d="M 4.890625 31.390625 
L 31.203125 31.390625 
L 31.203125 23.390625 
L 4.890625 23.390625 
z
" id="DejaVuSans-45"/>
       <path d="M 44.28125 53.078125 
L 44.28125 44.578125 
Q 40.484375 46.53125 36.375 47.5 
Q 32.28125 48.484375 27.875 48.484375 
Q 21.1875 48.484375 17.84375 46.4375 
Q 14.5 44.390625 14.5 40.28125 
Q 14.5 37.15625 16.890625 35.375 
Q 19.28125 33.59375 26.515625 31.984375 
L 29.59375 31.296875 
Q 39.15625 29.25 43.1875 25.515625 
Q 47.21875 21.78125 47.21875 15.09375 
Q 47.21875 7.46875 41.1875 3.015625 
Q 35.15625 -1.421875 24.609375 -1.421875 
Q 20.21875 -1.421875 15.453125 -0.5625 
Q 10.6875 0.296875 5.421875 2 
L 5.421875 11.28125 
Q 10.40625 8.6875 15.234375 7.390625 
Q 20.0625 6.109375 24.8125 6.109375 
Q 31.15625 6.109375 34.5625 8.28125 
Q 37.984375 10.453125 37.984375 14.40625 
Q 37.984375 18.0625 35.515625 20.015625 
Q 33.0625 21.96875 24.703125 23.78125 
L 21.578125 24.515625 
Q 13.234375 26.265625 9.515625 29.90625 
Q 5.8125 33.546875 5.8125 39.890625 
Q 5.8125 47.609375 11.28125 51.796875 
Q 16.75 56 26.8125 56 
Q 31.78125 56 36.171875 55.265625 
Q 40.578125 54.546875 44.28125 53.078125 
z
" id="DejaVuSans-115"/>
       <path d="M 18.3125 70.21875 
L 18.3125 54.6875 
L 36.8125 54.6875 
L 36.8125 47.703125 
L 18.3125 47.703125 
L 18.3125 18.015625 
Q 18.3125 11.328125 20.140625 9.421875 
Q 21.96875 7.515625 27.59375 7.515625 
L 36.8125 7.515625 
L 36.8125 0 
L 27.59375 0 
Q 17.1875 0 13.234375 3.875 
Q 9.28125 7.765625 9.28125 18.015625 
L 9.28125 47.703125 
L 2.6875 47.703125 
L 2.6875 54.6875 
L 9.28125 54.6875 
L 9.28125 70.21875 
z
" id="DejaVuSans-116"/>
       <path d="M 54.890625 33.015625 
L 54.890625 0 
L 45.90625 0 
L 45.90625 32.71875 
Q 45.90625 40.484375 42.875 44.328125 
Q 39.84375 48.1875 33.796875 48.1875 
Q 26.515625 48.1875 22.3125 43.546875 
Q 18.109375 38.921875 18.109375 30.90625 
L 18.109375 0 
L 9.078125 0 
L 9.078125 75.984375 
L 18.109375 75.984375 
L 18.109375 46.1875 
Q 21.34375 51.125 25.703125 53.5625 
Q 30.078125 56 35.796875 56 
Q 45.21875 56 50.046875 50.171875 
Q 54.890625 44.34375 54.890625 33.015625 
z
" id="DejaVuSans-104"/>
      </defs>
      <use xlink:href="#DejaVuSans-78"/>
      <use x="74.804688" xlink:href="#DejaVuSans-117"/>
      <use x="138.183594" xlink:href="#DejaVuSans-109"/>
      <use x="235.595703" xlink:href="#DejaVuSans-98"/>
      <use x="299.072266" xlink:href="#DejaVuSans-101"/>
      <use x="360.595703" xlink:href="#DejaVuSans-114"/>
      <use x="401.708984" xlink:href="#DejaVuSans-32"/>
      <use x="433.496094" xlink:href="#DejaVuSans-111"/>
      <use x="494.677734" xlink:href="#DejaVuSans-102"/>
      <use x="529.882812" xlink:href="#DejaVuSans-32"/>
      <use x="561.669922" xlink:href="#DejaVuSans-112"/>
      <use x="625.146484" xlink:href="#DejaVuSans-105"/>
      <use x="652.929688" xlink:href="#DejaVuSans-112"/>
      <use x="716.40625" xlink:href="#DejaVuSans-45"/>
      <use x="752.490234" xlink:href="#DejaVuSans-105"/>
      <use x="780.273438" xlink:href="#DejaVuSans-110"/>
      <use x="843.652344" xlink:href="#DejaVuSans-115"/>
      <use x="895.751953" xlink:href="#DejaVuSans-116"/>
      <use x="934.960938" xlink:href="#DejaVuSans-97"/>
      <use x="996.240234" xlink:href="#DejaVuSans-108"/>
      <use x="1024.023438" xlink:href="#DejaVuSans-108"/>
      <use x="1051.806641" xlink:href="#DejaVuSans-115"/>
      <use x="1103.90625" xlink:href="#DejaVuSans-32"/>
      <use x="1135.693359" xlink:href="#DejaVuSans-112"/>
      <use x="1199.169922" xlink:href="#DejaVuSans-101"/>
      <use x="1260.693359" xlink:href="#DejaVuSans-114"/>
      <use x="1301.806641" xlink:href="#DejaVuSans-32"/>
      <use x="1333.59375" xlink:href="#DejaVuSans-109"/>
      <use x="1431.005859" xlink:href="#DejaVuSans-111"/>
      <use x="1492.1875" xlink:href="#DejaVuSans-110"/>
      <use x="1555.566406" xlink:href="#DejaVuSans-116"/>
      <use x="1594.775391" xlink:href="#DejaVuSans-104"/>
     </g>
    </g>
   </g>
   <g id="line2d_89">
    <path clip-path="url(#p34fccc9011)" d="M -1 284.145958 
L 1.043478 270.412021 
L 5.086957 250.183244 
L 9.130435 236.125324 
L 13.173913 227.704008 
L 17.217391 215.645707 
L 21.26087 211.323649 
L 25.304348 213.790941 
L 29.347826 226.48948 
L 33.391304 241.703666 
L 37.434783 245.826218 
L 41.478261 245.194219 
L 45.521739 242.252773 
L 49.565217 241.299571 
L 53.608696 240.901874 
L 57.652174 233.348439 
L 61.695652 223.227882 
L 65.73913 211.93888 
L 69.782609 207.989519 
L 73.826087 211.404815 
L 77.869565 220.168063 
L 81.913043 215.074758 
L 85.956522 212.869381 
L 90 207.289734 
L 94.043478 216.033679 
L 98.086957 211.001585 
L 102.130435 213.04233 
L 106.173913 210.92171 
L 110.217391 216.328641 
L 114.26087 216.527224 
L 118.304348 210.92171 
L 122.347826 209.639171 
L 126.391304 212.998981 
L 130.434783 219.096537 
L 134.478261 220.987924 
L 138.521739 221.28734 
L 142.565217 220.28356 
L 146.608696 218.068853 
L 150.652174 216.677199 
L 154.695652 222.968904 
L 158.73913 221.408112 
L 162.782609 220.928467 
L 166.826087 218.876661 
L 170.869565 223.162887 
L 174.913043 226.712776 
L 178.956522 229.981874 
L 183 236.016811 
L 187.043478 240.252726 
L 191.086957 243.243576 
L 195.130435 236.786432 
L 199.173913 234.240391 
L 203.217391 230.067173 
L 207.26087 232.96196 
L 211.304348 232.866262 
L 215.347826 235.375398 
L 219.391304 220.987924 
L 223.434783 221.773954 
L 227.478261 219.824723 
L 231.521739 231.382692 
L 235.565217 228.817131 
L 239.608696 223.887255 
L 243.652174 225.687301 
L 247.695652 228.817131 
L 251.73913 242.672627 
L 255.782609 235.06073 
L 259.826087 227.704008 
L 263.869565 223.555405 
L 271.956522 229.062213 
L 276 231.203258 
L 280.043478 231.382692 
L 284.086957 234.240391 
L 288.130435 231.836966 
L 292.173913 213.260203 
L 296.217391 208.34686 
L 300.26087 204.701738 
L 304.304348 214.88729 
L 308.347826 216.777682 
L 312.391304 224.291349 
L 316.434783 228.817131 
L 320.478261 215.02776 
L 324.521739 202.813429 
L 328.565217 194.693202 
L 332.608696 196.244885 
L 336.652174 200.419174 
L 340.695652 203.103844 
L 344.73913 200.949725 
L 348.782609 195.07223 
L 352.826087 188.763761 
L 356.869565 186.207977 
L 360.913043 182.513005 
L 364.956522 184.202986 
L 369 185.28588 
L 373.043478 184.299524 
L 377.086957 181.356094 
L 381.130435 185.750016 
L 385.173913 194.945251 
L 389.217391 191.757646 
L 393.26087 178.65535 
L 397.304348 172.612183 
L 401.347826 170.547449 
L 405.391304 170.056734 
L 409.434783 171.343193 
L 413.478261 168.543487 
L 417.521739 170.885401 
L 421.565217 171.178736 
L 425.608696 178.832569 
L 429.652174 181.852566 
L 433.695652 173.848239 
L 437.73913 169.814925 
L 441.782609 163.894666 
L 445.826087 168.937691 
L 449.869565 166.435311 
L 453.913043 165.004355 
L 457.956522 164.228049 
L 462 167.545184 
L 466.043478 151.592933 
L 470.086957 150.389494 
L 474.130435 152.120849 
L 478.173913 172.917738 
L 482.217391 163.032612 
L 486.26087 155.152187 
L 490.304348 148.485921 
L 494.347826 146.865501 
L 498.391304 148.336915 
L 502.434783 152.294162 
L 506.478261 157.354904 
L 510.521739 154.63784 
L 514.565217 151.208778 
L 518.608696 144.801182 
L 522.652174 142.534747 
L 526.695652 140.842514 
L 530.73913 145.8854 
L 534.782609 145.022993 
L 538.826087 148.129781 
L 542.869565 147.166201 
L 546.913043 154.371966 
L 550.956522 159.717506 
L 555 153.639702 
L 559.043478 150.457654 
L 563.086957 144.055221 
L 567.130435 145.407858 
L 571.173913 142.981571 
L 575.217391 138.932622 
L 579.26087 138.362439 
L 583.304348 137.485667 
L 587.347826 143.045675 
L 591.391304 142.689837 
L 595.434783 144.038522 
L 599.478261 142.875094 
L 603.521739 142.253309 
L 607.565217 141.480147 
L 611.608696 135.543624 
L 615.652174 132.975386 
L 619.695652 131.140114 
L 623.73913 136.276362 
L 627.782609 144.055221 
L 631.826087 148.914657 
L 635.869565 148.37987 
L 639.913043 145.208858 
L 643.956522 142.994913 
L 648 149.033175 
L 648 149.033175 
" style="fill:none;stroke:#1f77b4;stroke-dasharray:1.5,2.475;stroke-dashoffset:0;stroke-width:1.5;"/>
   </g>
   <g id="line2d_90">
    <path clip-path="url(#p34fccc9011)" d="M -1 249.544668 
L 1.043478 228.655062 
L 5.086957 218.713008 
L 9.130435 203.338619 
L 13.173913 203.338619 
L 17.217391 198.916324 
L 21.26087 203.605389 
L 25.304348 202.58349 
L 29.347826 206.143089 
L 33.391304 207.567313 
L 37.434783 185.676927 
L 41.478261 185.114016 
L 45.521739 186.628919 
L 49.565217 215.311079 
L 53.608696 219.881621 
L 57.652174 216.929163 
L 61.695652 214.934026 
L 65.73913 211.001585 
L 69.782609 210.098008 
L 73.826087 209.412857 
L 77.869565 214.1511 
L 81.913043 217.963081 
L 85.956522 228.254405 
L 90 226.415487 
L 94.043478 225.049506 
L 98.086957 219.598409 
L 102.130435 218.76744 
L 106.173913 220.053094 
L 110.217391 221.958892 
L 114.26087 226.341711 
L 118.304348 227.013626 
L 122.347826 225.687301 
L 126.391304 223.227882 
L 130.434783 220.399591 
L 138.521739 222.332904 
L 142.565217 224.564403 
L 146.608696 223.820533 
L 150.652174 224.359335 
L 154.695652 224.223547 
L 158.73913 222.522019 
L 162.782609 218.22835 
L 166.826087 217.440804 
L 170.869565 213.39184 
L 174.913043 215.887486 
L 178.956522 213.970375 
L 183 216.427736 
L 187.043478 215.406233 
L 191.086957 220.750935 
L 195.130435 224.909947 
L 199.173913 228.017043 
L 203.217391 226.862751 
L 207.26087 226.121675 
L 211.304348 221.958892 
L 215.347826 219.938649 
L 219.391304 217.081564 
L 223.434783 221.047522 
L 227.478261 223.621425 
L 231.521739 231.745451 
L 235.565217 234.039424 
L 239.608696 226.862751 
L 243.652174 218.604495 
L 247.695652 216.328641 
L 251.73913 216.677199 
L 255.782609 217.440804 
L 259.826087 215.216283 
L 263.869565 218.658693 
L 267.913043 217.389168 
L 271.956522 220.225745 
L 276 212.82633 
L 280.043478 216.627108 
L 284.086957 216.033679 
L 288.130435 225.049506 
L 292.173913 227.704008 
L 296.217391 227.394827 
L 300.26087 219.262716 
L 304.304348 218.93145 
L 308.347826 218.821991 
L 312.391304 230.760201 
L 316.434783 234.647212 
L 320.478261 219.938649 
L 324.521739 206.70987 
L 328.565217 195.586665 
L 332.608696 198.257464 
L 336.652174 199.796959 
L 340.695652 205.783047 
L 344.73913 201.1111 
L 348.782609 197.591977 
L 352.826087 195.630013 
L 356.869565 195.521781 
L 360.913043 197.85132 
L 364.956522 196.67086 
L 369 199.567545 
L 373.043478 201.464344 
L 381.130435 214.654905 
L 385.173913 216.279239 
L 389.217391 205.718136 
L 393.26087 198.20934 
L 397.304348 197.946294 
L 401.347826 203.338619 
L 405.391304 204.889206 
L 409.434783 203.427228 
L 413.478261 202.958217 
L 417.521739 204.02608 
L 421.565217 197.827632 
L 425.608696 198.523806 
L 429.652174 200.736158 
L 433.695652 207.847994 
L 437.73913 204.701738 
L 441.782609 200.132078 
L 445.826087 196.244885 
L 449.869565 191.720485 
L 453.913043 192.97678 
L 457.956522 193.133418 
L 462 194.443657 
L 466.043478 191.664847 
L 470.086957 190.488656 
L 474.130435 195.263911 
L 478.173913 198.450887 
L 482.217391 205.978793 
L 486.26087 207.015189 
L 490.304348 207.255251 
L 494.347826 205.460155 
L 498.391304 202.3273 
L 506.478261 202.698196 
L 510.521739 197.521709 
L 514.565217 193.370221 
L 518.608696 192.283753 
L 522.652174 195.782326 
L 530.73913 209.829335 
L 534.782609 217.752865 
L 538.826087 212.231227 
L 542.869565 203.875023 
L 546.913043 199.139841 
L 550.956522 202.726955 
L 555 206.011567 
L 559.043478 210.020951 
L 563.086957 199.089999 
L 567.130435 198.793002 
L 571.173913 197.662442 
L 575.217391 202.355636 
L 579.26087 201.989727 
L 583.304348 202.270721 
L 587.347826 204.952008 
L 591.391304 205.815566 
L 595.434783 206.441555 
L 599.478261 204.330946 
L 603.521739 194.505811 
L 607.565217 196.53556 
L 611.608696 199.340207 
L 615.652174 217.081564 
L 619.695652 212.022061 
L 623.73913 212.399823 
L 627.782609 207.567313 
L 631.826087 211.202391 
L 635.869565 205.332151 
L 639.913043 204.732885 
L 643.956522 206.110144 
L 648 218.821991 
L 648 218.821991 
" style="fill:none;stroke:#ff7f0e;stroke-dasharray:1.5,2.475;stroke-dashoffset:0;stroke-width:1.5;"/>
   </g>
   <g id="line2d_91">
    <path clip-path="url(#p34fccc9011)" d="M -1 246.417683 
L 1.043478 228.735966 
L 5.086957 217.910362 
L 9.130435 205.913375 
L 13.173913 206.642522 
L 17.217391 202.66947 
L 21.26087 205.783047 
L 25.304348 204.392366 
L 29.347826 205.078084 
L 33.391304 207.42814 
L 37.434783 185.458927 
L 41.478261 186.85736 
L 45.521739 187.744888 
L 49.565217 219.995806 
L 53.608696 223.358379 
L 57.652174 224.771158 
L 61.695652 225.189846 
L 65.73913 220.928467 
L 69.782609 219.542148 
L 73.826087 217.030661 
L 77.869565 221.835449 
L 81.913043 225.976047 
L 85.956522 237.928477 
L 90 238.75997 
L 94.043478 234.34148 
L 98.086957 224.633132 
L 102.130435 222.27018 
L 106.173913 222.522019 
L 110.217391 224.771158 
L 114.26087 227.471767 
L 118.304348 230.67252 
L 122.347826 233.154456 
L 126.391304 232.206394 
L 130.434783 232.206394 
L 134.478261 233.939541 
L 138.521739 235.375398 
L 142.565217 232.113526 
L 146.608696 232.021001 
L 150.652174 234.34148 
L 154.695652 239.74522 
L 158.73913 239.61993 
L 162.782609 236.125324 
L 166.826087 227.471767 
L 170.869565 221.590367 
L 174.913043 219.938649 
L 178.956522 222.648891 
L 183 228.413902 
L 187.043478 233.740957 
L 191.086957 238.04559 
L 195.130435 236.675032 
L 199.173913 232.487075 
L 203.217391 232.299606 
L 207.26087 231.563417 
L 211.304348 228.89856 
L 219.391304 222.712568 
L 223.434783 226.938075 
L 227.478261 232.581336 
L 235.565217 245.826218 
L 239.608696 242.956479 
L 243.652174 247.30918 
L 247.695652 232.299606 
L 251.73913 225.831259 
L 255.782609 217.081564 
L 259.826087 214.470532 
L 263.869565 217.389168 
L 267.913043 222.840409 
L 271.956522 231.114019 
L 276 228.095914 
L 280.043478 231.745451 
L 284.086957 236.675032 
L 288.130435 242.956479 
L 292.173913 244.425943 
L 296.217391 240.901874 
L 300.26087 241.568244 
L 304.304348 244.425943 
L 308.347826 250.374276 
L 312.391304 260.368796 
L 316.434783 261.24012 
L 320.478261 224.909947 
L 324.521739 218.281741 
L 328.565217 204.764072 
L 332.608696 214.060575 
L 336.652174 215.597629 
L 340.695652 230.585144 
L 344.73913 219.262716 
L 348.782609 211.041618 
L 352.826087 208.636439 
L 356.869565 211.608883 
L 360.913043 217.648413 
L 364.956522 215.74214 
L 369 213.970375 
L 373.043478 211.814623 
L 377.086957 213.83568 
L 381.130435 219.430002 
L 385.173913 225.687301 
L 389.217391 228.735966 
L 393.26087 219.938649 
L 397.304348 216.328641 
L 401.347826 213.790941 
L 405.391304 214.794078 
L 409.434783 215.645707 
L 413.478261 215.406233 
L 417.521739 217.492545 
L 421.565217 210.136626 
L 425.608696 211.855974 
L 429.652174 214.196486 
L 433.695652 223.555405 
L 437.73913 220.809973 
L 441.782609 217.389168 
L 445.826087 208.382876 
L 449.869565 205.014967 
L 453.913043 203.965548 
L 457.956522 207.015189 
L 466.043478 209.450434 
L 470.086957 209.225807 
L 474.130435 216.577116 
L 478.173913 217.234895 
L 482.217391 229.643543 
L 486.26087 233.348439 
L 490.304348 236.898329 
L 494.347826 234.749955 
L 498.391304 231.472892 
L 502.434783 232.866262 
L 506.478261 235.06073 
L 510.521739 225.26031 
L 514.565217 220.225745 
L 518.608696 218.121906 
L 522.652174 223.687619 
L 526.695652 231.745451 
L 530.73913 237.237039 
L 534.782609 240.510376 
L 538.826087 234.95671 
L 542.869565 231.472892 
L 546.913043 228.334027 
L 550.956522 228.494032 
L 555 227.165413 
L 559.043478 229.7277 
L 563.086957 229.392753 
L 567.130435 232.206394 
L 571.173913 233.939541 
L 575.217391 237.237039 
L 579.26087 238.281467 
L 583.304348 234.95671 
L 587.347826 233.154456 
L 591.391304 229.144441 
L 595.434783 220.225745 
L 599.478261 208.636439 
L 603.521739 198.499476 
L 607.565217 196.603118 
L 611.608696 197.803967 
L 615.652174 198.719299 
L 619.695652 196.580579 
L 623.73913 198.017761 
L 627.782609 200.36673 
L 631.826087 200.498046 
L 635.869565 197.615443 
L 639.913043 196.67086 
L 643.956522 198.817618 
L 648 208.274984 
L 648 208.274984 
" style="fill:none;stroke:#2ca02c;stroke-dasharray:1.5,2.475;stroke-dashoffset:0;stroke-width:1.5;"/>
   </g>
   <g id="line2d_92">
    <path clip-path="url(#p34fccc9011)" d="M 191.084959 361 
L 191.086957 332.412316 
L 195.130435 300.234409 
L 199.173913 287.402131 
L 203.217391 283.529764 
L 207.26087 287.402131 
L 211.304348 281.463889 
L 215.347826 280.811367 
L 219.391304 265.76112 
L 223.434783 258.446058 
L 227.478261 254.310645 
L 231.521739 258.980561 
L 235.565217 266.117448 
L 239.608696 269.574588 
L 243.652174 266.117448 
L 247.695652 243.533991 
L 251.73913 222.020842 
L 255.782609 222.904574 
L 259.826087 225.976047 
L 263.869565 249.249282 
L 267.913043 243.388364 
L 271.956522 243.388364 
L 276 219.486012 
L 280.043478 214.241953 
L 284.086957 215.216283 
L 288.130435 221.047522 
L 292.173913 229.226939 
L 296.217391 229.144441 
L 300.26087 245.508231 
L 304.304348 242.252773 
L 308.347826 241.568244 
L 312.391304 247.30918 
L 316.434783 258.711888 
L 320.478261 221.047522 
L 324.521739 209.563506 
L 328.565217 196.580579 
L 332.608696 201.65663 
L 336.652174 205.524402 
L 340.695652 212.484547 
L 344.73913 204.423132 
L 352.826087 191.406819 
L 356.869565 190.71953 
L 360.913043 186.720046 
L 369 167.996015 
L 373.043478 160.49814 
L 377.086957 154.059075 
L 381.130435 159.999529 
L 385.173913 164.34641 
L 389.217391 170.245553 
L 393.26087 156.683238 
L 397.304348 151.357268 
L 401.347826 147.604862 
L 405.391304 145.205943 
L 409.434783 141.379835 
L 413.478261 139.414007 
L 421.565217 140.494607 
L 425.608696 145.005639 
L 429.652174 151.694614 
L 433.695652 155.894897 
L 437.73913 157.114963 
L 441.782609 154.439224 
L 445.826087 153.729565 
L 449.869565 151.77777 
L 453.913043 147.739902 
L 457.956522 151.268069 
L 462 146.271648 
L 466.043478 147.878914 
L 470.086957 143.610938 
L 474.130435 150.182562 
L 478.173913 143.203962 
L 482.217391 137.464242 
L 486.26087 129.408077 
L 490.304348 122.498382 
L 494.347826 102.816914 
L 498.391304 99.256117 
L 502.434783 99.222449 
L 506.478261 112.384144 
L 510.521739 110.378396 
L 514.565217 110.133342 
L 518.608696 112.185287 
L 522.652174 116.73356 
L 526.695652 118.551429 
L 530.73913 122.061938 
L 534.782609 124.35848 
L 538.826087 116.559643 
L 542.869565 105.22039 
L 546.913043 102.957494 
L 550.956522 106.965872 
L 555 112.746582 
L 559.043478 113.397818 
L 563.086957 110.021761 
L 571.173913 104.786291 
L 575.217391 102.159167 
L 579.26087 101.566892 
L 583.304348 102.83903 
L 587.347826 109.398891 
L 591.391304 114.712515 
L 595.434783 116.798385 
L 599.478261 111.418143 
L 603.521739 108.300732 
L 607.565217 105.377518 
L 611.608696 106.449681 
L 615.652174 106.842155 
L 619.695652 113.400283 
L 623.73913 120.264842 
L 627.782609 126.360522 
L 631.826087 124.94356 
L 639.913043 115.288738 
L 643.956522 112.244857 
L 648 117.39717 
L 648 117.39717 
" style="fill:none;stroke:#d62728;stroke-linecap:square;stroke-width:1.5;"/>
   </g>
   <g id="line2d_93">
    <path clip-path="url(#p34fccc9011)" d="M 310.082915 361 
L 312.391304 345.244595 
L 316.434783 355.430147 
L 320.478261 355.430147 
L 324.521739 323.959911 
L 328.565217 317.646726 
L 332.608696 201.546572 
L 336.652174 195.199855 
L 340.695652 184.563443 
L 344.73913 180.665156 
L 348.782609 172.672997 
L 352.826087 171.09691 
L 356.869565 173.967013 
L 360.913043 177.49075 
L 364.956522 170.974668 
L 369 163.711347 
L 373.043478 154.405572 
L 377.086957 146.44864 
L 381.130435 150.969339 
L 385.173913 153.271375 
L 389.217391 160.110065 
L 393.26087 148.887646 
L 397.304348 145.072229 
L 401.347826 142.989575 
L 405.391304 141.392352 
L 409.434783 136.51856 
L 413.478261 133.582699 
L 417.521739 133.25818 
L 421.565217 136.182575 
L 425.608696 137.109122 
L 429.652174 142.864471 
L 433.695652 146.14728 
L 437.73913 149.01621 
L 445.826087 138.909928 
L 449.869565 133.809419 
L 453.913043 130.585202 
L 457.956522 132.188979 
L 462 131.105174 
L 466.043478 134.565013 
L 470.086957 133.348914 
L 474.130435 142.537367 
L 478.173913 137.933316 
L 482.217391 134.002728 
L 486.26087 124.352126 
L 490.304348 115.792484 
L 494.347826 99.147792 
L 498.391304 96.760188 
L 502.434783 97.954053 
L 506.478261 111.2773 
L 510.521739 109.267504 
L 514.565217 109.159 
L 518.608696 111.131236 
L 522.652174 115.437111 
L 526.695652 116.810617 
L 530.73913 119.742244 
L 534.782609 121.595344 
L 538.826087 115.12715 
L 542.869565 104.146049 
L 546.913043 102.366443 
L 550.956522 106.285724 
L 555 112.449726 
L 559.043478 113.194881 
L 563.086957 109.80933 
L 575.217391 102.066892 
L 579.26087 101.423658 
L 583.304348 102.452386 
L 587.347826 109.146511 
L 591.391304 115.12451 
L 595.434783 117.785517 
L 599.478261 111.748341 
L 603.521739 108.183628 
L 607.565217 105.010639 
L 611.608696 106.068767 
L 615.652174 106.383721 
L 619.695652 113.179401 
L 623.73913 120.251886 
L 627.782609 126.433582 
L 631.826087 124.784047 
L 639.913043 115.575611 
L 643.956522 112.504376 
L 648 117.583798 
L 648 117.583798 
" style="fill:none;stroke:#9467bd;stroke-linecap:square;stroke-width:1.5;"/>
   </g>
   <g id="line2d_94">
    <path clip-path="url(#p34fccc9011)" d="M 356.866744 361 
L 356.869565 320.605514 
L 360.913043 284.25795 
L 364.956522 229.226939 
L 369 219.486012 
L 373.043478 217.337638 
L 377.086957 224.840457 
L 381.130435 238.519579 
L 385.173913 245.038672 
L 389.217391 285.780881 
L 393.26087 274.569853 
L 397.304348 259.252138 
L 401.347826 221.651414 
L 405.391304 205.14136 
L 409.434783 195.60833 
L 413.478261 192.170084 
L 417.521739 188.354487 
L 425.608696 192.85994 
L 429.652174 203.162333 
L 433.695652 198.041629 
L 437.73913 201.933903 
L 441.782609 202.101748 
L 445.826087 214.287503 
L 449.869565 216.229935 
L 453.913043 214.88729 
L 457.956522 212.147352 
L 462 192.245806 
L 466.043478 187.320569 
L 470.086957 178.066302 
L 474.130435 185.618609 
L 478.173913 189.07933 
L 482.217391 206.508366 
L 486.26087 199.925322 
L 490.304348 196.400984 
L 494.347826 192.589407 
L 498.391304 197.54511 
L 502.434783 202.073696 
L 506.478261 205.046506 
L 510.521739 201.084132 
L 514.565217 196.468182 
L 518.608696 195.135961 
L 522.652174 195.54339 
L 526.695652 200.236097 
L 530.73913 206.947018 
L 534.782609 202.900201 
L 538.826087 200.158042 
L 542.869565 191.794862 
L 546.913043 189.86017 
L 550.956522 183.125258 
L 555 179.577107 
L 559.043478 182.993736 
L 563.086957 187.808364 
L 567.130435 196.111854 
L 571.173913 200.080229 
L 575.217391 198.817618 
L 579.26087 189.398914 
L 583.304348 183.942807 
L 587.347826 187.840162 
L 591.391304 189.894677 
L 595.434783 188.550106 
L 599.478261 184.368708 
L 603.521739 185.516876 
L 607.565217 190.50634 
L 611.608696 194.196567 
L 615.652174 197.127197 
L 619.695652 193.850631 
L 623.73913 194.361023 
L 627.782609 199.01542 
L 631.826087 199.390549 
L 635.869565 197.26573 
L 639.913043 194.693202 
L 643.956522 197.451638 
L 648 206.98108 
L 648 206.98108 
" style="fill:none;stroke:#8c564b;stroke-linecap:square;stroke-width:1.5;"/>
   </g>
   <g id="line2d_95">
    <path clip-path="url(#p34fccc9011)" d="M 243.651785 361 
L 243.652174 355.430147 
L 247.695652 327.832278 
L 251.73913 310.419962 
L 255.782609 315 
L 259.826087 327.832278 
L 263.869565 355.430147 
L 267.913043 355.430147 
L 271.956522 338.01783 
L 276 355.430147 
L 280.043478 355.430147 
L 280.043868 361 
M 304.303959 361 
L 304.304348 355.430147 
L 308.347826 345.244595 
L 312.391304 345.244595 
L 314.699694 361 
M 317.619165 361 
L 320.478261 332.412316 
L 324.521739 332.412316 
L 328.565217 327.832278 
L 332.608696 303.193197 
L 336.652174 297.587684 
L 340.695652 287.402131 
L 344.73913 296.362042 
L 348.782609 296.362042 
L 352.826087 304.814448 
L 356.869565 308.409236 
L 360.913043 308.409236 
L 364.956522 317.646726 
L 369 323.959911 
L 373.043478 312.605745 
L 377.086957 308.409236 
L 381.130435 312.605745 
L 385.173913 320.605514 
L 389.217391 315 
L 393.26087 308.409236 
L 397.304348 277.781112 
L 401.347826 274.569853 
L 405.391304 275.077359 
L 409.434783 296.362042 
L 413.478261 304.814448 
L 417.521739 306.547594 
L 421.565217 304.814448 
L 425.608696 294.076771 
L 429.652174 290.996919 
L 433.695652 290.048857 
L 437.73913 298.876205 
L 441.782609 275.077359 
L 445.826087 275.595329 
L 449.869565 274.072398 
L 453.913043 281.463889 
L 457.956522 278.949726 
L 462 257.922692 
L 466.043478 248.705131 
L 470.086957 246.148282 
L 474.130435 253.429128 
L 478.173913 252.787714 
L 482.217391 255.224224 
L 486.26087 260.084943 
L 490.304348 287.402131 
L 494.347826 297.587684 
L 498.391304 278.358624 
L 502.434783 262.142756 
L 506.478261 257.665042 
L 510.521739 248.885208 
L 514.565217 239.495261 
L 518.608696 218.986358 
L 522.652174 211.323649 
L 526.695652 206.541838 
L 530.73913 211.445496 
L 534.782609 210.802372 
L 538.826087 215.263636 
L 542.869565 215.453945 
L 546.913043 224.633132 
L 550.956522 200.896163 
L 555 187.649973 
L 559.043478 180.677116 
L 563.086957 182.155228 
L 567.130435 184.74563 
L 571.173913 189.619944 
L 575.217391 193.769922 
L 579.26087 199.771364 
L 583.304348 194.299226 
L 587.347826 193.649342 
L 591.391304 190.102716 
L 595.434783 192.898826 
L 599.478261 190.033178 
L 603.521739 189.415848 
L 607.565217 185.647751 
L 611.608696 179.20208 
L 615.652174 172.327453 
L 619.695652 170.788378 
L 623.73913 174.682274 
L 627.782609 183.942807 
L 631.826087 185.487885 
L 635.869565 185.662335 
L 639.913043 181.590695 
L 643.956522 181.852566 
L 648 187.983755 
L 648 187.983755 
" style="fill:none;stroke:#e377c2;stroke-linecap:square;stroke-width:1.5;"/>
   </g>
   <g id="line2d_96">
    <path clip-path="url(#p34fccc9011)" d="M 271.956132 361 
L 271.956522 355.430147 
L 276 338.01783 
L 280.043478 338.01783 
L 284.086957 355.430147 
L 284.087346 361 
M 317.809808 361 
L 320.478261 338.01783 
L 324.521739 345.244595 
L 328.565217 338.01783 
L 331.233671 361 
M 335.358746 361 
L 336.652174 355.430147 
L 340.695652 345.244595 
L 344.73913 323.959911 
L 348.782609 327.832278 
L 352.826087 338.01783 
L 355.49454 361 
M 358.604654 361 
L 360.913043 345.244595 
L 369 345.244595 
L 373.043478 338.01783 
L 393.26087 338.01783 
L 395.929323 361 
M 398.221031 361 
L 401.347826 320.605514 
L 405.391304 320.605514 
L 409.434783 312.605745 
L 413.478261 308.409236 
L 417.521739 288.253761 
L 421.565217 277.781112 
L 425.608696 272.636541 
L 429.652174 262.142756 
L 433.695652 248.885208 
L 437.73913 248.885208 
L 441.782609 255.931895 
L 445.826087 285.007876 
L 449.869565 288.253761 
L 453.913043 277.781112 
L 457.956522 275.595329 
L 462 272.175598 
L 466.043478 276.664454 
L 470.086957 267.979089 
L 474.130435 273.1061 
L 478.173913 276.664454 
L 482.217391 293.007645 
L 486.26087 290.996919 
L 490.304348 278.949726 
L 494.347826 269.166113 
L 498.391304 269.574588 
L 502.434783 262.450989 
L 506.478261 266.845634 
L 510.521739 268.764174 
L 514.565217 290.048857 
L 518.608696 281.463889 
L 522.652174 272.175598 
L 526.695652 265.76112 
L 530.73913 269.989815 
L 534.782609 257.922692 
L 538.826087 265.063279 
L 542.869565 263.399051 
L 546.913043 269.166113 
L 550.956522 266.845634 
L 555 251.753796 
L 559.043478 250.956248 
L 563.086957 249.993653 
L 567.130435 263.079038 
L 571.173913 277.216579 
L 575.217391 269.989815 
L 579.26087 262.142756 
L 583.304348 241.166305 
L 587.347826 243.243576 
L 591.391304 233.740957 
L 595.434783 224.564403 
L 599.478261 213.524171 
L 603.521739 214.333135 
L 607.565217 220.516161 
L 611.608696 232.299606 
L 615.652174 242.114367 
L 619.695652 258.183012 
L 623.73913 276.124204 
L 627.782609 280.175367 
L 631.826087 294.076771 
L 635.869565 289.135278 
L 639.913043 267.979089 
L 643.956522 259.526683 
L 648 260.368796 
L 648 260.368796 
" style="fill:none;stroke:#7f7f7f;stroke-linecap:square;stroke-width:1.5;"/>
   </g>
   <g id="line2d_97">
    <path clip-path="url(#p34fccc9011)" d="M 445.82063 361 
L 445.826087 282.822093 
L 449.869565 255.693783 
L 453.913043 242.531895 
L 457.956522 235.694058 
L 462 236.786432 
L 466.043478 234.240391 
L 470.086957 238.163252 
L 474.130435 242.252773 
L 478.173913 171.692097 
L 482.217391 157.582844 
L 486.26087 146.098913 
L 490.304348 142.920292 
L 494.347826 131.318898 
L 498.391304 120.545013 
L 502.434783 117.175605 
L 506.478261 118.493999 
L 510.521739 116.548463 
L 514.565217 116.647386 
L 518.608696 120.773184 
L 522.652174 129.940491 
L 530.73913 140.598717 
L 534.782609 145.11285 
L 538.826087 128.09711 
L 542.869565 112.657076 
L 546.913043 109.927841 
L 550.956522 115.806949 
L 555 127.891455 
L 559.043478 135.363731 
L 563.086957 134.058767 
L 567.130435 129.037855 
L 571.173913 119.647233 
L 575.217391 116.16763 
L 579.26087 119.976015 
L 583.304348 122.978611 
L 587.347826 132.683344 
L 591.391304 134.420412 
L 595.434783 142.30519 
L 599.478261 131.938522 
L 603.521739 123.893794 
L 607.565217 122.556284 
L 611.608696 127.833004 
L 615.652174 135.342073 
L 619.695652 149.44382 
L 623.73913 165.463636 
L 627.782609 162.644504 
L 631.826087 147.321081 
L 635.869565 138.161269 
L 639.913043 133.37074 
L 643.956522 129.89767 
L 648 134.308726 
L 648 134.308726 
" style="fill:none;stroke:#bcbd22;stroke-linecap:square;stroke-width:1.5;"/>
   </g>
   <g id="line2d_98">
    <path clip-path="url(#p34fccc9011)" d="M 482.212797 361 
L 482.217391 295.193429 
L 486.26087 290.996919 
L 490.304348 288.253761 
L 494.347826 282.822093 
L 498.391304 280.811367 
L 502.434783 266.117448 
L 506.478261 271.278336 
L 510.521739 266.117448 
L 514.565217 247.823614 
L 518.608696 227.089405 
L 522.652174 179.157 
L 526.695652 162.697076 
L 530.73913 160.984989 
L 534.782609 149.237659 
L 538.826087 127.095187 
L 542.869565 112.505169 
L 546.913043 109.798649 
L 550.956522 115.339282 
L 555 126.691673 
L 559.043478 133.72439 
L 563.086957 132.526268 
L 567.130435 127.742673 
L 571.173913 118.749916 
L 575.217391 115.571131 
L 579.26087 119.230296 
L 583.304348 122.222528 
L 587.347826 131.509098 
L 591.391304 133.359825 
L 595.434783 140.686212 
L 599.478261 130.735479 
L 603.521739 123.036426 
L 607.565217 121.527118 
L 611.608696 126.408745 
L 615.652174 133.536866 
L 619.695652 147.024799 
L 623.73913 161.772849 
L 627.782609 157.962557 
L 631.826087 144.761062 
L 635.869565 135.762811 
L 639.913043 131.246897 
L 643.956522 127.725228 
L 648 132.473541 
L 648 132.473541 
" style="fill:none;stroke:#17becf;stroke-linecap:square;stroke-width:1.5;"/>
   </g>
   <g id="line2d_99">
    <path clip-path="url(#p34fccc9011)" d="M 498.386 361 
L 498.391304 285.007876 
L 502.434783 255.457907 
L 506.478261 247.140016 
L 510.521739 250.374276 
L 514.565217 269.989815 
L 518.608696 275.595329 
L 522.652174 273.584603 
L 526.695652 257.665042 
L 530.73913 264.721496 
L 534.782609 247.650963 
L 538.826087 256.172286 
L 542.869565 256.660082 
L 546.913043 264.051572 
L 550.956522 257.665042 
L 555 226.341711 
L 559.043478 216.279239 
L 563.086957 211.162101 
L 567.130435 217.648413 
L 571.173913 228.655062 
L 575.217391 236.343766 
L 579.26087 248.348804 
L 583.304348 256.172286 
L 587.347826 256.172286 
L 591.391304 245.350734 
L 595.434783 234.85312 
L 599.478261 234.039424 
L 603.521739 234.139706 
L 607.565217 219.374116 
L 611.608696 206.845109 
L 615.652174 196.089751 
L 619.695652 193.951883 
L 623.73913 196.445763 
L 627.782609 203.045492 
L 631.826087 206.308466 
L 635.869565 205.078084 
L 639.913043 195.00866 
L 643.956522 189.791299 
L 648 193.409906 
L 648 193.409906 
" style="fill:none;stroke:#1f77b4;stroke-linecap:square;stroke-width:1.5;"/>
   </g>
   <g id="patch_3">
    <path d="M 90 315 
L 90 43.2 
" style="fill:none;stroke:#000000;stroke-linecap:square;stroke-linejoin:miter;stroke-width:0.8;"/>
   </g>
   <g id="patch_4">
    <path d="M 648 315 
L 648 43.2 
" style="fill:none;stroke:#000000;stroke-linecap:square;stroke-linejoin:miter;stroke-width:0.8;"/>
   </g>
   <g id="patch_5">
    <path d="M 90 315 
L 648 315 
" style="fill:none;stroke:#000000;stroke-linecap:square;stroke-linejoin:miter;stroke-width:0.8;"/>
   </g>
   <g id="patch_6">
    <path d="M 90 43.2 
L 648 43.2 
" style="fill:none;stroke:#000000;stroke-linecap:square;stroke-linejoin:miter;stroke-width:0.8;"/>
   </g>
   <g id="legend_1">
    <g id="patch_7">
     <path d="M 97 212.659375 
L 211.015625 212.659375 
Q 213.015625 212.659375 213.015625 210.659375 
L 213.015625 50.2 
Q 213.015625 48.2 211.015625 48.2 
L 97 48.2 
Q 95 48.2 95 50.2 
L 95 210.659375 
Q 95 212.659375 97 212.659375 
z
" style="fill:#ffffff;opacity:0.8;stroke:#cccccc;stroke-linejoin:miter;"/>
    </g>
    <g id="line2d_100">
     <path d="M 99 56.298437 
L 119 56.298437 
" style="fill:none;stroke:#1f77b4;stroke-dasharray:1.5,2.475;stroke-dashoffset:0;stroke-width:1.5;"/>
    </g>
    <g id="line2d_101"/>
    <g id="text_15">
     <!-- iminuit -->
     <g transform="translate(127 59.798437)scale(0.1 -0.1)">
      <use xlink:href="#DejaVuSans-105"/>
      <use x="27.783203" xlink:href="#DejaVuSans-109"/>
      <use x="125.195312" xlink:href="#DejaVuSans-105"/>
      <use x="152.978516" xlink:href="#DejaVuSans-110"/>
      <use x="216.357422" xlink:href="#DejaVuSans-117"/>
      <use x="279.736328" xlink:href="#DejaVuSans-105"/>
      <use x="307.519531" xlink:href="#DejaVuSans-116"/>
     </g>
    </g>
    <g id="line2d_102">
     <path d="M 99 70.976562 
L 119 70.976562 
" style="fill:none;stroke:#ff7f0e;stroke-dasharray:1.5,2.475;stroke-dashoffset:0;stroke-width:1.5;"/>
    </g>
    <g id="line2d_103"/>
    <g id="text_16">
     <!-- root-numpy -->
     <g transform="translate(127 74.476562)scale(0.1 -0.1)">
      <defs>
       <path d="M 32.171875 -5.078125 
Q 28.375 -14.84375 24.75 -17.8125 
Q 21.140625 -20.796875 15.09375 -20.796875 
L 7.90625 -20.796875 
L 7.90625 -13.28125 
L 13.1875 -13.28125 
Q 16.890625 -13.28125 18.9375 -11.515625 
Q 21 -9.765625 23.484375 -3.21875 
L 25.09375 0.875 
L 2.984375 54.6875 
L 12.5 54.6875 
L 29.59375 11.921875 
L 46.6875 54.6875 
L 56.203125 54.6875 
z
" id="DejaVuSans-121"/>
      </defs>
      <use xlink:href="#DejaVuSans-114"/>
      <use x="38.863281" xlink:href="#DejaVuSans-111"/>
      <use x="100.044922" xlink:href="#DejaVuSans-111"/>
      <use x="161.226562" xlink:href="#DejaVuSans-116"/>
      <use x="200.435547" xlink:href="#DejaVuSans-45"/>
      <use x="236.519531" xlink:href="#DejaVuSans-110"/>
      <use x="299.898438" xlink:href="#DejaVuSans-117"/>
      <use x="363.277344" xlink:href="#DejaVuSans-109"/>
      <use x="460.689453" xlink:href="#DejaVuSans-112"/>
      <use x="524.166016" xlink:href="#DejaVuSans-121"/>
     </g>
    </g>
    <g id="line2d_104">
     <path d="M 99 85.654688 
L 119 85.654688 
" style="fill:none;stroke:#2ca02c;stroke-dasharray:1.5,2.475;stroke-dashoffset:0;stroke-width:1.5;"/>
    </g>
    <g id="line2d_105"/>
    <g id="text_17">
     <!-- rootpy -->
     <g transform="translate(127 89.154688)scale(0.1 -0.1)">
      <use xlink:href="#DejaVuSans-114"/>
      <use x="38.863281" xlink:href="#DejaVuSans-111"/>
      <use x="100.044922" xlink:href="#DejaVuSans-111"/>
      <use x="161.226562" xlink:href="#DejaVuSans-116"/>
      <use x="200.435547" xlink:href="#DejaVuSans-112"/>
      <use x="263.912109" xlink:href="#DejaVuSans-121"/>
     </g>
    </g>
    <g id="line2d_106">
     <path d="M 99 100.332812 
L 119 100.332812 
" style="fill:none;stroke:#d62728;stroke-linecap:square;stroke-width:1.5;"/>
    </g>
    <g id="line2d_107"/>
    <g id="text_18">
     <!-- uproot -->
     <g transform="translate(127 103.832812)scale(0.1 -0.1)">
      <use xlink:href="#DejaVuSans-117"/>
      <use x="63.378906" xlink:href="#DejaVuSans-112"/>
      <use x="126.855469" xlink:href="#DejaVuSans-114"/>
      <use x="165.71875" xlink:href="#DejaVuSans-111"/>
      <use x="226.900391" xlink:href="#DejaVuSans-111"/>
      <use x="288.082031" xlink:href="#DejaVuSans-116"/>
     </g>
    </g>
    <g id="line2d_108">
     <path d="M 99 115.010938 
L 119 115.010938 
" style="fill:none;stroke:#9467bd;stroke-linecap:square;stroke-width:1.5;"/>
    </g>
    <g id="line2d_109"/>
    <g id="text_19">
     <!-- awkward -->
     <g transform="translate(127 118.510938)scale(0.1 -0.1)">
      <defs>
       <path d="M 4.203125 54.6875 
L 13.1875 54.6875 
L 24.421875 12.015625 
L 35.59375 54.6875 
L 46.1875 54.6875 
L 57.421875 12.015625 
L 68.609375 54.6875 
L 77.59375 54.6875 
L 63.28125 0 
L 52.6875 0 
L 40.921875 44.828125 
L 29.109375 0 
L 18.5 0 
z
" id="DejaVuSans-119"/>
       <path d="M 9.078125 75.984375 
L 18.109375 75.984375 
L 18.109375 31.109375 
L 44.921875 54.6875 
L 56.390625 54.6875 
L 27.390625 29.109375 
L 57.625 0 
L 45.90625 0 
L 18.109375 26.703125 
L 18.109375 0 
L 9.078125 0 
z
" id="DejaVuSans-107"/>
       <path d="M 45.40625 46.390625 
L 45.40625 75.984375 
L 54.390625 75.984375 
L 54.390625 0 
L 45.40625 0 
L 45.40625 8.203125 
Q 42.578125 3.328125 38.25 0.953125 
Q 33.9375 -1.421875 27.875 -1.421875 
Q 17.96875 -1.421875 11.734375 6.484375 
Q 5.515625 14.40625 5.515625 27.296875 
Q 5.515625 40.1875 11.734375 48.09375 
Q 17.96875 56 27.875 56 
Q 33.9375 56 38.25 53.625 
Q 42.578125 51.265625 45.40625 46.390625 
z
M 14.796875 27.296875 
Q 14.796875 17.390625 18.875 11.75 
Q 22.953125 6.109375 30.078125 6.109375 
Q 37.203125 6.109375 41.296875 11.75 
Q 45.40625 17.390625 45.40625 27.296875 
Q 45.40625 37.203125 41.296875 42.84375 
Q 37.203125 48.484375 30.078125 48.484375 
Q 22.953125 48.484375 18.875 42.84375 
Q 14.796875 37.203125 14.796875 27.296875 
z
" id="DejaVuSans-100"/>
      </defs>
      <use xlink:href="#DejaVuSans-97"/>
      <use x="61.279297" xlink:href="#DejaVuSans-119"/>
      <use x="143.066406" xlink:href="#DejaVuSans-107"/>
      <use x="200.976562" xlink:href="#DejaVuSans-119"/>
      <use x="282.763672" xlink:href="#DejaVuSans-97"/>
      <use x="344.042969" xlink:href="#DejaVuSans-114"/>
      <use x="383.40625" xlink:href="#DejaVuSans-100"/>
     </g>
    </g>
    <g id="line2d_110">
     <path d="M 99 129.689062 
L 119 129.689062 
" style="fill:none;stroke:#8c564b;stroke-linecap:square;stroke-width:1.5;"/>
    </g>
    <g id="line2d_111"/>
    <g id="text_20">
     <!-- fast-carpenter -->
     <g transform="translate(127 133.189062)scale(0.1 -0.1)">
      <defs>
       <path d="M 48.78125 52.59375 
L 48.78125 44.1875 
Q 44.96875 46.296875 41.140625 47.34375 
Q 37.3125 48.390625 33.40625 48.390625 
Q 24.65625 48.390625 19.8125 42.84375 
Q 14.984375 37.3125 14.984375 27.296875 
Q 14.984375 17.28125 19.8125 11.734375 
Q 24.65625 6.203125 33.40625 6.203125 
Q 37.3125 6.203125 41.140625 7.25 
Q 44.96875 8.296875 48.78125 10.40625 
L 48.78125 2.09375 
Q 45.015625 0.34375 40.984375 -0.53125 
Q 36.96875 -1.421875 32.421875 -1.421875 
Q 20.0625 -1.421875 12.78125 6.34375 
Q 5.515625 14.109375 5.515625 27.296875 
Q 5.515625 40.671875 12.859375 48.328125 
Q 20.21875 56 33.015625 56 
Q 37.15625 56 41.109375 55.140625 
Q 45.0625 54.296875 48.78125 52.59375 
z
" id="DejaVuSans-99"/>
      </defs>
      <use xlink:href="#DejaVuSans-102"/>
      <use x="35.205078" xlink:href="#DejaVuSans-97"/>
      <use x="96.484375" xlink:href="#DejaVuSans-115"/>
      <use x="148.583984" xlink:href="#DejaVuSans-116"/>
      <use x="187.792969" xlink:href="#DejaVuSans-45"/>
      <use x="223.876953" xlink:href="#DejaVuSans-99"/>
      <use x="278.857422" xlink:href="#DejaVuSans-97"/>
      <use x="340.136719" xlink:href="#DejaVuSans-114"/>
      <use x="381.25" xlink:href="#DejaVuSans-112"/>
      <use x="444.726562" xlink:href="#DejaVuSans-101"/>
      <use x="506.25" xlink:href="#DejaVuSans-110"/>
      <use x="569.628906" xlink:href="#DejaVuSans-116"/>
      <use x="608.837891" xlink:href="#DejaVuSans-101"/>
      <use x="670.361328" xlink:href="#DejaVuSans-114"/>
     </g>
    </g>
    <g id="line2d_112">
     <path d="M 99 144.367188 
L 119 144.367188 
" style="fill:none;stroke:#e377c2;stroke-linecap:square;stroke-width:1.5;"/>
    </g>
    <g id="line2d_113"/>
    <g id="text_21">
     <!-- pyhf -->
     <g transform="translate(127 147.867188)scale(0.1 -0.1)">
      <use xlink:href="#DejaVuSans-112"/>
      <use x="63.476562" xlink:href="#DejaVuSans-121"/>
      <use x="122.65625" xlink:href="#DejaVuSans-104"/>
      <use x="186.035156" xlink:href="#DejaVuSans-102"/>
     </g>
    </g>
    <g id="line2d_114">
     <path d="M 99 159.045312 
L 119 159.045312 
" style="fill:none;stroke:#7f7f7f;stroke-linecap:square;stroke-width:1.5;"/>
    </g>
    <g id="line2d_115"/>
    <g id="text_22">
     <!-- zfit -->
     <g transform="translate(127 162.545312)scale(0.1 -0.1)">
      <defs>
       <path d="M 5.515625 54.6875 
L 48.1875 54.6875 
L 48.1875 46.484375 
L 14.40625 7.171875 
L 48.1875 7.171875 
L 48.1875 0 
L 4.296875 0 
L 4.296875 8.203125 
L 38.09375 47.515625 
L 5.515625 47.515625 
z
" id="DejaVuSans-122"/>
      </defs>
      <use xlink:href="#DejaVuSans-122"/>
      <use x="52.490234" xlink:href="#DejaVuSans-102"/>
      <use x="87.695312" xlink:href="#DejaVuSans-105"/>
      <use x="115.478516" xlink:href="#DejaVuSans-116"/>
     </g>
    </g>
    <g id="line2d_116">
     <path d="M 99 173.723437 
L 119 173.723437 
" style="fill:none;stroke:#bcbd22;stroke-linecap:square;stroke-width:1.5;"/>
    </g>
    <g id="line2d_117"/>
    <g id="text_23">
     <!-- coffea -->
     <g transform="translate(127 177.223437)scale(0.1 -0.1)">
      <use xlink:href="#DejaVuSans-99"/>
      <use x="54.980469" xlink:href="#DejaVuSans-111"/>
      <use x="116.162109" xlink:href="#DejaVuSans-102"/>
      <use x="151.367188" xlink:href="#DejaVuSans-102"/>
      <use x="186.572266" xlink:href="#DejaVuSans-101"/>
      <use x="248.095703" xlink:href="#DejaVuSans-97"/>
     </g>
    </g>
    <g id="line2d_118">
     <path d="M 99 188.401562 
L 119 188.401562 
" style="fill:none;stroke:#17becf;stroke-linecap:square;stroke-width:1.5;"/>
    </g>
    <g id="line2d_119"/>
    <g id="text_24">
     <!-- mplhep -->
     <g transform="translate(127 191.901562)scale(0.1 -0.1)">
      <use xlink:href="#DejaVuSans-109"/>
      <use x="97.412109" xlink:href="#DejaVuSans-112"/>
      <use x="160.888672" xlink:href="#DejaVuSans-108"/>
      <use x="188.671875" xlink:href="#DejaVuSans-104"/>
      <use x="252.050781" xlink:href="#DejaVuSans-101"/>
      <use x="313.574219" xlink:href="#DejaVuSans-112"/>
     </g>
    </g>
    <g id="line2d_120">
     <path d="M 99 203.079687 
L 119 203.079687 
" style="fill:none;stroke:#1f77b4;stroke-linecap:square;stroke-width:1.5;"/>
    </g>
    <g id="line2d_121"/>
    <g id="text_25">
     <!-- boost-histogram -->
     <g transform="translate(127 206.579687)scale(0.1 -0.1)">
      <defs>
       <path d="M 45.40625 27.984375 
Q 45.40625 37.75 41.375 43.109375 
Q 37.359375 48.484375 30.078125 48.484375 
Q 22.859375 48.484375 18.828125 43.109375 
Q 14.796875 37.75 14.796875 27.984375 
Q 14.796875 18.265625 18.828125 12.890625 
Q 22.859375 7.515625 30.078125 7.515625 
Q 37.359375 7.515625 41.375 12.890625 
Q 45.40625 18.265625 45.40625 27.984375 
z
M 54.390625 6.78125 
Q 54.390625 -7.171875 48.1875 -13.984375 
Q 42 -20.796875 29.203125 -20.796875 
Q 24.46875 -20.796875 20.265625 -20.09375 
Q 16.0625 -19.390625 12.109375 -17.921875 
L 12.109375 -9.1875 
Q 16.0625 -11.328125 19.921875 -12.34375 
Q 23.78125 -13.375 27.78125 -13.375 
Q 36.625 -13.375 41.015625 -8.765625 
Q 45.40625 -4.15625 45.40625 5.171875 
L 45.40625 9.625 
Q 42.625 4.78125 38.28125 2.390625 
Q 33.9375 0 27.875 0 
Q 17.828125 0 11.671875 7.65625 
Q 5.515625 15.328125 5.515625 27.984375 
Q 5.515625 40.671875 11.671875 48.328125 
Q 17.828125 56 27.875 56 
Q 33.9375 56 38.28125 53.609375 
Q 42.625 51.21875 45.40625 46.390625 
L 45.40625 54.6875 
L 54.390625 54.6875 
z
" id="DejaVuSans-103"/>
      </defs>
      <use xlink:href="#DejaVuSans-98"/>
      <use x="63.476562" xlink:href="#DejaVuSans-111"/>
      <use x="124.658203" xlink:href="#DejaVuSans-111"/>
      <use x="185.839844" xlink:href="#DejaVuSans-115"/>
      <use x="237.939453" xlink:href="#DejaVuSans-116"/>
      <use x="277.148438" xlink:href="#DejaVuSans-45"/>
      <use x="313.232422" xlink:href="#DejaVuSans-104"/>
      <use x="376.611328" xlink:href="#DejaVuSans-105"/>
      <use x="404.394531" xlink:href="#DejaVuSans-115"/>
      <use x="456.494141" xlink:href="#DejaVuSans-116"/>
      <use x="495.703125" xlink:href="#DejaVuSans-111"/>
      <use x="556.884766" xlink:href="#DejaVuSans-103"/>
      <use x="620.361328" xlink:href="#DejaVuSans-114"/>
      <use x="661.474609" xlink:href="#DejaVuSans-97"/>
      <use x="722.753906" xlink:href="#DejaVuSans-109"/>
     </g>
    </g>
   </g>
  </g>
 </g>
 <defs>
  <clipPath id="p34fccc9011">
   <rect height="271.8" width="558" x="90" y="43.2"/>
  </clipPath>
 </defs>
</svg>
