<?xml version="1.0" encoding="utf-8" standalone="no"?>
<!DOCTYPE svg PUBLIC "-//W3C//DTD SVG 1.1//EN"
  "http://www.w3.org/Graphics/SVG/1.1/DTD/svg11.dtd">
<!-- Created with matplotlib (https://matplotlib.org/) -->
<svg height="360pt" version="1.1" viewBox="0 0 720 360" width="720pt" xmlns="http://www.w3.org/2000/svg" xmlns:xlink="http://www.w3.org/1999/xlink">
 <metadata>
  <rdf:RDF xmlns:cc="http://creativecommons.org/ns#" xmlns:dc="http://purl.org/dc/elements/1.1/" xmlns:rdf="http://www.w3.org/1999/02/22-rdf-syntax-ns#">
   <cc:Work>
    <dc:type rdf:resource="http://purl.org/dc/dcmitype/StillImage"/>
    <dc:date>2020-08-01T14:31:27.695197</dc:date>
    <dc:format>image/svg+xml</dc:format>
    <dc:creator>
     <cc:Agent>
      <dc:title>Matplotlib v3.3.0, https://matplotlib.org/</dc:title>
     </cc:Agent>
    </dc:creator>
   </cc:Work>
  </rdf:RDF>
 </metadata>
 <defs>
  <style type="text/css">*{stroke-linecap:butt;stroke-linejoin:round;}</style>
 </defs>
 <g id="figure_1">
  <g id="patch_1">
   <path d="M 0 360 
L 720 360 
L 720 0 
L 0 0 
z
" style="fill:none;"/>
  </g>
  <g id="axes_1">
   <g id="patch_2">
    <path d="M 90 315 
L 648 315 
L 648 43.2 
L 90 43.2 
z
" style="fill:#ffffff;"/>
   </g>
   <g id="matplotlib.axis_1">
    <g id="xtick_1">
     <g id="line2d_1">
      <defs>
       <path d="M 0 0 
L 0 3.5 
" id="mec84defcc3" style="stroke:#000000;stroke-width:0.8;"/>
      </defs>
      <g>
       <use style="stroke:#000000;stroke-width:0.8;" x="90" xlink:href="#mec84defcc3" y="315"/>
      </g>
     </g>
     <g id="text_1">
      <!-- Jan -->
      <g transform="translate(82.292187 329.598437)scale(0.1 -0.1)">
       <defs>
        <path d="M 9.8125 72.90625 
L 19.671875 72.90625 
L 19.671875 5.078125 
Q 19.671875 -8.109375 14.671875 -14.0625 
Q 9.671875 -20.015625 -1.421875 -20.015625 
L -5.171875 -20.015625 
L -5.171875 -11.71875 
L -2.09375 -11.71875 
Q 4.4375 -11.71875 7.125 -8.046875 
Q 9.8125 -4.390625 9.8125 5.078125 
z
" id="DejaVuSans-74"/>
        <path d="M 34.28125 27.484375 
Q 23.390625 27.484375 19.1875 25 
Q 14.984375 22.515625 14.984375 16.5 
Q 14.984375 11.71875 18.140625 8.90625 
Q 21.296875 6.109375 26.703125 6.109375 
Q 34.1875 6.109375 38.703125 11.40625 
Q 43.21875 16.703125 43.21875 25.484375 
L 43.21875 27.484375 
z
M 52.203125 31.203125 
L 52.203125 0 
L 43.21875 0 
L 43.21875 8.296875 
Q 40.140625 3.328125 35.546875 0.953125 
Q 30.953125 -1.421875 24.3125 -1.421875 
Q 15.921875 -1.421875 10.953125 3.296875 
Q 6 8.015625 6 15.921875 
Q 6 25.140625 12.171875 29.828125 
Q 18.359375 34.515625 30.609375 34.515625 
L 43.21875 34.515625 
L 43.21875 35.40625 
Q 43.21875 41.609375 39.140625 45 
Q 35.0625 48.390625 27.6875 48.390625 
Q 23 48.390625 18.546875 47.265625 
Q 14.109375 46.140625 10.015625 43.890625 
L 10.015625 52.203125 
Q 14.9375 54.109375 19.578125 55.046875 
Q 24.21875 56 28.609375 56 
Q 40.484375 56 46.34375 49.84375 
Q 52.203125 43.703125 52.203125 31.203125 
z
" id="DejaVuSans-97"/>
        <path d="M 54.890625 33.015625 
L 54.890625 0 
L 45.90625 0 
L 45.90625 32.71875 
Q 45.90625 40.484375 42.875 44.328125 
Q 39.84375 48.1875 33.796875 48.1875 
Q 26.515625 48.1875 22.3125 43.546875 
Q 18.109375 38.921875 18.109375 30.90625 
L 18.109375 0 
L 9.078125 0 
L 9.078125 54.6875 
L 18.109375 54.6875 
L 18.109375 46.1875 
Q 21.34375 51.125 25.703125 53.5625 
Q 30.078125 56 35.796875 56 
Q 45.21875 56 50.046875 50.171875 
Q 54.890625 44.34375 54.890625 33.015625 
z
" id="DejaVuSans-110"/>
       </defs>
       <use xlink:href="#DejaVuSans-74"/>
       <use x="29.492188" xlink:href="#DejaVuSans-97"/>
       <use x="90.771484" xlink:href="#DejaVuSans-110"/>
      </g>
      <!-- 2017 -->
      <g transform="translate(77.275 340.79625)scale(0.1 -0.1)">
       <defs>
        <path d="M 19.1875 8.296875 
L 53.609375 8.296875 
L 53.609375 0 
L 7.328125 0 
L 7.328125 8.296875 
Q 12.9375 14.109375 22.625 23.890625 
Q 32.328125 33.6875 34.8125 36.53125 
Q 39.546875 41.84375 41.421875 45.53125 
Q 43.3125 49.21875 43.3125 52.78125 
Q 43.3125 58.59375 39.234375 62.25 
Q 35.15625 65.921875 28.609375 65.921875 
Q 23.96875 65.921875 18.8125 64.3125 
Q 13.671875 62.703125 7.8125 59.421875 
L 7.8125 69.390625 
Q 13.765625 71.78125 18.9375 73 
Q 24.125 74.21875 28.421875 74.21875 
Q 39.75 74.21875 46.484375 68.546875 
Q 53.21875 62.890625 53.21875 53.421875 
Q 53.21875 48.921875 51.53125 44.890625 
Q 49.859375 40.875 45.40625 35.40625 
Q 44.1875 33.984375 37.640625 27.21875 
Q 31.109375 20.453125 19.1875 8.296875 
z
" id="DejaVuSans-50"/>
        <path d="M 31.78125 66.40625 
Q 24.171875 66.40625 20.328125 58.90625 
Q 16.5 51.421875 16.5 36.375 
Q 16.5 21.390625 20.328125 13.890625 
Q 24.171875 6.390625 31.78125 6.390625 
Q 39.453125 6.390625 43.28125 13.890625 
Q 47.125 21.390625 47.125 36.375 
Q 47.125 51.421875 43.28125 58.90625 
Q 39.453125 66.40625 31.78125 66.40625 
z
M 31.78125 74.21875 
Q 44.046875 74.21875 50.515625 64.515625 
Q 56.984375 54.828125 56.984375 36.375 
Q 56.984375 17.96875 50.515625 8.265625 
Q 44.046875 -1.421875 31.78125 -1.421875 
Q 19.53125 -1.421875 13.0625 8.265625 
Q 6.59375 17.96875 6.59375 36.375 
Q 6.59375 54.828125 13.0625 64.515625 
Q 19.53125 74.21875 31.78125 74.21875 
z
" id="DejaVuSans-48"/>
        <path d="M 12.40625 8.296875 
L 28.515625 8.296875 
L 28.515625 63.921875 
L 10.984375 60.40625 
L 10.984375 69.390625 
L 28.421875 72.90625 
L 38.28125 72.90625 
L 38.28125 8.296875 
L 54.390625 8.296875 
L 54.390625 0 
L 12.40625 0 
z
" id="DejaVuSans-49"/>
        <path d="M 8.203125 72.90625 
L 55.078125 72.90625 
L 55.078125 68.703125 
L 28.609375 0 
L 18.3125 0 
L 43.21875 64.59375 
L 8.203125 64.59375 
z
" id="DejaVuSans-55"/>
       </defs>
       <use xlink:href="#DejaVuSans-50"/>
       <use x="63.623047" xlink:href="#DejaVuSans-48"/>
       <use x="127.246094" xlink:href="#DejaVuSans-49"/>
       <use x="190.869141" xlink:href="#DejaVuSans-55"/>
      </g>
     </g>
    </g>
    <g id="xtick_2">
     <g id="line2d_2">
      <g>
       <use style="stroke:#000000;stroke-width:0.8;" x="246.669231" xlink:href="#mec84defcc3" y="315"/>
      </g>
     </g>
     <g id="text_2">
      <!-- Jan -->
      <g transform="translate(238.961418 329.598437)scale(0.1 -0.1)">
       <use xlink:href="#DejaVuSans-74"/>
       <use x="29.492188" xlink:href="#DejaVuSans-97"/>
       <use x="90.771484" xlink:href="#DejaVuSans-110"/>
      </g>
      <!-- 2018 -->
      <g transform="translate(233.944231 340.79625)scale(0.1 -0.1)">
       <defs>
        <path d="M 31.78125 34.625 
Q 24.75 34.625 20.71875 30.859375 
Q 16.703125 27.09375 16.703125 20.515625 
Q 16.703125 13.921875 20.71875 10.15625 
Q 24.75 6.390625 31.78125 6.390625 
Q 38.8125 6.390625 42.859375 10.171875 
Q 46.921875 13.96875 46.921875 20.515625 
Q 46.921875 27.09375 42.890625 30.859375 
Q 38.875 34.625 31.78125 34.625 
z
M 21.921875 38.8125 
Q 15.578125 40.375 12.03125 44.71875 
Q 8.5 49.078125 8.5 55.328125 
Q 8.5 64.0625 14.71875 69.140625 
Q 20.953125 74.21875 31.78125 74.21875 
Q 42.671875 74.21875 48.875 69.140625 
Q 55.078125 64.0625 55.078125 55.328125 
Q 55.078125 49.078125 51.53125 44.71875 
Q 48 40.375 41.703125 38.8125 
Q 48.828125 37.15625 52.796875 32.3125 
Q 56.78125 27.484375 56.78125 20.515625 
Q 56.78125 9.90625 50.3125 4.234375 
Q 43.84375 -1.421875 31.78125 -1.421875 
Q 19.734375 -1.421875 13.25 4.234375 
Q 6.78125 9.90625 6.78125 20.515625 
Q 6.78125 27.484375 10.78125 32.3125 
Q 14.796875 37.15625 21.921875 38.8125 
z
M 18.3125 54.390625 
Q 18.3125 48.734375 21.84375 45.5625 
Q 25.390625 42.390625 31.78125 42.390625 
Q 38.140625 42.390625 41.71875 45.5625 
Q 45.3125 48.734375 45.3125 54.390625 
Q 45.3125 60.0625 41.71875 63.234375 
Q 38.140625 66.40625 31.78125 66.40625 
Q 25.390625 66.40625 21.84375 63.234375 
Q 18.3125 60.0625 18.3125 54.390625 
z
" id="DejaVuSans-56"/>
       </defs>
       <use xlink:href="#DejaVuSans-50"/>
       <use x="63.623047" xlink:href="#DejaVuSans-48"/>
       <use x="127.246094" xlink:href="#DejaVuSans-49"/>
       <use x="190.869141" xlink:href="#DejaVuSans-56"/>
      </g>
     </g>
    </g>
    <g id="xtick_3">
     <g id="line2d_3">
      <g>
       <use style="stroke:#000000;stroke-width:0.8;" x="403.338462" xlink:href="#mec84defcc3" y="315"/>
      </g>
     </g>
     <g id="text_3">
      <!-- Jan -->
      <g transform="translate(395.630649 329.598437)scale(0.1 -0.1)">
       <use xlink:href="#DejaVuSans-74"/>
       <use x="29.492188" xlink:href="#DejaVuSans-97"/>
       <use x="90.771484" xlink:href="#DejaVuSans-110"/>
      </g>
      <!-- 2019 -->
      <g transform="translate(390.613462 340.79625)scale(0.1 -0.1)">
       <defs>
        <path d="M 10.984375 1.515625 
L 10.984375 10.5 
Q 14.703125 8.734375 18.5 7.8125 
Q 22.3125 6.890625 25.984375 6.890625 
Q 35.75 6.890625 40.890625 13.453125 
Q 46.046875 20.015625 46.78125 33.40625 
Q 43.953125 29.203125 39.59375 26.953125 
Q 35.25 24.703125 29.984375 24.703125 
Q 19.046875 24.703125 12.671875 31.3125 
Q 6.296875 37.9375 6.296875 49.421875 
Q 6.296875 60.640625 12.9375 67.421875 
Q 19.578125 74.21875 30.609375 74.21875 
Q 43.265625 74.21875 49.921875 64.515625 
Q 56.59375 54.828125 56.59375 36.375 
Q 56.59375 19.140625 48.40625 8.859375 
Q 40.234375 -1.421875 26.421875 -1.421875 
Q 22.703125 -1.421875 18.890625 -0.6875 
Q 15.09375 0.046875 10.984375 1.515625 
z
M 30.609375 32.421875 
Q 37.25 32.421875 41.125 36.953125 
Q 45.015625 41.5 45.015625 49.421875 
Q 45.015625 57.28125 41.125 61.84375 
Q 37.25 66.40625 30.609375 66.40625 
Q 23.96875 66.40625 20.09375 61.84375 
Q 16.21875 57.28125 16.21875 49.421875 
Q 16.21875 41.5 20.09375 36.953125 
Q 23.96875 32.421875 30.609375 32.421875 
z
" id="DejaVuSans-57"/>
       </defs>
       <use xlink:href="#DejaVuSans-50"/>
       <use x="63.623047" xlink:href="#DejaVuSans-48"/>
       <use x="127.246094" xlink:href="#DejaVuSans-49"/>
       <use x="190.869141" xlink:href="#DejaVuSans-57"/>
      </g>
     </g>
    </g>
    <g id="xtick_4">
     <g id="line2d_4">
      <g>
       <use style="stroke:#000000;stroke-width:0.8;" x="560.007692" xlink:href="#mec84defcc3" y="315"/>
      </g>
     </g>
     <g id="text_4">
      <!-- Jan -->
      <g transform="translate(552.29988 329.598437)scale(0.1 -0.1)">
       <use xlink:href="#DejaVuSans-74"/>
       <use x="29.492188" xlink:href="#DejaVuSans-97"/>
       <use x="90.771484" xlink:href="#DejaVuSans-110"/>
      </g>
      <!-- 2020 -->
      <g transform="translate(547.282692 340.79625)scale(0.1 -0.1)">
       <use xlink:href="#DejaVuSans-50"/>
       <use x="63.623047" xlink:href="#DejaVuSans-48"/>
       <use x="127.246094" xlink:href="#DejaVuSans-50"/>
       <use x="190.869141" xlink:href="#DejaVuSans-48"/>
      </g>
     </g>
    </g>
    <g id="xtick_5">
     <g id="line2d_5">
      <g>
       <use style="stroke:#000000;stroke-width:0.8;" x="648" xlink:href="#mec84defcc3" y="315"/>
      </g>
     </g>
    </g>
    <g id="xtick_6">
     <g id="line2d_6">
      <defs>
       <path d="M 0 0 
L 0 2 
" id="m4331054dee" style="stroke:#000000;stroke-width:0.6;"/>
      </defs>
      <g>
       <use style="stroke:#000000;stroke-width:0.6;" x="103.306154" xlink:href="#m4331054dee" y="315"/>
      </g>
     </g>
    </g>
    <g id="xtick_7">
     <g id="line2d_7">
      <g>
       <use style="stroke:#000000;stroke-width:0.6;" x="115.324615" xlink:href="#m4331054dee" y="315"/>
      </g>
     </g>
    </g>
    <g id="xtick_8">
     <g id="line2d_8">
      <g>
       <use style="stroke:#000000;stroke-width:0.6;" x="128.630769" xlink:href="#m4331054dee" y="315"/>
      </g>
     </g>
    </g>
    <g id="xtick_9">
     <g id="line2d_9">
      <g>
       <use style="stroke:#000000;stroke-width:0.6;" x="141.507692" xlink:href="#m4331054dee" y="315"/>
      </g>
     </g>
    </g>
    <g id="xtick_10">
     <g id="line2d_10">
      <g>
       <use style="stroke:#000000;stroke-width:0.6;" x="154.813846" xlink:href="#m4331054dee" y="315"/>
      </g>
     </g>
    </g>
    <g id="xtick_11">
     <g id="line2d_11">
      <g>
       <use style="stroke:#000000;stroke-width:0.6;" x="167.690769" xlink:href="#m4331054dee" y="315"/>
      </g>
     </g>
     <g id="text_5">
      <!-- Jul -->
      <g transform="translate(161.657957 327.998438)scale(0.1 -0.1)">
       <defs>
        <path d="M 8.5 21.578125 
L 8.5 54.6875 
L 17.484375 54.6875 
L 17.484375 21.921875 
Q 17.484375 14.15625 20.5 10.265625 
Q 23.53125 6.390625 29.59375 6.390625 
Q 36.859375 6.390625 41.078125 11.03125 
Q 45.3125 15.671875 45.3125 23.6875 
L 45.3125 54.6875 
L 54.296875 54.6875 
L 54.296875 0 
L 45.3125 0 
L 45.3125 8.40625 
Q 42.046875 3.421875 37.71875 1 
Q 33.40625 -1.421875 27.6875 -1.421875 
Q 18.265625 -1.421875 13.375 4.4375 
Q 8.5 10.296875 8.5 21.578125 
z
M 31.109375 56 
z
" id="DejaVuSans-117"/>
        <path d="M 9.421875 75.984375 
L 18.40625 75.984375 
L 18.40625 0 
L 9.421875 0 
z
" id="DejaVuSans-108"/>
       </defs>
       <use xlink:href="#DejaVuSans-74"/>
       <use x="29.492188" xlink:href="#DejaVuSans-117"/>
       <use x="92.871094" xlink:href="#DejaVuSans-108"/>
      </g>
     </g>
    </g>
    <g id="xtick_12">
     <g id="line2d_12">
      <g>
       <use style="stroke:#000000;stroke-width:0.6;" x="180.996923" xlink:href="#m4331054dee" y="315"/>
      </g>
     </g>
    </g>
    <g id="xtick_13">
     <g id="line2d_13">
      <g>
       <use style="stroke:#000000;stroke-width:0.6;" x="194.303077" xlink:href="#m4331054dee" y="315"/>
      </g>
     </g>
    </g>
    <g id="xtick_14">
     <g id="line2d_14">
      <g>
       <use style="stroke:#000000;stroke-width:0.6;" x="207.18" xlink:href="#m4331054dee" y="315"/>
      </g>
     </g>
    </g>
    <g id="xtick_15">
     <g id="line2d_15">
      <g>
       <use style="stroke:#000000;stroke-width:0.6;" x="220.486154" xlink:href="#m4331054dee" y="315"/>
      </g>
     </g>
    </g>
    <g id="xtick_16">
     <g id="line2d_16">
      <g>
       <use style="stroke:#000000;stroke-width:0.6;" x="233.363077" xlink:href="#m4331054dee" y="315"/>
      </g>
     </g>
    </g>
    <g id="xtick_17">
     <g id="line2d_17">
      <g>
       <use style="stroke:#000000;stroke-width:0.6;" x="259.975385" xlink:href="#m4331054dee" y="315"/>
      </g>
     </g>
    </g>
    <g id="xtick_18">
     <g id="line2d_18">
      <g>
       <use style="stroke:#000000;stroke-width:0.6;" x="271.993846" xlink:href="#m4331054dee" y="315"/>
      </g>
     </g>
    </g>
    <g id="xtick_19">
     <g id="line2d_19">
      <g>
       <use style="stroke:#000000;stroke-width:0.6;" x="285.3" xlink:href="#m4331054dee" y="315"/>
      </g>
     </g>
    </g>
    <g id="xtick_20">
     <g id="line2d_20">
      <g>
       <use style="stroke:#000000;stroke-width:0.6;" x="298.176923" xlink:href="#m4331054dee" y="315"/>
      </g>
     </g>
    </g>
    <g id="xtick_21">
     <g id="line2d_21">
      <g>
       <use style="stroke:#000000;stroke-width:0.6;" x="311.483077" xlink:href="#m4331054dee" y="315"/>
      </g>
     </g>
    </g>
    <g id="xtick_22">
     <g id="line2d_22">
      <g>
       <use style="stroke:#000000;stroke-width:0.6;" x="324.36" xlink:href="#m4331054dee" y="315"/>
      </g>
     </g>
     <g id="text_6">
      <!-- Jul -->
      <g transform="translate(318.327188 327.998438)scale(0.1 -0.1)">
       <use xlink:href="#DejaVuSans-74"/>
       <use x="29.492188" xlink:href="#DejaVuSans-117"/>
       <use x="92.871094" xlink:href="#DejaVuSans-108"/>
      </g>
     </g>
    </g>
    <g id="xtick_23">
     <g id="line2d_23">
      <g>
       <use style="stroke:#000000;stroke-width:0.6;" x="337.666154" xlink:href="#m4331054dee" y="315"/>
      </g>
     </g>
    </g>
    <g id="xtick_24">
     <g id="line2d_24">
      <g>
       <use style="stroke:#000000;stroke-width:0.6;" x="350.972308" xlink:href="#m4331054dee" y="315"/>
      </g>
     </g>
    </g>
    <g id="xtick_25">
     <g id="line2d_25">
      <g>
       <use style="stroke:#000000;stroke-width:0.6;" x="363.849231" xlink:href="#m4331054dee" y="315"/>
      </g>
     </g>
    </g>
    <g id="xtick_26">
     <g id="line2d_26">
      <g>
       <use style="stroke:#000000;stroke-width:0.6;" x="377.155385" xlink:href="#m4331054dee" y="315"/>
      </g>
     </g>
    </g>
    <g id="xtick_27">
     <g id="line2d_27">
      <g>
       <use style="stroke:#000000;stroke-width:0.6;" x="390.032308" xlink:href="#m4331054dee" y="315"/>
      </g>
     </g>
    </g>
    <g id="xtick_28">
     <g id="line2d_28">
      <g>
       <use style="stroke:#000000;stroke-width:0.6;" x="416.644615" xlink:href="#m4331054dee" y="315"/>
      </g>
     </g>
    </g>
    <g id="xtick_29">
     <g id="line2d_29">
      <g>
       <use style="stroke:#000000;stroke-width:0.6;" x="428.663077" xlink:href="#m4331054dee" y="315"/>
      </g>
     </g>
    </g>
    <g id="xtick_30">
     <g id="line2d_30">
      <g>
       <use style="stroke:#000000;stroke-width:0.6;" x="441.969231" xlink:href="#m4331054dee" y="315"/>
      </g>
     </g>
    </g>
    <g id="xtick_31">
     <g id="line2d_31">
      <g>
       <use style="stroke:#000000;stroke-width:0.6;" x="454.846154" xlink:href="#m4331054dee" y="315"/>
      </g>
     </g>
    </g>
    <g id="xtick_32">
     <g id="line2d_32">
      <g>
       <use style="stroke:#000000;stroke-width:0.6;" x="468.152308" xlink:href="#m4331054dee" y="315"/>
      </g>
     </g>
    </g>
    <g id="xtick_33">
     <g id="line2d_33">
      <g>
       <use style="stroke:#000000;stroke-width:0.6;" x="481.029231" xlink:href="#m4331054dee" y="315"/>
      </g>
     </g>
     <g id="text_7">
      <!-- Jul -->
      <g transform="translate(474.996418 327.998438)scale(0.1 -0.1)">
       <use xlink:href="#DejaVuSans-74"/>
       <use x="29.492188" xlink:href="#DejaVuSans-117"/>
       <use x="92.871094" xlink:href="#DejaVuSans-108"/>
      </g>
     </g>
    </g>
    <g id="xtick_34">
     <g id="line2d_34">
      <g>
       <use style="stroke:#000000;stroke-width:0.6;" x="494.335385" xlink:href="#m4331054dee" y="315"/>
      </g>
     </g>
    </g>
    <g id="xtick_35">
     <g id="line2d_35">
      <g>
       <use style="stroke:#000000;stroke-width:0.6;" x="507.641538" xlink:href="#m4331054dee" y="315"/>
      </g>
     </g>
    </g>
    <g id="xtick_36">
     <g id="line2d_36">
      <g>
       <use style="stroke:#000000;stroke-width:0.6;" x="520.518462" xlink:href="#m4331054dee" y="315"/>
      </g>
     </g>
    </g>
    <g id="xtick_37">
     <g id="line2d_37">
      <g>
       <use style="stroke:#000000;stroke-width:0.6;" x="533.824615" xlink:href="#m4331054dee" y="315"/>
      </g>
     </g>
    </g>
    <g id="xtick_38">
     <g id="line2d_38">
      <g>
       <use style="stroke:#000000;stroke-width:0.6;" x="546.701538" xlink:href="#m4331054dee" y="315"/>
      </g>
     </g>
    </g>
    <g id="xtick_39">
     <g id="line2d_39">
      <g>
       <use style="stroke:#000000;stroke-width:0.6;" x="573.313846" xlink:href="#m4331054dee" y="315"/>
      </g>
     </g>
    </g>
    <g id="xtick_40">
     <g id="line2d_40">
      <g>
       <use style="stroke:#000000;stroke-width:0.6;" x="585.761538" xlink:href="#m4331054dee" y="315"/>
      </g>
     </g>
    </g>
    <g id="xtick_41">
     <g id="line2d_41">
      <g>
       <use style="stroke:#000000;stroke-width:0.6;" x="599.067692" xlink:href="#m4331054dee" y="315"/>
      </g>
     </g>
    </g>
    <g id="xtick_42">
     <g id="line2d_42">
      <g>
       <use style="stroke:#000000;stroke-width:0.6;" x="611.944615" xlink:href="#m4331054dee" y="315"/>
      </g>
     </g>
    </g>
    <g id="xtick_43">
     <g id="line2d_43">
      <g>
       <use style="stroke:#000000;stroke-width:0.6;" x="625.250769" xlink:href="#m4331054dee" y="315"/>
      </g>
     </g>
    </g>
    <g id="xtick_44">
     <g id="line2d_44">
      <g>
       <use style="stroke:#000000;stroke-width:0.6;" x="638.127692" xlink:href="#m4331054dee" y="315"/>
      </g>
     </g>
     <g id="text_8">
      <!-- Jul -->
      <g transform="translate(632.09488 327.998438)scale(0.1 -0.1)">
       <use xlink:href="#DejaVuSans-74"/>
       <use x="29.492188" xlink:href="#DejaVuSans-117"/>
       <use x="92.871094" xlink:href="#DejaVuSans-108"/>
      </g>
     </g>
    </g>
   </g>
   <g id="matplotlib.axis_2">
    <g id="ytick_1">
     <g id="line2d_45">
      <defs>
       <path d="M 0 0 
L -3.5 0 
" id="m590ac09d00" style="stroke:#000000;stroke-width:0.8;"/>
      </defs>
      <g>
       <use style="stroke:#000000;stroke-width:0.8;" x="90" xlink:href="#m590ac09d00" y="269.737756"/>
      </g>
     </g>
     <g id="text_9">
      <!-- 10000 -->
      <g transform="translate(51.1875 273.536975)scale(0.1 -0.1)">
       <use xlink:href="#DejaVuSans-49"/>
       <use x="63.623047" xlink:href="#DejaVuSans-48"/>
       <use x="127.246094" xlink:href="#DejaVuSans-48"/>
       <use x="190.869141" xlink:href="#DejaVuSans-48"/>
       <use x="254.492188" xlink:href="#DejaVuSans-48"/>
      </g>
     </g>
    </g>
    <g id="ytick_2">
     <g id="line2d_46">
      <g>
       <use style="stroke:#000000;stroke-width:0.8;" x="90" xlink:href="#m590ac09d00" y="224.430205"/>
      </g>
     </g>
     <g id="text_10">
      <!-- 20000 -->
      <g transform="translate(51.1875 228.229424)scale(0.1 -0.1)">
       <use xlink:href="#DejaVuSans-50"/>
       <use x="63.623047" xlink:href="#DejaVuSans-48"/>
       <use x="127.246094" xlink:href="#DejaVuSans-48"/>
       <use x="190.869141" xlink:href="#DejaVuSans-48"/>
       <use x="254.492188" xlink:href="#DejaVuSans-48"/>
      </g>
     </g>
    </g>
    <g id="ytick_3">
     <g id="line2d_47">
      <g>
       <use style="stroke:#000000;stroke-width:0.8;" x="90" xlink:href="#m590ac09d00" y="179.122654"/>
      </g>
     </g>
     <g id="text_11">
      <!-- 30000 -->
      <g transform="translate(51.1875 182.921873)scale(0.1 -0.1)">
       <defs>
        <path d="M 40.578125 39.3125 
Q 47.65625 37.796875 51.625 33 
Q 55.609375 28.21875 55.609375 21.1875 
Q 55.609375 10.40625 48.1875 4.484375 
Q 40.765625 -1.421875 27.09375 -1.421875 
Q 22.515625 -1.421875 17.65625 -0.515625 
Q 12.796875 0.390625 7.625 2.203125 
L 7.625 11.71875 
Q 11.71875 9.328125 16.59375 8.109375 
Q 21.484375 6.890625 26.8125 6.890625 
Q 36.078125 6.890625 40.9375 10.546875 
Q 45.796875 14.203125 45.796875 21.1875 
Q 45.796875 27.640625 41.28125 31.265625 
Q 36.765625 34.90625 28.71875 34.90625 
L 20.21875 34.90625 
L 20.21875 43.015625 
L 29.109375 43.015625 
Q 36.375 43.015625 40.234375 45.921875 
Q 44.09375 48.828125 44.09375 54.296875 
Q 44.09375 59.90625 40.109375 62.90625 
Q 36.140625 65.921875 28.71875 65.921875 
Q 24.65625 65.921875 20.015625 65.03125 
Q 15.375 64.15625 9.8125 62.3125 
L 9.8125 71.09375 
Q 15.4375 72.65625 20.34375 73.4375 
Q 25.25 74.21875 29.59375 74.21875 
Q 40.828125 74.21875 47.359375 69.109375 
Q 53.90625 64.015625 53.90625 55.328125 
Q 53.90625 49.265625 50.4375 45.09375 
Q 46.96875 40.921875 40.578125 39.3125 
z
" id="DejaVuSans-51"/>
       </defs>
       <use xlink:href="#DejaVuSans-51"/>
       <use x="63.623047" xlink:href="#DejaVuSans-48"/>
       <use x="127.246094" xlink:href="#DejaVuSans-48"/>
       <use x="190.869141" xlink:href="#DejaVuSans-48"/>
       <use x="254.492188" xlink:href="#DejaVuSans-48"/>
      </g>
     </g>
    </g>
    <g id="ytick_4">
     <g id="line2d_48">
      <g>
       <use style="stroke:#000000;stroke-width:0.8;" x="90" xlink:href="#m590ac09d00" y="133.815103"/>
      </g>
     </g>
     <g id="text_12">
      <!-- 40000 -->
      <g transform="translate(51.1875 137.614321)scale(0.1 -0.1)">
       <defs>
        <path d="M 37.796875 64.3125 
L 12.890625 25.390625 
L 37.796875 25.390625 
z
M 35.203125 72.90625 
L 47.609375 72.90625 
L 47.609375 25.390625 
L 58.015625 25.390625 
L 58.015625 17.1875 
L 47.609375 17.1875 
L 47.609375 0 
L 37.796875 0 
L 37.796875 17.1875 
L 4.890625 17.1875 
L 4.890625 26.703125 
z
" id="DejaVuSans-52"/>
       </defs>
       <use xlink:href="#DejaVuSans-52"/>
       <use x="63.623047" xlink:href="#DejaVuSans-48"/>
       <use x="127.246094" xlink:href="#DejaVuSans-48"/>
       <use x="190.869141" xlink:href="#DejaVuSans-48"/>
       <use x="254.492188" xlink:href="#DejaVuSans-48"/>
      </g>
     </g>
    </g>
    <g id="ytick_5">
     <g id="line2d_49">
      <g>
       <use style="stroke:#000000;stroke-width:0.8;" x="90" xlink:href="#m590ac09d00" y="88.507551"/>
      </g>
     </g>
     <g id="text_13">
      <!-- 50000 -->
      <g transform="translate(51.1875 92.30677)scale(0.1 -0.1)">
       <defs>
        <path d="M 10.796875 72.90625 
L 49.515625 72.90625 
L 49.515625 64.59375 
L 19.828125 64.59375 
L 19.828125 46.734375 
Q 21.96875 47.46875 24.109375 47.828125 
Q 26.265625 48.1875 28.421875 48.1875 
Q 40.625 48.1875 47.75 41.5 
Q 54.890625 34.8125 54.890625 23.390625 
Q 54.890625 11.625 47.5625 5.09375 
Q 40.234375 -1.421875 26.90625 -1.421875 
Q 22.3125 -1.421875 17.546875 -0.640625 
Q 12.796875 0.140625 7.71875 1.703125 
L 7.71875 11.625 
Q 12.109375 9.234375 16.796875 8.0625 
Q 21.484375 6.890625 26.703125 6.890625 
Q 35.15625 6.890625 40.078125 11.328125 
Q 45.015625 15.765625 45.015625 23.390625 
Q 45.015625 31 40.078125 35.4375 
Q 35.15625 39.890625 26.703125 39.890625 
Q 22.75 39.890625 18.8125 39.015625 
Q 14.890625 38.140625 10.796875 36.28125 
z
" id="DejaVuSans-53"/>
       </defs>
       <use xlink:href="#DejaVuSans-53"/>
       <use x="63.623047" xlink:href="#DejaVuSans-48"/>
       <use x="127.246094" xlink:href="#DejaVuSans-48"/>
       <use x="190.869141" xlink:href="#DejaVuSans-48"/>
       <use x="254.492188" xlink:href="#DejaVuSans-48"/>
      </g>
     </g>
    </g>
    <g id="ytick_6">
     <g id="line2d_50">
      <g>
       <use style="stroke:#000000;stroke-width:0.8;" x="90" xlink:href="#m590ac09d00" y="43.2"/>
      </g>
     </g>
     <g id="text_14">
      <!-- 60000 -->
      <g transform="translate(51.1875 46.999219)scale(0.1 -0.1)">
       <defs>
        <path d="M 33.015625 40.375 
Q 26.375 40.375 22.484375 35.828125 
Q 18.609375 31.296875 18.609375 23.390625 
Q 18.609375 15.53125 22.484375 10.953125 
Q 26.375 6.390625 33.015625 6.390625 
Q 39.65625 6.390625 43.53125 10.953125 
Q 47.40625 15.53125 47.40625 23.390625 
Q 47.40625 31.296875 43.53125 35.828125 
Q 39.65625 40.375 33.015625 40.375 
z
M 52.59375 71.296875 
L 52.59375 62.3125 
Q 48.875 64.0625 45.09375 64.984375 
Q 41.3125 65.921875 37.59375 65.921875 
Q 27.828125 65.921875 22.671875 59.328125 
Q 17.53125 52.734375 16.796875 39.40625 
Q 19.671875 43.65625 24.015625 45.921875 
Q 28.375 48.1875 33.59375 48.1875 
Q 44.578125 48.1875 50.953125 41.515625 
Q 57.328125 34.859375 57.328125 23.390625 
Q 57.328125 12.15625 50.6875 5.359375 
Q 44.046875 -1.421875 33.015625 -1.421875 
Q 20.359375 -1.421875 13.671875 8.265625 
Q 6.984375 17.96875 6.984375 36.375 
Q 6.984375 53.65625 15.1875 63.9375 
Q 23.390625 74.21875 37.203125 74.21875 
Q 40.921875 74.21875 44.703125 73.484375 
Q 48.484375 72.75 52.59375 71.296875 
z
" id="DejaVuSans-54"/>
       </defs>
       <use xlink:href="#DejaVuSans-54"/>
       <use x="63.623047" xlink:href="#DejaVuSans-48"/>
       <use x="127.246094" xlink:href="#DejaVuSans-48"/>
       <use x="190.869141" xlink:href="#DejaVuSans-48"/>
       <use x="254.492188" xlink:href="#DejaVuSans-48"/>
      </g>
     </g>
    </g>
    <g id="text_15">
     <!-- Number of pip-installs per month -->
     <g transform="translate(45.107812 262.00625)rotate(-90)scale(0.1 -0.1)">
      <defs>
       <path d="M 9.8125 72.90625 
L 23.09375 72.90625 
L 55.421875 11.921875 
L 55.421875 72.90625 
L 64.984375 72.90625 
L 64.984375 0 
L 51.703125 0 
L 19.390625 60.984375 
L 19.390625 0 
L 9.8125 0 
z
" id="DejaVuSans-78"/>
       <path d="M 52 44.1875 
Q 55.375 50.25 60.0625 53.125 
Q 64.75 56 71.09375 56 
Q 79.640625 56 84.28125 50.015625 
Q 88.921875 44.046875 88.921875 33.015625 
L 88.921875 0 
L 79.890625 0 
L 79.890625 32.71875 
Q 79.890625 40.578125 77.09375 44.375 
Q 74.3125 48.1875 68.609375 48.1875 
Q 61.625 48.1875 57.5625 43.546875 
Q 53.515625 38.921875 53.515625 30.90625 
L 53.515625 0 
L 44.484375 0 
L 44.484375 32.71875 
Q 44.484375 40.625 41.703125 44.40625 
Q 38.921875 48.1875 33.109375 48.1875 
Q 26.21875 48.1875 22.15625 43.53125 
Q 18.109375 38.875 18.109375 30.90625 
L 18.109375 0 
L 9.078125 0 
L 9.078125 54.6875 
L 18.109375 54.6875 
L 18.109375 46.1875 
Q 21.1875 51.21875 25.484375 53.609375 
Q 29.78125 56 35.6875 56 
Q 41.65625 56 45.828125 52.96875 
Q 50 49.953125 52 44.1875 
z
" id="DejaVuSans-109"/>
       <path d="M 48.6875 27.296875 
Q 48.6875 37.203125 44.609375 42.84375 
Q 40.53125 48.484375 33.40625 48.484375 
Q 26.265625 48.484375 22.1875 42.84375 
Q 18.109375 37.203125 18.109375 27.296875 
Q 18.109375 17.390625 22.1875 11.75 
Q 26.265625 6.109375 33.40625 6.109375 
Q 40.53125 6.109375 44.609375 11.75 
Q 48.6875 17.390625 48.6875 27.296875 
z
M 18.109375 46.390625 
Q 20.953125 51.265625 25.265625 53.625 
Q 29.59375 56 35.59375 56 
Q 45.5625 56 51.78125 48.09375 
Q 58.015625 40.1875 58.015625 27.296875 
Q 58.015625 14.40625 51.78125 6.484375 
Q 45.5625 -1.421875 35.59375 -1.421875 
Q 29.59375 -1.421875 25.265625 0.953125 
Q 20.953125 3.328125 18.109375 8.203125 
L 18.109375 0 
L 9.078125 0 
L 9.078125 75.984375 
L 18.109375 75.984375 
z
" id="DejaVuSans-98"/>
       <path d="M 56.203125 29.59375 
L 56.203125 25.203125 
L 14.890625 25.203125 
Q 15.484375 15.921875 20.484375 11.0625 
Q 25.484375 6.203125 34.421875 6.203125 
Q 39.59375 6.203125 44.453125 7.46875 
Q 49.3125 8.734375 54.109375 11.28125 
L 54.109375 2.78125 
Q 49.265625 0.734375 44.1875 -0.34375 
Q 39.109375 -1.421875 33.890625 -1.421875 
Q 20.796875 -1.421875 13.15625 6.1875 
Q 5.515625 13.8125 5.515625 26.8125 
Q 5.515625 40.234375 12.765625 48.109375 
Q 20.015625 56 32.328125 56 
Q 43.359375 56 49.78125 48.890625 
Q 56.203125 41.796875 56.203125 29.59375 
z
M 47.21875 32.234375 
Q 47.125 39.59375 43.09375 43.984375 
Q 39.0625 48.390625 32.421875 48.390625 
Q 24.90625 48.390625 20.390625 44.140625 
Q 15.875 39.890625 15.1875 32.171875 
z
" id="DejaVuSans-101"/>
       <path d="M 41.109375 46.296875 
Q 39.59375 47.171875 37.8125 47.578125 
Q 36.03125 48 33.890625 48 
Q 26.265625 48 22.1875 43.046875 
Q 18.109375 38.09375 18.109375 28.8125 
L 18.109375 0 
L 9.078125 0 
L 9.078125 54.6875 
L 18.109375 54.6875 
L 18.109375 46.1875 
Q 20.953125 51.171875 25.484375 53.578125 
Q 30.03125 56 36.53125 56 
Q 37.453125 56 38.578125 55.875 
Q 39.703125 55.765625 41.0625 55.515625 
z
" id="DejaVuSans-114"/>
       <path id="DejaVuSans-32"/>
       <path d="M 30.609375 48.390625 
Q 23.390625 48.390625 19.1875 42.75 
Q 14.984375 37.109375 14.984375 27.296875 
Q 14.984375 17.484375 19.15625 11.84375 
Q 23.34375 6.203125 30.609375 6.203125 
Q 37.796875 6.203125 41.984375 11.859375 
Q 46.1875 17.53125 46.1875 27.296875 
Q 46.1875 37.015625 41.984375 42.703125 
Q 37.796875 48.390625 30.609375 48.390625 
z
M 30.609375 56 
Q 42.328125 56 49.015625 48.375 
Q 55.71875 40.765625 55.71875 27.296875 
Q 55.71875 13.875 49.015625 6.21875 
Q 42.328125 -1.421875 30.609375 -1.421875 
Q 18.84375 -1.421875 12.171875 6.21875 
Q 5.515625 13.875 5.515625 27.296875 
Q 5.515625 40.765625 12.171875 48.375 
Q 18.84375 56 30.609375 56 
z
" id="DejaVuSans-111"/>
       <path d="M 37.109375 75.984375 
L 37.109375 68.5 
L 28.515625 68.5 
Q 23.6875 68.5 21.796875 66.546875 
Q 19.921875 64.59375 19.921875 59.515625 
L 19.921875 54.6875 
L 34.71875 54.6875 
L 34.71875 47.703125 
L 19.921875 47.703125 
L 19.921875 0 
L 10.890625 0 
L 10.890625 47.703125 
L 2.296875 47.703125 
L 2.296875 54.6875 
L 10.890625 54.6875 
L 10.890625 58.5 
Q 10.890625 67.625 15.140625 71.796875 
Q 19.390625 75.984375 28.609375 75.984375 
z
" id="DejaVuSans-102"/>
       <path d="M 18.109375 8.203125 
L 18.109375 -20.796875 
L 9.078125 -20.796875 
L 9.078125 54.6875 
L 18.109375 54.6875 
L 18.109375 46.390625 
Q 20.953125 51.265625 25.265625 53.625 
Q 29.59375 56 35.59375 56 
Q 45.5625 56 51.78125 48.09375 
Q 58.015625 40.1875 58.015625 27.296875 
Q 58.015625 14.40625 51.78125 6.484375 
Q 45.5625 -1.421875 35.59375 -1.421875 
Q 29.59375 -1.421875 25.265625 0.953125 
Q 20.953125 3.328125 18.109375 8.203125 
z
M 48.6875 27.296875 
Q 48.6875 37.203125 44.609375 42.84375 
Q 40.53125 48.484375 33.40625 48.484375 
Q 26.265625 48.484375 22.1875 42.84375 
Q 18.109375 37.203125 18.109375 27.296875 
Q 18.109375 17.390625 22.1875 11.75 
Q 26.265625 6.109375 33.40625 6.109375 
Q 40.53125 6.109375 44.609375 11.75 
Q 48.6875 17.390625 48.6875 27.296875 
z
" id="DejaVuSans-112"/>
       <path d="M 9.421875 54.6875 
L 18.40625 54.6875 
L 18.40625 0 
L 9.421875 0 
z
M 9.421875 75.984375 
L 18.40625 75.984375 
L 18.40625 64.59375 
L 9.421875 64.59375 
z
" id="DejaVuSans-105"/>
       <path d="M 4.890625 31.390625 
L 31.203125 31.390625 
L 31.203125 23.390625 
L 4.890625 23.390625 
z
" id="DejaVuSans-45"/>
       <path d="M 44.28125 53.078125 
L 44.28125 44.578125 
Q 40.484375 46.53125 36.375 47.5 
Q 32.28125 48.484375 27.875 48.484375 
Q 21.1875 48.484375 17.84375 46.4375 
Q 14.5 44.390625 14.5 40.28125 
Q 14.5 37.15625 16.890625 35.375 
Q 19.28125 33.59375 26.515625 31.984375 
L 29.59375 31.296875 
Q 39.15625 29.25 43.1875 25.515625 
Q 47.21875 21.78125 47.21875 15.09375 
Q 47.21875 7.46875 41.1875 3.015625 
Q 35.15625 -1.421875 24.609375 -1.421875 
Q 20.21875 -1.421875 15.453125 -0.5625 
Q 10.6875 0.296875 5.421875 2 
L 5.421875 11.28125 
Q 10.40625 8.6875 15.234375 7.390625 
Q 20.0625 6.109375 24.8125 6.109375 
Q 31.15625 6.109375 34.5625 8.28125 
Q 37.984375 10.453125 37.984375 14.40625 
Q 37.984375 18.0625 35.515625 20.015625 
Q 33.0625 21.96875 24.703125 23.78125 
L 21.578125 24.515625 
Q 13.234375 26.265625 9.515625 29.90625 
Q 5.8125 33.546875 5.8125 39.890625 
Q 5.8125 47.609375 11.28125 51.796875 
Q 16.75 56 26.8125 56 
Q 31.78125 56 36.171875 55.265625 
Q 40.578125 54.546875 44.28125 53.078125 
z
" id="DejaVuSans-115"/>
       <path d="M 18.3125 70.21875 
L 18.3125 54.6875 
L 36.8125 54.6875 
L 36.8125 47.703125 
L 18.3125 47.703125 
L 18.3125 18.015625 
Q 18.3125 11.328125 20.140625 9.421875 
Q 21.96875 7.515625 27.59375 7.515625 
L 36.8125 7.515625 
L 36.8125 0 
L 27.59375 0 
Q 17.1875 0 13.234375 3.875 
Q 9.28125 7.765625 9.28125 18.015625 
L 9.28125 47.703125 
L 2.6875 47.703125 
L 2.6875 54.6875 
L 9.28125 54.6875 
L 9.28125 70.21875 
z
" id="DejaVuSans-116"/>
       <path d="M 54.890625 33.015625 
L 54.890625 0 
L 45.90625 0 
L 45.90625 32.71875 
Q 45.90625 40.484375 42.875 44.328125 
Q 39.84375 48.1875 33.796875 48.1875 
Q 26.515625 48.1875 22.3125 43.546875 
Q 18.109375 38.921875 18.109375 30.90625 
L 18.109375 0 
L 9.078125 0 
L 9.078125 75.984375 
L 18.109375 75.984375 
L 18.109375 46.1875 
Q 21.34375 51.125 25.703125 53.5625 
Q 30.078125 56 35.796875 56 
Q 45.21875 56 50.046875 50.171875 
Q 54.890625 44.34375 54.890625 33.015625 
z
" id="DejaVuSans-104"/>
      </defs>
      <use xlink:href="#DejaVuSans-78"/>
      <use x="74.804688" xlink:href="#DejaVuSans-117"/>
      <use x="138.183594" xlink:href="#DejaVuSans-109"/>
      <use x="235.595703" xlink:href="#DejaVuSans-98"/>
      <use x="299.072266" xlink:href="#DejaVuSans-101"/>
      <use x="360.595703" xlink:href="#DejaVuSans-114"/>
      <use x="401.708984" xlink:href="#DejaVuSans-32"/>
      <use x="433.496094" xlink:href="#DejaVuSans-111"/>
      <use x="494.677734" xlink:href="#DejaVuSans-102"/>
      <use x="529.882812" xlink:href="#DejaVuSans-32"/>
      <use x="561.669922" xlink:href="#DejaVuSans-112"/>
      <use x="625.146484" xlink:href="#DejaVuSans-105"/>
      <use x="652.929688" xlink:href="#DejaVuSans-112"/>
      <use x="716.40625" xlink:href="#DejaVuSans-45"/>
      <use x="752.490234" xlink:href="#DejaVuSans-105"/>
      <use x="780.273438" xlink:href="#DejaVuSans-110"/>
      <use x="843.652344" xlink:href="#DejaVuSans-115"/>
      <use x="895.751953" xlink:href="#DejaVuSans-116"/>
      <use x="934.960938" xlink:href="#DejaVuSans-97"/>
      <use x="996.240234" xlink:href="#DejaVuSans-108"/>
      <use x="1024.023438" xlink:href="#DejaVuSans-108"/>
      <use x="1051.806641" xlink:href="#DejaVuSans-115"/>
      <use x="1103.90625" xlink:href="#DejaVuSans-32"/>
      <use x="1135.693359" xlink:href="#DejaVuSans-112"/>
      <use x="1199.169922" xlink:href="#DejaVuSans-101"/>
      <use x="1260.693359" xlink:href="#DejaVuSans-114"/>
      <use x="1301.806641" xlink:href="#DejaVuSans-32"/>
      <use x="1333.59375" xlink:href="#DejaVuSans-109"/>
      <use x="1431.005859" xlink:href="#DejaVuSans-111"/>
      <use x="1492.1875" xlink:href="#DejaVuSans-110"/>
      <use x="1555.566406" xlink:href="#DejaVuSans-116"/>
      <use x="1594.775391" xlink:href="#DejaVuSans-104"/>
     </g>
    </g>
   </g>
   <g id="line2d_51">
    <path clip-path="url(#p6ca9d217ab)" d="M -1 314.513634 
L -0.138462 314.447248 
L 8.446154 313.581874 
L 12.738462 312.680253 
L 17.030769 312.236239 
L 21.323077 312.499023 
L 25.615385 313.509382 
L 29.907692 314.207118 
L 34.2 314.333979 
L 51.369231 314.179933 
L 55.661538 313.876373 
L 59.953846 313.296436 
L 64.246154 312.304201 
L 68.538462 311.837533 
L 72.830769 312.245301 
L 77.123077 313.069898 
L 81.415385 312.625884 
L 85.707692 312.403877 
L 90 311.746918 
L 94.292308 312.716499 
L 98.584615 312.199993 
L 102.876923 312.422 
L 107.169231 312.190932 
L 111.461538 312.743684 
L 115.753846 312.761807 
L 120.046154 312.190932 
L 124.338462 312.041417 
L 128.630769 312.41747 
L 132.923077 312.983814 
L 137.215385 313.133329 
L 145.8 313.07896 
L 154.384615 312.775399 
L 158.676923 313.278313 
L 171.553846 312.965691 
L 180.138462 313.522974 
L 197.307692 314.256956 
L 201.6 314.025888 
L 210.184615 313.713266 
L 214.476923 313.85825 
L 218.769231 313.853719 
L 223.061538 313.966988 
L 227.353846 313.133329 
L 231.646154 313.192229 
L 235.938462 313.042714 
L 240.230769 313.781227 
L 244.523077 313.645304 
L 248.815385 313.341744 
L 257.4 313.645304 
L 261.692308 314.238833 
L 274.569231 313.31909 
L 287.446154 313.772165 
L 291.738462 313.781227 
L 296.030769 313.91715 
L 300.323077 313.803881 
L 304.615385 312.444654 
L 313.2 311.388988 
L 317.492308 312.607761 
L 321.784615 312.784461 
L 326.076923 313.368928 
L 330.369231 313.645304 
L 334.661538 312.621354 
L 343.246154 309.59934 
L 347.538462 309.925554 
L 351.830769 310.709375 
L 356.123077 311.148858 
L 360.415385 310.79999 
L 364.707692 309.680893 
L 369 308.149498 
L 373.292308 307.410985 
L 377.584615 306.201274 
L 381.876923 306.776679 
L 386.169231 307.125548 
L 390.461538 306.808395 
L 394.753846 305.784444 
L 399.046154 307.270532 
L 403.338462 309.653709 
L 407.630769 308.924257 
L 411.923077 304.733309 
L 416.215385 301.928771 
L 420.507692 300.805144 
L 424.8 300.524237 
L 429.092308 301.249158 
L 433.384615 299.622617 
L 437.676923 300.995436 
L 441.969231 301.158543 
L 446.261538 304.805801 
L 450.553846 305.965674 
L 454.846154 302.558546 
L 459.138462 300.383784 
L 463.430769 296.487335 
L 467.723077 299.862747 
L 472.015385 298.272452 
L 476.307692 297.289278 
L 480.6 296.731995 
L 484.892308 298.997373 
L 489.184615 284.76174 
L 493.476923 283.275653 
L 497.769231 285.391515 
L 502.061538 302.087348 
L 506.353846 295.839437 
L 510.646154 288.762397 
L 514.938462 280.774676 
L 519.230769 278.491175 
L 523.523077 280.570792 
L 527.815385 285.595399 
L 532.107692 290.968875 
L 536.4 288.218706 
L 540.692308 284.295073 
L 544.984615 275.360423 
L 549.276923 271.613489 
L 553.569231 268.586944 
L 557.861538 277.036803 
L 562.153846 275.709292 
L 566.446154 280.285354 
L 570.738462 278.926128 
L 575.030769 287.933269 
L 579.323077 293.130045 
L 583.615385 287.131325 
L 587.907692 283.361737 
L 592.2 274.164304 
L 596.492308 276.307351 
L 600.784615 272.379187 
L 605.076923 264.917033 
L 609.369231 263.766221 
L 613.661538 261.944857 
L 617.953846 272.487925 
L 622.246154 271.880803 
L 626.538462 274.13712 
L 630.830769 272.197956 
L 635.123077 271.124167 
L 639.415385 269.751349 
L 643.707692 257.676886 
L 648 260.019287 
L 648 260.019287 
" style="fill:none;stroke:#1f77b4;stroke-dasharray:1.5,2.475;stroke-dashoffset:0;stroke-width:1.5;"/>
   </g>
   <g id="line2d_52">
    <path clip-path="url(#p6ca9d217ab)" d="M -1 313.089418 
L -0.138462 312.952099 
L 4.153846 311.185104 
L 8.446154 311.185104 
L 12.738462 310.44206 
L 17.030769 311.225881 
L 21.323077 311.067305 
L 25.615385 311.592872 
L 29.907692 311.783164 
L 34.2 307.247878 
L 38.492308 307.071179 
L 42.784615 307.537846 
L 47.076923 312.648538 
L 51.369231 313.047245 
L 68.538462 312.095786 
L 72.830769 312.014232 
L 77.123077 312.535269 
L 81.415385 312.888668 
L 85.707692 313.613589 
L 94.292308 313.418766 
L 98.584615 313.024591 
L 102.876923 312.956629 
L 111.461538 313.205821 
L 115.753846 313.50032 
L 120.046154 313.541097 
L 128.630769 313.296436 
L 132.923077 313.088021 
L 154.384615 313.373459 
L 162.969231 313.246598 
L 167.261538 312.911322 
L 171.553846 312.843361 
L 175.846154 312.458246 
L 180.138462 312.702907 
L 184.430769 312.517146 
L 188.723077 312.752745 
L 193.015385 312.6576 
L 197.307692 313.115206 
L 205.892308 313.599997 
L 214.476923 313.486728 
L 218.769231 313.205821 
L 227.353846 312.811645 
L 231.646154 313.13786 
L 235.938462 313.323621 
L 240.230769 313.79935 
L 244.523077 313.908088 
L 248.815385 313.532035 
L 253.107692 312.943037 
L 257.4 312.743684 
L 265.984615 312.843361 
L 270.276923 312.639477 
L 274.569231 312.947568 
L 278.861538 312.83883 
L 283.153846 313.074429 
L 287.446154 312.399347 
L 291.738462 312.770868 
L 296.030769 312.716499 
L 300.323077 313.418766 
L 304.615385 313.581874 
L 308.907692 313.563751 
L 313.2 312.997406 
L 321.784615 312.96116 
L 326.076923 313.749512 
L 330.369231 313.935273 
L 334.661538 313.051775 
L 338.953846 311.669895 
L 343.246154 309.789632 
L 347.538462 310.31973 
L 351.830769 310.600637 
L 356.123077 311.543034 
L 364.707692 310.192869 
L 369 309.798693 
L 373.292308 309.776039 
L 377.584615 310.242707 
L 381.876923 310.011639 
L 386.169231 310.55986 
L 390.461538 310.886074 
L 394.753846 311.846594 
L 399.046154 312.585108 
L 403.338462 312.739153 
L 411.923077 310.310668 
L 416.215385 310.26083 
L 420.507692 311.185104 
L 424.8 311.416173 
L 429.092308 311.198696 
L 433.384615 311.126204 
L 437.676923 311.289312 
L 441.969231 310.238176 
L 446.261538 310.369568 
L 450.553846 310.763744 
L 454.846154 311.81941 
L 459.138462 311.388988 
L 467.723077 309.925554 
L 472.015385 308.915196 
L 476.307692 309.214226 
L 480.6 309.250472 
L 484.892308 309.544971 
L 489.184615 308.901604 
L 493.476923 308.607105 
L 497.769231 309.72167 
L 502.061538 310.355976 
L 506.353846 311.570218 
L 514.938462 311.742387 
L 519.230769 311.497726 
L 523.523077 311.026528 
L 532.107692 311.085428 
L 540.692308 309.304841 
L 544.984615 309.051119 
L 549.276923 309.830408 
L 553.569231 311.112612 
L 557.861538 312.064071 
L 562.153846 312.870545 
L 566.446154 312.335916 
L 570.738462 311.266658 
L 575.030769 310.482837 
L 579.323077 311.089958 
L 587.907692 312.086724 
L 592.2 310.473776 
L 596.492308 310.419407 
L 600.784615 310.206461 
L 605.076923 311.031059 
L 613.661538 311.017466 
L 617.953846 311.425234 
L 626.538462 311.633649 
L 630.830769 311.334619 
L 635.123077 309.558563 
L 643.707692 310.519083 
L 648 313.110675 
L 648 313.110675 
" style="fill:none;stroke:#ff7f0e;stroke-dasharray:1.5,2.475;stroke-dashoffset:0;stroke-width:1.5;"/>
   </g>
   <g id="line2d_53">
    <path clip-path="url(#p6ca9d217ab)" d="M -1 313.036007 
L -0.138462 312.884137 
L 4.153846 311.561157 
L 8.446154 311.660833 
L 12.738462 311.080897 
L 17.030769 311.543034 
L 21.323077 311.343681 
L 25.615385 311.443357 
L 29.907692 311.765041 
L 34.2 307.179917 
L 38.492308 307.605808 
L 42.784615 307.864061 
L 47.076923 313.056306 
L 51.369231 313.305498 
L 59.953846 313.427828 
L 64.246154 313.128798 
L 72.830769 312.807115 
L 85.707692 314.071195 
L 90 314.10291 
L 94.292308 313.92168 
L 98.584615 313.391582 
L 102.876923 313.228475 
L 107.169231 313.246598 
L 124.338462 313.867311 
L 132.923077 313.822004 
L 141.507692 313.966988 
L 145.8 313.817473 
L 150.092308 313.812942 
L 162.969231 314.134626 
L 167.261538 313.998703 
L 175.846154 313.178636 
L 180.138462 313.051775 
L 184.430769 313.255659 
L 193.015385 313.894496 
L 197.307692 314.075726 
L 201.6 314.021357 
L 205.892308 313.835596 
L 214.476923 313.790288 
L 227.353846 313.26019 
L 244.523077 314.333979 
L 248.815385 314.247895 
L 253.107692 314.374756 
L 257.4 313.826534 
L 261.692308 313.468605 
L 265.984615 312.811645 
L 270.276923 312.566984 
L 274.569231 312.83883 
L 283.153846 313.767635 
L 287.446154 313.604527 
L 304.615385 314.293202 
L 308.907692 314.179933 
L 317.492308 314.293202 
L 330.369231 314.660193 
L 334.661538 313.409705 
L 338.953846 312.915853 
L 343.246154 311.39805 
L 347.538462 312.526208 
L 351.830769 312.675723 
L 356.123077 313.74045 
L 364.707692 312.204524 
L 369 311.919087 
L 373.292308 312.267955 
L 377.584615 312.861484 
L 390.461538 312.290608 
L 394.753846 312.503554 
L 403.338462 313.459543 
L 407.630769 313.640773 
L 411.923077 313.051775 
L 420.507692 312.499023 
L 429.092308 312.680253 
L 433.384615 312.6576 
L 437.676923 312.847891 
L 441.969231 312.100317 
L 450.553846 312.5398 
L 454.846154 313.31909 
L 463.430769 312.83883 
L 467.723077 311.887371 
L 472.015385 311.434296 
L 476.307692 311.28025 
L 480.6 311.710672 
L 489.184615 312.018763 
L 493.476923 311.991579 
L 497.769231 312.766338 
L 502.061538 312.825238 
L 506.353846 313.690612 
L 514.938462 314.030418 
L 527.815385 313.853719 
L 532.107692 313.953396 
L 536.4 313.432359 
L 540.692308 313.074429 
L 544.984615 312.90226 
L 553.569231 313.79935 
L 557.861538 314.044011 
L 562.153846 314.166341 
L 575.030769 313.61812 
L 592.2 313.67702 
L 605.076923 314.044011 
L 609.369231 314.084787 
L 622.246154 313.663427 
L 626.538462 313.074429 
L 630.830769 311.919087 
L 635.123077 310.365038 
L 639.415385 309.998046 
L 643.707692 310.233646 
L 648 311.008405 
L 648 311.008405 
" style="fill:none;stroke:#2ca02c;stroke-dasharray:1.5,2.475;stroke-dashoffset:0;stroke-width:1.5;"/>
   </g>
   <g id="line2d_54">
    <path clip-path="url(#p6ca9d217ab)" d="M -1 315.045308 
L 201.6 314.963754 
L 214.476923 314.909385 
L 227.353846 314.723624 
L 235.938462 314.537863 
L 248.815385 314.768931 
L 253.107692 314.728155 
L 257.4 314.266018 
L 261.692308 313.210352 
L 265.984615 313.273782 
L 270.276923 313.477666 
L 274.569231 314.424594 
L 278.861538 314.261487 
L 283.153846 314.261487 
L 287.446154 313.015529 
L 291.738462 312.544331 
L 296.030769 312.639477 
L 304.615385 313.667958 
L 308.907692 313.663427 
L 313.2 314.324917 
L 321.784615 314.202587 
L 330.369231 314.619417 
L 334.661538 313.13786 
L 338.953846 312.032355 
L 343.246154 309.993516 
L 347.538462 310.91779 
L 351.830769 311.506788 
L 356.123077 312.363101 
L 364.707692 310.242707 
L 369 308.838173 
L 373.292308 308.666004 
L 377.584615 307.565031 
L 381.876923 304.135249 
L 386.169231 299.28281 
L 390.461538 293.800597 
L 394.753846 287.593462 
L 399.046154 293.374706 
L 403.338462 296.81808 
L 407.630769 300.632975 
L 411.923077 290.316446 
L 416.215385 284.476303 
L 420.507692 279.551372 
L 424.8 275.994729 
L 429.092308 269.570118 
L 433.384615 265.868491 
L 441.969231 267.939047 
L 446.261538 275.682107 
L 450.553846 284.884071 
L 454.846154 289.528095 
L 459.138462 290.737806 
L 463.430769 288.005761 
L 467.723077 287.231002 
L 472.015385 284.983747 
L 476.307692 279.741664 
L 480.6 284.367565 
L 484.892308 277.616739 
L 489.184615 279.936486 
L 493.476923 273.434852 
L 497.769231 283.012869 
L 502.061538 272.755239 
L 506.353846 261.89955 
L 510.646154 241.805651 
L 514.938462 218.617246 
L 519.230769 103.957426 
L 523.523077 71.811719 
L 527.815385 71.485504 
L 532.107692 170.813249 
L 536.4 158.824871 
L 540.692308 157.293476 
L 544.984615 169.666968 
L 549.276923 193.743401 
L 553.569231 202.211382 
L 557.861538 216.927275 
L 562.153846 225.499463 
L 566.446154 192.90068 
L 570.738462 123.217666 
L 575.030769 105.135423 
L 579.323077 136.094072 
L 583.615385 172.879273 
L 587.907692 176.51747 
L 592.2 156.591209 
L 596.492308 139.541977 
L 600.784615 119.873969 
L 605.076923 98.357413 
L 609.369231 93.187821 
L 613.661538 104.143187 
L 617.953846 152.613206 
L 622.246154 183.580917 
L 626.538462 194.056023 
L 630.830769 165.158866 
L 635.123077 145.354936 
L 639.415385 124.413786 
L 643.707692 132.378853 
L 648 159.42293 
L 648 159.42293 
" style="fill:none;stroke:#d62728;stroke-linecap:square;stroke-width:1.5;"/>
   </g>
   <g id="line2d_55">
    <path clip-path="url(#p6ca9d217ab)" d="M -1 315.045308 
L 343.246154 315.004531 
L 347.538462 310.899667 
L 351.830769 309.708078 
L 356.123077 306.894479 
L 360.415385 305.526191 
L 364.707692 301.960487 
L 369 301.113236 
L 373.292308 302.617446 
L 377.584615 304.243987 
L 381.876923 301.045274 
L 386.169231 296.351412 
L 390.461538 287.969515 
L 394.753846 277.879523 
L 399.046154 284.000573 
L 403.338462 286.719027 
L 407.630769 293.469852 
L 411.923077 281.318366 
L 416.215385 275.786314 
L 420.507692 272.392779 
L 424.8 269.592772 
L 429.092308 259.86071 
L 433.384615 253.01927 
L 437.676923 252.212795 
L 441.969231 259.117666 
L 446.261538 261.142914 
L 450.553846 272.179833 
L 454.846154 277.430978 
L 459.138462 281.490535 
L 463.430769 273.887928 
L 467.723077 264.871725 
L 472.015385 253.576553 
L 476.307692 245.15841 
L 480.6 249.48075 
L 484.892308 246.590128 
L 489.184615 255.397916 
L 493.476923 252.439333 
L 497.769231 271.61802 
L 506.353846 254.047751 
L 510.646154 225.476809 
L 514.938462 189.112969 
L 519.230769 70.760583 
L 523.523077 46.403244 
L 527.815385 58.871882 
L 532.107692 164.316146 
L 536.4 151.761424 
L 540.692308 151.054626 
L 544.984615 163.43718 
L 549.276923 187.31879 
L 553.569231 194.114922 
L 557.861538 207.435343 
L 562.153846 215.087788 
L 566.446154 185.733026 
L 570.738462 114.835769 
L 575.030769 100.138 
L 579.323077 131.182734 
L 583.615385 171.189302 
L 587.907692 175.393842 
L 592.2 155.245574 
L 596.492308 138.209935 
L 600.784615 118.664257 
L 605.076923 97.56 
L 609.369231 91.91921 
L 613.661538 100.871982 
L 617.953846 150.973072 
L 622.246154 185.719433 
L 626.538462 198.71817 
L 630.830769 167.116153 
L 639.415385 121.609248 
L 643.707692 129.587908 
L 648 156.052049 
L 648 156.052049 
" style="fill:none;stroke:#9467bd;stroke-linecap:square;stroke-width:1.5;"/>
   </g>
   <g id="line2d_56">
    <path clip-path="url(#p6ca9d217ab)" d="M -1 315.045308 
L 373.292308 315.009062 
L 377.584615 314.891262 
L 381.876923 313.667958 
L 386.169231 313.015529 
L 390.461538 312.834299 
L 394.753846 313.405174 
L 399.046154 314.093849 
L 403.338462 314.311325 
L 407.630769 314.900323 
L 416.215385 314.628478 
L 420.507692 313.183167 
L 429.092308 309.794162 
L 433.384615 309.023934 
L 437.676923 308.036229 
L 446.261538 309.187041 
L 450.553846 311.15792 
L 454.846154 310.278953 
L 459.138462 310.963097 
L 463.430769 310.990282 
L 467.723077 312.548861 
L 472.015385 312.734622 
L 476.307692 312.607761 
L 480.6 312.326854 
L 484.892308 309.042057 
L 489.184615 307.74173 
L 493.476923 304.488648 
L 497.769231 307.229755 
L 502.061538 308.235583 
L 506.353846 311.64271 
L 510.646154 310.623291 
L 514.938462 309.95727 
L 519.230769 309.123611 
L 523.523077 310.183807 
L 527.815385 310.985751 
L 532.107692 311.438826 
L 536.4 310.822644 
L 540.692308 309.970862 
L 544.984615 309.694486 
L 549.276923 309.78057 
L 553.569231 310.67766 
L 557.861538 311.70161 
L 562.153846 311.117143 
L 566.446154 310.664067 
L 570.738462 308.933319 
L 575.030769 308.443997 
L 579.323077 306.414219 
L 583.615385 305.104831 
L 587.907692 306.368911 
L 592.2 307.882184 
L 596.492308 309.89837 
L 600.784615 310.650475 
L 605.076923 310.423937 
L 609.369231 308.321667 
L 613.661538 306.690595 
L 617.953846 307.891245 
L 622.246154 308.453059 
L 626.538462 308.090598 
L 630.830769 306.831049 
L 635.123077 307.19804 
L 639.415385 308.611635 
L 643.707692 309.490602 
L 648 310.587045 
L 648 310.587045 
" style="fill:none;stroke:#8c564b;stroke-linecap:square;stroke-width:1.5;"/>
   </g>
   <g id="line2d_57">
    <path clip-path="url(#p6ca9d217ab)" d="M -1 315.045308 
L 351.830769 314.954692 
L 360.415385 314.950162 
L 416.215385 314.845954 
L 424.8 314.823301 
L 433.384615 314.977346 
L 459.138462 314.959223 
L 463.430769 314.823301 
L 480.6 314.855016 
L 489.184615 314.411002 
L 493.476923 314.343041 
L 497.769231 314.51974 
L 506.353846 314.555986 
L 510.646154 314.64207 
L 514.938462 314.909385 
L 519.230769 314.954692 
L 532.107692 314.601294 
L 540.692308 314.130095 
L 544.984615 312.974752 
L 549.276923 312.236239 
L 553.569231 311.647241 
L 557.861538 312.249832 
L 562.153846 312.17734 
L 566.446154 312.644007 
L 570.738462 312.66213 
L 575.030769 313.391582 
L 579.323077 310.790928 
L 583.615385 307.836876 
L 587.907692 305.530722 
L 592.2 306.074412 
L 596.492308 306.953379 
L 600.784615 308.380567 
L 605.076923 309.395456 
L 609.369231 310.596106 
L 613.661538 309.513256 
L 617.953846 309.368271 
L 622.246154 308.507428 
L 626.538462 309.196103 
L 630.830769 308.489305 
L 635.123077 308.326198 
L 639.415385 307.238816 
L 643.707692 304.955316 
L 648 304.040103 
L 648 304.040103 
" style="fill:none;stroke:#e377c2;stroke-linecap:square;stroke-width:1.5;"/>
   </g>
   <g id="line2d_58">
    <path clip-path="url(#p6ca9d217ab)" d="M -1 315.045308 
L 433.384615 314.986408 
L 450.553846 314.673786 
L 454.846154 314.415533 
L 459.138462 314.415533 
L 463.430769 314.569578 
L 467.723077 314.895793 
L 476.307692 314.845954 
L 502.061538 314.836893 
L 510.646154 314.927508 
L 527.815385 314.678316 
L 544.984615 314.873139 
L 553.569231 314.723624 
L 557.861538 314.773462 
L 562.153846 314.605824 
L 566.446154 314.714562 
L 579.323077 314.737216 
L 583.615385 314.483494 
L 592.2 314.442717 
L 600.784615 314.841424 
L 609.369231 314.673786 
L 613.661538 314.188995 
L 617.953846 314.256956 
L 622.246154 313.894496 
L 626.538462 313.387051 
L 630.830769 312.471839 
L 635.123077 312.553392 
L 639.415385 313.097083 
L 643.707692 313.826534 
L 648 314.238833 
L 648 314.238833 
" style="fill:none;stroke:#7f7f7f;stroke-linecap:square;stroke-width:1.5;"/>
   </g>
   <g id="line2d_59">
    <path clip-path="url(#p6ca9d217ab)" d="M -1 315.045308 
L 463.430769 315.045308 
L 467.723077 314.8822 
L 480.6 313.98058 
L 484.892308 314.025888 
L 489.184615 313.91715 
L 497.769231 314.225241 
L 502.061538 301.43945 
L 506.353846 291.186351 
L 510.646154 277.358486 
L 514.938462 272.274979 
L 519.230769 247.170065 
L 523.523077 210.819817 
L 527.815385 195.859263 
L 532.107692 201.953129 
L 536.4 192.846311 
L 540.692308 193.326571 
L 544.984615 211.762214 
L 549.276923 243.341577 
L 553.569231 257.192095 
L 557.861538 268.133869 
L 562.153846 275.849745 
L 566.446154 237.882017 
L 570.738462 172.371829 
L 575.030769 155.99768 
L 579.323077 189.185461 
L 583.615385 237.247711 
L 587.907692 257.264587 
L 592.2 254.183674 
L 596.492308 240.71827 
L 600.784615 207.027575 
L 605.076923 190.97964 
L 609.369231 208.432109 
L 613.661538 220.443141 
L 617.953846 250.758423 
L 622.246154 255.053579 
L 626.538462 271.214782 
L 630.830769 248.823791 
L 635.123077 223.827615 
L 639.415385 218.839253 
L 643.707692 237.066481 
L 648 260.88013 
L 648 260.88013 
" style="fill:none;stroke:#bcbd22;stroke-linecap:square;stroke-width:1.5;"/>
   </g>
   <g id="line2d_60">
    <path clip-path="url(#p6ca9d217ab)" d="M -1 315.045308 
L 506.353846 314.945631 
L 523.523077 314.868608 
L 527.815385 314.728155 
L 532.107692 314.787055 
L 536.4 314.728155 
L 540.692308 314.388348 
L 544.984615 313.545628 
L 549.276923 304.937193 
L 553.569231 295.581184 
L 557.861538 294.208365 
L 562.153846 281.785034 
L 566.446154 234.742204 
L 570.738462 171.506454 
L 575.030769 155.177613 
L 579.323077 186.820407 
L 583.615385 233.441877 
L 587.907692 253.368138 
L 592.2 250.355186 
L 596.492308 236.785574 
L 600.784615 203.09941 
L 605.076923 187.998403 
L 609.369231 205.219803 
L 613.661538 217.552519 
L 617.953846 247.68204 
L 622.246154 252.466518 
L 626.538462 268.296976 
L 630.830769 245.575239 
L 635.123077 220.660617 
L 639.415385 214.815943 
L 643.707692 232.517603 
L 648 256.829635 
L 648 256.829635 
" style="fill:none;stroke:#17becf;stroke-linecap:square;stroke-width:1.5;"/>
   </g>
   <g id="line2d_61">
    <path clip-path="url(#p6ca9d217ab)" d="M -1 315.045308 
L 519.230769 315.045308 
L 523.523077 314.895793 
L 527.815385 314.560517 
L 532.107692 314.370225 
L 536.4 314.451779 
L 540.692308 314.773462 
L 549.276923 314.809708 
L 553.569231 314.601294 
L 557.861538 314.710032 
L 562.153846 314.383817 
L 566.446154 314.574109 
L 579.323077 314.601294 
L 583.615385 313.50032 
L 587.907692 312.739153 
L 592.2 312.218116 
L 596.492308 312.861484 
L 600.784615 313.636243 
L 609.369231 314.40194 
L 613.661538 314.574109 
L 617.953846 314.574109 
L 622.246154 314.320387 
L 626.538462 313.944334 
L 635.123077 313.912619 
L 639.415385 313.006468 
L 643.707692 311.688018 
L 648 310.587045 
L 648 310.587045 
" style="fill:none;stroke:#1f77b4;stroke-linecap:square;stroke-width:1.5;"/>
   </g>
   <g id="patch_3">
    <path d="M 90 315 
L 90 43.2 
" style="fill:none;stroke:#000000;stroke-linecap:square;stroke-linejoin:miter;stroke-width:0.8;"/>
   </g>
   <g id="patch_4">
    <path d="M 648 315 
L 648 43.2 
" style="fill:none;stroke:#000000;stroke-linecap:square;stroke-linejoin:miter;stroke-width:0.8;"/>
   </g>
   <g id="patch_5">
    <path d="M 90 315 
L 648 315 
" style="fill:none;stroke:#000000;stroke-linecap:square;stroke-linejoin:miter;stroke-width:0.8;"/>
   </g>
   <g id="patch_6">
    <path d="M 90 43.2 
L 648 43.2 
" style="fill:none;stroke:#000000;stroke-linecap:square;stroke-linejoin:miter;stroke-width:0.8;"/>
   </g>
   <g id="legend_1">
    <g id="patch_7">
     <path d="M 97 212.659375 
L 211.015625 212.659375 
Q 213.015625 212.659375 213.015625 210.659375 
L 213.015625 50.2 
Q 213.015625 48.2 211.015625 48.2 
L 97 48.2 
Q 95 48.2 95 50.2 
L 95 210.659375 
Q 95 212.659375 97 212.659375 
z
" style="fill:#ffffff;opacity:0.8;stroke:#cccccc;stroke-linejoin:miter;"/>
    </g>
    <g id="line2d_62">
     <path d="M 99 56.298437 
L 119 56.298437 
" style="fill:none;stroke:#1f77b4;stroke-dasharray:1.5,2.475;stroke-dashoffset:0;stroke-width:1.5;"/>
    </g>
    <g id="line2d_63"/>
    <g id="text_16">
     <!-- iminuit -->
     <g transform="translate(127 59.798437)scale(0.1 -0.1)">
      <use xlink:href="#DejaVuSans-105"/>
      <use x="27.783203" xlink:href="#DejaVuSans-109"/>
      <use x="125.195312" xlink:href="#DejaVuSans-105"/>
      <use x="152.978516" xlink:href="#DejaVuSans-110"/>
      <use x="216.357422" xlink:href="#DejaVuSans-117"/>
      <use x="279.736328" xlink:href="#DejaVuSans-105"/>
      <use x="307.519531" xlink:href="#DejaVuSans-116"/>
     </g>
    </g>
    <g id="line2d_64">
     <path d="M 99 70.976562 
L 119 70.976562 
" style="fill:none;stroke:#ff7f0e;stroke-dasharray:1.5,2.475;stroke-dashoffset:0;stroke-width:1.5;"/>
    </g>
    <g id="line2d_65"/>
    <g id="text_17">
     <!-- root-numpy -->
     <g transform="translate(127 74.476562)scale(0.1 -0.1)">
      <defs>
       <path d="M 32.171875 -5.078125 
Q 28.375 -14.84375 24.75 -17.8125 
Q 21.140625 -20.796875 15.09375 -20.796875 
L 7.90625 -20.796875 
L 7.90625 -13.28125 
L 13.1875 -13.28125 
Q 16.890625 -13.28125 18.9375 -11.515625 
Q 21 -9.765625 23.484375 -3.21875 
L 25.09375 0.875 
L 2.984375 54.6875 
L 12.5 54.6875 
L 29.59375 11.921875 
L 46.6875 54.6875 
L 56.203125 54.6875 
z
" id="DejaVuSans-121"/>
      </defs>
      <use xlink:href="#DejaVuSans-114"/>
      <use x="38.863281" xlink:href="#DejaVuSans-111"/>
      <use x="100.044922" xlink:href="#DejaVuSans-111"/>
      <use x="161.226562" xlink:href="#DejaVuSans-116"/>
      <use x="200.435547" xlink:href="#DejaVuSans-45"/>
      <use x="236.519531" xlink:href="#DejaVuSans-110"/>
      <use x="299.898438" xlink:href="#DejaVuSans-117"/>
      <use x="363.277344" xlink:href="#DejaVuSans-109"/>
      <use x="460.689453" xlink:href="#DejaVuSans-112"/>
      <use x="524.166016" xlink:href="#DejaVuSans-121"/>
     </g>
    </g>
    <g id="line2d_66">
     <path d="M 99 85.654688 
L 119 85.654688 
" style="fill:none;stroke:#2ca02c;stroke-dasharray:1.5,2.475;stroke-dashoffset:0;stroke-width:1.5;"/>
    </g>
    <g id="line2d_67"/>
    <g id="text_18">
     <!-- rootpy -->
     <g transform="translate(127 89.154688)scale(0.1 -0.1)">
      <use xlink:href="#DejaVuSans-114"/>
      <use x="38.863281" xlink:href="#DejaVuSans-111"/>
      <use x="100.044922" xlink:href="#DejaVuSans-111"/>
      <use x="161.226562" xlink:href="#DejaVuSans-116"/>
      <use x="200.435547" xlink:href="#DejaVuSans-112"/>
      <use x="263.912109" xlink:href="#DejaVuSans-121"/>
     </g>
    </g>
    <g id="line2d_68">
     <path d="M 99 100.332812 
L 119 100.332812 
" style="fill:none;stroke:#d62728;stroke-linecap:square;stroke-width:1.5;"/>
    </g>
    <g id="line2d_69"/>
    <g id="text_19">
     <!-- uproot -->
     <g transform="translate(127 103.832812)scale(0.1 -0.1)">
      <use xlink:href="#DejaVuSans-117"/>
      <use x="63.378906" xlink:href="#DejaVuSans-112"/>
      <use x="126.855469" xlink:href="#DejaVuSans-114"/>
      <use x="165.71875" xlink:href="#DejaVuSans-111"/>
      <use x="226.900391" xlink:href="#DejaVuSans-111"/>
      <use x="288.082031" xlink:href="#DejaVuSans-116"/>
     </g>
    </g>
    <g id="line2d_70">
     <path d="M 99 115.010938 
L 119 115.010938 
" style="fill:none;stroke:#9467bd;stroke-linecap:square;stroke-width:1.5;"/>
    </g>
    <g id="line2d_71"/>
    <g id="text_20">
     <!-- awkward -->
     <g transform="translate(127 118.510938)scale(0.1 -0.1)">
      <defs>
       <path d="M 4.203125 54.6875 
L 13.1875 54.6875 
L 24.421875 12.015625 
L 35.59375 54.6875 
L 46.1875 54.6875 
L 57.421875 12.015625 
L 68.609375 54.6875 
L 77.59375 54.6875 
L 63.28125 0 
L 52.6875 0 
L 40.921875 44.828125 
L 29.109375 0 
L 18.5 0 
z
" id="DejaVuSans-119"/>
       <path d="M 9.078125 75.984375 
L 18.109375 75.984375 
L 18.109375 31.109375 
L 44.921875 54.6875 
L 56.390625 54.6875 
L 27.390625 29.109375 
L 57.625 0 
L 45.90625 0 
L 18.109375 26.703125 
L 18.109375 0 
L 9.078125 0 
z
" id="DejaVuSans-107"/>
       <path d="M 45.40625 46.390625 
L 45.40625 75.984375 
L 54.390625 75.984375 
L 54.390625 0 
L 45.40625 0 
L 45.40625 8.203125 
Q 42.578125 3.328125 38.25 0.953125 
Q 33.9375 -1.421875 27.875 -1.421875 
Q 17.96875 -1.421875 11.734375 6.484375 
Q 5.515625 14.40625 5.515625 27.296875 
Q 5.515625 40.1875 11.734375 48.09375 
Q 17.96875 56 27.875 56 
Q 33.9375 56 38.25 53.625 
Q 42.578125 51.265625 45.40625 46.390625 
z
M 14.796875 27.296875 
Q 14.796875 17.390625 18.875 11.75 
Q 22.953125 6.109375 30.078125 6.109375 
Q 37.203125 6.109375 41.296875 11.75 
Q 45.40625 17.390625 45.40625 27.296875 
Q 45.40625 37.203125 41.296875 42.84375 
Q 37.203125 48.484375 30.078125 48.484375 
Q 22.953125 48.484375 18.875 42.84375 
Q 14.796875 37.203125 14.796875 27.296875 
z
" id="DejaVuSans-100"/>
      </defs>
      <use xlink:href="#DejaVuSans-97"/>
      <use x="61.279297" xlink:href="#DejaVuSans-119"/>
      <use x="143.066406" xlink:href="#DejaVuSans-107"/>
      <use x="200.976562" xlink:href="#DejaVuSans-119"/>
      <use x="282.763672" xlink:href="#DejaVuSans-97"/>
      <use x="344.042969" xlink:href="#DejaVuSans-114"/>
      <use x="383.40625" xlink:href="#DejaVuSans-100"/>
     </g>
    </g>
    <g id="line2d_72">
     <path d="M 99 129.689062 
L 119 129.689062 
" style="fill:none;stroke:#8c564b;stroke-linecap:square;stroke-width:1.5;"/>
    </g>
    <g id="line2d_73"/>
    <g id="text_21">
     <!-- fast-carpenter -->
     <g transform="translate(127 133.189062)scale(0.1 -0.1)">
      <defs>
       <path d="M 48.78125 52.59375 
L 48.78125 44.1875 
Q 44.96875 46.296875 41.140625 47.34375 
Q 37.3125 48.390625 33.40625 48.390625 
Q 24.65625 48.390625 19.8125 42.84375 
Q 14.984375 37.3125 14.984375 27.296875 
Q 14.984375 17.28125 19.8125 11.734375 
Q 24.65625 6.203125 33.40625 6.203125 
Q 37.3125 6.203125 41.140625 7.25 
Q 44.96875 8.296875 48.78125 10.40625 
L 48.78125 2.09375 
Q 45.015625 0.34375 40.984375 -0.53125 
Q 36.96875 -1.421875 32.421875 -1.421875 
Q 20.0625 -1.421875 12.78125 6.34375 
Q 5.515625 14.109375 5.515625 27.296875 
Q 5.515625 40.671875 12.859375 48.328125 
Q 20.21875 56 33.015625 56 
Q 37.15625 56 41.109375 55.140625 
Q 45.0625 54.296875 48.78125 52.59375 
z
" id="DejaVuSans-99"/>
      </defs>
      <use xlink:href="#DejaVuSans-102"/>
      <use x="35.205078" xlink:href="#DejaVuSans-97"/>
      <use x="96.484375" xlink:href="#DejaVuSans-115"/>
      <use x="148.583984" xlink:href="#DejaVuSans-116"/>
      <use x="187.792969" xlink:href="#DejaVuSans-45"/>
      <use x="223.876953" xlink:href="#DejaVuSans-99"/>
      <use x="278.857422" xlink:href="#DejaVuSans-97"/>
      <use x="340.136719" xlink:href="#DejaVuSans-114"/>
      <use x="381.25" xlink:href="#DejaVuSans-112"/>
      <use x="444.726562" xlink:href="#DejaVuSans-101"/>
      <use x="506.25" xlink:href="#DejaVuSans-110"/>
      <use x="569.628906" xlink:href="#DejaVuSans-116"/>
      <use x="608.837891" xlink:href="#DejaVuSans-101"/>
      <use x="670.361328" xlink:href="#DejaVuSans-114"/>
     </g>
    </g>
    <g id="line2d_74">
     <path d="M 99 144.367188 
L 119 144.367188 
" style="fill:none;stroke:#e377c2;stroke-linecap:square;stroke-width:1.5;"/>
    </g>
    <g id="line2d_75"/>
    <g id="text_22">
     <!-- pyhf -->
     <g transform="translate(127 147.867188)scale(0.1 -0.1)">
      <use xlink:href="#DejaVuSans-112"/>
      <use x="63.476562" xlink:href="#DejaVuSans-121"/>
      <use x="122.65625" xlink:href="#DejaVuSans-104"/>
      <use x="186.035156" xlink:href="#DejaVuSans-102"/>
     </g>
    </g>
    <g id="line2d_76">
     <path d="M 99 159.045312 
L 119 159.045312 
" style="fill:none;stroke:#7f7f7f;stroke-linecap:square;stroke-width:1.5;"/>
    </g>
    <g id="line2d_77"/>
    <g id="text_23">
     <!-- zfit -->
     <g transform="translate(127 162.545312)scale(0.1 -0.1)">
      <defs>
       <path d="M 5.515625 54.6875 
L 48.1875 54.6875 
L 48.1875 46.484375 
L 14.40625 7.171875 
L 48.1875 7.171875 
L 48.1875 0 
L 4.296875 0 
L 4.296875 8.203125 
L 38.09375 47.515625 
L 5.515625 47.515625 
z
" id="DejaVuSans-122"/>
      </defs>
      <use xlink:href="#DejaVuSans-122"/>
      <use x="52.490234" xlink:href="#DejaVuSans-102"/>
      <use x="87.695312" xlink:href="#DejaVuSans-105"/>
      <use x="115.478516" xlink:href="#DejaVuSans-116"/>
     </g>
    </g>
    <g id="line2d_78">
     <path d="M 99 173.723437 
L 119 173.723437 
" style="fill:none;stroke:#bcbd22;stroke-linecap:square;stroke-width:1.5;"/>
    </g>
    <g id="line2d_79"/>
    <g id="text_24">
     <!-- coffea -->
     <g transform="translate(127 177.223437)scale(0.1 -0.1)">
      <use xlink:href="#DejaVuSans-99"/>
      <use x="54.980469" xlink:href="#DejaVuSans-111"/>
      <use x="116.162109" xlink:href="#DejaVuSans-102"/>
      <use x="151.367188" xlink:href="#DejaVuSans-102"/>
      <use x="186.572266" xlink:href="#DejaVuSans-101"/>
      <use x="248.095703" xlink:href="#DejaVuSans-97"/>
     </g>
    </g>
    <g id="line2d_80">
     <path d="M 99 188.401562 
L 119 188.401562 
" style="fill:none;stroke:#17becf;stroke-linecap:square;stroke-width:1.5;"/>
    </g>
    <g id="line2d_81"/>
    <g id="text_25">
     <!-- mplhep -->
     <g transform="translate(127 191.901562)scale(0.1 -0.1)">
      <use xlink:href="#DejaVuSans-109"/>
      <use x="97.412109" xlink:href="#DejaVuSans-112"/>
      <use x="160.888672" xlink:href="#DejaVuSans-108"/>
      <use x="188.671875" xlink:href="#DejaVuSans-104"/>
      <use x="252.050781" xlink:href="#DejaVuSans-101"/>
      <use x="313.574219" xlink:href="#DejaVuSans-112"/>
     </g>
    </g>
    <g id="line2d_82">
     <path d="M 99 203.079687 
L 119 203.079687 
" style="fill:none;stroke:#1f77b4;stroke-linecap:square;stroke-width:1.5;"/>
    </g>
    <g id="line2d_83"/>
    <g id="text_26">
     <!-- boost-histogram -->
     <g transform="translate(127 206.579687)scale(0.1 -0.1)">
      <defs>
       <path d="M 45.40625 27.984375 
Q 45.40625 37.75 41.375 43.109375 
Q 37.359375 48.484375 30.078125 48.484375 
Q 22.859375 48.484375 18.828125 43.109375 
Q 14.796875 37.75 14.796875 27.984375 
Q 14.796875 18.265625 18.828125 12.890625 
Q 22.859375 7.515625 30.078125 7.515625 
Q 37.359375 7.515625 41.375 12.890625 
Q 45.40625 18.265625 45.40625 27.984375 
z
M 54.390625 6.78125 
Q 54.390625 -7.171875 48.1875 -13.984375 
Q 42 -20.796875 29.203125 -20.796875 
Q 24.46875 -20.796875 20.265625 -20.09375 
Q 16.0625 -19.390625 12.109375 -17.921875 
L 12.109375 -9.1875 
Q 16.0625 -11.328125 19.921875 -12.34375 
Q 23.78125 -13.375 27.78125 -13.375 
Q 36.625 -13.375 41.015625 -8.765625 
Q 45.40625 -4.15625 45.40625 5.171875 
L 45.40625 9.625 
Q 42.625 4.78125 38.28125 2.390625 
Q 33.9375 0 27.875 0 
Q 17.828125 0 11.671875 7.65625 
Q 5.515625 15.328125 5.515625 27.984375 
Q 5.515625 40.671875 11.671875 48.328125 
Q 17.828125 56 27.875 56 
Q 33.9375 56 38.28125 53.609375 
Q 42.625 51.21875 45.40625 46.390625 
L 45.40625 54.6875 
L 54.390625 54.6875 
z
" id="DejaVuSans-103"/>
      </defs>
      <use xlink:href="#DejaVuSans-98"/>
      <use x="63.476562" xlink:href="#DejaVuSans-111"/>
      <use x="124.658203" xlink:href="#DejaVuSans-111"/>
      <use x="185.839844" xlink:href="#DejaVuSans-115"/>
      <use x="237.939453" xlink:href="#DejaVuSans-116"/>
      <use x="277.148438" xlink:href="#DejaVuSans-45"/>
      <use x="313.232422" xlink:href="#DejaVuSans-104"/>
      <use x="376.611328" xlink:href="#DejaVuSans-105"/>
      <use x="404.394531" xlink:href="#DejaVuSans-115"/>
      <use x="456.494141" xlink:href="#DejaVuSans-116"/>
      <use x="495.703125" xlink:href="#DejaVuSans-111"/>
      <use x="556.884766" xlink:href="#DejaVuSans-103"/>
      <use x="620.361328" xlink:href="#DejaVuSans-114"/>
      <use x="661.474609" xlink:href="#DejaVuSans-97"/>
      <use x="722.753906" xlink:href="#DejaVuSans-109"/>
     </g>
    </g>
   </g>
  </g>
 </g>
 <defs>
  <clipPath id="p6ca9d217ab">
   <rect height="271.8" width="558" x="90" y="43.2"/>
  </clipPath>
 </defs>
</svg>
