<?xml version="1.0" encoding="utf-8" standalone="no"?>
<!DOCTYPE svg PUBLIC "-//W3C//DTD SVG 1.1//EN"
  "http://www.w3.org/Graphics/SVG/1.1/DTD/svg11.dtd">
<!-- Created with matplotlib (https://matplotlib.org/) -->
<svg height="360pt" version="1.1" viewBox="0 0 720 360" width="720pt" xmlns="http://www.w3.org/2000/svg" xmlns:xlink="http://www.w3.org/1999/xlink">
 <metadata>
  <rdf:RDF xmlns:cc="http://creativecommons.org/ns#" xmlns:dc="http://purl.org/dc/elements/1.1/" xmlns:rdf="http://www.w3.org/1999/02/22-rdf-syntax-ns#">
   <cc:Work>
    <dc:type rdf:resource="http://purl.org/dc/dcmitype/StillImage"/>
    <dc:date>2020-10-13T23:38:32.938481</dc:date>
    <dc:format>image/svg+xml</dc:format>
    <dc:creator>
     <cc:Agent>
      <dc:title>Matplotlib v3.3.0, https://matplotlib.org/</dc:title>
     </cc:Agent>
    </dc:creator>
   </cc:Work>
  </rdf:RDF>
 </metadata>
 <defs>
  <style type="text/css">*{stroke-linecap:butt;stroke-linejoin:round;}</style>
 </defs>
 <g id="figure_1">
  <g id="patch_1">
   <path d="M 0 360 
L 720 360 
L 720 0 
L 0 0 
z
" style="fill:none;"/>
  </g>
  <g id="axes_1">
   <g id="patch_2">
    <path d="M 90 315 
L 648 315 
L 648 43.2 
L 90 43.2 
z
" style="fill:#ffffff;"/>
   </g>
   <g id="matplotlib.axis_1">
    <g id="xtick_1">
     <g id="line2d_1">
      <defs>
       <path d="M 0 0 
L 0 3.5 
" id="m30f6ae58c5" style="stroke:#000000;stroke-width:0.8;"/>
      </defs>
      <g>
       <use style="stroke:#000000;stroke-width:0.8;" x="90" xlink:href="#m30f6ae58c5" y="315"/>
      </g>
     </g>
     <g id="text_1">
      <!-- Jan -->
      <g transform="translate(82.292187 329.598437)scale(0.1 -0.1)">
       <defs>
        <path d="M 9.8125 72.90625 
L 19.671875 72.90625 
L 19.671875 5.078125 
Q 19.671875 -8.109375 14.671875 -14.0625 
Q 9.671875 -20.015625 -1.421875 -20.015625 
L -5.171875 -20.015625 
L -5.171875 -11.71875 
L -2.09375 -11.71875 
Q 4.4375 -11.71875 7.125 -8.046875 
Q 9.8125 -4.390625 9.8125 5.078125 
z
" id="DejaVuSans-74"/>
        <path d="M 34.28125 27.484375 
Q 23.390625 27.484375 19.1875 25 
Q 14.984375 22.515625 14.984375 16.5 
Q 14.984375 11.71875 18.140625 8.90625 
Q 21.296875 6.109375 26.703125 6.109375 
Q 34.1875 6.109375 38.703125 11.40625 
Q 43.21875 16.703125 43.21875 25.484375 
L 43.21875 27.484375 
z
M 52.203125 31.203125 
L 52.203125 0 
L 43.21875 0 
L 43.21875 8.296875 
Q 40.140625 3.328125 35.546875 0.953125 
Q 30.953125 -1.421875 24.3125 -1.421875 
Q 15.921875 -1.421875 10.953125 3.296875 
Q 6 8.015625 6 15.921875 
Q 6 25.140625 12.171875 29.828125 
Q 18.359375 34.515625 30.609375 34.515625 
L 43.21875 34.515625 
L 43.21875 35.40625 
Q 43.21875 41.609375 39.140625 45 
Q 35.0625 48.390625 27.6875 48.390625 
Q 23 48.390625 18.546875 47.265625 
Q 14.109375 46.140625 10.015625 43.890625 
L 10.015625 52.203125 
Q 14.9375 54.109375 19.578125 55.046875 
Q 24.21875 56 28.609375 56 
Q 40.484375 56 46.34375 49.84375 
Q 52.203125 43.703125 52.203125 31.203125 
z
" id="DejaVuSans-97"/>
        <path d="M 54.890625 33.015625 
L 54.890625 0 
L 45.90625 0 
L 45.90625 32.71875 
Q 45.90625 40.484375 42.875 44.328125 
Q 39.84375 48.1875 33.796875 48.1875 
Q 26.515625 48.1875 22.3125 43.546875 
Q 18.109375 38.921875 18.109375 30.90625 
L 18.109375 0 
L 9.078125 0 
L 9.078125 54.6875 
L 18.109375 54.6875 
L 18.109375 46.1875 
Q 21.34375 51.125 25.703125 53.5625 
Q 30.078125 56 35.796875 56 
Q 45.21875 56 50.046875 50.171875 
Q 54.890625 44.34375 54.890625 33.015625 
z
" id="DejaVuSans-110"/>
       </defs>
       <use xlink:href="#DejaVuSans-74"/>
       <use x="29.492188" xlink:href="#DejaVuSans-97"/>
       <use x="90.771484" xlink:href="#DejaVuSans-110"/>
      </g>
      <!-- 2017 -->
      <g transform="translate(77.275 340.79625)scale(0.1 -0.1)">
       <defs>
        <path d="M 19.1875 8.296875 
L 53.609375 8.296875 
L 53.609375 0 
L 7.328125 0 
L 7.328125 8.296875 
Q 12.9375 14.109375 22.625 23.890625 
Q 32.328125 33.6875 34.8125 36.53125 
Q 39.546875 41.84375 41.421875 45.53125 
Q 43.3125 49.21875 43.3125 52.78125 
Q 43.3125 58.59375 39.234375 62.25 
Q 35.15625 65.921875 28.609375 65.921875 
Q 23.96875 65.921875 18.8125 64.3125 
Q 13.671875 62.703125 7.8125 59.421875 
L 7.8125 69.390625 
Q 13.765625 71.78125 18.9375 73 
Q 24.125 74.21875 28.421875 74.21875 
Q 39.75 74.21875 46.484375 68.546875 
Q 53.21875 62.890625 53.21875 53.421875 
Q 53.21875 48.921875 51.53125 44.890625 
Q 49.859375 40.875 45.40625 35.40625 
Q 44.1875 33.984375 37.640625 27.21875 
Q 31.109375 20.453125 19.1875 8.296875 
z
" id="DejaVuSans-50"/>
        <path d="M 31.78125 66.40625 
Q 24.171875 66.40625 20.328125 58.90625 
Q 16.5 51.421875 16.5 36.375 
Q 16.5 21.390625 20.328125 13.890625 
Q 24.171875 6.390625 31.78125 6.390625 
Q 39.453125 6.390625 43.28125 13.890625 
Q 47.125 21.390625 47.125 36.375 
Q 47.125 51.421875 43.28125 58.90625 
Q 39.453125 66.40625 31.78125 66.40625 
z
M 31.78125 74.21875 
Q 44.046875 74.21875 50.515625 64.515625 
Q 56.984375 54.828125 56.984375 36.375 
Q 56.984375 17.96875 50.515625 8.265625 
Q 44.046875 -1.421875 31.78125 -1.421875 
Q 19.53125 -1.421875 13.0625 8.265625 
Q 6.59375 17.96875 6.59375 36.375 
Q 6.59375 54.828125 13.0625 64.515625 
Q 19.53125 74.21875 31.78125 74.21875 
z
" id="DejaVuSans-48"/>
        <path d="M 12.40625 8.296875 
L 28.515625 8.296875 
L 28.515625 63.921875 
L 10.984375 60.40625 
L 10.984375 69.390625 
L 28.421875 72.90625 
L 38.28125 72.90625 
L 38.28125 8.296875 
L 54.390625 8.296875 
L 54.390625 0 
L 12.40625 0 
z
" id="DejaVuSans-49"/>
        <path d="M 8.203125 72.90625 
L 55.078125 72.90625 
L 55.078125 68.703125 
L 28.609375 0 
L 18.3125 0 
L 43.21875 64.59375 
L 8.203125 64.59375 
z
" id="DejaVuSans-55"/>
       </defs>
       <use xlink:href="#DejaVuSans-50"/>
       <use x="63.623047" xlink:href="#DejaVuSans-48"/>
       <use x="127.246094" xlink:href="#DejaVuSans-49"/>
       <use x="190.869141" xlink:href="#DejaVuSans-55"/>
      </g>
     </g>
    </g>
    <g id="xtick_2">
     <g id="line2d_2">
      <g>
       <use style="stroke:#000000;stroke-width:0.8;" x="237.586957" xlink:href="#m30f6ae58c5" y="315"/>
      </g>
     </g>
     <g id="text_2">
      <!-- Jan -->
      <g transform="translate(229.879144 329.598437)scale(0.1 -0.1)">
       <use xlink:href="#DejaVuSans-74"/>
       <use x="29.492188" xlink:href="#DejaVuSans-97"/>
       <use x="90.771484" xlink:href="#DejaVuSans-110"/>
      </g>
      <!-- 2018 -->
      <g transform="translate(224.861957 340.79625)scale(0.1 -0.1)">
       <defs>
        <path d="M 31.78125 34.625 
Q 24.75 34.625 20.71875 30.859375 
Q 16.703125 27.09375 16.703125 20.515625 
Q 16.703125 13.921875 20.71875 10.15625 
Q 24.75 6.390625 31.78125 6.390625 
Q 38.8125 6.390625 42.859375 10.171875 
Q 46.921875 13.96875 46.921875 20.515625 
Q 46.921875 27.09375 42.890625 30.859375 
Q 38.875 34.625 31.78125 34.625 
z
M 21.921875 38.8125 
Q 15.578125 40.375 12.03125 44.71875 
Q 8.5 49.078125 8.5 55.328125 
Q 8.5 64.0625 14.71875 69.140625 
Q 20.953125 74.21875 31.78125 74.21875 
Q 42.671875 74.21875 48.875 69.140625 
Q 55.078125 64.0625 55.078125 55.328125 
Q 55.078125 49.078125 51.53125 44.71875 
Q 48 40.375 41.703125 38.8125 
Q 48.828125 37.15625 52.796875 32.3125 
Q 56.78125 27.484375 56.78125 20.515625 
Q 56.78125 9.90625 50.3125 4.234375 
Q 43.84375 -1.421875 31.78125 -1.421875 
Q 19.734375 -1.421875 13.25 4.234375 
Q 6.78125 9.90625 6.78125 20.515625 
Q 6.78125 27.484375 10.78125 32.3125 
Q 14.796875 37.15625 21.921875 38.8125 
z
M 18.3125 54.390625 
Q 18.3125 48.734375 21.84375 45.5625 
Q 25.390625 42.390625 31.78125 42.390625 
Q 38.140625 42.390625 41.71875 45.5625 
Q 45.3125 48.734375 45.3125 54.390625 
Q 45.3125 60.0625 41.71875 63.234375 
Q 38.140625 66.40625 31.78125 66.40625 
Q 25.390625 66.40625 21.84375 63.234375 
Q 18.3125 60.0625 18.3125 54.390625 
z
" id="DejaVuSans-56"/>
       </defs>
       <use xlink:href="#DejaVuSans-50"/>
       <use x="63.623047" xlink:href="#DejaVuSans-48"/>
       <use x="127.246094" xlink:href="#DejaVuSans-49"/>
       <use x="190.869141" xlink:href="#DejaVuSans-56"/>
      </g>
     </g>
    </g>
    <g id="xtick_3">
     <g id="line2d_3">
      <g>
       <use style="stroke:#000000;stroke-width:0.8;" x="385.173913" xlink:href="#m30f6ae58c5" y="315"/>
      </g>
     </g>
     <g id="text_3">
      <!-- Jan -->
      <g transform="translate(377.466101 329.598437)scale(0.1 -0.1)">
       <use xlink:href="#DejaVuSans-74"/>
       <use x="29.492188" xlink:href="#DejaVuSans-97"/>
       <use x="90.771484" xlink:href="#DejaVuSans-110"/>
      </g>
      <!-- 2019 -->
      <g transform="translate(372.448913 340.79625)scale(0.1 -0.1)">
       <defs>
        <path d="M 10.984375 1.515625 
L 10.984375 10.5 
Q 14.703125 8.734375 18.5 7.8125 
Q 22.3125 6.890625 25.984375 6.890625 
Q 35.75 6.890625 40.890625 13.453125 
Q 46.046875 20.015625 46.78125 33.40625 
Q 43.953125 29.203125 39.59375 26.953125 
Q 35.25 24.703125 29.984375 24.703125 
Q 19.046875 24.703125 12.671875 31.3125 
Q 6.296875 37.9375 6.296875 49.421875 
Q 6.296875 60.640625 12.9375 67.421875 
Q 19.578125 74.21875 30.609375 74.21875 
Q 43.265625 74.21875 49.921875 64.515625 
Q 56.59375 54.828125 56.59375 36.375 
Q 56.59375 19.140625 48.40625 8.859375 
Q 40.234375 -1.421875 26.421875 -1.421875 
Q 22.703125 -1.421875 18.890625 -0.6875 
Q 15.09375 0.046875 10.984375 1.515625 
z
M 30.609375 32.421875 
Q 37.25 32.421875 41.125 36.953125 
Q 45.015625 41.5 45.015625 49.421875 
Q 45.015625 57.28125 41.125 61.84375 
Q 37.25 66.40625 30.609375 66.40625 
Q 23.96875 66.40625 20.09375 61.84375 
Q 16.21875 57.28125 16.21875 49.421875 
Q 16.21875 41.5 20.09375 36.953125 
Q 23.96875 32.421875 30.609375 32.421875 
z
" id="DejaVuSans-57"/>
       </defs>
       <use xlink:href="#DejaVuSans-50"/>
       <use x="63.623047" xlink:href="#DejaVuSans-48"/>
       <use x="127.246094" xlink:href="#DejaVuSans-49"/>
       <use x="190.869141" xlink:href="#DejaVuSans-57"/>
      </g>
     </g>
    </g>
    <g id="xtick_4">
     <g id="line2d_4">
      <g>
       <use style="stroke:#000000;stroke-width:0.8;" x="532.76087" xlink:href="#m30f6ae58c5" y="315"/>
      </g>
     </g>
     <g id="text_4">
      <!-- Jan -->
      <g transform="translate(525.053057 329.598437)scale(0.1 -0.1)">
       <use xlink:href="#DejaVuSans-74"/>
       <use x="29.492188" xlink:href="#DejaVuSans-97"/>
       <use x="90.771484" xlink:href="#DejaVuSans-110"/>
      </g>
      <!-- 2020 -->
      <g transform="translate(520.03587 340.79625)scale(0.1 -0.1)">
       <use xlink:href="#DejaVuSans-50"/>
       <use x="63.623047" xlink:href="#DejaVuSans-48"/>
       <use x="127.246094" xlink:href="#DejaVuSans-50"/>
       <use x="190.869141" xlink:href="#DejaVuSans-48"/>
      </g>
     </g>
    </g>
    <g id="xtick_5">
     <g id="line2d_5">
      <g>
       <use style="stroke:#000000;stroke-width:0.8;" x="648" xlink:href="#m30f6ae58c5" y="315"/>
      </g>
     </g>
    </g>
    <g id="xtick_6">
     <g id="line2d_6">
      <defs>
       <path d="M 0 0 
L 0 2 
" id="mf5a4dd7815" style="stroke:#000000;stroke-width:0.6;"/>
      </defs>
      <g>
       <use style="stroke:#000000;stroke-width:0.6;" x="102.534783" xlink:href="#mf5a4dd7815" y="315"/>
      </g>
     </g>
    </g>
    <g id="xtick_7">
     <g id="line2d_7">
      <g>
       <use style="stroke:#000000;stroke-width:0.6;" x="113.856522" xlink:href="#mf5a4dd7815" y="315"/>
      </g>
     </g>
    </g>
    <g id="xtick_8">
     <g id="line2d_8">
      <g>
       <use style="stroke:#000000;stroke-width:0.6;" x="126.391304" xlink:href="#mf5a4dd7815" y="315"/>
      </g>
     </g>
    </g>
    <g id="xtick_9">
     <g id="line2d_9">
      <g>
       <use style="stroke:#000000;stroke-width:0.6;" x="138.521739" xlink:href="#mf5a4dd7815" y="315"/>
      </g>
     </g>
    </g>
    <g id="xtick_10">
     <g id="line2d_10">
      <g>
       <use style="stroke:#000000;stroke-width:0.6;" x="151.056522" xlink:href="#mf5a4dd7815" y="315"/>
      </g>
     </g>
    </g>
    <g id="xtick_11">
     <g id="line2d_11">
      <g>
       <use style="stroke:#000000;stroke-width:0.6;" x="163.186957" xlink:href="#mf5a4dd7815" y="315"/>
      </g>
     </g>
     <g id="text_5">
      <!-- Jul -->
      <g transform="translate(157.154144 327.998438)scale(0.1 -0.1)">
       <defs>
        <path d="M 8.5 21.578125 
L 8.5 54.6875 
L 17.484375 54.6875 
L 17.484375 21.921875 
Q 17.484375 14.15625 20.5 10.265625 
Q 23.53125 6.390625 29.59375 6.390625 
Q 36.859375 6.390625 41.078125 11.03125 
Q 45.3125 15.671875 45.3125 23.6875 
L 45.3125 54.6875 
L 54.296875 54.6875 
L 54.296875 0 
L 45.3125 0 
L 45.3125 8.40625 
Q 42.046875 3.421875 37.71875 1 
Q 33.40625 -1.421875 27.6875 -1.421875 
Q 18.265625 -1.421875 13.375 4.4375 
Q 8.5 10.296875 8.5 21.578125 
z
M 31.109375 56 
z
" id="DejaVuSans-117"/>
        <path d="M 9.421875 75.984375 
L 18.40625 75.984375 
L 18.40625 0 
L 9.421875 0 
z
" id="DejaVuSans-108"/>
       </defs>
       <use xlink:href="#DejaVuSans-74"/>
       <use x="29.492188" xlink:href="#DejaVuSans-117"/>
       <use x="92.871094" xlink:href="#DejaVuSans-108"/>
      </g>
     </g>
    </g>
    <g id="xtick_12">
     <g id="line2d_12">
      <g>
       <use style="stroke:#000000;stroke-width:0.6;" x="175.721739" xlink:href="#mf5a4dd7815" y="315"/>
      </g>
     </g>
    </g>
    <g id="xtick_13">
     <g id="line2d_13">
      <g>
       <use style="stroke:#000000;stroke-width:0.6;" x="188.256522" xlink:href="#mf5a4dd7815" y="315"/>
      </g>
     </g>
    </g>
    <g id="xtick_14">
     <g id="line2d_14">
      <g>
       <use style="stroke:#000000;stroke-width:0.6;" x="200.386957" xlink:href="#mf5a4dd7815" y="315"/>
      </g>
     </g>
    </g>
    <g id="xtick_15">
     <g id="line2d_15">
      <g>
       <use style="stroke:#000000;stroke-width:0.6;" x="212.921739" xlink:href="#mf5a4dd7815" y="315"/>
      </g>
     </g>
    </g>
    <g id="xtick_16">
     <g id="line2d_16">
      <g>
       <use style="stroke:#000000;stroke-width:0.6;" x="225.052174" xlink:href="#mf5a4dd7815" y="315"/>
      </g>
     </g>
    </g>
    <g id="xtick_17">
     <g id="line2d_17">
      <g>
       <use style="stroke:#000000;stroke-width:0.6;" x="250.121739" xlink:href="#mf5a4dd7815" y="315"/>
      </g>
     </g>
    </g>
    <g id="xtick_18">
     <g id="line2d_18">
      <g>
       <use style="stroke:#000000;stroke-width:0.6;" x="261.443478" xlink:href="#mf5a4dd7815" y="315"/>
      </g>
     </g>
    </g>
    <g id="xtick_19">
     <g id="line2d_19">
      <g>
       <use style="stroke:#000000;stroke-width:0.6;" x="273.978261" xlink:href="#mf5a4dd7815" y="315"/>
      </g>
     </g>
    </g>
    <g id="xtick_20">
     <g id="line2d_20">
      <g>
       <use style="stroke:#000000;stroke-width:0.6;" x="286.108696" xlink:href="#mf5a4dd7815" y="315"/>
      </g>
     </g>
    </g>
    <g id="xtick_21">
     <g id="line2d_21">
      <g>
       <use style="stroke:#000000;stroke-width:0.6;" x="298.643478" xlink:href="#mf5a4dd7815" y="315"/>
      </g>
     </g>
    </g>
    <g id="xtick_22">
     <g id="line2d_22">
      <g>
       <use style="stroke:#000000;stroke-width:0.6;" x="310.773913" xlink:href="#mf5a4dd7815" y="315"/>
      </g>
     </g>
     <g id="text_6">
      <!-- Jul -->
      <g transform="translate(304.741101 327.998438)scale(0.1 -0.1)">
       <use xlink:href="#DejaVuSans-74"/>
       <use x="29.492188" xlink:href="#DejaVuSans-117"/>
       <use x="92.871094" xlink:href="#DejaVuSans-108"/>
      </g>
     </g>
    </g>
    <g id="xtick_23">
     <g id="line2d_23">
      <g>
       <use style="stroke:#000000;stroke-width:0.6;" x="323.308696" xlink:href="#mf5a4dd7815" y="315"/>
      </g>
     </g>
    </g>
    <g id="xtick_24">
     <g id="line2d_24">
      <g>
       <use style="stroke:#000000;stroke-width:0.6;" x="335.843478" xlink:href="#mf5a4dd7815" y="315"/>
      </g>
     </g>
    </g>
    <g id="xtick_25">
     <g id="line2d_25">
      <g>
       <use style="stroke:#000000;stroke-width:0.6;" x="347.973913" xlink:href="#mf5a4dd7815" y="315"/>
      </g>
     </g>
    </g>
    <g id="xtick_26">
     <g id="line2d_26">
      <g>
       <use style="stroke:#000000;stroke-width:0.6;" x="360.508696" xlink:href="#mf5a4dd7815" y="315"/>
      </g>
     </g>
    </g>
    <g id="xtick_27">
     <g id="line2d_27">
      <g>
       <use style="stroke:#000000;stroke-width:0.6;" x="372.63913" xlink:href="#mf5a4dd7815" y="315"/>
      </g>
     </g>
    </g>
    <g id="xtick_28">
     <g id="line2d_28">
      <g>
       <use style="stroke:#000000;stroke-width:0.6;" x="397.708696" xlink:href="#mf5a4dd7815" y="315"/>
      </g>
     </g>
    </g>
    <g id="xtick_29">
     <g id="line2d_29">
      <g>
       <use style="stroke:#000000;stroke-width:0.6;" x="409.030435" xlink:href="#mf5a4dd7815" y="315"/>
      </g>
     </g>
    </g>
    <g id="xtick_30">
     <g id="line2d_30">
      <g>
       <use style="stroke:#000000;stroke-width:0.6;" x="421.565217" xlink:href="#mf5a4dd7815" y="315"/>
      </g>
     </g>
    </g>
    <g id="xtick_31">
     <g id="line2d_31">
      <g>
       <use style="stroke:#000000;stroke-width:0.6;" x="433.695652" xlink:href="#mf5a4dd7815" y="315"/>
      </g>
     </g>
    </g>
    <g id="xtick_32">
     <g id="line2d_32">
      <g>
       <use style="stroke:#000000;stroke-width:0.6;" x="446.230435" xlink:href="#mf5a4dd7815" y="315"/>
      </g>
     </g>
    </g>
    <g id="xtick_33">
     <g id="line2d_33">
      <g>
       <use style="stroke:#000000;stroke-width:0.6;" x="458.36087" xlink:href="#mf5a4dd7815" y="315"/>
      </g>
     </g>
     <g id="text_7">
      <!-- Jul -->
      <g transform="translate(452.328057 327.998438)scale(0.1 -0.1)">
       <use xlink:href="#DejaVuSans-74"/>
       <use x="29.492188" xlink:href="#DejaVuSans-117"/>
       <use x="92.871094" xlink:href="#DejaVuSans-108"/>
      </g>
     </g>
    </g>
    <g id="xtick_34">
     <g id="line2d_34">
      <g>
       <use style="stroke:#000000;stroke-width:0.6;" x="470.895652" xlink:href="#mf5a4dd7815" y="315"/>
      </g>
     </g>
    </g>
    <g id="xtick_35">
     <g id="line2d_35">
      <g>
       <use style="stroke:#000000;stroke-width:0.6;" x="483.430435" xlink:href="#mf5a4dd7815" y="315"/>
      </g>
     </g>
    </g>
    <g id="xtick_36">
     <g id="line2d_36">
      <g>
       <use style="stroke:#000000;stroke-width:0.6;" x="495.56087" xlink:href="#mf5a4dd7815" y="315"/>
      </g>
     </g>
    </g>
    <g id="xtick_37">
     <g id="line2d_37">
      <g>
       <use style="stroke:#000000;stroke-width:0.6;" x="508.095652" xlink:href="#mf5a4dd7815" y="315"/>
      </g>
     </g>
    </g>
    <g id="xtick_38">
     <g id="line2d_38">
      <g>
       <use style="stroke:#000000;stroke-width:0.6;" x="520.226087" xlink:href="#mf5a4dd7815" y="315"/>
      </g>
     </g>
    </g>
    <g id="xtick_39">
     <g id="line2d_39">
      <g>
       <use style="stroke:#000000;stroke-width:0.6;" x="545.295652" xlink:href="#mf5a4dd7815" y="315"/>
      </g>
     </g>
    </g>
    <g id="xtick_40">
     <g id="line2d_40">
      <g>
       <use style="stroke:#000000;stroke-width:0.6;" x="557.021739" xlink:href="#mf5a4dd7815" y="315"/>
      </g>
     </g>
    </g>
    <g id="xtick_41">
     <g id="line2d_41">
      <g>
       <use style="stroke:#000000;stroke-width:0.6;" x="569.556522" xlink:href="#mf5a4dd7815" y="315"/>
      </g>
     </g>
    </g>
    <g id="xtick_42">
     <g id="line2d_42">
      <g>
       <use style="stroke:#000000;stroke-width:0.6;" x="581.686957" xlink:href="#mf5a4dd7815" y="315"/>
      </g>
     </g>
    </g>
    <g id="xtick_43">
     <g id="line2d_43">
      <g>
       <use style="stroke:#000000;stroke-width:0.6;" x="594.221739" xlink:href="#mf5a4dd7815" y="315"/>
      </g>
     </g>
    </g>
    <g id="xtick_44">
     <g id="line2d_44">
      <g>
       <use style="stroke:#000000;stroke-width:0.6;" x="606.352174" xlink:href="#mf5a4dd7815" y="315"/>
      </g>
     </g>
     <g id="text_8">
      <!-- Jul -->
      <g transform="translate(600.319361 327.998438)scale(0.1 -0.1)">
       <use xlink:href="#DejaVuSans-74"/>
       <use x="29.492188" xlink:href="#DejaVuSans-117"/>
       <use x="92.871094" xlink:href="#DejaVuSans-108"/>
      </g>
     </g>
    </g>
    <g id="xtick_45">
     <g id="line2d_45">
      <g>
       <use style="stroke:#000000;stroke-width:0.6;" x="618.886957" xlink:href="#mf5a4dd7815" y="315"/>
      </g>
     </g>
    </g>
    <g id="xtick_46">
     <g id="line2d_46">
      <g>
       <use style="stroke:#000000;stroke-width:0.6;" x="631.421739" xlink:href="#mf5a4dd7815" y="315"/>
      </g>
     </g>
    </g>
    <g id="xtick_47">
     <g id="line2d_47">
      <g>
       <use style="stroke:#000000;stroke-width:0.6;" x="643.552174" xlink:href="#mf5a4dd7815" y="315"/>
      </g>
     </g>
    </g>
   </g>
   <g id="matplotlib.axis_2">
    <g id="ytick_1">
     <g id="line2d_48">
      <defs>
       <path d="M 0 0 
L -3.5 0 
" id="m65503a474f" style="stroke:#000000;stroke-width:0.8;"/>
      </defs>
      <g>
       <use style="stroke:#000000;stroke-width:0.8;" x="90" xlink:href="#m65503a474f" y="315"/>
      </g>
     </g>
     <g id="text_9">
      <!-- $\mathdefault{10^{1}}$ -->
      <g transform="translate(65.4 318.799219)scale(0.1 -0.1)">
       <use transform="translate(0 0.684375)" xlink:href="#DejaVuSans-49"/>
       <use transform="translate(63.623047 0.684375)" xlink:href="#DejaVuSans-48"/>
       <use transform="translate(128.203125 38.965625)scale(0.7)" xlink:href="#DejaVuSans-49"/>
      </g>
     </g>
    </g>
    <g id="ytick_2">
     <g id="line2d_49">
      <g>
       <use style="stroke:#000000;stroke-width:0.8;" x="90" xlink:href="#m65503a474f" y="224.4"/>
      </g>
     </g>
     <g id="text_10">
      <!-- $\mathdefault{10^{2}}$ -->
      <g transform="translate(65.4 228.199219)scale(0.1 -0.1)">
       <use transform="translate(0 0.765625)" xlink:href="#DejaVuSans-49"/>
       <use transform="translate(63.623047 0.765625)" xlink:href="#DejaVuSans-48"/>
       <use transform="translate(128.203125 39.046875)scale(0.7)" xlink:href="#DejaVuSans-50"/>
      </g>
     </g>
    </g>
    <g id="ytick_3">
     <g id="line2d_50">
      <g>
       <use style="stroke:#000000;stroke-width:0.8;" x="90" xlink:href="#m65503a474f" y="133.8"/>
      </g>
     </g>
     <g id="text_11">
      <!-- $\mathdefault{10^{3}}$ -->
      <g transform="translate(65.4 137.599219)scale(0.1 -0.1)">
       <defs>
        <path d="M 40.578125 39.3125 
Q 47.65625 37.796875 51.625 33 
Q 55.609375 28.21875 55.609375 21.1875 
Q 55.609375 10.40625 48.1875 4.484375 
Q 40.765625 -1.421875 27.09375 -1.421875 
Q 22.515625 -1.421875 17.65625 -0.515625 
Q 12.796875 0.390625 7.625 2.203125 
L 7.625 11.71875 
Q 11.71875 9.328125 16.59375 8.109375 
Q 21.484375 6.890625 26.8125 6.890625 
Q 36.078125 6.890625 40.9375 10.546875 
Q 45.796875 14.203125 45.796875 21.1875 
Q 45.796875 27.640625 41.28125 31.265625 
Q 36.765625 34.90625 28.71875 34.90625 
L 20.21875 34.90625 
L 20.21875 43.015625 
L 29.109375 43.015625 
Q 36.375 43.015625 40.234375 45.921875 
Q 44.09375 48.828125 44.09375 54.296875 
Q 44.09375 59.90625 40.109375 62.90625 
Q 36.140625 65.921875 28.71875 65.921875 
Q 24.65625 65.921875 20.015625 65.03125 
Q 15.375 64.15625 9.8125 62.3125 
L 9.8125 71.09375 
Q 15.4375 72.65625 20.34375 73.4375 
Q 25.25 74.21875 29.59375 74.21875 
Q 40.828125 74.21875 47.359375 69.109375 
Q 53.90625 64.015625 53.90625 55.328125 
Q 53.90625 49.265625 50.4375 45.09375 
Q 46.96875 40.921875 40.578125 39.3125 
z
" id="DejaVuSans-51"/>
       </defs>
       <use transform="translate(0 0.765625)" xlink:href="#DejaVuSans-49"/>
       <use transform="translate(63.623047 0.765625)" xlink:href="#DejaVuSans-48"/>
       <use transform="translate(128.203125 39.046875)scale(0.7)" xlink:href="#DejaVuSans-51"/>
      </g>
     </g>
    </g>
    <g id="ytick_4">
     <g id="line2d_51">
      <g>
       <use style="stroke:#000000;stroke-width:0.8;" x="90" xlink:href="#m65503a474f" y="43.2"/>
      </g>
     </g>
     <g id="text_12">
      <!-- $\mathdefault{10^{4}}$ -->
      <g transform="translate(65.4 46.999219)scale(0.1 -0.1)">
       <defs>
        <path d="M 37.796875 64.3125 
L 12.890625 25.390625 
L 37.796875 25.390625 
z
M 35.203125 72.90625 
L 47.609375 72.90625 
L 47.609375 25.390625 
L 58.015625 25.390625 
L 58.015625 17.1875 
L 47.609375 17.1875 
L 47.609375 0 
L 37.796875 0 
L 37.796875 17.1875 
L 4.890625 17.1875 
L 4.890625 26.703125 
z
" id="DejaVuSans-52"/>
       </defs>
       <use transform="translate(0 0.684375)" xlink:href="#DejaVuSans-49"/>
       <use transform="translate(63.623047 0.684375)" xlink:href="#DejaVuSans-48"/>
       <use transform="translate(128.203125 38.965625)scale(0.7)" xlink:href="#DejaVuSans-52"/>
      </g>
     </g>
    </g>
    <g id="ytick_5">
     <g id="line2d_52">
      <defs>
       <path d="M 0 0 
L -2 0 
" id="mf3b1942375" style="stroke:#000000;stroke-width:0.6;"/>
      </defs>
      <g>
       <use style="stroke:#000000;stroke-width:0.6;" x="90" xlink:href="#mf3b1942375" y="287.726682"/>
      </g>
     </g>
    </g>
    <g id="ytick_6">
     <g id="line2d_53">
      <g>
       <use style="stroke:#000000;stroke-width:0.6;" x="90" xlink:href="#mf3b1942375" y="271.772814"/>
      </g>
     </g>
    </g>
    <g id="ytick_7">
     <g id="line2d_54">
      <g>
       <use style="stroke:#000000;stroke-width:0.6;" x="90" xlink:href="#mf3b1942375" y="260.453365"/>
      </g>
     </g>
    </g>
    <g id="ytick_8">
     <g id="line2d_55">
      <g>
       <use style="stroke:#000000;stroke-width:0.6;" x="90" xlink:href="#mf3b1942375" y="251.673318"/>
      </g>
     </g>
    </g>
    <g id="ytick_9">
     <g id="line2d_56">
      <g>
       <use style="stroke:#000000;stroke-width:0.6;" x="90" xlink:href="#mf3b1942375" y="244.499497"/>
      </g>
     </g>
    </g>
    <g id="ytick_10">
     <g id="line2d_57">
      <g>
       <use style="stroke:#000000;stroke-width:0.6;" x="90" xlink:href="#mf3b1942375" y="238.434118"/>
      </g>
     </g>
    </g>
    <g id="ytick_11">
     <g id="line2d_58">
      <g>
       <use style="stroke:#000000;stroke-width:0.6;" x="90" xlink:href="#mf3b1942375" y="233.180047"/>
      </g>
     </g>
    </g>
    <g id="ytick_12">
     <g id="line2d_59">
      <g>
       <use style="stroke:#000000;stroke-width:0.6;" x="90" xlink:href="#mf3b1942375" y="228.545629"/>
      </g>
     </g>
    </g>
    <g id="ytick_13">
     <g id="line2d_60">
      <g>
       <use style="stroke:#000000;stroke-width:0.6;" x="90" xlink:href="#mf3b1942375" y="197.126682"/>
      </g>
     </g>
    </g>
    <g id="ytick_14">
     <g id="line2d_61">
      <g>
       <use style="stroke:#000000;stroke-width:0.6;" x="90" xlink:href="#mf3b1942375" y="181.172814"/>
      </g>
     </g>
    </g>
    <g id="ytick_15">
     <g id="line2d_62">
      <g>
       <use style="stroke:#000000;stroke-width:0.6;" x="90" xlink:href="#mf3b1942375" y="169.853365"/>
      </g>
     </g>
    </g>
    <g id="ytick_16">
     <g id="line2d_63">
      <g>
       <use style="stroke:#000000;stroke-width:0.6;" x="90" xlink:href="#mf3b1942375" y="161.073318"/>
      </g>
     </g>
    </g>
    <g id="ytick_17">
     <g id="line2d_64">
      <g>
       <use style="stroke:#000000;stroke-width:0.6;" x="90" xlink:href="#mf3b1942375" y="153.899497"/>
      </g>
     </g>
    </g>
    <g id="ytick_18">
     <g id="line2d_65">
      <g>
       <use style="stroke:#000000;stroke-width:0.6;" x="90" xlink:href="#mf3b1942375" y="147.834118"/>
      </g>
     </g>
    </g>
    <g id="ytick_19">
     <g id="line2d_66">
      <g>
       <use style="stroke:#000000;stroke-width:0.6;" x="90" xlink:href="#mf3b1942375" y="142.580047"/>
      </g>
     </g>
    </g>
    <g id="ytick_20">
     <g id="line2d_67">
      <g>
       <use style="stroke:#000000;stroke-width:0.6;" x="90" xlink:href="#mf3b1942375" y="137.945629"/>
      </g>
     </g>
    </g>
    <g id="ytick_21">
     <g id="line2d_68">
      <g>
       <use style="stroke:#000000;stroke-width:0.6;" x="90" xlink:href="#mf3b1942375" y="106.526682"/>
      </g>
     </g>
    </g>
    <g id="ytick_22">
     <g id="line2d_69">
      <g>
       <use style="stroke:#000000;stroke-width:0.6;" x="90" xlink:href="#mf3b1942375" y="90.572814"/>
      </g>
     </g>
    </g>
    <g id="ytick_23">
     <g id="line2d_70">
      <g>
       <use style="stroke:#000000;stroke-width:0.6;" x="90" xlink:href="#mf3b1942375" y="79.253365"/>
      </g>
     </g>
    </g>
    <g id="ytick_24">
     <g id="line2d_71">
      <g>
       <use style="stroke:#000000;stroke-width:0.6;" x="90" xlink:href="#mf3b1942375" y="70.473318"/>
      </g>
     </g>
    </g>
    <g id="ytick_25">
     <g id="line2d_72">
      <g>
       <use style="stroke:#000000;stroke-width:0.6;" x="90" xlink:href="#mf3b1942375" y="63.299497"/>
      </g>
     </g>
    </g>
    <g id="ytick_26">
     <g id="line2d_73">
      <g>
       <use style="stroke:#000000;stroke-width:0.6;" x="90" xlink:href="#mf3b1942375" y="57.234118"/>
      </g>
     </g>
    </g>
    <g id="ytick_27">
     <g id="line2d_74">
      <g>
       <use style="stroke:#000000;stroke-width:0.6;" x="90" xlink:href="#mf3b1942375" y="51.980047"/>
      </g>
     </g>
    </g>
    <g id="ytick_28">
     <g id="line2d_75">
      <g>
       <use style="stroke:#000000;stroke-width:0.6;" x="90" xlink:href="#mf3b1942375" y="47.345629"/>
      </g>
     </g>
    </g>
    <g id="text_13">
     <!-- Number of pip-installs on MacOS/Windows per month -->
     <g transform="translate(59.320312 312.650781)rotate(-90)scale(0.1 -0.1)">
      <defs>
       <path d="M 9.8125 72.90625 
L 23.09375 72.90625 
L 55.421875 11.921875 
L 55.421875 72.90625 
L 64.984375 72.90625 
L 64.984375 0 
L 51.703125 0 
L 19.390625 60.984375 
L 19.390625 0 
L 9.8125 0 
z
" id="DejaVuSans-78"/>
       <path d="M 52 44.1875 
Q 55.375 50.25 60.0625 53.125 
Q 64.75 56 71.09375 56 
Q 79.640625 56 84.28125 50.015625 
Q 88.921875 44.046875 88.921875 33.015625 
L 88.921875 0 
L 79.890625 0 
L 79.890625 32.71875 
Q 79.890625 40.578125 77.09375 44.375 
Q 74.3125 48.1875 68.609375 48.1875 
Q 61.625 48.1875 57.5625 43.546875 
Q 53.515625 38.921875 53.515625 30.90625 
L 53.515625 0 
L 44.484375 0 
L 44.484375 32.71875 
Q 44.484375 40.625 41.703125 44.40625 
Q 38.921875 48.1875 33.109375 48.1875 
Q 26.21875 48.1875 22.15625 43.53125 
Q 18.109375 38.875 18.109375 30.90625 
L 18.109375 0 
L 9.078125 0 
L 9.078125 54.6875 
L 18.109375 54.6875 
L 18.109375 46.1875 
Q 21.1875 51.21875 25.484375 53.609375 
Q 29.78125 56 35.6875 56 
Q 41.65625 56 45.828125 52.96875 
Q 50 49.953125 52 44.1875 
z
" id="DejaVuSans-109"/>
       <path d="M 48.6875 27.296875 
Q 48.6875 37.203125 44.609375 42.84375 
Q 40.53125 48.484375 33.40625 48.484375 
Q 26.265625 48.484375 22.1875 42.84375 
Q 18.109375 37.203125 18.109375 27.296875 
Q 18.109375 17.390625 22.1875 11.75 
Q 26.265625 6.109375 33.40625 6.109375 
Q 40.53125 6.109375 44.609375 11.75 
Q 48.6875 17.390625 48.6875 27.296875 
z
M 18.109375 46.390625 
Q 20.953125 51.265625 25.265625 53.625 
Q 29.59375 56 35.59375 56 
Q 45.5625 56 51.78125 48.09375 
Q 58.015625 40.1875 58.015625 27.296875 
Q 58.015625 14.40625 51.78125 6.484375 
Q 45.5625 -1.421875 35.59375 -1.421875 
Q 29.59375 -1.421875 25.265625 0.953125 
Q 20.953125 3.328125 18.109375 8.203125 
L 18.109375 0 
L 9.078125 0 
L 9.078125 75.984375 
L 18.109375 75.984375 
z
" id="DejaVuSans-98"/>
       <path d="M 56.203125 29.59375 
L 56.203125 25.203125 
L 14.890625 25.203125 
Q 15.484375 15.921875 20.484375 11.0625 
Q 25.484375 6.203125 34.421875 6.203125 
Q 39.59375 6.203125 44.453125 7.46875 
Q 49.3125 8.734375 54.109375 11.28125 
L 54.109375 2.78125 
Q 49.265625 0.734375 44.1875 -0.34375 
Q 39.109375 -1.421875 33.890625 -1.421875 
Q 20.796875 -1.421875 13.15625 6.1875 
Q 5.515625 13.8125 5.515625 26.8125 
Q 5.515625 40.234375 12.765625 48.109375 
Q 20.015625 56 32.328125 56 
Q 43.359375 56 49.78125 48.890625 
Q 56.203125 41.796875 56.203125 29.59375 
z
M 47.21875 32.234375 
Q 47.125 39.59375 43.09375 43.984375 
Q 39.0625 48.390625 32.421875 48.390625 
Q 24.90625 48.390625 20.390625 44.140625 
Q 15.875 39.890625 15.1875 32.171875 
z
" id="DejaVuSans-101"/>
       <path d="M 41.109375 46.296875 
Q 39.59375 47.171875 37.8125 47.578125 
Q 36.03125 48 33.890625 48 
Q 26.265625 48 22.1875 43.046875 
Q 18.109375 38.09375 18.109375 28.8125 
L 18.109375 0 
L 9.078125 0 
L 9.078125 54.6875 
L 18.109375 54.6875 
L 18.109375 46.1875 
Q 20.953125 51.171875 25.484375 53.578125 
Q 30.03125 56 36.53125 56 
Q 37.453125 56 38.578125 55.875 
Q 39.703125 55.765625 41.0625 55.515625 
z
" id="DejaVuSans-114"/>
       <path id="DejaVuSans-32"/>
       <path d="M 30.609375 48.390625 
Q 23.390625 48.390625 19.1875 42.75 
Q 14.984375 37.109375 14.984375 27.296875 
Q 14.984375 17.484375 19.15625 11.84375 
Q 23.34375 6.203125 30.609375 6.203125 
Q 37.796875 6.203125 41.984375 11.859375 
Q 46.1875 17.53125 46.1875 27.296875 
Q 46.1875 37.015625 41.984375 42.703125 
Q 37.796875 48.390625 30.609375 48.390625 
z
M 30.609375 56 
Q 42.328125 56 49.015625 48.375 
Q 55.71875 40.765625 55.71875 27.296875 
Q 55.71875 13.875 49.015625 6.21875 
Q 42.328125 -1.421875 30.609375 -1.421875 
Q 18.84375 -1.421875 12.171875 6.21875 
Q 5.515625 13.875 5.515625 27.296875 
Q 5.515625 40.765625 12.171875 48.375 
Q 18.84375 56 30.609375 56 
z
" id="DejaVuSans-111"/>
       <path d="M 37.109375 75.984375 
L 37.109375 68.5 
L 28.515625 68.5 
Q 23.6875 68.5 21.796875 66.546875 
Q 19.921875 64.59375 19.921875 59.515625 
L 19.921875 54.6875 
L 34.71875 54.6875 
L 34.71875 47.703125 
L 19.921875 47.703125 
L 19.921875 0 
L 10.890625 0 
L 10.890625 47.703125 
L 2.296875 47.703125 
L 2.296875 54.6875 
L 10.890625 54.6875 
L 10.890625 58.5 
Q 10.890625 67.625 15.140625 71.796875 
Q 19.390625 75.984375 28.609375 75.984375 
z
" id="DejaVuSans-102"/>
       <path d="M 18.109375 8.203125 
L 18.109375 -20.796875 
L 9.078125 -20.796875 
L 9.078125 54.6875 
L 18.109375 54.6875 
L 18.109375 46.390625 
Q 20.953125 51.265625 25.265625 53.625 
Q 29.59375 56 35.59375 56 
Q 45.5625 56 51.78125 48.09375 
Q 58.015625 40.1875 58.015625 27.296875 
Q 58.015625 14.40625 51.78125 6.484375 
Q 45.5625 -1.421875 35.59375 -1.421875 
Q 29.59375 -1.421875 25.265625 0.953125 
Q 20.953125 3.328125 18.109375 8.203125 
z
M 48.6875 27.296875 
Q 48.6875 37.203125 44.609375 42.84375 
Q 40.53125 48.484375 33.40625 48.484375 
Q 26.265625 48.484375 22.1875 42.84375 
Q 18.109375 37.203125 18.109375 27.296875 
Q 18.109375 17.390625 22.1875 11.75 
Q 26.265625 6.109375 33.40625 6.109375 
Q 40.53125 6.109375 44.609375 11.75 
Q 48.6875 17.390625 48.6875 27.296875 
z
" id="DejaVuSans-112"/>
       <path d="M 9.421875 54.6875 
L 18.40625 54.6875 
L 18.40625 0 
L 9.421875 0 
z
M 9.421875 75.984375 
L 18.40625 75.984375 
L 18.40625 64.59375 
L 9.421875 64.59375 
z
" id="DejaVuSans-105"/>
       <path d="M 4.890625 31.390625 
L 31.203125 31.390625 
L 31.203125 23.390625 
L 4.890625 23.390625 
z
" id="DejaVuSans-45"/>
       <path d="M 44.28125 53.078125 
L 44.28125 44.578125 
Q 40.484375 46.53125 36.375 47.5 
Q 32.28125 48.484375 27.875 48.484375 
Q 21.1875 48.484375 17.84375 46.4375 
Q 14.5 44.390625 14.5 40.28125 
Q 14.5 37.15625 16.890625 35.375 
Q 19.28125 33.59375 26.515625 31.984375 
L 29.59375 31.296875 
Q 39.15625 29.25 43.1875 25.515625 
Q 47.21875 21.78125 47.21875 15.09375 
Q 47.21875 7.46875 41.1875 3.015625 
Q 35.15625 -1.421875 24.609375 -1.421875 
Q 20.21875 -1.421875 15.453125 -0.5625 
Q 10.6875 0.296875 5.421875 2 
L 5.421875 11.28125 
Q 10.40625 8.6875 15.234375 7.390625 
Q 20.0625 6.109375 24.8125 6.109375 
Q 31.15625 6.109375 34.5625 8.28125 
Q 37.984375 10.453125 37.984375 14.40625 
Q 37.984375 18.0625 35.515625 20.015625 
Q 33.0625 21.96875 24.703125 23.78125 
L 21.578125 24.515625 
Q 13.234375 26.265625 9.515625 29.90625 
Q 5.8125 33.546875 5.8125 39.890625 
Q 5.8125 47.609375 11.28125 51.796875 
Q 16.75 56 26.8125 56 
Q 31.78125 56 36.171875 55.265625 
Q 40.578125 54.546875 44.28125 53.078125 
z
" id="DejaVuSans-115"/>
       <path d="M 18.3125 70.21875 
L 18.3125 54.6875 
L 36.8125 54.6875 
L 36.8125 47.703125 
L 18.3125 47.703125 
L 18.3125 18.015625 
Q 18.3125 11.328125 20.140625 9.421875 
Q 21.96875 7.515625 27.59375 7.515625 
L 36.8125 7.515625 
L 36.8125 0 
L 27.59375 0 
Q 17.1875 0 13.234375 3.875 
Q 9.28125 7.765625 9.28125 18.015625 
L 9.28125 47.703125 
L 2.6875 47.703125 
L 2.6875 54.6875 
L 9.28125 54.6875 
L 9.28125 70.21875 
z
" id="DejaVuSans-116"/>
       <path d="M 9.8125 72.90625 
L 24.515625 72.90625 
L 43.109375 23.296875 
L 61.8125 72.90625 
L 76.515625 72.90625 
L 76.515625 0 
L 66.890625 0 
L 66.890625 64.015625 
L 48.09375 14.015625 
L 38.1875 14.015625 
L 19.390625 64.015625 
L 19.390625 0 
L 9.8125 0 
z
" id="DejaVuSans-77"/>
       <path d="M 48.78125 52.59375 
L 48.78125 44.1875 
Q 44.96875 46.296875 41.140625 47.34375 
Q 37.3125 48.390625 33.40625 48.390625 
Q 24.65625 48.390625 19.8125 42.84375 
Q 14.984375 37.3125 14.984375 27.296875 
Q 14.984375 17.28125 19.8125 11.734375 
Q 24.65625 6.203125 33.40625 6.203125 
Q 37.3125 6.203125 41.140625 7.25 
Q 44.96875 8.296875 48.78125 10.40625 
L 48.78125 2.09375 
Q 45.015625 0.34375 40.984375 -0.53125 
Q 36.96875 -1.421875 32.421875 -1.421875 
Q 20.0625 -1.421875 12.78125 6.34375 
Q 5.515625 14.109375 5.515625 27.296875 
Q 5.515625 40.671875 12.859375 48.328125 
Q 20.21875 56 33.015625 56 
Q 37.15625 56 41.109375 55.140625 
Q 45.0625 54.296875 48.78125 52.59375 
z
" id="DejaVuSans-99"/>
       <path d="M 39.40625 66.21875 
Q 28.65625 66.21875 22.328125 58.203125 
Q 16.015625 50.203125 16.015625 36.375 
Q 16.015625 22.609375 22.328125 14.59375 
Q 28.65625 6.59375 39.40625 6.59375 
Q 50.140625 6.59375 56.421875 14.59375 
Q 62.703125 22.609375 62.703125 36.375 
Q 62.703125 50.203125 56.421875 58.203125 
Q 50.140625 66.21875 39.40625 66.21875 
z
M 39.40625 74.21875 
Q 54.734375 74.21875 63.90625 63.9375 
Q 73.09375 53.65625 73.09375 36.375 
Q 73.09375 19.140625 63.90625 8.859375 
Q 54.734375 -1.421875 39.40625 -1.421875 
Q 24.03125 -1.421875 14.8125 8.828125 
Q 5.609375 19.09375 5.609375 36.375 
Q 5.609375 53.65625 14.8125 63.9375 
Q 24.03125 74.21875 39.40625 74.21875 
z
" id="DejaVuSans-79"/>
       <path d="M 53.515625 70.515625 
L 53.515625 60.890625 
Q 47.90625 63.578125 42.921875 64.890625 
Q 37.9375 66.21875 33.296875 66.21875 
Q 25.25 66.21875 20.875 63.09375 
Q 16.5 59.96875 16.5 54.203125 
Q 16.5 49.359375 19.40625 46.890625 
Q 22.3125 44.4375 30.421875 42.921875 
L 36.375 41.703125 
Q 47.40625 39.59375 52.65625 34.296875 
Q 57.90625 29 57.90625 20.125 
Q 57.90625 9.515625 50.796875 4.046875 
Q 43.703125 -1.421875 29.984375 -1.421875 
Q 24.8125 -1.421875 18.96875 -0.25 
Q 13.140625 0.921875 6.890625 3.21875 
L 6.890625 13.375 
Q 12.890625 10.015625 18.65625 8.296875 
Q 24.421875 6.59375 29.984375 6.59375 
Q 38.421875 6.59375 43.015625 9.90625 
Q 47.609375 13.234375 47.609375 19.390625 
Q 47.609375 24.75 44.3125 27.78125 
Q 41.015625 30.8125 33.5 32.328125 
L 27.484375 33.5 
Q 16.453125 35.6875 11.515625 40.375 
Q 6.59375 45.0625 6.59375 53.421875 
Q 6.59375 63.09375 13.40625 68.65625 
Q 20.21875 74.21875 32.171875 74.21875 
Q 37.3125 74.21875 42.625 73.28125 
Q 47.953125 72.359375 53.515625 70.515625 
z
" id="DejaVuSans-83"/>
       <path d="M 25.390625 72.90625 
L 33.6875 72.90625 
L 8.296875 -9.28125 
L 0 -9.28125 
z
" id="DejaVuSans-47"/>
       <path d="M 3.328125 72.90625 
L 13.28125 72.90625 
L 28.609375 11.28125 
L 43.890625 72.90625 
L 54.984375 72.90625 
L 70.3125 11.28125 
L 85.59375 72.90625 
L 95.609375 72.90625 
L 77.296875 0 
L 64.890625 0 
L 49.515625 63.28125 
L 33.984375 0 
L 21.578125 0 
z
" id="DejaVuSans-87"/>
       <path d="M 45.40625 46.390625 
L 45.40625 75.984375 
L 54.390625 75.984375 
L 54.390625 0 
L 45.40625 0 
L 45.40625 8.203125 
Q 42.578125 3.328125 38.25 0.953125 
Q 33.9375 -1.421875 27.875 -1.421875 
Q 17.96875 -1.421875 11.734375 6.484375 
Q 5.515625 14.40625 5.515625 27.296875 
Q 5.515625 40.1875 11.734375 48.09375 
Q 17.96875 56 27.875 56 
Q 33.9375 56 38.25 53.625 
Q 42.578125 51.265625 45.40625 46.390625 
z
M 14.796875 27.296875 
Q 14.796875 17.390625 18.875 11.75 
Q 22.953125 6.109375 30.078125 6.109375 
Q 37.203125 6.109375 41.296875 11.75 
Q 45.40625 17.390625 45.40625 27.296875 
Q 45.40625 37.203125 41.296875 42.84375 
Q 37.203125 48.484375 30.078125 48.484375 
Q 22.953125 48.484375 18.875 42.84375 
Q 14.796875 37.203125 14.796875 27.296875 
z
" id="DejaVuSans-100"/>
       <path d="M 4.203125 54.6875 
L 13.1875 54.6875 
L 24.421875 12.015625 
L 35.59375 54.6875 
L 46.1875 54.6875 
L 57.421875 12.015625 
L 68.609375 54.6875 
L 77.59375 54.6875 
L 63.28125 0 
L 52.6875 0 
L 40.921875 44.828125 
L 29.109375 0 
L 18.5 0 
z
" id="DejaVuSans-119"/>
       <path d="M 54.890625 33.015625 
L 54.890625 0 
L 45.90625 0 
L 45.90625 32.71875 
Q 45.90625 40.484375 42.875 44.328125 
Q 39.84375 48.1875 33.796875 48.1875 
Q 26.515625 48.1875 22.3125 43.546875 
Q 18.109375 38.921875 18.109375 30.90625 
L 18.109375 0 
L 9.078125 0 
L 9.078125 75.984375 
L 18.109375 75.984375 
L 18.109375 46.1875 
Q 21.34375 51.125 25.703125 53.5625 
Q 30.078125 56 35.796875 56 
Q 45.21875 56 50.046875 50.171875 
Q 54.890625 44.34375 54.890625 33.015625 
z
" id="DejaVuSans-104"/>
      </defs>
      <use xlink:href="#DejaVuSans-78"/>
      <use x="74.804688" xlink:href="#DejaVuSans-117"/>
      <use x="138.183594" xlink:href="#DejaVuSans-109"/>
      <use x="235.595703" xlink:href="#DejaVuSans-98"/>
      <use x="299.072266" xlink:href="#DejaVuSans-101"/>
      <use x="360.595703" xlink:href="#DejaVuSans-114"/>
      <use x="401.708984" xlink:href="#DejaVuSans-32"/>
      <use x="433.496094" xlink:href="#DejaVuSans-111"/>
      <use x="494.677734" xlink:href="#DejaVuSans-102"/>
      <use x="529.882812" xlink:href="#DejaVuSans-32"/>
      <use x="561.669922" xlink:href="#DejaVuSans-112"/>
      <use x="625.146484" xlink:href="#DejaVuSans-105"/>
      <use x="652.929688" xlink:href="#DejaVuSans-112"/>
      <use x="716.40625" xlink:href="#DejaVuSans-45"/>
      <use x="752.490234" xlink:href="#DejaVuSans-105"/>
      <use x="780.273438" xlink:href="#DejaVuSans-110"/>
      <use x="843.652344" xlink:href="#DejaVuSans-115"/>
      <use x="895.751953" xlink:href="#DejaVuSans-116"/>
      <use x="934.960938" xlink:href="#DejaVuSans-97"/>
      <use x="996.240234" xlink:href="#DejaVuSans-108"/>
      <use x="1024.023438" xlink:href="#DejaVuSans-108"/>
      <use x="1051.806641" xlink:href="#DejaVuSans-115"/>
      <use x="1103.90625" xlink:href="#DejaVuSans-32"/>
      <use x="1135.693359" xlink:href="#DejaVuSans-111"/>
      <use x="1196.875" xlink:href="#DejaVuSans-110"/>
      <use x="1260.253906" xlink:href="#DejaVuSans-32"/>
      <use x="1292.041016" xlink:href="#DejaVuSans-77"/>
      <use x="1378.320312" xlink:href="#DejaVuSans-97"/>
      <use x="1439.599609" xlink:href="#DejaVuSans-99"/>
      <use x="1494.580078" xlink:href="#DejaVuSans-79"/>
      <use x="1573.291016" xlink:href="#DejaVuSans-83"/>
      <use x="1636.767578" xlink:href="#DejaVuSans-47"/>
      <use x="1670.458984" xlink:href="#DejaVuSans-87"/>
      <use x="1767.085938" xlink:href="#DejaVuSans-105"/>
      <use x="1794.869141" xlink:href="#DejaVuSans-110"/>
      <use x="1858.248047" xlink:href="#DejaVuSans-100"/>
      <use x="1921.724609" xlink:href="#DejaVuSans-111"/>
      <use x="1982.90625" xlink:href="#DejaVuSans-119"/>
      <use x="2064.693359" xlink:href="#DejaVuSans-115"/>
      <use x="2116.792969" xlink:href="#DejaVuSans-32"/>
      <use x="2148.580078" xlink:href="#DejaVuSans-112"/>
      <use x="2212.056641" xlink:href="#DejaVuSans-101"/>
      <use x="2273.580078" xlink:href="#DejaVuSans-114"/>
      <use x="2314.693359" xlink:href="#DejaVuSans-32"/>
      <use x="2346.480469" xlink:href="#DejaVuSans-109"/>
      <use x="2443.892578" xlink:href="#DejaVuSans-111"/>
      <use x="2505.074219" xlink:href="#DejaVuSans-110"/>
      <use x="2568.453125" xlink:href="#DejaVuSans-116"/>
      <use x="2607.662109" xlink:href="#DejaVuSans-104"/>
     </g>
    </g>
   </g>
   <g id="line2d_76">
    <path clip-path="url(#p90d51e356c)" d="M -1 312.666052 
L 1.043478 289.744924 
L 5.086957 262.471606 
L 9.130435 247.92314 
L 13.173913 244.499497 
L 17.217391 224.008484 
L 21.26087 214.380572 
L 25.304348 214.686777 
L 29.347826 236.247606 
L 33.391304 260.453365 
L 37.434783 265.707435 
L 41.478261 253.279544 
L 49.565217 250.130097 
L 53.608696 250.894142 
L 57.652174 252.468235 
L 61.695652 243.209313 
L 65.73913 223.236947 
L 69.782609 211.1608 
L 73.826087 210.880748 
L 77.869565 222.48025 
L 81.913043 226.418241 
L 85.956522 232.208465 
L 90 231.731525 
L 94.043478 250.130097 
L 98.086957 237.325676 
L 102.130435 236.782949 
L 106.173913 228.545629 
L 110.217391 227.680823 
L 114.26087 229.42987 
L 118.304348 228.985265 
L 122.347826 234.68394 
L 126.391304 239.000272 
L 130.434783 236.782949 
L 134.478261 235.198289 
L 138.521739 234.176229 
L 142.565217 232.691257 
L 146.608696 237.325676 
L 150.652174 236.247606 
L 154.695652 251.673318 
L 158.73913 257.607758 
L 162.782609 262.471606 
L 166.826087 244.499497 
L 170.869565 242.579746 
L 174.913043 245.160808 
L 178.956522 275.918443 
L 183 280.552862 
L 187.043478 282.227458 
L 191.086957 271.772814 
L 195.130435 268.022637 
L 199.173913 268.022637 
L 203.217391 273.106741 
L 207.26087 283.976505 
L 211.304348 270.482631 
L 215.347826 254.107934 
L 219.391304 236.247606 
L 223.434783 238.434118 
L 227.478261 243.849117 
L 231.521739 269.233412 
L 235.565217 266.84801 
L 239.608696 257.607758 
L 243.652174 254.95414 
L 247.695652 258.533614 
L 251.73913 278.946635 
L 255.782609 278.946635 
L 259.826087 275.918443 
L 263.869565 266.84801 
L 267.913043 269.233412 
L 271.956522 265.707435 
L 276 270.482631 
L 280.043478 262.471606 
L 284.086957 266.84801 
L 288.130435 252.468235 
L 292.173913 210.880748 
L 300.26087 204.935147 
L 304.304348 232.208465 
L 308.347826 226.006226 
L 312.391304 232.691257 
L 316.434783 234.68394 
L 320.478261 206.153421 
L 328.565217 180.651653 
L 332.608696 185.464443 
L 336.652174 194.648808 
L 340.695652 209.509631 
L 344.73913 217.226179 
L 348.782609 215.306429 
L 352.826087 212.301375 
L 356.869565 220.649823 
L 360.913043 220.649823 
L 364.956522 215.619953 
L 369 196.540859 
L 373.043478 191.971103 
L 377.086957 184.596458 
L 381.130435 202.156552 
L 385.173913 209.780059 
L 389.217391 199.982127 
L 393.26087 168.121429 
L 397.304348 159.530097 
L 401.347826 159.910265 
L 405.391304 152.800164 
L 409.434783 150.149319 
L 413.478261 141.131525 
L 417.521739 146.94488 
L 421.565217 151.176086 
L 425.608696 168.594925 
L 429.652174 193.19806 
L 433.695652 188.346635 
L 437.73913 179.882631 
L 441.782609 156.194831 
L 445.826087 152.545901 
L 449.869565 140.473374 
L 453.913043 143.425184 
L 457.956522 141.56051 
L 462 142.777276 
L 466.043478 142.629262 
L 470.086957 148.457338 
L 474.130435 170.950566 
L 478.173913 176.713661 
L 482.217391 164.098362 
L 486.26087 150.030266 
L 490.304348 138.4295 
L 494.347826 120.224976 
L 498.391304 115.331329 
L 502.434783 114.96394 
L 506.478261 120.169284 
L 510.521739 114.239296 
L 514.565217 105.002383 
L 518.608696 94.514948 
L 522.652174 91.568996 
L 526.695652 91.474945 
L 530.73913 101.717775 
L 534.782609 104.28969 
L 538.826087 111.73581 
L 542.869565 111.803243 
L 546.913043 121.441848 
L 550.956522 130.337029 
L 555 120.5608 
L 559.043478 117.741346 
L 563.086957 105.824734 
L 567.130435 107.704886 
L 571.173913 110.97954 
L 575.217391 112.369724 
L 579.26087 118.321153 
L 583.304348 109.679408 
L 587.347826 114.720906 
L 591.391304 108.482846 
L 595.434783 115.233023 
L 599.478261 108.462175 
L 603.521739 108.173917 
L 607.565217 97.292836 
L 611.608696 88.75312 
L 615.652174 83.289848 
L 619.695652 80.340452 
L 623.73913 87.544622 
L 627.782609 98.783194 
L 631.826087 107.28147 
L 635.869565 107.381871 
L 639.913043 103.681076 
L 643.956522 101.422909 
L 648 110.86954 
L 648 110.86954 
" style="fill:none;stroke:#1f77b4;stroke-dasharray:1.5,2.475;stroke-dashoffset:0;stroke-width:1.5;"/>
   </g>
   <g id="line2d_77">
    <path clip-path="url(#p90d51e356c)" d="M -1 303.496351 
L 1.043478 277.403415 
L 5.086957 254.107934 
L 9.130435 228.985265 
L 13.173913 227.680823 
L 17.217391 228.985265 
L 21.26087 217.88749 
L 25.304348 213.179041 
L 29.347826 211.1608 
L 33.391304 224.008484 
L 37.434783 223.620824 
L 41.478261 219.24442 
L 45.521739 222.107289 
L 49.565217 221.009159 
L 53.608696 221.73783 
L 57.652174 210.052358 
L 61.695652 208.974289 
L 65.73913 199.561299 
L 69.782609 204.221888 
L 73.826087 195.583462 
L 77.869565 203.753465 
L 81.913043 207.666956 
L 85.956522 234.68394 
L 90 237.875994 
L 94.043478 230.794645 
L 102.130435 218.900776 
L 106.173913 224.795451 
L 110.217391 223.620824 
L 114.26087 232.691257 
L 118.304348 233.674986 
L 122.347826 230.794645 
L 126.391304 226.834616 
L 130.434783 223.620824 
L 138.521739 226.006226 
L 142.565217 231.260297 
L 146.608696 228.545629 
L 150.652174 228.545629 
L 154.695652 222.856779 
L 158.73913 223.620824 
L 162.782609 222.48025 
L 166.826087 224.4 
L 170.869565 224.008484 
L 174.913043 224.4 
L 178.956522 223.236947 
L 183 221.73783 
L 187.043478 222.48025 
L 191.086957 227.680823 
L 195.130435 228.545629 
L 199.173913 229.879556 
L 203.217391 229.879556 
L 207.26087 239.000272 
L 211.304348 230.33444 
L 215.347826 229.42987 
L 219.391304 219.940847 
L 223.434783 228.11085 
L 227.478261 227.680823 
L 231.521739 234.68394 
L 235.565217 227.680823 
L 239.608696 229.879556 
L 243.652174 231.731525 
L 247.695652 238.434118 
L 251.73913 237.325676 
L 255.782609 238.434118 
L 259.826087 237.875994 
L 263.869565 240.157623 
L 267.913043 246.517738 
L 271.956522 243.849117 
L 276 239.000272 
L 280.043478 231.731525 
L 284.086957 234.68394 
L 288.130435 243.849117 
L 292.173913 247.92314 
L 296.217391 247.92314 
L 300.26087 250.130097 
L 304.304348 258.533614 
L 308.347826 268.022637 
L 312.391304 264.598993 
L 316.434783 274.487482 
L 320.478261 250.130097 
L 324.521739 236.782949 
L 328.565217 219.591093 
L 332.608696 221.009159 
L 336.652174 214.686777 
L 340.695652 213.179041 
L 344.73913 206.153421 
L 348.782609 204.221888 
L 352.826087 204.935147 
L 356.869565 210.052358 
L 360.913043 208.184689 
L 364.956522 205.175803 
L 369 203.986979 
L 373.043478 205.90673 
L 377.086957 209.241049 
L 381.130435 219.940847 
L 385.173913 224.008484 
L 389.217391 223.236947 
L 393.26087 213.179041 
L 397.304348 209.780059 
L 401.347826 207.155948 
L 405.391304 203.290552 
L 409.434783 200.194241 
L 413.478261 200.194241 
L 417.521739 204.695955 
L 421.565217 205.90673 
L 425.608696 209.780059 
L 429.652174 211.726955 
L 433.695652 213.179041 
L 437.73913 210.326555 
L 441.782609 204.221888 
L 445.826087 208.446132 
L 449.869565 205.90673 
L 453.913043 211.726955 
L 457.956522 217.88749 
L 462 229.879556 
L 466.043478 228.11085 
L 470.086957 221.009159 
L 474.130435 215.935995 
L 478.173913 223.236947 
L 482.217391 234.176229 
L 486.26087 243.209313 
L 494.347826 214.076732 
L 498.391304 213.179041 
L 502.434783 221.371808 
L 506.478261 230.33444 
L 510.521739 237.325676 
L 514.565217 231.731525 
L 518.608696 236.782949 
L 522.652174 232.208465 
L 526.695652 246.517738 
L 530.73913 254.107934 
L 534.782609 265.707435 
L 538.826087 243.849117 
L 546.913043 233.180047 
L 550.956522 236.782949 
L 555 236.247606 
L 559.043478 229.879556 
L 563.086957 229.879556 
L 567.130435 224.008484 
L 571.173913 230.794645 
L 575.217391 229.879556 
L 579.26087 239.000272 
L 583.304348 237.875994 
L 587.347826 238.434118 
L 591.391304 241.960094 
L 595.434783 240.157623 
L 599.478261 240.749319 
L 603.521739 239.000272 
L 607.565217 245.160808 
L 611.608696 244.499497 
L 615.652174 242.579746 
L 619.695652 238.434118 
L 623.73913 240.157623 
L 627.782609 237.875994 
L 631.826087 243.849117 
L 635.869565 248.645125 
L 639.913043 257.607758 
L 643.956522 258.533614 
L 648 275.918443 
L 648 275.918443 
" style="fill:none;stroke:#ff7f0e;stroke-dasharray:1.5,2.475;stroke-dashoffset:0;stroke-width:1.5;"/>
   </g>
   <g id="line2d_78">
    <path clip-path="url(#p90d51e356c)" d="M -1 294.631887 
L 1.043478 259.481783 
L 5.086957 232.691257 
L 9.130435 219.24442 
L 13.173913 218.900776 
L 17.217391 218.222361 
L 21.26087 201.054321 
L 25.304348 197.522134 
L 29.347826 200.407505 
L 33.391304 221.73783 
L 37.434783 237.325676 
L 41.478261 240.157623 
L 45.521739 236.782949 
L 49.565217 237.875994 
L 53.608696 228.545629 
L 57.652174 215.935995 
L 61.695652 210.326555 
L 65.73913 206.902911 
L 69.782609 219.24442 
L 73.826087 211.726955 
L 77.869565 213.179041 
L 81.913043 212.591761 
L 85.956522 229.42987 
L 90 248.645125 
L 94.043478 243.209313 
L 98.086957 228.545629 
L 102.130435 222.856779 
L 106.173913 226.418241 
L 110.217391 233.674986 
L 114.26087 232.208465 
L 118.304348 237.325676 
L 122.347826 230.33444 
L 126.391304 226.006226 
L 130.434783 228.11085 
L 134.478261 230.794645 
L 138.521739 242.579746 
L 142.565217 233.180047 
L 146.608696 241.35005 
L 150.652174 239.000272 
L 154.695652 243.849117 
L 158.73913 243.849117 
L 162.782609 245.833424 
L 166.826087 243.849117 
L 170.869565 237.875994 
L 174.913043 231.260297 
L 178.956522 231.731525 
L 183 231.260297 
L 187.043478 240.749319 
L 191.086957 236.782949 
L 195.130435 234.176229 
L 199.173913 224.795451 
L 203.217391 225.194918 
L 207.26087 229.42987 
L 211.304348 230.794645 
L 215.347826 226.834616 
L 219.391304 226.834616 
L 223.434783 233.180047 
L 227.478261 253.279544 
L 231.521739 253.279544 
L 235.565217 269.233412 
L 239.608696 259.481783 
L 243.652174 263.520924 
L 247.695652 254.107934 
L 251.73913 245.833424 
L 255.782609 241.35005 
L 259.826087 245.833424 
L 263.869565 254.107934 
L 267.913043 264.598993 
L 271.956522 250.130097 
L 276 250.894142 
L 280.043478 253.279544 
L 284.086957 264.598993 
L 288.130435 268.022637 
L 292.173913 271.772814 
L 296.217391 275.918443 
L 300.26087 280.552862 
L 304.304348 285.806932 
L 308.347826 285.806932 
L 312.391304 282.227458 
L 316.434783 280.552862 
L 320.478261 260.453365 
L 328.565217 233.674986 
L 332.608696 241.960094 
L 336.652174 240.749319 
L 340.695652 243.209313 
L 344.73913 228.11085 
L 348.782609 225.194918 
L 352.826087 222.856779 
L 356.869565 226.006226 
L 360.913043 231.260297 
L 364.956522 224.008484 
L 369 231.731525 
L 373.043478 226.418241 
L 377.086957 236.782949 
L 381.130435 233.674986 
L 385.173913 244.499497 
L 389.217391 250.130097 
L 393.26087 243.209313 
L 397.304348 229.42987 
L 405.391304 233.180047 
L 409.434783 236.247606 
L 413.478261 214.076732 
L 417.521739 214.380572 
L 421.565217 218.560106 
L 425.608696 240.157623 
L 429.652174 245.833424 
L 433.695652 246.517738 
L 437.73913 248.645125 
L 441.782609 247.214165 
L 445.826087 242.579746 
L 449.869565 230.794645 
L 453.913043 233.180047 
L 457.956522 235.71945 
L 462 251.673318 
L 466.043478 247.214165 
L 470.086957 250.130097 
L 474.130435 241.35005 
L 478.173913 244.499497 
L 482.217391 249.380606 
L 486.26087 265.707435 
L 490.304348 257.607758 
L 494.347826 251.673318 
L 498.391304 241.960094 
L 502.434783 235.71945 
L 506.478261 233.180047 
L 510.521739 226.834616 
L 514.565217 228.11085 
L 518.608696 230.33444 
L 522.652174 241.35005 
L 526.695652 255.818946 
L 530.73913 266.84801 
L 534.782609 266.84801 
L 538.826087 270.482631 
L 542.869565 251.673318 
L 546.913043 249.380606 
L 550.956522 236.782949 
L 555 235.71945 
L 559.043478 230.794645 
L 563.086957 227.680823 
L 567.130435 234.176229 
L 571.173913 240.157623 
L 575.217391 250.894142 
L 579.26087 254.107934 
L 583.304348 247.92314 
L 587.347826 248.645125 
L 591.391304 236.782949 
L 595.434783 241.960094 
L 599.478261 243.849117 
L 603.521739 253.279544 
L 607.565217 255.818946 
L 611.608696 249.380606 
L 615.652174 250.130097 
L 619.695652 250.130097 
L 623.73913 260.453365 
L 627.782609 256.703188 
L 631.826087 260.453365 
L 635.869565 260.453365 
L 639.913043 265.707435 
L 643.956522 266.84801 
L 648 277.403415 
L 648 277.403415 
" style="fill:none;stroke:#2ca02c;stroke-dasharray:1.5,2.475;stroke-dashoffset:0;stroke-width:1.5;"/>
   </g>
   <g id="line2d_79">
    <path clip-path="url(#p90d51e356c)" d="M 195.12928 361 
L 195.130435 335.099497 
L 199.173913 323.780047 
L 203.217391 311.249823 
L 207.26087 329.034118 
L 211.304348 335.099497 
L 219.391304 335.099497 
L 223.434783 319.145629 
L 227.478261 304.676732 
L 231.521739 287.726682 
L 235.565217 289.744924 
L 239.608696 294.121328 
L 243.652174 307.826179 
L 247.695652 304.676732 
L 251.73913 307.826179 
L 255.782609 315 
L 259.826087 277.403415 
L 263.869565 265.707435 
L 267.913043 253.279544 
L 271.956522 262.471606 
L 276 264.598993 
L 280.043478 271.772814 
L 284.086957 277.403415 
L 288.130435 289.744924 
L 292.173913 296.50673 
L 296.217391 285.806932 
L 300.26087 273.106741 
L 304.304348 268.022637 
L 308.347826 262.471606 
L 312.391304 266.84801 
L 316.434783 274.487482 
L 320.478261 264.598993 
L 324.521739 250.894142 
L 328.565217 237.875994 
L 332.608696 242.579746 
L 336.652174 249.380606 
L 340.695652 254.107934 
L 344.73913 224.4 
L 348.782609 210.880748 
L 352.826087 202.156552 
L 356.869565 205.661576 
L 360.913043 205.661576 
L 364.956522 203.290552 
L 369 196.347507 
L 373.043478 198.122864 
L 377.086957 199.77115 
L 381.130435 219.591093 
L 385.173913 216.254597 
L 389.217391 222.856779 
L 393.26087 206.153421 
L 397.304348 201.491515 
L 401.347826 195.773087 
L 405.391304 194.833971 
L 409.434783 192.843579 
L 413.478261 178.144622 
L 417.521739 173.998993 
L 421.565217 171.357258 
L 425.608696 180.009762 
L 429.652174 186.803415 
L 433.695652 195.206932 
L 437.73913 197.126682 
L 441.782609 192.843579 
L 445.826087 191.456755 
L 449.869565 189.626328 
L 453.913043 189.464072 
L 457.956522 185.905724 
L 462 188.346635 
L 466.043478 190.4478 
L 470.086957 193.19806 
L 474.130435 190.4478 
L 478.173913 189.952862 
L 482.217391 184.883664 
L 486.26087 183.329358 
L 490.304348 168.785931 
L 494.347826 133.44746 
L 498.391304 126.169787 
L 502.434783 123.295548 
L 506.478261 134.116043 
L 510.521739 130.049823 
L 514.565217 121.298402 
L 518.608696 110.563165 
L 522.652174 100.349043 
L 526.695652 94.428057 
L 530.73913 93.75397 
L 534.782609 92.812574 
L 538.826087 97.542561 
L 542.869565 95.962021 
L 546.913043 104.104265 
L 550.956522 106.507014 
L 555 104.159801 
L 559.043478 97.355119 
L 563.086957 87.37497 
L 567.130435 86.020089 
L 571.173913 86.172257 
L 575.217391 87.520341 
L 579.26087 91.247466 
L 583.304348 91.893176 
L 587.347826 96.890384 
L 591.391304 93.796654 
L 595.434783 92.743215 
L 599.478261 81.604353 
L 603.521739 82.41675 
L 607.565217 80.563555 
L 611.608696 79.638881 
L 615.652174 74.210119 
L 619.695652 73.865496 
L 623.73913 82.705635 
L 627.782609 92.384509 
L 631.826087 96.874987 
L 635.869565 94.053732 
L 639.913043 90.025776 
L 643.956522 88.740599 
L 648 100.399521 
L 648 100.399521 
" style="fill:none;stroke:#d62728;stroke-linecap:square;stroke-width:1.5;"/>
   </g>
   <g id="line2d_80">
    <path clip-path="url(#p90d51e356c)" d="M 330.50845 361 
L 332.608696 342.273318 
L 336.652174 319.145629 
L 340.695652 289.744924 
L 344.73913 190.11715 
L 348.782609 148.00311 
L 352.826087 135.242621 
L 356.869565 131.13783 
L 360.913043 147.946699 
L 364.956522 151.176086 
L 369 163.424306 
L 373.043478 145.435492 
L 377.086957 134.796182 
L 381.130435 134.474651 
L 385.173913 129.200572 
L 389.217391 134.076398 
L 393.26087 127.154336 
L 397.304348 129.907002 
L 401.347826 136.697776 
L 405.391304 131.433119 
L 409.434783 116.912956 
L 413.478261 104.085771 
L 417.521739 104.196869 
L 421.565217 118.215096 
L 425.608696 109.066085 
L 429.652174 107.583445 
L 433.695652 108.877671 
L 437.73913 113.223374 
L 441.782609 107.30153 
L 445.826087 90.246281 
L 449.869565 81.583474 
L 453.913043 75.853501 
L 457.956522 78.397114 
L 462 84.507435 
L 466.043478 95.513361 
L 470.086957 100.959088 
L 474.130435 109.743405 
L 478.173913 111.690919 
L 482.217391 110.847577 
L 486.26087 113.014018 
L 490.304348 105.689686 
L 494.347826 95.025672 
L 498.391304 92.770944 
L 502.434783 93.259387 
L 506.478261 105.440106 
L 510.521739 104.644423 
L 514.565217 104.813577 
L 518.608696 97.999266 
L 522.652174 88.928833 
L 526.695652 79.037549 
L 530.73913 77.937804 
L 534.782609 79.758266 
L 538.826087 90.389622 
L 542.869565 89.244571 
L 546.913043 97.573888 
L 550.956522 100.652883 
L 555 100.805688 
L 559.043478 95.439079 
L 563.086957 85.740701 
L 567.130435 84.823478 
L 571.173913 85.00522 
L 575.217391 87.013875 
L 579.26087 88.39162 
L 583.304348 86.537512 
L 587.347826 91.061112 
L 591.391304 89.550082 
L 595.434783 91.234125 
L 599.478261 80.108554 
L 603.521739 82.151141 
L 607.565217 79.559492 
L 611.608696 78.358632 
L 615.652174 73.337225 
L 619.695652 73.396515 
L 627.782609 90.888857 
L 631.826087 95.752009 
L 635.869565 93.739753 
L 639.913043 89.896642 
L 643.956522 88.565723 
L 648 99.947539 
L 648 99.947539 
" style="fill:none;stroke:#9467bd;stroke-linecap:square;stroke-width:1.5;"/>
   </g>
   <g id="line2d_81">
    <path clip-path="url(#p90d51e356c)" d="M 456.481857 361 
L 457.956522 351.053365 
L 462 351.053365 
L 465.553088 361 
M 490.580521 361 
L 494.347826 342.273318 
L 498.391304 323.780047 
L 502.434783 335.099497 
L 506.478261 335.099497 
L 510.521739 342.273318 
L 514.565217 329.034118 
L 518.608696 342.273318 
L 522.376001 361 
M 553.525335 361 
L 555 351.053365 
L 559.043478 342.273318 
L 563.086957 342.273318 
L 566.854261 361 
L 566.854261 361 
" style="fill:none;stroke:#8c564b;stroke-linecap:square;stroke-width:1.5;"/>
   </g>
   <g id="line2d_82">
    <path clip-path="url(#p90d51e356c)" d="M 332.607036 361 
L 332.608696 323.780047 
L 336.652174 319.145629 
L 340.695652 311.249823 
L 344.73913 335.099497 
L 348.782609 329.034118 
L 352.826087 323.780047 
L 356.869565 335.099497 
L 360.913043 351.053365 
L 361.650376 361 
M 383.073667 361 
L 385.173913 342.273318 
L 389.217391 335.099497 
L 393.26087 335.099497 
L 397.304348 323.780047 
L 401.347826 319.145629 
L 405.391304 319.145629 
L 413.478261 351.053365 
L 417.521739 342.273318 
L 421.565217 342.273318 
L 425.608696 351.053365 
L 429.652174 342.273318 
L 433.695652 335.099497 
L 437.73913 329.034118 
L 441.782609 289.744924 
L 449.869565 285.806932 
L 453.913043 304.676732 
L 457.956522 307.826179 
L 462 304.676732 
L 466.043478 283.976505 
L 470.086957 278.946635 
L 474.130435 277.403415 
L 478.173913 294.121328 
L 482.217391 294.121328 
L 486.26087 304.676732 
L 490.304348 319.145629 
L 494.347826 335.099497 
L 498.391304 315 
L 502.434783 294.121328 
L 506.478261 287.726682 
L 510.521739 282.227458 
L 514.565217 249.380606 
L 518.608696 202.156552 
L 522.652174 188.033111 
L 526.695652 178.388258 
L 530.73913 187.107255 
L 534.782609 185.905724 
L 538.826087 193.735842 
L 542.869565 195.206932 
L 546.913043 206.902911 
L 550.956522 214.686777 
L 555 188.504339 
L 559.043478 165.658583 
L 563.086957 150.268734 
L 567.130435 146.507686 
L 571.173913 153.572963 
L 575.217391 159.153567 
L 579.26087 169.170747 
L 583.304348 162.271798 
L 587.347826 164.35414 
L 591.391304 156.334113 
L 595.434783 160.837941 
L 599.478261 158.484762 
L 603.521739 159.833937 
L 607.565217 152.042252 
L 611.608696 141.464775 
L 615.652174 136.444468 
L 619.695652 138.919397 
L 623.73913 147.386987 
L 627.782609 159.153567 
L 631.826087 158.632406 
L 635.869565 158.929367 
L 643.956522 161.628069 
L 648 173.998993 
L 648 173.998993 
" style="fill:none;stroke:#e377c2;stroke-linecap:square;stroke-width:1.5;"/>
   </g>
   <g id="line2d_83">
    <path clip-path="url(#p90d51e356c)" d="M 401.838216 361 
L 405.391304 351.053365 
L 409.434783 351.053365 
L 410.909447 361 
M 417.725269 361 
L 421.565217 335.099497 
L 425.608696 323.780047 
L 429.652174 335.099497 
L 433.695652 351.053365 
L 437.73913 311.249823 
L 441.782609 307.826179 
L 445.826087 307.826179 
L 449.869565 351.053365 
L 453.422653 361 
M 454.116574 361 
L 457.956522 335.099497 
L 462 342.273318 
L 466.043478 329.034118 
L 470.086957 335.099497 
L 474.130435 329.034118 
L 478.173913 323.780047 
L 482.217391 319.145629 
L 486.26087 315 
L 490.304348 299.046132 
L 498.391304 299.046132 
L 502.434783 319.145629 
L 510.521739 351.053365 
L 518.608696 319.145629 
L 522.652174 311.249823 
L 526.695652 296.50673 
L 530.73913 301.7608 
L 534.782609 307.826179 
L 538.724322 361 
M 543.145739 361 
L 546.913043 342.273318 
L 550.956522 335.099497 
L 555 329.034118 
L 559.043478 319.145629 
L 563.086957 304.676732 
L 567.130435 294.121328 
L 571.173913 294.121328 
L 575.217391 301.7608 
L 587.347826 301.7608 
L 591.391304 319.145629 
L 595.434783 315 
L 599.478261 234.176229 
L 603.521739 224.008484 
L 607.565217 212.013117 
L 611.608696 230.794645 
L 615.652174 243.209313 
L 619.695652 283.976505 
L 623.73913 351.053365 
L 627.782609 342.273318 
L 631.826087 335.099497 
L 635.869565 319.145629 
L 639.913043 278.946635 
L 643.956522 265.707435 
L 648 269.233412 
L 648 269.233412 
" style="fill:none;stroke:#7f7f7f;stroke-linecap:square;stroke-width:1.5;"/>
   </g>
   <g id="line2d_84">
    <path clip-path="url(#p90d51e356c)" d="M 447.670539 361 
L 449.869565 307.826179 
L 453.913043 296.50673 
L 457.956522 287.726682 
L 462 315 
L 466.043478 304.676732 
L 470.086957 301.7608 
L 474.130435 299.046132 
L 478.173913 299.046132 
L 482.217391 311.249823 
L 486.26087 307.826179 
L 490.304348 307.826179 
L 494.347826 301.7608 
L 498.391304 289.744924 
L 502.434783 289.744924 
L 506.478261 294.121328 
L 510.521739 299.046132 
L 514.565217 289.744924 
L 518.608696 274.487482 
L 522.652174 275.918443 
L 526.695652 283.976505 
L 530.73913 307.826179 
L 534.782609 304.676732 
L 538.826087 299.046132 
L 542.869565 270.482631 
L 546.913043 273.106741 
L 550.956522 282.227458 
L 555 323.780047 
L 559.043478 323.780047 
L 563.086957 287.726682 
L 567.130435 257.607758 
L 571.173913 254.95414 
L 575.217391 252.468235 
L 579.26087 273.106741 
L 583.304348 280.552862 
L 587.347826 323.780047 
L 591.391304 335.099497 
L 595.434783 304.676732 
L 599.478261 301.7608 
L 603.521739 296.50673 
L 607.565217 315 
L 611.608696 294.121328 
L 615.652174 296.50673 
L 619.695652 301.7608 
L 623.73913 335.099497 
L 627.782609 351.053365 
L 631.826087 323.780047 
L 635.869565 329.034118 
L 639.913043 342.273318 
L 642.013289 361 
L 642.013289 361 
" style="fill:none;stroke:#bcbd22;stroke-linecap:square;stroke-width:1.5;"/>
   </g>
   <g id="line2d_85">
    <path clip-path="url(#p90d51e356c)" d="M 500.595402 361 
L 502.434783 323.780047 
L 506.478261 304.676732 
L 510.521739 304.676732 
L 514.565217 285.806932 
L 518.608696 270.482631 
L 522.652174 262.471606 
L 526.695652 204.935147 
L 530.73913 169.267541 
L 534.782609 157.972328 
L 538.826087 159.078692 
L 542.869565 164.611592 
L 546.913043 164.957503 
L 550.956522 162.35301 
L 555 163.091559 
L 559.043478 161.788017 
L 563.086957 155.505723 
L 567.130435 151.360094 
L 571.173913 151.237326 
L 575.217391 159.681724 
L 579.26087 160.526279 
L 583.304348 166.013864 
L 587.347826 169.267541 
L 591.391304 178.144622 
L 595.434783 171.562191 
L 599.478261 166.013864 
L 603.521739 167.560653 
L 607.565217 167.099369 
L 611.608696 167.007758 
L 615.652174 171.459591 
L 619.695652 178.144622 
L 623.73913 180.781298 
L 627.782609 165.394212 
L 631.826087 165.044458 
L 635.869565 162.43439 
L 639.913043 161.38936 
L 643.956522 160.916243 
L 648 173.67246 
L 648 173.67246 
" style="fill:none;stroke:#17becf;stroke-linecap:square;stroke-width:1.5;"/>
   </g>
   <g id="line2d_86">
    <path clip-path="url(#p90d51e356c)" d="M 498.389879 361 
L 498.391304 329.034118 
L 502.434783 299.046132 
L 506.478261 260.453365 
L 510.521739 262.471606 
L 514.565217 271.772814 
L 518.608696 323.780047 
L 522.652174 335.099497 
L 526.695652 261.449547 
L 530.73913 264.598993 
L 534.782609 262.471606 
L 538.826087 329.034118 
L 542.869565 329.034118 
L 546.913043 261.449547 
L 550.956522 259.481783 
L 555 254.95414 
L 559.043478 301.7608 
L 563.086957 301.7608 
L 567.130435 296.50673 
L 571.173913 296.50673 
L 575.217391 294.121328 
L 579.26087 304.676732 
L 583.304348 301.7608 
L 587.347826 311.249823 
L 591.391304 299.046132 
L 595.434783 315 
L 599.478261 299.046132 
L 603.521739 307.826179 
L 607.565217 271.772814 
L 611.608696 241.35005 
L 615.652174 221.371808 
L 619.695652 203.986979 
L 623.73913 203.753465 
L 627.782609 200.837532 
L 631.826087 209.509631 
L 635.869565 207.155948 
L 639.913043 201.933622 
L 643.956522 199.982127 
L 648 211.1608 
L 648 211.1608 
" style="fill:none;stroke:#1f77b4;stroke-linecap:square;stroke-width:1.5;"/>
   </g>
   <g id="patch_3">
    <path d="M 90 315 
L 90 43.2 
" style="fill:none;stroke:#000000;stroke-linecap:square;stroke-linejoin:miter;stroke-width:0.8;"/>
   </g>
   <g id="patch_4">
    <path d="M 648 315 
L 648 43.2 
" style="fill:none;stroke:#000000;stroke-linecap:square;stroke-linejoin:miter;stroke-width:0.8;"/>
   </g>
   <g id="patch_5">
    <path d="M 90 315 
L 648 315 
" style="fill:none;stroke:#000000;stroke-linecap:square;stroke-linejoin:miter;stroke-width:0.8;"/>
   </g>
   <g id="patch_6">
    <path d="M 90 43.2 
L 648 43.2 
" style="fill:none;stroke:#000000;stroke-linecap:square;stroke-linejoin:miter;stroke-width:0.8;"/>
   </g>
   <g id="legend_1">
    <g id="patch_7">
     <path d="M 97 212.659375 
L 211.015625 212.659375 
Q 213.015625 212.659375 213.015625 210.659375 
L 213.015625 50.2 
Q 213.015625 48.2 211.015625 48.2 
L 97 48.2 
Q 95 48.2 95 50.2 
L 95 210.659375 
Q 95 212.659375 97 212.659375 
z
" style="fill:#ffffff;opacity:0.8;stroke:#cccccc;stroke-linejoin:miter;"/>
    </g>
    <g id="line2d_87">
     <path d="M 99 56.298437 
L 119 56.298437 
" style="fill:none;stroke:#1f77b4;stroke-dasharray:1.5,2.475;stroke-dashoffset:0;stroke-width:1.5;"/>
    </g>
    <g id="line2d_88"/>
    <g id="text_14">
     <!-- iminuit -->
     <g transform="translate(127 59.798437)scale(0.1 -0.1)">
      <use xlink:href="#DejaVuSans-105"/>
      <use x="27.783203" xlink:href="#DejaVuSans-109"/>
      <use x="125.195312" xlink:href="#DejaVuSans-105"/>
      <use x="152.978516" xlink:href="#DejaVuSans-110"/>
      <use x="216.357422" xlink:href="#DejaVuSans-117"/>
      <use x="279.736328" xlink:href="#DejaVuSans-105"/>
      <use x="307.519531" xlink:href="#DejaVuSans-116"/>
     </g>
    </g>
    <g id="line2d_89">
     <path d="M 99 70.976562 
L 119 70.976562 
" style="fill:none;stroke:#ff7f0e;stroke-dasharray:1.5,2.475;stroke-dashoffset:0;stroke-width:1.5;"/>
    </g>
    <g id="line2d_90"/>
    <g id="text_15">
     <!-- root-numpy -->
     <g transform="translate(127 74.476562)scale(0.1 -0.1)">
      <defs>
       <path d="M 32.171875 -5.078125 
Q 28.375 -14.84375 24.75 -17.8125 
Q 21.140625 -20.796875 15.09375 -20.796875 
L 7.90625 -20.796875 
L 7.90625 -13.28125 
L 13.1875 -13.28125 
Q 16.890625 -13.28125 18.9375 -11.515625 
Q 21 -9.765625 23.484375 -3.21875 
L 25.09375 0.875 
L 2.984375 54.6875 
L 12.5 54.6875 
L 29.59375 11.921875 
L 46.6875 54.6875 
L 56.203125 54.6875 
z
" id="DejaVuSans-121"/>
      </defs>
      <use xlink:href="#DejaVuSans-114"/>
      <use x="38.863281" xlink:href="#DejaVuSans-111"/>
      <use x="100.044922" xlink:href="#DejaVuSans-111"/>
      <use x="161.226562" xlink:href="#DejaVuSans-116"/>
      <use x="200.435547" xlink:href="#DejaVuSans-45"/>
      <use x="236.519531" xlink:href="#DejaVuSans-110"/>
      <use x="299.898438" xlink:href="#DejaVuSans-117"/>
      <use x="363.277344" xlink:href="#DejaVuSans-109"/>
      <use x="460.689453" xlink:href="#DejaVuSans-112"/>
      <use x="524.166016" xlink:href="#DejaVuSans-121"/>
     </g>
    </g>
    <g id="line2d_91">
     <path d="M 99 85.654688 
L 119 85.654688 
" style="fill:none;stroke:#2ca02c;stroke-dasharray:1.5,2.475;stroke-dashoffset:0;stroke-width:1.5;"/>
    </g>
    <g id="line2d_92"/>
    <g id="text_16">
     <!-- rootpy -->
     <g transform="translate(127 89.154688)scale(0.1 -0.1)">
      <use xlink:href="#DejaVuSans-114"/>
      <use x="38.863281" xlink:href="#DejaVuSans-111"/>
      <use x="100.044922" xlink:href="#DejaVuSans-111"/>
      <use x="161.226562" xlink:href="#DejaVuSans-116"/>
      <use x="200.435547" xlink:href="#DejaVuSans-112"/>
      <use x="263.912109" xlink:href="#DejaVuSans-121"/>
     </g>
    </g>
    <g id="line2d_93">
     <path d="M 99 100.332812 
L 119 100.332812 
" style="fill:none;stroke:#d62728;stroke-linecap:square;stroke-width:1.5;"/>
    </g>
    <g id="line2d_94"/>
    <g id="text_17">
     <!-- uproot -->
     <g transform="translate(127 103.832812)scale(0.1 -0.1)">
      <use xlink:href="#DejaVuSans-117"/>
      <use x="63.378906" xlink:href="#DejaVuSans-112"/>
      <use x="126.855469" xlink:href="#DejaVuSans-114"/>
      <use x="165.71875" xlink:href="#DejaVuSans-111"/>
      <use x="226.900391" xlink:href="#DejaVuSans-111"/>
      <use x="288.082031" xlink:href="#DejaVuSans-116"/>
     </g>
    </g>
    <g id="line2d_95">
     <path d="M 99 115.010938 
L 119 115.010938 
" style="fill:none;stroke:#9467bd;stroke-linecap:square;stroke-width:1.5;"/>
    </g>
    <g id="line2d_96"/>
    <g id="text_18">
     <!-- awkward -->
     <g transform="translate(127 118.510938)scale(0.1 -0.1)">
      <defs>
       <path d="M 9.078125 75.984375 
L 18.109375 75.984375 
L 18.109375 31.109375 
L 44.921875 54.6875 
L 56.390625 54.6875 
L 27.390625 29.109375 
L 57.625 0 
L 45.90625 0 
L 18.109375 26.703125 
L 18.109375 0 
L 9.078125 0 
z
" id="DejaVuSans-107"/>
      </defs>
      <use xlink:href="#DejaVuSans-97"/>
      <use x="61.279297" xlink:href="#DejaVuSans-119"/>
      <use x="143.066406" xlink:href="#DejaVuSans-107"/>
      <use x="200.976562" xlink:href="#DejaVuSans-119"/>
      <use x="282.763672" xlink:href="#DejaVuSans-97"/>
      <use x="344.042969" xlink:href="#DejaVuSans-114"/>
      <use x="383.40625" xlink:href="#DejaVuSans-100"/>
     </g>
    </g>
    <g id="line2d_97">
     <path d="M 99 129.689062 
L 119 129.689062 
" style="fill:none;stroke:#8c564b;stroke-linecap:square;stroke-width:1.5;"/>
    </g>
    <g id="line2d_98"/>
    <g id="text_19">
     <!-- fast-carpenter -->
     <g transform="translate(127 133.189062)scale(0.1 -0.1)">
      <use xlink:href="#DejaVuSans-102"/>
      <use x="35.205078" xlink:href="#DejaVuSans-97"/>
      <use x="96.484375" xlink:href="#DejaVuSans-115"/>
      <use x="148.583984" xlink:href="#DejaVuSans-116"/>
      <use x="187.792969" xlink:href="#DejaVuSans-45"/>
      <use x="223.876953" xlink:href="#DejaVuSans-99"/>
      <use x="278.857422" xlink:href="#DejaVuSans-97"/>
      <use x="340.136719" xlink:href="#DejaVuSans-114"/>
      <use x="381.25" xlink:href="#DejaVuSans-112"/>
      <use x="444.726562" xlink:href="#DejaVuSans-101"/>
      <use x="506.25" xlink:href="#DejaVuSans-110"/>
      <use x="569.628906" xlink:href="#DejaVuSans-116"/>
      <use x="608.837891" xlink:href="#DejaVuSans-101"/>
      <use x="670.361328" xlink:href="#DejaVuSans-114"/>
     </g>
    </g>
    <g id="line2d_99">
     <path d="M 99 144.367188 
L 119 144.367188 
" style="fill:none;stroke:#e377c2;stroke-linecap:square;stroke-width:1.5;"/>
    </g>
    <g id="line2d_100"/>
    <g id="text_20">
     <!-- pyhf -->
     <g transform="translate(127 147.867188)scale(0.1 -0.1)">
      <use xlink:href="#DejaVuSans-112"/>
      <use x="63.476562" xlink:href="#DejaVuSans-121"/>
      <use x="122.65625" xlink:href="#DejaVuSans-104"/>
      <use x="186.035156" xlink:href="#DejaVuSans-102"/>
     </g>
    </g>
    <g id="line2d_101">
     <path d="M 99 159.045312 
L 119 159.045312 
" style="fill:none;stroke:#7f7f7f;stroke-linecap:square;stroke-width:1.5;"/>
    </g>
    <g id="line2d_102"/>
    <g id="text_21">
     <!-- zfit -->
     <g transform="translate(127 162.545312)scale(0.1 -0.1)">
      <defs>
       <path d="M 5.515625 54.6875 
L 48.1875 54.6875 
L 48.1875 46.484375 
L 14.40625 7.171875 
L 48.1875 7.171875 
L 48.1875 0 
L 4.296875 0 
L 4.296875 8.203125 
L 38.09375 47.515625 
L 5.515625 47.515625 
z
" id="DejaVuSans-122"/>
      </defs>
      <use xlink:href="#DejaVuSans-122"/>
      <use x="52.490234" xlink:href="#DejaVuSans-102"/>
      <use x="87.695312" xlink:href="#DejaVuSans-105"/>
      <use x="115.478516" xlink:href="#DejaVuSans-116"/>
     </g>
    </g>
    <g id="line2d_103">
     <path d="M 99 173.723437 
L 119 173.723437 
" style="fill:none;stroke:#bcbd22;stroke-linecap:square;stroke-width:1.5;"/>
    </g>
    <g id="line2d_104"/>
    <g id="text_22">
     <!-- coffea -->
     <g transform="translate(127 177.223437)scale(0.1 -0.1)">
      <use xlink:href="#DejaVuSans-99"/>
      <use x="54.980469" xlink:href="#DejaVuSans-111"/>
      <use x="116.162109" xlink:href="#DejaVuSans-102"/>
      <use x="151.367188" xlink:href="#DejaVuSans-102"/>
      <use x="186.572266" xlink:href="#DejaVuSans-101"/>
      <use x="248.095703" xlink:href="#DejaVuSans-97"/>
     </g>
    </g>
    <g id="line2d_105">
     <path d="M 99 188.401562 
L 119 188.401562 
" style="fill:none;stroke:#17becf;stroke-linecap:square;stroke-width:1.5;"/>
    </g>
    <g id="line2d_106"/>
    <g id="text_23">
     <!-- mplhep -->
     <g transform="translate(127 191.901562)scale(0.1 -0.1)">
      <use xlink:href="#DejaVuSans-109"/>
      <use x="97.412109" xlink:href="#DejaVuSans-112"/>
      <use x="160.888672" xlink:href="#DejaVuSans-108"/>
      <use x="188.671875" xlink:href="#DejaVuSans-104"/>
      <use x="252.050781" xlink:href="#DejaVuSans-101"/>
      <use x="313.574219" xlink:href="#DejaVuSans-112"/>
     </g>
    </g>
    <g id="line2d_107">
     <path d="M 99 203.079687 
L 119 203.079687 
" style="fill:none;stroke:#1f77b4;stroke-linecap:square;stroke-width:1.5;"/>
    </g>
    <g id="line2d_108"/>
    <g id="text_24">
     <!-- boost-histogram -->
     <g transform="translate(127 206.579687)scale(0.1 -0.1)">
      <defs>
       <path d="M 45.40625 27.984375 
Q 45.40625 37.75 41.375 43.109375 
Q 37.359375 48.484375 30.078125 48.484375 
Q 22.859375 48.484375 18.828125 43.109375 
Q 14.796875 37.75 14.796875 27.984375 
Q 14.796875 18.265625 18.828125 12.890625 
Q 22.859375 7.515625 30.078125 7.515625 
Q 37.359375 7.515625 41.375 12.890625 
Q 45.40625 18.265625 45.40625 27.984375 
z
M 54.390625 6.78125 
Q 54.390625 -7.171875 48.1875 -13.984375 
Q 42 -20.796875 29.203125 -20.796875 
Q 24.46875 -20.796875 20.265625 -20.09375 
Q 16.0625 -19.390625 12.109375 -17.921875 
L 12.109375 -9.1875 
Q 16.0625 -11.328125 19.921875 -12.34375 
Q 23.78125 -13.375 27.78125 -13.375 
Q 36.625 -13.375 41.015625 -8.765625 
Q 45.40625 -4.15625 45.40625 5.171875 
L 45.40625 9.625 
Q 42.625 4.78125 38.28125 2.390625 
Q 33.9375 0 27.875 0 
Q 17.828125 0 11.671875 7.65625 
Q 5.515625 15.328125 5.515625 27.984375 
Q 5.515625 40.671875 11.671875 48.328125 
Q 17.828125 56 27.875 56 
Q 33.9375 56 38.28125 53.609375 
Q 42.625 51.21875 45.40625 46.390625 
L 45.40625 54.6875 
L 54.390625 54.6875 
z
" id="DejaVuSans-103"/>
      </defs>
      <use xlink:href="#DejaVuSans-98"/>
      <use x="63.476562" xlink:href="#DejaVuSans-111"/>
      <use x="124.658203" xlink:href="#DejaVuSans-111"/>
      <use x="185.839844" xlink:href="#DejaVuSans-115"/>
      <use x="237.939453" xlink:href="#DejaVuSans-116"/>
      <use x="277.148438" xlink:href="#DejaVuSans-45"/>
      <use x="313.232422" xlink:href="#DejaVuSans-104"/>
      <use x="376.611328" xlink:href="#DejaVuSans-105"/>
      <use x="404.394531" xlink:href="#DejaVuSans-115"/>
      <use x="456.494141" xlink:href="#DejaVuSans-116"/>
      <use x="495.703125" xlink:href="#DejaVuSans-111"/>
      <use x="556.884766" xlink:href="#DejaVuSans-103"/>
      <use x="620.361328" xlink:href="#DejaVuSans-114"/>
      <use x="661.474609" xlink:href="#DejaVuSans-97"/>
      <use x="722.753906" xlink:href="#DejaVuSans-109"/>
     </g>
    </g>
   </g>
  </g>
 </g>
 <defs>
  <clipPath id="p90d51e356c">
   <rect height="271.8" width="558" x="90" y="43.2"/>
  </clipPath>
 </defs>
</svg>
