<?xml version="1.0" encoding="utf-8" standalone="no"?>
<!DOCTYPE svg PUBLIC "-//W3C//DTD SVG 1.1//EN"
  "http://www.w3.org/Graphics/SVG/1.1/DTD/svg11.dtd">
<!-- Created with matplotlib (https://matplotlib.org/) -->
<svg height="360pt" version="1.1" viewBox="0 0 720 360" width="720pt" xmlns="http://www.w3.org/2000/svg" xmlns:xlink="http://www.w3.org/1999/xlink">
 <metadata>
  <rdf:RDF xmlns:cc="http://creativecommons.org/ns#" xmlns:dc="http://purl.org/dc/elements/1.1/" xmlns:rdf="http://www.w3.org/1999/02/22-rdf-syntax-ns#">
   <cc:Work>
    <dc:type rdf:resource="http://purl.org/dc/dcmitype/StillImage"/>
    <dc:date>2020-08-01T14:31:29.182330</dc:date>
    <dc:format>image/svg+xml</dc:format>
    <dc:creator>
     <cc:Agent>
      <dc:title>Matplotlib v3.3.0, https://matplotlib.org/</dc:title>
     </cc:Agent>
    </dc:creator>
   </cc:Work>
  </rdf:RDF>
 </metadata>
 <defs>
  <style type="text/css">*{stroke-linecap:butt;stroke-linejoin:round;}</style>
 </defs>
 <g id="figure_1">
  <g id="patch_1">
   <path d="M 0 360 
L 720 360 
L 720 0 
L 0 0 
z
" style="fill:none;"/>
  </g>
  <g id="axes_1">
   <g id="patch_2">
    <path d="M 90 315 
L 648 315 
L 648 43.2 
L 90 43.2 
z
" style="fill:#ffffff;"/>
   </g>
   <g id="matplotlib.axis_1">
    <g id="xtick_1">
     <g id="line2d_1">
      <defs>
       <path d="M 0 0 
L 0 3.5 
" id="me63397ce1f" style="stroke:#000000;stroke-width:0.8;"/>
      </defs>
      <g>
       <use style="stroke:#000000;stroke-width:0.8;" x="90" xlink:href="#me63397ce1f" y="315"/>
      </g>
     </g>
     <g id="text_1">
      <!-- Jan -->
      <g transform="translate(82.292187 329.598437)scale(0.1 -0.1)">
       <defs>
        <path d="M 9.8125 72.90625 
L 19.671875 72.90625 
L 19.671875 5.078125 
Q 19.671875 -8.109375 14.671875 -14.0625 
Q 9.671875 -20.015625 -1.421875 -20.015625 
L -5.171875 -20.015625 
L -5.171875 -11.71875 
L -2.09375 -11.71875 
Q 4.4375 -11.71875 7.125 -8.046875 
Q 9.8125 -4.390625 9.8125 5.078125 
z
" id="DejaVuSans-74"/>
        <path d="M 34.28125 27.484375 
Q 23.390625 27.484375 19.1875 25 
Q 14.984375 22.515625 14.984375 16.5 
Q 14.984375 11.71875 18.140625 8.90625 
Q 21.296875 6.109375 26.703125 6.109375 
Q 34.1875 6.109375 38.703125 11.40625 
Q 43.21875 16.703125 43.21875 25.484375 
L 43.21875 27.484375 
z
M 52.203125 31.203125 
L 52.203125 0 
L 43.21875 0 
L 43.21875 8.296875 
Q 40.140625 3.328125 35.546875 0.953125 
Q 30.953125 -1.421875 24.3125 -1.421875 
Q 15.921875 -1.421875 10.953125 3.296875 
Q 6 8.015625 6 15.921875 
Q 6 25.140625 12.171875 29.828125 
Q 18.359375 34.515625 30.609375 34.515625 
L 43.21875 34.515625 
L 43.21875 35.40625 
Q 43.21875 41.609375 39.140625 45 
Q 35.0625 48.390625 27.6875 48.390625 
Q 23 48.390625 18.546875 47.265625 
Q 14.109375 46.140625 10.015625 43.890625 
L 10.015625 52.203125 
Q 14.9375 54.109375 19.578125 55.046875 
Q 24.21875 56 28.609375 56 
Q 40.484375 56 46.34375 49.84375 
Q 52.203125 43.703125 52.203125 31.203125 
z
" id="DejaVuSans-97"/>
        <path d="M 54.890625 33.015625 
L 54.890625 0 
L 45.90625 0 
L 45.90625 32.71875 
Q 45.90625 40.484375 42.875 44.328125 
Q 39.84375 48.1875 33.796875 48.1875 
Q 26.515625 48.1875 22.3125 43.546875 
Q 18.109375 38.921875 18.109375 30.90625 
L 18.109375 0 
L 9.078125 0 
L 9.078125 54.6875 
L 18.109375 54.6875 
L 18.109375 46.1875 
Q 21.34375 51.125 25.703125 53.5625 
Q 30.078125 56 35.796875 56 
Q 45.21875 56 50.046875 50.171875 
Q 54.890625 44.34375 54.890625 33.015625 
z
" id="DejaVuSans-110"/>
       </defs>
       <use xlink:href="#DejaVuSans-74"/>
       <use x="29.492188" xlink:href="#DejaVuSans-97"/>
       <use x="90.771484" xlink:href="#DejaVuSans-110"/>
      </g>
      <!-- 2017 -->
      <g transform="translate(77.275 340.79625)scale(0.1 -0.1)">
       <defs>
        <path d="M 19.1875 8.296875 
L 53.609375 8.296875 
L 53.609375 0 
L 7.328125 0 
L 7.328125 8.296875 
Q 12.9375 14.109375 22.625 23.890625 
Q 32.328125 33.6875 34.8125 36.53125 
Q 39.546875 41.84375 41.421875 45.53125 
Q 43.3125 49.21875 43.3125 52.78125 
Q 43.3125 58.59375 39.234375 62.25 
Q 35.15625 65.921875 28.609375 65.921875 
Q 23.96875 65.921875 18.8125 64.3125 
Q 13.671875 62.703125 7.8125 59.421875 
L 7.8125 69.390625 
Q 13.765625 71.78125 18.9375 73 
Q 24.125 74.21875 28.421875 74.21875 
Q 39.75 74.21875 46.484375 68.546875 
Q 53.21875 62.890625 53.21875 53.421875 
Q 53.21875 48.921875 51.53125 44.890625 
Q 49.859375 40.875 45.40625 35.40625 
Q 44.1875 33.984375 37.640625 27.21875 
Q 31.109375 20.453125 19.1875 8.296875 
z
" id="DejaVuSans-50"/>
        <path d="M 31.78125 66.40625 
Q 24.171875 66.40625 20.328125 58.90625 
Q 16.5 51.421875 16.5 36.375 
Q 16.5 21.390625 20.328125 13.890625 
Q 24.171875 6.390625 31.78125 6.390625 
Q 39.453125 6.390625 43.28125 13.890625 
Q 47.125 21.390625 47.125 36.375 
Q 47.125 51.421875 43.28125 58.90625 
Q 39.453125 66.40625 31.78125 66.40625 
z
M 31.78125 74.21875 
Q 44.046875 74.21875 50.515625 64.515625 
Q 56.984375 54.828125 56.984375 36.375 
Q 56.984375 17.96875 50.515625 8.265625 
Q 44.046875 -1.421875 31.78125 -1.421875 
Q 19.53125 -1.421875 13.0625 8.265625 
Q 6.59375 17.96875 6.59375 36.375 
Q 6.59375 54.828125 13.0625 64.515625 
Q 19.53125 74.21875 31.78125 74.21875 
z
" id="DejaVuSans-48"/>
        <path d="M 12.40625 8.296875 
L 28.515625 8.296875 
L 28.515625 63.921875 
L 10.984375 60.40625 
L 10.984375 69.390625 
L 28.421875 72.90625 
L 38.28125 72.90625 
L 38.28125 8.296875 
L 54.390625 8.296875 
L 54.390625 0 
L 12.40625 0 
z
" id="DejaVuSans-49"/>
        <path d="M 8.203125 72.90625 
L 55.078125 72.90625 
L 55.078125 68.703125 
L 28.609375 0 
L 18.3125 0 
L 43.21875 64.59375 
L 8.203125 64.59375 
z
" id="DejaVuSans-55"/>
       </defs>
       <use xlink:href="#DejaVuSans-50"/>
       <use x="63.623047" xlink:href="#DejaVuSans-48"/>
       <use x="127.246094" xlink:href="#DejaVuSans-49"/>
       <use x="190.869141" xlink:href="#DejaVuSans-55"/>
      </g>
     </g>
    </g>
    <g id="xtick_2">
     <g id="line2d_2">
      <g>
       <use style="stroke:#000000;stroke-width:0.8;" x="246.669231" xlink:href="#me63397ce1f" y="315"/>
      </g>
     </g>
     <g id="text_2">
      <!-- Jan -->
      <g transform="translate(238.961418 329.598437)scale(0.1 -0.1)">
       <use xlink:href="#DejaVuSans-74"/>
       <use x="29.492188" xlink:href="#DejaVuSans-97"/>
       <use x="90.771484" xlink:href="#DejaVuSans-110"/>
      </g>
      <!-- 2018 -->
      <g transform="translate(233.944231 340.79625)scale(0.1 -0.1)">
       <defs>
        <path d="M 31.78125 34.625 
Q 24.75 34.625 20.71875 30.859375 
Q 16.703125 27.09375 16.703125 20.515625 
Q 16.703125 13.921875 20.71875 10.15625 
Q 24.75 6.390625 31.78125 6.390625 
Q 38.8125 6.390625 42.859375 10.171875 
Q 46.921875 13.96875 46.921875 20.515625 
Q 46.921875 27.09375 42.890625 30.859375 
Q 38.875 34.625 31.78125 34.625 
z
M 21.921875 38.8125 
Q 15.578125 40.375 12.03125 44.71875 
Q 8.5 49.078125 8.5 55.328125 
Q 8.5 64.0625 14.71875 69.140625 
Q 20.953125 74.21875 31.78125 74.21875 
Q 42.671875 74.21875 48.875 69.140625 
Q 55.078125 64.0625 55.078125 55.328125 
Q 55.078125 49.078125 51.53125 44.71875 
Q 48 40.375 41.703125 38.8125 
Q 48.828125 37.15625 52.796875 32.3125 
Q 56.78125 27.484375 56.78125 20.515625 
Q 56.78125 9.90625 50.3125 4.234375 
Q 43.84375 -1.421875 31.78125 -1.421875 
Q 19.734375 -1.421875 13.25 4.234375 
Q 6.78125 9.90625 6.78125 20.515625 
Q 6.78125 27.484375 10.78125 32.3125 
Q 14.796875 37.15625 21.921875 38.8125 
z
M 18.3125 54.390625 
Q 18.3125 48.734375 21.84375 45.5625 
Q 25.390625 42.390625 31.78125 42.390625 
Q 38.140625 42.390625 41.71875 45.5625 
Q 45.3125 48.734375 45.3125 54.390625 
Q 45.3125 60.0625 41.71875 63.234375 
Q 38.140625 66.40625 31.78125 66.40625 
Q 25.390625 66.40625 21.84375 63.234375 
Q 18.3125 60.0625 18.3125 54.390625 
z
" id="DejaVuSans-56"/>
       </defs>
       <use xlink:href="#DejaVuSans-50"/>
       <use x="63.623047" xlink:href="#DejaVuSans-48"/>
       <use x="127.246094" xlink:href="#DejaVuSans-49"/>
       <use x="190.869141" xlink:href="#DejaVuSans-56"/>
      </g>
     </g>
    </g>
    <g id="xtick_3">
     <g id="line2d_3">
      <g>
       <use style="stroke:#000000;stroke-width:0.8;" x="403.338462" xlink:href="#me63397ce1f" y="315"/>
      </g>
     </g>
     <g id="text_3">
      <!-- Jan -->
      <g transform="translate(395.630649 329.598437)scale(0.1 -0.1)">
       <use xlink:href="#DejaVuSans-74"/>
       <use x="29.492188" xlink:href="#DejaVuSans-97"/>
       <use x="90.771484" xlink:href="#DejaVuSans-110"/>
      </g>
      <!-- 2019 -->
      <g transform="translate(390.613462 340.79625)scale(0.1 -0.1)">
       <defs>
        <path d="M 10.984375 1.515625 
L 10.984375 10.5 
Q 14.703125 8.734375 18.5 7.8125 
Q 22.3125 6.890625 25.984375 6.890625 
Q 35.75 6.890625 40.890625 13.453125 
Q 46.046875 20.015625 46.78125 33.40625 
Q 43.953125 29.203125 39.59375 26.953125 
Q 35.25 24.703125 29.984375 24.703125 
Q 19.046875 24.703125 12.671875 31.3125 
Q 6.296875 37.9375 6.296875 49.421875 
Q 6.296875 60.640625 12.9375 67.421875 
Q 19.578125 74.21875 30.609375 74.21875 
Q 43.265625 74.21875 49.921875 64.515625 
Q 56.59375 54.828125 56.59375 36.375 
Q 56.59375 19.140625 48.40625 8.859375 
Q 40.234375 -1.421875 26.421875 -1.421875 
Q 22.703125 -1.421875 18.890625 -0.6875 
Q 15.09375 0.046875 10.984375 1.515625 
z
M 30.609375 32.421875 
Q 37.25 32.421875 41.125 36.953125 
Q 45.015625 41.5 45.015625 49.421875 
Q 45.015625 57.28125 41.125 61.84375 
Q 37.25 66.40625 30.609375 66.40625 
Q 23.96875 66.40625 20.09375 61.84375 
Q 16.21875 57.28125 16.21875 49.421875 
Q 16.21875 41.5 20.09375 36.953125 
Q 23.96875 32.421875 30.609375 32.421875 
z
" id="DejaVuSans-57"/>
       </defs>
       <use xlink:href="#DejaVuSans-50"/>
       <use x="63.623047" xlink:href="#DejaVuSans-48"/>
       <use x="127.246094" xlink:href="#DejaVuSans-49"/>
       <use x="190.869141" xlink:href="#DejaVuSans-57"/>
      </g>
     </g>
    </g>
    <g id="xtick_4">
     <g id="line2d_4">
      <g>
       <use style="stroke:#000000;stroke-width:0.8;" x="560.007692" xlink:href="#me63397ce1f" y="315"/>
      </g>
     </g>
     <g id="text_4">
      <!-- Jan -->
      <g transform="translate(552.29988 329.598437)scale(0.1 -0.1)">
       <use xlink:href="#DejaVuSans-74"/>
       <use x="29.492188" xlink:href="#DejaVuSans-97"/>
       <use x="90.771484" xlink:href="#DejaVuSans-110"/>
      </g>
      <!-- 2020 -->
      <g transform="translate(547.282692 340.79625)scale(0.1 -0.1)">
       <use xlink:href="#DejaVuSans-50"/>
       <use x="63.623047" xlink:href="#DejaVuSans-48"/>
       <use x="127.246094" xlink:href="#DejaVuSans-50"/>
       <use x="190.869141" xlink:href="#DejaVuSans-48"/>
      </g>
     </g>
    </g>
    <g id="xtick_5">
     <g id="line2d_5">
      <g>
       <use style="stroke:#000000;stroke-width:0.8;" x="648" xlink:href="#me63397ce1f" y="315"/>
      </g>
     </g>
    </g>
    <g id="xtick_6">
     <g id="line2d_6">
      <defs>
       <path d="M 0 0 
L 0 2 
" id="ma40d714e19" style="stroke:#000000;stroke-width:0.6;"/>
      </defs>
      <g>
       <use style="stroke:#000000;stroke-width:0.6;" x="103.306154" xlink:href="#ma40d714e19" y="315"/>
      </g>
     </g>
    </g>
    <g id="xtick_7">
     <g id="line2d_7">
      <g>
       <use style="stroke:#000000;stroke-width:0.6;" x="115.324615" xlink:href="#ma40d714e19" y="315"/>
      </g>
     </g>
    </g>
    <g id="xtick_8">
     <g id="line2d_8">
      <g>
       <use style="stroke:#000000;stroke-width:0.6;" x="128.630769" xlink:href="#ma40d714e19" y="315"/>
      </g>
     </g>
    </g>
    <g id="xtick_9">
     <g id="line2d_9">
      <g>
       <use style="stroke:#000000;stroke-width:0.6;" x="141.507692" xlink:href="#ma40d714e19" y="315"/>
      </g>
     </g>
    </g>
    <g id="xtick_10">
     <g id="line2d_10">
      <g>
       <use style="stroke:#000000;stroke-width:0.6;" x="154.813846" xlink:href="#ma40d714e19" y="315"/>
      </g>
     </g>
    </g>
    <g id="xtick_11">
     <g id="line2d_11">
      <g>
       <use style="stroke:#000000;stroke-width:0.6;" x="167.690769" xlink:href="#ma40d714e19" y="315"/>
      </g>
     </g>
     <g id="text_5">
      <!-- Jul -->
      <g transform="translate(161.657957 327.998438)scale(0.1 -0.1)">
       <defs>
        <path d="M 8.5 21.578125 
L 8.5 54.6875 
L 17.484375 54.6875 
L 17.484375 21.921875 
Q 17.484375 14.15625 20.5 10.265625 
Q 23.53125 6.390625 29.59375 6.390625 
Q 36.859375 6.390625 41.078125 11.03125 
Q 45.3125 15.671875 45.3125 23.6875 
L 45.3125 54.6875 
L 54.296875 54.6875 
L 54.296875 0 
L 45.3125 0 
L 45.3125 8.40625 
Q 42.046875 3.421875 37.71875 1 
Q 33.40625 -1.421875 27.6875 -1.421875 
Q 18.265625 -1.421875 13.375 4.4375 
Q 8.5 10.296875 8.5 21.578125 
z
M 31.109375 56 
z
" id="DejaVuSans-117"/>
        <path d="M 9.421875 75.984375 
L 18.40625 75.984375 
L 18.40625 0 
L 9.421875 0 
z
" id="DejaVuSans-108"/>
       </defs>
       <use xlink:href="#DejaVuSans-74"/>
       <use x="29.492188" xlink:href="#DejaVuSans-117"/>
       <use x="92.871094" xlink:href="#DejaVuSans-108"/>
      </g>
     </g>
    </g>
    <g id="xtick_12">
     <g id="line2d_12">
      <g>
       <use style="stroke:#000000;stroke-width:0.6;" x="180.996923" xlink:href="#ma40d714e19" y="315"/>
      </g>
     </g>
    </g>
    <g id="xtick_13">
     <g id="line2d_13">
      <g>
       <use style="stroke:#000000;stroke-width:0.6;" x="194.303077" xlink:href="#ma40d714e19" y="315"/>
      </g>
     </g>
    </g>
    <g id="xtick_14">
     <g id="line2d_14">
      <g>
       <use style="stroke:#000000;stroke-width:0.6;" x="207.18" xlink:href="#ma40d714e19" y="315"/>
      </g>
     </g>
    </g>
    <g id="xtick_15">
     <g id="line2d_15">
      <g>
       <use style="stroke:#000000;stroke-width:0.6;" x="220.486154" xlink:href="#ma40d714e19" y="315"/>
      </g>
     </g>
    </g>
    <g id="xtick_16">
     <g id="line2d_16">
      <g>
       <use style="stroke:#000000;stroke-width:0.6;" x="233.363077" xlink:href="#ma40d714e19" y="315"/>
      </g>
     </g>
    </g>
    <g id="xtick_17">
     <g id="line2d_17">
      <g>
       <use style="stroke:#000000;stroke-width:0.6;" x="259.975385" xlink:href="#ma40d714e19" y="315"/>
      </g>
     </g>
    </g>
    <g id="xtick_18">
     <g id="line2d_18">
      <g>
       <use style="stroke:#000000;stroke-width:0.6;" x="271.993846" xlink:href="#ma40d714e19" y="315"/>
      </g>
     </g>
    </g>
    <g id="xtick_19">
     <g id="line2d_19">
      <g>
       <use style="stroke:#000000;stroke-width:0.6;" x="285.3" xlink:href="#ma40d714e19" y="315"/>
      </g>
     </g>
    </g>
    <g id="xtick_20">
     <g id="line2d_20">
      <g>
       <use style="stroke:#000000;stroke-width:0.6;" x="298.176923" xlink:href="#ma40d714e19" y="315"/>
      </g>
     </g>
    </g>
    <g id="xtick_21">
     <g id="line2d_21">
      <g>
       <use style="stroke:#000000;stroke-width:0.6;" x="311.483077" xlink:href="#ma40d714e19" y="315"/>
      </g>
     </g>
    </g>
    <g id="xtick_22">
     <g id="line2d_22">
      <g>
       <use style="stroke:#000000;stroke-width:0.6;" x="324.36" xlink:href="#ma40d714e19" y="315"/>
      </g>
     </g>
     <g id="text_6">
      <!-- Jul -->
      <g transform="translate(318.327188 327.998438)scale(0.1 -0.1)">
       <use xlink:href="#DejaVuSans-74"/>
       <use x="29.492188" xlink:href="#DejaVuSans-117"/>
       <use x="92.871094" xlink:href="#DejaVuSans-108"/>
      </g>
     </g>
    </g>
    <g id="xtick_23">
     <g id="line2d_23">
      <g>
       <use style="stroke:#000000;stroke-width:0.6;" x="337.666154" xlink:href="#ma40d714e19" y="315"/>
      </g>
     </g>
    </g>
    <g id="xtick_24">
     <g id="line2d_24">
      <g>
       <use style="stroke:#000000;stroke-width:0.6;" x="350.972308" xlink:href="#ma40d714e19" y="315"/>
      </g>
     </g>
    </g>
    <g id="xtick_25">
     <g id="line2d_25">
      <g>
       <use style="stroke:#000000;stroke-width:0.6;" x="363.849231" xlink:href="#ma40d714e19" y="315"/>
      </g>
     </g>
    </g>
    <g id="xtick_26">
     <g id="line2d_26">
      <g>
       <use style="stroke:#000000;stroke-width:0.6;" x="377.155385" xlink:href="#ma40d714e19" y="315"/>
      </g>
     </g>
    </g>
    <g id="xtick_27">
     <g id="line2d_27">
      <g>
       <use style="stroke:#000000;stroke-width:0.6;" x="390.032308" xlink:href="#ma40d714e19" y="315"/>
      </g>
     </g>
    </g>
    <g id="xtick_28">
     <g id="line2d_28">
      <g>
       <use style="stroke:#000000;stroke-width:0.6;" x="416.644615" xlink:href="#ma40d714e19" y="315"/>
      </g>
     </g>
    </g>
    <g id="xtick_29">
     <g id="line2d_29">
      <g>
       <use style="stroke:#000000;stroke-width:0.6;" x="428.663077" xlink:href="#ma40d714e19" y="315"/>
      </g>
     </g>
    </g>
    <g id="xtick_30">
     <g id="line2d_30">
      <g>
       <use style="stroke:#000000;stroke-width:0.6;" x="441.969231" xlink:href="#ma40d714e19" y="315"/>
      </g>
     </g>
    </g>
    <g id="xtick_31">
     <g id="line2d_31">
      <g>
       <use style="stroke:#000000;stroke-width:0.6;" x="454.846154" xlink:href="#ma40d714e19" y="315"/>
      </g>
     </g>
    </g>
    <g id="xtick_32">
     <g id="line2d_32">
      <g>
       <use style="stroke:#000000;stroke-width:0.6;" x="468.152308" xlink:href="#ma40d714e19" y="315"/>
      </g>
     </g>
    </g>
    <g id="xtick_33">
     <g id="line2d_33">
      <g>
       <use style="stroke:#000000;stroke-width:0.6;" x="481.029231" xlink:href="#ma40d714e19" y="315"/>
      </g>
     </g>
     <g id="text_7">
      <!-- Jul -->
      <g transform="translate(474.996418 327.998438)scale(0.1 -0.1)">
       <use xlink:href="#DejaVuSans-74"/>
       <use x="29.492188" xlink:href="#DejaVuSans-117"/>
       <use x="92.871094" xlink:href="#DejaVuSans-108"/>
      </g>
     </g>
    </g>
    <g id="xtick_34">
     <g id="line2d_34">
      <g>
       <use style="stroke:#000000;stroke-width:0.6;" x="494.335385" xlink:href="#ma40d714e19" y="315"/>
      </g>
     </g>
    </g>
    <g id="xtick_35">
     <g id="line2d_35">
      <g>
       <use style="stroke:#000000;stroke-width:0.6;" x="507.641538" xlink:href="#ma40d714e19" y="315"/>
      </g>
     </g>
    </g>
    <g id="xtick_36">
     <g id="line2d_36">
      <g>
       <use style="stroke:#000000;stroke-width:0.6;" x="520.518462" xlink:href="#ma40d714e19" y="315"/>
      </g>
     </g>
    </g>
    <g id="xtick_37">
     <g id="line2d_37">
      <g>
       <use style="stroke:#000000;stroke-width:0.6;" x="533.824615" xlink:href="#ma40d714e19" y="315"/>
      </g>
     </g>
    </g>
    <g id="xtick_38">
     <g id="line2d_38">
      <g>
       <use style="stroke:#000000;stroke-width:0.6;" x="546.701538" xlink:href="#ma40d714e19" y="315"/>
      </g>
     </g>
    </g>
    <g id="xtick_39">
     <g id="line2d_39">
      <g>
       <use style="stroke:#000000;stroke-width:0.6;" x="573.313846" xlink:href="#ma40d714e19" y="315"/>
      </g>
     </g>
    </g>
    <g id="xtick_40">
     <g id="line2d_40">
      <g>
       <use style="stroke:#000000;stroke-width:0.6;" x="585.761538" xlink:href="#ma40d714e19" y="315"/>
      </g>
     </g>
    </g>
    <g id="xtick_41">
     <g id="line2d_41">
      <g>
       <use style="stroke:#000000;stroke-width:0.6;" x="599.067692" xlink:href="#ma40d714e19" y="315"/>
      </g>
     </g>
    </g>
    <g id="xtick_42">
     <g id="line2d_42">
      <g>
       <use style="stroke:#000000;stroke-width:0.6;" x="611.944615" xlink:href="#ma40d714e19" y="315"/>
      </g>
     </g>
    </g>
    <g id="xtick_43">
     <g id="line2d_43">
      <g>
       <use style="stroke:#000000;stroke-width:0.6;" x="625.250769" xlink:href="#ma40d714e19" y="315"/>
      </g>
     </g>
    </g>
    <g id="xtick_44">
     <g id="line2d_44">
      <g>
       <use style="stroke:#000000;stroke-width:0.6;" x="638.127692" xlink:href="#ma40d714e19" y="315"/>
      </g>
     </g>
     <g id="text_8">
      <!-- Jul -->
      <g transform="translate(632.09488 327.998438)scale(0.1 -0.1)">
       <use xlink:href="#DejaVuSans-74"/>
       <use x="29.492188" xlink:href="#DejaVuSans-117"/>
       <use x="92.871094" xlink:href="#DejaVuSans-108"/>
      </g>
     </g>
    </g>
   </g>
   <g id="matplotlib.axis_2">
    <g id="ytick_1">
     <g id="line2d_45">
      <defs>
       <path d="M 0 0 
L -3.5 0 
" id="m9d2b43d1d2" style="stroke:#000000;stroke-width:0.8;"/>
      </defs>
      <g>
       <use style="stroke:#000000;stroke-width:0.8;" x="90" xlink:href="#m9d2b43d1d2" y="315"/>
      </g>
     </g>
     <g id="text_9">
      <!-- $\mathdefault{10^{1}}$ -->
      <g transform="translate(65.4 318.799219)scale(0.1 -0.1)">
       <use transform="translate(0 0.684375)" xlink:href="#DejaVuSans-49"/>
       <use transform="translate(63.623047 0.684375)" xlink:href="#DejaVuSans-48"/>
       <use transform="translate(128.203125 38.965625)scale(0.7)" xlink:href="#DejaVuSans-49"/>
      </g>
     </g>
    </g>
    <g id="ytick_2">
     <g id="line2d_46">
      <g>
       <use style="stroke:#000000;stroke-width:0.8;" x="90" xlink:href="#m9d2b43d1d2" y="224.4"/>
      </g>
     </g>
     <g id="text_10">
      <!-- $\mathdefault{10^{2}}$ -->
      <g transform="translate(65.4 228.199219)scale(0.1 -0.1)">
       <use transform="translate(0 0.765625)" xlink:href="#DejaVuSans-49"/>
       <use transform="translate(63.623047 0.765625)" xlink:href="#DejaVuSans-48"/>
       <use transform="translate(128.203125 39.046875)scale(0.7)" xlink:href="#DejaVuSans-50"/>
      </g>
     </g>
    </g>
    <g id="ytick_3">
     <g id="line2d_47">
      <g>
       <use style="stroke:#000000;stroke-width:0.8;" x="90" xlink:href="#m9d2b43d1d2" y="133.8"/>
      </g>
     </g>
     <g id="text_11">
      <!-- $\mathdefault{10^{3}}$ -->
      <g transform="translate(65.4 137.599219)scale(0.1 -0.1)">
       <defs>
        <path d="M 40.578125 39.3125 
Q 47.65625 37.796875 51.625 33 
Q 55.609375 28.21875 55.609375 21.1875 
Q 55.609375 10.40625 48.1875 4.484375 
Q 40.765625 -1.421875 27.09375 -1.421875 
Q 22.515625 -1.421875 17.65625 -0.515625 
Q 12.796875 0.390625 7.625 2.203125 
L 7.625 11.71875 
Q 11.71875 9.328125 16.59375 8.109375 
Q 21.484375 6.890625 26.8125 6.890625 
Q 36.078125 6.890625 40.9375 10.546875 
Q 45.796875 14.203125 45.796875 21.1875 
Q 45.796875 27.640625 41.28125 31.265625 
Q 36.765625 34.90625 28.71875 34.90625 
L 20.21875 34.90625 
L 20.21875 43.015625 
L 29.109375 43.015625 
Q 36.375 43.015625 40.234375 45.921875 
Q 44.09375 48.828125 44.09375 54.296875 
Q 44.09375 59.90625 40.109375 62.90625 
Q 36.140625 65.921875 28.71875 65.921875 
Q 24.65625 65.921875 20.015625 65.03125 
Q 15.375 64.15625 9.8125 62.3125 
L 9.8125 71.09375 
Q 15.4375 72.65625 20.34375 73.4375 
Q 25.25 74.21875 29.59375 74.21875 
Q 40.828125 74.21875 47.359375 69.109375 
Q 53.90625 64.015625 53.90625 55.328125 
Q 53.90625 49.265625 50.4375 45.09375 
Q 46.96875 40.921875 40.578125 39.3125 
z
" id="DejaVuSans-51"/>
       </defs>
       <use transform="translate(0 0.765625)" xlink:href="#DejaVuSans-49"/>
       <use transform="translate(63.623047 0.765625)" xlink:href="#DejaVuSans-48"/>
       <use transform="translate(128.203125 39.046875)scale(0.7)" xlink:href="#DejaVuSans-51"/>
      </g>
     </g>
    </g>
    <g id="ytick_4">
     <g id="line2d_48">
      <g>
       <use style="stroke:#000000;stroke-width:0.8;" x="90" xlink:href="#m9d2b43d1d2" y="43.2"/>
      </g>
     </g>
     <g id="text_12">
      <!-- $\mathdefault{10^{4}}$ -->
      <g transform="translate(65.4 46.999219)scale(0.1 -0.1)">
       <defs>
        <path d="M 37.796875 64.3125 
L 12.890625 25.390625 
L 37.796875 25.390625 
z
M 35.203125 72.90625 
L 47.609375 72.90625 
L 47.609375 25.390625 
L 58.015625 25.390625 
L 58.015625 17.1875 
L 47.609375 17.1875 
L 47.609375 0 
L 37.796875 0 
L 37.796875 17.1875 
L 4.890625 17.1875 
L 4.890625 26.703125 
z
" id="DejaVuSans-52"/>
       </defs>
       <use transform="translate(0 0.684375)" xlink:href="#DejaVuSans-49"/>
       <use transform="translate(63.623047 0.684375)" xlink:href="#DejaVuSans-48"/>
       <use transform="translate(128.203125 38.965625)scale(0.7)" xlink:href="#DejaVuSans-52"/>
      </g>
     </g>
    </g>
    <g id="ytick_5">
     <g id="line2d_49">
      <defs>
       <path d="M 0 0 
L -2 0 
" id="m98089d63e1" style="stroke:#000000;stroke-width:0.6;"/>
      </defs>
      <g>
       <use style="stroke:#000000;stroke-width:0.6;" x="90" xlink:href="#m98089d63e1" y="287.726682"/>
      </g>
     </g>
    </g>
    <g id="ytick_6">
     <g id="line2d_50">
      <g>
       <use style="stroke:#000000;stroke-width:0.6;" x="90" xlink:href="#m98089d63e1" y="271.772814"/>
      </g>
     </g>
    </g>
    <g id="ytick_7">
     <g id="line2d_51">
      <g>
       <use style="stroke:#000000;stroke-width:0.6;" x="90" xlink:href="#m98089d63e1" y="260.453365"/>
      </g>
     </g>
    </g>
    <g id="ytick_8">
     <g id="line2d_52">
      <g>
       <use style="stroke:#000000;stroke-width:0.6;" x="90" xlink:href="#m98089d63e1" y="251.673318"/>
      </g>
     </g>
    </g>
    <g id="ytick_9">
     <g id="line2d_53">
      <g>
       <use style="stroke:#000000;stroke-width:0.6;" x="90" xlink:href="#m98089d63e1" y="244.499497"/>
      </g>
     </g>
    </g>
    <g id="ytick_10">
     <g id="line2d_54">
      <g>
       <use style="stroke:#000000;stroke-width:0.6;" x="90" xlink:href="#m98089d63e1" y="238.434118"/>
      </g>
     </g>
    </g>
    <g id="ytick_11">
     <g id="line2d_55">
      <g>
       <use style="stroke:#000000;stroke-width:0.6;" x="90" xlink:href="#m98089d63e1" y="233.180047"/>
      </g>
     </g>
    </g>
    <g id="ytick_12">
     <g id="line2d_56">
      <g>
       <use style="stroke:#000000;stroke-width:0.6;" x="90" xlink:href="#m98089d63e1" y="228.545629"/>
      </g>
     </g>
    </g>
    <g id="ytick_13">
     <g id="line2d_57">
      <g>
       <use style="stroke:#000000;stroke-width:0.6;" x="90" xlink:href="#m98089d63e1" y="197.126682"/>
      </g>
     </g>
    </g>
    <g id="ytick_14">
     <g id="line2d_58">
      <g>
       <use style="stroke:#000000;stroke-width:0.6;" x="90" xlink:href="#m98089d63e1" y="181.172814"/>
      </g>
     </g>
    </g>
    <g id="ytick_15">
     <g id="line2d_59">
      <g>
       <use style="stroke:#000000;stroke-width:0.6;" x="90" xlink:href="#m98089d63e1" y="169.853365"/>
      </g>
     </g>
    </g>
    <g id="ytick_16">
     <g id="line2d_60">
      <g>
       <use style="stroke:#000000;stroke-width:0.6;" x="90" xlink:href="#m98089d63e1" y="161.073318"/>
      </g>
     </g>
    </g>
    <g id="ytick_17">
     <g id="line2d_61">
      <g>
       <use style="stroke:#000000;stroke-width:0.6;" x="90" xlink:href="#m98089d63e1" y="153.899497"/>
      </g>
     </g>
    </g>
    <g id="ytick_18">
     <g id="line2d_62">
      <g>
       <use style="stroke:#000000;stroke-width:0.6;" x="90" xlink:href="#m98089d63e1" y="147.834118"/>
      </g>
     </g>
    </g>
    <g id="ytick_19">
     <g id="line2d_63">
      <g>
       <use style="stroke:#000000;stroke-width:0.6;" x="90" xlink:href="#m98089d63e1" y="142.580047"/>
      </g>
     </g>
    </g>
    <g id="ytick_20">
     <g id="line2d_64">
      <g>
       <use style="stroke:#000000;stroke-width:0.6;" x="90" xlink:href="#m98089d63e1" y="137.945629"/>
      </g>
     </g>
    </g>
    <g id="ytick_21">
     <g id="line2d_65">
      <g>
       <use style="stroke:#000000;stroke-width:0.6;" x="90" xlink:href="#m98089d63e1" y="106.526682"/>
      </g>
     </g>
    </g>
    <g id="ytick_22">
     <g id="line2d_66">
      <g>
       <use style="stroke:#000000;stroke-width:0.6;" x="90" xlink:href="#m98089d63e1" y="90.572814"/>
      </g>
     </g>
    </g>
    <g id="ytick_23">
     <g id="line2d_67">
      <g>
       <use style="stroke:#000000;stroke-width:0.6;" x="90" xlink:href="#m98089d63e1" y="79.253365"/>
      </g>
     </g>
    </g>
    <g id="ytick_24">
     <g id="line2d_68">
      <g>
       <use style="stroke:#000000;stroke-width:0.6;" x="90" xlink:href="#m98089d63e1" y="70.473318"/>
      </g>
     </g>
    </g>
    <g id="ytick_25">
     <g id="line2d_69">
      <g>
       <use style="stroke:#000000;stroke-width:0.6;" x="90" xlink:href="#m98089d63e1" y="63.299497"/>
      </g>
     </g>
    </g>
    <g id="ytick_26">
     <g id="line2d_70">
      <g>
       <use style="stroke:#000000;stroke-width:0.6;" x="90" xlink:href="#m98089d63e1" y="57.234118"/>
      </g>
     </g>
    </g>
    <g id="ytick_27">
     <g id="line2d_71">
      <g>
       <use style="stroke:#000000;stroke-width:0.6;" x="90" xlink:href="#m98089d63e1" y="51.980047"/>
      </g>
     </g>
    </g>
    <g id="ytick_28">
     <g id="line2d_72">
      <g>
       <use style="stroke:#000000;stroke-width:0.6;" x="90" xlink:href="#m98089d63e1" y="47.345629"/>
      </g>
     </g>
    </g>
    <g id="text_13">
     <!-- Number of pip-installs on MacOS/Windows per month -->
     <g transform="translate(59.320312 312.650781)rotate(-90)scale(0.1 -0.1)">
      <defs>
       <path d="M 9.8125 72.90625 
L 23.09375 72.90625 
L 55.421875 11.921875 
L 55.421875 72.90625 
L 64.984375 72.90625 
L 64.984375 0 
L 51.703125 0 
L 19.390625 60.984375 
L 19.390625 0 
L 9.8125 0 
z
" id="DejaVuSans-78"/>
       <path d="M 52 44.1875 
Q 55.375 50.25 60.0625 53.125 
Q 64.75 56 71.09375 56 
Q 79.640625 56 84.28125 50.015625 
Q 88.921875 44.046875 88.921875 33.015625 
L 88.921875 0 
L 79.890625 0 
L 79.890625 32.71875 
Q 79.890625 40.578125 77.09375 44.375 
Q 74.3125 48.1875 68.609375 48.1875 
Q 61.625 48.1875 57.5625 43.546875 
Q 53.515625 38.921875 53.515625 30.90625 
L 53.515625 0 
L 44.484375 0 
L 44.484375 32.71875 
Q 44.484375 40.625 41.703125 44.40625 
Q 38.921875 48.1875 33.109375 48.1875 
Q 26.21875 48.1875 22.15625 43.53125 
Q 18.109375 38.875 18.109375 30.90625 
L 18.109375 0 
L 9.078125 0 
L 9.078125 54.6875 
L 18.109375 54.6875 
L 18.109375 46.1875 
Q 21.1875 51.21875 25.484375 53.609375 
Q 29.78125 56 35.6875 56 
Q 41.65625 56 45.828125 52.96875 
Q 50 49.953125 52 44.1875 
z
" id="DejaVuSans-109"/>
       <path d="M 48.6875 27.296875 
Q 48.6875 37.203125 44.609375 42.84375 
Q 40.53125 48.484375 33.40625 48.484375 
Q 26.265625 48.484375 22.1875 42.84375 
Q 18.109375 37.203125 18.109375 27.296875 
Q 18.109375 17.390625 22.1875 11.75 
Q 26.265625 6.109375 33.40625 6.109375 
Q 40.53125 6.109375 44.609375 11.75 
Q 48.6875 17.390625 48.6875 27.296875 
z
M 18.109375 46.390625 
Q 20.953125 51.265625 25.265625 53.625 
Q 29.59375 56 35.59375 56 
Q 45.5625 56 51.78125 48.09375 
Q 58.015625 40.1875 58.015625 27.296875 
Q 58.015625 14.40625 51.78125 6.484375 
Q 45.5625 -1.421875 35.59375 -1.421875 
Q 29.59375 -1.421875 25.265625 0.953125 
Q 20.953125 3.328125 18.109375 8.203125 
L 18.109375 0 
L 9.078125 0 
L 9.078125 75.984375 
L 18.109375 75.984375 
z
" id="DejaVuSans-98"/>
       <path d="M 56.203125 29.59375 
L 56.203125 25.203125 
L 14.890625 25.203125 
Q 15.484375 15.921875 20.484375 11.0625 
Q 25.484375 6.203125 34.421875 6.203125 
Q 39.59375 6.203125 44.453125 7.46875 
Q 49.3125 8.734375 54.109375 11.28125 
L 54.109375 2.78125 
Q 49.265625 0.734375 44.1875 -0.34375 
Q 39.109375 -1.421875 33.890625 -1.421875 
Q 20.796875 -1.421875 13.15625 6.1875 
Q 5.515625 13.8125 5.515625 26.8125 
Q 5.515625 40.234375 12.765625 48.109375 
Q 20.015625 56 32.328125 56 
Q 43.359375 56 49.78125 48.890625 
Q 56.203125 41.796875 56.203125 29.59375 
z
M 47.21875 32.234375 
Q 47.125 39.59375 43.09375 43.984375 
Q 39.0625 48.390625 32.421875 48.390625 
Q 24.90625 48.390625 20.390625 44.140625 
Q 15.875 39.890625 15.1875 32.171875 
z
" id="DejaVuSans-101"/>
       <path d="M 41.109375 46.296875 
Q 39.59375 47.171875 37.8125 47.578125 
Q 36.03125 48 33.890625 48 
Q 26.265625 48 22.1875 43.046875 
Q 18.109375 38.09375 18.109375 28.8125 
L 18.109375 0 
L 9.078125 0 
L 9.078125 54.6875 
L 18.109375 54.6875 
L 18.109375 46.1875 
Q 20.953125 51.171875 25.484375 53.578125 
Q 30.03125 56 36.53125 56 
Q 37.453125 56 38.578125 55.875 
Q 39.703125 55.765625 41.0625 55.515625 
z
" id="DejaVuSans-114"/>
       <path id="DejaVuSans-32"/>
       <path d="M 30.609375 48.390625 
Q 23.390625 48.390625 19.1875 42.75 
Q 14.984375 37.109375 14.984375 27.296875 
Q 14.984375 17.484375 19.15625 11.84375 
Q 23.34375 6.203125 30.609375 6.203125 
Q 37.796875 6.203125 41.984375 11.859375 
Q 46.1875 17.53125 46.1875 27.296875 
Q 46.1875 37.015625 41.984375 42.703125 
Q 37.796875 48.390625 30.609375 48.390625 
z
M 30.609375 56 
Q 42.328125 56 49.015625 48.375 
Q 55.71875 40.765625 55.71875 27.296875 
Q 55.71875 13.875 49.015625 6.21875 
Q 42.328125 -1.421875 30.609375 -1.421875 
Q 18.84375 -1.421875 12.171875 6.21875 
Q 5.515625 13.875 5.515625 27.296875 
Q 5.515625 40.765625 12.171875 48.375 
Q 18.84375 56 30.609375 56 
z
" id="DejaVuSans-111"/>
       <path d="M 37.109375 75.984375 
L 37.109375 68.5 
L 28.515625 68.5 
Q 23.6875 68.5 21.796875 66.546875 
Q 19.921875 64.59375 19.921875 59.515625 
L 19.921875 54.6875 
L 34.71875 54.6875 
L 34.71875 47.703125 
L 19.921875 47.703125 
L 19.921875 0 
L 10.890625 0 
L 10.890625 47.703125 
L 2.296875 47.703125 
L 2.296875 54.6875 
L 10.890625 54.6875 
L 10.890625 58.5 
Q 10.890625 67.625 15.140625 71.796875 
Q 19.390625 75.984375 28.609375 75.984375 
z
" id="DejaVuSans-102"/>
       <path d="M 18.109375 8.203125 
L 18.109375 -20.796875 
L 9.078125 -20.796875 
L 9.078125 54.6875 
L 18.109375 54.6875 
L 18.109375 46.390625 
Q 20.953125 51.265625 25.265625 53.625 
Q 29.59375 56 35.59375 56 
Q 45.5625 56 51.78125 48.09375 
Q 58.015625 40.1875 58.015625 27.296875 
Q 58.015625 14.40625 51.78125 6.484375 
Q 45.5625 -1.421875 35.59375 -1.421875 
Q 29.59375 -1.421875 25.265625 0.953125 
Q 20.953125 3.328125 18.109375 8.203125 
z
M 48.6875 27.296875 
Q 48.6875 37.203125 44.609375 42.84375 
Q 40.53125 48.484375 33.40625 48.484375 
Q 26.265625 48.484375 22.1875 42.84375 
Q 18.109375 37.203125 18.109375 27.296875 
Q 18.109375 17.390625 22.1875 11.75 
Q 26.265625 6.109375 33.40625 6.109375 
Q 40.53125 6.109375 44.609375 11.75 
Q 48.6875 17.390625 48.6875 27.296875 
z
" id="DejaVuSans-112"/>
       <path d="M 9.421875 54.6875 
L 18.40625 54.6875 
L 18.40625 0 
L 9.421875 0 
z
M 9.421875 75.984375 
L 18.40625 75.984375 
L 18.40625 64.59375 
L 9.421875 64.59375 
z
" id="DejaVuSans-105"/>
       <path d="M 4.890625 31.390625 
L 31.203125 31.390625 
L 31.203125 23.390625 
L 4.890625 23.390625 
z
" id="DejaVuSans-45"/>
       <path d="M 44.28125 53.078125 
L 44.28125 44.578125 
Q 40.484375 46.53125 36.375 47.5 
Q 32.28125 48.484375 27.875 48.484375 
Q 21.1875 48.484375 17.84375 46.4375 
Q 14.5 44.390625 14.5 40.28125 
Q 14.5 37.15625 16.890625 35.375 
Q 19.28125 33.59375 26.515625 31.984375 
L 29.59375 31.296875 
Q 39.15625 29.25 43.1875 25.515625 
Q 47.21875 21.78125 47.21875 15.09375 
Q 47.21875 7.46875 41.1875 3.015625 
Q 35.15625 -1.421875 24.609375 -1.421875 
Q 20.21875 -1.421875 15.453125 -0.5625 
Q 10.6875 0.296875 5.421875 2 
L 5.421875 11.28125 
Q 10.40625 8.6875 15.234375 7.390625 
Q 20.0625 6.109375 24.8125 6.109375 
Q 31.15625 6.109375 34.5625 8.28125 
Q 37.984375 10.453125 37.984375 14.40625 
Q 37.984375 18.0625 35.515625 20.015625 
Q 33.0625 21.96875 24.703125 23.78125 
L 21.578125 24.515625 
Q 13.234375 26.265625 9.515625 29.90625 
Q 5.8125 33.546875 5.8125 39.890625 
Q 5.8125 47.609375 11.28125 51.796875 
Q 16.75 56 26.8125 56 
Q 31.78125 56 36.171875 55.265625 
Q 40.578125 54.546875 44.28125 53.078125 
z
" id="DejaVuSans-115"/>
       <path d="M 18.3125 70.21875 
L 18.3125 54.6875 
L 36.8125 54.6875 
L 36.8125 47.703125 
L 18.3125 47.703125 
L 18.3125 18.015625 
Q 18.3125 11.328125 20.140625 9.421875 
Q 21.96875 7.515625 27.59375 7.515625 
L 36.8125 7.515625 
L 36.8125 0 
L 27.59375 0 
Q 17.1875 0 13.234375 3.875 
Q 9.28125 7.765625 9.28125 18.015625 
L 9.28125 47.703125 
L 2.6875 47.703125 
L 2.6875 54.6875 
L 9.28125 54.6875 
L 9.28125 70.21875 
z
" id="DejaVuSans-116"/>
       <path d="M 9.8125 72.90625 
L 24.515625 72.90625 
L 43.109375 23.296875 
L 61.8125 72.90625 
L 76.515625 72.90625 
L 76.515625 0 
L 66.890625 0 
L 66.890625 64.015625 
L 48.09375 14.015625 
L 38.1875 14.015625 
L 19.390625 64.015625 
L 19.390625 0 
L 9.8125 0 
z
" id="DejaVuSans-77"/>
       <path d="M 48.78125 52.59375 
L 48.78125 44.1875 
Q 44.96875 46.296875 41.140625 47.34375 
Q 37.3125 48.390625 33.40625 48.390625 
Q 24.65625 48.390625 19.8125 42.84375 
Q 14.984375 37.3125 14.984375 27.296875 
Q 14.984375 17.28125 19.8125 11.734375 
Q 24.65625 6.203125 33.40625 6.203125 
Q 37.3125 6.203125 41.140625 7.25 
Q 44.96875 8.296875 48.78125 10.40625 
L 48.78125 2.09375 
Q 45.015625 0.34375 40.984375 -0.53125 
Q 36.96875 -1.421875 32.421875 -1.421875 
Q 20.0625 -1.421875 12.78125 6.34375 
Q 5.515625 14.109375 5.515625 27.296875 
Q 5.515625 40.671875 12.859375 48.328125 
Q 20.21875 56 33.015625 56 
Q 37.15625 56 41.109375 55.140625 
Q 45.0625 54.296875 48.78125 52.59375 
z
" id="DejaVuSans-99"/>
       <path d="M 39.40625 66.21875 
Q 28.65625 66.21875 22.328125 58.203125 
Q 16.015625 50.203125 16.015625 36.375 
Q 16.015625 22.609375 22.328125 14.59375 
Q 28.65625 6.59375 39.40625 6.59375 
Q 50.140625 6.59375 56.421875 14.59375 
Q 62.703125 22.609375 62.703125 36.375 
Q 62.703125 50.203125 56.421875 58.203125 
Q 50.140625 66.21875 39.40625 66.21875 
z
M 39.40625 74.21875 
Q 54.734375 74.21875 63.90625 63.9375 
Q 73.09375 53.65625 73.09375 36.375 
Q 73.09375 19.140625 63.90625 8.859375 
Q 54.734375 -1.421875 39.40625 -1.421875 
Q 24.03125 -1.421875 14.8125 8.828125 
Q 5.609375 19.09375 5.609375 36.375 
Q 5.609375 53.65625 14.8125 63.9375 
Q 24.03125 74.21875 39.40625 74.21875 
z
" id="DejaVuSans-79"/>
       <path d="M 53.515625 70.515625 
L 53.515625 60.890625 
Q 47.90625 63.578125 42.921875 64.890625 
Q 37.9375 66.21875 33.296875 66.21875 
Q 25.25 66.21875 20.875 63.09375 
Q 16.5 59.96875 16.5 54.203125 
Q 16.5 49.359375 19.40625 46.890625 
Q 22.3125 44.4375 30.421875 42.921875 
L 36.375 41.703125 
Q 47.40625 39.59375 52.65625 34.296875 
Q 57.90625 29 57.90625 20.125 
Q 57.90625 9.515625 50.796875 4.046875 
Q 43.703125 -1.421875 29.984375 -1.421875 
Q 24.8125 -1.421875 18.96875 -0.25 
Q 13.140625 0.921875 6.890625 3.21875 
L 6.890625 13.375 
Q 12.890625 10.015625 18.65625 8.296875 
Q 24.421875 6.59375 29.984375 6.59375 
Q 38.421875 6.59375 43.015625 9.90625 
Q 47.609375 13.234375 47.609375 19.390625 
Q 47.609375 24.75 44.3125 27.78125 
Q 41.015625 30.8125 33.5 32.328125 
L 27.484375 33.5 
Q 16.453125 35.6875 11.515625 40.375 
Q 6.59375 45.0625 6.59375 53.421875 
Q 6.59375 63.09375 13.40625 68.65625 
Q 20.21875 74.21875 32.171875 74.21875 
Q 37.3125 74.21875 42.625 73.28125 
Q 47.953125 72.359375 53.515625 70.515625 
z
" id="DejaVuSans-83"/>
       <path d="M 25.390625 72.90625 
L 33.6875 72.90625 
L 8.296875 -9.28125 
L 0 -9.28125 
z
" id="DejaVuSans-47"/>
       <path d="M 3.328125 72.90625 
L 13.28125 72.90625 
L 28.609375 11.28125 
L 43.890625 72.90625 
L 54.984375 72.90625 
L 70.3125 11.28125 
L 85.59375 72.90625 
L 95.609375 72.90625 
L 77.296875 0 
L 64.890625 0 
L 49.515625 63.28125 
L 33.984375 0 
L 21.578125 0 
z
" id="DejaVuSans-87"/>
       <path d="M 45.40625 46.390625 
L 45.40625 75.984375 
L 54.390625 75.984375 
L 54.390625 0 
L 45.40625 0 
L 45.40625 8.203125 
Q 42.578125 3.328125 38.25 0.953125 
Q 33.9375 -1.421875 27.875 -1.421875 
Q 17.96875 -1.421875 11.734375 6.484375 
Q 5.515625 14.40625 5.515625 27.296875 
Q 5.515625 40.1875 11.734375 48.09375 
Q 17.96875 56 27.875 56 
Q 33.9375 56 38.25 53.625 
Q 42.578125 51.265625 45.40625 46.390625 
z
M 14.796875 27.296875 
Q 14.796875 17.390625 18.875 11.75 
Q 22.953125 6.109375 30.078125 6.109375 
Q 37.203125 6.109375 41.296875 11.75 
Q 45.40625 17.390625 45.40625 27.296875 
Q 45.40625 37.203125 41.296875 42.84375 
Q 37.203125 48.484375 30.078125 48.484375 
Q 22.953125 48.484375 18.875 42.84375 
Q 14.796875 37.203125 14.796875 27.296875 
z
" id="DejaVuSans-100"/>
       <path d="M 4.203125 54.6875 
L 13.1875 54.6875 
L 24.421875 12.015625 
L 35.59375 54.6875 
L 46.1875 54.6875 
L 57.421875 12.015625 
L 68.609375 54.6875 
L 77.59375 54.6875 
L 63.28125 0 
L 52.6875 0 
L 40.921875 44.828125 
L 29.109375 0 
L 18.5 0 
z
" id="DejaVuSans-119"/>
       <path d="M 54.890625 33.015625 
L 54.890625 0 
L 45.90625 0 
L 45.90625 32.71875 
Q 45.90625 40.484375 42.875 44.328125 
Q 39.84375 48.1875 33.796875 48.1875 
Q 26.515625 48.1875 22.3125 43.546875 
Q 18.109375 38.921875 18.109375 30.90625 
L 18.109375 0 
L 9.078125 0 
L 9.078125 75.984375 
L 18.109375 75.984375 
L 18.109375 46.1875 
Q 21.34375 51.125 25.703125 53.5625 
Q 30.078125 56 35.796875 56 
Q 45.21875 56 50.046875 50.171875 
Q 54.890625 44.34375 54.890625 33.015625 
z
" id="DejaVuSans-104"/>
      </defs>
      <use xlink:href="#DejaVuSans-78"/>
      <use x="74.804688" xlink:href="#DejaVuSans-117"/>
      <use x="138.183594" xlink:href="#DejaVuSans-109"/>
      <use x="235.595703" xlink:href="#DejaVuSans-98"/>
      <use x="299.072266" xlink:href="#DejaVuSans-101"/>
      <use x="360.595703" xlink:href="#DejaVuSans-114"/>
      <use x="401.708984" xlink:href="#DejaVuSans-32"/>
      <use x="433.496094" xlink:href="#DejaVuSans-111"/>
      <use x="494.677734" xlink:href="#DejaVuSans-102"/>
      <use x="529.882812" xlink:href="#DejaVuSans-32"/>
      <use x="561.669922" xlink:href="#DejaVuSans-112"/>
      <use x="625.146484" xlink:href="#DejaVuSans-105"/>
      <use x="652.929688" xlink:href="#DejaVuSans-112"/>
      <use x="716.40625" xlink:href="#DejaVuSans-45"/>
      <use x="752.490234" xlink:href="#DejaVuSans-105"/>
      <use x="780.273438" xlink:href="#DejaVuSans-110"/>
      <use x="843.652344" xlink:href="#DejaVuSans-115"/>
      <use x="895.751953" xlink:href="#DejaVuSans-116"/>
      <use x="934.960938" xlink:href="#DejaVuSans-97"/>
      <use x="996.240234" xlink:href="#DejaVuSans-108"/>
      <use x="1024.023438" xlink:href="#DejaVuSans-108"/>
      <use x="1051.806641" xlink:href="#DejaVuSans-115"/>
      <use x="1103.90625" xlink:href="#DejaVuSans-32"/>
      <use x="1135.693359" xlink:href="#DejaVuSans-111"/>
      <use x="1196.875" xlink:href="#DejaVuSans-110"/>
      <use x="1260.253906" xlink:href="#DejaVuSans-32"/>
      <use x="1292.041016" xlink:href="#DejaVuSans-77"/>
      <use x="1378.320312" xlink:href="#DejaVuSans-97"/>
      <use x="1439.599609" xlink:href="#DejaVuSans-99"/>
      <use x="1494.580078" xlink:href="#DejaVuSans-79"/>
      <use x="1573.291016" xlink:href="#DejaVuSans-83"/>
      <use x="1636.767578" xlink:href="#DejaVuSans-47"/>
      <use x="1670.458984" xlink:href="#DejaVuSans-87"/>
      <use x="1767.085938" xlink:href="#DejaVuSans-105"/>
      <use x="1794.869141" xlink:href="#DejaVuSans-110"/>
      <use x="1858.248047" xlink:href="#DejaVuSans-100"/>
      <use x="1921.724609" xlink:href="#DejaVuSans-111"/>
      <use x="1982.90625" xlink:href="#DejaVuSans-119"/>
      <use x="2064.693359" xlink:href="#DejaVuSans-115"/>
      <use x="2116.792969" xlink:href="#DejaVuSans-32"/>
      <use x="2148.580078" xlink:href="#DejaVuSans-112"/>
      <use x="2212.056641" xlink:href="#DejaVuSans-101"/>
      <use x="2273.580078" xlink:href="#DejaVuSans-114"/>
      <use x="2314.693359" xlink:href="#DejaVuSans-32"/>
      <use x="2346.480469" xlink:href="#DejaVuSans-109"/>
      <use x="2443.892578" xlink:href="#DejaVuSans-111"/>
      <use x="2505.074219" xlink:href="#DejaVuSans-110"/>
      <use x="2568.453125" xlink:href="#DejaVuSans-116"/>
      <use x="2607.662109" xlink:href="#DejaVuSans-104"/>
     </g>
    </g>
   </g>
   <g id="line2d_73">
    <path clip-path="url(#p690329348c)" d="M -1 267.94582 
L -0.138462 262.471606 
L 4.153846 247.92314 
L 8.446154 244.499497 
L 12.738462 224.008484 
L 17.030769 214.380572 
L 21.323077 214.686777 
L 25.615385 236.247606 
L 29.907692 260.453365 
L 34.2 265.707435 
L 38.492308 253.279544 
L 47.076923 250.130097 
L 51.369231 250.894142 
L 55.661538 252.468235 
L 59.953846 243.209313 
L 64.246154 223.236947 
L 68.538462 211.1608 
L 72.830769 210.880748 
L 77.123077 222.48025 
L 81.415385 226.418241 
L 85.707692 232.208465 
L 90 231.731525 
L 94.292308 250.130097 
L 98.584615 237.325676 
L 102.876923 236.782949 
L 107.169231 228.545629 
L 111.461538 227.680823 
L 115.753846 229.42987 
L 120.046154 228.985265 
L 124.338462 234.68394 
L 128.630769 239.000272 
L 132.923077 236.782949 
L 137.215385 235.198289 
L 141.507692 234.176229 
L 145.8 232.691257 
L 150.092308 237.325676 
L 154.384615 236.247606 
L 158.676923 251.673318 
L 162.969231 257.607758 
L 167.261538 262.471606 
L 171.553846 244.499497 
L 175.846154 242.579746 
L 180.138462 245.160808 
L 184.430769 275.918443 
L 188.723077 280.552862 
L 193.015385 282.227458 
L 197.307692 271.772814 
L 201.6 268.022637 
L 205.892308 268.022637 
L 210.184615 273.106741 
L 214.476923 283.976505 
L 218.769231 270.482631 
L 223.061538 254.107934 
L 227.353846 236.247606 
L 231.646154 238.434118 
L 235.938462 243.849117 
L 240.230769 269.233412 
L 244.523077 266.84801 
L 248.815385 257.607758 
L 253.107692 254.95414 
L 257.4 258.533614 
L 261.692308 278.946635 
L 265.984615 278.946635 
L 270.276923 275.918443 
L 274.569231 266.84801 
L 278.861538 269.233412 
L 283.153846 265.707435 
L 287.446154 270.482631 
L 291.738462 262.471606 
L 296.030769 266.84801 
L 300.323077 252.468235 
L 304.615385 210.880748 
L 313.2 204.935147 
L 317.492308 232.208465 
L 321.784615 226.006226 
L 326.076923 232.691257 
L 330.369231 234.68394 
L 334.661538 206.153421 
L 343.246154 180.651653 
L 347.538462 185.464443 
L 351.830769 194.648808 
L 356.123077 209.509631 
L 360.415385 217.226179 
L 364.707692 215.306429 
L 369 212.301375 
L 373.292308 220.649823 
L 377.584615 220.649823 
L 381.876923 215.619953 
L 386.169231 196.540859 
L 390.461538 191.971103 
L 394.753846 184.596458 
L 399.046154 202.156552 
L 403.338462 209.780059 
L 407.630769 199.982127 
L 411.923077 168.121429 
L 416.215385 159.530097 
L 420.507692 159.910265 
L 424.8 152.800164 
L 429.092308 150.149319 
L 433.384615 141.131525 
L 437.676923 146.94488 
L 441.969231 151.176086 
L 446.261538 168.594925 
L 450.553846 193.19806 
L 454.846154 188.346635 
L 459.138462 179.882631 
L 463.430769 156.194831 
L 467.723077 152.545901 
L 472.015385 140.473374 
L 476.307692 143.425184 
L 480.6 141.56051 
L 484.892308 142.777276 
L 489.184615 142.629262 
L 493.476923 148.457338 
L 497.769231 170.950566 
L 502.061538 176.713661 
L 506.353846 164.098362 
L 510.646154 150.030266 
L 514.938462 138.4295 
L 519.230769 120.224976 
L 523.523077 115.331329 
L 527.815385 114.96394 
L 532.107692 120.169284 
L 536.4 114.239296 
L 540.692308 105.002383 
L 544.984615 94.514948 
L 549.276923 91.568996 
L 553.569231 91.474945 
L 557.861538 101.717775 
L 562.153846 104.28969 
L 566.446154 111.73581 
L 570.738462 111.803243 
L 575.030769 121.441848 
L 579.323077 130.337029 
L 583.615385 120.5608 
L 587.907692 117.741346 
L 592.2 105.824734 
L 596.492308 107.704886 
L 600.784615 110.97954 
L 605.076923 112.369724 
L 609.369231 118.321153 
L 613.661538 109.679408 
L 617.953846 114.720906 
L 622.246154 108.482846 
L 626.538462 115.233023 
L 630.830769 108.462175 
L 635.123077 108.173917 
L 639.415385 97.292836 
L 643.707692 88.75312 
L 648 88.778174 
L 648 88.778174 
" style="fill:none;stroke:#1f77b4;stroke-dasharray:1.5,2.475;stroke-dashoffset:0;stroke-width:1.5;"/>
   </g>
   <g id="line2d_74">
    <path clip-path="url(#p690329348c)" d="M -1 258.783729 
L -0.138462 254.107934 
L 4.153846 228.985265 
L 8.446154 227.680823 
L 12.738462 228.985265 
L 17.030769 217.88749 
L 21.323077 213.179041 
L 25.615385 211.1608 
L 29.907692 224.008484 
L 34.2 223.620824 
L 38.492308 219.24442 
L 42.784615 222.107289 
L 47.076923 221.009159 
L 51.369231 221.73783 
L 55.661538 210.052358 
L 59.953846 208.974289 
L 64.246154 199.561299 
L 68.538462 204.221888 
L 72.830769 195.583462 
L 77.123077 203.753465 
L 81.415385 207.666956 
L 85.707692 234.68394 
L 90 237.875994 
L 94.292308 230.794645 
L 102.876923 218.900776 
L 107.169231 224.795451 
L 111.461538 223.620824 
L 115.753846 232.691257 
L 120.046154 233.674986 
L 124.338462 230.794645 
L 128.630769 226.834616 
L 132.923077 223.620824 
L 141.507692 226.006226 
L 145.8 231.260297 
L 150.092308 228.545629 
L 154.384615 228.545629 
L 158.676923 222.856779 
L 162.969231 223.620824 
L 167.261538 222.48025 
L 171.553846 224.4 
L 175.846154 224.008484 
L 180.138462 224.4 
L 184.430769 223.236947 
L 188.723077 221.73783 
L 193.015385 222.48025 
L 197.307692 227.680823 
L 201.6 228.545629 
L 205.892308 229.879556 
L 210.184615 229.879556 
L 214.476923 239.000272 
L 218.769231 230.33444 
L 223.061538 229.42987 
L 227.353846 219.940847 
L 231.646154 228.11085 
L 235.938462 227.680823 
L 240.230769 234.68394 
L 244.523077 227.680823 
L 248.815385 229.879556 
L 253.107692 231.731525 
L 257.4 238.434118 
L 261.692308 237.325676 
L 265.984615 238.434118 
L 270.276923 237.875994 
L 274.569231 240.157623 
L 278.861538 246.517738 
L 283.153846 243.849117 
L 287.446154 239.000272 
L 291.738462 231.731525 
L 296.030769 234.68394 
L 300.323077 243.849117 
L 304.615385 247.92314 
L 308.907692 247.92314 
L 313.2 250.130097 
L 317.492308 258.533614 
L 321.784615 268.022637 
L 326.076923 264.598993 
L 330.369231 274.487482 
L 334.661538 250.130097 
L 338.953846 236.782949 
L 343.246154 219.591093 
L 347.538462 221.009159 
L 351.830769 214.686777 
L 356.123077 213.179041 
L 360.415385 206.153421 
L 364.707692 204.221888 
L 369 204.935147 
L 373.292308 210.052358 
L 377.584615 208.184689 
L 381.876923 205.175803 
L 386.169231 203.986979 
L 390.461538 205.90673 
L 394.753846 209.241049 
L 399.046154 219.940847 
L 403.338462 224.008484 
L 407.630769 223.236947 
L 411.923077 213.179041 
L 416.215385 209.780059 
L 420.507692 207.155948 
L 424.8 203.290552 
L 429.092308 200.194241 
L 433.384615 200.194241 
L 437.676923 204.695955 
L 441.969231 205.90673 
L 446.261538 209.780059 
L 450.553846 211.726955 
L 454.846154 213.179041 
L 459.138462 210.326555 
L 463.430769 204.221888 
L 467.723077 208.446132 
L 472.015385 205.90673 
L 476.307692 211.726955 
L 480.6 217.88749 
L 484.892308 229.879556 
L 489.184615 228.11085 
L 493.476923 221.009159 
L 497.769231 215.935995 
L 502.061538 223.236947 
L 506.353846 234.176229 
L 510.646154 243.209313 
L 519.230769 214.076732 
L 523.523077 213.179041 
L 527.815385 221.371808 
L 532.107692 230.33444 
L 536.4 237.325676 
L 540.692308 231.731525 
L 544.984615 236.782949 
L 549.276923 232.208465 
L 553.569231 246.517738 
L 557.861538 254.107934 
L 562.153846 265.707435 
L 566.446154 243.849117 
L 575.030769 233.180047 
L 579.323077 236.782949 
L 583.615385 236.247606 
L 587.907692 229.879556 
L 592.2 229.879556 
L 596.492308 224.008484 
L 600.784615 230.794645 
L 605.076923 229.879556 
L 609.369231 239.000272 
L 613.661538 237.875994 
L 617.953846 238.434118 
L 622.246154 241.960094 
L 626.538462 240.157623 
L 630.830769 240.749319 
L 635.123077 239.000272 
L 639.415385 245.160808 
L 643.707692 244.499497 
L 648 249.380606 
L 648 249.380606 
" style="fill:none;stroke:#ff7f0e;stroke-dasharray:1.5,2.475;stroke-dashoffset:0;stroke-width:1.5;"/>
   </g>
   <g id="line2d_75">
    <path clip-path="url(#p690329348c)" d="M -1 238.068567 
L -0.138462 232.691257 
L 4.153846 219.24442 
L 8.446154 218.900776 
L 12.738462 218.222361 
L 17.030769 201.054321 
L 21.323077 197.522134 
L 25.615385 200.407505 
L 29.907692 221.73783 
L 34.2 237.325676 
L 38.492308 240.157623 
L 42.784615 236.782949 
L 47.076923 237.875994 
L 51.369231 228.545629 
L 55.661538 215.935995 
L 59.953846 210.326555 
L 64.246154 206.902911 
L 68.538462 219.24442 
L 72.830769 211.726955 
L 77.123077 213.179041 
L 81.415385 212.591761 
L 85.707692 229.42987 
L 90 248.645125 
L 94.292308 243.209313 
L 98.584615 228.545629 
L 102.876923 222.856779 
L 107.169231 226.418241 
L 111.461538 233.674986 
L 115.753846 232.208465 
L 120.046154 237.325676 
L 124.338462 230.33444 
L 128.630769 226.006226 
L 132.923077 228.11085 
L 137.215385 230.794645 
L 141.507692 242.579746 
L 145.8 233.180047 
L 150.092308 241.35005 
L 154.384615 239.000272 
L 158.676923 243.849117 
L 162.969231 243.849117 
L 167.261538 245.833424 
L 171.553846 243.849117 
L 175.846154 237.875994 
L 180.138462 231.260297 
L 184.430769 231.731525 
L 188.723077 231.260297 
L 193.015385 240.749319 
L 197.307692 236.782949 
L 201.6 234.176229 
L 205.892308 224.795451 
L 210.184615 225.194918 
L 214.476923 229.42987 
L 218.769231 230.794645 
L 223.061538 226.834616 
L 227.353846 226.834616 
L 231.646154 233.180047 
L 235.938462 253.279544 
L 240.230769 253.279544 
L 244.523077 269.233412 
L 248.815385 259.481783 
L 253.107692 263.520924 
L 257.4 254.107934 
L 261.692308 245.833424 
L 265.984615 241.35005 
L 270.276923 245.833424 
L 274.569231 254.107934 
L 278.861538 264.598993 
L 283.153846 250.130097 
L 287.446154 250.894142 
L 291.738462 253.279544 
L 296.030769 264.598993 
L 300.323077 268.022637 
L 304.615385 271.772814 
L 308.907692 275.918443 
L 313.2 280.552862 
L 317.492308 285.806932 
L 321.784615 285.806932 
L 326.076923 282.227458 
L 330.369231 280.552862 
L 334.661538 260.453365 
L 343.246154 233.674986 
L 347.538462 241.960094 
L 351.830769 240.749319 
L 356.123077 243.209313 
L 360.415385 228.11085 
L 364.707692 225.194918 
L 369 222.856779 
L 373.292308 226.006226 
L 377.584615 231.260297 
L 381.876923 224.008484 
L 386.169231 231.731525 
L 390.461538 226.418241 
L 394.753846 236.782949 
L 399.046154 233.674986 
L 403.338462 244.499497 
L 407.630769 250.130097 
L 411.923077 243.209313 
L 416.215385 229.42987 
L 424.8 233.180047 
L 429.092308 236.247606 
L 433.384615 214.076732 
L 437.676923 214.380572 
L 441.969231 218.560106 
L 446.261538 240.157623 
L 450.553846 245.833424 
L 454.846154 246.517738 
L 459.138462 248.645125 
L 463.430769 247.214165 
L 467.723077 242.579746 
L 472.015385 230.794645 
L 476.307692 233.180047 
L 480.6 235.71945 
L 484.892308 251.673318 
L 489.184615 247.214165 
L 493.476923 250.130097 
L 497.769231 241.35005 
L 502.061538 244.499497 
L 506.353846 249.380606 
L 510.646154 265.707435 
L 514.938462 257.607758 
L 519.230769 251.673318 
L 523.523077 241.960094 
L 527.815385 235.71945 
L 532.107692 233.180047 
L 536.4 226.834616 
L 540.692308 228.11085 
L 544.984615 230.33444 
L 549.276923 241.35005 
L 553.569231 255.818946 
L 557.861538 266.84801 
L 562.153846 266.84801 
L 566.446154 270.482631 
L 570.738462 251.673318 
L 575.030769 249.380606 
L 579.323077 236.782949 
L 583.615385 235.71945 
L 587.907692 230.794645 
L 592.2 227.680823 
L 596.492308 234.176229 
L 600.784615 240.157623 
L 605.076923 250.894142 
L 609.369231 254.107934 
L 613.661538 247.92314 
L 617.953846 248.645125 
L 622.246154 236.782949 
L 626.538462 241.960094 
L 630.830769 243.849117 
L 635.123077 253.279544 
L 639.415385 255.818946 
L 643.707692 249.380606 
L 648 254.95414 
L 648 254.95414 
" style="fill:none;stroke:#2ca02c;stroke-dasharray:1.5,2.475;stroke-dashoffset:0;stroke-width:1.5;"/>
   </g>
   <g id="line2d_76">
    <path clip-path="url(#p690329348c)" d="M 201.598774 361 
L 201.6 335.099497 
L 205.892308 323.780047 
L 210.184615 311.249823 
L 214.476923 329.034118 
L 218.769231 335.099497 
L 227.353846 335.099497 
L 231.646154 319.145629 
L 235.938462 304.676732 
L 240.230769 287.726682 
L 244.523077 289.744924 
L 248.815385 294.121328 
L 253.107692 307.826179 
L 257.4 304.676732 
L 261.692308 307.826179 
L 265.984615 315 
L 270.276923 277.403415 
L 274.569231 265.707435 
L 278.861538 253.279544 
L 283.153846 262.471606 
L 287.446154 264.598993 
L 291.738462 271.772814 
L 296.030769 277.403415 
L 300.323077 289.744924 
L 304.615385 296.50673 
L 308.907692 285.806932 
L 313.2 273.106741 
L 317.492308 268.022637 
L 321.784615 262.471606 
L 326.076923 266.84801 
L 330.369231 274.487482 
L 334.661538 264.598993 
L 338.953846 250.894142 
L 343.246154 237.875994 
L 347.538462 242.579746 
L 351.830769 249.380606 
L 356.123077 254.107934 
L 360.415385 224.4 
L 364.707692 210.880748 
L 369 202.156552 
L 373.292308 205.661576 
L 377.584615 205.661576 
L 381.876923 203.290552 
L 386.169231 196.347507 
L 390.461538 198.122864 
L 394.753846 199.77115 
L 399.046154 219.591093 
L 403.338462 216.254597 
L 407.630769 222.856779 
L 411.923077 206.153421 
L 416.215385 201.491515 
L 420.507692 195.773087 
L 424.8 194.833971 
L 429.092308 192.843579 
L 433.384615 178.144622 
L 437.676923 173.998993 
L 441.969231 171.357258 
L 446.261538 180.009762 
L 450.553846 186.803415 
L 454.846154 195.206932 
L 459.138462 197.126682 
L 463.430769 192.843579 
L 467.723077 191.456755 
L 472.015385 189.626328 
L 476.307692 189.464072 
L 480.6 185.905724 
L 484.892308 188.346635 
L 489.184615 190.4478 
L 493.476923 193.19806 
L 497.769231 190.4478 
L 502.061538 189.952862 
L 506.353846 184.883664 
L 510.646154 183.329358 
L 514.938462 168.785931 
L 519.230769 133.44746 
L 523.523077 126.169787 
L 527.815385 123.295548 
L 532.107692 134.116043 
L 536.4 130.049823 
L 540.692308 121.298402 
L 544.984615 110.563165 
L 549.276923 100.349043 
L 553.569231 94.428057 
L 557.861538 93.75397 
L 562.153846 92.812574 
L 566.446154 97.542561 
L 570.738462 95.962021 
L 575.030769 104.104265 
L 579.323077 106.507014 
L 583.615385 104.159801 
L 587.907692 97.355119 
L 592.2 87.37497 
L 596.492308 86.020089 
L 600.784615 86.172257 
L 605.076923 87.520341 
L 609.369231 91.247466 
L 613.661538 91.893176 
L 617.953846 96.890384 
L 622.246154 93.796654 
L 626.538462 92.743215 
L 630.830769 81.604353 
L 635.123077 82.41675 
L 639.415385 80.563555 
L 643.707692 79.638881 
L 648 79.958048 
L 648 79.958048 
" style="fill:none;stroke:#d62728;stroke-linecap:square;stroke-width:1.5;"/>
   </g>
   <g id="line2d_77">
    <path clip-path="url(#p690329348c)" d="M 345.30897 361 
L 347.538462 342.273318 
L 351.830769 319.145629 
L 356.123077 289.744924 
L 360.415385 190.11715 
L 364.707692 148.00311 
L 369 135.242621 
L 373.292308 131.13783 
L 377.584615 147.946699 
L 381.876923 151.176086 
L 386.169231 163.424306 
L 390.461538 145.435492 
L 394.753846 134.796182 
L 399.046154 134.474651 
L 403.338462 129.200572 
L 407.630769 134.076398 
L 411.923077 127.154336 
L 416.215385 129.907002 
L 420.507692 136.697776 
L 424.8 131.433119 
L 429.092308 116.912956 
L 433.384615 104.085771 
L 437.676923 104.196869 
L 441.969231 118.215096 
L 446.261538 109.066085 
L 450.553846 107.583445 
L 454.846154 108.877671 
L 459.138462 113.223374 
L 463.430769 107.30153 
L 467.723077 90.246281 
L 472.015385 81.583474 
L 476.307692 75.853501 
L 480.6 78.397114 
L 484.892308 84.507435 
L 489.184615 95.513361 
L 493.476923 100.959088 
L 497.769231 109.743405 
L 502.061538 111.690919 
L 506.353846 110.847577 
L 510.646154 113.014018 
L 514.938462 105.689686 
L 519.230769 95.025672 
L 523.523077 92.770944 
L 527.815385 93.259387 
L 532.107692 105.440106 
L 536.4 104.644423 
L 540.692308 104.813577 
L 544.984615 97.999266 
L 549.276923 88.928833 
L 553.569231 79.037549 
L 557.861538 77.937804 
L 562.153846 79.758266 
L 566.446154 90.389622 
L 570.738462 89.244571 
L 575.030769 97.573888 
L 579.323077 100.652883 
L 583.615385 100.805688 
L 587.907692 95.439079 
L 592.2 85.740701 
L 596.492308 84.823478 
L 600.784615 85.00522 
L 605.076923 87.013875 
L 609.369231 88.39162 
L 613.661538 86.537512 
L 617.953846 91.061112 
L 622.246154 89.550082 
L 626.538462 91.234125 
L 630.830769 80.108554 
L 635.123077 82.151141 
L 639.415385 79.559492 
L 643.707692 78.358632 
L 648 78.580415 
L 648 78.580415 
" style="fill:none;stroke:#9467bd;stroke-linecap:square;stroke-width:1.5;"/>
   </g>
   <g id="line2d_78">
    <path clip-path="url(#p690329348c)" d="M 479.034587 361 
L 480.6 351.053365 
L 484.892308 351.053365 
L 488.664048 361 
M 515.23163 361 
L 519.230769 342.273318 
L 523.523077 323.780047 
L 527.815385 335.099497 
L 532.107692 335.099497 
L 536.4 342.273318 
L 540.692308 329.034118 
L 544.984615 342.273318 
L 548.983754 361 
M 582.049971 361 
L 583.615385 351.053365 
L 587.907692 342.273318 
L 592.2 342.273318 
L 596.199139 361 
L 596.199139 361 
" style="fill:none;stroke:#8c564b;stroke-linecap:square;stroke-width:1.5;"/>
   </g>
   <g id="line2d_79">
    <path clip-path="url(#p690329348c)" d="M 347.5367 361 
L 347.538462 323.780047 
L 351.830769 319.145629 
L 356.123077 311.249823 
L 360.415385 335.099497 
L 364.707692 329.034118 
L 369 323.780047 
L 373.292308 335.099497 
L 377.584615 351.053365 
L 378.367322 361 
M 401.10897 361 
L 403.338462 342.273318 
L 407.630769 335.099497 
L 411.923077 335.099497 
L 416.215385 323.780047 
L 420.507692 319.145629 
L 424.8 319.145629 
L 433.384615 351.053365 
L 437.676923 342.273318 
L 441.969231 342.273318 
L 446.261538 351.053365 
L 450.553846 342.273318 
L 454.846154 335.099497 
L 459.138462 329.034118 
L 463.430769 289.744924 
L 472.015385 285.806932 
L 476.307692 304.676732 
L 480.6 307.826179 
L 484.892308 304.676732 
L 489.184615 283.976505 
L 493.476923 278.946635 
L 497.769231 277.403415 
L 502.061538 294.121328 
L 506.353846 294.121328 
L 510.646154 304.676732 
L 514.938462 319.145629 
L 519.230769 335.099497 
L 523.523077 315 
L 527.815385 294.121328 
L 532.107692 287.726682 
L 536.4 282.227458 
L 540.692308 249.380606 
L 544.984615 202.156552 
L 549.276923 188.033111 
L 553.569231 178.388258 
L 557.861538 187.107255 
L 562.153846 185.905724 
L 566.446154 193.735842 
L 570.738462 195.206932 
L 575.030769 206.902911 
L 579.323077 214.686777 
L 583.615385 188.504339 
L 587.907692 165.658583 
L 592.2 150.268734 
L 596.492308 146.507686 
L 600.784615 153.572963 
L 605.076923 159.153567 
L 609.369231 169.170747 
L 613.661538 162.271798 
L 617.953846 164.35414 
L 622.246154 156.334113 
L 626.538462 160.837941 
L 630.830769 158.484762 
L 635.123077 159.833937 
L 639.415385 152.042252 
L 643.707692 141.464775 
L 648 141.849121 
L 648 141.849121 
" style="fill:none;stroke:#e377c2;stroke-linecap:square;stroke-width:1.5;"/>
   </g>
   <g id="line2d_80">
    <path clip-path="url(#p690329348c)" d="M 421.02826 361 
L 424.8 351.053365 
L 429.092308 351.053365 
L 430.657721 361 
M 437.892978 361 
L 441.969231 335.099497 
L 446.261538 323.780047 
L 450.553846 335.099497 
L 454.846154 351.053365 
L 459.138462 311.249823 
L 463.430769 307.826179 
L 467.723077 307.826179 
L 472.015385 351.053365 
L 475.787124 361 
M 476.523747 361 
L 480.6 335.099497 
L 484.892308 342.273318 
L 489.184615 329.034118 
L 493.476923 335.099497 
L 497.769231 329.034118 
L 502.061538 323.780047 
L 506.353846 319.145629 
L 510.646154 315 
L 514.938462 299.046132 
L 523.523077 299.046132 
L 527.815385 319.145629 
L 536.4 351.053365 
L 544.984615 319.145629 
L 549.276923 311.249823 
L 553.569231 296.50673 
L 557.861538 301.7608 
L 562.153846 307.826179 
L 566.338126 361 
M 571.03163 361 
L 575.030769 342.273318 
L 579.323077 335.099497 
L 583.615385 329.034118 
L 587.907692 319.145629 
L 592.2 304.676732 
L 596.492308 294.121328 
L 600.784615 294.121328 
L 605.076923 301.7608 
L 617.953846 301.7608 
L 622.246154 319.145629 
L 626.538462 315 
L 630.830769 234.176229 
L 635.123077 224.008484 
L 639.415385 212.013117 
L 643.707692 230.794645 
L 648 243.849117 
L 648 243.849117 
" style="fill:none;stroke:#7f7f7f;stroke-linecap:square;stroke-width:1.5;"/>
   </g>
   <g id="line2d_81">
    <path clip-path="url(#p690329348c)" d="M 469.681034 361 
L 472.015385 307.826179 
L 476.307692 296.50673 
L 480.6 287.726682 
L 484.892308 315 
L 489.184615 304.676732 
L 493.476923 301.7608 
L 497.769231 299.046132 
L 502.061538 299.046132 
L 506.353846 311.249823 
L 510.646154 307.826179 
L 514.938462 307.826179 
L 519.230769 301.7608 
L 523.523077 289.744924 
L 527.815385 289.744924 
L 532.107692 294.121328 
L 536.4 299.046132 
L 540.692308 289.744924 
L 544.984615 274.487482 
L 549.276923 275.918443 
L 553.569231 283.976505 
L 557.861538 307.826179 
L 562.153846 304.676732 
L 566.446154 299.046132 
L 570.738462 270.482631 
L 575.030769 273.106741 
L 579.323077 282.227458 
L 583.615385 323.780047 
L 587.907692 323.780047 
L 592.2 287.726682 
L 596.492308 257.607758 
L 600.784615 254.95414 
L 605.076923 252.468235 
L 609.369231 273.106741 
L 613.661538 280.552862 
L 617.953846 323.780047 
L 622.246154 335.099497 
L 626.538462 304.676732 
L 630.830769 301.7608 
L 635.123077 296.50673 
L 639.415385 315 
L 643.707692 294.121328 
L 648 296.50673 
L 648 296.50673 
" style="fill:none;stroke:#bcbd22;stroke-linecap:square;stroke-width:1.5;"/>
   </g>
   <g id="line2d_82">
    <path clip-path="url(#p690329348c)" d="M 525.862811 361 
L 527.815385 323.780047 
L 532.107692 304.676732 
L 536.4 304.676732 
L 540.692308 285.806932 
L 544.984615 270.482631 
L 549.276923 262.471606 
L 553.569231 204.935147 
L 557.861538 169.267541 
L 562.153846 157.972328 
L 566.446154 159.078692 
L 570.738462 164.611592 
L 575.030769 164.957503 
L 579.323077 162.35301 
L 583.615385 163.091559 
L 587.907692 161.788017 
L 592.2 155.505723 
L 596.492308 151.360094 
L 600.784615 151.237326 
L 605.076923 159.681724 
L 609.369231 160.526279 
L 613.661538 166.013864 
L 617.953846 169.267541 
L 622.246154 178.144622 
L 626.538462 171.562191 
L 630.830769 166.013864 
L 635.123077 167.560653 
L 639.415385 167.099369 
L 643.707692 167.007758 
L 648 173.889848 
L 648 173.889848 
" style="fill:none;stroke:#17becf;stroke-linecap:square;stroke-width:1.5;"/>
   </g>
   <g id="line2d_83">
    <path clip-path="url(#p690329348c)" d="M 523.521564 361 
L 523.523077 329.034118 
L 527.815385 299.046132 
L 532.107692 260.453365 
L 536.4 262.471606 
L 540.692308 271.772814 
L 544.984615 323.780047 
L 549.276923 335.099497 
L 553.569231 261.449547 
L 557.861538 264.598993 
L 562.153846 262.471606 
L 566.446154 329.034118 
L 570.738462 329.034118 
L 575.030769 261.449547 
L 579.323077 259.481783 
L 583.615385 254.95414 
L 587.907692 301.7608 
L 592.2 301.7608 
L 596.492308 296.50673 
L 600.784615 296.50673 
L 605.076923 294.121328 
L 609.369231 304.676732 
L 613.661538 301.7608 
L 617.953846 311.249823 
L 622.246154 299.046132 
L 626.538462 315 
L 630.830769 299.046132 
L 635.123077 307.826179 
L 639.415385 271.772814 
L 643.707692 241.35005 
L 648 228.545629 
L 648 228.545629 
" style="fill:none;stroke:#1f77b4;stroke-linecap:square;stroke-width:1.5;"/>
   </g>
   <g id="patch_3">
    <path d="M 90 315 
L 90 43.2 
" style="fill:none;stroke:#000000;stroke-linecap:square;stroke-linejoin:miter;stroke-width:0.8;"/>
   </g>
   <g id="patch_4">
    <path d="M 648 315 
L 648 43.2 
" style="fill:none;stroke:#000000;stroke-linecap:square;stroke-linejoin:miter;stroke-width:0.8;"/>
   </g>
   <g id="patch_5">
    <path d="M 90 315 
L 648 315 
" style="fill:none;stroke:#000000;stroke-linecap:square;stroke-linejoin:miter;stroke-width:0.8;"/>
   </g>
   <g id="patch_6">
    <path d="M 90 43.2 
L 648 43.2 
" style="fill:none;stroke:#000000;stroke-linecap:square;stroke-linejoin:miter;stroke-width:0.8;"/>
   </g>
   <g id="legend_1">
    <g id="patch_7">
     <path d="M 97 212.659375 
L 211.015625 212.659375 
Q 213.015625 212.659375 213.015625 210.659375 
L 213.015625 50.2 
Q 213.015625 48.2 211.015625 48.2 
L 97 48.2 
Q 95 48.2 95 50.2 
L 95 210.659375 
Q 95 212.659375 97 212.659375 
z
" style="fill:#ffffff;opacity:0.8;stroke:#cccccc;stroke-linejoin:miter;"/>
    </g>
    <g id="line2d_84">
     <path d="M 99 56.298437 
L 119 56.298437 
" style="fill:none;stroke:#1f77b4;stroke-dasharray:1.5,2.475;stroke-dashoffset:0;stroke-width:1.5;"/>
    </g>
    <g id="line2d_85"/>
    <g id="text_14">
     <!-- iminuit -->
     <g transform="translate(127 59.798437)scale(0.1 -0.1)">
      <use xlink:href="#DejaVuSans-105"/>
      <use x="27.783203" xlink:href="#DejaVuSans-109"/>
      <use x="125.195312" xlink:href="#DejaVuSans-105"/>
      <use x="152.978516" xlink:href="#DejaVuSans-110"/>
      <use x="216.357422" xlink:href="#DejaVuSans-117"/>
      <use x="279.736328" xlink:href="#DejaVuSans-105"/>
      <use x="307.519531" xlink:href="#DejaVuSans-116"/>
     </g>
    </g>
    <g id="line2d_86">
     <path d="M 99 70.976562 
L 119 70.976562 
" style="fill:none;stroke:#ff7f0e;stroke-dasharray:1.5,2.475;stroke-dashoffset:0;stroke-width:1.5;"/>
    </g>
    <g id="line2d_87"/>
    <g id="text_15">
     <!-- root-numpy -->
     <g transform="translate(127 74.476562)scale(0.1 -0.1)">
      <defs>
       <path d="M 32.171875 -5.078125 
Q 28.375 -14.84375 24.75 -17.8125 
Q 21.140625 -20.796875 15.09375 -20.796875 
L 7.90625 -20.796875 
L 7.90625 -13.28125 
L 13.1875 -13.28125 
Q 16.890625 -13.28125 18.9375 -11.515625 
Q 21 -9.765625 23.484375 -3.21875 
L 25.09375 0.875 
L 2.984375 54.6875 
L 12.5 54.6875 
L 29.59375 11.921875 
L 46.6875 54.6875 
L 56.203125 54.6875 
z
" id="DejaVuSans-121"/>
      </defs>
      <use xlink:href="#DejaVuSans-114"/>
      <use x="38.863281" xlink:href="#DejaVuSans-111"/>
      <use x="100.044922" xlink:href="#DejaVuSans-111"/>
      <use x="161.226562" xlink:href="#DejaVuSans-116"/>
      <use x="200.435547" xlink:href="#DejaVuSans-45"/>
      <use x="236.519531" xlink:href="#DejaVuSans-110"/>
      <use x="299.898438" xlink:href="#DejaVuSans-117"/>
      <use x="363.277344" xlink:href="#DejaVuSans-109"/>
      <use x="460.689453" xlink:href="#DejaVuSans-112"/>
      <use x="524.166016" xlink:href="#DejaVuSans-121"/>
     </g>
    </g>
    <g id="line2d_88">
     <path d="M 99 85.654688 
L 119 85.654688 
" style="fill:none;stroke:#2ca02c;stroke-dasharray:1.5,2.475;stroke-dashoffset:0;stroke-width:1.5;"/>
    </g>
    <g id="line2d_89"/>
    <g id="text_16">
     <!-- rootpy -->
     <g transform="translate(127 89.154688)scale(0.1 -0.1)">
      <use xlink:href="#DejaVuSans-114"/>
      <use x="38.863281" xlink:href="#DejaVuSans-111"/>
      <use x="100.044922" xlink:href="#DejaVuSans-111"/>
      <use x="161.226562" xlink:href="#DejaVuSans-116"/>
      <use x="200.435547" xlink:href="#DejaVuSans-112"/>
      <use x="263.912109" xlink:href="#DejaVuSans-121"/>
     </g>
    </g>
    <g id="line2d_90">
     <path d="M 99 100.332812 
L 119 100.332812 
" style="fill:none;stroke:#d62728;stroke-linecap:square;stroke-width:1.5;"/>
    </g>
    <g id="line2d_91"/>
    <g id="text_17">
     <!-- uproot -->
     <g transform="translate(127 103.832812)scale(0.1 -0.1)">
      <use xlink:href="#DejaVuSans-117"/>
      <use x="63.378906" xlink:href="#DejaVuSans-112"/>
      <use x="126.855469" xlink:href="#DejaVuSans-114"/>
      <use x="165.71875" xlink:href="#DejaVuSans-111"/>
      <use x="226.900391" xlink:href="#DejaVuSans-111"/>
      <use x="288.082031" xlink:href="#DejaVuSans-116"/>
     </g>
    </g>
    <g id="line2d_92">
     <path d="M 99 115.010938 
L 119 115.010938 
" style="fill:none;stroke:#9467bd;stroke-linecap:square;stroke-width:1.5;"/>
    </g>
    <g id="line2d_93"/>
    <g id="text_18">
     <!-- awkward -->
     <g transform="translate(127 118.510938)scale(0.1 -0.1)">
      <defs>
       <path d="M 9.078125 75.984375 
L 18.109375 75.984375 
L 18.109375 31.109375 
L 44.921875 54.6875 
L 56.390625 54.6875 
L 27.390625 29.109375 
L 57.625 0 
L 45.90625 0 
L 18.109375 26.703125 
L 18.109375 0 
L 9.078125 0 
z
" id="DejaVuSans-107"/>
      </defs>
      <use xlink:href="#DejaVuSans-97"/>
      <use x="61.279297" xlink:href="#DejaVuSans-119"/>
      <use x="143.066406" xlink:href="#DejaVuSans-107"/>
      <use x="200.976562" xlink:href="#DejaVuSans-119"/>
      <use x="282.763672" xlink:href="#DejaVuSans-97"/>
      <use x="344.042969" xlink:href="#DejaVuSans-114"/>
      <use x="383.40625" xlink:href="#DejaVuSans-100"/>
     </g>
    </g>
    <g id="line2d_94">
     <path d="M 99 129.689062 
L 119 129.689062 
" style="fill:none;stroke:#8c564b;stroke-linecap:square;stroke-width:1.5;"/>
    </g>
    <g id="line2d_95"/>
    <g id="text_19">
     <!-- fast-carpenter -->
     <g transform="translate(127 133.189062)scale(0.1 -0.1)">
      <use xlink:href="#DejaVuSans-102"/>
      <use x="35.205078" xlink:href="#DejaVuSans-97"/>
      <use x="96.484375" xlink:href="#DejaVuSans-115"/>
      <use x="148.583984" xlink:href="#DejaVuSans-116"/>
      <use x="187.792969" xlink:href="#DejaVuSans-45"/>
      <use x="223.876953" xlink:href="#DejaVuSans-99"/>
      <use x="278.857422" xlink:href="#DejaVuSans-97"/>
      <use x="340.136719" xlink:href="#DejaVuSans-114"/>
      <use x="381.25" xlink:href="#DejaVuSans-112"/>
      <use x="444.726562" xlink:href="#DejaVuSans-101"/>
      <use x="506.25" xlink:href="#DejaVuSans-110"/>
      <use x="569.628906" xlink:href="#DejaVuSans-116"/>
      <use x="608.837891" xlink:href="#DejaVuSans-101"/>
      <use x="670.361328" xlink:href="#DejaVuSans-114"/>
     </g>
    </g>
    <g id="line2d_96">
     <path d="M 99 144.367188 
L 119 144.367188 
" style="fill:none;stroke:#e377c2;stroke-linecap:square;stroke-width:1.5;"/>
    </g>
    <g id="line2d_97"/>
    <g id="text_20">
     <!-- pyhf -->
     <g transform="translate(127 147.867188)scale(0.1 -0.1)">
      <use xlink:href="#DejaVuSans-112"/>
      <use x="63.476562" xlink:href="#DejaVuSans-121"/>
      <use x="122.65625" xlink:href="#DejaVuSans-104"/>
      <use x="186.035156" xlink:href="#DejaVuSans-102"/>
     </g>
    </g>
    <g id="line2d_98">
     <path d="M 99 159.045312 
L 119 159.045312 
" style="fill:none;stroke:#7f7f7f;stroke-linecap:square;stroke-width:1.5;"/>
    </g>
    <g id="line2d_99"/>
    <g id="text_21">
     <!-- zfit -->
     <g transform="translate(127 162.545312)scale(0.1 -0.1)">
      <defs>
       <path d="M 5.515625 54.6875 
L 48.1875 54.6875 
L 48.1875 46.484375 
L 14.40625 7.171875 
L 48.1875 7.171875 
L 48.1875 0 
L 4.296875 0 
L 4.296875 8.203125 
L 38.09375 47.515625 
L 5.515625 47.515625 
z
" id="DejaVuSans-122"/>
      </defs>
      <use xlink:href="#DejaVuSans-122"/>
      <use x="52.490234" xlink:href="#DejaVuSans-102"/>
      <use x="87.695312" xlink:href="#DejaVuSans-105"/>
      <use x="115.478516" xlink:href="#DejaVuSans-116"/>
     </g>
    </g>
    <g id="line2d_100">
     <path d="M 99 173.723437 
L 119 173.723437 
" style="fill:none;stroke:#bcbd22;stroke-linecap:square;stroke-width:1.5;"/>
    </g>
    <g id="line2d_101"/>
    <g id="text_22">
     <!-- coffea -->
     <g transform="translate(127 177.223437)scale(0.1 -0.1)">
      <use xlink:href="#DejaVuSans-99"/>
      <use x="54.980469" xlink:href="#DejaVuSans-111"/>
      <use x="116.162109" xlink:href="#DejaVuSans-102"/>
      <use x="151.367188" xlink:href="#DejaVuSans-102"/>
      <use x="186.572266" xlink:href="#DejaVuSans-101"/>
      <use x="248.095703" xlink:href="#DejaVuSans-97"/>
     </g>
    </g>
    <g id="line2d_102">
     <path d="M 99 188.401562 
L 119 188.401562 
" style="fill:none;stroke:#17becf;stroke-linecap:square;stroke-width:1.5;"/>
    </g>
    <g id="line2d_103"/>
    <g id="text_23">
     <!-- mplhep -->
     <g transform="translate(127 191.901562)scale(0.1 -0.1)">
      <use xlink:href="#DejaVuSans-109"/>
      <use x="97.412109" xlink:href="#DejaVuSans-112"/>
      <use x="160.888672" xlink:href="#DejaVuSans-108"/>
      <use x="188.671875" xlink:href="#DejaVuSans-104"/>
      <use x="252.050781" xlink:href="#DejaVuSans-101"/>
      <use x="313.574219" xlink:href="#DejaVuSans-112"/>
     </g>
    </g>
    <g id="line2d_104">
     <path d="M 99 203.079687 
L 119 203.079687 
" style="fill:none;stroke:#1f77b4;stroke-linecap:square;stroke-width:1.5;"/>
    </g>
    <g id="line2d_105"/>
    <g id="text_24">
     <!-- boost-histogram -->
     <g transform="translate(127 206.579687)scale(0.1 -0.1)">
      <defs>
       <path d="M 45.40625 27.984375 
Q 45.40625 37.75 41.375 43.109375 
Q 37.359375 48.484375 30.078125 48.484375 
Q 22.859375 48.484375 18.828125 43.109375 
Q 14.796875 37.75 14.796875 27.984375 
Q 14.796875 18.265625 18.828125 12.890625 
Q 22.859375 7.515625 30.078125 7.515625 
Q 37.359375 7.515625 41.375 12.890625 
Q 45.40625 18.265625 45.40625 27.984375 
z
M 54.390625 6.78125 
Q 54.390625 -7.171875 48.1875 -13.984375 
Q 42 -20.796875 29.203125 -20.796875 
Q 24.46875 -20.796875 20.265625 -20.09375 
Q 16.0625 -19.390625 12.109375 -17.921875 
L 12.109375 -9.1875 
Q 16.0625 -11.328125 19.921875 -12.34375 
Q 23.78125 -13.375 27.78125 -13.375 
Q 36.625 -13.375 41.015625 -8.765625 
Q 45.40625 -4.15625 45.40625 5.171875 
L 45.40625 9.625 
Q 42.625 4.78125 38.28125 2.390625 
Q 33.9375 0 27.875 0 
Q 17.828125 0 11.671875 7.65625 
Q 5.515625 15.328125 5.515625 27.984375 
Q 5.515625 40.671875 11.671875 48.328125 
Q 17.828125 56 27.875 56 
Q 33.9375 56 38.28125 53.609375 
Q 42.625 51.21875 45.40625 46.390625 
L 45.40625 54.6875 
L 54.390625 54.6875 
z
" id="DejaVuSans-103"/>
      </defs>
      <use xlink:href="#DejaVuSans-98"/>
      <use x="63.476562" xlink:href="#DejaVuSans-111"/>
      <use x="124.658203" xlink:href="#DejaVuSans-111"/>
      <use x="185.839844" xlink:href="#DejaVuSans-115"/>
      <use x="237.939453" xlink:href="#DejaVuSans-116"/>
      <use x="277.148438" xlink:href="#DejaVuSans-45"/>
      <use x="313.232422" xlink:href="#DejaVuSans-104"/>
      <use x="376.611328" xlink:href="#DejaVuSans-105"/>
      <use x="404.394531" xlink:href="#DejaVuSans-115"/>
      <use x="456.494141" xlink:href="#DejaVuSans-116"/>
      <use x="495.703125" xlink:href="#DejaVuSans-111"/>
      <use x="556.884766" xlink:href="#DejaVuSans-103"/>
      <use x="620.361328" xlink:href="#DejaVuSans-114"/>
      <use x="661.474609" xlink:href="#DejaVuSans-97"/>
      <use x="722.753906" xlink:href="#DejaVuSans-109"/>
     </g>
    </g>
   </g>
  </g>
 </g>
 <defs>
  <clipPath id="p690329348c">
   <rect height="271.8" width="558" x="90" y="43.2"/>
  </clipPath>
 </defs>
</svg>
